<?xml version="1.0" encoding="utf-8"?>
<!-- Generator: Adobe Illustrator 19.2.1, SVG Export Plug-In . SVG Version: 6.00 Build 0)  -->
<svg version="1.1" id="Layer_1_copy" xmlns="http://www.w3.org/2000/svg" xmlns:xlink="http://www.w3.org/1999/xlink" x="0px"
	 y="0px" viewBox="0 0 771 196" style="enable-background:new 0 0 771 196;" xml:space="preserve">
<style type="text/css">
	.st0{fill:#F7931E;}
	.st1{fill:#FFFF00;}
</style>
<g>
	<path class="st0" d="M28,63.5c0,0.4,0,0.8,0,1c0,0.3-0.1,0.5-0.1,0.7c-0.1,0.2-0.2,0.4-0.3,0.6c-0.1,0.2-0.2,0.4-0.3,0.7
		c-0.8,0.2-1.6,0.5-2.4,0.9s-1.5,0.7-2.3,1.1s-1.5,0.7-2.3,1c-0.7,0.3-1.5,0.5-2.3,0.6c-0.1-0.3-0.1-0.5-0.1-0.6c0-0.2,0-0.3,0-0.5
		s0.1-0.4,0.1-0.6s0-0.5,0-0.9c0.9-0.2,1.7-0.6,2.5-1s1.6-0.9,2.4-1.3s1.6-0.8,2.4-1.1C26.2,63.7,27.1,63.5,28,63.5z"/>
	<path class="st0" d="M38.8,56.1c0.8,0.1,1.3,0.5,1.7,0.9c0.4,0.5,0.5,1,0.5,1.5c0,0.6-0.2,1.1-0.6,1.5c-0.4,0.5-0.9,0.8-1.7,0.9
		h-0.3c-0.1,0-0.2,0-0.3,0s-0.2,0-0.3,0s-0.3,0-0.4,0c-0.1,0-0.3,0-0.4,0c-1.8,0-3.5-0.4-5.2-1.1c-1.7-0.7-3-1.9-4.1-3.4
		c-0.5,0.4-1.1,0.8-1.7,1.3c-0.6,0.4-1.3,0.8-2,1.1s-1.5,0.6-2.3,0.8c-0.6,0.3-1.4,0.4-2.2,0.4c-0.4,0-0.8,0-1.2-0.1
		c-0.4-0.1-0.8-0.1-1.2-0.3c-0.5-0.2-0.9-0.4-1.2-0.6s-0.5-0.5-0.7-0.8s-0.3-0.7-0.4-1c-0.1-0.4-0.1-0.8-0.1-1.3v-0.4
		c0-1,0.2-1.9,0.5-2.7s0.7-1.5,1.3-2.2c0.5-0.7,1.2-1.2,1.9-1.8c0.7-0.5,1.4-1,2.2-1.5c0.8-0.5,1.5-0.9,2.3-1.3
		c0.8-0.4,1.5-0.8,2.2-1.2c0-0.1,0-0.1,0-0.2s0-0.1,0-0.2c0-0.3,0-0.7-0.1-1.1c-0.1-0.4-0.1-0.8-0.2-1.2s-0.2-0.8-0.2-1.2
		c-0.1-0.4-0.1-0.8-0.1-1.2s0.1-0.8,0.2-1.2s0.3-0.7,0.7-1.1c0.3,0.3,0.5,0.7,0.7,1.2s0.4,1,0.5,1.6s0.3,1.1,0.4,1.7
		s0.2,1.1,0.3,1.6c0,0.5,0,0.8,0,1s0,0.3,0.1,0.5s0,0.4,0.1,0.6c0,0.2,0.1,0.6,0.2,1.1c0.2,1,0.5,2,0.8,3.1s0.7,2,1.2,2.9
		c0.3,0.5,0.5,0.8,0.8,1.1s0.6,0.6,0.9,0.8s0.7,0.4,1.1,0.5s0.9,0.3,1.3,0.4c0.7,0.2,1.4,0.3,2.2,0.4c0.7,0.1,1.5,0.2,2.2,0.2H38.8z
		 M19.1,50.7c-0.4,0.3-0.7,0.6-1.1,1s-0.7,0.9-0.9,1.5c-0.1,0.2-0.1,0.3-0.2,0.4s-0.1,0.2-0.1,0.3c0,0.2,0.2,0.4,0.6,0.6
		c0.4,0.2,0.7,0.3,1.2,0.4s0.8,0.1,1.3,0.1c0.6,0,1.3-0.1,1.9-0.2c0.6-0.2,1.3-0.3,1.9-0.6c0.6-0.2,1.2-0.5,1.7-0.8s0.9-0.6,1.3-1
		c-0.1-1-0.3-2-0.5-2.9s-0.4-1.8-0.7-2.7c-0.6,0.1-1,0.3-1.4,0.4c-0.4,0.2-0.7,0.4-1,0.6c-0.4,0.3-0.6,0.4-0.9,0.6
		c-0.2,0.1-0.4,0.2-0.5,0.3s-0.3,0.2-0.4,0.2c-0.1,0.1-0.2,0.2-0.4,0.3c-0.2,0.1-0.4,0.3-0.6,0.5c-0.3,0.2-0.6,0.5-1,0.8L19.1,50.7z
		"/>
	<path class="st0" d="M44.5,43.9c0.4-0.5,0.9-0.9,1.4-1.2c0.6-0.3,1.1-0.6,1.7-0.9c0.6-0.3,1.2-0.6,1.7-0.9c0.5-0.3,1-0.8,1.3-1.3
		c-0.2-0.3-0.5-0.6-0.8-0.7c-0.3-0.1-0.7-0.2-1.1-0.2c-0.3,0-0.7,0-1,0.1c-0.4,0.1-0.7,0.2-1,0.3s-0.7,0.2-1,0.3s-0.6,0.2-0.8,0.3
		c-0.1-0.4-0.2-0.9-0.2-1.3c0-0.6,0.1-1.1,0.4-1.5s0.6-0.8,1-1.1s0.9-0.5,1.4-0.7c0.5-0.1,1.1-0.2,1.6-0.2c0.4,0,0.8,0,1.2,0.1
		s0.8,0.2,1.1,0.4s0.6,0.4,0.8,0.7s0.4,0.6,0.5,1c0.1,0.3,0.1,0.6,0.1,1c0,0.7-0.1,1.3-0.4,1.8c-0.3,0.5-0.6,1-1,1.5
		c-0.4,0.4-0.9,0.8-1.4,1.2c-0.5,0.3-1.1,0.6-1.7,0.8s-1.2,0.4-1.7,0.5s-1.1,0.2-1.6,0.2c-0.1,0-0.2,0-0.2,0L44.5,43.9z"/>
	<path class="st0" d="M59.9,56.1c0.7,0.2,1.2,0.6,1.6,1c0.4,0.4,0.5,0.9,0.5,1.4s-0.2,1-0.5,1.4s-0.9,0.8-1.5,1h-1.6
		c-0.7,0-1.5-0.1-2.2-0.3s-1.5-0.5-2.2-0.9s-1.3-0.9-1.8-1.4s-0.9-1.1-1.2-1.8c-0.8,0.6-1.7,1.1-2.6,1.6c-0.9,0.5-1.9,0.9-3,1.3
		c-1,0.4-2.1,0.7-3.2,1c-1.1,0.3-2.2,0.4-3.3,0.5h-0.4c-0.6-0.2-1-0.6-1.2-1c-0.3-0.5-0.4-0.9-0.4-1.4s0.1-1,0.4-1.5
		s0.7-0.8,1.2-0.9H39c1.3-0.1,2.5-0.3,3.7-0.6s2.4-0.7,3.5-1.1s2.2-0.9,3.2-1.4s1.9-1,2.7-1.5c0.1,0.8,0.3,1.4,0.7,2
		s0.8,1.1,1.4,1.5c0.6,0.4,1.2,0.7,1.9,0.9s1.5,0.3,2.2,0.3L59.9,56.1L59.9,56.1z M54.8,69c-0.2,0-0.3,0.1-0.5,0.1
		c-0.1,0-0.3,0-0.4,0c-0.4,0-0.8-0.1-1.2-0.2c-0.4-0.2-0.7-0.3-1-0.5s-0.7-0.4-1-0.6c-0.4-0.2-0.8-0.3-1.2-0.4
		c-0.3,0-0.6,0.2-0.7,0.4c-0.2,0.2-0.3,0.5-0.4,0.7c-0.1,0.3-0.2,0.5-0.4,0.8c-0.1,0.2-0.4,0.4-0.7,0.5c-0.5,0-0.9-0.1-1.3-0.2
		s-0.7-0.2-1.1-0.4c-0.3-0.2-0.6-0.3-0.9-0.5s-0.6-0.4-0.9-0.5v-0.1c0-0.8,0.1-1.4,0.2-2c0.1-0.6,0.3-1.2,0.4-1.8l0.1-0.2
		c0.1,0,0.2,0,0.2,0c0.1,0,0.1,0,0.2,0c0.3,0,0.7,0.1,1.1,0.2s0.7,0.2,1.1,0.4c0.4,0.2,0.7,0.3,1.1,0.5c0.4,0.2,0.7,0.3,1,0.4
		c0.3,0,0.6-0.1,0.8-0.3c0.2-0.2,0.4-0.3,0.5-0.6c0.1-0.2,0.2-0.5,0.3-0.7c0.1-0.3,0.2-0.5,0.3-0.8c0.7,0,1.4,0.1,2,0.3
		s1.1,0.4,1.6,0.7s0.8,0.7,1,1.2c0.3,0.5,0.4,1,0.4,1.6C55.4,67.4,55.2,68.2,54.8,69z"/>
	<path class="st0" d="M66.8,23c0,0.4,0,0.8,0,1c0,0.3-0.1,0.5-0.1,0.7c-0.1,0.2-0.2,0.4-0.3,0.6c-0.1,0.2-0.2,0.4-0.3,0.7
		c-0.8,0.2-1.6,0.5-2.4,0.9s-1.5,0.7-2.3,1.1s-1.5,0.7-2.3,1c-0.7,0.3-1.5,0.5-2.3,0.6c-0.1-0.3-0.1-0.5-0.1-0.6c0-0.2,0-0.3,0-0.5
		s0.1-0.4,0.1-0.6s0-0.5,0-0.9c0.9-0.2,1.7-0.6,2.5-1s1.6-0.9,2.4-1.3s1.6-0.8,2.4-1.1C65,23.2,65.9,23,66.8,23z"/>
	<path class="st0" d="M59.7,56.1c1.1-0.1,2-0.3,2.7-0.5s1.3-0.5,1.8-0.9c0.5-0.3,0.8-0.8,1-1.2c0.2-0.5,0.3-1,0.3-1.6
		c0-0.3,0-0.7,0-0.9c0-0.3-0.1-0.5-0.1-0.8c-0.1-0.3-0.1-0.6-0.2-1s-0.3-0.8-0.5-1.3c-0.3-1-0.7-1.9-1.1-2.8
		c-0.4-0.9-0.8-1.9-1.2-2.8c-0.4-0.9-0.7-1.9-0.9-2.8c-0.2-0.9-0.4-1.8-0.4-2.7c0-0.6,0.1-1.2,0.2-1.8c0.2-0.6,0.4-1.2,0.7-1.7
		c0.5,0.4,1,0.8,1.5,1.3c0.5,0.5,0.9,1,1.4,1.4c0.5,0.5,1,0.9,1.5,1.2s1.1,0.5,1.7,0.6c0.1,0.3,0.1,0.7,0.2,1.2
		c0,0.5,0.1,0.9,0.1,1.4c0,0.4,0,0.8-0.1,1.1s-0.1,0.7-0.2,0.9c-0.1,0-0.2,0-0.3,0c-0.1,0-0.2,0-0.3,0c-0.3,0-0.5,0-0.7-0.1
		s-0.4-0.2-0.5-0.3s-0.3-0.2-0.5-0.3s-0.4-0.2-0.6-0.2c0.3,1,0.7,2,1,3.1s0.6,2.2,0.9,3.4c0.1,0.5,0.2,1,0.3,1.4
		c0.1,0.4,0.1,0.8,0.2,1.1s0.1,0.7,0.1,1.1c0,0.4,0,0.8,0,1.3c0,1-0.1,2-0.4,3s-0.7,1.8-1.3,2.6s-1.5,1.4-2.5,1.8
		c-1,0.5-2.3,0.7-3.9,0.7c-0.4,0-0.7-0.1-1-0.2c-0.3-0.1-0.5-0.3-0.7-0.6c-0.2-0.2-0.3-0.5-0.5-0.8c-0.1-0.3-0.2-0.6-0.2-0.9
		c0-0.3,0-0.6,0.1-0.9c0.1-0.3,0.2-0.5,0.4-0.8s0.4-0.4,0.7-0.5C58.9,56.2,59.3,56.1,59.7,56.1z"/>
	<path class="st0" d="M83.4,61.8c0,0.4,0,0.8,0,1c0,0.3-0.1,0.5-0.1,0.7c-0.1,0.2-0.2,0.4-0.3,0.6c-0.1,0.2-0.2,0.4-0.3,0.7
		c-0.8,0.2-1.6,0.5-2.4,0.9s-1.5,0.7-2.3,1.1s-1.5,0.7-2.3,1c-0.7,0.3-1.5,0.5-2.3,0.6c0-0.2-0.1-0.4-0.1-0.6s0-0.3,0-0.5
		s0.1-0.4,0.1-0.6s0-0.5,0-0.9c0.9-0.2,1.7-0.6,2.5-1s1.6-0.9,2.4-1.3c0.8-0.4,1.6-0.8,2.4-1.1C81.6,62,82.4,61.8,83.4,61.8z"/>
	<path class="st0" d="M71.8,35.9c0-0.5,0.1-0.9,0.1-1.3c0-0.3,0.1-0.6,0.1-0.7s0.1-0.3,0.1-0.3c0-0.1,0.1-0.1,0.1-0.1
		c0.1-0.1,0.2-0.2,0.2-0.2c0.1-0.1,0.2-0.1,0.2-0.1c0.1,0,0.2,0.1,0.4,0.2c0.5,0.5,1,0.9,1.6,1.4s1.2,1,1.7,1.6s1,1.2,1.4,1.9
		s0.6,1.5,0.6,2.5c0,0.2,0,0.4-0.1,0.7v0.1c0,0.3-0.1,0.5-0.2,0.5s-0.3,0.2-0.5,0.2c-0.2,0.1-0.4,0.1-0.5,0.2s-0.3,0.2-0.4,0.3
		c0.1,1.2,0.3,2.4,0.6,3.6c0.3,1.2,0.6,2.4,1,3.6c0.3,1.2,0.7,2.4,0.9,3.6c0.3,1.2,0.4,2.4,0.4,3.6c0,0.6,0,1.2-0.1,1.9
		c-0.1,0.6-0.2,1.2-0.5,1.9c-0.4-0.2-0.6-0.5-0.8-0.8c-0.2-0.3-0.3-0.6-0.4-0.9c-0.1-0.3-0.1-0.6-0.2-0.9c0-0.3-0.1-0.6-0.1-0.9
		c-0.1-0.8-0.3-1.6-0.5-2.5s-0.5-1.9-0.8-2.9s-0.6-2-0.9-3s-0.6-2-0.9-3c-0.2-0.8-0.4-1.5-0.7-2.3c-0.3-0.8-0.6-1.6-0.8-2.4
		c-0.3-0.8-0.5-1.7-0.7-2.5s-0.3-1.7-0.3-2.5L71.8,35.9L71.8,35.9z"/>
	<path class="st0" d="M93.2,36.7c0.2-0.5,0.5-0.9,0.9-1.2s0.8-0.5,1.3-0.7s0.9-0.5,1.3-0.7c0.4-0.3,0.7-0.6,1-1.1
		c-0.6-0.4-1-0.9-1.3-1.6S96,30,96,29.3s0.1-1.5,0.3-2.2c0.2-0.8,0.5-1.4,0.9-2s0.9-1.1,1.4-1.5s1.1-0.6,1.7-0.6
		c0.5,0,0.9,0.1,1.4,0.4s1,0.7,1.5,1.2c0.1,0.4,0.2,0.8,0.2,1.1s0.1,0.7,0.1,1.1c0,1.3-0.3,2.5-0.9,3.6s-1.3,2-2.2,2.8
		c-0.5,0.5-1,0.9-1.7,1.3c-0.6,0.4-1.2,0.8-1.9,1.1c-0.6,0.3-1.3,0.6-1.9,0.8C94.4,36.6,93.8,36.7,93.2,36.7z M101.4,28.1
		c0-0.2-0.1-0.4-0.2-0.6s-0.3-0.3-0.5-0.4s-0.4-0.2-0.6-0.3c-0.2-0.1-0.5-0.1-0.7-0.1s-0.3,0-0.5,0c-0.1,0-0.3,0.1-0.4,0.2
		c-0.3,0.2-0.5,0.3-0.6,0.5s-0.2,0.3-0.2,0.5s0.1,0.4,0.2,0.6s0.3,0.4,0.5,0.5c0.2,0.2,0.5,0.3,0.7,0.4c0.3,0.1,0.5,0.1,0.8,0.1
		s0.6-0.1,0.9-0.3c0.3-0.2,0.4-0.5,0.4-1v-0.1C101.2,28.1,101.4,28.1,101.4,28.1z"/>
	<path class="st0" d="M88.9,42.2L88.9,42.2c0.3,0,0.4,0.1,0.5,0.3c-0.1,0.6-0.3,1.2-0.5,1.7s-0.5,1-0.7,1.5s-0.5,1-0.7,1.5
		s-0.3,1.1-0.3,1.7c0,0.1,0,0.2,0,0.3s0,0.2,0,0.3c0.1,1.1,0.5,2,1.2,2.8s1.6,1.4,2.7,1.8s2.4,0.8,3.8,1s2.8,0.3,4.3,0.3
		c1.3,0,2.6-0.1,3.9-0.2s2.5-0.3,3.7-0.6s2.2-0.6,3.2-0.9c1-0.3,1.8-0.7,2.4-1.2c-0.1-0.6-0.3-1.2-0.5-1.7c-0.3-0.5-0.6-1-0.9-1.5
		s-0.6-1-0.8-1.5c-0.2-0.5-0.3-1.1-0.3-1.7c0-0.3,0-0.6,0.1-0.9c0.1-0.3,0.2-0.6,0.3-1c0.3,0,0.7,0.2,1.1,0.5s0.7,0.7,1.1,1.1
		c0.3,0.5,0.6,0.9,0.9,1.5c0.3,0.5,0.5,1,0.7,1.5c0.2,0.7,0.4,1.4,0.6,2.1c0.1,0.7,0.2,1.4,0.2,2.1c0,0.8-0.1,1.5-0.3,2.1
		c-0.2,0.7-0.5,1.3-0.9,1.8c-0.6,0.7-1.4,1.3-2.3,1.8c-1,0.5-2.1,0.9-3.3,1.2c-1.2,0.3-2.5,0.6-3.8,0.7c-1.4,0.2-2.7,0.2-4.1,0.2
		c-1.6,0-3.2-0.1-4.7-0.3s-2.8-0.5-4-0.9c-1-0.3-1.8-0.8-2.5-1.4s-1.3-1.3-1.7-2.1s-0.8-1.7-1-2.6c-0.2-0.9-0.3-1.9-0.3-2.9
		c0-0.8,0.1-1.5,0.2-2.3s0.3-1.5,0.6-2.2c0.3-0.7,0.6-1.4,0.9-2.1C88,43.3,88.4,42.7,88.9,42.2z M99.4,63.6c0.9,0.1,1.6,0.3,2.2,0.6
		c0.6,0.3,1.1,0.7,1.6,1.2c0,0.8-0.1,1.5-0.3,2.2c-0.1,0.7-0.4,1.2-0.9,1.5h-0.3c-1.5,0-2.6-0.5-3.2-1.4c0-0.4,0.1-0.8,0.1-1.2
		c0-0.4,0-0.7,0.1-1.1s0.1-0.7,0.2-1C99,64.2,99.2,63.9,99.4,63.6z"/>
	<path class="st0" d="M122.8,43c0.4-0.5,0.9-0.9,1.4-1.2c0.6-0.3,1.1-0.6,1.7-0.9c0.6-0.3,1.2-0.6,1.7-0.9c0.5-0.3,1-0.8,1.3-1.3
		c-0.2-0.3-0.5-0.6-0.8-0.7s-0.7-0.2-1.1-0.2c-0.3,0-0.7,0-1,0.1c-0.4,0.1-0.7,0.2-1,0.3s-0.7,0.2-1,0.3s-0.6,0.2-0.8,0.3
		c-0.1-0.4-0.2-0.9-0.2-1.3c0-0.6,0.1-1.1,0.4-1.5s0.6-0.8,1-1.1s0.9-0.5,1.4-0.7c0.5-0.1,1.1-0.2,1.6-0.2c0.4,0,0.8,0,1.2,0.1
		s0.8,0.2,1.1,0.4s0.6,0.4,0.8,0.7s0.4,0.6,0.5,1c0.1,0.3,0.1,0.6,0.1,1c0,0.7-0.1,1.3-0.4,1.8c-0.3,0.5-0.6,1-1,1.5
		c-0.4,0.4-0.9,0.8-1.4,1.2c-0.5,0.3-1.1,0.6-1.7,0.8s-1.2,0.4-1.7,0.5s-1.1,0.2-1.6,0.2c-0.1,0-0.2,0-0.2,0S122.9,43,122.8,43z"/>
	<path class="st0" d="M135.3,56.1h0.9c0.2,0.1,0.4,0.2,0.6,0.4c0.2,0.2,0.4,0.3,0.5,0.6c0.2,0.2,0.3,0.5,0.4,0.7
		c0.1,0.3,0.2,0.5,0.2,0.8c0,0.2,0,0.4-0.1,0.7s-0.1,0.5-0.3,0.7c-0.1,0.2-0.3,0.4-0.5,0.6c-0.2,0.2-0.5,0.4-0.8,0.5
		c-0.2,0-0.4,0-0.8,0s-0.7,0-1,0s-0.6,0.1-0.9,0.1s-0.4,0.2-0.5,0.3c-0.4,1.4-0.9,2.7-1.6,3.9c-0.6,1.2-1.4,2.3-2.3,3.2
		c-0.9,0.9-1.9,1.7-3.1,2.2s-2.6,0.8-4.2,0.9h-0.3c-0.6,0-1.3,0-2-0.1s-1.4-0.1-2.1-0.2s-1.4-0.2-2.1-0.2c-0.7-0.1-1.4-0.1-2.1-0.1
		c0.8-0.6,1.6-1,2.5-1.3s1.9-0.6,2.9-0.9s2-0.6,3-0.8c1-0.3,1.9-0.6,2.8-1.1l0.6-0.3c0.5-0.3,1.1-0.5,1.6-0.8c0.6-0.3,1.1-0.6,1.5-1
		c0.5-0.4,0.9-0.8,1.2-1.3c0.3-0.5,0.5-1,0.6-1.7c-0.5-0.1-1.1-0.3-1.7-0.3c-0.6-0.1-1.2-0.2-1.9-0.3c-0.6-0.1-1.3-0.3-1.9-0.4
		c-0.6-0.2-1.1-0.4-1.6-0.8c-0.3-0.6-0.4-1.3-0.6-2c-0.1-0.7-0.2-1.4-0.2-2.1c0-0.7,0.1-1.4,0.2-2.1s0.4-1.3,0.7-1.8
		c0.3-0.5,0.7-1,1.1-1.3c0.5-0.3,1-0.5,1.6-0.6c0.1,0,0.2,0,0.2,0c0.1,0,0.1,0,0.2,0c0.8,0,1.4,0.2,2,0.5c0.6,0.4,1.1,0.8,1.5,1.4
		c0.4,0.6,0.8,1.2,1.2,1.8c0.4,0.7,0.7,1.3,1.1,1.9c0.2,0.3,0.4,0.4,0.7,0.5s0.6,0.1,0.9,0.1h1.9L135.3,56.1L135.3,56.1z"/>
	<path class="st0" d="M133.4,33.7c0.2-0.5,0.5-0.9,0.9-1.2s0.8-0.5,1.3-0.7s0.9-0.5,1.3-0.7c0.4-0.3,0.7-0.6,1-1.1
		c-0.6-0.4-1-0.9-1.3-1.6s-0.4-1.4-0.4-2.1s0.1-1.5,0.3-2.2c0.2-0.8,0.5-1.4,0.9-2s0.9-1.1,1.4-1.5s1.1-0.6,1.7-0.6
		c0.5,0,0.9,0.1,1.4,0.4s1,0.7,1.5,1.2c0.1,0.4,0.2,0.8,0.2,1.1s0.1,0.7,0.1,1.1c0,1.3-0.3,2.5-0.9,3.6c-0.6,1.1-1.3,2-2.2,2.8
		c-0.5,0.5-1,0.9-1.7,1.3c-0.6,0.4-1.2,0.8-1.9,1.1c-0.6,0.3-1.3,0.6-1.9,0.8C134.5,33.5,133.9,33.6,133.4,33.7z M141.5,25
		c0-0.2-0.1-0.4-0.2-0.6c-0.1-0.2-0.3-0.3-0.5-0.4s-0.4-0.2-0.6-0.3c-0.2-0.1-0.5-0.1-0.7-0.1s-0.3,0-0.5,0c-0.1,0-0.3,0.1-0.4,0.2
		c-0.3,0.2-0.5,0.3-0.6,0.5s-0.2,0.3-0.2,0.5s0.1,0.4,0.2,0.6c0.1,0.2,0.3,0.4,0.5,0.5c0.2,0.2,0.5,0.3,0.7,0.4
		c0.3,0.1,0.5,0.1,0.8,0.1s0.6-0.1,0.9-0.3c0.3-0.2,0.4-0.5,0.4-1V25H141.5z"/>
	<path class="st0" d="M139.4,56.1c0.8,0,1.6-0.1,2.4-0.3c0.8-0.2,1.4-0.4,1.8-0.7c0-0.5-0.1-0.9-0.2-1.2c-0.1-0.3-0.2-0.6-0.4-0.8
		s-0.3-0.4-0.5-0.6c-0.2-0.2-0.3-0.4-0.5-0.6c-0.2-0.2-0.3-0.5-0.4-0.8c-0.1-0.3-0.1-0.7-0.1-1.2c0-0.4,0.1-0.8,0.3-1.3
		c0.2-0.4,0.4-0.9,0.7-1.4c0.5,0.5,0.9,1,1.4,1.5c0.4,0.5,0.8,1,1.1,1.5s0.6,1.1,0.8,1.8s0.3,1.5,0.3,2.5c0,0.8-0.1,1.5-0.3,2.2
		s-0.6,1.4-1.1,2c-0.6,0.8-1.4,1.4-2.4,1.8c-0.9,0.3-1.9,0.5-2.9,0.5h-3.6c-0.8-0.2-1.3-0.5-1.7-1s-0.5-1-0.5-1.5s0.2-1,0.6-1.5
		c0.4-0.5,0.9-0.8,1.7-0.9H139.4z M146,45.1c-0.2,0-0.3,0.1-0.5,0.1c-0.1,0-0.3,0-0.4,0c-0.4,0-0.8-0.1-1.2-0.2s-0.7-0.3-1-0.5
		s-0.7-0.4-1-0.6c-0.4-0.2-0.8-0.3-1.2-0.4c-0.3,0-0.6,0.2-0.7,0.4c-0.2,0.2-0.3,0.5-0.4,0.7c-0.1,0.3-0.2,0.5-0.4,0.8
		c-0.1,0.2-0.4,0.4-0.7,0.5c-0.5,0-0.9-0.1-1.3-0.2c-0.4-0.1-0.7-0.2-1.1-0.4c-0.3-0.2-0.6-0.3-0.9-0.5c-0.3-0.2-0.6-0.4-0.9-0.5V44
		c0-0.8,0.1-1.4,0.2-2c0.1-0.6,0.3-1.2,0.4-1.8L135,40c0.1,0,0.2,0,0.2,0s0.1,0,0.2,0c0.3,0,0.7,0.1,1.1,0.2
		c0.4,0.1,0.7,0.2,1.1,0.4c0.4,0.2,0.7,0.3,1.1,0.5c0.4,0.2,0.7,0.3,1,0.4c0.3,0,0.6-0.1,0.8-0.3s0.4-0.3,0.5-0.6
		c0.1-0.2,0.2-0.5,0.3-0.7c0.1-0.3,0.2-0.5,0.3-0.8c0.7,0,1.4,0.1,2,0.3s1.1,0.4,1.6,0.7c0.4,0.3,0.8,0.7,1,1.2
		c0.3,0.5,0.4,1,0.4,1.6C146.6,43.5,146.4,44.3,146,45.1z"/>
	<path class="st0" d="M157.4,24.5c0,0.4,0,0.8,0,1c0,0.3-0.1,0.5-0.1,0.7c-0.1,0.2-0.2,0.4-0.3,0.6s-0.2,0.4-0.3,0.7
		c-0.8,0.2-1.6,0.5-2.4,0.9c-0.8,0.4-1.5,0.7-2.3,1.1s-1.5,0.7-2.3,1c-0.7,0.3-1.5,0.5-2.3,0.6c-0.1-0.3-0.1-0.5-0.1-0.6
		c0-0.2,0-0.3,0-0.5s0.1-0.4,0.1-0.6s0-0.5,0-0.9c0.9-0.2,1.7-0.6,2.5-1s1.6-0.9,2.4-1.3c0.8-0.4,1.6-0.8,2.4-1.1
		C155.6,24.7,156.5,24.5,157.4,24.5z"/>
	<path class="st0" d="M150.7,35.9c0-0.5,0.1-0.9,0.1-1.3c0-0.3,0.1-0.6,0.1-0.7s0.1-0.3,0.1-0.3c0-0.1,0.1-0.1,0.1-0.1
		c0.1-0.1,0.2-0.2,0.2-0.2c0.1-0.1,0.2-0.1,0.2-0.1c0.1,0,0.2,0.1,0.4,0.2c0.5,0.5,1,0.9,1.6,1.4s1.2,1,1.7,1.6s1,1.2,1.4,1.9
		s0.6,1.5,0.6,2.5c0,0.2,0,0.4-0.1,0.7v0.1c0,0.3-0.1,0.5-0.2,0.5s-0.3,0.2-0.5,0.2c-0.2,0.1-0.4,0.1-0.5,0.2s-0.3,0.2-0.4,0.3
		c0.1,1.2,0.3,2.4,0.6,3.6c0.3,1.2,0.6,2.4,1,3.6c0.3,1.2,0.7,2.4,0.9,3.6c0.3,1.2,0.4,2.4,0.4,3.6c0,0.6,0,1.2-0.1,1.9
		c-0.1,0.6-0.2,1.2-0.5,1.9c-0.4-0.2-0.6-0.5-0.8-0.8s-0.3-0.6-0.4-0.9c-0.1-0.3-0.1-0.6-0.2-0.9c0-0.3-0.1-0.6-0.1-0.9
		c-0.1-0.8-0.3-1.6-0.5-2.5s-0.5-1.9-0.8-2.9s-0.6-2-0.9-3c-0.3-1-0.6-2-0.9-3c-0.2-0.8-0.4-1.5-0.7-2.3s-0.6-1.6-0.8-2.4
		c-0.3-0.8-0.5-1.7-0.7-2.5s-0.3-1.7-0.3-2.5L150.7,35.9L150.7,35.9z"/>
	<path class="st0" d="M177.5,33.4c0,0.4,0,0.8,0,1c0,0.3-0.1,0.5-0.1,0.7c-0.1,0.2-0.2,0.4-0.3,0.6c-0.1,0.2-0.2,0.4-0.3,0.7
		c-0.8,0.2-1.6,0.5-2.4,0.9c-0.8,0.4-1.5,0.7-2.3,1.1c-0.8,0.4-1.5,0.7-2.3,1c-0.7,0.3-1.5,0.5-2.3,0.6c-0.1-0.3-0.1-0.5-0.1-0.6
		c0-0.2,0-0.3,0-0.5s0.1-0.4,0.1-0.6s0-0.5,0-0.9c0.9-0.2,1.7-0.6,2.5-1s1.6-0.9,2.4-1.3c0.8-0.4,1.6-0.8,2.4-1.1
		C175.7,33.6,176.6,33.4,177.5,33.4z"/>
	<path class="st0" d="M163.3,65.3c0.8-0.5,1.7-1,2.7-1.4s2-0.8,3-1.1c1-0.4,2-0.7,3-1.1c1-0.4,1.9-0.8,2.8-1.3
		c0.9-0.5,1.6-1.1,2.3-1.8s1.2-1.6,1.6-2.6c-0.2-0.1-0.5-0.2-0.7-0.3c-0.3,0-0.5-0.1-0.8-0.1c-0.6,0-1.2,0.1-1.9,0.2
		c-0.6,0.1-1.3,0.2-1.9,0.2c-0.4,0-0.8-0.1-1.2-0.2c-0.4-0.1-0.7-0.3-1-0.6c-0.2-0.6-0.4-1.2-0.5-2s-0.2-1.5-0.2-2.3
		c0-0.7,0.1-1.4,0.2-2.1c0.1-0.7,0.3-1.3,0.6-1.8s0.6-0.9,1-1.3c0.4-0.3,0.9-0.5,1.6-0.5c0.2,0,0.5,0,0.7,0.1
		c0.3,0.1,0.5,0.1,0.8,0.2c0.8,0.3,1.5,0.8,2.1,1.4c0.6,0.6,1.1,1.4,1.5,2.3s0.7,1.8,0.9,2.8s0.3,2,0.3,3.1c0,0.7-0.1,1.4-0.2,2.2
		c-0.1,0.7-0.3,1.4-0.5,2s-0.5,1.3-0.8,1.8c-0.3,0.6-0.7,1-1.2,1.4c-0.5,0.5-1.2,0.9-1.9,1.3s-1.5,0.7-2.4,0.9s-1.8,0.4-2.8,0.5
		s-2,0.2-3.1,0.2c-0.7,0-1.4,0-2.1-0.1C164.8,65.5,164,65.4,163.3,65.3z"/>
	<path class="st0" d="M197.3,42.6c0.2-0.5,0.5-0.9,0.9-1.2s0.8-0.5,1.3-0.7s0.9-0.5,1.3-0.7c0.4-0.3,0.7-0.6,1-1.1
		c-0.6-0.4-1-0.9-1.3-1.6s-0.4-1.4-0.4-2.1c0-0.7,0.1-1.5,0.3-2.2c0.2-0.8,0.5-1.4,0.9-2s0.9-1.1,1.4-1.5s1.1-0.6,1.7-0.6
		c0.5,0,0.9,0.1,1.4,0.4s1,0.7,1.5,1.2c0.1,0.4,0.2,0.8,0.2,1.1s0.1,0.7,0.1,1.1c0,1.3-0.3,2.5-0.9,3.6c-0.6,1.1-1.3,2-2.2,2.8
		c-0.5,0.5-1,0.9-1.7,1.3c-0.6,0.4-1.2,0.8-1.9,1.1c-0.6,0.3-1.3,0.6-1.9,0.8C198.5,42.4,197.9,42.6,197.3,42.6z M205.5,33.9
		c0-0.2-0.1-0.4-0.2-0.6c-0.1-0.2-0.3-0.3-0.5-0.4c-0.2-0.1-0.4-0.2-0.6-0.3c-0.2-0.1-0.5-0.1-0.7-0.1s-0.3,0-0.5,0
		c-0.1,0-0.3,0.1-0.4,0.2c-0.3,0.2-0.5,0.3-0.6,0.5s-0.2,0.3-0.2,0.5s0.1,0.4,0.2,0.6c0.1,0.2,0.3,0.4,0.5,0.5
		c0.2,0.2,0.5,0.3,0.7,0.4c0.3,0.1,0.5,0.1,0.8,0.1s0.6-0.1,0.9-0.3c0.3-0.2,0.4-0.5,0.4-1v-0.1C205.3,33.9,205.5,33.9,205.5,33.9z"
		/>
	<path class="st0" d="M212.7,62.3c-0.3,0.1-0.6,0.1-0.9,0.2c-0.3,0-0.7,0.1-1.3,0.1h-0.4c-0.1,0-0.3,0-0.4,0c-0.1,0-0.3,0-0.4,0
		c-0.6-0.1-1.3-0.2-1.9-0.4c-0.6-0.2-1.3-0.4-1.9-0.7c-0.6-0.2-1.2-0.5-1.8-0.7c-0.6-0.3-1.1-0.5-1.6-0.7c-0.6,0.6-1.2,1.1-1.8,1.6
		s-1.2,0.9-1.9,1.3c-0.7,0.4-1.4,0.7-2.2,1c-0.8,0.3-1.6,0.5-2.6,0.7c-1.1,0.2-2.1,0.5-3,0.7c-0.9,0.3-1.8,0.5-2.7,0.8
		c-0.9,0.2-1.8,0.4-2.8,0.6s-2,0.2-3.2,0.2h-0.2c0.1-0.4,0.5-0.8,1-1.1c0.6-0.3,1.3-0.6,2.1-0.9s1.6-0.5,2.5-0.8
		c0.9-0.3,1.7-0.5,2.5-0.8c0.9-0.3,1.8-0.7,2.9-1.1c1.1-0.4,2.1-0.8,3.2-1.3c1-0.5,2-1,2.9-1.5c0.9-0.6,1.6-1.2,2-2
		c0.3-0.5,0.7-1.1,1-1.7c0.3-0.6,0.7-1.2,1.1-1.8c0.4-0.6,0.8-1.2,1.2-1.8s0.8-1.1,1.3-1.6s1-0.9,1.6-1.2s1.2-0.5,1.8-0.7
		c0.2,0,0.4-0.1,0.6-0.1c0.2,0,0.4,0,0.5,0h0.5l0.4,0.1c0.7,0.1,1.3,0.3,1.7,0.7s0.9,0.8,1.2,1.4c0.3,0.6,0.5,1.2,0.7,2
		c0.1,0.8,0.2,1.6,0.2,2.4v0.7c0,0.2,0,0.4,0,0.6c0,0.2-0.1,0.4-0.1,0.6c-0.1,1-0.4,1.9-0.7,2.8S213.1,61.5,212.7,62.3z M205.9,55.8
		c0.5,0.3,1.1,0.5,1.8,0.7s1.4,0.4,2.1,0.5c0.3,0,0.5,0.1,0.8,0.1c0.1,0,0.2,0,0.3,0s0.2,0,0.3,0s0.2,0,0.3,0c0,0,0.1,0,0.2,0
		s0.1,0,0.2,0c0-0.1,0.1-0.2,0.1-0.3s0.1-0.2,0.1-0.3v-0.3c0-0.3-0.1-0.6-0.2-0.9c-0.2-0.3-0.4-0.5-0.6-0.7
		c-0.3-0.2-0.5-0.4-0.9-0.5c-0.3-0.1-0.7-0.2-1-0.3l-0.4-0.1h-0.4c-0.6,0-1.2,0.2-1.7,0.5C206.4,54.6,206,55.1,205.9,55.8z"/>
	<path class="st0" d="M222.5,43c0.4-0.5,0.9-0.9,1.4-1.2c0.6-0.3,1.1-0.6,1.7-0.9c0.6-0.3,1.2-0.6,1.7-0.9c0.5-0.3,1-0.8,1.3-1.3
		c-0.2-0.3-0.5-0.6-0.8-0.7s-0.7-0.2-1.1-0.2c-0.3,0-0.7,0-1,0.1c-0.4,0.1-0.7,0.2-1,0.3s-0.7,0.2-1,0.3s-0.6,0.2-0.8,0.3
		c-0.1-0.4-0.2-0.9-0.2-1.3c0-0.6,0.1-1.1,0.4-1.5s0.6-0.8,1-1.1s0.9-0.5,1.4-0.7c0.5-0.1,1.1-0.2,1.6-0.2c0.4,0,0.8,0,1.2,0.1
		s0.8,0.2,1.1,0.4s0.6,0.4,0.8,0.7s0.4,0.6,0.5,1c0.1,0.3,0.1,0.6,0.1,1c0,0.7-0.1,1.3-0.4,1.8c-0.3,0.5-0.6,1-1,1.5
		c-0.4,0.4-0.9,0.8-1.4,1.2c-0.5,0.3-1.1,0.6-1.7,0.8c-0.6,0.2-1.2,0.4-1.7,0.5s-1.1,0.2-1.6,0.2c-0.1,0-0.2,0-0.2,0
		S222.6,43,222.5,43z"/>
	<path class="st0" d="M235,56.1h0.9c0.2,0.1,0.4,0.2,0.6,0.4c0.2,0.2,0.4,0.3,0.5,0.6c0.2,0.2,0.3,0.5,0.4,0.7
		c0.1,0.3,0.2,0.5,0.2,0.8c0,0.2,0,0.4-0.1,0.7s-0.1,0.5-0.3,0.7c-0.1,0.2-0.3,0.4-0.5,0.6c-0.2,0.2-0.5,0.4-0.8,0.5
		c-0.2,0-0.4,0-0.8,0s-0.7,0-1,0s-0.6,0.1-0.9,0.1s-0.4,0.2-0.5,0.3c-0.4,1.4-0.9,2.7-1.6,3.9c-0.6,1.2-1.4,2.3-2.3,3.2
		c-0.9,0.9-1.9,1.7-3.1,2.2c-1.2,0.5-2.6,0.8-4.2,0.9h-0.2c-0.6,0-1.3,0-2-0.1s-1.4-0.1-2.1-0.2c-0.7-0.1-1.4-0.2-2.1-0.2
		c-0.7-0.1-1.4-0.1-2.1-0.1c0.8-0.6,1.6-1,2.5-1.3s1.9-0.6,2.9-0.9s2-0.6,3-0.8c1-0.3,1.9-0.6,2.8-1.1l0.6-0.3
		c0.5-0.3,1.1-0.5,1.6-0.8c0.6-0.3,1.1-0.6,1.5-1c0.5-0.4,0.9-0.8,1.2-1.3c0.3-0.5,0.5-1,0.6-1.7c-0.5-0.1-1.1-0.3-1.7-0.3
		c-0.6-0.1-1.2-0.2-1.9-0.3c-0.6-0.1-1.3-0.3-1.9-0.4c-0.6-0.2-1.1-0.4-1.6-0.8c-0.3-0.6-0.4-1.3-0.6-2c-0.1-0.7-0.2-1.4-0.2-2.1
		c0-0.7,0.1-1.4,0.2-2.1s0.4-1.3,0.7-1.8s0.7-1,1.1-1.3c0.5-0.3,1-0.5,1.6-0.6c0.1,0,0.2,0,0.2,0c0.1,0,0.1,0,0.2,0
		c0.8,0,1.4,0.2,2,0.5c0.6,0.4,1.1,0.8,1.5,1.4c0.4,0.6,0.8,1.2,1.2,1.8c0.4,0.7,0.7,1.3,1.1,1.9c0.2,0.3,0.4,0.4,0.7,0.5
		s0.6,0.1,0.9,0.1h1.8L235,56.1L235,56.1z"/>
	<path class="st0" d="M240.5,35.4c0.2-0.5,0.5-0.9,0.9-1.2s0.8-0.5,1.3-0.7s0.9-0.5,1.3-0.7c0.4-0.3,0.7-0.6,1-1.1
		c-0.6-0.4-1-0.9-1.3-1.6s-0.4-1.3-0.4-2.1c0-0.7,0.1-1.5,0.3-2.2c0.2-0.8,0.5-1.4,0.9-2s0.9-1.1,1.4-1.5s1.1-0.6,1.7-0.6
		c0.5,0,0.9,0.1,1.4,0.4s1,0.7,1.5,1.2c0.1,0.4,0.2,0.8,0.2,1.1s0.1,0.7,0.1,1.1c0,1.3-0.3,2.5-0.9,3.6c-0.6,1.1-1.3,2-2.2,2.8
		c-0.5,0.5-1,0.9-1.7,1.3c-0.6,0.4-1.2,0.8-1.9,1.1c-0.6,0.3-1.3,0.6-1.9,0.8C241.7,35.3,241.1,35.4,240.5,35.4z M248.7,26.8
		c0-0.2-0.1-0.4-0.2-0.6c-0.1-0.2-0.3-0.3-0.5-0.4s-0.4-0.2-0.6-0.3c-0.2-0.1-0.5-0.1-0.7-0.1s-0.3,0-0.5,0c-0.1,0-0.3,0.1-0.4,0.2
		c-0.3,0.2-0.5,0.3-0.6,0.5s-0.2,0.3-0.2,0.5s0.1,0.4,0.2,0.6c0.1,0.2,0.3,0.4,0.5,0.5c0.2,0.2,0.5,0.3,0.7,0.4
		c0.3,0.1,0.5,0.1,0.8,0.1s0.6-0.1,0.9-0.3c0.3-0.2,0.4-0.5,0.4-1v-0.1C248.5,26.8,248.7,26.8,248.7,26.8z"/>
	<path class="st0" d="M247,36.9c-0.1,0.3-0.1,0.5-0.1,0.8s0,0.5,0,0.8c0,0.4,0,0.7,0.1,1s0.2,0.6,0.3,0.9c0.2,0.3,0.4,0.5,0.6,0.6
		c0.3,0.1,0.6,0.2,1,0.2c0.1,0,0.2,0,0.2,0c0.1,0,0.1,0,0.2,0c0.1-0.2,0.2-0.4,0.3-0.5c0.1-0.2,0.1-0.4,0.1-0.6l-0.3-2.2
		c0-0.2,0-0.4,0.1-0.6s0.2-0.4,0.3-0.6c0.5,0.4,0.9,0.9,1.2,1.5s0.4,1.3,0.4,2c0,0.4-0.1,0.9-0.2,1.3c-0.1,0.4-0.3,0.8-0.5,1.1
		s-0.5,0.6-0.8,0.8s-0.7,0.3-1.1,0.3c-0.3,0-0.6,0-0.9-0.1c-0.3-0.1-0.7-0.3-1.1-0.5c-0.8,0.6-1.5,0.9-2.3,0.9
		c-0.5,0-0.9-0.1-1.3-0.3c-0.4-0.2-0.7-0.4-1-0.7s-0.5-0.7-0.7-1.1c-0.2-0.4-0.3-0.8-0.3-1.3c0-0.4,0.1-0.9,0.3-1.3s0.5-0.9,0.9-1.3
		c0,0.3,0.1,0.7,0.1,1.2c0,0.4,0,0.8,0.1,1.2s0.2,0.7,0.4,1s0.5,0.4,0.8,0.4c0.4,0,0.7-0.1,0.9-0.2c0.2-0.2,0.4-0.4,0.5-0.6
		c0.1-0.3,0.2-0.6,0.2-0.9c0-0.3,0-0.7,0-1V39c0-0.3,0-0.5,0-0.8c0-0.2,0-0.5,0.1-0.7s0.1-0.3,0.2-0.5c0.1-0.1,0.3-0.2,0.5-0.2
		C246.3,36.7,246.6,36.7,247,36.9z"/>
	<path class="st0" d="M257,56.1c0.7,0.2,1.2,0.6,1.6,1s0.5,0.9,0.5,1.4s-0.2,1-0.5,1.4s-0.9,0.8-1.5,1h-1.6c-0.7,0-1.5-0.1-2.2-0.3
		s-1.5-0.5-2.2-0.9s-1.3-0.9-1.8-1.4s-0.9-1.1-1.2-1.8c-0.8,0.6-1.7,1.1-2.6,1.6c-0.9,0.5-1.9,0.9-3,1.3c-1,0.4-2.1,0.7-3.2,1
		c-1.1,0.3-2.2,0.4-3.3,0.5h-0.4c-0.6-0.2-1-0.6-1.2-1c-0.3-0.5-0.4-0.9-0.4-1.4s0.1-1,0.4-1.5c0.3-0.5,0.7-0.8,1.2-0.9h0.5
		c1.3-0.1,2.5-0.3,3.7-0.6s2.4-0.7,3.5-1.1s2.2-0.9,3.2-1.4s1.9-1,2.7-1.5c0.1,0.8,0.3,1.4,0.7,2s0.8,1.1,1.4,1.5
		c0.6,0.4,1.2,0.7,1.9,0.9s1.5,0.3,2.2,0.3L257,56.1L257,56.1z M251.8,69c-0.2,0-0.3,0.1-0.5,0.1c-0.1,0-0.3,0-0.4,0
		c-0.4,0-0.8-0.1-1.2-0.2c-0.4-0.2-0.7-0.3-1-0.5s-0.7-0.4-1-0.6c-0.4-0.2-0.8-0.3-1.2-0.4c-0.3,0-0.6,0.2-0.7,0.4
		c-0.2,0.2-0.3,0.5-0.4,0.7c-0.1,0.3-0.2,0.5-0.4,0.8c-0.1,0.2-0.4,0.4-0.7,0.5c-0.5,0-0.9-0.1-1.3-0.2c-0.4-0.1-0.7-0.2-1.1-0.4
		c-0.3-0.2-0.6-0.3-0.9-0.5s-0.6-0.4-0.9-0.5v-0.1c0-0.8,0.1-1.4,0.2-2c0.1-0.6,0.3-1.2,0.4-1.8l0.1-0.2c0.1,0,0.2,0,0.2,0
		c0.1,0,0.1,0,0.2,0c0.3,0,0.7,0.1,1.1,0.2c0.4,0.1,0.7,0.2,1.1,0.4s0.7,0.3,1.1,0.5s0.7,0.3,1,0.4c0.3,0,0.6-0.1,0.8-0.3
		c0.2-0.2,0.4-0.3,0.5-0.6c0.1-0.2,0.2-0.5,0.3-0.7c0.1-0.3,0.2-0.5,0.3-0.8c0.7,0,1.4,0.1,2,0.3s1.1,0.4,1.6,0.7s0.8,0.7,1,1.2
		c0.3,0.5,0.4,1,0.4,1.6C252.4,67.4,252.2,68.2,251.8,69z"/>
	<path class="st0" d="M268.5,27.4c0,0.4,0,0.8,0,1c0,0.3-0.1,0.5-0.1,0.7c-0.1,0.2-0.2,0.4-0.3,0.6c-0.1,0.2-0.2,0.4-0.3,0.7
		c-0.8,0.2-1.6,0.5-2.4,0.9s-1.5,0.7-2.3,1.1s-1.5,0.7-2.3,1c-0.7,0.3-1.5,0.5-2.3,0.6c-0.1-0.3-0.1-0.5-0.1-0.6c0-0.2,0-0.3,0-0.5
		s0.1-0.4,0.1-0.6s0-0.5,0-0.9c0.9-0.2,1.7-0.6,2.5-1s1.6-0.9,2.4-1.3s1.6-0.8,2.4-1.1C266.5,27.6,267.5,27.4,268.5,27.4z"/>
	<path class="st0" d="M256.5,61c-0.4,0-0.7-0.1-1-0.2s-0.5-0.3-0.7-0.6c-0.2-0.2-0.3-0.5-0.4-0.8s-0.1-0.6-0.1-0.9
		c0-0.6,0.2-1.1,0.5-1.6c0.4-0.5,0.9-0.8,1.7-0.8h0.2c0.3,0,0.6-0.1,0.9-0.1c0.3-0.1,0.6-0.1,0.9-0.2s0.6-0.2,0.9-0.3
		s0.5-0.2,0.7-0.4c-0.1-0.5-0.1-1-0.2-1.5s-0.1-1-0.1-1.4c0-0.9,0.1-1.7,0.2-2.5c0.2-0.8,0.4-1.4,0.8-2s0.9-1,1.4-1.3
		c0.6-0.3,1.3-0.5,2.2-0.5h0.2c0.9,0,1.6,0.2,2.2,0.5s1.2,0.7,1.6,1.2s0.7,1.1,0.9,1.9c0.2,0.7,0.3,1.5,0.3,2.3
		c0,0.7-0.1,1.4-0.2,2.1c-0.1,0.7-0.3,1.4-0.6,2.1c0.1,0.1,0.3,0.1,0.6,0.2c0.3,0,0.6,0.1,0.9,0.1s0.7,0,1,0s0.6,0,0.9,0h2.3
		c0.9,0.1,1.5,0.4,2,0.9c0.4,0.5,0.7,1,0.7,1.6s-0.2,1.1-0.7,1.5c-0.4,0.5-1.1,0.8-2,0.9h-1.2c-0.3,0-0.6,0-0.8,0
		c-0.3,0-0.4,0-0.6,0c-0.8,0-1.6,0-2.4-0.1s-1.7-0.2-2.5-0.3s-1.6-0.3-2.3-0.5s-1.3-0.5-1.8-0.8c-0.4,0.3-0.8,0.6-1.3,0.8
		s-1,0.4-1.6,0.5s-1.1,0.2-1.7,0.3s-1-0.1-1.6-0.1C256.7,61,256.5,61,256.5,61z M270,42c-0.2,0-0.3,0.1-0.5,0.1c-0.1,0-0.3,0-0.4,0
		c-0.4,0-0.8-0.1-1.2-0.2c-0.4-0.2-0.7-0.3-1-0.5s-0.7-0.4-1-0.6c-0.4-0.2-0.8-0.3-1.2-0.4c-0.3,0-0.6,0.2-0.7,0.4s-0.3,0.5-0.4,0.7
		c-0.1,0.3-0.2,0.5-0.4,0.8c-0.1,0.2-0.4,0.4-0.7,0.5c-0.5,0-0.9-0.1-1.3-0.2c-0.4-0.1-0.7-0.2-1.1-0.4c-0.3-0.2-0.6-0.3-0.9-0.5
		s-0.6-0.4-0.9-0.5v-0.1c0-0.8,0.1-1.4,0.2-2s0.3-1.2,0.4-1.8l0.1-0.2c0.1,0,0.2,0,0.2,0c0.1,0,0.1,0,0.2,0c0.3,0,0.7,0.1,1.1,0.2
		c0.4,0.1,0.7,0.2,1.1,0.4s0.7,0.3,1.1,0.5s0.7,0.3,1,0.4c0.3,0,0.6-0.1,0.8-0.3c0.2-0.2,0.4-0.3,0.5-0.6c0.1-0.2,0.2-0.5,0.3-0.7
		c0.1-0.3,0.2-0.5,0.3-0.8c0.7,0,1.4,0.1,2,0.3s1.1,0.4,1.6,0.7c0.4,0.3,0.8,0.7,1,1.2c0.3,0.5,0.4,1,0.4,1.6
		C270.5,40.4,270.3,41.1,270,42z M262.1,52.5c0.1,0.5,0.5,0.9,1,1.2s1.1,0.4,1.7,0.4c0.5,0,1-0.1,1.5-0.3s0.8-0.6,1-1
		c0-0.3-0.2-0.5-0.4-0.7s-0.5-0.4-0.8-0.6s-0.6-0.3-1-0.4c-0.3-0.1-0.7-0.1-1-0.1c-0.5,0-1,0.1-1.4,0.4S262.1,51.9,262.1,52.5z"/>
	<path class="st0" d="M272.8,29.6c0.4-0.5,0.9-0.9,1.4-1.2c0.6-0.3,1.1-0.6,1.7-0.9s1.2-0.6,1.7-0.9s1-0.8,1.3-1.3
		c-0.2-0.3-0.5-0.6-0.8-0.7s-0.7-0.2-1.1-0.2c-0.3,0-0.7,0-1,0.1c-0.4,0.1-0.7,0.2-1,0.3c-0.3,0.1-0.7,0.2-1,0.3
		c-0.3,0.1-0.6,0.2-0.8,0.3c-0.1-0.4-0.2-0.9-0.2-1.3c0-0.6,0.1-1.1,0.4-1.5s0.6-0.8,1-1.1c0.4-0.3,0.9-0.5,1.4-0.7
		c0.5-0.1,1.1-0.2,1.6-0.2c0.4,0,0.8,0,1.2,0.1s0.8,0.2,1.1,0.4c0.3,0.2,0.6,0.4,0.8,0.7s0.4,0.6,0.5,1c0.1,0.3,0.1,0.6,0.1,1
		c0,0.7-0.1,1.3-0.4,1.8s-0.6,1-1,1.5c-0.4,0.4-0.9,0.8-1.4,1.2c-0.5,0.3-1.1,0.6-1.7,0.8c-0.6,0.2-1.2,0.4-1.7,0.5
		s-1.1,0.2-1.6,0.2c-0.1,0-0.2,0-0.2,0S272.9,29.6,272.8,29.6z"/>
	<path class="st0" d="M274.4,56.1c1.1-0.1,2-0.3,2.7-0.5s1.3-0.5,1.8-0.9c0.5-0.3,0.8-0.8,1-1.2c0.2-0.5,0.3-1,0.3-1.6
		c0-0.3,0-0.7,0-0.9c0-0.3-0.1-0.5-0.1-0.8c-0.1-0.3-0.1-0.6-0.2-1s-0.3-0.8-0.5-1.3c-0.3-1-0.7-1.9-1.1-2.8
		c-0.4-0.9-0.8-1.9-1.2-2.8c-0.4-0.9-0.7-1.9-0.9-2.8c-0.2-0.9-0.4-1.8-0.4-2.7c0-0.6,0.1-1.2,0.2-1.8c0.2-0.6,0.4-1.2,0.7-1.7
		c0.5,0.4,1,0.8,1.5,1.3s0.9,1,1.4,1.4c0.5,0.5,1,0.9,1.5,1.2s1.1,0.5,1.7,0.6c0.1,0.3,0.1,0.7,0.2,1.2c0,0.5,0.1,0.9,0.1,1.4
		c0,0.4,0,0.8-0.1,1.1s-0.1,0.7-0.2,0.9c-0.1,0-0.2,0-0.3,0c-0.1,0-0.2,0-0.3,0c-0.3,0-0.5,0-0.7-0.1s-0.4-0.2-0.5-0.3
		s-0.3-0.2-0.5-0.3s-0.4-0.2-0.6-0.2c0.3,1,0.7,2,1,3.1s0.6,2.2,0.9,3.4c0.1,0.5,0.2,1,0.3,1.4c0.1,0.4,0.1,0.8,0.2,1.1
		s0.1,0.7,0.1,1.1c0,0.4,0,0.8,0,1.3c0,1-0.1,2-0.4,3s-0.7,1.8-1.3,2.6s-1.5,1.4-2.5,1.8c-1,0.5-2.3,0.7-3.9,0.7
		c-0.4,0-0.7-0.1-1-0.2s-0.5-0.3-0.7-0.6c-0.2-0.2-0.3-0.5-0.5-0.8c-0.1-0.3-0.2-0.6-0.2-0.9c0-0.3,0-0.6,0.1-0.9
		c0.1-0.3,0.2-0.5,0.4-0.8s0.4-0.4,0.7-0.5C273.6,56.2,274,56.1,274.4,56.1z"/>
	<path class="st0" d="M286.5,35.9c0-0.5,0.1-0.9,0.1-1.3c0-0.3,0.1-0.6,0.1-0.7s0.1-0.3,0.1-0.3c0-0.1,0.1-0.1,0.1-0.1
		c0.1-0.1,0.2-0.2,0.2-0.2c0.1-0.1,0.2-0.1,0.2-0.1c0.1,0,0.2,0.1,0.4,0.2c0.5,0.5,1,0.9,1.6,1.4s1.2,1,1.7,1.6s1,1.2,1.4,1.9
		s0.6,1.5,0.6,2.5c0,0.2,0,0.4-0.1,0.7v0.1c0,0.3-0.1,0.5-0.2,0.5s-0.3,0.2-0.5,0.2c-0.2,0.1-0.4,0.1-0.5,0.2s-0.3,0.2-0.4,0.3
		c0.1,1.2,0.3,2.4,0.6,3.6c0.3,1.2,0.6,2.4,1,3.6c0.3,1.2,0.7,2.4,0.9,3.6c0.3,1.2,0.4,2.4,0.4,3.6c0,0.6,0,1.2-0.1,1.9
		c-0.1,0.6-0.2,1.2-0.5,1.9c-0.4-0.2-0.6-0.5-0.8-0.8c-0.2-0.3-0.3-0.6-0.4-0.9c-0.1-0.3-0.1-0.6-0.2-0.9c0-0.3-0.1-0.6-0.1-0.9
		c-0.1-0.8-0.3-1.6-0.5-2.5s-0.5-1.9-0.8-2.9s-0.6-2-0.9-3s-0.6-2-0.9-3c-0.2-0.8-0.4-1.5-0.7-2.3c-0.3-0.8-0.6-1.6-0.8-2.4
		c-0.3-0.8-0.5-1.7-0.7-2.5s-0.3-1.7-0.3-2.5L286.5,35.9L286.5,35.9z"/>
	<path class="st0" d="M303.6,42.6c0.2-0.5,0.5-0.9,0.9-1.2s0.8-0.5,1.3-0.7s0.9-0.5,1.3-0.7c0.4-0.3,0.7-0.6,1-1.1
		c-0.6-0.4-1-0.9-1.3-1.6s-0.4-1.4-0.4-2.1c0-0.7,0.1-1.5,0.3-2.2c0.2-0.8,0.5-1.4,0.9-2s0.9-1.1,1.4-1.5s1.1-0.6,1.7-0.6
		c0.5,0,0.9,0.1,1.4,0.4s1,0.7,1.5,1.2c0.1,0.4,0.2,0.8,0.2,1.1s0.1,0.7,0.1,1.1c0,1.3-0.3,2.5-0.9,3.6s-1.3,2-2.2,2.8
		c-0.5,0.5-1,0.9-1.7,1.3c-0.6,0.4-1.2,0.8-1.9,1.1c-0.6,0.3-1.3,0.6-1.9,0.8C304.8,42.4,304.1,42.6,303.6,42.6z M311.9,33.9
		c0-0.2-0.1-0.4-0.2-0.6c-0.1-0.2-0.3-0.3-0.5-0.4c-0.2-0.1-0.4-0.2-0.6-0.3s-0.5-0.1-0.7-0.1s-0.3,0-0.5,0c-0.1,0-0.3,0.1-0.4,0.2
		c-0.3,0.2-0.5,0.3-0.6,0.5s-0.2,0.3-0.2,0.5s0.1,0.4,0.2,0.6c0.1,0.2,0.3,0.4,0.5,0.5c0.2,0.2,0.5,0.3,0.7,0.4
		c0.3,0.1,0.5,0.1,0.8,0.1s0.6-0.1,0.9-0.3s0.4-0.5,0.4-1v-0.1C311.7,33.9,311.9,33.9,311.9,33.9z"/>
	<path class="st0" d="M310,44c-0.1,0.3-0.1,0.5-0.1,0.8s0,0.5,0,0.8c0,0.4,0,0.7,0.1,1s0.2,0.6,0.3,0.9c0.2,0.3,0.4,0.5,0.6,0.6
		c0.3,0.1,0.6,0.2,1,0.2c0.1,0,0.2,0,0.2,0c0.1,0,0.1,0,0.2,0c0.1-0.2,0.2-0.4,0.3-0.5c0.1-0.2,0.1-0.4,0.1-0.6l-0.3-2.2
		c0-0.2,0-0.4,0.1-0.6s0.2-0.4,0.3-0.6c0.5,0.4,0.9,0.9,1.2,1.5c0.3,0.6,0.4,1.3,0.4,2c0,0.4-0.1,0.9-0.2,1.3
		c-0.1,0.4-0.3,0.8-0.5,1.1s-0.5,0.6-0.8,0.8s-0.7,0.3-1.1,0.3c-0.3,0-0.6,0-0.9-0.1s-0.7-0.3-1.1-0.5c-0.8,0.6-1.5,0.9-2.3,0.9
		c-0.5,0-0.9-0.1-1.3-0.3s-0.7-0.4-1-0.7s-0.5-0.7-0.7-1.1c-0.2-0.4-0.3-0.8-0.3-1.3c0-0.4,0.1-0.9,0.3-1.3s0.5-0.9,0.9-1.3
		c0,0.3,0.1,0.7,0.1,1.2c0,0.4,0,0.8,0.1,1.2s0.2,0.7,0.4,1c0.2,0.3,0.5,0.4,0.8,0.4c0.4,0,0.7-0.1,0.9-0.2c0.2-0.2,0.4-0.4,0.5-0.6
		c0.1-0.3,0.2-0.6,0.2-0.9c0-0.3,0-0.7,0-1v-0.1c0-0.3,0-0.5,0-0.8c0-0.2,0-0.5,0.1-0.7s0.1-0.3,0.2-0.5c0.1-0.1,0.3-0.2,0.5-0.2
		C309.5,43.8,309.8,43.8,310,44z"/>
	<path class="st0" d="M320.4,61c-0.1,0-0.2,0-0.4,0c-0.1,0-0.2,0-0.3,0c-0.2,0-0.4,0.1-0.6,0.1s-0.4,0.1-0.6,0.2
		c-0.2,0.1-0.4,0.2-0.5,0.4s-0.3,0.4-0.5,0.6c0.5,0.3,1.1,0.5,1.7,0.7c0.6,0.1,1.3,0.3,1.9,0.5s1.1,0.4,1.6,0.7s0.7,0.8,0.9,1.4
		c0.1,0.4,0.1,0.9,0.1,1.3c0,1-0.2,1.9-0.6,2.8s-0.9,1.7-1.6,2.5s-1.5,1.5-2.4,2.2s-1.9,1.2-2.9,1.7s-2.1,0.8-3.2,1.1
		c-1.1,0.3-2.2,0.4-3.3,0.4c-1.1,0-2.1-0.1-3-0.4c-1-0.3-1.8-0.7-2.6-1.4c-0.6-0.4-1.1-1-1.5-1.6s-0.8-1.3-1-2
		c-0.3-0.7-0.5-1.5-0.6-2.3s-0.2-1.6-0.2-2.4c0-1.2,0.1-2.4,0.4-3.6s0.7-2.3,1.2-3.3s1.1-1.8,1.8-2.5c0.7-0.7,1.5-1.2,2.5-1.4
		c-0.1,0.5-0.3,1-0.5,1.5s-0.5,0.9-0.9,1.4c-0.3,0.4-0.6,0.9-1,1.4s-0.7,1-0.9,1.5c-0.3,0.5-0.5,1.1-0.7,1.7
		c-0.2,0.6-0.3,1.3-0.3,2.1c0,0.2,0,0.4,0,0.6s0,0.4,0.1,0.6c0.1,0.9,0.4,1.7,0.9,2.4c0.5,0.7,1,1.2,1.7,1.7
		c0.7,0.4,1.4,0.7,2.3,0.9s1.7,0.3,2.7,0.3s2-0.1,3-0.3s1.9-0.5,2.8-0.9s1.7-0.9,2.4-1.4c0.7-0.6,1.2-1.2,1.6-1.9
		c-0.6-0.3-1.2-0.5-1.8-0.5s-1.2-0.2-1.8-0.3c-0.6-0.1-1.1-0.3-1.5-0.5c-0.5-0.2-0.8-0.7-1-1.3c-0.3-0.8-0.4-1.5-0.4-2.2
		c0-0.9,0.2-1.8,0.6-2.6s0.9-1.5,1.5-2.1s1.3-1.2,2-1.6c0.7-0.4,1.5-0.7,2.2-0.9c0.1,0,0.2,0,0.4,0c0.2,0,0.4,0,0.6,0
		c0.3,0,0.6,0.1,0.8,0.2s0.5,0.3,0.7,0.5s0.4,0.5,0.5,0.8s0.2,0.6,0.2,0.9c0,0.3,0,0.5-0.1,0.8s-0.2,0.5-0.4,0.7s-0.4,0.4-0.7,0.6
		C321,60.8,320.6,60.9,320.4,61z"/>
	<path class="st0" d="M330,31.5c0,0.4,0,0.8,0,1c0,0.3-0.1,0.5-0.1,0.7c-0.1,0.2-0.2,0.4-0.3,0.6c-0.1,0.2-0.2,0.4-0.3,0.7
		c-0.8,0.2-1.6,0.5-2.4,0.9s-1.5,0.7-2.3,1.1c-0.8,0.4-1.5,0.7-2.3,1c-0.7,0.3-1.5,0.5-2.3,0.6c-0.1-0.3-0.1-0.5-0.1-0.6
		c0-0.2,0-0.3,0-0.5s0.1-0.4,0.1-0.6s0-0.5,0-0.9c0.9-0.2,1.7-0.6,2.5-1s1.6-0.9,2.4-1.3c0.8-0.4,1.6-0.8,2.4-1.1
		C328.1,31.7,329,31.5,330,31.5z"/>
	<path class="st0" d="M328.9,46.7c0.9,0,1.5,0.3,2,0.8s0.7,1.1,0.7,1.8c0,0.1,0,0.2,0,0.3s0,0.2,0,0.3c1.4,0.4,2.8,0.8,4.1,1.1
		c1.3,0.3,2.6,0.6,3.9,0.9c1.3,0.3,2.6,0.5,3.9,0.8s2.6,0.6,4,1c0.1,0.2,0.1,0.4,0.2,0.7c0,0.2,0,0.5,0,0.8c0,0.6-0.1,1.2-0.2,1.8
		c-0.2,0.6-0.4,1.1-0.6,1.4c-0.5-0.1-0.9-0.1-1.4-0.1s-1,0-1.5,0c-1.6,0-3.4,0.1-5.2,0.4c-1.8,0.3-3.7,0.5-5.5,0.9
		c-1.8,0.3-3.6,0.6-5.3,1c-1.7,0.3-3.3,0.5-4.6,0.7c-0.3,0-0.7,0.1-1.2,0.1c-0.4,0-0.8,0-1.1,0h-0.9c-0.3,0-0.5-0.1-0.7-0.2
		c-0.2-0.1-0.4-0.3-0.5-0.5s-0.2-0.5-0.3-0.7s-0.1-0.6-0.1-0.9s0-0.6,0.1-0.9s0.2-0.6,0.3-0.8c0.1-0.2,0.3-0.4,0.5-0.6
		c0.2-0.2,0.4-0.2,0.7-0.3h2.8c0.7,0,1.4-0.1,2.1-0.2c0.7-0.1,1.4-0.2,2-0.4c0.7-0.2,1.3-0.3,2-0.5c0.6-0.2,1.3-0.4,1.9-0.6
		c-0.2-0.3-0.5-0.5-0.9-0.7s-0.9-0.4-1.5-0.6s-1.2-0.4-1.9-0.5c-0.7-0.2-1.3-0.4-2-0.6s-1.2-0.4-1.8-0.7c-0.6-0.2-1-0.5-1.3-0.9
		c0.3-0.7,0.6-1.3,1.1-1.8s1.1-0.8,1.7-1.1s1.4-0.5,2.1-0.6C327.3,46.9,328,46.8,328.9,46.7z"/>
	<path class="st0" d="M335.3,22.1c0.4-0.5,0.9-0.9,1.4-1.2c0.6-0.3,1.1-0.6,1.7-0.9s1.2-0.6,1.7-0.9s1-0.8,1.3-1.3
		c-0.2-0.3-0.5-0.6-0.8-0.7s-0.7-0.2-1.1-0.2c-0.3,0-0.7,0-1,0.1c-0.4,0.1-0.7,0.2-1,0.3c-0.3,0.1-0.7,0.2-1,0.3
		c-0.3,0.1-0.6,0.2-0.8,0.3c-0.1-0.4-0.2-0.9-0.2-1.3c0-0.6,0.1-1.1,0.4-1.5s0.6-0.8,1-1.1s0.9-0.5,1.4-0.7c0.5-0.1,1.1-0.2,1.6-0.2
		c0.4,0,0.8,0,1.2,0.1s0.8,0.2,1.1,0.4c0.3,0.2,0.6,0.4,0.8,0.7s0.4,0.6,0.5,1c0.1,0.3,0.1,0.6,0.1,1c0,0.7-0.1,1.3-0.4,1.8
		s-0.6,1-1,1.5c-0.4,0.4-0.9,0.8-1.4,1.2c-0.5,0.3-1.1,0.6-1.7,0.8c-0.6,0.2-1.2,0.4-1.7,0.5s-1.1,0.2-1.6,0.2c-0.1,0-0.2,0-0.2,0
		S335.4,22.1,335.3,22.1z"/>
	<path class="st0" d="M331.5,49.8c-0.1,0-0.2,0-0.2,0h-0.2c-0.3,0-0.7-0.1-1-0.2c-0.3-0.1-0.6-0.3-0.8-0.5c-0.2-0.2-0.4-0.4-0.5-0.7
		s-0.2-0.5-0.2-0.8s0.1-0.7,0.3-1c1.1-0.2,2.2-0.3,3.3-0.6c1.1-0.2,2.1-0.5,3.1-0.8s1.9-0.7,2.7-1.2c0.8-0.5,1.6-1,2.2-1.7v-0.5
		c0-1.4-0.1-2.8-0.1-4.1c0-1,0-2,0.1-2.9c0.1-1,0.2-2,0.4-3.1c0.2-0.2,0.4-0.4,0.7-0.6c0.3-0.2,0.7-0.4,1-0.5
		c0.4-0.2,0.8-0.3,1.2-0.4c0.4-0.1,0.8-0.1,1.3-0.1s1,0.1,1.5,0.3c0.5,0.2,0.8,0.5,1.1,0.9h-0.5c-0.5,0-0.9,0-1.4,0.1
		s-0.9,0.2-1.4,0.3s-0.8,0.3-1.2,0.6c-0.4,0.2-0.7,0.5-0.9,0.9c0.1,0.7,0.2,1.3,0.2,2c0.1,0.6,0.1,1.3,0.1,1.9c0,1.5-0.2,3-0.5,4.3
		c-0.4,1.3-0.9,2.4-1.7,3.4c-0.8,1-1.8,1.8-2.9,2.4c-1.2,0.6-2.6,1-4.3,1.1c-0.3,0-0.7,0.2-0.9,0.4c-0.3,0.3-0.4,0.6-0.4,0.9
		C331.5,49.7,331.5,49.8,331.5,49.8z"/>
	<path class="st0" d="M351,35.9c0-0.5,0.1-0.9,0.1-1.3c0-0.3,0.1-0.6,0.1-0.7s0.1-0.3,0.1-0.3c0-0.1,0.1-0.1,0.1-0.1
		c0.1-0.1,0.2-0.2,0.2-0.2c0.1-0.1,0.2-0.1,0.2-0.1c0.1,0,0.2,0.1,0.4,0.2c0.5,0.5,1,0.9,1.6,1.4s1.2,1,1.7,1.6s1,1.2,1.4,1.9
		s0.6,1.5,0.6,2.5c0,0.2,0,0.4-0.1,0.7v0.1c0,0.3-0.1,0.5-0.2,0.5s-0.3,0.2-0.5,0.2c-0.2,0.1-0.4,0.1-0.5,0.2s-0.3,0.2-0.4,0.3
		c0.1,1.2,0.3,2.4,0.6,3.6c0.3,1.2,0.6,2.4,1,3.6c0.3,1.2,0.7,2.4,0.9,3.6c0.3,1.2,0.4,2.4,0.4,3.6c0,0.6,0,1.2-0.1,1.9
		c-0.1,0.6-0.2,1.2-0.5,1.9c-0.4-0.2-0.6-0.5-0.8-0.8c-0.2-0.3-0.3-0.6-0.4-0.9c-0.1-0.3-0.1-0.6-0.2-0.9c0-0.3-0.1-0.6-0.1-0.9
		c-0.1-0.8-0.3-1.6-0.5-2.5s-0.5-1.9-0.8-2.9s-0.6-2-0.9-3s-0.6-2-0.9-3c-0.2-0.8-0.4-1.5-0.7-2.3c-0.3-0.8-0.6-1.6-0.8-2.4
		c-0.3-0.8-0.5-1.7-0.7-2.5s-0.3-1.7-0.3-2.5L351,35.9L351,35.9z"/>
	<path class="st0" d="M378.9,36.4c0,0.4,0,0.8,0,1c0,0.3-0.1,0.5-0.1,0.7c-0.1,0.2-0.2,0.4-0.3,0.6c-0.1,0.2-0.2,0.4-0.3,0.7
		c-0.8,0.2-1.6,0.5-2.4,0.9s-1.5,0.7-2.3,1.1c-0.8,0.4-1.5,0.7-2.3,1c-0.7,0.3-1.5,0.5-2.3,0.6c-0.1-0.3-0.1-0.5-0.1-0.6
		c0-0.2,0-0.3,0-0.5s0.1-0.4,0.1-0.6s0-0.5,0-0.9c0.9-0.2,1.7-0.6,2.5-1s1.6-0.9,2.4-1.3c0.8-0.4,1.6-0.8,2.4-1.1
		C377,36.6,377.9,36.4,378.9,36.4z"/>
	<path class="st0" d="M382.5,56.1h0.9c0.2,0.1,0.4,0.2,0.6,0.4s0.4,0.3,0.5,0.6c0.2,0.2,0.3,0.5,0.4,0.7c0.1,0.3,0.2,0.5,0.2,0.8
		c0,0.2,0,0.4-0.1,0.7s-0.1,0.5-0.3,0.7c-0.1,0.2-0.3,0.4-0.5,0.6c-0.2,0.2-0.5,0.4-0.8,0.5c-0.2,0-0.4,0-0.8,0s-0.7,0-1,0
		s-0.6,0.1-0.9,0.1s-0.4,0.2-0.5,0.3c-0.4,1.4-0.9,2.7-1.6,3.9c-0.6,1.2-1.4,2.3-2.3,3.2c-0.9,0.9-1.9,1.7-3.1,2.2s-2.6,0.8-4.2,0.9
		h-0.3c-0.6,0-1.3,0-2-0.1s-1.4-0.1-2.1-0.2s-1.4-0.2-2.1-0.2c-0.7-0.1-1.4-0.1-2.1-0.1c0.8-0.6,1.6-1,2.5-1.3s1.9-0.6,2.9-0.9
		s2-0.6,3-0.8c1-0.3,1.9-0.6,2.8-1.1l0.6-0.3c0.5-0.3,1.1-0.5,1.6-0.8c0.6-0.3,1.1-0.6,1.5-1c0.5-0.4,0.9-0.8,1.2-1.3
		c0.3-0.5,0.5-1,0.6-1.7c-0.5-0.1-1.1-0.3-1.7-0.3c-0.6-0.1-1.2-0.2-1.9-0.3c-0.6-0.1-1.3-0.3-1.9-0.4c-0.6-0.2-1.1-0.4-1.6-0.8
		c-0.3-0.6-0.4-1.3-0.6-2c-0.1-0.7-0.2-1.4-0.2-2.1c0-0.7,0.1-1.4,0.2-2.1s0.4-1.3,0.7-1.8c0.3-0.5,0.7-1,1.1-1.3
		c0.5-0.3,1-0.5,1.6-0.6c0.1,0,0.2,0,0.2,0c0.1,0,0.1,0,0.2,0c0.8,0,1.4,0.2,2,0.5c0.6,0.4,1.1,0.8,1.5,1.4c0.4,0.6,0.8,1.2,1.2,1.8
		c0.4,0.7,0.7,1.3,1.1,1.9c0.2,0.3,0.4,0.4,0.7,0.5s0.6,0.1,0.9,0.1h1.9L382.5,56.1L382.5,56.1z"/>
	<path class="st0" d="M386,36.4c0.2-0.5,0.5-0.9,0.9-1.2s0.8-0.5,1.3-0.7s0.9-0.5,1.3-0.7c0.4-0.3,0.7-0.6,1-1.1
		c-0.6-0.4-1-0.9-1.3-1.6s-0.4-1.4-0.4-2.1s0.1-1.5,0.3-2.2c0.2-0.8,0.5-1.4,0.9-2s0.9-1.1,1.4-1.5s1.1-0.6,1.7-0.6
		c0.5,0,0.9,0.1,1.4,0.4s1,0.7,1.5,1.2c0.1,0.4,0.2,0.8,0.2,1.1c0,0.4,0.1,0.7,0.1,1.1c0,1.3-0.3,2.5-0.9,3.6s-1.3,2-2.2,2.8
		c-0.5,0.5-1,0.9-1.7,1.3c-0.6,0.4-1.2,0.8-1.9,1.1c-0.7,0.3-1.3,0.6-1.9,0.8C387.3,36.3,386.6,36.4,386,36.4z M394.3,27.8
		c0-0.2-0.1-0.4-0.2-0.6s-0.3-0.3-0.5-0.4s-0.4-0.2-0.6-0.3s-0.5-0.1-0.7-0.1s-0.3,0-0.5,0c-0.1,0-0.3,0.1-0.4,0.2
		c-0.3,0.2-0.5,0.3-0.6,0.5s-0.2,0.3-0.2,0.5s0.1,0.4,0.2,0.6s0.3,0.4,0.5,0.5c0.2,0.2,0.5,0.3,0.7,0.4c0.3,0.1,0.5,0.1,0.8,0.1
		s0.6-0.1,0.9-0.3c0.3-0.2,0.4-0.5,0.4-1v-0.1C394.1,27.8,394.3,27.8,394.3,27.8z"/>
	<path class="st0" d="M383,61c-0.5-0.2-0.8-0.6-1-1c-0.2-0.5-0.3-0.9-0.3-1.4c0-0.6,0.1-1.1,0.4-1.5c0.3-0.5,0.6-0.8,1-0.9h2.8
		c0.1,0,0.2,0,0.3,0c0.2,0,0.5,0,0.8-0.1s0.5-0.2,0.6-0.2c0.4-0.2,0.6-0.7,0.8-1.3s0.2-1.3,0.3-2c0-0.7,0.1-1.5,0.1-2.2
		s0.1-1.3,0.2-1.9c0.2-0.6,0.4-1.1,0.6-1.5s0.5-0.7,0.7-1s0.5-0.6,0.7-0.9c0.3-0.3,0.5-0.6,0.8-1.1v-0.4c0-0.3,0-0.5,0-0.7
		s0.1-0.4,0.2-0.5c0.1,0.1,0.3,0.2,0.4,0.2c0.1,0.1,0.3,0.1,0.4,0.2c0.7,0.4,1.4,0.9,2.3,1.3c0.8,0.5,1.6,1,2.4,1.6s1.6,1.2,2.3,1.8
		s1.4,1.3,1.9,2.1c0.6,0.7,1,1.5,1.3,2.4c0.3,0.8,0.5,1.7,0.5,2.6c0,0.3,0,0.7-0.1,1.1c-0.1,0.7-0.3,1.4-0.6,1.8
		c-0.3,0.5-0.7,0.9-1.1,1.1s-0.9,0.5-1.5,0.6s-1.2,0.2-1.9,0.2H391c-0.1,0-0.2,0-0.2,0s-0.1,0-0.2,0c-0.5,0-1.1,0.1-1.6,0.2
		c-0.5,0.2-1,0.3-1.6,0.5s-1.2,0.4-1.9,0.5C384.8,60.9,384,61,383,61z M390.3,53.4c0.3,0.2,0.6,0.4,0.9,0.5s0.6,0.1,1,0.1
		c0.6,0,1.2-0.1,1.7-0.3c0.6-0.2,1.1-0.5,1.5-0.7c0-0.5-0.1-1-0.3-1.3s-0.4-0.7-0.7-0.9c-0.3-0.2-0.6-0.4-0.9-0.5s-0.7-0.2-1-0.2
		s-0.6,0-0.9,0.1s-0.5,0.2-0.8,0.4c-0.2,0.2-0.4,0.4-0.5,0.7s-0.2,0.6-0.2,1S390.1,52.9,390.3,53.4z M397.5,54.8h0.8c0,0,0,0,0.1,0
		c0.5,0,1-0.1,1.4-0.3s0.7-0.5,0.8-0.9c-0.3-0.5-0.6-1-0.9-1.4c-0.4-0.4-0.9-0.6-1.6-0.7c-0.1,0.3-0.3,0.7-0.4,1.2
		c-0.2,0.4-0.2,0.8-0.2,1.2C397.4,54.2,397.4,54.5,397.5,54.8z"/>
	<path class="st0" d="M427.1,55.5c-0.7-1-1.2-1.9-1.8-2.8c-0.5-0.9-1.1-1.7-1.7-2.5s-1.3-1.5-2-2.2s-1.6-1.4-2.6-2.1
		c-0.4-0.3-0.9-0.6-1.3-0.8c-0.5-0.2-1-0.4-1.6-0.5c-0.4,0.3-0.9,0.5-1.2,0.7c-0.4,0.1-0.8,0.2-1.1,0.2c-0.8,0-1.4-0.3-2-0.8
		s-1.1-1.2-1.4-1.9c-0.4-0.8-0.7-1.6-0.9-2.5c-0.2-0.9-0.3-1.8-0.3-2.6c0-0.4,0-0.7,0.1-1c0-0.3,0.1-0.6,0.2-0.9
		c0.8,0.3,1.7,0.6,2.6,1s1.8,0.9,2.6,1.4s1.7,1.1,2.6,1.7c0.9,0.6,1.7,1.2,2.5,1.8c0.9,0.7,1.8,1.5,2.7,2.3s1.7,1.7,2.4,2.7
		c0.7,1,1.3,2.1,1.7,3.3c0.4,1.2,0.7,2.6,0.7,4.1C427.1,54.5,427.1,55,427.1,55.5z"/>
	<path class="st0" d="M433.5,14.5c0,0.4,0,0.8,0,1c0,0.3-0.1,0.5-0.1,0.7c-0.1,0.2-0.2,0.4-0.3,0.6c-0.1,0.2-0.2,0.4-0.3,0.7
		c-0.8,0.2-1.6,0.5-2.4,0.9s-1.5,0.7-2.3,1.1s-1.5,0.7-2.3,1c-0.7,0.3-1.5,0.5-2.3,0.6c-0.1-0.3-0.1-0.5-0.1-0.6c0-0.2,0-0.3,0-0.5
		s0.1-0.4,0.1-0.6s0-0.5,0-0.9c0.9-0.2,1.7-0.6,2.5-1s1.6-0.9,2.4-1.3s1.6-0.8,2.4-1.1C431.8,14.7,432.6,14.6,433.5,14.5z"/>
	<path class="st0" d="M430,22.6c-0.1,0.3-0.1,0.5-0.1,0.8s0,0.5,0,0.8c0,0.4,0,0.7,0.1,1s0.2,0.6,0.3,0.9c0.2,0.3,0.4,0.5,0.6,0.6
		c0.3,0.1,0.6,0.2,1,0.2c0.1,0,0.2,0,0.2,0c0.1,0,0.1,0,0.2,0c0.1-0.2,0.2-0.4,0.3-0.5s0.1-0.4,0.1-0.6l-0.3-2.2
		c0-0.2,0-0.4,0.1-0.6s0.2-0.4,0.3-0.6c0.5,0.4,0.9,0.9,1.2,1.5c0.3,0.6,0.4,1.3,0.4,2c0,0.4-0.1,0.9-0.2,1.3s-0.3,0.8-0.5,1.1
		c-0.2,0.3-0.5,0.6-0.8,0.8c-0.3,0.2-0.7,0.3-1.1,0.3c-0.3,0-0.6,0-0.9-0.1s-0.7-0.3-1.1-0.5c-0.8,0.6-1.5,0.9-2.3,0.9
		c-0.5,0-0.9-0.1-1.3-0.3c-0.4-0.2-0.7-0.4-1-0.7c-0.3-0.3-0.5-0.7-0.7-1.1s-0.3-0.8-0.3-1.3c0-0.4,0.1-0.9,0.3-1.3
		c0.2-0.5,0.5-0.9,0.9-1.3c0,0.3,0.1,0.7,0.1,1.2c0,0.4,0,0.8,0.1,1.2s0.2,0.7,0.4,1c0.2,0.3,0.5,0.4,0.8,0.4s0.7-0.1,0.9-0.2
		c0.2-0.2,0.4-0.4,0.5-0.6c0.1-0.3,0.2-0.6,0.2-0.9s0-0.7,0-1v-0.1c0-0.3,0-0.5,0-0.8c0-0.2,0-0.5,0.1-0.7s0.1-0.3,0.3-0.5
		c0.1-0.1,0.3-0.2,0.5-0.2C429.3,22.4,429.5,22.5,430,22.6z"/>
	<path class="st0" d="M433,37.9c0.1,0.3,0.1,0.5,0.2,0.8c0,0.3,0.1,0.6,0.1,0.9c0,0.4,0,0.7-0.1,1.1s-0.2,0.7-0.4,1
		s-0.4,0.5-0.6,0.7c-0.3,0.2-0.6,0.2-1,0.2h-0.3c0.3,1.5,0.6,2.9,0.8,4.4c0.2,1.5,0.3,3,0.3,4.4c0,1-0.1,2-0.2,3s-0.4,1.9-0.7,2.7
		c-0.3,0.9-0.7,1.7-1.2,2.4s-1.1,1.4-1.9,2s-1.8,1.1-3,1.4s-2.5,0.4-3.8,0.4c-1.2,0-2.3-0.1-3.5-0.3s-2.3-0.5-3.4-0.8
		c0.4-0.5,1-0.9,1.6-1.2s1.3-0.5,2-0.6c0.7-0.2,1.4-0.3,2.2-0.4s1.5-0.3,2.1-0.6c0.7-0.3,1.5-0.6,2.3-1s1.6-0.9,2.4-1.4
		c0.7-0.5,1.4-1,2-1.6s0.9-1.2,1.1-1.8c0.1-0.4,0.1-0.8,0.1-1.3c0-0.7-0.1-1.4-0.3-2.2c-0.2-0.8-0.4-1.6-0.6-2.4
		c-0.2-0.8-0.4-1.7-0.7-2.6c-0.2-0.9-0.4-1.7-0.5-2.6v-0.2c-0.1-0.8-0.2-1.7-0.4-2.7c-0.1-0.9-0.2-1.8-0.2-2.7c0-0.6,0-1.2,0.1-1.7
		s0.2-1,0.4-1.3c0.4,0.3,0.9,0.6,1.2,1c0.4,0.4,0.8,0.7,1.1,1.1s0.8,0.7,1.2,1C432,37.4,432.5,37.7,433,37.9z"/>
	<path class="st0" d="M448.3,61.8c0,0.4,0,0.8,0,1c0,0.3-0.1,0.5-0.1,0.7c-0.1,0.2-0.2,0.4-0.3,0.6c-0.1,0.2-0.2,0.4-0.3,0.7
		c-0.8,0.2-1.6,0.5-2.4,0.9s-1.5,0.7-2.3,1.1s-1.5,0.7-2.3,1c-0.7,0.3-1.5,0.5-2.3,0.6c-0.1-0.3-0.1-0.5-0.1-0.6c0-0.2,0-0.3,0-0.5
		s0.1-0.4,0.1-0.6s0-0.5,0-0.9c0.9-0.2,1.7-0.6,2.5-1s1.6-0.9,2.4-1.3s1.6-0.8,2.4-1.1C446.5,62,447.4,61.8,448.3,61.8z"/>
	<path class="st0" d="M436.8,35.9c0-0.5,0.1-0.9,0.1-1.3c0-0.3,0.1-0.6,0.1-0.7c0-0.2,0.1-0.3,0.1-0.3c0-0.1,0.1-0.1,0.1-0.1
		c0.1-0.1,0.2-0.2,0.2-0.2l0.2-0.1c0.1,0,0.2,0.1,0.4,0.2c0.5,0.5,1,0.9,1.6,1.4s1.2,1,1.7,1.6s1,1.2,1.4,1.9s0.6,1.5,0.6,2.5
		c0,0.2,0,0.4-0.1,0.7v0.1c0,0.3-0.1,0.5-0.2,0.5s-0.3,0.2-0.5,0.2c-0.2,0.1-0.4,0.1-0.5,0.2c-0.2,0.1-0.3,0.2-0.4,0.3
		c0.1,1.2,0.3,2.4,0.6,3.6c0.3,1.2,0.6,2.4,1,3.6s0.7,2.4,0.9,3.6c0.3,1.2,0.4,2.4,0.4,3.6c0,0.6,0,1.2-0.1,1.9
		c-0.1,0.6-0.2,1.2-0.5,1.9c-0.4-0.2-0.6-0.5-0.8-0.8c-0.2-0.3-0.3-0.6-0.4-0.9s-0.1-0.6-0.2-0.9c0-0.3-0.1-0.6-0.1-0.9
		c-0.1-0.8-0.3-1.6-0.5-2.5s-0.5-1.9-0.8-2.9s-0.6-2-0.9-3s-0.6-2-0.9-3c-0.2-0.8-0.4-1.5-0.7-2.3c-0.3-0.8-0.6-1.6-0.8-2.4
		c-0.3-0.8-0.5-1.7-0.7-2.5s-0.3-1.7-0.3-2.5L436.8,35.9L436.8,35.9z"/>
	<path class="st0" d="M460,31.9c0,0.4,0,0.8,0,1c0,0.3-0.1,0.5-0.1,0.7c-0.1,0.2-0.2,0.4-0.3,0.6c-0.1,0.2-0.2,0.4-0.3,0.7
		c-0.8,0.2-1.6,0.5-2.4,0.9s-1.5,0.7-2.3,1.1s-1.5,0.7-2.3,1c-0.7,0.3-1.5,0.5-2.3,0.6c-0.1-0.3-0.1-0.5-0.1-0.6c0-0.2,0-0.3,0-0.5
		s0.1-0.4,0.1-0.6c0-0.2,0-0.5,0-0.9c0.9-0.2,1.7-0.6,2.5-1s1.6-0.9,2.4-1.3c0.8-0.4,1.6-0.8,2.4-1.1C458.1,32.1,459,31.9,460,31.9z
		"/>
	<path class="st0" d="M469.5,59.3c0.5,0.3,0.8,0.7,1,1.2s0.3,1,0.3,1.5c0,0.6-0.1,1.1-0.4,1.6c-0.2,0.5-0.6,0.7-1,0.7
		c-0.7-0.1-1.3-0.4-1.9-0.7s-1-0.8-1.5-1.3s-0.8-1.1-1.2-1.7c-0.3-0.6-0.6-1.2-0.9-1.9c-0.5,0.1-1.1,0.2-1.7,0.4s-1.3,0.5-2,0.7
		s-1.4,0.5-2.1,0.6c-0.7,0.2-1.5,0.3-2.2,0.3c-0.5,0-1-0.1-1.5-0.2c-0.4-0.1-0.7-0.2-1.1-0.5s-0.7-0.5-1.1-0.8
		c-0.3-0.3-0.6-0.6-0.8-1c-0.2-0.3-0.4-0.7-0.5-1.1c-0.1-0.6-0.2-1.2-0.2-1.8c0-1,0.2-1.8,0.5-2.6c0.4-0.8,0.9-1.4,1.5-2
		s1.3-1.1,2.1-1.6c0.8-0.5,1.6-0.9,2.5-1.3s1.7-0.7,2.6-1s1.7-0.6,2.4-0.9c0.1-0.3,0.2-0.7,0.2-1v-1.4v-0.1c0-0.3,0.1-0.5,0.2-0.7
		s0.3-0.4,0.7-0.5c0.4,0.5,0.7,1.1,0.8,1.8c0.2,0.7,0.3,1.4,0.3,2.2c0.1,0.8,0.1,1.6,0.1,2.5s0,1.7,0,2.6s0.1,1.7,0.2,2.5
		s0.3,1.5,0.6,2.2c0.3,0.8,0.9,1.5,1.6,2C467.8,58.8,468.5,59.2,469.5,59.3z M453.4,53.4L453.4,53.4c0,0.5,0.1,0.8,0.4,1.1
		c0.2,0.3,0.6,0.5,1,0.7s0.9,0.3,1.4,0.4c0.5,0.1,1.1,0.1,1.6,0.1c0.6,0,1.3-0.1,1.9-0.2c0.6-0.1,1.2-0.3,1.6-0.6
		c0.7-0.4,1.2-0.9,1.5-1.5c0.2-0.6,0.4-1.2,0.4-1.8c0-0.2,0-0.4-0.1-0.7c0,0,0,0,0-0.1c0,0,0-0.2,0-0.5c0-0.4,0-0.8-0.1-1.3
		c-0.1-0.4-0.2-0.8-0.5-1.1c-0.4,0.1-0.9,0.3-1.5,0.5s-1.2,0.5-1.9,0.7s-1.3,0.6-2,0.9c-0.7,0.3-1.3,0.7-1.8,1
		c-0.5,0.4-1,0.7-1.3,1.1S453.4,53.1,453.4,53.4z"/>
	<path class="st0" d="M469.4,32c-0.2-0.3-0.4-0.5-0.5-0.8s-0.2-0.6-0.3-1c-0.1-0.3-0.1-0.7-0.2-1s-0.2-0.7-0.3-1.1
		c-0.1-0.4-0.3-0.8-0.4-1.2s-0.3-0.8-0.5-1.2c-0.2-0.4-0.3-0.9-0.4-1.3s-0.2-0.9-0.2-1.3c0-0.1,0-0.2,0-0.2s0-0.1,0-0.2
		c0-0.3,0.1-0.5,0.2-0.8s0.2-0.5,0.4-0.8c0.5,0.2,0.9,0.5,1.2,0.9c0.3,0.4,0.6,0.9,0.8,1.4c0.2,0.5,0.3,1.1,0.4,1.7s0.1,1.3,0.1,1.9
		c0,0.5,0,1,0,1.5s-0.1,1-0.1,1.4C469.5,30.6,469.5,31.3,469.4,32z"/>
	<path class="st0" d="M469.5,64.3c-0.4-0.2-0.7-0.5-0.9-1s-0.3-1-0.3-1.6c0-0.5,0.1-1,0.3-1.4c0.2-0.4,0.5-0.8,0.9-1.1
		c0.2,0,0.4,0.1,0.6,0.1s0.4,0,0.6,0c0.6,0,1.2-0.1,1.7-0.3c0.4-0.1,0.8-0.4,1.1-0.6c0.3-0.3,0.6-0.6,0.8-1s0.3-0.8,0.4-1.2
		s0.1-0.8,0.1-1.3c0-0.2,0-0.4,0-0.6c0-0.2-0.1-0.4-0.1-0.6c-0.3-1.4-0.7-2.8-1.2-4.1c-0.5-1.4-1-2.8-1.6-4.1
		c-0.5-1.4-1-2.7-1.3-4.1c-0.4-1.3-0.6-2.7-0.6-4c0-0.8,0.1-1.5,0.2-2.2c0.5,0.4,1,0.8,1.5,1.2s0.9,0.9,1.4,1.3
		c0.5,0.4,0.9,0.8,1.5,1.2c0.5,0.4,1.1,0.7,1.8,0.9c0.1,0.3,0.1,0.7,0.2,1.1s0.1,0.9,0.1,1.3c0,0.4,0,0.7-0.1,1.1
		c0,0.3-0.1,0.6-0.2,0.9c-0.1,0-0.2,0-0.3,0c-0.1,0-0.2,0-0.3,0c-0.3,0-0.5,0-0.7-0.1s-0.4-0.2-0.5-0.3c-0.2-0.1-0.3-0.2-0.5-0.3
		s-0.4-0.2-0.6-0.2c0.5,1.5,1,3.2,1.5,5s0.9,3.7,1.2,5.7c0.1,1,0.2,1.9,0.2,2.8c0,0.7,0,1.3-0.1,1.9s-0.2,1.2-0.4,1.7
		c-0.2,0.4-0.5,0.9-0.9,1.3c-0.3,0.5-0.7,0.9-1.2,1.2s-1,0.7-1.5,0.9c-0.5,0.2-1.2,0.4-2,0.4c-0.1,0-0.2,0-0.3,0s-0.2,0-0.3,0
		C469.6,64.2,469.5,64.2,469.5,64.3C469.5,64.4,469.5,64.4,469.5,64.3z"/>
	<path class="st0" d="M491.8,61.8c0,0.4,0,0.8,0,1c0,0.3-0.1,0.5-0.1,0.7c-0.1,0.2-0.2,0.4-0.3,0.6c-0.1,0.2-0.2,0.4-0.3,0.7
		c-0.8,0.2-1.6,0.5-2.4,0.9s-1.5,0.7-2.3,1.1s-1.5,0.7-2.3,1c-0.7,0.3-1.5,0.5-2.3,0.6c-0.1-0.3-0.1-0.5-0.1-0.6c0-0.2,0-0.3,0-0.5
		s0.1-0.4,0.1-0.6s0-0.5,0-0.9c0.9-0.2,1.7-0.6,2.5-1s1.6-0.9,2.4-1.3s1.6-0.8,2.4-1.1C490,62,490.9,61.8,491.8,61.8z"/>
	<path class="st0" d="M480.3,35.9c0-0.5,0.1-0.9,0.1-1.3c0-0.3,0.1-0.6,0.1-0.7c0-0.2,0.1-0.3,0.1-0.3c0-0.1,0.1-0.1,0.1-0.1
		c0.1-0.1,0.2-0.2,0.2-0.2l0.2-0.1c0.1,0,0.2,0.1,0.4,0.2c0.5,0.5,1,0.9,1.6,1.4s1.2,1,1.7,1.6s1,1.2,1.4,1.9s0.6,1.5,0.6,2.5
		c0,0.2,0,0.4-0.1,0.7v0.1c0,0.3-0.1,0.5-0.2,0.5s-0.3,0.2-0.5,0.2c-0.2,0.1-0.4,0.1-0.5,0.2c-0.2,0.1-0.3,0.2-0.4,0.3
		c0.1,1.2,0.3,2.4,0.6,3.6c0.3,1.2,0.6,2.4,1,3.6s0.7,2.4,0.9,3.6c0.3,1.2,0.4,2.4,0.4,3.6c0,0.6,0,1.2-0.1,1.9
		c-0.1,0.6-0.2,1.2-0.5,1.9c-0.4-0.2-0.6-0.5-0.8-0.8c-0.2-0.3-0.3-0.6-0.4-0.9s-0.1-0.6-0.2-0.9c0-0.3-0.1-0.6-0.1-0.9
		c-0.1-0.8-0.3-1.6-0.5-2.5s-0.5-1.9-0.8-2.9s-0.6-2-0.9-3s-0.6-2-0.9-3c-0.2-0.8-0.4-1.5-0.7-2.3c-0.3-0.8-0.6-1.6-0.8-2.4
		c-0.3-0.8-0.5-1.7-0.7-2.5s-0.3-1.7-0.3-2.5L480.3,35.9L480.3,35.9z"/>
	<path class="st0" d="M507.8,24.4c0,0.2-0.1,0.4-0.2,0.6s-0.2,0.3-0.3,0.5c-0.1,0.1-0.2,0.3-0.3,0.5s-0.2,0.3-0.2,0.6
		c-0.6,0.3-1.2,0.6-2,0.9s-1.6,0.5-2.5,0.7s-1.8,0.4-2.7,0.5c-0.9,0.1-1.9,0.2-2.8,0.2c-0.8,0-1.5-0.1-2.3-0.2
		c-0.7-0.1-1.4-0.3-2-0.5c0,0.3-0.1,0.5-0.2,0.9s-0.2,0.6-0.4,0.9c-0.2,0.3-0.3,0.6-0.6,0.8s-0.5,0.4-0.8,0.6
		c0.2-0.4,0.4-0.8,0.5-1.2s0.2-0.8,0.2-1.2c0-0.7-0.1-1.3-0.4-1.9s-0.6-1.2-1-1.6c0.1,0,0.2-0.1,0.2-0.2s0-0.2,0-0.3
		c0.3-0.1,0.6-0.1,0.9-0.1c0.4,0,0.8,0,1.2,0.1c0.4,0.1,0.8,0.2,1.2,0.3c0.4,0.1,0.8,0.2,1.2,0.4c0.4,0.1,0.8,0.2,1.2,0.2
		c0.4,0,0.9,0.1,1.3,0.1c0.9,0,1.8-0.1,2.7-0.2c0.9-0.1,1.8-0.3,2.7-0.5c0.9-0.2,1.7-0.3,2.6-0.5s1.6-0.2,2.4-0.2h0.4L507.8,24.4
		L507.8,24.4z M511,55.5c-0.6-1-1.2-1.9-1.8-2.8c-0.5-0.9-1.1-1.7-1.7-2.5s-1.3-1.5-2-2.2s-1.6-1.4-2.6-2.1
		c-0.4-0.3-0.9-0.6-1.3-0.8c-0.5-0.2-1-0.4-1.6-0.5c-0.4,0.3-0.9,0.5-1.2,0.7c-0.4,0.1-0.8,0.2-1.1,0.2c-0.8,0-1.4-0.3-2-0.8
		s-1.1-1.2-1.4-1.9c-0.4-0.8-0.7-1.6-0.9-2.5c-0.2-0.9-0.3-1.8-0.3-2.6c0-0.4,0-0.7,0.1-1c0-0.3,0.1-0.6,0.2-0.9
		c0.8,0.3,1.7,0.6,2.6,1s1.8,0.9,2.6,1.4s1.7,1.1,2.6,1.7c0.9,0.6,1.7,1.2,2.5,1.8c0.9,0.7,1.8,1.5,2.7,2.3s1.7,1.7,2.4,2.7
		c0.7,1,1.3,2.1,1.7,3.3s0.7,2.6,0.7,4.1C511.2,54.5,511.2,55,511,55.5z"/>
	<path class="st0" d="M517.3,13.5c0,0.4,0,0.8,0,1c0,0.3-0.1,0.5-0.1,0.7c-0.1,0.2-0.2,0.4-0.3,0.6c-0.1,0.2-0.2,0.4-0.3,0.7
		c-0.8,0.2-1.6,0.5-2.4,0.9c-0.8,0.4-1.5,0.7-2.3,1.1s-1.5,0.7-2.3,1c-0.7,0.3-1.5,0.5-2.3,0.6c-0.1-0.3-0.1-0.5-0.1-0.6
		c0-0.2,0-0.3,0-0.5s0.1-0.4,0.1-0.6s0-0.5,0-0.9c0.9-0.2,1.7-0.6,2.5-1s1.6-0.9,2.4-1.3c0.8-0.4,1.6-0.8,2.4-1.1
		C515.5,13.7,516.3,13.5,517.3,13.5z"/>
	<path class="st0" d="M517,37.9c0.1,0.3,0.1,0.5,0.2,0.8c0,0.3,0.1,0.6,0.1,0.9c0,0.4,0,0.7-0.1,1.1s-0.2,0.7-0.4,1
		s-0.4,0.5-0.6,0.7c-0.3,0.2-0.6,0.2-1,0.2H515c0.3,1.5,0.6,2.9,0.8,4.4s0.3,3,0.3,4.4c0,1-0.1,2-0.2,3s-0.4,1.9-0.7,2.7
		c-0.3,0.9-0.7,1.7-1.2,2.4s-1.1,1.4-1.9,2c-0.8,0.6-1.8,1.1-3,1.4s-2.5,0.4-3.8,0.4c-1.2,0-2.3-0.1-3.5-0.3s-2.3-0.5-3.4-0.8
		c0.4-0.5,1-0.9,1.6-1.2s1.3-0.5,2-0.6c0.7-0.2,1.4-0.3,2.2-0.4s1.5-0.3,2.1-0.6c0.7-0.3,1.5-0.6,2.3-1s1.6-0.9,2.4-1.4
		c0.7-0.5,1.4-1,2-1.6s0.9-1.2,1.1-1.8c0.1-0.4,0.1-0.8,0.1-1.3c0-0.7-0.1-1.4-0.3-2.2s-0.4-1.6-0.6-2.4c-0.2-0.8-0.4-1.7-0.7-2.6
		c-0.2-0.9-0.4-1.7-0.5-2.6v-0.2c-0.1-0.8-0.2-1.7-0.4-2.7c-0.1-0.9-0.2-1.8-0.2-2.7c0-0.6,0-1.2,0.1-1.7s0.2-1,0.4-1.3
		c0.4,0.3,0.9,0.6,1.2,1c0.4,0.4,0.8,0.7,1.1,1.1s0.8,0.7,1.2,1C516,37.4,516.5,37.7,517,37.9z"/>
	<path class="st0" d="M528.8,40.4c0.4-0.5,0.9-0.9,1.4-1.2c0.6-0.3,1.1-0.6,1.7-0.9s1.2-0.6,1.7-0.9c0.5-0.3,1-0.8,1.3-1.3
		c-0.2-0.3-0.5-0.6-0.8-0.7c-0.3-0.1-0.7-0.2-1.1-0.2c-0.3,0-0.7,0-1,0.1c-0.4,0.1-0.7,0.2-1,0.3s-0.7,0.2-1,0.3s-0.6,0.2-0.8,0.3
		c-0.1-0.4-0.2-0.9-0.2-1.3c0-0.6,0.1-1.1,0.4-1.5c0.3-0.4,0.6-0.8,1-1.1s0.9-0.5,1.4-0.7s1.1-0.2,1.6-0.2c0.4,0,0.8,0,1.2,0.1
		s0.8,0.2,1.1,0.4c0.3,0.2,0.6,0.4,0.8,0.7s0.4,0.6,0.5,1c0.1,0.3,0.1,0.6,0.1,1c0,0.7-0.1,1.3-0.4,1.8c-0.3,0.5-0.6,1-1,1.5
		c-0.4,0.4-0.9,0.8-1.4,1.2c-0.5,0.3-1.1,0.6-1.7,0.8c-0.6,0.2-1.2,0.4-1.7,0.5s-1.1,0.2-1.6,0.2c-0.1,0-0.2,0-0.2,0L528.8,40.4z"/>
	<path class="st0" d="M548.5,43.5c0.1,0.7,0.2,1.4,0.3,2.2c0.2,0.7,0.2,1.4,0.2,2.1c0,0.5-0.1,0.9-0.2,1.3s-0.4,0.7-0.8,1
		c-0.3,0-0.5-0.1-0.7-0.3s-0.3-0.4-0.4-0.6c-0.1-0.2-0.2-0.4-0.4-0.6c-0.1-0.2-0.4-0.3-0.7-0.3c-1.6,0.6-2.9,1.3-4.1,2.2
		c-1.2,0.9-2.2,2-2.9,3.4c0.3,0.4,0.6,0.6,1,0.7c0.4,0.1,0.8,0.2,1.2,0.2l2.2-0.1c0.2,0,0.3,0,0.5,0s0.3,0,0.5,0.1
		c0.8,0.3,1.4,0.7,1.8,1.3s0.5,1.4,0.5,2.3c0,0.4,0,0.9-0.1,1.4s-0.2,1-0.3,1.6c0,0.2-0.1,0.4-0.2,0.6c-0.1,0.2-0.2,0.4-0.4,0.6
		c-0.1,0.2-0.2,0.4-0.4,0.5c-0.1,0.2-0.2,0.3-0.2,0.3c-0.3,0.5-0.7,1-1.2,1.5s-1.1,1.1-1.7,1.6c-0.6,0.5-1.3,1-2.1,1.5
		s-1.6,0.9-2.4,1.3c-0.8,0.4-1.7,0.7-2.6,0.9c-0.9,0.2-1.8,0.3-2.7,0.3c-0.8,0-1.5-0.1-2.3-0.3c-0.8-0.2-1.5-0.5-2.3-0.8
		c-0.8-0.4-1.6-1-2.2-1.7s-1.1-1.5-1.5-2.3c-0.4-0.9-0.7-1.8-0.9-2.8s-0.3-2-0.3-3.1c0-1.3,0.1-2.5,0.4-3.8c0.3-1.3,0.6-2.4,1.1-3.6
		c0.5-1.1,1.1-2.1,1.7-3s1.4-1.6,2.3-2.2v0.3c0,0.7-0.1,1.4-0.3,2s-0.4,1.2-0.7,1.8s-0.6,1.1-0.9,1.7c-0.3,0.5-0.6,1.1-0.9,1.7
		c-0.3,0.6-0.5,1.2-0.7,1.8s-0.3,1.3-0.3,2.1c0,0.6,0.1,1.3,0.2,2c0.1,0.4,0.3,0.8,0.5,1.3c0.3,0.5,0.6,0.9,0.9,1.3
		c0.4,0.4,0.7,0.8,1.1,1.1c0.4,0.3,0.8,0.6,1.1,0.7c0.5,0.2,1.1,0.4,1.7,0.5c0.6,0.1,1.2,0.2,1.8,0.2c1.1,0,2.2-0.2,3.4-0.5
		c1.1-0.3,2.2-0.7,3.2-1.2c1-0.5,1.9-1.1,2.7-1.8s1.4-1.4,1.8-2.1c-0.3-0.2-0.6-0.4-1-0.5s-0.8-0.2-1.2-0.2
		c-0.4-0.1-0.9-0.1-1.3-0.2s-0.8-0.1-1.2-0.2c-0.4-0.1-0.7-0.2-1-0.4s-0.5-0.4-0.7-0.8c-0.1-0.3-0.1-0.7-0.2-1c0-0.3,0-0.6,0-0.9
		c0-1,0.2-2,0.6-2.9s1-1.9,1.7-2.9c0.5-0.6,1-1.3,1.6-2s1.2-1.5,1.9-2.2s1.4-1.3,2.1-1.9c0.7-0.6,1.4-0.9,2.2-1.2c0.1,0,0.2,0,0.3,0
		c0.2,0,0.4,0,0.6,0.1c0.2,0.1,0.4,0.2,0.5,0.3c0.2,0.1,0.3,0.2,0.4,0.3C548.5,43.3,548.5,43.4,548.5,43.5z"/>
	<path class="st0" d="M565.7,66.7c0,0.4,0,0.8,0,1c0,0.3-0.1,0.5-0.1,0.7c-0.1,0.2-0.2,0.4-0.3,0.6s-0.2,0.4-0.3,0.7
		c-0.8,0.2-1.6,0.5-2.4,0.9c-0.8,0.4-1.5,0.7-2.3,1.1s-1.5,0.7-2.3,1c-0.7,0.3-1.5,0.5-2.3,0.6c-0.1-0.3-0.1-0.5-0.1-0.6
		c0-0.2,0-0.3,0-0.5s0.1-0.4,0.1-0.6s0-0.5,0-0.9c0.9-0.2,1.7-0.6,2.5-1s1.6-0.9,2.4-1.3s1.6-0.8,2.4-1.1
		C563.8,66.9,564.7,66.7,565.7,66.7z"/>
	<path class="st0" d="M574.3,61c-0.2,0-0.4,0-0.6,0c-0.2,0-0.3-0.1-0.5-0.1s-0.3-0.1-0.5-0.1c-0.2-0.1-0.4-0.1-0.6-0.2
		c-0.5-0.2-1-0.5-1.5-0.8s-0.9-0.7-1.4-1.1c-0.5-0.4-0.9-0.8-1.4-1.2s-1-0.8-1.5-1.3c-0.4,0.9-0.8,1.8-1.2,2.8s-0.9,1.9-1.4,2.7
		s-1.2,1.5-2,2s-1.7,0.8-2.8,0.8c-1,0-1.8-0.2-2.5-0.7c-0.7-0.5-1.3-1.1-1.9-1.8s-1-1.7-1.3-2.7s-0.6-2.1-0.8-3.2
		c-0.2-1.1-0.3-2.3-0.4-3.5c-0.1-1.2-0.1-2.3-0.1-3.5c0-0.6,0-1.1,0-1.7c0-0.5,0-1,0.1-1.5c0.3,0.6,0.5,1.2,0.7,1.9s0.3,1.4,0.4,2.1
		c0.1,0.7,0.2,1.5,0.3,2.3s0.2,1.5,0.3,2.2s0.3,1.4,0.5,2s0.5,1.2,0.9,1.6c0.4,0.5,0.8,0.8,1.4,1.1c0.6,0.3,1.2,0.4,2,0.4
		c0.9,0,1.7-0.2,2.5-0.7s1.4-1.1,2-1.8c0.6-0.8,1-1.7,1.3-2.7s0.5-2,0.5-3.1v-0.5c0-0.7-0.1-1.4-0.3-2.1c-0.2-0.7-0.4-1.4-0.6-2.1
		s-0.4-1.3-0.6-2c-0.2-0.7-0.3-1.3-0.3-2c0-0.4,0-0.8,0.1-1.2s0.2-0.8,0.4-1.2c0.1,0.1,0.2,0.1,0.3,0.2s0.1,0.2,0.2,0.3
		c0.1,1,0.3,2,0.6,3s0.6,2.1,1,3.1s0.8,2,1.3,3s1.1,1.8,1.7,2.6c0.6,0.8,1.3,1.5,2,2.1s1.5,1,2.3,1.3c0.2,0.1,0.4,0.1,0.6,0.2
		s0.5,0.1,0.8,0.1h0.3c0.6,0.3,1.1,0.6,1.4,1c0.3,0.4,0.5,0.9,0.5,1.4s-0.2,0.9-0.5,1.3c-0.3,0.4-0.8,0.8-1.4,1.1h-0.3V61z
		 M560.3,32.3c0.9,0.1,1.6,0.3,2.2,0.6c0.6,0.3,1.1,0.7,1.6,1.2c0,0.8-0.1,1.5-0.3,2.2c-0.1,0.7-0.4,1.2-0.9,1.5h-0.3
		c-1.5,0-2.6-0.5-3.2-1.4c0-0.4,0.1-0.8,0.1-1.2s0-0.7,0.1-1.1c0-0.3,0.1-0.7,0.2-1C559.8,32.8,560,32.5,560.3,32.3z"/>
	<path class="st0" d="M581.8,14.5c0,0.4,0,0.8,0,1c0,0.3-0.1,0.5-0.1,0.7c-0.1,0.2-0.2,0.4-0.3,0.6s-0.2,0.4-0.3,0.7
		c-0.8,0.2-1.6,0.5-2.4,0.9c-0.8,0.4-1.5,0.7-2.3,1.1s-1.5,0.7-2.3,1c-0.7,0.3-1.5,0.5-2.3,0.6c-0.1-0.3-0.1-0.5-0.1-0.6
		c0-0.2,0-0.3,0-0.5s0.1-0.4,0.1-0.6s0-0.5,0-0.9c0.9-0.2,1.7-0.6,2.5-1s1.6-0.9,2.4-1.3c0.8-0.4,1.6-0.8,2.4-1.1
		C580,14.7,580.8,14.6,581.8,14.5z"/>
	<path class="st0" d="M578.2,22.6c-0.1,0.3-0.1,0.5-0.1,0.8s0,0.5,0,0.8c0,0.4,0,0.7,0.1,1s0.2,0.6,0.3,0.9c0.2,0.3,0.4,0.5,0.6,0.6
		c0.3,0.1,0.6,0.2,1,0.2c0.1,0,0.2,0,0.2,0c0.1,0,0.1,0,0.2,0c0.1-0.2,0.2-0.4,0.3-0.5s0.1-0.4,0.1-0.6l-0.3-2.2
		c0-0.2,0-0.4,0.1-0.6s0.2-0.4,0.3-0.6c0.5,0.4,0.9,0.9,1.2,1.5s0.4,1.3,0.4,2c0,0.4-0.1,0.9-0.2,1.3c-0.1,0.4-0.3,0.8-0.5,1.1
		c-0.2,0.3-0.5,0.6-0.8,0.8c-0.3,0.2-0.7,0.3-1.1,0.3c-0.3,0-0.6,0-0.9-0.1c-0.3-0.1-0.7-0.3-1.1-0.5c-0.8,0.6-1.5,0.9-2.3,0.9
		c-0.5,0-0.9-0.1-1.3-0.3c-0.4-0.2-0.7-0.4-1-0.7c-0.3-0.3-0.5-0.7-0.7-1.1s-0.3-0.8-0.3-1.3c0-0.4,0.1-0.9,0.3-1.3
		c0.2-0.5,0.5-0.9,0.9-1.3c0,0.3,0.1,0.7,0.1,1.2c0,0.4,0,0.8,0.1,1.2s0.2,0.7,0.4,1s0.5,0.4,0.8,0.4s0.7-0.1,0.9-0.2
		c0.2-0.2,0.4-0.4,0.5-0.6c0.1-0.3,0.2-0.6,0.2-0.9s0-0.7,0-1v-0.1c0-0.3,0-0.5,0-0.8c0-0.2,0-0.5,0.1-0.7s0.1-0.3,0.3-0.5
		c0.1-0.1,0.3-0.2,0.5-0.2C577.5,22.4,577.8,22.5,578.2,22.6z"/>
	<path class="st0" d="M574.3,56.1c1.1-0.1,2-0.3,2.7-0.5s1.3-0.5,1.8-0.9s0.8-0.8,1-1.2c0.2-0.5,0.3-1,0.3-1.6c0-0.3,0-0.7,0-0.9
		s-0.1-0.5-0.1-0.8c-0.1-0.3-0.1-0.6-0.2-1c-0.1-0.4-0.3-0.8-0.5-1.3c-0.3-1-0.7-1.9-1.1-2.8c-0.4-0.9-0.8-1.9-1.2-2.8
		s-0.7-1.9-0.9-2.8c-0.2-0.9-0.4-1.8-0.4-2.7c0-0.6,0.1-1.2,0.2-1.8s0.4-1.2,0.7-1.7c0.5,0.4,1,0.8,1.5,1.3s0.9,1,1.4,1.4
		c0.5,0.5,1,0.9,1.5,1.2s1.1,0.5,1.7,0.6c0.1,0.3,0.1,0.7,0.2,1.2c0,0.5,0.1,0.9,0.1,1.4c0,0.4,0,0.8-0.1,1.1c0,0.4-0.1,0.7-0.2,0.9
		c-0.1,0-0.2,0-0.3,0s-0.2,0-0.3,0c-0.3,0-0.5,0-0.7-0.1S581,42.1,581,42c-0.2-0.1-0.3-0.2-0.5-0.3s-0.4-0.2-0.6-0.2
		c0.3,1,0.7,2,1,3.1s0.6,2.2,1,3.4c0.1,0.5,0.2,1,0.3,1.4s0.1,0.8,0.2,1.1c0,0.4,0.1,0.7,0.1,1.1s0,0.8,0,1.3c0,1-0.1,2-0.4,3
		c-0.3,1-0.7,1.8-1.3,2.6s-1.5,1.4-2.5,1.8s-2.3,0.7-4,0.7c-0.4,0-0.7-0.1-1-0.2c-0.3-0.1-0.5-0.3-0.7-0.6c-0.2-0.2-0.3-0.5-0.5-0.8
		c-0.1-0.3-0.2-0.6-0.2-0.9c0-0.3,0-0.6,0.1-0.9c0.1-0.3,0.2-0.5,0.4-0.8c0.2-0.2,0.4-0.4,0.7-0.5S574,56.1,574.3,56.1z"/>
	<path class="st0" d="M586.5,35.9c0-0.5,0.1-0.9,0.1-1.3c0-0.3,0.1-0.6,0.1-0.7c0-0.2,0.1-0.3,0.1-0.3c0-0.1,0.1-0.1,0.1-0.1
		c0.1-0.1,0.2-0.2,0.2-0.2l0.2-0.1c0.1,0,0.2,0.1,0.4,0.2c0.5,0.5,1,0.9,1.6,1.4s1.2,1,1.7,1.6s1,1.2,1.4,1.9s0.6,1.5,0.6,2.5
		c0,0.2,0,0.4-0.1,0.7v0.1c0,0.3-0.1,0.5-0.2,0.5s-0.3,0.2-0.5,0.2c-0.2,0.1-0.4,0.1-0.5,0.2c-0.2,0.1-0.3,0.2-0.4,0.3
		c0.1,1.2,0.3,2.4,0.6,3.6c0.3,1.2,0.6,2.4,1,3.6s0.7,2.4,0.9,3.6c0.3,1.2,0.4,2.4,0.4,3.6c0,0.6,0,1.2-0.1,1.9
		c-0.1,0.6-0.2,1.2-0.5,1.9c-0.4-0.2-0.6-0.5-0.8-0.8s-0.3-0.6-0.4-0.9s-0.1-0.6-0.2-0.9c0-0.3-0.1-0.6-0.1-0.9
		c-0.1-0.8-0.3-1.6-0.5-2.5s-0.5-1.9-0.8-2.9s-0.6-2-0.9-3c-0.3-1-0.6-2-0.9-3c-0.2-0.8-0.4-1.5-0.7-2.3s-0.6-1.6-0.8-2.4
		c-0.3-0.8-0.5-1.7-0.7-2.5s-0.3-1.7-0.3-2.5L586.5,35.9L586.5,35.9z"/>
	<path class="st0" d="M612.3,32.9c0,0.4,0,0.8,0,1c0,0.3-0.1,0.5-0.1,0.7c-0.1,0.2-0.2,0.4-0.3,0.6c-0.1,0.2-0.2,0.4-0.3,0.7
		c-0.8,0.2-1.6,0.5-2.4,0.9c-0.8,0.4-1.5,0.7-2.3,1.1s-1.5,0.7-2.3,1c-0.7,0.3-1.5,0.5-2.3,0.6c-0.1-0.3-0.1-0.5-0.1-0.6
		c0-0.2,0-0.3,0-0.5s0.1-0.4,0.1-0.6c0-0.2,0-0.5,0-0.9c0.9-0.2,1.7-0.6,2.5-1s1.6-0.9,2.4-1.3c0.8-0.4,1.6-0.8,2.4-1.1
		C610.3,33.1,611.3,33,612.3,32.9z"/>
	<path class="st0" d="M618.3,56.2c0.7,0,1.2,0.3,1.5,0.7c0.3,0.5,0.5,1,0.5,1.6c0,0.3,0,0.6-0.1,0.9s-0.2,0.6-0.4,0.8
		s-0.4,0.4-0.6,0.6c-0.2,0.2-0.5,0.2-0.8,0.2c-0.7,0-1.3-0.2-1.9-0.4c-0.6-0.2-1.2-0.6-1.7-1s-0.9-0.9-1.3-1.5
		c-0.4-0.6-0.6-1.3-0.7-2.1c-0.9,0.7-2,1.3-3.3,1.8c-1.2,0.5-2.6,0.7-4,0.7c-0.6,0-1.2-0.1-1.8-0.2c-0.6-0.1-1.2-0.3-1.9-0.5
		c-0.4-0.8-0.8-1.5-1-2.2s-0.3-1.4-0.3-2.1c0-0.9,0.2-1.7,0.5-2.5s0.8-1.5,1.4-2.1c0.6-0.7,1.3-1.3,2-1.8c0.8-0.5,1.6-1,2.5-1.4
		s1.8-0.8,2.7-1.1s1.8-0.5,2.7-0.7c0-0.2,0.1-0.3,0.1-0.5s0-0.3,0-0.5c0-0.4,0-0.7-0.1-1.1c0-0.3-0.1-0.7-0.1-1s0-0.7,0.1-1
		s0.3-0.6,0.6-0.9c0.6,0.6,1.1,1.4,1.3,2.3c0.2,0.9,0.3,1.9,0.3,3c0,1,0,2-0.1,3.1s-0.1,2-0.1,3c0,0.3,0,0.6,0,0.9
		c0,0.3,0,0.6,0.1,0.8c0.1,0.6,0.2,1.1,0.5,1.6c0.2,0.5,0.5,0.9,0.9,1.2s0.8,0.6,1.2,0.8C617.5,56,617.8,56.1,618.3,56.2z
		 M602.5,52.1c0.1,0.6,0.4,1,1,1.3c0.5,0.2,1.2,0.4,2,0.4c0.6,0,1.2-0.1,1.9-0.2c0.7-0.1,1.3-0.3,2-0.5c0.6-0.2,1.2-0.4,1.7-0.6
		c0.5-0.2,0.9-0.4,1.3-0.6c0.1-0.5,0.2-1,0.3-1.5c0.1-0.6,0.2-1.1,0.2-1.6c0-0.4,0-0.8-0.1-1.1s-0.3-0.6-0.5-0.9
		c-0.4,0.1-1,0.2-1.6,0.4s-1.3,0.3-2,0.6c-0.7,0.2-1.4,0.5-2.1,0.7s-1.4,0.6-1.9,0.9c-0.6,0.3-1,0.7-1.4,1.1
		c-0.3,0.4-0.5,0.8-0.5,1.3C602.5,52,602.5,52.1,602.5,52.1z"/>
	<path class="st0" d="M622.3,25.3c-0.2-0.3-0.4-0.5-0.5-0.8s-0.2-0.6-0.3-1c-0.1-0.3-0.1-0.7-0.2-1c-0.1-0.3-0.2-0.7-0.3-1.1
		s-0.3-0.8-0.4-1.2s-0.3-0.8-0.5-1.2c-0.2-0.4-0.3-0.9-0.4-1.3c-0.1-0.4-0.2-0.9-0.2-1.3c0-0.1,0-0.2,0-0.2s0-0.1,0-0.2
		c0-0.3,0.1-0.5,0.2-0.8c0.1-0.3,0.2-0.5,0.4-0.8c0.5,0.2,0.9,0.5,1.2,0.9s0.6,0.9,0.8,1.4s0.3,1.1,0.4,1.7c0.1,0.6,0.1,1.3,0.1,1.9
		c0,0.5,0,1,0,1.5s-0.1,1-0.1,1.4C622.5,24,622.3,24.7,622.3,25.3z"/>
	<path class="st0" d="M624,26.9c-0.1,0.3-0.1,0.5-0.1,0.8s0,0.5,0,0.8c0,0.4,0,0.7,0.1,1s0.2,0.6,0.3,0.9c0.2,0.3,0.4,0.5,0.6,0.6
		c0.3,0.1,0.6,0.2,1,0.2c0.1,0,0.2,0,0.2,0c0.1,0,0.1,0,0.2,0c0.1-0.2,0.2-0.4,0.3-0.5s0.1-0.4,0.1-0.6l-0.3-2.2
		c0-0.2,0-0.4,0.1-0.6s0.2-0.4,0.3-0.6c0.5,0.4,0.9,0.9,1.2,1.5s0.4,1.3,0.4,2c0,0.4-0.1,0.9-0.2,1.3c-0.1,0.4-0.3,0.8-0.5,1.1
		s-0.5,0.6-0.8,0.8s-0.7,0.3-1.1,0.3c-0.3,0-0.6,0-0.9-0.1c-0.3-0.1-0.7-0.3-1.1-0.5c-0.8,0.6-1.5,0.9-2.3,0.9
		c-0.5,0-0.9-0.1-1.3-0.3c-0.4-0.2-0.7-0.4-1-0.7s-0.5-0.7-0.7-1.1s-0.3-0.8-0.3-1.3c0-0.4,0.1-0.9,0.3-1.3c0.2-0.5,0.5-0.9,0.9-1.3
		c0,0.3,0.1,0.7,0.1,1.2c0,0.4,0,0.8,0.1,1.2s0.2,0.7,0.4,1s0.5,0.4,0.8,0.4s0.7-0.1,0.9-0.2c0.2-0.2,0.4-0.4,0.5-0.6
		c0.1-0.3,0.2-0.6,0.2-0.9s0-0.7,0-1V29c0-0.3,0-0.5,0-0.8c0-0.2,0-0.5,0.1-0.7s0.1-0.3,0.3-0.5c0.1-0.1,0.3-0.2,0.5-0.2
		C623.3,26.7,623.7,26.7,624,26.9z"/>
	<path class="st0" d="M631.2,55.6c0.3,0,0.6,0.1,0.8,0.2c0.2,0.1,0.4,0.3,0.6,0.5c0.1,0.2,0.3,0.5,0.3,0.7s0.1,0.6,0.1,0.9
		c0,0.3,0,0.7-0.1,1s-0.2,0.6-0.4,0.9c-0.2,0.3-0.3,0.5-0.6,0.6s-0.5,0.2-0.8,0.2c-0.7-0.1-1.3-0.3-1.9-0.5
		c-0.6-0.3-1.2-0.5-1.7-0.9s-1-0.7-1.4-1.1c-0.4-0.4-0.7-0.9-1-1.3c-0.2,0.7-0.5,1.4-1,1.9c-0.4,0.5-0.9,1-1.4,1.4s-1.1,0.6-1.8,0.8
		c-0.6,0.2-1.3,0.3-1.9,0.3c-0.1,0-0.2,0-0.3,0s-0.2,0-0.3,0c-0.3,0-0.5-0.1-0.7-0.2c-0.2-0.2-0.4-0.3-0.5-0.6
		c-0.1-0.2-0.2-0.5-0.3-0.8s-0.1-0.6-0.1-0.9c0-0.3,0-0.6,0.1-0.9c0.1-0.3,0.2-0.5,0.3-0.8c0.1-0.2,0.3-0.4,0.5-0.5s0.4-0.2,0.7-0.2
		c0.2,0,0.4,0.1,0.6,0.1c0.2,0,0.4,0,0.6,0c0.5,0,1.1-0.1,1.6-0.2c0.5-0.1,1-0.3,1.4-0.6s0.8-0.6,1-1c0.3-0.4,0.5-0.9,0.6-1.4
		c0.1-0.6,0.1-1.1,0.1-1.7c0-0.9-0.1-1.9-0.3-2.8c-0.2-1-0.4-1.9-0.6-2.9s-0.5-1.9-0.7-2.9s-0.3-2-0.4-3c0.1-1.6,0.3-2.4,0.3-2.5
		c0.1,0,0.3-0.2,0.5-0.4c0.3-0.2,0.7,0.2,1.3,1.4c0.6,1.1,0.8,2,0.5,2.5c-0.2,0.5-0.3,1.4-0.1,2.6c0.1,1.2,0.3,2.3,0.5,3.5
		s0.4,2.3,0.7,3.5c0.3,1.1,0.6,2.2,1,3.3c0.2,0.2,0.5,0.4,0.8,0.6s0.6,0.4,1,0.6c0.4,0.2,0.8,0.3,1.2,0.5
		C630.3,55.4,630.8,55.5,631.2,55.6z"/>
	<path class="st0" d="M631.3,60.7c-0.3,0-0.6-0.1-0.9-0.2s-0.5-0.4-0.6-0.6c-0.2-0.2-0.3-0.5-0.4-0.8c-0.1-0.3-0.1-0.6-0.1-0.9
		c0-0.3,0-0.6,0.1-0.9c0.1-0.3,0.2-0.6,0.4-0.8s0.4-0.4,0.6-0.6c0.3-0.2,0.5-0.2,0.9-0.2c0.2,0,0.4,0.1,0.7,0.1s0.4,0,0.7,0
		c0.6,0,1.1-0.1,1.6-0.2c0.5-0.2,0.9-0.4,1.3-0.7c-0.2-0.8-0.5-1.5-0.9-2.3s-0.9-1.5-1.3-2.2c-0.4-0.8-0.8-1.5-1.2-2.3
		c-0.3-0.8-0.5-1.6-0.5-2.5c0-0.4,0.1-0.8,0.2-1.3c0.1-0.4,0.3-0.9,0.5-1.4c0.6,0.8,1.3,1.6,1.9,2.5c0.6,0.9,1.1,1.9,1.6,3
		s0.8,2.2,1.1,3.3s0.4,2.3,0.4,3.5c0,0.8-0.1,1.5-0.2,2.3s-0.3,1.5-0.6,2.3c-0.6,0.4-1.2,0.7-1.8,0.9s-1.3,0.3-2,0.3
		c-0.2,0-0.4,0-0.7,0S631.5,60.7,631.3,60.7z"/>
	<path class="st0" d="M641.3,35.9c0-0.5,0.1-0.9,0.1-1.3c0-0.3,0.1-0.6,0.1-0.7c0-0.2,0.1-0.3,0.1-0.3c0-0.1,0.1-0.1,0.1-0.1
		c0.1-0.1,0.2-0.2,0.2-0.2l0.2-0.1c0.1,0,0.2,0.1,0.4,0.2c0.5,0.5,1,0.9,1.6,1.4s1.2,1,1.7,1.6s1,1.2,1.4,1.9s0.6,1.5,0.6,2.5
		c0,0.2,0,0.4-0.1,0.7v0.1c0,0.3-0.1,0.5-0.2,0.5s-0.3,0.2-0.5,0.2c-0.2,0.1-0.4,0.1-0.5,0.2c-0.2,0.1-0.3,0.2-0.4,0.3
		c0.1,1.2,0.3,2.4,0.6,3.6c0.3,1.2,0.6,2.4,1,3.6s0.7,2.4,0.9,3.6c0.3,1.2,0.4,2.4,0.4,3.6c0,0.6,0,1.2-0.1,1.9
		c-0.1,0.6-0.2,1.2-0.5,1.9c-0.4-0.2-0.6-0.5-0.8-0.8s-0.3-0.6-0.4-0.9s-0.1-0.6-0.2-0.9c0-0.3-0.1-0.6-0.1-0.9
		c-0.1-0.8-0.3-1.6-0.5-2.5s-0.5-1.9-0.8-2.9s-0.6-2-0.9-3c-0.3-1-0.6-2-0.9-3c-0.2-0.8-0.4-1.5-0.7-2.3s-0.6-1.6-0.8-2.4
		c-0.3-0.8-0.5-1.7-0.7-2.5s-0.3-1.7-0.3-2.5L641.3,35.9L641.3,35.9z"/>
	<path class="st0" d="M655.5,44.6c0.2-0.5,0.5-0.9,0.9-1.2s0.8-0.5,1.3-0.7s0.9-0.5,1.3-0.7c0.4-0.3,0.7-0.6,1-1.1
		c-0.6-0.4-1-0.9-1.3-1.6c-0.3-0.6-0.4-1.4-0.4-2.1c0-0.7,0.1-1.5,0.3-2.2s0.5-1.4,1-2c0.4-0.6,0.9-1.1,1.4-1.5s1.1-0.6,1.7-0.6
		c0.5,0,0.9,0.1,1.4,0.4s1,0.7,1.5,1.2c0.1,0.4,0.2,0.8,0.2,1.1s0.1,0.7,0.1,1.1c0,1.3-0.3,2.5-0.9,3.6c-0.6,1.1-1.3,2-2.2,2.8
		c-0.5,0.5-1,0.9-1.7,1.3c-0.6,0.4-1.2,0.8-1.9,1.1c-0.6,0.3-1.3,0.6-1.9,0.8S656.2,44.6,655.5,44.6z M663.8,36
		c0-0.2-0.1-0.4-0.2-0.6c-0.1-0.2-0.3-0.3-0.5-0.4c-0.2-0.1-0.4-0.2-0.6-0.3s-0.5-0.1-0.7-0.1s-0.3,0-0.5,0c-0.1,0-0.3,0.1-0.4,0.2
		c-0.3,0.2-0.5,0.3-0.6,0.5s-0.2,0.3-0.2,0.5s0.1,0.4,0.2,0.6c0.1,0.2,0.3,0.4,0.5,0.5c0.2,0.2,0.5,0.3,0.7,0.4
		c0.3,0.1,0.5,0.1,0.8,0.1s0.6-0.1,0.9-0.3s0.4-0.5,0.4-1V36H663.8z"/>
	<path class="st0" d="M671.3,54.2c0.3,0,0.6,0.1,0.8,0.3s0.4,0.3,0.5,0.5s0.2,0.5,0.3,0.8s0.1,0.6,0.1,0.9c0,0.4,0,0.7-0.1,1.1
		c-0.1,0.3-0.2,0.7-0.4,1s-0.3,0.5-0.6,0.7c-0.2,0.2-0.5,0.3-0.7,0.4c-1,0.4-1.9,0.8-2.7,1.3s-1.5,1.1-2,1.6c-0.3,0.4-0.7,0.9-1,1.5
		c-0.3,0.6-0.6,1.2-0.9,1.9s-0.6,1.4-0.9,2c-0.3,0.7-0.7,1.3-1,1.9c-0.4,0.6-0.7,1-1.1,1.4c-0.4,0.4-0.8,0.6-1.3,0.6H660
		c-0.3,0-0.6-0.1-0.9-0.2c-0.3-0.1-0.6-0.3-0.9-0.5c-0.3-0.2-0.5-0.4-0.8-0.6s-0.4-0.4-0.5-0.6c-0.3-0.5-0.5-1.1-0.7-1.9
		s-0.4-1.7-0.5-2.6c-0.1-1-0.2-2-0.3-3.1s-0.1-2.1-0.1-3.2c0-0.8,0-1.5,0.1-2.2c0-0.7,0.1-1.4,0.2-2c0.3,0.4,0.5,1,0.7,1.7
		s0.2,1.5,0.3,2.3s0.1,1.7,0.2,2.5c0.1,0.8,0.2,1.6,0.4,2.3s0.5,1.2,0.9,1.6s0.9,0.6,1.6,0.6c0.2,0,0.4,0,0.7-0.1h0.1
		c0.4-0.1,0.7-0.3,1-0.6c0.3-0.3,0.5-0.7,0.7-1.2s0.4-1,0.6-1.5c0.2-0.5,0.4-1.1,0.7-1.6c0.2-0.4,0.5-0.8,1-1.4s0.9-1.2,1.5-1.8
		s1.1-1.1,1.6-1.6s1-0.8,1.3-1c0.4-0.2,0.7-0.4,1.1-0.6c0.3-0.2,0.7-0.5,1.1-0.7L671.3,54.2L671.3,54.2z"/>
	<path class="st0" d="M680,67.4c0,0.4,0,0.8,0,1c0,0.3-0.1,0.5-0.1,0.7c-0.1,0.2-0.2,0.4-0.3,0.6s-0.2,0.4-0.3,0.7
		c-0.8,0.2-1.6,0.5-2.4,0.9c-0.8,0.4-1.5,0.7-2.3,1.1s-1.5,0.7-2.3,1c-0.7,0.3-1.5,0.5-2.3,0.6c-0.1-0.3-0.1-0.5-0.1-0.6
		c0-0.2,0-0.3,0-0.5s0.1-0.4,0.1-0.6s0-0.5,0-0.9c0.9-0.2,1.7-0.6,2.5-1s1.6-0.9,2.4-1.3s1.6-0.8,2.4-1.1
		C678.2,67.6,679,67.4,680,67.4z"/>
	<path class="st0" d="M671.3,59.8c-0.5-0.1-0.9-0.4-1.2-1c-0.3-0.5-0.4-1.1-0.4-1.8c0-0.6,0.1-1.1,0.4-1.7s0.6-0.9,1.2-1.2
		c0.2-0.1,0.5-0.2,0.7-0.3c0.3-0.1,0.5-0.2,0.8-0.2c0.1-0.4,0.2-0.8,0.3-1.2c0-0.5,0.1-1,0.1-1.5v-2.7c0-0.1,0-0.2,0-0.3
		c0-0.5,0-0.9,0.1-1.4c0-0.5,0.1-0.9,0.2-1.3c0.1-0.4,0.3-0.8,0.5-1.1s0.5-0.6,0.8-0.8c0.4-0.3,0.9-0.5,1.5-0.6s1.1-0.1,1.6-0.1
		c0.1,0,0.2,0,0.4,0c0.1,0,0.2,0,0.3,0c0.7,0.1,1.4,0.3,1.9,0.8c0.5,0.4,1,1,1.3,1.6s0.6,1.4,0.7,2.2s0.2,1.7,0.2,2.5
		s-0.1,1.6-0.2,2.4c-0.1,0.8-0.3,1.5-0.5,2.2c0,0.1,0,0.2,0,0.4s0.1,0.4,0.2,0.5c0.1,0.2,0.3,0.3,0.4,0.4c0.2,0.1,0.4,0.2,0.6,0.3
		s0.4,0.1,0.6,0.1c0.2,0,0.3,0,0.5,0s0.3,0,0.5,0c0.3,0.1,0.5,0.2,0.7,0.4s0.4,0.4,0.5,0.6c0.1,0.2,0.2,0.5,0.3,0.8s0.1,0.6,0.1,0.8
		c0,0.6-0.2,1.1-0.5,1.6s-0.7,0.7-1.2,0.7h-0.8c-0.1,0-0.2,0-0.3,0s-0.2,0-0.3,0c-1.1,0-2-0.1-2.7-0.2c-0.7-0.2-1.3-0.3-1.9-0.5
		s-1-0.4-1.4-0.7c-0.4-0.2-0.8-0.4-1.2-0.5c-0.2,0-0.5-0.1-0.8-0.1c-0.6,0-1.2,0.1-1.8,0.2s-1.3,0.4-2,0.6L671.3,59.8L671.3,59.8z
		 M674.5,50.1c0,0.1,0,0.2,0,0.3c0,0.3,0.1,0.6,0.2,0.8s0.3,0.4,0.6,0.6c0.2,0.2,0.5,0.3,0.8,0.4c0.3,0.1,0.6,0.1,1,0.1
		c0.3,0,0.7,0,1-0.1s0.6-0.2,0.9-0.4c0.3-0.2,0.5-0.4,0.6-0.7s0.3-0.6,0.3-1V50c-0.3-0.4-0.8-0.7-1.3-1c-0.6-0.2-1.1-0.3-1.7-0.3
		c-0.6,0-1.1,0.1-1.6,0.4C674.8,49.3,674.5,49.6,674.5,50.1z M675.8,33.9c0.9,0.1,1.6,0.3,2.2,0.6c0.6,0.3,1.1,0.7,1.6,1.2
		c0,0.8-0.1,1.5-0.3,2.2c-0.1,0.7-0.4,1.2-0.9,1.5h-0.3c-1.5,0-2.6-0.5-3.2-1.4c0-0.4,0.1-0.8,0.1-1.2s0-0.7,0.1-1.1
		c0-0.3,0.1-0.7,0.2-1C675.3,34.5,675.5,34.2,675.8,33.9z"/>
	<path class="st0" d="M687.3,35.1c0.4-0.5,0.9-0.9,1.4-1.2c0.6-0.3,1.1-0.6,1.7-0.9s1.2-0.6,1.7-0.9c0.5-0.3,1-0.8,1.3-1.3
		c-0.2-0.3-0.5-0.6-0.8-0.7s-0.7-0.2-1.1-0.2c-0.3,0-0.7,0-1,0.1c-0.4,0.1-0.7,0.2-1,0.3c-0.3,0.1-0.7,0.2-1,0.3
		c-0.3,0.1-0.6,0.2-0.8,0.3c-0.1-0.4-0.2-0.9-0.2-1.3c0-0.6,0.1-1.1,0.4-1.5c0.3-0.4,0.6-0.8,1-1.1s0.9-0.5,1.4-0.7s1.1-0.2,1.6-0.2
		c0.4,0,0.8,0,1.2,0.1s0.8,0.2,1.1,0.4c0.3,0.2,0.6,0.4,0.8,0.7c0.2,0.3,0.4,0.6,0.5,1c0.1,0.3,0.1,0.6,0.1,1c0,0.7-0.1,1.3-0.4,1.8
		c-0.3,0.5-0.6,1-1,1.5c-0.4,0.4-0.9,0.8-1.4,1.2c-0.5,0.3-1.1,0.6-1.7,0.8c-0.6,0.2-1.2,0.4-1.7,0.5s-1.1,0.2-1.6,0.2
		c-0.1,0-0.2,0-0.2,0L687.3,35.1z"/>
	<path class="st0" d="M684.5,61c-0.4,0-0.7-0.1-1-0.2s-0.6-0.3-0.8-0.6c-0.2-0.2-0.4-0.5-0.5-0.8s-0.2-0.6-0.2-0.9
		c0-0.3,0.1-0.6,0.2-0.9c0.1-0.3,0.3-0.5,0.5-0.8c0.2-0.2,0.5-0.4,0.8-0.5s0.7-0.2,1.1-0.2c0.6,0,1.2-0.1,1.9-0.2
		c0.7-0.1,1.4-0.3,2.1-0.5s1.2-0.5,1.7-0.8s0.7-0.7,0.7-1.1c0-0.2-0.1-0.5-0.2-0.8c-0.2-0.3-0.4-0.6-0.8-0.9c-0.1,0-0.2,0-0.3,0
		s-0.2,0-0.3,0c-0.3,0-0.5,0-0.8,0.1c-0.2,0.1-0.4,0.1-0.6,0.2c-0.2,0.1-0.4,0.1-0.6,0.2c-0.2,0.1-0.5,0.1-0.7,0.1
		c-0.1,0-0.2,0-0.2,0s-0.1,0-0.2,0c-0.1-0.4-0.2-0.8-0.2-1.2c0-0.5,0.1-1,0.2-1.6c0.1-0.5,0.3-1,0.4-1.4c0.5-0.2,1-0.4,1.6-0.6
		c0.6-0.2,1.2-0.4,1.8-0.5s1.3-0.3,2-0.3c0.7-0.1,1.4-0.1,2.1-0.1c1,0,1.9,0.1,2.7,0.3c0.9,0.2,1.6,0.5,2.2,1c0.1,0.5,0.2,1,0.2,1.4
		c0,0.5-0.1,1-0.2,1.5c-0.1,0.5-0.3,0.9-0.5,1.3c-0.2,0.4-0.4,0.8-0.7,1.2c-0.2,0.4-0.5,0.7-0.7,1.1c0.2,0.2,0.5,0.4,0.9,0.5
		c0.4,0.2,0.9,0.4,1.4,0.5c0.5,0.2,1,0.3,1.5,0.4c0.5,0.1,1,0.2,1.4,0.2h0.5c0.5,0,0.9,0.1,1.2,0.2c0.4,0.2,0.7,0.3,0.9,0.6
		c0.3,0.2,0.5,0.5,0.6,0.8s0.2,0.6,0.2,0.9c0,0.3-0.1,0.6-0.2,0.9c-0.2,0.3-0.4,0.5-0.7,0.7s-0.6,0.4-0.9,0.5
		c-0.4,0.1-0.7,0.2-1.1,0.3h-0.6c-1,0-1.8-0.1-2.5-0.2c-0.7-0.1-1.3-0.3-1.8-0.5s-1-0.4-1.3-0.7c-0.4-0.2-0.7-0.5-1-0.7
		s-0.6-0.4-1-0.5c-0.3-0.1-0.7-0.2-1.1-0.3h-0.2c-0.6,0-1.1,0.1-1.7,0.4c-0.5,0.3-1.1,0.6-1.7,0.9c-0.6,0.3-1.2,0.6-1.8,1
		c-0.6,0.3-1.3,0.5-2,0.5c-0.1,0-0.3,0-0.4,0c-0.1,0-0.3,0-0.4,0L684.5,61L684.5,61z M691.5,37.7c0.9,0.1,1.6,0.3,2.2,0.6
		c0.6,0.3,1.1,0.7,1.6,1.2c0,0.8-0.1,1.5-0.3,2.2c-0.1,0.7-0.4,1.2-0.9,1.5h-0.3c-1.5,0-2.6-0.5-3.2-1.4c0-0.4,0.1-0.8,0.1-1.2
		s0-0.7,0.1-1.1c0-0.3,0.1-0.7,0.2-1C691,38.3,691.2,38,691.5,37.7z M693.5,52c0.2,0,0.4-0.1,0.6-0.1c0.2-0.1,0.3-0.2,0.4-0.3
		c0-0.1,0.1-0.1,0.1-0.2c0-0.1,0-0.1,0-0.2c0-0.1,0-0.2-0.1-0.2s-0.2-0.1-0.4-0.1h-0.3c-0.1,0.1-0.1,0.2-0.2,0.4
		c0,0.1-0.1,0.3-0.1,0.5C693.5,51.9,693.5,52,693.5,52z"/>
	<path class="st0" d="M718,30.1c0,0.4,0,0.8,0,1c0,0.3-0.1,0.5-0.1,0.7c-0.1,0.2-0.2,0.4-0.3,0.6s-0.2,0.4-0.3,0.7
		c-0.8,0.2-1.6,0.5-2.4,0.9c-0.8,0.4-1.5,0.7-2.3,1.1s-1.5,0.7-2.3,1c-0.7,0.3-1.5,0.5-2.3,0.6c-0.1-0.3-0.1-0.5-0.1-0.6
		c0-0.2,0-0.3,0-0.5s0.1-0.4,0.1-0.6c0-0.2,0-0.5,0-0.9c0.9-0.2,1.7-0.6,2.5-1s1.6-0.9,2.4-1.3c0.8-0.4,1.6-0.8,2.4-1.1
		C716.2,30.3,717,30.1,718,30.1z"/>
	<path class="st0" d="M724,56.1c0.7,0.2,1.2,0.6,1.6,1s0.5,0.9,0.5,1.4s-0.2,1-0.5,1.4s-0.9,0.8-1.5,1h-1.6c-0.7,0-1.5-0.1-2.2-0.3
		c-0.8-0.2-1.5-0.5-2.2-0.9s-1.3-0.9-1.8-1.4s-0.9-1.1-1.2-1.8c-0.8,0.6-1.7,1.1-2.6,1.6c-0.9,0.5-1.9,0.9-3,1.3
		c-1,0.4-2.1,0.7-3.2,1c-1.1,0.3-2.2,0.4-3.3,0.5h-0.4c-0.6-0.2-1-0.6-1.2-1c-0.3-0.5-0.4-0.9-0.4-1.4s0.1-1,0.4-1.5
		s0.7-0.8,1.2-0.9h0.5c1.3-0.1,2.5-0.3,3.7-0.6s2.4-0.7,3.5-1.1c1.1-0.4,2.2-0.9,3.2-1.4s1.9-1,2.7-1.5c0.1,0.8,0.3,1.4,0.7,2
		s0.8,1.1,1.4,1.5c0.6,0.4,1.2,0.7,1.9,0.9s1.5,0.3,2.2,0.3L724,56.1L724,56.1z M719.8,47.4c-0.2,0-0.3,0.1-0.5,0.1
		c-0.1,0-0.3,0-0.4,0c-0.4,0-0.8-0.1-1.2-0.2c-0.4-0.2-0.7-0.3-1-0.5s-0.7-0.4-1-0.6c-0.4-0.2-0.8-0.3-1.2-0.4
		c-0.3,0-0.6,0.2-0.7,0.4s-0.3,0.5-0.4,0.7c-0.1,0.3-0.2,0.5-0.4,0.8c-0.1,0.2-0.4,0.4-0.7,0.5c-0.5,0-0.9-0.1-1.3-0.2
		c-0.4-0.1-0.7-0.2-1.1-0.4c-0.3-0.2-0.6-0.3-0.9-0.5c-0.3-0.2-0.6-0.4-0.9-0.5v-0.1c0-0.8,0.1-1.4,0.2-2s0.3-1.2,0.4-1.8l0.1-0.2
		c0.1,0,0.2,0,0.2,0c0.1,0,0.1,0,0.2,0c0.3,0,0.7,0.1,1.1,0.2c0.4,0.1,0.7,0.2,1.1,0.4s0.7,0.3,1.1,0.5c0.4,0.2,0.7,0.3,1,0.4
		c0.3,0,0.6-0.1,0.8-0.3s0.4-0.3,0.5-0.6c0.1-0.2,0.2-0.5,0.3-0.7c0.1-0.3,0.2-0.5,0.3-0.8c0.7,0,1.4,0.1,2,0.3s1.1,0.4,1.6,0.7
		c0.4,0.3,0.8,0.7,1,1.2c0.3,0.5,0.4,1,0.4,1.6C720.3,45.8,720.2,46.6,719.8,47.4z"/>
	<path class="st0" d="M731.3,42.1c0.4-0.5,0.9-0.9,1.4-1.2c0.6-0.3,1.1-0.6,1.7-0.9s1.2-0.6,1.7-0.9c0.5-0.3,1-0.8,1.3-1.3
		c-0.2-0.3-0.5-0.6-0.8-0.7c-0.3-0.1-0.7-0.2-1.1-0.2c-0.3,0-0.7,0-1,0.1c-0.4,0.1-0.7,0.2-1,0.3s-0.7,0.2-1,0.3s-0.6,0.2-0.8,0.3
		c-0.1-0.4-0.2-0.9-0.2-1.3c0-0.6,0.1-1.1,0.4-1.5c0.3-0.4,0.6-0.8,1-1.1s0.9-0.5,1.4-0.7s1.1-0.2,1.6-0.2c0.4,0,0.8,0,1.2,0.1
		s0.8,0.2,1.1,0.4s0.6,0.4,0.8,0.7s0.4,0.6,0.5,1c0.1,0.3,0.1,0.6,0.1,1c0,0.7-0.1,1.3-0.4,1.8c-0.3,0.5-0.6,1-1,1.5
		c-0.4,0.4-0.9,0.8-1.4,1.2c-0.5,0.3-1.1,0.6-1.7,0.8c-0.6,0.2-1.2,0.4-1.7,0.5s-1.1,0.2-1.6,0.2c-0.1,0-0.2,0-0.2,0L731.3,42.1z"/>
	<path class="st0" d="M723.5,61c-0.7-0.3-1.2-0.6-1.5-1.1s-0.5-0.9-0.5-1.4s0.2-1,0.5-1.4s0.8-0.8,1.5-1h0.9c0.6,0,1.3-0.2,1.9-0.6
		c0.6-0.3,1.3-0.8,1.9-1.2c0.6-0.5,1.2-1,1.8-1.6s1.1-1.1,1.5-1.6c0.3,0.3,0.6,0.6,0.9,1c0.2,0.4,0.5,0.7,0.7,1.1
		c0.3,0.4,0.5,0.7,0.8,0.9s0.7,0.4,1.2,0.4h0.3c0.4,0,0.7-0.2,0.9-0.4s0.4-0.5,0.6-0.8c0.2-0.3,0.3-0.6,0.5-1s0.4-0.7,0.6-1
		c0.5,0.1,0.9,0.3,1.2,0.7c0.3,0.3,0.6,0.7,0.8,1c0.3,0.4,0.6,0.7,0.9,1c0.3,0.3,0.8,0.4,1.4,0.4c0-0.1,0.1-0.2,0.1-0.4s0-0.3,0-0.5
		c0-0.3,0-0.6,0-0.9c0-0.3,0-0.7,0-1c0-0.5,0.1-0.9,0.2-1.2c0.1-0.4,0.4-0.6,0.8-0.7c0.5,0.5,1,1.3,1.2,2.2s0.4,1.9,0.4,2.9
		c0,0.6-0.1,1.2-0.2,1.8c-0.1,0.6-0.3,1.1-0.6,1.6s-0.6,0.8-1,1.1s-0.9,0.4-1.4,0.4h-0.2c-0.4,0-0.7-0.1-1-0.2s-0.5-0.3-0.6-0.5
		c-0.2-0.2-0.4-0.4-0.6-0.6c-0.2-0.2-0.5-0.4-0.8-0.6c-0.3,0.2-0.6,0.5-0.9,0.7c-0.3,0.3-0.6,0.5-0.9,0.7c-0.3,0.2-0.6,0.4-1,0.5
		c-0.3,0.1-0.7,0.2-1.1,0.2c-0.1,0-0.2,0-0.2,0h-0.2c-0.4-0.1-0.8-0.2-1-0.5s-0.4-0.5-0.6-0.7c-0.2-0.3-0.4-0.5-0.6-0.8
		c-0.2-0.3-0.5-0.5-0.8-0.7c-0.5,0.3-1,0.7-1.6,1.2s-1.2,0.8-1.9,1.2s-1.3,0.7-2,1C724.8,60.8,724.2,61,723.5,61z"/>
	<path class="st0" d="M755.3,24.5c0,0.4,0,0.8,0,1c0,0.3-0.1,0.5-0.1,0.7c-0.1,0.2-0.2,0.4-0.3,0.6s-0.2,0.4-0.3,0.7
		c-0.8,0.2-1.6,0.5-2.4,0.9c-0.8,0.4-1.5,0.7-2.3,1.1s-1.5,0.7-2.3,1c-0.7,0.3-1.5,0.5-2.3,0.6c-0.1-0.3-0.1-0.5-0.1-0.6
		c0-0.2,0-0.3,0-0.5s0.1-0.4,0.1-0.6s0-0.5,0-0.9c0.9-0.2,1.7-0.6,2.5-1s1.6-0.9,2.4-1.3c0.8-0.4,1.6-0.8,2.4-1.1
		C753.5,24.7,754.3,24.5,755.3,24.5z"/>
	<path class="st0" d="M748.7,35.9c0-0.5,0.1-0.9,0.1-1.3c0-0.3,0.1-0.6,0.1-0.7c0-0.2,0.1-0.3,0.1-0.3c0-0.1,0.1-0.1,0.1-0.1
		c0.1-0.1,0.2-0.2,0.2-0.2l0.2-0.1c0.1,0,0.2,0.1,0.4,0.2c0.5,0.5,1,0.9,1.6,1.4s1.2,1,1.7,1.6s1,1.2,1.4,1.9s0.6,1.5,0.6,2.5
		c0,0.2,0,0.4-0.1,0.7v0.1c0,0.3-0.1,0.5-0.2,0.5s-0.3,0.2-0.5,0.2c-0.2,0.1-0.4,0.1-0.5,0.2c-0.2,0.1-0.3,0.2-0.4,0.3
		c0.1,1.2,0.3,2.4,0.6,3.6c0.3,1.2,0.6,2.4,1,3.6s0.7,2.4,0.9,3.6c0.3,1.2,0.4,2.4,0.4,3.6c0,0.6,0,1.2-0.1,1.9
		c-0.1,0.6-0.2,1.2-0.5,1.9c-0.4-0.2-0.6-0.5-0.8-0.8s-0.3-0.6-0.4-0.9s-0.1-0.6-0.2-0.9c0-0.3-0.1-0.6-0.1-0.9
		c-0.1-0.8-0.3-1.6-0.5-2.5s-0.5-1.9-0.8-2.9s-0.6-2-0.9-3c-0.3-1-0.6-2-0.9-3c-0.2-0.8-0.4-1.5-0.7-2.3s-0.6-1.6-0.8-2.4
		c-0.3-0.8-0.5-1.7-0.7-2.5s-0.3-1.7-0.3-2.5L748.7,35.9L748.7,35.9z"/>
</g>
<g>
	<path class="st1" d="M34.7,104c-0.3,0.9-0.6,2-0.9,2.9c-1.1,0.6-2.8,0.8-4.6,0.8c-2.6,0-4-0.5-5.4-1.4l-1.8-1.1l0.3-0.5h5.2
		c2.8,0,4.9-0.2,7.1-0.9L34.7,104z"/>
	<path class="st1" d="M52.1,94.7c1.5,2.9,2.5,5.8,2.5,9.2c0,2.3-0.8,4.8-1.5,5.7c-2,2-4.9,3.4-7.5,3.4c-4.3,0-6.9-2.8-6.9-6.9
		c0-2.9,0.9-4.9,2-6.6l0.9,0.5c-0.8,1.4-1.2,3.2-1.2,4.1c0,1.8,0.6,3.1,1.5,4s2.6,1.5,4.3,1.5c1.8,0,4-0.9,5.5-2
		c0.9-0.8,1.5-1.4,1.5-1.8c0-1.5-0.3-2.9-0.8-4c-0.6-1.8-1.2-3.2-1.8-4.4c0.6-0.9,1.1-1.8,1.7-2.9L52.1,94.7z"/>
	<path class="st1" d="M71,104.8v2.9h-1.8c-0.2,1.4-0.8,3.2-1.7,4.6c-1.7,2.6-4.3,3.8-5.4,3.8c-2,0-4.3-0.9-6.4-2.3l0.5-0.8
		c0.9,0.5,2,0.8,3.4,0.8c2.3,0,4.3-1.1,6.3-3.1c1.1-1.1,1.8-2,2.1-3.2h-1.1c-4.6,0-6.9-1.5-6.9-4.6c0-1.5,0.5-2.8,1.1-3.7
		c0.9-1.2,2-2.1,3.5-2.1c2.1,0,4.1,2.9,4.9,7.5H71V104.8z M65.9,101.6c-0.8-0.8-1.5-1.2-2.5-1.2c-1.2,0-2.6,1.1-2.6,2
		c0,1.1,1.1,1.8,2.5,2.3c1.2,0.3,2.6,0.3,4,0.3C67.3,103.6,66.7,102.3,65.9,101.6z"/>
	<path class="st1" d="M71.5,104.8c1.8,0,3.4,0,4.4-0.5c0.8-0.3,1.2-0.6,1.2-0.9c0-1.1-1.1-3.2-2.3-5.5c0.6-0.9,1.1-1.8,1.7-2.6h0.2
		c1.1,1.8,2.3,4.6,2.3,6.9c0,1.7-0.6,3.1-1.5,4.1c-1.1,1.1-2.6,1.4-6.1,1.4H71c-1.2,0-1.5-0.9-1.5-1.5s0.3-1.4,1.5-1.4H71.5z
		 M76.4,109.8c-0.8,0.9-1.4,1.8-1.4,2.8c0,0.6,0.3,1.1,0.8,1.1h0.8c0.6,0,1.1,0.5,1.1,1.2c0,0.9-0.8,2-2,2s-2-1.2-2-2.8
		c0-1.8,0.9-3.4,2.5-4.9L76.4,109.8z"/>
	<path class="st1" d="M99,99.9c1.2,3.1,2.5,4.9,5.1,4.9h0.5v2.9h-0.5c-0.9,0-1.7-0.2-2.3-0.8h-0.2c0,0.3,0,0.6,0,0.8
		c0,1.1-0.3,2.5-0.9,3.5c-1.8,3.1-3.7,4.4-5.4,4.4c-1.7,0-3.8-0.8-5.7-1.7l0.3-0.8c0.6,0.3,1.4,0.5,2.6,0.5c3.1,0,7.1-3.4,7.5-6.7
		c-0.2-0.3-0.3-0.6-0.6-1.1c-0.9-1.2-1.4-2.3-2-3.4c0.5-1.1,0.9-1.8,1.2-2.6L99,99.9z"/>
	<path class="st1" d="M105,104.8c1.8,0,3.4,0,4.4-0.5c0.8-0.3,1.2-0.6,1.2-0.9c0-1.1-1.1-3.2-2.3-5.5c0.6-0.9,1.1-1.8,1.7-2.6h0.2
		c1.1,1.8,2.3,4.6,2.3,6.9c0,1.7-0.6,3.1-1.5,4.1c-1.1,1.1-2.6,1.4-6.1,1.4h-0.3c-1.2,0-1.5-0.9-1.5-1.5s0.3-1.4,1.5-1.4H105z
		 M109.2,112c0.9,0.6,1.8,1.5,2.8,2.5c-0.5,0.8-1.1,1.5-1.8,2.1c-0.9-0.8-1.7-1.5-2.6-2.3C107.9,113.4,108.5,112.6,109.2,112z"/>
	<path class="st1" d="M116.8,108c0.2-1.4,0.3-3.1,0.3-4.4v-2.1c0-4.1-0.5-10.1-0.8-13.9c0.6-0.8,1.5-1.7,2.1-2.5h0.2
		c0.5,4.9,0.6,10.6,0.6,15.8c0,1.4,0,2.8-0.2,3.7c0,1.2-0.6,2.1-2,3.7L116.8,108z"/>
	<path class="st1" d="M127.7,99.9c1.2,3.1,2.5,4.9,5.1,4.9h0.5v2.9h-0.5c-0.9,0-1.7-0.2-2.3-0.8h-0.2c0,0.3,0,0.6,0,0.8
		c0,1.1-0.3,2.5-0.9,3.5c-1.8,3.1-3.7,4.4-5.4,4.4c-1.7,0-3.8-0.8-5.7-1.7l0.3-0.8c0.6,0.3,1.4,0.5,2.6,0.5c3.1,0,7.1-3.4,7.5-6.7
		c-0.2-0.3-0.3-0.6-0.6-1.1c-0.9-1.2-1.4-2.3-2-3.4c0.5-1.1,0.9-1.8,1.2-2.6L127.7,99.9z"/>
	<path class="st1" d="M133.5,104.8c1.8,0,3.4,0,4.4-0.5c0.8-0.3,1.2-0.6,1.2-0.9c0-1.1-1.1-3.2-2.3-5.5c0.6-0.9,1.1-1.8,1.7-2.6h0.2
		c1.1,1.8,2.3,4.6,2.3,6.9c0,1.7-0.6,3.1-1.5,4.1c-1.1,1.1-2.6,1.4-6.1,1.4h-0.3c-1.2,0-1.5-0.9-1.5-1.5s0.3-1.4,1.5-1.4H133.5z
		 M137.8,112c0.9,0.6,1.8,1.5,2.8,2.5c-0.5,0.8-1.1,1.5-1.8,2.1c-0.9-0.8-1.7-1.5-2.6-2.3C136.6,113.4,137.2,112.6,137.8,112z"/>
	<path class="st1" d="M176,107.7h-5.2c-3.2,0-7.1-0.3-8.9-0.3c-2,0-3.7,0.5-5.1,1.4c-1.2,0.8-1.8,1.5-1.8,2.1c0,1.7,3.2,2.5,8,2.5
		c2.1,0,4.3,0,6.3-0.2c2,0,4.1-0.2,6.1-0.2v0.2c-0.6,0.8-1.4,1.7-2.1,2.5c-2.5,0-4.9,0-7.1,0.2c-1.7,0-3.2,0.2-4.8,0.2
		c-4.1,0-8.4-0.3-8.4-3.4c0-1.2,0.6-2.5,1.5-3.8c2.3-3.1,5.1-4.4,7.7-4.4c2,0,5.7,0.3,8.7,0.3h4.9v3.1h0.2V107.7z"/>
	<path class="st1" d="M189.9,83.3c-0.5,0.9-1.1,1.8-1.7,2.8c-1.2,0.3-2.5,0.6-3.7,1.1c-2.5,0.8-4.9,1.8-7.4,2.9v0.2l3.7,1.4
		l-0.6,1.1c3.5,2.8,5.8,5.7,5.8,8c0,2.1-0.6,3.8-1.4,4.6c-1.4,1.2-3.7,2.1-7.8,2.1H176c-1.2,0-1.5-0.9-1.5-1.5s0.3-1.4,1.5-1.4h1.4
		c2.3,0,4.4-0.2,6-1.2c0.8-0.5,1.2-0.9,1.2-1.2c0-1.1-0.8-2.1-1.5-3.4c-0.9-1.4-3.1-3.5-6.7-6.4c-0.6-0.5-0.8-1.4-0.8-2.1
		c0-0.5,0.2-1.1,0.5-1.5c0.3-0.5,0.6-0.9,1.7-1.4c2.6-1.4,6.9-2.8,12.1-4.4V83.3z"/>
	<path class="st1" d="M219.4,99c-1.1-1.2-3.4-3.1-6.7-5.5c-0.5-0.3-0.6-1.1-0.6-1.8c0-0.5,0.2-0.9,0.5-1.4c0.2-0.5,0.6-0.8,1.7-1.4
		c2.6-1.4,6.9-2.8,12.1-4.4l0.2,0.2c-0.5,0.9-1.1,1.8-1.7,2.8c-1.2,0.3-2.5,0.6-3.7,1.1c-2.5,0.8-4.9,1.8-7.5,2.9l0,0l3.8,1.1
		l-0.6,1.1c3.7,2.8,5.8,5.2,5.8,7.5c0,1.7-0.6,4-1.5,4.6c-2,1.5-6.1,2.3-10.3,2.3c-5.7,0-9.2-2.1-9.2-7.2c0-1.5,0.3-2.8,0.8-4
		l0.9,0.3c-0.2,0.8-0.3,1.5-0.3,2.3c0,3.7,2.9,5.7,8.3,5.7c3.2,0,7.8-0.6,9.8-2.3C221.2,101.6,220.4,100.2,219.4,99z M213.1,87.3
		c0.2-0.5,0.3-0.9,0.6-1.4c2.9-1.4,6.7-2.9,11.8-4.3l0,0l-0.8,1.4C219.7,84.6,216.1,85.9,213.1,87.3L213.1,87.3z"/>
	<path class="st1" d="M235,107.7h-0.3c-1.8,0-2.9-0.3-3.8-1.2c-1.4-1.4-1.4-3.1-1.4-6.3c0-4.3-0.3-8.7-0.6-13.5
		c0.8-0.8,1.5-1.5,2.1-2.1l0.2,0.2c0.3,4.9,0.3,10.7,0.3,16.2v1.2c0,1.4,0.8,2.1,1.7,2.5c0.6,0.2,1.2,0.3,1.4,0.3h0.3v2.8h0.1V107.7
		z"/>
	<path class="st1" d="M237.4,104.8c0.3-1.5,0.8-3.2,1.2-4.8c0.6-2.1,1.4-4.1,2.6-5.8h0.2c0.2,0.5,0.5,0.9,0.8,1.4
		c1.7,2.3,2.9,4.4,2.9,6.3c0,0.9-0.2,2-0.5,2.9h4.4v2.9h-0.5c-0.5,0-1.4,0-1.8-0.2h-0.2c0.6,0.9,0.9,2.1,0.9,3.1s-0.3,2-0.8,2.8
		c-0.6,1.1-2,2.1-3.4,2.1c-1.1,0-2.3-0.3-3.2-0.9c-1.8-1.2-3.1-3.5-3.1-5.8v-1.1c-0.5,0-1.2,0.2-1.8,0.2h-0.5
		c-1.2,0-1.5-0.9-1.5-1.5s0.3-1.4,1.5-1.4h2.6v-0.2H237.4z M239.9,110.8c1.2,1.4,2.9,2.3,4.3,2.3c0.9,0,1.4-0.5,1.4-1.1
		s-0.2-1.7-0.9-2.8c-0.8-0.9-1.8-1.7-3.7-1.7c-0.9,0-1.7,0-2.6,0.2C238.5,108.6,239.1,109.8,239.9,110.8z M242.2,104.5
		c1.1-0.3,1.5-0.8,1.5-1.1c0-1.4-1.4-3.4-2.8-5.4h-0.2c-0.8,2.3-1.5,4.6-2.1,6.9C240,104.8,241.3,104.8,242.2,104.5z"/>
	<path class="st1" d="M250.6,104.8c3.7,0,7.4-1.2,12-4.1v-0.2c-2.6-0.9-5.1-1.5-7.1-1.5c-1.2,0-2.3,0.5-2.9,1.1l0.3,1.1l-0.6,2h-0.2
		l-1.1-2.9c0.2-2.5,2.1-4,4.9-4c1.5,0,3.8,0.6,7.4,2c1.1,0.5,2.5,0.8,3.8,0.8h1.8l0,0l-1.2,2.3c-1.8,0-3.2,0.3-3.8,0.8l-3.8,2.5
		c-3.1,2-6.3,3.1-9.8,3.1h-1.2c-1.2,0-1.5-0.9-1.5-1.5s0.3-1.4,1.5-1.4h1.5L250.6,104.8L250.6,104.8z M257.4,111.1
		c0.9,0.6,1.8,1.5,2.8,2.5c-0.5,0.8-1.1,1.5-1.8,2.1c-0.9-0.8-1.7-1.5-2.6-2.3C256.1,112.4,256.8,111.7,257.4,111.1z"/>
	<path class="st1" d="M303.3,107.7h-5.2c-3.2,0-7.1-0.3-8.9-0.3c-2,0-3.7,0.5-5.1,1.4c-1.2,0.8-1.8,1.5-1.8,2.1c0,1.7,3.2,2.5,8,2.5
		c2.1,0,4.3,0,6.3-0.2c2,0,4.1-0.2,6.1-0.2v0.2c-0.6,0.8-1.4,1.7-2.1,2.5c-2.5,0-4.9,0-7.1,0.2c-1.7,0-3.2,0.2-4.8,0.2
		c-4.1,0-8.4-0.3-8.4-3.4c0-1.2,0.6-2.5,1.5-3.8c2.3-3.1,5.1-4.4,7.7-4.4c2,0,5.7,0.3,8.7,0.3h4.9v3.1h0.2V107.7z"/>
	<path class="st1" d="M317.3,83.3c-0.5,0.9-1.1,1.8-1.7,2.8c-1.2,0.3-2.5,0.6-3.7,1.1c-2.5,0.8-4.9,1.8-7.4,2.9v0.2l3.7,1.4
		l-0.6,1.1c3.5,2.8,5.8,5.7,5.8,8c0,2.1-0.6,3.8-1.4,4.6c-1.4,1.2-3.7,2.1-7.8,2.1h-0.9c-1.2,0-1.5-0.9-1.5-1.5s0.3-1.4,1.5-1.4h1.4
		c2.3,0,4.4-0.2,6-1.2c0.8-0.5,1.2-0.9,1.2-1.2c0-1.1-0.8-2.1-1.5-3.4c-0.9-1.4-3.1-3.5-6.7-6.4c-0.6-0.5-0.8-1.4-0.8-2.1
		c0-0.5,0.2-1.1,0.5-1.5c0.3-0.5,0.6-0.9,1.7-1.4c2.6-1.4,6.9-2.8,12.1-4.4L317.3,83.3z"/>
	<path class="st1" d="M336.5,96l1.5,3.1c0.6,1.1,1.1,2.3,1.1,4.3v2.5c0,2-1.1,4.1-2.9,6.3c-1.4,1.4-2.6,2-3.7,2
		c-1.7,0-3.5-0.6-5.8-1.7l0.3-0.8c0.8,0.2,1.5,0.5,2.5,0.5c3.2,0,6.4-2.8,8-6.1c0.2-0.5,0.3-0.8,0.3-0.9c0-0.5-0.2-0.8-0.3-1.2
		c-0.8-1.8-1.7-3.4-2.8-4.9C335.2,97.9,335.7,97,336.5,96L336.5,96z"/>
	<path class="st1" d="M358.4,107.7h-0.5c-2,0-3.7-0.9-4.6-3.7h-0.2c-0.2,0.9-0.6,1.5-1.7,2.1c-1.5,0.9-3.1,1.5-4.6,1.5
		c-2.5,0-4-1.5-4-4.1c0-0.6,0-1.1,0-1.7h0.9c0.2,1.8,1.1,3.1,3.2,3.1c1.2,0,2.6-0.5,3.7-1.1c0.8-0.5,1.5-1.1,1.5-1.7
		c0-1.5-0.8-4.6-1.8-8.4c0.5-0.8,1.1-1.5,1.5-2.3l0.2,0.2c0.8,3.2,1.5,6.7,2.1,10c0.5,2.3,1.8,3.4,3.5,3.4h0.5v2.8h0.3V107.7z"/>
	<path class="st1" d="M358.8,104.8c1.7,0,3.5-0.8,3.8-2l0.6-2.5l1.5-1.1l0.2,0.2c-0.3,1.1-0.5,2.1-0.5,2.6c0,0.8,0.2,1.4,0.8,1.8
		c0.8,0.6,1.5,0.9,2.8,0.9h0.5v2.9H368c-2.1,0-3.8-0.6-4.6-2.3h-0.2c-0.8,1.5-2.6,2.3-4.4,2.3h-0.5c-1.2,0-1.5-0.9-1.5-1.5
		s0.3-1.4,1.5-1.4C358.4,104.8,358.8,104.8,358.8,104.8z M362.8,91.1c0.9,0.6,1.8,1.5,2.8,2.5c-0.5,0.8-1.1,1.5-1.8,2.1
		c-0.9-0.8-1.7-1.5-2.6-2.3C361.6,92.7,362.2,91.9,362.8,91.1z"/>
	<path class="st1" d="M369.1,104.8c2.3,0,3.1-1.2,3.8-3.4c0.9-2.8,2.6-4.3,4.1-4.3c1.1,0,2,0.5,2.8,1.5c0.6,0.8,1.1,1.7,2.3,4.3
		c0.5,1.1,1.7,1.8,3.5,1.8h0.3v2.9h-0.5c-1.4,0-2.5-0.5-3.5-2l0,0c-0.2,0.8-0.3,1.4-0.8,1.7c-0.5,0.5-0.9,0.8-1.5,0.8
		c-1.7,0-4.6-1.2-6.4-3.2H373c-0.6,1.4-2,2.6-4.4,2.6h-0.3c-1.2,0-1.5-0.9-1.5-1.5s0.3-1.4,1.5-1.4h0.8L369.1,104.8L369.1,104.8z
		 M376.8,104.5c1.1,0.6,2.3,0.9,3.1,0.9c0.5,0,0.8,0,0.8-0.6c0-0.9-0.6-2.1-1.1-3.1c-0.9-1.4-1.8-2-2.9-2c-1.2,0-2.1,0.9-2.6,2
		C374.3,102.6,375.7,103.9,376.8,104.5z"/>
	<path class="st1" d="M404,98c0.3,1.7,0.3,3.1,0.3,4c0,1.1-0.5,2.3-0.8,3.1c-0.9,1.4-2,2.5-3.4,2.5c-0.9,0-2-0.8-2.8-1.8h-0.2
		c-1.1,1.1-2.3,2-4,2c-1.2,0-2-0.6-2.1-1.8l0,0c-1.4,1.5-3.2,1.8-4.8,1.8H386c-1.2,0-1.5-0.9-1.5-1.5s0.3-1.4,1.5-1.4h0.8
		c2,0,3.7-0.6,4.8-2.1l1.2-1.8l1.7-0.6l0.2,0.2c-0.9,1.4-1.5,2.6-1.5,3.2c0,0.8,0.5,1.1,1.2,1.1c0.6,0,1.4-0.2,2-0.6
		c0.8-0.6,0.9-1.2,1.5-3.5l1.4-0.8l0.2,0.2c-0.2,0.8-0.3,1.5-0.3,2.1c0,1.7,1.2,2.6,2.3,2.6c0.6,0,1.2-0.3,1.2-1.1
		c0-0.9-0.3-2.3-0.6-3.7C402.5,99.3,403.3,98.5,404,98L404,98z"/>
	<path class="st1" d="M433.2,107.7h-0.5c-3.4,0-5.5-1.4-6.4-4.9c-0.2-0.6-0.5-0.8-1.1-0.8c-1.2,0-3.4,0.6-5.8,2.1
		c-1.1,0.6-2.1,1.4-2.8,2l-0.2-0.2l1.7-3.4c3.1-2.3,5.7-3.5,7.7-3.5c1.2,0,1.7,0.8,1.8,1.8c0.2,0.9,0.5,1.5,0.9,2.1
		c0.8,1.1,2,1.8,4,1.8h0.5v2.8h0.2V107.7z"/>
	<path class="st1" d="M434.5,104.8c3.7,0,7.4-1.2,12-4.1v-0.2c-2.6-0.9-5.1-1.5-7.1-1.5c-1.2,0-2.3,0.5-2.9,1.1l0.3,1.1l-0.6,2H436
		l-1.1-2.9c0.2-2.5,2.1-4,4.9-4c1.5,0,3.8,0.6,7.4,2c1.1,0.5,2.5,0.8,3.8,0.8h1.8l0,0l-1.2,2.3c-1.8,0-3.2,0.3-3.8,0.8l-3.8,2.5
		c-3.1,2-6.3,3.1-9.8,3.1H433c-1.2,0-1.5-0.9-1.5-1.5s0.3-1.4,1.5-1.4h1.5V104.8z M440.4,114.6c-0.9-0.9-1.7-1.5-2.6-2.3
		c0.6-0.8,1.2-1.5,1.8-2.1c0.9,0.8,1.7,1.5,2.6,2.5C441.6,113.4,441.1,114,440.4,114.6z M443.6,119c-0.9-0.9-1.7-1.5-2.6-2.3
		c0.6-0.8,1.2-1.5,1.8-2.1c0.9,0.8,1.7,1.5,2.6,2.5C444.7,117.8,444.2,118.4,443.6,119z M444.8,114.3c-0.9-0.9-1.7-1.5-2.6-2.3
		c0.6-0.8,1.2-1.5,1.8-2.1c0.9,0.8,1.7,1.5,2.6,2.5C445.9,113.1,445.4,113.7,444.8,114.3z"/>
	<path class="st1" d="M460.8,99.9c1.2,3.1,2.5,4.9,5.1,4.9h0.5v2.9h-0.5c-0.9,0-1.7-0.2-2.3-0.8h-0.2c0,0.3,0,0.6,0,0.8
		c0,1.1-0.3,2.5-0.9,3.5c-1.8,3.1-3.7,4.4-5.4,4.4c-1.7,0-3.8-0.8-5.7-1.7l0.3-0.8c0.6,0.3,1.4,0.5,2.6,0.5c3.1,0,7.1-3.4,7.5-6.7
		c-0.2-0.3-0.3-0.6-0.6-1.1c-0.9-1.2-1.4-2.3-2-3.4c0.5-1.1,0.9-1.8,1.2-2.6L460.8,99.9z"/>
	<path class="st1" d="M480.2,84.2c-0.5,0.9-1.1,1.8-1.7,2.8c-1.2,0.3-2.5,0.6-3.7,1.1c-2.5,0.8-4.9,1.8-7.5,2.9v0.3l3.8,1.1
		l-0.6,1.1c3.7,2.8,5.8,5.1,5.8,7.4c0,2.1-0.6,3.8-1.4,4.6c-1.4,1.2-3.7,2.1-7.8,2.1h-0.9c-1.2,0-1.5-0.9-1.5-1.5s0.3-1.4,1.5-1.4
		h1.4c2.3,0,4.4-0.2,6-1.2c0.8-0.5,1.2-0.9,1.2-1.2c0-1.1-0.8-2.3-1.7-3.4c-1.1-1.2-3.5-3.1-6.7-5.5c-0.5-0.3-0.6-1.1-0.6-1.8
		c0-0.5,0.2-0.9,0.5-1.4c0.2-0.5,0.6-0.8,1.7-1.4C470.6,87.5,474.9,85.9,480.2,84.2L480.2,84.2z M466.9,87.3
		c0.2-0.5,0.3-0.9,0.6-1.4c2.9-1.4,6.7-2.9,11.8-4.3l0,0l-0.8,1.4C473.5,84.6,470,85.9,466.9,87.3L466.9,87.3z"/>
	<path class="st1" d="M483.1,108c0.2-1.4,0.3-3.1,0.3-4.4v-2.1c0-4.1-0.5-10.1-0.8-13.9c0.6-0.8,1.5-1.7,2.1-2.5h0.2
		c0.5,4.9,0.6,10.6,0.6,15.8c0,1.4,0,2.8-0.2,3.7c0,1.2-0.6,2.1-2,3.7L483.1,108z"/>
	<path class="st1" d="M502.9,92.8l0.3-0.2c1.4,1.4,5.7,3.8,6.4,6.4c0.3,0.9,0.3,1.7,0.3,2.5c0,1.4-0.5,3.4-1.2,4.1
		c-1.4,1.5-3.1,2.1-4.6,2.1c-1.1,0-2-0.2-2.8-0.6c-1.5-1.1-2.3-2.8-2.3-5.1c0-1.5,0.8-3.2,1.4-4.3c0.5-0.9,1.2-1.8,2.3-2.9
		C502.7,94.4,502.9,93.6,502.9,92.8z M500.5,101.9c0,1.7,1.8,3.1,3.8,3.1c1.4,0,2.5-0.5,3.5-1.2c0.8-0.5,0.9-1.1,0.9-1.5
		c0-0.8-0.6-1.7-1.2-2.5c-0.9-1.1-2.3-2.1-3.7-2.9C501.8,98.5,500.5,100.2,500.5,101.9z"/>
	<path class="st1" d="M517.6,96l1.5,3.1c0.6,1.1,1.1,2.3,1.1,4.3v2.5c0,2-1.1,4.1-2.9,6.3c-1.4,1.4-2.6,2-3.7,2
		c-1.7,0-3.5-0.6-5.8-1.7l0.3-0.8c0.8,0.2,1.5,0.5,2.5,0.5c3.2,0,6.4-2.8,8-6.1c0.2-0.5,0.3-0.8,0.3-0.9c0-0.5-0.2-0.8-0.3-1.2
		c-0.8-1.8-1.7-3.4-2.8-4.9C516.4,97.9,516.9,97,517.6,96L517.6,96z"/>
	<path class="st1" d="M530.2,107.7h-0.3c-1.8,0-2.9-0.3-3.8-1.2c-1.4-1.4-1.4-3.1-1.4-6.3c0-4.3-0.3-8.7-0.6-13.5
		c0.8-0.8,1.5-1.5,2.1-2.1l0.2,0.2c0.3,4.9,0.3,10.7,0.3,16.2v1.2c0,1.4,0.8,2.1,1.7,2.5c0.6,0.2,1.2,0.3,1.4,0.3h0.3v2.8h0.1V107.7
		z"/>
	<path class="st1" d="M530.6,104.8c1.2,0,2.6-0.3,3.7-0.6c-0.8-1.2-0.8-2.3-0.8-3.4c0-1.7,0.5-3.7,2-5.4c1.2-1.2,2.6-2.1,3.4-2.1
		c0.8,0,1.8,0.9,2.6,2.5c0.6,1.1,0.9,2.1,0.9,3.2c0,2.1-0.6,3.7-1.5,5.2c0.9,0.3,2,0.5,3.5,0.5h0.8v2.9h-0.8c-2.3,0-4.4-0.5-7.4-1.4
		c-2.9,1.1-4.9,1.4-6.4,1.4h-0.5c-1.2,0-1.5-0.9-1.5-1.5s0.3-1.4,1.5-1.4h0.5V104.8z M541.2,100.8c0-0.8-0.3-1.5-0.6-2
		c-0.6-1.2-1.4-2-2.3-2c-1.7,0-3.5,2.1-3.8,3.8c0.3,1.4,1.1,2.5,3.1,3.1C539.1,103.3,541.2,101.7,541.2,100.8z M537.5,85.8
		c0.9,0.6,1.8,1.5,2.8,2.5c-0.5,0.8-1.1,1.5-1.8,2.1c-0.9-0.8-1.7-1.5-2.6-2.3C536.3,87.3,536.9,86.5,537.5,85.8z"/>
	<path class="st1" d="M559.2,83.3c-0.5,0.9-1.1,1.8-1.7,2.8c-1.2,0.3-2.5,0.6-3.7,1.1c-2.5,0.8-4.9,1.8-7.4,2.9v0.2l3.7,1.4
		l-0.6,1.1c3.5,2.8,5.8,5.7,5.8,8c0,2.1-0.6,3.8-1.4,4.6c-1.4,1.2-3.7,2.1-7.8,2.1h-0.9c-1.2,0-1.5-0.9-1.5-1.5s0.3-1.4,1.5-1.4h1.4
		c2.3,0,4.4-0.2,6-1.2c0.8-0.5,1.2-0.9,1.2-1.2c0-1.1-0.8-2.1-1.5-3.4c-0.9-1.4-3.1-3.5-6.7-6.4c-0.6-0.5-0.8-1.4-0.8-2.1
		c0-0.5,0.2-1.1,0.5-1.5s0.6-0.9,1.7-1.4c2.6-1.4,6.9-2.8,12.1-4.4L559.2,83.3z"/>
	<path class="st1" d="M592.7,107.7h-5.2c-3.2,0-7.1-0.3-8.9-0.3c-2,0-3.7,0.5-5.1,1.4c-1.2,0.8-1.8,1.5-1.8,2.1c0,1.7,3.2,2.5,8,2.5
		c2.1,0,4.3,0,6.3-0.2c2,0,4.1-0.2,6.1-0.2v0.2c-0.6,0.8-1.4,1.7-2.1,2.5c-2.5,0-4.9,0-7.1,0.2c-1.7,0-3.2,0.2-4.8,0.2
		c-4.1,0-8.4-0.3-8.4-3.4c0-1.2,0.6-2.5,1.5-3.8c2.3-3.1,5.1-4.4,7.7-4.4c2,0,5.7,0.3,8.7,0.3h4.9v3.1h0.2V107.7z"/>
	<path class="st1" d="M610.8,98c0.3,1.7,0.3,3.1,0.3,4c0,1.1-0.5,2.3-0.8,3.1c-0.9,1.4-2,2.5-3.4,2.5c-0.9,0-2-0.8-2.8-1.8h-0.2
		c-1.1,1.1-2.3,2-4,2c-1.2,0-2-0.6-2.1-1.8h-0.2c-1.4,1.5-3.2,1.8-4.8,1.8h-0.5c-1.2,0-1.5-0.9-1.5-1.5s0.3-1.4,1.5-1.4h0.8
		c2,0,3.7-0.6,4.8-2.1l1.2-1.8l1.7-0.6l0.2,0.2c-0.9,1.4-1.5,2.6-1.5,3.2c0,0.8,0.5,1.1,1.2,1.1c0.6,0,1.4-0.2,2-0.6
		c0.8-0.6,0.9-1.2,1.5-3.5l1.4-0.8l0.2,0.2c-0.2,0.8-0.3,1.5-0.3,2.1c0,1.7,1.2,2.6,2.3,2.6c0.6,0,1.2-0.3,1.2-1.1
		c0-0.9-0.3-2.3-0.6-3.7C609.3,99.3,609.9,98.5,610.8,98L610.8,98z"/>
	<path class="st1" d="M637.8,94.7c1.5,2.9,2.5,5.8,2.5,9.2c0,2.3-0.8,4.8-1.5,5.7c-2,2-4.9,3.4-7.5,3.4c-4.3,0-6.9-2.8-6.9-6.9
		c0-2.9,0.9-4.9,2-6.6l0.9,0.5c-0.8,1.4-1.2,3.2-1.2,4.1c0,1.8,0.6,3.1,1.5,4s2.6,1.5,4.3,1.5c1.8,0,4-0.9,5.5-2
		c0.9-0.8,1.5-1.4,1.5-1.8c0-1.5-0.3-2.9-0.8-4c-0.6-1.8-1.2-3.2-1.8-4.4c0.6-0.9,1.1-1.8,1.7-2.9L637.8,94.7z"/>
	<path class="st1" d="M656.8,104.8v2.9H655c-0.2,1.4-0.8,3.2-1.7,4.6c-1.7,2.6-4.3,3.8-5.4,3.8c-2,0-4.3-0.9-6.4-2.3l0.5-0.8
		c0.9,0.5,2,0.8,3.4,0.8c2.3,0,4.3-1.1,6.3-3.1c1.1-1.1,1.8-2,2.1-3.2h-1.1c-4.6,0-6.9-1.5-6.9-4.6c0-1.5,0.5-2.8,1.2-3.7
		c0.9-1.2,2-2.1,3.5-2.1c2.1,0,4.1,2.9,4.9,7.5h1.4V104.8z M651.6,101.6c-0.8-0.8-1.5-1.2-2.5-1.2c-1.2,0-2.6,1.1-2.6,2
		c0,1.1,1.1,1.8,2.5,2.3c1.2,0.3,2.6,0.3,4,0.3C653,103.6,652.3,102.3,651.6,101.6z"/>
	<path class="st1" d="M657.1,104.8c1.8,0,3.4,0,4.4-0.5c0.8-0.3,1.2-0.6,1.2-0.9c0-1.1-1.1-3.2-2.3-5.5c0.6-0.9,1.1-1.8,1.7-2.6h0.2
		c1.1,1.8,2.3,4.6,2.3,6.9c0,1.7-0.6,3.1-1.5,4.1c-1.1,1.1-2.6,1.4-6.1,1.4h-0.3c-1.2,0-1.5-0.9-1.5-1.5s0.3-1.4,1.5-1.4H657.1z
		 M662,109.8c-0.8,0.9-1.4,1.8-1.4,2.8c0,0.6,0.3,1.1,0.8,1.1h0.8c0.6,0,1.1,0.5,1.1,1.2c0,0.9-0.8,2-2,2s-2-1.2-2-2.8
		c0-1.8,0.9-3.4,2.5-4.9L662,109.8z"/>
	<path class="st1" d="M674.6,107.7h-0.3c-1.8,0-2.9-0.3-3.8-1.2c-1.4-1.4-1.4-3.1-1.4-6.3c0-4.3-0.3-8.7-0.6-13.5
		c0.8-0.8,1.5-1.5,2.1-2.1l0.2,0.2c0.3,4.9,0.3,10.7,0.3,16.2v1.2c0,1.4,0.8,2.1,1.7,2.5c0.6,0.2,1.2,0.3,1.4,0.3h0.3v2.8h0.1V107.7
		z"/>
	<path class="st1" d="M675,104.8c1.7,0,3.5-0.8,3.8-2l0.6-2.5l1.5-1.1l0.2,0.2c-0.3,1.1-0.5,2.1-0.5,2.6c0,0.8,0.2,1.4,0.8,1.8
		c0.8,0.6,1.5,0.9,2.8,0.9h0.5v2.9h-0.5c-2.1,0-3.8-0.6-4.6-2.3h-0.2c-0.8,1.5-2.6,2.3-4.4,2.3h-0.5c-1.2,0-1.5-0.9-1.5-1.5
		s0.3-1.4,1.5-1.4C674.6,104.8,675,104.8,675,104.8z M679,91.1c0.9,0.6,1.8,1.5,2.8,2.5c-0.5,0.8-1.1,1.5-1.8,2.1
		c-0.9-0.8-1.7-1.5-2.6-2.3C677.8,92.7,678.4,91.9,679,91.1z"/>
	<path class="st1" d="M698.6,84.2c-0.5,0.9-1.1,1.8-1.7,2.8c-1.2,0.3-2.5,0.6-3.7,1.1c-2.5,0.8-4.9,1.8-7.5,2.9v0.3l3.8,1.1
		l-0.6,1.1c3.7,2.8,5.8,5.1,5.8,7.4c0,2.1-0.6,3.8-1.4,4.6c-1.4,1.2-3.7,2.1-7.8,2.1h-0.9c-1.2,0-1.5-0.9-1.5-1.5s0.3-1.4,1.5-1.4
		h1.4c2.3,0,4.4-0.2,6-1.2c0.8-0.5,1.2-0.9,1.2-1.2c0-1.1-0.8-2.3-1.7-3.4c-1.1-1.2-3.5-3.1-6.7-5.5c-0.5-0.3-0.6-1.1-0.6-1.8
		c0-0.5,0.2-0.9,0.5-1.4c0.2-0.5,0.6-0.8,1.7-1.4C689.1,87.5,693.4,85.9,698.6,84.2L698.6,84.2z M685.3,87.3
		c0.2-0.5,0.3-0.9,0.6-1.4c2.9-1.4,6.7-2.9,11.8-4.3l0,0l-0.8,1.4C691.9,84.6,688.4,85.9,685.3,87.3L685.3,87.3z"/>
	<path class="st1" d="M715.5,103.9c-2.5,0-3.7,1.1-3.7,1.7c0,2.3,1.7,6.6,2.9,11.3c0.2,0.5,0.3,1.4,0.3,2c0,1.1-0.3,2.3-0.5,3.4H714
		c0-2.6-1.8-7.2-3.2-12c-0.2-0.8-0.5-1.8-0.5-2.6c0-1.1,0.2-2,0.6-2.9c0.5-1.2,1.1-2.3,2-2.9c-0.2-0.9-0.3-2.1-0.3-2.9
		c0-0.9,0.6-2.1,1.2-2.8c0.6-0.6,1.4-0.9,2.1-0.9c1.1,0,2,0.3,2.9,0.9c1.4,1.2,2.6,2.6,3.4,4.4c0.2,0.5,0.3,0.9,0.3,1.4
		c0,0.8-0.5,1.7-0.8,2.5C719.5,104,717.5,103.9,715.5,103.9z M719.9,101.3c-1.2-1.7-2.6-3.4-4.8-3.4c-0.5,0-0.9,0.2-1.4,0.3v1.2
		c-0.2,0.8-0.3,1.7-0.6,2.1c0.8-0.3,1.8-0.5,3.1-0.5c0.8,0,2.3,0.2,3.5,0.5L719.9,101.3z"/>
	<path class="st1" d="M732.2,107.7h-0.3c-1.8,0-2.9-0.3-3.8-1.2c-1.4-1.4-1.4-3.1-1.4-6.3c0-4.3-0.3-8.7-0.6-13.5
		c0.8-0.8,1.5-1.5,2.1-2.1l0.2,0.2c0.3,4.9,0.3,10.7,0.3,16.2v1.2c0,1.4,0.8,2.1,1.7,2.5c0.6,0.2,1.2,0.3,1.4,0.3h0.3v2.8h0.1V107.7
		z"/>
	<path class="st1" d="M732.5,104.8c2,0,3.7-0.5,5.5-2c0.3-2.3,1.2-4.4,3.1-6c1.5-1.4,3.1-2.1,4.8-2.1s3.1,0.9,3.1,2.3
		c0,0.8-0.2,1.5-0.5,2.3h-0.2c-0.6-1.1-1.5-1.7-2.8-1.7c-1.1,0-2,0.3-3.1,0.9c-1.4,0.9-2.3,2-2.6,3.4l0,0c0.8-0.3,1.5-0.6,2.3-0.6
		c1.2,0,2.3,0.5,2.9,1.2c0.8,0.8,1.1,1.8,1.1,2.8c0,0.9-0.2,1.7-0.6,2.5c-0.8,1.5-2,2.1-3.1,2.1c-1.2,0-2.3-0.6-3.2-1.5
		c-0.6-0.8-1.2-1.7-1.2-2.9h-0.2c-1.5,1.7-3.4,2.1-5.4,2.1h-0.2c-1.2,0-1.5-0.9-1.5-1.5s0.3-1.4,1.5-1.4h0.2v0.1H732.5z
		 M743.1,107.4c0.8,0,1.2-0.2,1.4-0.6c0-1.5-1.4-2.9-3.2-2.9c-0.6,0-1.2,0.2-1.7,0.5C740,106,741.5,107.4,743.1,107.4z M742.9,92.7
		c-0.9-0.9-1.7-1.5-2.6-2.3c0.6-0.8,1.2-1.5,1.8-2.1c0.9,0.8,1.7,1.5,2.6,2.5C744,91.5,743.5,92.1,742.9,92.7z M747.2,92.4
		c-0.9-0.9-1.7-1.5-2.6-2.3c0.6-0.8,1.2-1.5,1.8-2.1c0.9,0.8,1.7,1.5,2.6,2.5C748.3,91.1,747.8,91.8,747.2,92.4z"/>
</g>
<g>
	<path class="st0" d="M33.8,144.3h-0.3c-1.3,0-2.4-0.6-3-2.4l0,0c-0.1,0.6-0.4,1-1.1,1.4c-1,0.6-2,1-3,1c-1.6,0-2.6-1-2.6-2.7
		c0-0.4,0-0.7,0-1.1h0.6c0.1,1.2,0.7,2,2.1,2c0.8,0,1.7-0.3,2.4-0.7c0.5-0.3,1-0.8,1-1.1c0-1-0.5-3-1.2-5.5c0.3-0.5,0.7-1,1-1.5
		l0.1,0.1c0.5,2.1,1,4.4,1.4,6.5c0.3,1.5,1.2,2.2,2.3,2.2h0.2L33.8,144.3L33.8,144.3z"/>
	<path class="st0" d="M37.5,136.2c0.7,1.2,1.5,3,1.5,4.5c0,1.1-0.4,2-1,2.7c-0.7,0.7-1.7,0.9-4,0.9h-0.2c-0.8,0-1-0.6-1-1
		s0.2-0.9,1-0.9h0.3c1.2,0,2.2,0,2.9-0.3c0.5-0.2,0.8-0.4,0.8-0.6c0-0.7-0.7-2.1-1.5-3.6C36.7,137.2,37,136.7,37.5,136.2L37.5,136.2
		z M38.8,133c-0.2,0.4-0.4,0.7-0.6,1c-1.5,0.2-2.7,0.6-3.8,1.1l0,0l0.4-0.6c0.1-0.2,0.4-0.4,0.7-0.5l0,0c-0.7-0.2-1.1-0.6-1.1-1.3
		c0-0.4,0.3-0.9,0.7-1.3c0.6-0.5,1.2-0.8,1.8-0.8s0.9,0.3,0.9,0.7s-0.2,0.7-0.5,1l0,0c-0.2-0.3-0.3-0.5-0.5-0.6c-0.1,0-0.3,0-0.5,0
		c-0.5,0-1,0.3-1,0.5c0,0.7,1.2,0.9,2.1,0.9C37.8,133,38.3,133,38.8,133L38.8,133z"/>
	<path class="st0" d="M41.9,144.5c0.1-0.9,0.2-2,0.2-2.9v-1.4c0-2.7-0.3-6.6-0.5-9.1c0.4-0.5,1-1.1,1.4-1.6h0.1
		c0.3,3.2,0.4,6.9,0.4,10.3c0,0.9,0,1.8-0.1,2.4c0,0.8-0.4,1.4-1.3,2.4L41.9,144.5z"/>
	<path class="st0" d="M49.8,142.7c-1.7,0-3.2-0.8-3.2-2.8c0-1,0.4-1.8,0.9-2.5c0.7-0.7,1.4-1.2,2.1-1.2c0.9,0,1.6,0.6,2.2,1.7
		c0.6,1,0.9,2.4,0.9,4c0,1.4-0.3,2.7-1.1,3.9c-1.3,2-2.6,2.8-3.8,2.8c-1.4,0-2.7-0.4-4.2-1.4l0.2-0.5c0.7,0.4,1.4,0.5,2.1,0.5
		c1.5,0,3-0.7,4.3-2.2c0.7-0.7,1.3-1.6,1.4-2.5C51.1,142.7,50.5,142.7,49.8,142.7z M49.2,138.1c-0.7,0-1.6,0.8-1.6,1.3
		c0,0.9,1.3,1.6,2.5,1.6c0.6,0,1.1-0.1,1.7-0.2C51.3,139.3,50.4,138.1,49.2,138.1z"/>
	<path class="st0" d="M58.7,139.2c0.8,2,1.6,3.2,3.3,3.2h0.3v1.9H62c-0.6,0-1.1-0.1-1.5-0.5h-0.1c0,0.2,0,0.4,0,0.5
		c0,0.7-0.2,1.6-0.6,2.3c-1.2,2-2.4,2.9-3.5,2.9s-2.5-0.5-3.7-1.1l0.2-0.5c0.4,0.2,0.9,0.3,1.7,0.3c2,0,4.6-2.2,4.9-4.4
		c-0.1-0.2-0.2-0.4-0.4-0.7c-0.6-0.8-0.9-1.5-1.3-2.2c0.3-0.7,0.6-1.2,0.8-1.7H58.7z M57.4,134.1c0.6,0.4,1.2,1,1.8,1.6
		c-0.3,0.5-0.7,1-1.2,1.4c-0.6-0.5-1.1-1-1.7-1.5C56.6,135.1,57,134.6,57.4,134.1z"/>
	<path class="st0" d="M62.6,142.4c0.5,0,1-0.1,1.6-0.4c0.5-0.3,0.8-0.8,0.8-1.6c0-2.4-0.2-4.9-0.4-7.6c-0.1-0.7-0.1-1.3-0.1-1.8
		c0-0.3,0.1-0.7,0.4-1c0.2-0.2,0.5-0.5,0.8-0.8l0.1,0.1c0,1,0.4,2.1,1.2,3.4c-0.3,0.3-0.6,0.5-0.9,0.7c0.1,1.7,0.2,3.5,0.2,5.1
		s-0.2,2.8-0.6,3.7c-0.3,0.8-0.7,1.4-1.3,1.7c-0.6,0.3-1.3,0.4-1.8,0.4h-0.2c-0.8,0-1-0.6-1-1s0.2-0.9,1-0.9L62.6,142.4L62.6,142.4z
		"/>
	<path class="st0" d="M69.5,144.5c0.1-0.9,0.2-2,0.2-2.9v-1.4c0-2.7-0.3-6.6-0.5-9.1c0.4-0.5,1-1.1,1.4-1.6h0.1
		c0.3,3.2,0.4,6.9,0.4,10.3c0,0.9,0,1.8-0.1,2.4c0,0.8-0.4,1.4-1.3,2.4L69.5,144.5z"/>
	<path class="st0" d="M84.9,142.4c-2.6,1.3-4.3,2.7-4.3,4.3c0,2.5,2.7,4.2,6.7,4.2c1.5,0,2.8-0.2,3.7-0.4l0.1,0.3
		c-0.7,0.6-1.6,1.1-2.5,1.6c-0.5,0.3-1.3,0.4-2.5,0.4c-3.6,0-6.6-1.7-6.6-5.5c0-2.6,2-4.6,4.1-5.9c-0.6-0.5-1.2-1.2-1.7-1.7
		c-0.4-0.3-0.7-0.7-1-0.7c-0.2,0-0.5,0.1-0.7,0.2l-0.1-0.1l0.6-1.6l0.7-0.1c1.1-0.3,2.5-0.5,3.9-0.5c1.7,0,3.1,0.2,4.2,0.7l-0.4,1.7
		l-2.8,2.4v0.1c1,0.5,2.3,0.8,3.5,0.8h0.9v1.9H90C88.4,144.3,86.5,143.5,84.9,142.4L84.9,142.4z M85.2,140.8c1-0.6,2.1-1.2,3-2.1
		v-0.1c-0.8-0.2-1.8-0.3-2.8-0.3c-1.3,0-2,0.1-2.8,0.3v0.1c0.3,0.2,0.8,0.6,1.1,0.9C84.2,140,84.6,140.4,85.2,140.8L85.2,140.8z"/>
	<path class="st0" d="M91.2,142.4c1.5,0,2-0.8,2.5-2.2c0.6-1.8,1.7-2.8,2.7-2.8c0.7,0,1.3,0.3,1.8,1c0.4,0.5,0.7,1.1,1.5,2.8
		c0.3,0.7,1.1,1.2,2.3,1.2h0.3v1.9H102c-0.9,0-1.6-0.3-2.3-1.3h-0.1c-0.1,0.5-0.2,0.9-0.5,1.1c-0.3,0.3-0.6,0.5-1,0.5
		c-1.1,0-3-0.8-4.2-2.1h-0.1c-0.4,0.9-1.3,1.7-2.9,1.7h-0.2c-0.8,0-1-0.6-1-1s0.2-0.9,1-0.9h0.5C91.2,142.3,91.2,142.4,91.2,142.4z
		 M96.2,142.2c0.7,0.4,1.5,0.6,2,0.6c0.3,0,0.5,0,0.5-0.4c0-0.6-0.4-1.4-0.7-2c-0.6-0.9-1.2-1.3-1.9-1.3c-0.8,0-1.4,0.6-1.7,1.3
		C94.6,141,95.5,141.8,96.2,142.2z"/>
	<path class="st0" d="M111,139.7c-1.7-0.6-3.3-1-4.6-1c-0.8,0-1.5,0.3-1.9,0.7l0.2,0.7l-0.4,1.3h-0.1l-0.7-1.9
		c0.1-1.6,1.4-2.6,3.2-2.6c1,0,2.5,0.3,4.8,1.3c0.7,0.3,1.6,0.5,2.5,0.5h1.3l0,0l-0.9,1.5c-1.2,0-2,0.3-2.5,0.6l-2.5,1.6
		c-2,1.3-4.1,2-6.5,2h-0.7c-0.8,0-1-0.6-1-1s0.2-0.9,1-0.9h0.9C105.5,142.4,107.9,141.6,111,139.7L111,139.7z M107.6,146.5
		c0.6,0.4,1.2,1,1.8,1.6c-0.3,0.5-0.7,1-1.2,1.4c-0.6-0.5-1.1-1-1.7-1.5C106.8,147.4,107.2,146.9,107.6,146.5z M112.6,140.7
		L112.6,140.7c0.1,1.3,1.1,1.7,2.6,1.7h0.4v1.9h-0.5c-1.9,0-3.2-0.7-3.2-2.4c0-0.3,0-0.5,0-0.8L112.6,140.7z"/>
	<path class="st0" d="M116,142.4c1.1,0,1.9-0.7,2.5-2.6c0.2-0.6,0.5-1.2,1.1-1.8c0.5-0.5,1.1-0.9,1.9-0.9c1.8,0,2.9,2.5,3.1,5
		c-0.3,1.3-0.9,1.9-1.6,1.9c-1.5,0-2.9-0.7-4.4-1.7h-0.1c-0.4,1.3-1.2,1.9-2.5,1.9h-0.3c-0.8,0-1-0.6-1-1s0.2-0.9,1-0.9h0.3V142.4z
		 M121.1,141.8c0.6,0.2,1.2,0.4,1.7,0.4c0.2,0,0.4,0,0.5-0.2c-0.4-2.2-1.4-3.2-2.3-3.2c-0.8,0-1.5,0.5-2,1.4
		C119.5,141,120.2,141.5,121.1,141.8z"/>
</g>
<g>
	<path class="st0" d="M322,181l0.2-0.6c3.1-5,6.5-7.7,10.6-7.5c0.6,0,1.3,0.4,2.5,1c1.2,0.6,1.9,0.8,2.7,0.8c0.4,0,0.6,0,1-0.2
		c1-0.2,2.1-0.8,3.5-1.9c1.3-1.5,2.5-2.3,3.1-2.7c0.4-0.2,1,0,1.7,0.4c0.8,0.4,1.2,0.6,1.5,0.6c0.4,0,0.8-0.2,1.2-0.6
		c0.4-0.6,1.2-1.3,2.1-2.5c0.2,0,0.4,0,0.6,0.2c-0.2,1.5-1.3,3.1-3.3,4.8c-1,0.8-1.9,1-2.9,0.8c-0.2,0-0.6-0.2-1-0.4
		c-0.4-0.2-0.8-0.4-1.2-0.4c-0.2,0.2-1.2,1.2-3.5,3.3c-1.3,1.3-2.7,2.3-3.8,2.7c-0.8,0.6-1.7,0.8-2.7,0.8c-1.5,0-3.1-0.4-4.4-1.3
		c-0.4-0.2-1-0.2-1.3-0.2c-1.7,0-3.6,1.2-5.8,3.5C322.1,181.2,322,181,322,181z M333.3,185.8l2.1-2.3l0.4,0.2c1.2,1,2.5,2.1,3.8,3.1
		v0.4c-0.6,1-1.7,2.1-3.3,3.6c-0.6,0.2-1.3-0.2-2.3-1c-0.6-0.4-1.2-1-2.1-1.9C331.9,187.3,332.3,186.8,333.3,185.8z M340.2,160.5
		l3.5-3.8h0.4c1.3,1.3,2.7,2.5,3.6,3.1c0,0.2,0,0.2,0.2,0.2c0.6-0.8,1.5-1.7,2.7-3.1h0.4c0.8,0.8,1.9,1.7,3.6,3.1
		c0.2,0.2,0.2,0.4,0,0.8l-3.1,3.3c-0.2,0.2-0.4,0.2-0.6,0.2c-0.2,0-0.4,0-0.8-0.2c-0.6-0.4-0.8-0.4-0.8-0.4c-1.3-1-2.1-1.7-2.5-2.5
		c-0.6,0.8-1.5,1.5-2.9,2.9c-0.6-0.2-1.3-0.4-1.9-1s-1.2-1-1.7-1.5C340.4,161,340.2,160.7,340.2,160.5z"/>
	<path class="st0" d="M382.4,157.2l0.6,0.2c1,0.4,1.9,1,2.9,1.3c1.2,0.6,1.7,1.5,1.7,2.5c0,1-0.4,2.1-1.3,3.1
		c-0.8,1-1.7,1.5-2.7,1.9c-2.3,0.4-3.5,0.4-3.6,0.4c-1.3,0.4-2.3,0.8-3.1,1.7c-1.7,1.5-3.5,3.6-5.2,6.7c-2.3,3.8-4,6.1-4.6,7.1
		c-2.1,2.7-5.4,5-9.6,6.9c-0.4,0.2-1,0.2-1.2,0.2c-0.2-0.2-0.2-0.2-0.2-0.4c1-0.6,2.1-1.5,3.8-2.7c4.4-3.3,7.1-6.3,8.4-9.2
		c1.5-3.6,2.7-6,3.5-7.1c1.5-2.5,3.3-4.6,5.4-6l2.5-1.5c0.4-0.8,1-1.7,1.3-2.7C381.3,158.6,381.9,157.8,382.4,157.2z"/>
	<path class="st0" d="M413.1,164.9c0.4-0.4,0.8-0.4,1.3,0c0.8,0.6,1.5,1.2,2.5,1.9c0.4,0.2,0.6,0.4,0.6,0.6c0,0.2-0.4,0.8-1.3,1.7
		l-1.5,1.7c-0.6,0-1,0-1.3-0.4c-0.4-0.2-1-0.8-1.7-1.7c-0.4-0.4-0.8-0.8-0.8-0.8c0-0.2,0.4-0.6,1.3-1.5
		C412.8,165.3,413.1,164.9,413.1,164.9z"/>
	<path class="st0" d="M426.4,179.9c0.4-0.4,0.6-0.6,0.6-0.6s0.4,0.2,0.8,0.6c1.3,1.3,2.5,2.1,3.5,2.7c0,0,0.2-0.2,0.6-0.6
		c1.3-1.5,2.1-2.3,2.3-2.5c0,0,0.2,0.2,0.6,0.4c1.2,1,2.3,1.9,3.3,2.7c0,0,0,0.2,0,0.4c0,0.2-0.4,0.6-1,1.3l-0.4,0.4
		c-1.2,1.3-1.7,2.1-1.9,2.1c0,0-0.2,0-0.4,0c-0.6,0-1.3-0.4-2.3-1.3c-0.8-0.6-1.2-1.2-1.3-1.5c-0.2-0.2-0.2-0.2-0.2-0.4
		c0,0-0.6,0.4-1.3,1.3c-0.8,1-1.3,1.3-1.3,1.5c-0.4,0-0.8,0-1.2-0.2c-0.8-0.4-1.5-1-2.3-1.7c-0.6-0.6-1-1-1-1.2
		C423.5,183.1,424.5,182,426.4,179.9z"/>
	<path class="st0" d="M434.7,137c0.8-1.2,1.9-2.5,3.3-3.8c0.2-0.2,0.6,0,0.8,0.4c1.3,1.2,2.5,2.1,3.5,2.9c0,0,0.2-0.2,0.6-0.4
		c1-1.2,1.9-2.1,2.5-2.5c0,0,0.2,0.2,0.4,0.4c1,0.8,1.9,1.5,2.9,2.5l0.6,0.4v0.2c0,0.2-0.6,1-1.5,2.1l-0.6,0.8
		c-0.6,0.8-1,1.2-1.2,1.2c-0.2,0-0.4,0-0.6,0c-1.3-0.6-2.5-1.5-3.5-2.9c0-0.2-0.2-0.2-0.2-0.2s-0.6,0.4-1.3,1.3
		c-0.8,1-1.2,1.3-1.3,1.3c-0.4,0.2-0.8,0.2-1.3-0.2c-0.6-0.2-1.2-0.8-1.7-1.3l-0.4-0.4C435,137.6,434.7,137.2,434.7,137z"/>
	<path class="st0" d="M425.8,155.1c0,0.6,0.4,0.8,1.2,0.8c1.7,0.2,3.3-0.2,4.4-1.3c0.6-0.4,1-1,1.3-1.7c0.2-0.6,0.4-1.3,0.6-2.5
		c0.2-1.3,0.6-2.7,1-4c0.2-0.8,0.4-1.2,0.6-1.3c0.2-0.2,0.4-0.2,0.6-0.2c0,0,0,0.4,0.2,1.2c0,2.1,0.6,3.5,1.7,4.2c1.5,1,2.9,1,3.6,0
		c0.4-0.6,1-1.2,1.5-1.3c0.2,0,0.4,0,0.4,0.2l-0.2,0.6c-0.8,2.9-2.5,5-4.8,6.7c-0.8,0.4-1.3,0.6-1.9,0.4c-0.8-0.2-1.5-0.8-2.1-1.3
		c-0.2-0.2-0.2-0.2-0.2-0.2c-0.4,1-1.2,1.7-1.7,2.5c-1.2,1.3-2.9,1.9-5,1.9v0.8c0,2.1-0.2,3.8-0.4,5.2c-1.2,7.3-4.2,13.1-9,17.3
		c-1.9,1.5-4,2.5-6.3,2.7c-1,0.2-2.1,0.2-3.1,0c-2.9-0.8-4.6-2.7-5.6-5.4c-0.8-3.3-0.8-6.5-0.2-10.2c0.6-2.9,1.3-5.2,2.3-7.1
		c0.2-0.4,0.4-0.6,0.6-0.6c0.2,0,0.4,0.2,0.4,0.6c0,0.2,0,0.6-0.2,1.3c-0.8,2.9-1.3,5-1.3,6.9c-0.2,1.9,0.2,3.5,0.6,4.8
		c0.6,1.5,1.7,2.5,3.5,3.1c3.1,0.6,6,0.4,8.6-1c3.3-1.7,5.6-4.4,7.1-7.9c1.2-2.7,1.5-5.8,1.2-9.2c-0.2-1.9-0.2-3.3,0-4
		c0.2-0.4,0.2-0.8,0.6-1.3C425.8,155.3,425.8,155.1,425.8,155.1C425.6,154.5,425.8,154.7,425.8,155.1z"/>
</g>
</svg>
