<?xml version="1.0" encoding="utf-8"?>
<!-- Generator: Adobe Illustrator 19.2.1, SVG Export Plug-In . SVG Version: 6.00 Build 0)  -->
<svg version="1.1" id="Layer_1_copy" xmlns="http://www.w3.org/2000/svg" xmlns:xlink="http://www.w3.org/1999/xlink" x="0px"
	 y="0px" viewBox="0 0 771 539" style="enable-background:new 0 0 771 539;" xml:space="preserve">
<style type="text/css">
	.st0{fill:#F7931E;}
	.st1{fill:#FFFF00;}
</style>
<g>
	<path class="st0" d="M291.7,270.2c0.6-0.7,1.3-1.3,2-1.7c0.8-0.4,1.5-0.8,2.4-1.3s1.7-0.8,2.4-1.3c0.7-0.4,1.4-1.1,1.8-1.8
		c-0.3-0.4-0.7-0.8-1.1-1s-1-0.3-1.5-0.3c-0.4,0-1,0-1.4,0.1c-0.6,0.1-1,0.3-1.4,0.4c-0.4,0.1-1,0.3-1.4,0.4
		c-0.4,0.1-0.8,0.3-1.1,0.4c-0.1-0.6-0.3-1.3-0.3-1.8c0-0.8,0.1-1.5,0.6-2.1c0.4-0.6,0.8-1.1,1.4-1.5c0.6-0.4,1.3-0.7,2-1
		c0.7-0.1,1.5-0.3,2.2-0.3c0.6,0,1.1,0,1.7,0.1s1.1,0.3,1.5,0.6s0.8,0.6,1.1,1s0.6,0.8,0.7,1.4c0.1,0.4,0.1,0.8,0.1,1.4
		c0,1-0.1,1.8-0.6,2.5c-0.4,0.7-0.8,1.4-1.4,2.1c-0.6,0.6-1.3,1.1-2,1.7c-0.7,0.6-1.5,0.8-2.4,1.1c-0.8,0.3-1.7,0.6-2.4,0.7
		c-0.7,0.1-1.5,0.3-2.2,0.3c-0.1,0-0.3,0-0.3,0S291.8,270.2,291.7,270.2z"/>
	<path class="st0" d="M311,275c0.4,0.4,0.8,1.1,1.1,1.8c0.3,0.7,0.7,1.5,0.8,2.4c0.3,0.8,0.4,1.8,0.6,2.7c0.1,1,0.1,2,0.1,2.8
		c0,1.4-0.1,2.7-0.4,3.9c-0.3,1.3-0.7,2.2-1.3,2.9c-0.8,0.4-1.8,0.6-2.7,0.6c-1.1,0-2-0.3-2.9-0.7c-0.8-0.4-1.7-1-2.4-1.7
		c-0.6,0.4-1.1,0.7-1.7,1.3c-0.6,0.4-1,0.8-1.5,1.3c-0.6,0.4-1.1,0.7-1.8,1c-0.7,0.3-1.5,0.4-2.4,0.4h-0.4c0,1.7-0.3,3.4-0.7,4.9
		c-0.4,1.5-1,3.1-1.7,4.3c-0.7,1.4-1.7,2.7-2.7,3.6c-1,1.1-2.1,2-3.4,2.8c-1.5,1-3.4,1.7-5.5,2.2c-2.1,0.6-4.2,0.8-6.6,0.8
		c-1.4,0-2.7-0.1-3.9-0.4c-1.3-0.3-2.5-0.7-3.6-1.3c-1.3-0.7-2.5-1.5-3.5-2.7c-1-1.1-1.8-2.4-2.5-3.6c-0.7-1.3-1.3-2.8-1.5-4.5
		c-0.4-1.5-0.6-3.2-0.6-4.8c0-1.4,0.1-2.8,0.4-4.1c0.3-1.4,0.7-2.7,1.3-3.8c0.6-1.1,1.3-2.2,2.2-3.2c0.8-1,2-1.8,3.1-2.5
		c-0.6,1.1-1,2.1-1.5,3.1c-0.6,1-1.1,2-1.5,2.9s-0.8,2-1.1,2.9s-0.4,2.1-0.4,3.4c0,2.1,0.4,3.8,1.3,5.2c0.8,1.4,2,2.5,3.2,3.4
		c1.4,0.8,2.8,1.5,4.6,1.8c1.7,0.4,3.4,0.6,5.2,0.6c1.5,0,2.9-0.1,4.5-0.4c1.5-0.3,2.8-0.7,4.1-1.3c0.8-0.4,1.5-0.8,2.2-1.4
		c0.7-0.6,1.4-1.1,2-1.8c0.6-0.7,1.3-1.4,1.8-2.1c0.6-0.7,1.3-1.5,1.8-2.2v-0.4c0-1.1-0.1-2.1-0.6-2.9c-0.4-0.8-0.8-1.8-1.3-2.7
		c-0.4-0.8-0.8-1.7-1.3-2.5c-0.4-0.8-0.6-1.7-0.6-2.5c0-0.6,0.1-1,0.3-1.5c0.1-0.6,0.4-1.1,0.8-1.7c0.3,0.6,0.7,1.1,1.3,1.7
		s1.1,1.1,1.7,1.7c0.6,0.4,1.3,0.8,2,1.3c0.7,0.3,1.4,0.4,2.2,0.4c0.6,0,1.1-0.1,1.8-0.3c0.7-0.1,1.3-0.6,1.8-1.1
		c0.1-0.3,0.3-0.6,0.3-1c0-0.4,0.1-0.7,0.1-1.1c0-0.4,0.1-0.7,0.1-1.1c0-0.4,0.3-0.6,0.4-0.8c0.7,0.1,1.4,0.4,1.8,0.8
		c0.6,0.4,1,0.8,1.4,1.3c0.4,0.4,1,0.8,1.5,1.1c0.6,0.3,1.3,0.6,2.2,0.6c0.1,0,0.4,0,0.6,0c0.1,0,0.4,0,0.6,0
		c0.1-0.4,0.3-0.8,0.3-1.4c0-0.8-0.1-1.8-0.3-2.8c-0.3-1-0.3-2-0.3-2.8c0-0.6,0-1,0.1-1.5C310.6,275.8,310.7,275.4,311,275z"/>
	<path class="st0" d="M338.3,291.2c0.8,0,1.5,0.1,2.1,0.4c0.6,0.3,1,0.6,1.4,0.8c0.4,0.3,0.7,0.7,0.8,1.1c0.1,0.4,0.3,0.8,0.3,1.1
		c0,0.4-0.1,0.8-0.4,1.3c-0.3,0.4-0.6,0.7-1,1.1c-0.4,0.4-0.8,0.6-1.4,0.7s-1.1,0.3-1.7,0.3h-1.8c-2.1,0-3.8-0.3-5.3-0.7
		c-1.4-0.4-2.7-1.1-3.6-2c-1-0.8-1.8-2.1-2.4-3.4c-0.6-1.4-1.1-2.9-1.4-4.9c-0.4-2.2-0.8-4.6-1.4-7c-0.4-2.4-0.8-4.9-1.3-7.6
		c-0.1-1.3-0.4-2.5-0.7-3.8c-0.3-1.3-0.6-2.7-0.8-3.9c-0.3-1.3-0.6-2.5-0.7-3.8c-0.1-1.3-0.3-2.5-0.3-3.6c0-1,0.1-2,0.3-2.8
		c0.1-0.8,0.4-1.8,1-2.5c0.8-0.3,1.5-0.4,2.4-0.4c1,0,2,0.1,2.8,0.6c0.8,0.4,1.5,1,2.2,1.7s1.3,1.4,1.7,2.4c0.4,0.8,0.8,1.8,1.1,2.7
		c-0.6,0-1.1-0.1-1.7-0.4c-0.4-0.3-1-0.6-1.4-0.8c-0.4-0.3-0.8-0.6-1.3-0.8s-1-0.4-1.4-0.4c-0.3,0-0.7,0-1.1,0.1
		c-0.1,0.4-0.3,1-0.4,1.5c-0.1,0.6-0.1,1.1-0.1,1.8c0,1.3,0.1,2.5,0.4,3.9c0.3,1.4,0.6,2.8,0.8,4.3s0.7,2.9,1,4.5s0.7,3.1,0.8,4.5
		c0,0.3,0.1,0.6,0.1,0.8s0.1,0.6,0.1,0.7c0.1,1.3,0.4,2.5,0.6,3.6c0.1,1.1,0.4,2.1,0.7,3.1c0.3,1,0.7,1.7,1.1,2.5
		c0.4,0.7,1.1,1.4,1.8,1.8c0.7,0.4,1.7,0.8,2.7,1.1c1.1,0.3,2.4,0.4,3.8,0.4h1.5V291.2z"/>
	<path class="st0" d="M358.3,245.6c0,0.6,0,1.1,0,1.4c0,0.4-0.1,0.7-0.1,1c-0.1,0.3-0.3,0.6-0.4,0.8c-0.1,0.3-0.3,0.6-0.4,1
		c-1.1,0.3-2.2,0.7-3.4,1.3s-2.1,1-3.2,1.5s-2.1,1-3.2,1.4c-1,0.4-2.1,0.7-3.2,0.8c-0.1-0.4-0.1-0.7-0.1-0.8c0-0.3,0-0.4,0-0.7
		c0-0.3,0.1-0.6,0.1-0.8c0-0.3,0-0.7,0-1.3c1.3-0.3,2.4-0.8,3.5-1.4s2.2-1.3,3.4-1.8s2.2-1.1,3.4-1.5
		C355.8,245.9,357.1,245.6,358.3,245.6z"/>
	<path class="st0" d="M353.3,256.9c-0.1,0.4-0.1,0.7-0.1,1.1c0,0.4,0,0.7,0,1.1c0,0.6,0,1,0.1,1.4c0.1,0.4,0.3,0.8,0.4,1.3
		c0.3,0.4,0.6,0.7,0.8,0.8c0.4,0.1,0.8,0.3,1.4,0.3c0.1,0,0.3,0,0.3,0s0.1,0,0.3,0c0.1-0.3,0.3-0.6,0.4-0.7s0.1-0.6,0.1-0.8
		l-0.4-3.1c0-0.3,0-0.6,0.1-0.8c0.1-0.3,0.3-0.6,0.4-0.8c0.7,0.6,1.3,1.3,1.7,2.1c0.4,0.8,0.6,1.8,0.6,2.8c0,0.6-0.1,1.3-0.3,1.8
		c-0.1,0.6-0.4,1.1-0.7,1.5c-0.3,0.4-0.7,0.8-1.1,1.1c-0.4,0.3-1,0.4-1.5,0.4c-0.4,0-0.8,0-1.3-0.1c-0.4-0.1-1-0.4-1.5-0.7
		c-1.1,0.8-2.1,1.3-3.2,1.3c-0.7,0-1.3-0.1-1.8-0.4c-0.6-0.3-1-0.6-1.4-1s-0.7-1-1-1.5c-0.3-0.6-0.4-1.1-0.4-1.8
		c0-0.6,0.1-1.3,0.4-1.8c0.3-0.7,0.7-1.3,1.3-1.8c0,0.4,0.1,1,0.1,1.7c0,0.6,0,1.1,0.1,1.7c0.1,0.6,0.3,1,0.6,1.4s0.7,0.6,1.1,0.6
		c0.6,0,1-0.1,1.3-0.3c0.3-0.3,0.6-0.6,0.7-0.8c0.1-0.4,0.3-0.8,0.3-1.3c0-0.4,0-1,0-1.4v-0.1c0-0.4,0-0.7,0-1.1c0-0.3,0-0.7,0.1-1
		c0.1-0.3,0.1-0.4,0.3-0.7c0.1-0.1,0.4-0.3,0.7-0.3C352.3,256.7,352.7,256.8,353.3,256.9z"/>
	<path class="st0" d="M367.7,291.2c1,0.3,1.7,0.8,2.2,1.4c0.4,0.6,0.7,1.3,0.7,2c0,0.7-0.3,1.4-0.7,2c-0.4,0.7-1.3,1.1-2.1,1.4h-2.2
		c-1,0-2.1-0.1-3.1-0.4c-1.1-0.3-2.1-0.7-3.1-1.3c-1-0.6-1.8-1.3-2.5-2c-0.7-0.7-1.3-1.5-1.7-2.5c-1.1,0.8-2.4,1.5-3.6,2.2
		c-1.3,0.7-2.7,1.3-4.2,1.8c-1.4,0.6-2.9,1-4.5,1.4c-1.5,0.4-3.1,0.6-4.6,0.7h-0.6c-0.8-0.3-1.4-0.8-1.7-1.4c-0.3-0.6-0.6-1.3-0.6-2
		c0-0.7,0.1-1.4,0.6-2.1c0.4-0.7,1-1.1,1.7-1.3h0.7c1.8-0.1,3.5-0.4,5.2-0.8s3.4-1,4.9-1.5c1.5-0.6,3.1-1.3,4.5-2
		c1.4-0.7,2.7-1.4,3.8-2.1c0.1,1.1,0.4,2,1,2.8s1.1,1.5,2,2.1c0.8,0.6,1.7,1,2.7,1.3c1,0.3,2.1,0.4,3.1,0.4h2.2V291.2z M354.1,272.6
		c1.3,0.1,2.2,0.4,3.1,0.8c0.8,0.4,1.5,1,2.2,1.7c0,1.1-0.1,2.1-0.4,3.1c-0.3,1-0.6,1.7-1.3,2.1h-0.4c-2.1,0-3.6-0.7-4.5-2
		c0-0.6,0.1-1.1,0.1-1.7s0-1,0.1-1.5c0-0.4,0.1-1,0.3-1.4C353.6,273.5,353.7,273,354.1,272.6z"/>
	<path class="st0" d="M367.4,291.2c1.5-0.1,2.8-0.4,3.8-0.7s1.8-0.7,2.5-1.3c0.7-0.4,1.1-1.1,1.4-1.7c0.3-0.7,0.4-1.4,0.4-2.2
		c0-0.4,0-1,0-1.3s-0.1-0.7-0.1-1.1c-0.1-0.4-0.1-0.8-0.3-1.4c-0.1-0.6-0.4-1.1-0.7-1.8c-0.4-1.4-1-2.7-1.5-3.9s-1.1-2.7-1.7-3.9
		c-0.6-1.3-1-2.7-1.3-3.9c-0.3-1.3-0.6-2.5-0.6-3.8c0-0.8,0.1-1.7,0.3-2.5c0.1-0.8,0.6-1.7,1-2.4c0.7,0.6,1.4,1.1,2.1,1.8
		c0.7,0.7,1.3,1.4,2,2c0.7,0.7,1.4,1.3,2.1,1.7c0.7,0.4,1.5,0.7,2.4,0.8c0.1,0.4,0.1,1,0.3,1.7c0,0.7,0.1,1.3,0.1,2
		c0,0.6,0,1.1-0.1,1.5c0,0.6-0.1,1-0.3,1.3c-0.1,0-0.3,0-0.4,0c-0.1,0-0.3,0-0.4,0c-0.4,0-0.7,0-1-0.1c-0.3-0.1-0.6-0.3-0.7-0.4
		c-0.1-0.1-0.4-0.3-0.7-0.4s-0.6-0.3-0.8-0.3c0.4,1.4,1,2.8,1.4,4.3c0.4,1.5,0.8,3.1,1.4,4.8c0.1,0.7,0.3,1.4,0.4,2
		c0.1,0.6,0.1,1.1,0.3,1.5c0,0.6,0.1,1,0.1,1.5c0,0.6,0,1.1,0,1.8c0,1.4-0.1,2.8-0.6,4.2c-0.4,1.4-1,2.5-1.8,3.6
		c-0.8,1.1-2.1,2-3.5,2.5c-1.4,0.6-3.2,1-5.5,1c-0.6,0-1-0.1-1.4-0.3s-0.7-0.4-1-0.8c-0.3-0.3-0.4-0.7-0.7-1.1
		c-0.1-0.4-0.3-0.8-0.3-1.3c0-0.4,0-0.8,0.1-1.3c0.1-0.4,0.3-0.7,0.6-1.1c0.3-0.3,0.6-0.6,1-0.7S366.9,291.2,367.4,291.2z"/>
	<path class="st0" d="M384.4,263c0-0.7,0.1-1.3,0.1-1.8c0-0.4,0.1-0.8,0.1-1c0-0.3,0.1-0.4,0.1-0.4c0-0.1,0.1-0.1,0.1-0.1
		c0.1-0.1,0.3-0.3,0.3-0.3c0.1-0.1,0.3-0.1,0.3-0.1c0.1,0,0.3,0.1,0.6,0.3c0.7,0.7,1.4,1.3,2.2,2c0.8,0.7,1.7,1.4,2.4,2.2
		c0.7,0.8,1.4,1.7,2,2.7c0.6,1,0.8,2.1,0.8,3.5c0,0.3,0,0.6-0.1,1v0.1c0,0.4-0.1,0.7-0.3,0.7s-0.4,0.3-0.7,0.3s-0.6,0.1-0.7,0.3
		c-0.3,0.1-0.4,0.3-0.6,0.4c0.1,1.7,0.4,3.4,0.8,5c0.4,1.7,0.8,3.4,1.4,5c0.4,1.7,1,3.4,1.3,5c0.4,1.7,0.6,3.4,0.6,5
		c0,0.8,0,1.7-0.1,2.7c-0.1,0.8-0.3,1.7-0.7,2.7c-0.6-0.3-0.8-0.7-1.1-1.1c-0.3-0.4-0.4-0.8-0.6-1.3c-0.1-0.4-0.1-0.8-0.3-1.3
		c0-0.4-0.1-0.8-0.1-1.3c-0.1-1.1-0.4-2.2-0.7-3.5c-0.3-1.3-0.7-2.7-1.1-4.1c-0.4-1.4-0.8-2.8-1.3-4.2s-0.8-2.8-1.3-4.2
		c-0.3-1.1-0.6-2.1-1-3.2c-0.4-1.1-0.8-2.2-1.1-3.4c-0.4-1.1-0.7-2.4-1-3.5c-0.3-1.1-0.4-2.4-0.4-3.5L384.4,263L384.4,263z"/>
	<path class="st0" d="M404.4,251.8c0.3-0.7,0.7-1.3,1.3-1.7c0.6-0.4,1.1-0.7,1.8-1c0.7-0.3,1.3-0.7,1.8-1c0.6-0.4,1-0.8,1.4-1.5
		c-0.8-0.6-1.4-1.3-1.8-2.2c-0.4-0.8-0.6-2-0.6-2.9c0-1,0.1-2.1,0.4-3.1c0.3-1,0.7-2,1.4-2.8c0.7-0.8,1.3-1.5,2-2.1
		c0.7-0.6,1.5-0.8,2.4-0.8c0.7,0,1.3,0.1,2,0.6s1.4,1,2.1,1.7c0.1,0.6,0.3,1.1,0.3,1.5c0,0.6,0.1,1,0.1,1.5c0,1.8-0.4,3.5-1.3,5
		c-0.8,1.5-1.8,2.8-3.1,3.9c-0.7,0.7-1.4,1.3-2.4,1.8c-0.8,0.6-1.7,1.1-2.7,1.5c-0.8,0.4-1.8,0.8-2.7,1.1
		C406.1,251.6,405.2,251.8,404.4,251.8z M415.9,239.7c0-0.3-0.1-0.6-0.3-0.8c-0.1-0.3-0.4-0.4-0.7-0.6s-0.6-0.3-0.8-0.4
		c-0.3-0.1-0.7-0.1-1-0.1c-0.3,0-0.4,0-0.7,0c-0.1,0-0.4,0.1-0.6,0.3c-0.4,0.3-0.7,0.4-0.8,0.7c-0.1,0.3-0.3,0.4-0.3,0.7
		c0,0.3,0.1,0.6,0.3,0.8c0.1,0.3,0.4,0.6,0.7,0.7c0.3,0.3,0.7,0.4,1,0.6c0.4,0.1,0.7,0.1,1.1,0.1s0.8-0.1,1.3-0.4
		c0.4-0.3,0.6-0.7,0.6-1.4v-0.1H415.9z"/>
	<path class="st0" d="M423.6,269.7c-0.4,0.7-1,1.4-1.7,2c-0.6,0.6-1.3,1.1-1.8,1.7c-0.7,0.6-1.3,1.1-1.8,1.7c-0.6,0.6-1.1,1.3-1.5,2
		c0.7,0.8,1.5,1.8,2.4,2.5c0.8,0.8,1.7,1.7,2.4,2.7c0.7,1,1.3,2,1.8,3.2c0.4,1.1,0.7,2.5,0.7,4.2c0,1.3-0.3,2.5-1,3.5
		c-0.7,1-1.5,1.8-2.7,2.7c-1.1,0.7-2.2,1.3-3.5,1.7c-1.3,0.4-2.5,0.6-3.8,0.7h-0.4c-1.3,0-2.2-0.3-3.1-0.7c-0.8-0.4-1.5-1-2.1-1.7
		c-0.6-0.7-1-1.5-1.1-2.4c-0.3-1-0.4-1.8-0.4-2.9c0-1.5,0.3-3.1,0.7-4.6c0.4-1.5,1.3-2.9,2.1-4.2c-0.4-0.4-1-0.8-1.4-1.3
		c-0.6-0.4-1-1-1.5-1.5c-0.4-0.6-0.8-1.1-1.3-1.8c-0.4-0.7-0.4-1.4-0.4-2.1c0-0.8,0.3-1.8,0.7-2.8c1,0.1,1.8,0.3,2.5,0.6
		c0.7,0.3,1.4,0.7,2.1,1c0.7,0.3,1.4,0.7,2,1.1c0.7,0.4,1.4,0.7,2.2,0.8c0.8-0.4,1.7-0.8,2.5-1.3c0.8-0.4,1.7-1,2.4-1.4
		c0.8-0.4,1.5-1,2.4-1.5C421.9,270.5,422.8,270.1,423.6,269.7z M421.6,266.3c-0.3,0-0.4,0.1-0.7,0.1s-0.4,0-0.6,0
		c-0.6,0-1.1-0.1-1.7-0.3c-0.6-0.3-1-0.4-1.4-0.7s-1-0.6-1.4-0.8c-0.4-0.3-1.1-0.4-1.7-0.6c-0.4,0-0.8,0.3-1,0.6
		c-0.1,0.3-0.4,0.7-0.6,1c-0.1,0.4-0.3,0.7-0.6,1.1s-0.6,0.6-1,0.7c-0.7,0-1.3-0.1-1.8-0.3c-0.6-0.1-1-0.3-1.5-0.6
		c-0.4-0.3-0.8-0.4-1.3-0.7c-0.4-0.3-0.8-0.6-1.3-0.7v-0.4c0-1.1,0.1-2,0.3-2.8c0.1-0.8,0.4-1.7,0.6-2.5l0.1-0.3c0.1,0,0.3,0,0.3,0
		s0.1,0,0.3,0c0.4,0,1,0.1,1.5,0.3c0.6,0.1,1,0.3,1.5,0.6c0.6,0.3,1,0.4,1.5,0.7c0.6,0.3,1,0.4,1.4,0.6c0.4,0,0.8-0.1,1.1-0.4
		c0.3-0.3,0.6-0.4,0.7-0.8c0.1-0.4,0.3-0.7,0.4-1c0.1-0.4,0.3-0.7,0.4-1.1c1,0,2,0.1,2.8,0.4c0.8,0.3,1.5,0.6,2.2,1
		c0.6,0.4,1.1,1,1.4,1.7c0.4,0.7,0.6,1.4,0.6,2.2S422.2,265.1,421.6,266.3z M411.5,282.6c-0.4,0.4-0.7,0.7-1,1.1
		c-0.3,0.4-0.7,0.8-0.8,1.3c-0.3,0.4-0.4,1-0.7,1.5c-0.1,0.6-0.3,1.3-0.3,2v0.3c0.4,0.6,1.1,1,2.1,1.3c1,0.3,2,0.4,3.1,0.4
		c0.7,0,1.4,0,2-0.1c0.7-0.1,1.3-0.3,1.8-0.6c0.6-0.3,1-0.6,1.4-0.8c0.4-0.3,0.7-0.7,0.8-1.3c-1.1-1.1-2.4-2.2-3.6-3.2
		s-2.8-1.8-4.5-2.4L411.5,282.6z"/>
	<path class="st0" d="M446.3,262c0,0.6,0,1.1,0,1.4c0,0.4-0.1,0.7-0.1,1c-0.1,0.3-0.3,0.6-0.4,0.8c-0.1,0.3-0.3,0.6-0.4,1
		c-1.1,0.3-2.2,0.7-3.4,1.3c-1.1,0.6-2.1,1-3.2,1.5c-1.1,0.6-2.1,1-3.2,1.4c-1,0.4-2.1,0.7-3.2,0.8c-0.1-0.4-0.1-0.7-0.1-0.8
		c0-0.3,0-0.4,0-0.7s0.1-0.6,0.1-0.8c0-0.3,0-0.7,0-1.3c1.3-0.3,2.4-0.8,3.5-1.4c1.1-0.6,2.2-1.3,3.4-1.8c1.1-0.6,2.2-1.1,3.4-1.5
		C443.8,262.3,445,262,446.3,262z"/>
	<path class="st0" d="M443.9,277.7h0.7c1.3,0.7,2.2,1.5,3.2,2.4c0.8,0.8,1.7,1.8,2.2,2.9c0.6,1.1,1,2.1,1.3,3.4
		c0.3,1.1,0.4,2.4,0.4,3.5c0,1.5-0.3,3.2-0.7,4.8c-0.6,1.5-1.3,2.9-2.2,4.2c-1,1.3-2.1,2.4-3.5,3.4c-1.4,1-2.9,1.7-4.8,2
		c-0.6,0.1-1.1,0.1-1.7,0.3c-0.6,0-1.1,0.1-1.8,0.1c-1.7,0-3.5-0.1-5.3-0.4s-3.8-0.6-5.6-0.8c1.5-0.7,3.4-1.3,5.3-1.8
		c2-0.6,3.8-1.1,5.7-1.7c2-0.6,3.6-1.3,5.5-1.8c1.7-0.7,3.1-1.5,4.2-2.4c0.8-0.7,1.5-1.4,1.8-2.1c0.4-0.7,0.6-1.3,0.6-1.8
		c0-0.8-0.3-1.7-0.8-2.5c-0.6-0.8-1.1-1.7-1.8-2.5c-0.7-0.8-1.3-1.8-1.8-2.9c-0.6-1-0.8-2.2-0.8-3.5c0-0.3,0-0.7,0-1
		C443.8,278.5,443.8,278.1,443.9,277.7z"/>
	<path class="st0" d="M462.8,272.9c0.6-0.7,1.3-1.3,2-1.7c0.8-0.4,1.5-0.8,2.4-1.3c0.8-0.4,1.7-0.8,2.4-1.3c0.7-0.4,1.4-1.1,1.8-1.8
		c-0.3-0.4-0.7-0.8-1.1-1c-0.4-0.1-1-0.3-1.5-0.3c-0.4,0-1,0-1.4,0.1c-0.6,0.1-1,0.3-1.4,0.4c-0.4,0.1-1,0.3-1.4,0.4
		s-0.8,0.3-1.1,0.4c-0.1-0.6-0.3-1.3-0.3-1.8c0-0.8,0.1-1.5,0.6-2.1c0.4-0.6,0.8-1.1,1.4-1.5s1.3-0.7,2-1c0.7-0.1,1.5-0.3,2.2-0.3
		c0.6,0,1.1,0,1.7,0.1c0.6,0.1,1.1,0.3,1.5,0.6c0.4,0.3,0.8,0.6,1.1,1c0.3,0.4,0.6,0.8,0.7,1.4c0.1,0.4,0.1,0.8,0.1,1.4
		c0,1-0.1,1.8-0.6,2.5c-0.4,0.7-0.8,1.4-1.4,2.1c-0.6,0.6-1.3,1.1-2,1.7c-0.7,0.6-1.5,0.8-2.4,1.1c-0.8,0.3-1.7,0.6-2.4,0.7
		c-0.7,0.1-1.5,0.3-2.2,0.3c-0.1,0-0.3,0-0.3,0S462.9,272.9,462.8,272.9z"/>
	<path class="st0" d="M480.3,291.2h1.3c0.3,0.1,0.6,0.3,0.8,0.6c0.3,0.3,0.6,0.4,0.7,0.8c0.3,0.3,0.4,0.7,0.6,1
		c0.1,0.4,0.3,0.7,0.3,1.1c0,0.3,0,0.6-0.1,1c0,0.3-0.1,0.7-0.4,1s-0.4,0.6-0.7,0.8c-0.3,0.3-0.7,0.6-1.1,0.7c-0.3,0-0.6,0-1.1,0
		c-0.4,0-1,0-1.4,0s-0.8,0.1-1.3,0.1c-0.4,0.1-0.6,0.3-0.7,0.4c-0.6,2-1.4,3.8-2.2,5.5c-0.8,1.7-2,3.2-3.2,4.5
		c-1.3,1.3-2.7,2.4-4.3,3.1c-1.7,0.7-3.6,1.1-5.9,1.3H461c-0.8,0-1.8,0-2.8-0.1c-1-0.1-2-0.1-2.9-0.3c-1-0.1-2-0.3-2.9-0.3
		c-1-0.1-2-0.1-2.9-0.1c1.1-0.8,2.2-1.4,3.5-1.8s2.7-0.8,4.1-1.3s2.8-0.8,4.2-1.1c1.4-0.4,2.7-0.8,3.9-1.5l0.8-0.4
		c0.7-0.4,1.5-0.7,2.2-1.1c0.8-0.4,1.5-0.8,2.1-1.4c0.6-0.6,1.3-1.1,1.7-1.8c0.4-0.7,0.7-1.4,0.8-2.4c-0.7-0.1-1.5-0.4-2.4-0.4
		c-0.8-0.1-1.7-0.3-2.7-0.4c-0.8-0.1-1.8-0.4-2.7-0.6c-0.8-0.1-1.5-0.6-2.2-1.1c-0.4-0.8-0.6-1.8-0.8-2.8c-0.1-1-0.3-2-0.3-2.9
		s0.1-2,0.3-2.9c0.1-1,0.6-1.8,1-2.5c0.4-0.7,1-1.4,1.5-1.8c0.7-0.4,1.4-0.7,2.2-0.8c0.1,0,0.3,0,0.3,0c0.1,0,0.1,0,0.3,0
		c1.1,0,2,0.3,2.8,0.7c0.8,0.6,1.5,1.1,2.1,2c0.6,0.8,1.1,1.7,1.7,2.5c0.6,1,1,1.8,1.5,2.7c0.3,0.4,0.6,0.6,1,0.7
		c0.4,0.1,0.8,0.1,1.3,0.1h2.7V291.2z"/>
	<path class="st0" d="M490.1,271.6c0.3-0.7,0.7-1.3,1.3-1.7c0.6-0.4,1.1-0.7,1.8-1c0.7-0.3,1.3-0.7,1.8-1c0.6-0.4,1-0.8,1.4-1.5
		c-0.8-0.6-1.4-1.3-1.8-2.2c-0.4-0.8-0.6-2-0.6-2.9c0-1,0.1-2.1,0.4-3.1c0.3-1.1,0.7-2,1.3-2.8c0.6-0.8,1.3-1.5,2-2.1
		c0.7-0.6,1.5-0.8,2.4-0.8c0.7,0,1.3,0.1,2,0.6c0.7,0.4,1.4,1,2.1,1.7c0.1,0.6,0.3,1.1,0.3,1.5c0,0.6,0.1,1,0.1,1.5
		c0,1.8-0.4,3.5-1.3,5c-0.8,1.5-1.8,2.8-3.1,3.9c-0.7,0.7-1.4,1.3-2.4,1.8c-0.8,0.6-1.7,1.1-2.7,1.5c-0.8,0.4-1.8,0.8-2.7,1.1
		C491.7,271.4,490.8,271.5,490.1,271.6z M501.5,259.5c0-0.3-0.1-0.6-0.3-0.8s-0.4-0.4-0.7-0.6c-0.3-0.1-0.6-0.3-0.8-0.4
		s-0.7-0.1-1-0.1c-0.3,0-0.4,0-0.7,0c-0.1,0-0.4,0.1-0.6,0.3c-0.4,0.3-0.7,0.4-0.8,0.7s-0.3,0.4-0.3,0.7c0,0.3,0.1,0.6,0.3,0.8
		s0.4,0.6,0.7,0.7c0.3,0.3,0.7,0.4,1,0.6c0.4,0.1,0.7,0.1,1.1,0.1s0.8-0.1,1.3-0.4c0.4-0.3,0.6-0.7,0.6-1.4v-0.1H501.5z"/>
	<path class="st0" d="M480.9,298c-1-0.4-1.7-0.8-2.1-1.5c-0.4-0.7-0.7-1.3-0.7-2c0-0.7,0.3-1.4,0.7-2c0.4-0.6,1.1-1.1,2.1-1.4h1.3
		c0.8,0,1.8-0.3,2.7-0.8c0.8-0.4,1.8-1.1,2.7-1.7c0.8-0.7,1.7-1.4,2.5-2.2c0.8-0.8,1.5-1.5,2.1-2.2c0.4,0.4,0.8,0.8,1.3,1.4
		c0.4,0.6,0.7,1,1,1.5c0.3,0.6,0.7,1,1.1,1.3c0.4,0.3,1,0.6,1.7,0.6h0.4c0.6,0,1-0.3,1.3-0.6c0.3-0.3,0.6-0.7,0.8-1.1
		c0.3-0.4,0.4-0.8,0.7-1.4c0.3-0.6,0.6-1,0.8-1.4c0.7,0.1,1.3,0.4,1.7,1c0.4,0.4,0.8,1,1.1,1.4c0.4,0.6,0.8,1,1.3,1.4
		c0.4,0.4,1.1,0.6,2,0.6c0-0.1,0.1-0.3,0.1-0.6s0-0.4,0-0.7c0-0.4,0-0.8,0-1.3c0-0.4,0-1,0-1.4c0-0.7,0.1-1.3,0.3-1.7
		c0.1-0.6,0.6-0.8,1.1-1c0.7,0.7,1.4,1.8,1.7,3.1s0.6,2.7,0.6,4.1c0,0.8-0.1,1.7-0.3,2.5s-0.4,1.5-0.8,2.2c-0.4,0.7-0.8,1.1-1.4,1.5
		c-0.6,0.4-1.3,0.6-2,0.6h-0.3c-0.6,0-1-0.1-1.3-0.3c-0.3-0.1-0.7-0.4-0.8-0.7c-0.3-0.3-0.6-0.6-0.8-0.8s-0.7-0.6-1.1-0.8
		c-0.4,0.3-0.8,0.7-1.3,1c-0.4,0.4-0.8,0.7-1.3,1s-0.8,0.6-1.4,0.7c-0.4,0.1-1,0.3-1.5,0.3c-0.1,0-0.3,0-0.3,0c-0.1,0-0.3,0-0.4,0
		c-0.6-0.1-1.1-0.3-1.4-0.7s-0.6-0.7-0.8-1c-0.3-0.4-0.6-0.7-0.8-1.1c-0.3-0.4-0.7-0.7-1.1-1c-0.7,0.4-1.4,1-2.2,1.7
		c-0.8,0.7-1.7,1.1-2.7,1.7c-1,0.6-1.8,1-2.8,1.4C482.8,297.8,481.8,298,480.9,298z"/>
</g>
<g>
	<path class="st0" d="M278.5,187.5c1.7-0.4,2.4-0.3,2.2,0.6c-0.4,1.1-1.3,2.7-2.5,4.5c-0.1,0.3-0.3,0.4-0.4,0.6
		c-0.1,0.1-0.3,0.3-0.4,0.3c-2.2,0.6-4.9,0.7-8,0.4c-3.4-0.6-6.9-1.5-10.5-3.1l-1.4-0.6c-0.3-0.8-0.1-1.4,0.6-1.7h6.4
		C271.1,188.5,275.7,188.2,278.5,187.5z"/>
	<path class="st0" d="M303.4,156.9c0.6-0.7,1.3-1.3,2-1.7c0.8-0.4,1.5-0.8,2.4-1.3c0.8-0.4,1.7-0.8,2.4-1.3c0.7-0.4,1.4-1.1,1.8-1.8
		c-0.3-0.4-0.7-0.8-1.1-1s-1-0.3-1.5-0.3c-0.4,0-1,0-1.4,0.1c-0.6,0.1-1,0.3-1.4,0.4c-0.4,0.1-1,0.3-1.4,0.4
		c-0.4,0.1-0.8,0.3-1.1,0.4c-0.1-0.6-0.3-1.3-0.3-1.8c0-0.8,0.1-1.5,0.6-2.1s0.8-1.1,1.4-1.5c0.6-0.4,1.3-0.7,2-1
		c0.7-0.1,1.5-0.3,2.2-0.3c0.6,0,1.1,0,1.7,0.1c0.6,0.1,1.1,0.3,1.5,0.6c0.4,0.3,0.8,0.6,1.1,1s0.6,0.8,0.7,1.4
		c0.1,0.4,0.1,0.8,0.1,1.4c0,1-0.1,1.8-0.6,2.5c-0.4,0.7-0.8,1.4-1.4,2.1c-0.6,0.6-1.3,1.1-2,1.7c-0.7,0.6-1.5,0.8-2.4,1.1
		c-0.8,0.3-1.7,0.6-2.4,0.7c-0.7,0.1-1.5,0.3-2.2,0.3c-0.1,0-0.3,0-0.3,0S303.6,156.9,303.4,156.9z"/>
	<path class="st0" d="M321.5,187.4h4.3c0.6,0,1.1,0.1,1.7,0.3c0.4,0.3,0.8,0.4,1.1,0.8s0.6,0.7,0.7,1.1s0.3,0.8,0.3,1.1
		c0,0.3,0,0.7-0.1,1.1c-0.1,0.4-0.3,0.8-0.7,1.1c-0.4,0.3-0.7,0.6-1.1,0.8c-0.4,0.3-1.1,0.3-1.7,0.3h-3.5v0.4c0,0.4,0,0.8,0,1.3
		s0,1-0.1,1.4c0,0.4-0.1,1-0.1,1.4c0,0.4-0.1,0.8-0.3,1.1c-0.6,2.2-1.5,4.2-2.8,6s-2.9,3.2-4.6,4.5c-1.8,1.3-3.8,2.1-5.9,2.8
		c-2.1,0.7-4.2,1-6.3,1c-1.8,0-3.5-0.3-5.2-0.7s-3.2-1.3-4.5-2.2c-1.4-1-2.5-2.4-3.5-3.9c-1-1.5-1.5-3.5-2-5.6
		c-0.1-1.4-0.3-2.7-0.3-4.1c0-1.7,0.1-3.2,0.4-4.8c0.3-1.5,0.7-3.1,1.3-4.5c0.6-1.4,1.3-2.7,2.2-3.6c0.8-1.1,2-2,3.1-2.7v0.4
		c0,0.8-0.3,1.5-0.7,2.4c-0.4,0.7-0.8,1.5-1.4,2.2c-0.6,0.8-1.1,1.5-1.5,2.4c-0.4,0.8-0.8,1.8-1,2.8c-0.1,0.4-0.1,1-0.1,1.4
		c0,0.4,0,1,0,1.4c0,1.1,0.1,2.2,0.4,3.4c0.3,1.1,0.6,2.1,1.1,3.1c0.4,1,1.1,1.8,1.8,2.5c0.7,0.7,1.7,1.4,2.8,1.8
		c1,0.4,2.1,0.8,3.2,1c1.1,0.3,2.2,0.3,3.5,0.3c1.8,0,3.8-0.3,5.6-0.7c1.8-0.4,3.6-1.1,5.2-2s2.9-1.8,4.2-3.1c1.1-1.1,2-2.5,2.5-3.9
		c-0.4-0.6-0.8-1-1.1-1.1c-0.4-0.1-0.7-0.3-1.1-0.3s-0.7,0-1.1,0.1s-0.8,0.1-1.4,0.1c-0.4,0-0.8,0-1.3-0.1c-0.8-0.3-1.5-0.7-2.1-1.3
		c-0.6-0.6-1.1-1.4-1.4-2.2c-0.4-0.8-0.7-1.8-0.8-2.7c-0.1-1-0.3-2-0.3-2.9c0-0.7,0-1.5,0.1-2.2c0.1-0.7,0.3-1.4,0.4-2
		c0.3-0.6,0.4-1.1,0.8-1.5c0.3-0.4,0.7-0.8,1.1-1c0.6-0.3,1.1-0.6,1.7-0.7c0.6-0.1,1.1-0.3,1.7-0.3c1,0,1.8,0.3,2.7,0.7
		c0.8,0.4,1.5,1.1,2.1,1.8c0.6,0.8,1.1,1.7,1.4,2.7C321.1,185.3,321.4,186.3,321.5,187.4z M320.5,173.4c-0.3,0-0.4,0.1-0.7,0.1
		c-0.1,0-0.4,0-0.6,0c-0.6,0-1.1-0.1-1.7-0.3c-0.6-0.3-1-0.4-1.4-0.7c-0.4-0.3-1-0.6-1.4-0.8c-0.6-0.3-1.1-0.4-1.7-0.6
		c-0.4,0-0.8,0.3-1,0.6c-0.1,0.3-0.4,0.7-0.6,1c-0.1,0.4-0.3,0.7-0.6,1.1c-0.1,0.3-0.6,0.6-1,0.7c-0.7,0-1.3-0.1-1.8-0.3
		c-0.6-0.1-1-0.3-1.5-0.6s-0.8-0.4-1.3-0.7c-0.4-0.3-0.8-0.6-1.3-0.7v-0.1c0-1.1,0.1-2,0.3-2.8c0.1-0.8,0.4-1.7,0.6-2.5l0.1-0.3
		c0.1,0,0.3,0,0.3,0c0.1,0,0.1,0,0.3,0c0.4,0,1,0.1,1.5,0.3c0.6,0.1,1,0.3,1.5,0.6c0.6,0.3,1,0.4,1.5,0.7c0.6,0.3,1,0.4,1.4,0.6
		c0.4,0,0.8-0.1,1.1-0.4c0.3-0.3,0.6-0.4,0.7-0.8s0.3-0.7,0.4-1c0.1-0.4,0.3-0.7,0.4-1.1c1,0,2,0.1,2.8,0.4c0.8,0.3,1.5,0.6,2.2,1
		c0.7,0.4,1.1,1,1.4,1.7c0.4,0.7,0.6,1.4,0.6,2.2C321.4,171.1,321.1,172.1,320.5,173.4z"/>
	<path class="st0" d="M335.6,138.1c0,0.6,0,1.1,0,1.4c0,0.4-0.1,0.7-0.1,1c-0.1,0.3-0.3,0.6-0.4,0.8c-0.1,0.3-0.3,0.6-0.4,1
		c-1.1,0.3-2.2,0.7-3.4,1.3c-1.1,0.6-2.1,1-3.2,1.5c-1.1,0.6-2.1,1-3.2,1.4c-1,0.4-2.1,0.7-3.2,0.8c-0.1-0.4-0.1-0.7-0.1-0.8
		c0-0.3,0-0.4,0-0.7c0-0.3,0.1-0.6,0.1-0.8s0-0.7,0-1.3c1.3-0.3,2.4-0.8,3.5-1.4c1.1-0.6,2.2-1.3,3.4-1.8c1.1-0.6,2.2-1.1,3.4-1.5
		C333.1,138.4,334.4,138.1,335.6,138.1z"/>
	<path class="st0" d="M325.4,194.1c-1-0.3-1.7-0.7-2.2-1.3c-0.4-0.6-0.7-1.3-0.7-2s0.3-1.4,0.7-2.1c0.6-0.7,1.3-1.1,2.1-1.4
		c1.3-0.1,2.5-0.3,3.5-0.3s1.8-0.3,2.7-0.6c0.7-0.3,1.3-0.7,1.7-1.1c0.4-0.6,0.7-1.3,0.8-2.4c0-1-0.1-2.1-0.4-3.4
		c-0.3-1.3-0.6-2.5-0.8-3.8c-0.3-1.4-0.7-2.8-1.1-4.2c-0.4-1.4-0.7-2.9-1.1-4.3c-0.3-1.4-0.6-2.9-0.8-4.3s-0.3-2.8-0.3-4.1
		c0-0.8,0.1-1.7,0.4-2.4c0.3-0.8,0.4-1.5,0.7-2.2h1c0.6,1.4,1,2.9,1.4,4.5c0.4,1.5,0.8,3.4,1.1,5.2c0.4,1.8,0.7,3.5,1.1,5.3
		s0.8,3.6,1.4,5.3s1.1,3.4,1.8,4.8c0.7,1.4,1.5,2.8,2.5,3.9c1,1.1,2.1,2.1,3.4,2.8c1.3,0.7,2.8,1.1,4.5,1.3h0.7
		c1.1,0.1,1.8,0.6,2.4,1.3c0.6,0.7,0.7,1.4,0.7,2.1c0,0.8-0.3,1.5-0.8,2.1s-1.3,1.1-2.2,1.4c0,0-0.3,0-0.7,0
		c-2.4-0.1-4.5-0.4-6.2-1.1c-1.7-0.7-2.9-1.3-3.8-1.7c-0.8-0.4-1.5-1-2.2-1.5c-0.6,0.7-1.1,1.4-1.8,1.8c-0.7,0.6-2,1.1-3.5,1.7
		C329.8,193.8,327.7,194.1,325.4,194.1z"/>
	<path class="st0" d="M365.8,147.1c0,0.6,0,1.1,0,1.4c0,0.4-0.1,0.7-0.1,1c-0.1,0.3-0.3,0.6-0.4,0.8c-0.1,0.3-0.3,0.6-0.4,1
		c-1.1,0.3-2.2,0.7-3.4,1.3c-1.1,0.6-2.1,1-3.2,1.5c-1.1,0.6-2.1,1-3.2,1.4c-1,0.4-2.1,0.7-3.2,0.8c-0.1-0.4-0.1-0.7-0.1-0.8
		c0-0.3,0-0.4,0-0.7s0.1-0.6,0.1-0.8c0-0.3,0-0.7,0-1.3c1.3-0.3,2.4-0.8,3.5-1.4c1.1-0.6,2.2-1.3,3.4-1.8c1.1-0.6,2.2-1.1,3.4-1.5
		C363.1,147.3,364.4,147.1,365.8,147.1z"/>
	<path class="st0" d="M348.9,194.1c-0.6,0-1-0.1-1.4-0.3c-0.4-0.3-0.7-0.4-1-0.8c-0.3-0.3-0.4-0.7-0.6-1.1c-0.1-0.4-0.1-0.8-0.1-1.3
		c0-0.8,0.3-1.5,0.7-2.2c0.6-0.7,1.3-1.1,2.4-1.1h0.3c0.4,0,0.8-0.1,1.3-0.1c0.4-0.1,0.8-0.1,1.3-0.3s0.8-0.3,1.3-0.4
		c0.4-0.1,0.7-0.3,1-0.6c-0.1-0.7-0.1-1.4-0.3-2.1c0-0.7-0.1-1.4-0.1-2c0-1.3,0.1-2.4,0.3-3.5c0.3-1.1,0.6-2,1.1-2.8
		c0.6-0.8,1.3-1.4,2-1.8c0.8-0.4,1.8-0.7,3.1-0.7h0.3c1.3,0,2.2,0.3,3.1,0.7c0.8,0.4,1.7,1,2.2,1.7s1,1.5,1.3,2.7
		c0.3,1.1,0.4,2.1,0.4,3.2c0,1-0.1,2-0.3,2.9c-0.1,1-0.4,2-0.8,2.9c0.1,0.1,0.4,0.1,0.8,0.3c0.4,0,0.8,0.1,1.3,0.1s1,0,1.4,0
		s0.8,0,1.3,0h3.2c1.3,0.1,2.1,0.6,2.8,1.3c0.6,0.7,1,1.4,1,2.2c0,0.8-0.3,1.5-1,2.1c-0.6,0.7-1.5,1.1-2.8,1.3h-1.7
		c-0.4,0-0.8,0-1.1,0c-0.4,0-0.6,0-0.8,0c-1.1,0-2.2,0-3.4-0.1c-1.1-0.1-2.4-0.3-3.5-0.4c-1.1-0.1-2.2-0.4-3.2-0.7
		c-1-0.3-1.8-0.7-2.5-1.1c-0.6,0.4-1.1,0.8-1.8,1.1c-0.7,0.3-1.4,0.6-2.2,0.7c-0.8,0.1-1.5,0.3-2.4,0.4c-0.8,0.1-1.7,0.1-2.4,0.1
		h-0.1V194.1z M358,160.9c1.3,0.1,2.2,0.4,3.1,0.8c0.8,0.4,1.5,1,2.2,1.7c0,1.1-0.1,2.1-0.4,3.1c-0.1,1-0.6,1.7-1.3,2.1h-0.4
		c-2.1,0-3.6-0.7-4.5-2c0-0.6,0.1-1.1,0.1-1.7s0-1,0.1-1.5c0-0.4,0.1-1,0.3-1.4C357.3,161.8,357.6,161.3,358,160.9z M356.9,182.3
		c0.1,0.7,0.7,1.3,1.4,1.7c0.7,0.4,1.5,0.6,2.4,0.6c0.7,0,1.4-0.1,2.1-0.4c0.7-0.3,1.1-0.8,1.4-1.4c0-0.4-0.3-0.7-0.6-1
		c-0.3-0.3-0.7-0.6-1.1-0.8c-0.4-0.3-0.8-0.4-1.4-0.6c-0.4-0.1-1-0.1-1.4-0.1c-0.7,0-1.4,0.1-2,0.6
		C357.2,180.9,356.9,181.5,356.9,182.3z"/>
	<path class="st0" d="M371.8,150.3c0.6-0.7,1.3-1.3,2-1.7c0.8-0.4,1.5-0.8,2.4-1.3c0.8-0.4,1.7-0.8,2.4-1.3s1.4-1.1,1.8-1.8
		c-0.3-0.4-0.7-0.8-1.1-1c-0.4-0.1-1-0.3-1.5-0.3c-0.4,0-1,0-1.4,0.1c-0.6,0.1-1,0.3-1.4,0.4s-1,0.3-1.4,0.4
		c-0.4,0.1-0.8,0.3-1.1,0.4c-0.1-0.6-0.3-1.3-0.3-1.8c0-0.8,0.1-1.5,0.6-2.1s0.8-1.1,1.4-1.5c0.6-0.4,1.3-0.7,2-1
		c0.7-0.1,1.5-0.3,2.2-0.3c0.6,0,1.1,0,1.7,0.1c0.6,0.1,1.1,0.3,1.5,0.6c0.4,0.3,0.8,0.6,1.1,1c0.3,0.4,0.6,0.8,0.7,1.4
		c0.1,0.4,0.1,0.8,0.1,1.4c0,1-0.1,1.8-0.6,2.5s-0.8,1.4-1.4,2.1c-0.6,0.6-1.3,1.1-2,1.7c-0.7,0.6-1.5,0.8-2.4,1.1
		c-0.8,0.3-1.7,0.6-2.4,0.7c-0.7,0.1-1.5,0.3-2.2,0.3c-0.1,0-0.3,0-0.3,0S371.9,150.3,371.8,150.3z"/>
	<path class="st0" d="M374,187.4c1.5-0.1,2.8-0.4,3.8-0.7s1.8-0.7,2.5-1.3c0.7-0.4,1.1-1.1,1.4-1.7c0.3-0.7,0.4-1.4,0.4-2.2
		c0-0.4,0-1,0-1.3c0-0.3-0.1-0.7-0.1-1.1c-0.1-0.4-0.1-0.8-0.3-1.4c-0.1-0.6-0.4-1.1-0.7-1.8c-0.4-1.4-1-2.7-1.5-3.9
		c-0.6-1.3-1.1-2.7-1.7-3.9c-0.6-1.3-1-2.7-1.3-3.9c-0.3-1.3-0.6-2.5-0.6-3.8c0-0.8,0.1-1.7,0.3-2.5c0.1-0.8,0.6-1.7,1-2.4
		c0.7,0.6,1.4,1.1,2.1,1.8c0.7,0.7,1.3,1.4,2,2c0.7,0.7,1.4,1.3,2.1,1.7c0.7,0.4,1.5,0.7,2.4,0.8c0.1,0.4,0.1,1,0.3,1.7
		c0,0.7,0.1,1.3,0.1,2c0,0.6,0,1.1-0.1,1.5c0,0.6-0.1,1-0.3,1.3c-0.1,0-0.3,0-0.4,0c-0.1,0-0.3,0-0.4,0c-0.4,0-0.7,0-1-0.1
		c-0.3-0.1-0.6-0.3-0.7-0.4c-0.1-0.1-0.4-0.3-0.7-0.4s-0.6-0.3-0.8-0.3c0.4,1.4,1,2.8,1.4,4.3s0.8,3.1,1.4,4.8
		c0.1,0.7,0.3,1.4,0.4,2c0.1,0.6,0.1,1.1,0.3,1.5c0,0.6,0.1,1,0.1,1.5s0,1.1,0,1.8c0,1.4-0.1,2.8-0.6,4.2c-0.4,1.4-1,2.5-1.8,3.6
		c-0.8,1.1-2.1,2-3.5,2.5c-1.4,0.6-3.2,1-5.5,1c-0.6,0-1-0.1-1.4-0.3s-0.7-0.4-1-0.8c-0.3-0.3-0.4-0.7-0.7-1.1
		c-0.1-0.4-0.3-0.8-0.3-1.3c0-0.4,0-0.8,0.1-1.3c0.1-0.4,0.3-0.7,0.6-1.1c0.3-0.3,0.6-0.6,1-0.7C372.8,187.5,373.5,187.4,374,187.4z
		"/>
	<path class="st0" d="M391.1,159.1c0-0.7,0.1-1.3,0.1-1.8c0-0.4,0.1-0.8,0.1-1c0-0.3,0.1-0.4,0.1-0.4c0-0.1,0.1-0.1,0.1-0.1
		c0.1-0.1,0.3-0.3,0.3-0.3l0.3-0.1c0.1,0,0.3,0.1,0.6,0.3c0.7,0.7,1.4,1.3,2.2,2c0.8,0.7,1.7,1.4,2.4,2.2c0.7,0.8,1.4,1.7,2,2.7
		c0.6,1,0.8,2.1,0.8,3.5c0,0.3,0,0.6-0.1,1v0.1c0,0.4-0.1,0.7-0.3,0.7s-0.4,0.3-0.7,0.3c-0.3,0.1-0.6,0.1-0.7,0.3
		c-0.3,0.1-0.4,0.3-0.6,0.4c0.1,1.7,0.4,3.4,0.8,5c0.4,1.7,0.8,3.4,1.4,5c0.4,1.7,1,3.4,1.3,5c0.4,1.7,0.6,3.4,0.6,5
		c0,0.8,0,1.7-0.1,2.7c-0.1,0.8-0.3,1.7-0.7,2.7c-0.6-0.3-0.8-0.7-1.1-1.1c-0.3-0.4-0.4-0.8-0.6-1.3c-0.1-0.4-0.1-0.8-0.3-1.3
		c0-0.4-0.1-0.8-0.1-1.3c-0.1-1.1-0.4-2.2-0.7-3.5c-0.3-1.3-0.7-2.7-1.1-4.1c-0.4-1.4-0.8-2.8-1.3-4.2s-0.8-2.8-1.3-4.2
		c-0.3-1.1-0.6-2.1-1-3.2s-0.8-2.2-1.1-3.4c-0.4-1.1-0.7-2.4-1-3.5c-0.3-1.1-0.4-2.4-0.4-3.5L391.1,159.1L391.1,159.1z"/>
	<path class="st0" d="M407.1,147.9c0.3-0.7,0.7-1.3,1.3-1.7s1.1-0.7,1.8-1c0.7-0.3,1.3-0.7,1.8-1c0.6-0.4,1-0.8,1.4-1.5
		c-0.8-0.6-1.4-1.3-1.8-2.2c-0.4-0.8-0.6-2-0.6-2.9c0-1,0.1-2.1,0.4-3.1c0.3-1.1,0.7-2,1.3-2.8c0.6-0.8,1.3-1.5,2-2.1
		c0.7-0.6,1.7-0.8,2.5-0.8c0.7,0,1.3,0.1,2,0.6c0.7,0.4,1.4,1,2.1,1.7c0.1,0.6,0.3,1.1,0.3,1.5c0,0.6,0.1,1,0.1,1.5
		c0,1.8-0.4,3.5-1.3,5c-0.8,1.5-1.8,2.8-3.1,3.9c-0.7,0.7-1.4,1.3-2.4,1.8c-0.8,0.6-1.7,1.1-2.7,1.5c-0.8,0.4-1.8,0.8-2.7,1.1
		C408.6,147.8,407.8,147.9,407.1,147.9z M418.5,135.9c0-0.3-0.1-0.6-0.3-0.8s-0.4-0.4-0.7-0.6c-0.3-0.1-0.6-0.3-0.8-0.4
		c-0.3-0.1-0.7-0.1-1-0.1c-0.3,0-0.4,0-0.7,0c-0.1,0-0.4,0.1-0.6,0.3c-0.4,0.3-0.7,0.4-0.8,0.7c-0.1,0.3-0.3,0.4-0.3,0.7
		c0,0.3,0.1,0.6,0.3,0.8c0.1,0.3,0.4,0.6,0.7,0.7c0.3,0.3,0.7,0.4,1,0.6c0.4,0.1,0.7,0.1,1.1,0.1s0.8-0.1,1.3-0.4
		c0.4-0.3,0.6-0.7,0.6-1.4v-0.1H418.5z"/>
	<path class="st0" d="M426.1,165.8c-0.4,0.7-1,1.4-1.7,2c-0.6,0.6-1.3,1.1-1.8,1.7c-0.7,0.6-1.3,1.1-1.8,1.7c-0.6,0.6-1.1,1.3-1.5,2
		c0.7,0.8,1.5,1.8,2.4,2.5c0.8,0.8,1.7,1.7,2.4,2.7c0.7,1,1.3,2,1.8,3.2c0.4,1.1,0.7,2.5,0.7,4.2c0,1.3-0.4,2.5-1,3.5
		c-0.7,1-1.5,1.8-2.7,2.7c-1.1,0.7-2.2,1.3-3.5,1.7c-1.3,0.4-2.5,0.6-3.8,0.7h-0.3c-1.3,0-2.2-0.3-3.1-0.7c-0.8-0.4-1.5-1-2.1-1.7
		c-0.6-0.7-1-1.5-1.1-2.4c-0.3-1-0.4-1.8-0.4-2.9c0-1.5,0.3-3.1,0.7-4.6c0.4-1.5,1.3-2.9,2.1-4.2c-0.4-0.4-1-0.8-1.4-1.3
		c-0.6-0.4-1-1-1.5-1.5s-0.8-1.1-1.3-1.8s-0.4-1.4-0.4-2.1c0-0.8,0.3-1.8,0.7-2.8c1,0.1,1.8,0.3,2.5,0.6s1.4,0.7,2.1,1
		c0.7,0.4,1.3,0.7,2,1.1c0.7,0.4,1.4,0.7,2.2,0.8c0.8-0.4,1.7-0.8,2.5-1.3s1.7-1,2.4-1.4c0.8-0.4,1.5-1,2.4-1.5
		C424.4,166.7,425.3,166.2,426.1,165.8z M424.3,162.5c-0.3,0-0.4,0.1-0.7,0.1c-0.3,0-0.4,0-0.6,0c-0.6,0-1.1-0.1-1.7-0.3
		s-1-0.4-1.4-0.7c-0.4-0.3-1-0.6-1.4-0.8c-0.6-0.3-1.1-0.4-1.7-0.6c-0.4,0-0.8,0.3-1,0.6c-0.3,0.3-0.4,0.7-0.6,1
		c-0.1,0.4-0.3,0.7-0.6,1.1c-0.1,0.3-0.6,0.6-1,0.7c-0.7,0-1.3-0.1-1.8-0.3c-0.6-0.1-1-0.3-1.5-0.6c-0.4-0.3-0.8-0.4-1.3-0.7
		c-0.4-0.3-0.8-0.6-1.3-0.7v-0.4c0-1.1,0.1-2,0.3-2.8c0.1-0.8,0.4-1.7,0.6-2.5l0.1-0.3c0.1,0,0.3,0,0.3,0s0.1,0,0.3,0
		c0.4,0,1,0.1,1.5,0.3c0.6,0.1,1,0.3,1.5,0.6c0.6,0.3,1,0.4,1.5,0.7c0.6,0.3,1,0.4,1.4,0.6c0.4,0,0.8-0.1,1.1-0.4
		c0.3-0.3,0.6-0.4,0.7-0.8c0.1-0.3,0.3-0.7,0.4-1c0.1-0.3,0.3-0.7,0.4-1.1c1,0,2,0.1,2.8,0.4c0.8,0.3,1.5,0.6,2.2,1
		c0.6,0.4,1.1,1,1.4,1.7c0.4,0.7,0.6,1.4,0.6,2.2C425.1,160.2,424.8,161.2,424.3,162.5z M414.2,178.7c-0.4,0.4-0.7,0.7-1,1.1
		c-0.3,0.4-0.7,0.8-0.8,1.3c-0.3,0.4-0.4,1-0.7,1.5c-0.1,0.6-0.3,1.3-0.3,2v0.3c0.4,0.6,1.1,1,2.1,1.3c1,0.3,2,0.4,3.1,0.4
		c0.7,0,1.4,0,2-0.1c0.7-0.1,1.3-0.3,1.8-0.6c0.6-0.3,1-0.6,1.4-0.8c0.4-0.3,0.7-0.7,0.8-1.3c-1.1-1.1-2.4-2.2-3.6-3.2
		c-1.3-1-2.8-1.8-4.5-2.4L414.2,178.7z"/>
	<path class="st0" d="M448.9,158.1c0,0.6,0,1.1,0,1.4c0,0.4-0.1,0.7-0.1,1c-0.1,0.3-0.3,0.6-0.4,0.8c-0.1,0.3-0.3,0.6-0.4,1
		c-1.1,0.3-2.2,0.7-3.4,1.3c-1.1,0.6-2.1,1-3.2,1.5c-1.1,0.6-2.1,1-3.2,1.4c-1,0.4-2.1,0.7-3.2,0.8c-0.1-0.4-0.1-0.7-0.1-0.8
		c0-0.3,0-0.4,0-0.7c0-0.3,0.1-0.6,0.1-0.8c0-0.3,0-0.7,0-1.3c1.3-0.3,2.4-0.8,3.5-1.4c1.1-0.6,2.2-1.3,3.4-1.8
		c1.1-0.6,2.2-1.1,3.4-1.5C446.4,158.4,447.7,158.1,448.9,158.1z"/>
	<path class="st0" d="M446.6,173.8h0.7c1.3,0.7,2.2,1.5,3.2,2.4c0.8,0.8,1.7,1.8,2.2,2.9c0.6,1,1,2.1,1.3,3.4
		c0.3,1.1,0.4,2.4,0.4,3.5c0,1.5-0.3,3.2-0.7,4.8c-0.6,1.5-1.3,2.9-2.2,4.2s-2.1,2.4-3.5,3.4c-1.4,1-2.9,1.7-4.8,2
		c-0.6,0.1-1.1,0.1-1.7,0.3c-0.6,0-1.1,0.1-1.8,0.1c-1.7,0-3.5-0.1-5.3-0.4c-1.8-0.3-3.8-0.6-5.6-0.8c1.5-0.7,3.4-1.3,5.3-1.8
		c2-0.6,3.8-1.1,5.7-1.7c2-0.6,3.6-1.3,5.5-1.8c1.7-0.7,3.1-1.5,4.2-2.4c0.8-0.7,1.5-1.4,1.8-2.1c0.4-0.7,0.6-1.3,0.6-1.8
		c0-0.8-0.3-1.7-0.8-2.5c-0.6-0.8-1.1-1.7-1.8-2.5c-0.7-0.8-1.3-1.8-1.8-2.9c-0.6-1.1-0.8-2.2-0.8-3.5c0-0.3,0-0.7,0-1
		C446.4,174.6,446.4,174.2,446.6,173.8z"/>
	<path class="st0" d="M465.5,169c0.6-0.7,1.3-1.3,2-1.7c0.8-0.4,1.5-0.8,2.4-1.3c0.8-0.4,1.7-0.8,2.4-1.3c0.7-0.4,1.4-1.1,1.8-1.8
		c-0.3-0.4-0.7-0.8-1.1-1s-1-0.3-1.5-0.3c-0.4,0-1,0-1.4,0.1c-0.6,0.1-1,0.3-1.4,0.4c-0.4,0.1-1,0.3-1.4,0.4s-0.8,0.3-1.1,0.4
		c-0.1-0.6-0.3-1.3-0.3-1.8c0-0.8,0.1-1.5,0.6-2.1s0.8-1.1,1.4-1.5c0.6-0.4,1.3-0.7,2-1c0.7-0.1,1.5-0.3,2.2-0.3
		c0.6,0,1.1,0,1.7,0.1s1.1,0.3,1.5,0.6c0.4,0.3,0.8,0.6,1.1,1c0.3,0.4,0.6,0.8,0.7,1.4c0.1,0.4,0.1,0.8,0.1,1.4c0,1-0.1,1.8-0.6,2.5
		c-0.4,0.7-0.8,1.4-1.4,2.1c-0.6,0.6-1.3,1.1-2,1.7c-0.7,0.6-1.5,0.8-2.4,1.1c-0.8,0.3-1.7,0.6-2.4,0.7c-0.7,0.1-1.5,0.3-2.2,0.3
		c-0.1,0-0.3,0-0.3,0L465.5,169z"/>
	<path class="st0" d="M482.8,187.4h1.3c0.3,0.1,0.6,0.3,0.8,0.6c0.3,0.3,0.6,0.4,0.7,0.8c0.3,0.3,0.4,0.7,0.6,1
		c0.1,0.4,0.3,0.7,0.3,1.1c0,0.3,0,0.6-0.1,1c0,0.3-0.1,0.7-0.4,1c-0.3,0.3-0.4,0.6-0.7,0.8c-0.3,0.3-0.7,0.6-1.1,0.7
		c-0.3,0-0.6,0-1.1,0c-0.4,0-1,0-1.4,0s-0.8,0.1-1.3,0.1c-0.4,0.1-0.6,0.3-0.7,0.4c-0.6,2-1.4,3.8-2.2,5.5c-0.8,1.7-2,3.2-3.2,4.5
		c-1.3,1.3-2.7,2.4-4.3,3.1s-3.6,1.1-5.9,1.3h-0.4c-0.8,0-1.8,0-2.8-0.1c-1-0.1-2-0.1-2.9-0.3c-1-0.1-2-0.3-2.9-0.3
		c-1-0.1-2-0.1-2.9-0.1c1.1-0.8,2.2-1.4,3.5-1.8c1.3-0.4,2.7-0.8,4.1-1.3c1.4-0.4,2.8-0.8,4.2-1.1c1.4-0.4,2.7-0.8,3.9-1.5l0.8-0.4
		c0.7-0.4,1.5-0.7,2.2-1.1c0.8-0.4,1.5-0.8,2.1-1.4c0.6-0.6,1.3-1.1,1.7-1.8c0.4-0.7,0.7-1.4,0.8-2.4c-0.7-0.1-1.5-0.4-2.4-0.4
		c-0.8-0.1-1.7-0.3-2.7-0.4c-0.8-0.1-1.8-0.4-2.7-0.6c-0.8-0.1-1.5-0.6-2.2-1.1c-0.4-0.8-0.6-1.8-0.8-2.8c-0.1-1-0.3-2-0.3-2.9
		c0-1,0.1-2,0.3-2.9c0.1-1,0.6-1.8,1-2.5c0.4-0.7,1-1.4,1.5-1.8c0.7-0.4,1.4-0.7,2.2-0.8c0.1,0,0.3,0,0.3,0c0.1,0,0.1,0,0.3,0
		c1.1,0,2,0.3,2.8,0.7c0.8,0.6,1.5,1.1,2.1,2c0.6,0.8,1.1,1.7,1.7,2.5c0.6,1,1,1.8,1.5,2.7c0.3,0.4,0.6,0.6,1,0.7s0.8,0.1,1.3,0.1
		h2.7V187.4z"/>
	<path class="st0" d="M492.6,167.8c0.3-0.7,0.7-1.3,1.3-1.7c0.6-0.4,1.1-0.7,1.8-1c0.7-0.3,1.3-0.7,1.8-1c0.6-0.4,1-0.8,1.4-1.5
		c-0.8-0.6-1.4-1.3-1.8-2.2c-0.4-0.8-0.6-2-0.6-2.9c0-1,0.1-2.1,0.4-3.1c0.3-1.1,0.7-2,1.3-2.8c0.6-0.8,1.3-1.5,2-2.1
		c0.7-0.6,1.5-0.8,2.4-0.8c0.7,0,1.3,0.1,2,0.6c0.7,0.4,1.4,1,2.1,1.7c0.1,0.6,0.3,1.1,0.3,1.5c0,0.6,0.1,1,0.1,1.5
		c0,1.8-0.4,3.5-1.3,5c-0.8,1.5-1.8,2.8-3.1,3.9c-0.7,0.7-1.4,1.3-2.4,1.8c-0.8,0.6-1.7,1.1-2.7,1.5c-0.8,0.4-1.8,0.8-2.7,1.1
		C494.3,167.5,493.5,167.6,492.6,167.8z M504.1,155.6c0-0.3-0.1-0.6-0.3-0.8c-0.1-0.3-0.4-0.4-0.7-0.6c-0.3-0.1-0.6-0.3-0.8-0.4
		c-0.3-0.1-0.7-0.1-1-0.1c-0.3,0-0.4,0-0.7,0c-0.1,0-0.4,0.1-0.6,0.3c-0.4,0.3-0.7,0.4-0.8,0.7c-0.1,0.3-0.3,0.4-0.3,0.7
		c0,0.3,0.1,0.6,0.3,0.8c0.1,0.3,0.4,0.6,0.7,0.7c0.3,0.3,0.7,0.4,1,0.6c0.4,0.1,0.7,0.1,1.1,0.1s0.8-0.1,1.3-0.4
		c0.4-0.3,0.6-0.7,0.6-1.4v-0.1H504.1z"/>
	<path class="st0" d="M483.5,194.1c-1-0.4-1.7-0.8-2.1-1.5c-0.4-0.7-0.7-1.3-0.7-2c0-0.7,0.3-1.4,0.7-2c0.4-0.6,1.1-1.1,2.1-1.4h1.3
		c0.8,0,1.8-0.3,2.7-0.8c0.8-0.4,1.8-1.1,2.7-1.7c0.8-0.7,1.7-1.4,2.5-2.2c0.8-0.8,1.5-1.5,2.1-2.2c0.4,0.4,0.8,0.8,1.3,1.4
		c0.4,0.6,0.7,1,1,1.5c0.3,0.6,0.7,1,1.1,1.3c0.4,0.3,1,0.6,1.7,0.6h0.4c0.6,0,1-0.3,1.3-0.6c0.3-0.3,0.6-0.7,0.8-1.1
		c0.3-0.4,0.4-0.8,0.7-1.4c0.3-0.6,0.6-1,0.8-1.4c0.7,0.1,1.3,0.4,1.7,1c0.4,0.4,0.8,1,1.1,1.4c0.4,0.6,0.8,1,1.3,1.4s1.1,0.6,2,0.6
		c0-0.1,0.1-0.3,0.1-0.6c0-0.3,0-0.4,0-0.7c0-0.4,0-0.8,0-1.3c0-0.4,0-1,0-1.4c0-0.7,0.1-1.3,0.3-1.7c0.1-0.6,0.6-0.8,1.1-1
		c0.7,0.7,1.4,1.8,1.7,3.1s0.6,2.7,0.6,4.1c0,0.8-0.1,1.7-0.3,2.5c-0.1,0.8-0.4,1.5-0.8,2.2s-0.8,1.1-1.4,1.5
		c-0.6,0.4-1.3,0.6-2,0.6h-0.3c-0.6,0-1-0.1-1.3-0.3c-0.3-0.1-0.7-0.4-0.8-0.7c-0.3-0.3-0.6-0.6-0.8-0.8c-0.3-0.3-0.7-0.6-1.1-0.8
		c-0.4,0.3-0.8,0.7-1.3,1c-0.4,0.4-0.8,0.7-1.3,1c-0.4,0.3-0.8,0.6-1.4,0.7c-0.4,0.1-1,0.3-1.5,0.3c-0.1,0-0.3,0-0.3,0
		c-0.1,0-0.3,0-0.4,0c-0.6-0.1-1.1-0.3-1.4-0.7s-0.6-0.7-0.8-1c-0.3-0.4-0.6-0.7-0.8-1.1c-0.3-0.4-0.7-0.7-1.1-1
		c-0.7,0.4-1.4,1-2.2,1.7s-1.7,1.1-2.7,1.7c-1,0.6-1.8,1-2.8,1.4C485.5,194,484.5,194.1,483.5,194.1z"/>
</g>
<g>
	<path class="st0" d="M236.4,73.8c1.7-0.4,2.4-0.3,2.2,0.6c-0.4,1.1-1.3,2.7-2.5,4.5c-0.1,0.3-0.3,0.4-0.4,0.6
		c-0.1,0.1-0.3,0.3-0.4,0.3c-2.2,0.6-4.9,0.7-8,0.4c-3.4-0.6-6.9-1.5-10.5-3.1l-1.4-0.6c-0.3-0.8-0.1-1.4,0.6-1.7h6.4
		C228.9,74.8,233.5,74.6,236.4,73.8z"/>
	<path class="st0" d="M286.8,47.2c0.6-0.7,1.3-1.3,2-1.7c0.8-0.4,1.5-0.8,2.4-1.3c0.8-0.4,1.7-0.8,2.4-1.3c0.7-0.4,1.4-1.1,1.8-1.8
		c-0.3-0.4-0.7-0.8-1.1-1c-0.4-0.1-1-0.3-1.5-0.3c-0.4,0-1,0-1.4,0.1c-0.6,0.1-1,0.3-1.4,0.4c-0.4,0.1-1,0.3-1.4,0.4
		c-0.4,0.1-0.8,0.3-1.1,0.4c-0.1-0.6-0.3-1.3-0.3-1.8c0-0.8,0.1-1.5,0.6-2.1c0.4-0.6,0.8-1.1,1.4-1.5s1.3-0.7,2-1
		c0.7-0.1,1.5-0.3,2.2-0.3c0.6,0,1.1,0,1.7,0.1c0.6,0.1,1.1,0.3,1.5,0.6c0.4,0.3,0.8,0.6,1.1,1s0.6,0.8,0.7,1.4
		c0.1,0.4,0.1,0.8,0.1,1.4c0,1-0.1,1.8-0.6,2.5c-0.4,0.7-0.8,1.4-1.4,2.1c-0.6,0.6-1.3,1.1-2,1.7c-0.7,0.6-1.5,0.8-2.4,1.1
		s-1.7,0.6-2.4,0.7c-0.7,0.1-1.5,0.3-2.2,0.3c-0.1,0-0.3,0-0.3,0L286.8,47.2z"/>
	<path class="st0" d="M280.4,77.8c-0.1,2.5-0.8,4.8-2,6.7c-1.1,2-2.5,3.6-4.2,5c-1.7,1.4-3.8,2.4-6,3.1s-4.6,1.1-7.1,1.1
		c-2.2,0-4.6-0.3-7-0.8c-1.1-0.7-2.2-1.5-3.4-2.5c-1.1-1-2.1-2.1-3.1-3.5c-0.8-1.3-1.7-2.7-2.2-4.3c-0.6-1.5-0.8-3.2-0.8-5
		c0-0.8,0.1-1.8,0.3-2.7c0.1-1,0.4-2,0.7-2.9c0.3-0.8,0.6-1.7,1.1-2.5c0.4-0.8,1-1.7,1.5-2.4c0.6-0.7,1.1-1.4,1.8-2
		c0.7-0.6,1.4-0.8,2.1-1c-0.1,0.6-0.3,1.1-0.6,1.5c-0.3,0.4-0.6,0.8-1,1.3c-0.3,0.4-0.7,0.7-1,1.1c-0.4,0.4-0.7,0.7-1,1.1
		c-0.1,0.3-0.3,0.7-0.4,1.1c-0.1,0.6-0.3,1.1-0.4,1.7c-0.1,0.6-0.3,1.1-0.3,1.7c-0.1,0.6-0.1,0.8-0.1,1.1c0,1.8,0.4,3.4,1.1,4.9
		c0.7,1.4,1.7,2.7,2.9,3.8c1.3,1.1,2.7,2,4.3,2.5c1.7,0.6,3.4,1,5.3,1h0.3c1,0,2-0.1,3.2-0.3c1.3-0.1,2.2-0.6,3.4-1
		c1.1-0.4,2.2-0.8,3.4-1.4c1.1-0.6,2.1-1.1,2.9-1.7c0.8-0.6,1.5-1.3,2.1-2c0.6-0.7,1-1.3,1.1-2c0-0.3,0.1-0.6,0.1-0.7
		c0-0.3,0-0.4,0-0.7c0-1-0.1-2-0.6-2.8s-0.8-1.7-1.3-2.5c-0.4-0.8-0.8-1.7-1.3-2.5c-0.4-0.8-0.6-1.8-0.6-2.9c0-0.4,0-0.8,0.1-1.3
		c0-0.4,0.1-0.8,0.4-1.4c0.7,0.4,1.3,1,1.8,1.7c0.6,0.7,1.1,1.5,1.7,2.2s1.1,1.4,1.7,2c0.6,0.6,1.4,0.8,2.2,0.8h0.4
		c0.6,0,0.8-0.1,1.1-0.4c0.3-0.3,0.6-0.6,0.7-1c0.1-0.4,0.4-0.8,0.6-1.3c0.1-0.4,0.4-1,0.8-1.5c0.3-0.4,0.7-0.8,1.3-1.5
		c0.6-0.7,1.3-1.4,2.1-2.1c0.8-0.7,1.5-1.4,2.4-2c0.8-0.6,1.7-1,2.4-1.3c0.6-0.1,1.3-0.3,1.8-0.4c0.6-0.1,1.3-0.1,1.8-0.1
		c1.1,0,2.1,0.1,3.2,0.3c1,0.3,2,0.6,2.9,1c0.8,0.4,1.7,0.8,2.4,1.4c0.7,0.6,1.3,1.1,1.5,1.7c0.4,0.6,0.6,1.3,0.8,2.1
		c0.3,0.8,0.3,1.7,0.3,2.5c0,0.7,0,1.4-0.1,2.1s-0.3,1.4-0.6,2c-0.3,0.6-0.6,1.1-0.8,1.7c-0.3,0.4-0.7,0.8-1.1,1.1
		c-1,0.6-2,1.1-3.2,1.4c-1.3,0.3-2.7,0.7-4.1,1c-1.4,0.3-2.9,0.4-4.5,0.6c-1.5,0.1-3.2,0.1-4.8,0.1c-1.5,0-3.1,0-4.6-0.1
		C283.2,78.1,281.8,77.9,280.4,77.8z M287.5,70.9c0.7,0.1,1.5,0.3,2.4,0.4c0.8,0.1,1.7,0.1,2.5,0.1c1,0,2.1,0,3.1-0.1
		c1-0.1,2.1-0.3,3.1-0.6s1.8-0.6,2.8-1c0.8-0.4,1.5-0.8,2.2-1.4c-0.7-1-1.5-1.5-2.7-2c-1.1-0.4-2.2-0.6-3.5-0.6
		c-1,0-2.1,0.1-3.2,0.4c-1.1,0.3-2.1,0.6-2.9,1.1c-0.8,0.4-1.7,1-2.4,1.7C288.2,69.5,287.8,70.2,287.5,70.9z"/>
	<path class="st0" d="M337.7,72.9c-1-1.4-1.7-2.7-2.5-3.9c-0.7-1.3-1.5-2.4-2.4-3.5c-0.8-1.1-1.8-2.1-2.8-3.1c-1-1-2.2-2-3.6-2.9
		c-0.6-0.4-1.3-0.8-1.8-1.1c-0.7-0.3-1.4-0.6-2.2-0.7c-0.6,0.4-1.3,0.7-1.7,1c-0.6,0.1-1.1,0.3-1.5,0.3c-1.1,0-2-0.4-2.8-1.1
		c-0.8-0.7-1.5-1.7-2-2.7c-0.6-1.1-1-2.2-1.3-3.5c-0.3-1.3-0.4-2.5-0.4-3.6c0-0.6,0-1,0.1-1.4c0-0.4,0.1-0.8,0.3-1.3
		c1.1,0.4,2.4,0.8,3.6,1.4c1.3,0.6,2.5,1.3,3.6,2c1.1,0.7,2.4,1.5,3.6,2.4c1.3,0.8,2.4,1.7,3.5,2.5c1.3,1,2.5,2.1,3.8,3.2
		c1.3,1.1,2.4,2.4,3.4,3.8c1,1.4,1.8,2.9,2.4,4.6c0.6,1.7,1,3.6,1,5.7C337.8,71.5,337.8,72.2,337.7,72.9z"/>
	<path class="st0" d="M347.2,27.2c0,0.6,0,1.1,0,1.4c0,0.4-0.1,0.7-0.1,1c-0.1,0.3-0.3,0.6-0.4,0.8c-0.1,0.3-0.3,0.6-0.4,1
		c-1.1,0.3-2.2,0.7-3.4,1.3c-1.1,0.6-2.1,1-3.2,1.5c-1.1,0.6-2.1,1-3.2,1.4c-1,0.4-2.1,0.7-3.2,0.8c-0.1-0.4-0.1-0.7-0.1-0.8
		c0-0.3,0-0.4,0-0.7c0-0.3,0.1-0.6,0.1-0.8c0-0.3,0-0.7,0-1.3c1.3-0.3,2.4-0.8,3.5-1.4c1.1-0.6,2.2-1.3,3.4-1.8
		c1.1-0.6,2.2-1.1,3.4-1.5C344.7,27.5,345.9,27.2,347.2,27.2z"/>
	<path class="st0" d="M355.3,73.7c1.1,0.1,2,0.6,2.5,1.3c0.6,0.7,0.8,1.3,0.8,2.1c0,0.4-0.1,0.8-0.3,1.3c-0.1,0.4-0.4,0.8-0.7,1.1
		c-0.3,0.3-0.7,0.6-1,0.8c-0.3,0.3-0.8,0.3-1.3,0.3h-0.6l0,0h-0.3c-0.3,0-0.4,0-0.6,0c-1.1,0-2.2-0.3-3.2-0.7c-1-0.4-1.8-1-2.7-1.5
		c-0.8-0.7-1.5-1.4-2.2-2.4c-0.7-0.8-1.3-1.8-1.7-2.9c-0.4,0.6-0.8,1.3-1.3,2c-0.3,0.7-0.7,1.3-1,2c-0.3,0.7-0.7,1.3-1.1,2
		c-0.4,0.6-1,1.1-1.5,1.7c-1.3,1.1-2.8,1.8-4.5,2.4c-1.7,0.6-3.5,0.7-5.3,0.7c-1.7,0-3.4-0.1-5.2-0.4c-1.7-0.3-3.4-0.7-5-1.3
		c0.7-0.7,1.5-1.3,2.7-1.5c1-0.3,2.1-0.6,3.2-0.8c1.1-0.3,2.2-0.4,3.4-0.7c1.1-0.3,2.2-0.6,3.2-0.8c0.4-0.1,0.8-0.4,1.4-0.6
		c0.4-0.3,1-0.4,1.4-0.7s0.8-0.4,1.3-0.7c0.4-0.3,0.8-0.4,1.1-0.7c1.1-0.7,2-1.7,2.8-2.8c0.8-1.1,1.4-2.2,1.7-3.6
		c0.1-0.4,0.1-0.8,0.1-1.4c0-0.4,0-1,0-1.4c0-1.5-0.1-2.9-0.6-4.6c-0.3-1.5-0.7-3.1-1.1-4.8c-0.4-1.7-0.7-3.2-1.1-4.8
		s-0.6-3.1-0.6-4.6c0-0.4,0.1-1,0.3-1.5c0.1-0.6,0.4-1.1,0.7-1.7c0.3-0.6,0.6-1,0.8-1.5c0.3-0.4,0.6-0.8,0.8-1.3l0.1-0.1
		c0.1,0,0.3,0.1,0.4,0.3c0.1,0.3,0.3,0.4,0.4,0.4c0.6,1.8,1,3.6,1.1,5.9c0.3,2.1,0.6,4.3,0.7,6.6c0.3,2.2,0.6,4.5,0.8,6.6
		c0.3,2.1,0.8,4.1,1.5,5.9c0.7,1.7,1.5,3.2,2.8,4.3s2.7,2,4.6,2.2c0.3,0,0.4,0.1,0.7,0.1c0.1,0,0.4,0,0.7,0h0.4V73.7z"/>
	<path class="st0" d="M369.6,44.6c0.6-0.7,1.3-1.3,2-1.7c0.8-0.4,1.5-0.8,2.4-1.3c0.8-0.4,1.7-0.8,2.4-1.3c0.7-0.4,1.4-1.1,1.8-1.8
		c-0.3-0.4-0.7-0.8-1.1-1s-1-0.3-1.5-0.3c-0.4,0-1,0-1.4,0.1c-0.6,0.1-1,0.3-1.4,0.4s-1,0.3-1.4,0.4s-0.8,0.3-1.1,0.4
		c-0.1-0.6-0.3-1.3-0.3-1.8c0-0.8,0.1-1.5,0.6-2.1c0.4-0.6,0.8-1.1,1.4-1.5c0.6-0.4,1.3-0.7,2-1c0.7-0.1,1.5-0.3,2.2-0.3
		c0.6,0,1.1,0,1.7,0.1c0.6,0.1,1.1,0.3,1.5,0.6s0.8,0.6,1.1,1c0.3,0.4,0.6,0.8,0.7,1.4c0.1,0.4,0.1,0.8,0.1,1.4c0,1-0.1,1.8-0.6,2.5
		c-0.4,0.7-0.8,1.4-1.4,2.1c-0.6,0.6-1.3,1.1-2,1.7c-0.7,0.6-1.5,0.8-2.4,1.1c-0.8,0.3-1.7,0.6-2.4,0.7c-0.7,0.1-1.5,0.3-2.2,0.3
		c-0.1,0-0.3,0-0.3,0S369.7,44.6,369.6,44.6z"/>
	<path class="st0" d="M354.8,80.4c-0.8-0.4-1.4-0.8-1.7-1.4c-0.4-0.6-0.6-1.3-0.6-2c0-0.7,0.1-1.3,0.6-2c0.4-0.6,1-1.1,1.7-1.5h2.1
		c0.8,0,1.8,0,2.8-0.1c1.1-0.1,2.2-0.3,3.4-0.6c1.1-0.3,2.4-0.6,3.6-1c1.3-0.4,2.4-1,3.5-1.5c-0.4-0.6-0.8-1-1.5-1.5
		c-0.7-0.6-1.3-0.8-2.1-1.1c-0.8-0.3-1.5-0.6-2.5-0.7c-0.8-0.1-1.7-0.3-2.7-0.3c-1.1,0-2.2,0.1-3.4,0.4s-2,0.7-2.7,1.4
		c0.4-1.3,0.8-2.2,1.4-3.1c0.6-0.8,1.1-1.5,1.8-2c0.7-0.4,1.4-0.8,2.2-1.1c0.8-0.3,1.7-0.3,2.5-0.3c1.3,0,2.5,0.1,3.8,0.6
		c1.3,0.4,2.8,0.7,4.2,1.3s2.9,1,4.5,1.7c1.5,0.6,3.1,1.1,4.6,1.7c1.5,0.6,3.1,1,4.6,1.3c1.5,0.3,2.9,0.6,4.5,0.6h0.7
		c0.3,0.6,0.3,1.1,0.3,1.8c0,0.8-0.1,1.5-0.4,2.2s-0.7,1.3-1.1,1.7h-0.1c-0.1,0.1-0.3,0.3-0.3,0.3h-0.1h-0.1h-0.1c-1,0-2,0-3.2,0
		c-1.3,0-2.5,0-3.8,0c-1.4,0-2.9,0-4.3,0.1c-1.4,0.1-2.8,0.3-3.9,0.7c-1.1,0.3-2.2,0.7-3.4,1.3c-1.3,0.6-2.5,1-3.8,1.5
		c-1.3,0.6-2.7,1-4.1,1.3c-1.4,0.4-2.8,0.6-4.2,0.6h-2.7V80.4z M374.6,52.8c1.3,0.1,2.2,0.4,3.1,0.8c0.8,0.4,1.5,1,2.2,1.7
		c0,1.1-0.1,2.1-0.4,3.1c-0.1,1-0.6,1.7-1.3,2.1h-0.4c-2.1,0-3.6-0.7-4.5-2c0-0.6,0.1-1.1,0.1-1.7s0-1,0.1-1.5c0-0.4,0.1-1,0.3-1.4
		C373.9,53.7,374.2,53.3,374.6,52.8z"/>
	<path class="st0" d="M409.1,88c0,0.6,0,1.1,0,1.4c0,0.4-0.1,0.7-0.1,1c-0.1,0.3-0.3,0.6-0.4,0.8c-0.1,0.3-0.3,0.6-0.4,1
		c-1.1,0.3-2.2,0.7-3.4,1.3c-1.1,0.6-2.1,1-3.2,1.5c-1.1,0.6-2.1,1-3.2,1.4c-1,0.4-2.1,0.7-3.2,0.8c-0.1-0.4-0.1-0.7-0.1-0.8
		c0-0.3,0-0.4,0-0.7c0-0.3,0.1-0.6,0.1-0.8c0-0.3,0-0.7,0-1.3c1.3-0.3,2.4-0.8,3.5-1.4c1.1-0.6,2.2-1.3,3.4-1.8
		c1.1-0.6,2.2-1.1,3.4-1.5C406.6,88.3,407.7,88,409.1,88z"/>
	<path class="st0" d="M419.6,72.9c-1-1.4-1.7-2.7-2.5-3.9c-0.7-1.3-1.5-2.4-2.4-3.5c-0.8-1.1-1.8-2.1-2.8-3.1s-2.2-2-3.6-2.9
		c-0.6-0.4-1.3-0.8-1.8-1.1c-0.7-0.3-1.4-0.6-2.2-0.7c-0.6,0.4-1.3,0.7-1.7,1c-0.6,0.1-1.1,0.3-1.5,0.3c-1.1,0-2-0.4-2.8-1.1
		c-0.8-0.7-1.5-1.7-2-2.7c-0.6-1.1-1-2.2-1.3-3.5c-0.3-1.3-0.4-2.5-0.4-3.6c0-0.6,0-1,0.1-1.4c0-0.4,0.1-0.8,0.3-1.3
		c1.1,0.4,2.4,0.8,3.6,1.4c1.3,0.6,2.5,1.3,3.6,2c1.1,0.7,2.4,1.5,3.6,2.4c1.3,0.8,2.4,1.7,3.5,2.5c1.3,1,2.5,2.1,3.8,3.2
		c1.3,1.1,2.4,2.4,3.4,3.8s1.8,2.9,2.4,4.6c0.6,1.7,1,3.6,1,5.7C419.7,71.5,419.6,72.2,419.6,72.9z"/>
	<path class="st0" d="M415.8,36.6c0.6-0.7,1.3-1.3,2-1.7c0.8-0.4,1.5-0.8,2.4-1.3s1.7-0.8,2.4-1.3c0.7-0.4,1.4-1.1,1.8-1.8
		c-0.3-0.4-0.7-0.8-1.1-1c-0.4-0.1-1-0.3-1.5-0.3c-0.4,0-1,0-1.4,0.1c-0.6,0.1-1,0.3-1.4,0.4c-0.4,0.1-1,0.3-1.4,0.4
		c-0.4,0.1-0.8,0.3-1.1,0.4c-0.1-0.6-0.3-1.3-0.3-1.8c0-0.8,0.1-1.5,0.6-2.1c0.4-0.6,0.8-1.1,1.4-1.5c0.6-0.4,1.3-0.7,2-1
		c0.7-0.3,1.5-0.3,2.2-0.3c0.6,0,1.1,0,1.7,0.1c0.6,0.1,1.1,0.3,1.5,0.6c0.4,0.3,0.8,0.6,1.1,1c0.3,0.4,0.6,0.8,0.7,1.4
		c0.1,0.4,0.1,0.8,0.1,1.4c0,1-0.1,1.8-0.6,2.5c-0.4,0.7-0.8,1.4-1.4,2.1c-0.6,0.6-1.3,1.1-2,1.7c-0.7,0.4-1.5,0.8-2.4,1.1
		c-0.8,0.3-1.7,0.6-2.4,0.7c-0.7,0.1-1.5,0.3-2.2,0.3c-0.1,0-0.3,0-0.3,0S416,36.6,415.8,36.6z"/>
	<path class="st0" d="M427.7,48.2c0.1,0.4,0.1,0.7,0.3,1.1c0,0.4,0.1,0.8,0.1,1.3c0,0.6,0,1-0.1,1.5c-0.1,0.6-0.3,1-0.6,1.4
		c-0.3,0.4-0.6,0.7-0.8,1c-0.4,0.3-0.8,0.3-1.4,0.3h-0.4c0.4,2.1,0.8,4.1,1.1,6.2c0.3,2.1,0.4,4.2,0.4,6.2c0,1.4-0.1,2.8-0.3,4.2
		c-0.1,1.4-0.6,2.7-1,3.8c-0.4,1.3-1,2.4-1.7,3.4c-0.7,1-1.5,2-2.7,2.8c-1.1,0.8-2.5,1.5-4.2,2s-3.5,0.6-5.3,0.6
		c-1.7,0-3.2-0.1-4.9-0.4s-3.2-0.7-4.8-1.1c0.6-0.7,1.4-1.3,2.2-1.7c0.8-0.4,1.8-0.7,2.8-0.8c1-0.3,2-0.4,3.1-0.6
		c1.1-0.1,2.1-0.4,2.9-0.8c1-0.4,2.1-0.8,3.2-1.4c1.1-0.6,2.2-1.3,3.4-2c1.1-0.7,2-1.4,2.8-2.2s1.3-1.7,1.5-2.5
		c0.1-0.6,0.1-1.1,0.1-1.8c0-1-0.1-2-0.3-3.1c-0.3-1.1-0.6-2.2-0.8-3.4c-0.3-1.1-0.6-2.4-1-3.6c-0.3-1.3-0.6-2.4-0.7-3.6v-0.3
		c-0.1-1.1-0.3-2.4-0.6-3.8c-0.1-1.3-0.3-2.5-0.3-3.8c0-0.8,0-1.7,0.1-2.4c0.1-0.7,0.3-1.4,0.6-1.8c0.6,0.4,1.3,0.8,1.7,1.4
		c0.6,0.6,1.1,1,1.5,1.5c0.4,0.6,1.1,1,1.7,1.4C426.5,47.5,427,47.9,427.7,48.2z"/>
	<path class="st0" d="M433,45.4c0-0.7,0.1-1.3,0.1-1.8c0-0.4,0.1-0.8,0.1-1c0-0.3,0.1-0.4,0.1-0.4c0-0.1,0.1-0.1,0.1-0.1
		c0.1-0.1,0.3-0.3,0.3-0.3c0.1-0.1,0.3-0.1,0.3-0.1c0.1,0,0.3,0.1,0.6,0.3c0.7,0.7,1.4,1.3,2.2,2s1.7,1.4,2.4,2.2
		c0.7,0.8,1.4,1.7,2,2.7c0.6,1,0.8,2.1,0.8,3.5c0,0.3,0,0.6-0.1,1v0.1c0,0.4-0.1,0.7-0.3,0.7c-0.1,0-0.4,0.1-0.7,0.1
		c-0.3,0-0.6,0.1-0.7,0.3c-0.3,0.1-0.4,0.3-0.6,0.4c0.1,1.7,0.4,3.4,0.8,5c0.4,1.7,0.8,3.4,1.4,5c0.4,1.7,1,3.4,1.3,5
		c0.4,1.7,0.6,3.4,0.6,5c0,0.8,0,1.7-0.1,2.7c-0.1,0.8-0.3,1.7-0.7,2.7c-0.6-0.3-0.8-0.7-1.1-1.1c-0.3-0.4-0.4-0.8-0.6-1.3
		c-0.1-0.4-0.1-0.8-0.3-1.3c0-0.4-0.1-0.8-0.1-1.3c-0.1-1.1-0.4-2.2-0.7-3.5c-0.3-1.3-0.7-2.7-1.1-4.1c-0.4-1.4-0.8-2.8-1.3-4.2
		c-0.4-1.4-0.8-2.8-1.3-4.2c-0.3-1.1-0.6-2.1-1-3.2s-0.8-2.2-1.1-3.4c-0.4-1.1-0.7-2.4-1-3.5c-0.3-1.1-0.4-2.4-0.4-3.5V45.4z"/>
	<path class="st0" d="M449.1,34.2c0.3-0.7,0.7-1.3,1.3-1.7c0.6-0.4,1.1-0.7,1.8-1c0.7-0.3,1.3-0.7,1.8-1c0.6-0.4,1-0.8,1.4-1.5
		c-0.8-0.6-1.4-1.3-1.8-2.2c-0.4-0.8-0.6-2-0.6-2.9c0-1,0.1-2.1,0.4-3.1s0.7-2,1.4-2.8c0.7-0.8,1.3-1.5,2-2.1
		c0.7-0.6,1.5-0.8,2.4-0.8c0.7,0,1.3,0.1,2,0.6c0.7,0.4,1.4,1,2.1,1.7c0.1,0.6,0.3,1.1,0.3,1.5c0,0.6,0.1,1,0.1,1.5
		c0,1.8-0.4,3.5-1.3,5c-0.8,1.5-1.8,2.8-3.1,3.9c-0.7,0.7-1.4,1.3-2.4,1.8c-0.8,0.6-1.7,1.1-2.7,1.5c-0.8,0.4-1.8,0.8-2.7,1.1
		S449.8,34.2,449.1,34.2z M460.5,22.2c0-0.3-0.1-0.6-0.3-0.8c-0.1-0.3-0.4-0.4-0.7-0.6c-0.3-0.1-0.6-0.3-0.8-0.4
		c-0.3-0.1-0.7-0.1-1-0.1c-0.3,0-0.4,0-0.7,0c-0.1,0-0.4,0.1-0.6,0.3c-0.4,0.3-0.7,0.4-0.8,0.7s-0.3,0.4-0.3,0.7s0.1,0.6,0.3,0.8
		c0.1,0.3,0.4,0.6,0.7,0.7c0.3,0.3,0.7,0.4,1,0.6c0.4,0.1,0.7,0.1,1.1,0.1s0.8-0.1,1.3-0.4c0.4-0.3,0.6-0.7,0.6-1.4v-0.1H460.5z"/>
	<path class="st0" d="M468.2,52.1c-0.4,0.7-1,1.4-1.7,2c-0.6,0.6-1.3,1.1-1.8,1.7c-0.7,0.6-1.3,1.1-1.8,1.7c-0.6,0.6-1.1,1.3-1.5,2
		c0.7,0.8,1.5,1.8,2.4,2.5c0.8,0.8,1.7,1.7,2.4,2.7c0.7,1,1.3,2,1.8,3.2c0.4,1.1,0.7,2.5,0.7,4.2c0,1.3-0.3,2.5-1,3.5
		s-1.5,1.8-2.7,2.7c-1.1,0.7-2.2,1.3-3.5,1.7c-1.3,0.4-2.5,0.6-3.8,0.7h-0.3c-1.3,0-2.2-0.3-3.1-0.7c-0.8-0.4-1.5-1-2.1-1.7
		c-0.6-0.7-1-1.5-1.1-2.4c-0.3-1-0.4-1.8-0.4-2.9c0-1.5,0.3-3.1,0.7-4.6c0.4-1.5,1.3-2.9,2.1-4.2c-0.4-0.4-1-0.8-1.4-1.3
		c-0.6-0.4-1-1-1.5-1.5c-0.4-0.6-0.8-1.1-1.3-1.8c-0.4-0.7-0.4-1.4-0.4-2.1c0-0.8,0.3-1.8,0.7-2.8c1,0.1,1.8,0.3,2.5,0.6
		c0.7,0.3,1.4,0.7,2.1,1c0.7,0.3,1.4,0.7,2,1.1c0.7,0.4,1.4,0.7,2.2,0.8c0.8-0.4,1.7-0.8,2.5-1.3c0.8-0.4,1.7-1,2.4-1.4
		c0.8-0.4,1.5-1,2.4-1.5C466.5,53,467.4,52.6,468.2,52.1z M466.4,48.8c-0.3,0-0.4,0.1-0.7,0.1c-0.3,0-0.4,0-0.6,0
		c-0.6,0-1.1-0.1-1.7-0.3c-0.6-0.3-1-0.4-1.4-0.7c-0.4-0.3-1-0.6-1.4-0.8c-0.4-0.3-1.1-0.4-1.7-0.6c-0.4,0-0.8,0.3-1,0.6
		c-0.1,0.3-0.4,0.7-0.6,1c-0.1,0.4-0.3,0.7-0.6,1.1c-0.3,0.4-0.6,0.6-1,0.7c-0.7,0-1.3-0.1-1.8-0.3c-0.6-0.1-1-0.3-1.5-0.6
		c-0.4-0.3-0.8-0.4-1.3-0.7c-0.4-0.3-0.8-0.6-1.3-0.7v-0.4c0-1.1,0.1-2,0.3-2.8c0.1-0.8,0.4-1.7,0.6-2.5l0.1-0.3c0.1,0,0.3,0,0.3,0
		s0.1,0,0.3,0c0.4,0,1,0.1,1.5,0.3c0.6,0.1,1,0.3,1.5,0.6c0.6,0.3,1,0.4,1.5,0.7c0.6,0.3,1,0.4,1.4,0.6c0.4,0,0.8-0.1,1.1-0.4
		c0.3-0.3,0.6-0.4,0.7-0.8c0.1-0.4,0.3-0.7,0.4-1c0.1-0.4,0.3-0.7,0.4-1.1c1,0,2,0.1,2.8,0.4s1.5,0.6,2.2,1c0.6,0.4,1.1,1,1.4,1.7
		c0.4,0.7,0.6,1.4,0.6,2.2C467.2,46.5,466.9,47.5,466.4,48.8z M456.3,65c-0.4,0.4-0.7,0.7-1,1.1c-0.3,0.4-0.7,0.8-0.8,1.3
		c-0.3,0.4-0.4,1-0.7,1.5c-0.1,0.6-0.3,1.3-0.3,2v0.3c0.4,0.6,1.1,1,2.1,1.3s2,0.4,3.1,0.4c0.7,0,1.4,0,2-0.1
		c0.7-0.1,1.3-0.3,1.8-0.6c0.6-0.3,1-0.6,1.4-0.8c0.4-0.3,0.7-0.7,0.8-1.3c-1.1-1.1-2.4-2.2-3.6-3.2c-1.3-1-2.8-1.8-4.5-2.4
		L456.3,65z"/>
	<path class="st0" d="M491,44.4c0,0.6,0,1.1,0,1.4c0,0.4-0.1,0.7-0.1,1c-0.1,0.3-0.3,0.6-0.4,0.8c-0.1,0.3-0.3,0.6-0.4,1
		c-1.1,0.3-2.2,0.7-3.4,1.3c-1.1,0.6-2.1,1-3.2,1.5c-1.1,0.6-2.1,1-3.2,1.4c-1,0.4-2.1,0.7-3.2,0.8c-0.1-0.4-0.1-0.7-0.1-0.8
		c0-0.3,0-0.4,0-0.7c0-0.3,0.1-0.6,0.1-0.8c0-0.3,0-0.7,0-1.3c1.3-0.3,2.4-0.8,3.5-1.4c1.1-0.6,2.2-1.3,3.4-1.8
		c1.1-0.6,2.2-1.1,3.4-1.5C488.5,44.7,489.6,44.4,491,44.4z"/>
	<path class="st0" d="M488.6,60.1h0.7c1.3,0.7,2.2,1.5,3.2,2.4c0.8,0.8,1.7,1.8,2.2,2.9c0.6,1,1,2.1,1.3,3.4
		c0.3,1.1,0.4,2.4,0.4,3.5c0,1.5-0.3,3.2-0.7,4.8c-0.6,1.5-1.3,2.9-2.2,4.2c-1,1.3-2.1,2.4-3.5,3.4s-2.9,1.7-4.8,2
		c-0.6,0.1-1.1,0.1-1.7,0.3c-0.6,0-1.1,0.1-1.8,0.1c-1.7,0-3.5-0.1-5.3-0.4c-1.8-0.3-3.8-0.6-5.6-0.8c1.5-0.7,3.4-1.3,5.3-1.8
		c2-0.6,3.8-1.1,5.7-1.7c2-0.6,3.6-1.3,5.5-1.8c1.7-0.7,3.1-1.5,4.2-2.4c0.8-0.7,1.5-1.4,1.8-2.1c0.4-0.7,0.6-1.3,0.6-1.8
		c0-0.8-0.3-1.7-0.8-2.5c-0.6-0.8-1.1-1.7-1.8-2.5s-1.3-1.8-1.8-2.9s-0.8-2.2-0.8-3.5c0-0.3,0-0.7,0-1
		C488.4,61,488.5,60.5,488.6,60.1z"/>
	<path class="st0" d="M507.4,55.4c0.6-0.7,1.3-1.3,2-1.7c0.8-0.4,1.5-0.8,2.4-1.3c0.8-0.4,1.7-0.8,2.4-1.3c0.7-0.4,1.4-1.1,1.8-1.8
		c-0.3-0.4-0.7-0.8-1.1-1c-0.4-0.1-1-0.3-1.5-0.3c-0.4,0-1,0-1.4,0.1c-0.6,0.1-1,0.3-1.4,0.4c-0.4,0.1-1,0.3-1.4,0.4
		c-0.4,0.1-0.8,0.3-1.1,0.4c-0.1-0.6-0.3-1.3-0.3-1.8c0-0.8,0.1-1.5,0.6-2.1c0.4-0.6,0.8-1.1,1.4-1.5c0.6-0.4,1.3-0.7,2-1
		c0.7-0.3,1.5-0.3,2.2-0.3c0.6,0,1.1,0,1.7,0.1c0.6,0.1,1.1,0.3,1.5,0.6c0.4,0.3,0.8,0.6,1.1,1c0.3,0.4,0.6,0.8,0.7,1.4
		c0.1,0.4,0.1,0.8,0.1,1.4c0,1-0.1,1.8-0.6,2.5c-0.4,0.7-0.8,1.4-1.4,2.1c-0.6,0.6-1.3,1.1-2,1.7c-0.7,0.4-1.5,0.8-2.4,1.1
		c-0.8,0.3-1.7,0.6-2.4,0.7c-0.7,0.1-1.5,0.3-2.2,0.3c-0.1,0-0.3,0-0.3,0S507.5,55.4,507.4,55.4z"/>
	<path class="st0" d="M524.9,73.7h1.3c0.3,0.1,0.6,0.3,0.8,0.6s0.6,0.4,0.7,0.8c0.3,0.3,0.4,0.7,0.6,1c0.1,0.4,0.3,0.7,0.3,1.1
		c0,0.3,0,0.6-0.1,1c0,0.3-0.1,0.7-0.4,1c-0.1,0.3-0.4,0.6-0.7,0.8c-0.3,0.3-0.7,0.6-1.1,0.7c-0.3,0-0.6,0-1.1,0c-0.4,0-1,0-1.4,0
		s-0.8,0.1-1.3,0.1c-0.4,0.1-0.6,0.3-0.7,0.4c-0.6,2-1.3,3.8-2.2,5.5c-0.8,1.7-2,3.2-3.2,4.5s-2.7,2.4-4.3,3.1
		c-1.7,0.7-3.6,1.1-5.9,1.3h-0.4c-0.8,0-1.8,0-2.8-0.1s-2-0.1-2.9-0.3c-1-0.1-2-0.3-2.9-0.3s-2-0.1-2.9-0.1c1.1-0.8,2.2-1.4,3.5-1.8
		c1.3-0.4,2.7-0.8,4.1-1.3s2.8-0.8,4.2-1.1c1.4-0.4,2.7-0.8,3.9-1.5l0.8-0.4c0.7-0.4,1.5-0.7,2.2-1.1c0.8-0.4,1.5-0.8,2.1-1.4
		c0.7-0.6,1.3-1.1,1.7-1.8s0.7-1.4,0.8-2.4c-0.7-0.1-1.5-0.4-2.4-0.4c-0.8-0.1-1.7-0.3-2.7-0.4c-0.8-0.1-1.8-0.4-2.7-0.6
		c-0.8-0.3-1.5-0.6-2.2-1.1c-0.4-0.8-0.6-1.8-0.8-2.8c-0.1-1-0.3-2-0.3-2.9c0-1,0.1-2,0.3-2.9c0.1-1,0.6-1.8,1-2.5s1-1.4,1.5-1.8
		c0.7-0.4,1.4-0.7,2.2-0.8c0.1,0,0.3,0,0.3,0s0.1,0,0.3,0c1.1,0,2,0.3,2.8,0.7c0.8,0.6,1.5,1.1,2.1,2c0.6,0.8,1.1,1.7,1.7,2.5
		c0.6,0.8,1,1.8,1.5,2.7c0.3,0.4,0.6,0.6,1,0.7c0.4,0.1,0.8,0.1,1.3,0.1h2.7V73.7z"/>
	<path class="st0" d="M534.7,54.1c0.3-0.7,0.7-1.3,1.3-1.7s1.1-0.7,1.8-1c0.7-0.3,1.3-0.7,1.8-1c0.6-0.4,1-0.8,1.4-1.5
		c-0.8-0.6-1.4-1.3-1.8-2.2c-0.4-0.8-0.6-2-0.6-2.9s0.1-2.1,0.4-3.1c0.3-1,0.7-2,1.4-2.8s1.3-1.5,2-2.1c0.7-0.6,1.5-0.8,2.4-0.8
		c0.7,0,1.3,0.1,2,0.6c0.7,0.4,1.4,1,2.1,1.7c0.1,0.6,0.3,1.1,0.3,1.5c0,0.6,0.1,1,0.1,1.5c0,1.8-0.4,3.5-1.3,5
		c-0.8,1.5-1.8,2.8-3.1,3.9c-0.7,0.7-1.4,1.3-2.4,1.8c-0.8,0.6-1.7,1.1-2.7,1.5c-0.8,0.4-1.8,0.8-2.7,1.1
		C536.4,54,535.4,54,534.7,54.1z M546.2,41.9c0-0.3-0.1-0.6-0.3-0.8c-0.1-0.3-0.4-0.4-0.7-0.6s-0.6-0.3-0.8-0.4
		c-0.3-0.1-0.7-0.1-1-0.1s-0.4,0-0.7,0c-0.1,0-0.4,0.1-0.6,0.3c-0.4,0.3-0.7,0.4-0.8,0.7c-0.1,0.3-0.3,0.4-0.3,0.7
		c0,0.3,0.1,0.6,0.3,0.8c0.1,0.3,0.4,0.6,0.7,0.7c0.3,0.3,0.7,0.4,1,0.6c0.4,0.1,0.7,0.1,1.1,0.1s0.8-0.1,1.3-0.4
		c0.4-0.3,0.6-0.7,0.6-1.4v-0.1H546.2z"/>
	<path class="st0" d="M525.6,80.4c-1-0.4-1.7-0.8-2.1-1.5s-0.7-1.3-0.7-2s0.3-1.4,0.7-2c0.4-0.6,1.1-1.1,2.1-1.4h1.3
		c0.8,0,1.8-0.3,2.7-0.8c0.8-0.4,1.8-1.1,2.7-1.7c0.8-0.7,1.7-1.4,2.5-2.2s1.5-1.5,2.1-2.2c0.4,0.4,0.8,0.8,1.3,1.4
		c0.3,0.6,0.7,1,1,1.5c0.4,0.6,0.7,1,1.1,1.3c0.4,0.3,1,0.6,1.7,0.6h0.4c0.6,0,1-0.3,1.3-0.6c0.3-0.3,0.6-0.7,0.8-1.1
		c0.3-0.4,0.4-0.8,0.7-1.4c0.3-0.6,0.6-1,0.8-1.4c0.7,0.1,1.3,0.4,1.7,1c0.4,0.4,0.8,1,1.1,1.4c0.4,0.6,0.8,1,1.3,1.4
		c0.4,0.4,1.1,0.6,2,0.6c0-0.1,0.1-0.3,0.1-0.6c0-0.1,0-0.4,0-0.7c0-0.4,0-0.8,0-1.3c0-0.4,0-1,0-1.4c0-0.7,0.1-1.3,0.3-1.7
		c0.1-0.6,0.6-0.8,1.1-1c0.7,0.7,1.4,1.8,1.7,3.1c0.4,1.4,0.6,2.7,0.6,4.1c0,0.8-0.1,1.7-0.3,2.5c-0.1,0.8-0.4,1.5-0.8,2.2
		c-0.4,0.7-0.8,1.1-1.4,1.5c-0.6,0.4-1.3,0.6-2,0.6H551c-0.6,0-1-0.1-1.4-0.3c-0.4-0.1-0.7-0.4-0.8-0.7c-0.3-0.3-0.6-0.6-0.8-0.8
		c-0.3-0.3-0.7-0.6-1.1-0.8c-0.4,0.3-0.8,0.7-1.3,1c-0.4,0.4-0.8,0.7-1.3,1c-0.4,0.3-0.8,0.6-1.4,0.7c-0.4,0.1-1,0.3-1.5,0.3
		c-0.1,0-0.3,0-0.4,0s-0.3,0-0.3,0c-0.6-0.1-1.1-0.3-1.4-0.7c-0.3-0.3-0.6-0.7-0.8-1c-0.3-0.4-0.6-0.7-0.8-1.1
		c-0.3-0.4-0.7-0.7-1.1-1c-0.7,0.4-1.4,1-2.2,1.7c-0.8,0.7-1.7,1.1-2.7,1.7c-1,0.6-1.8,1-2.8,1.4C527.6,80.3,526.6,80.4,525.6,80.4z
		"/>
</g>
<g>
	<g>
		<path class="st1" d="M409.7,378.4c-1.2,2.3-2.3,3.5-3.7,4c-1.4,0.5-2.6,0.2-3.7-0.7c-0.7-0.5-1.4-1.6-1.9-3.3
			c-0.2-0.9-0.5-4-0.7-8.9c0-0.9,0-3,0-5.8l0.2-10.8c0-0.9,0.2-2.1,0.9-3.5c0.9-2.1,1.2-3.3,1.2-3.3h0.2c0,0,0,0,0.2,0
			c0.2,0.2,0.5,0.2,0.7,0.5c-0.7,6.1-0.9,12.9-0.7,20.6c0,1.2,0.2,2.6,0.7,4.7c0.5,1.9,1.6,3,3,3.3c0.2,0,0.5,0.2,0.7,0.2
			c0.9,0,1.9-0.7,2.8-2.1c0.2-0.5,0.5-0.9,0.7-1.9c0.2-0.2,0.2-0.2,0.5-0.7c0.2,0,0.5,0.5,0.7,0.9
			C411.5,373.1,410.8,375.6,409.7,378.4z M405.2,356.7v-0.5l4.4-4.2l0.5,0.2c0.9,0.9,2.3,2.1,4.2,4c0,0.2-0.2,0.9-0.9,1.6l-3,2.8
			c-0.5,0.2-0.9,0.2-1.4-0.2C406.9,359,405.7,357.9,405.2,356.7z"/>
		<path class="st1" d="M416.5,381.5l0.7-0.5c2.1-0.9,5.4-2.3,9.6-4.4c1.2-0.9,2.1-1.6,2.1-2.3c0.2-0.9,0-1.6-0.7-2.3
			c-0.2-0.2-0.7-0.2-1.2-0.2c-0.5,0-0.9,0-0.9,0c-1.6-0.2-2.3-0.9-2.6-2.1c-0.2-0.9,0-2.3,0.7-3.7c0.9-1.9,1.2-3,1.4-3.5
			c0.5-0.7,0.7-1.2,0.7-1.2c0.5-0.5,0.7-0.7,1.2-0.7c0.9-0.2,1.9,0,2.8,1.2c0.9,1.2,1.4,3.3,1.6,5.8c0.5,0,1.2-0.5,2.3-1.2
			c2.6-2.1,4.9-4.7,6.5-7.5c0.9-1.2,1.9-1.6,2.6-1.6c0.2,0,0.5,0,0.7,0.2c0.2,0.2,0.5,0.5,0.9,0.9c0.5,0.5,0.7,0.7,0.9,0.7
			s0.2,0,0.5-0.2c0.2,0,0.5-0.5,0.7-1.4c0.2-0.7,0.7-0.9,1.4-0.7c0.2,0.2,0.5,0.5,0.7,0.9c0,0.2,0,0.7,0,0.9c0,1.9-0.7,3.5-2.1,4.7
			c-0.9,0.5-1.9,0.2-2.8-0.2c-0.2,0-0.5-0.5-0.7-0.9c-0.5-0.5-0.7-0.7-1.2-0.5c-0.7,0.5-1.4,1.2-2.3,2.3c-1.4,1.6-1.9,2.6-2.1,2.6
			c-1.4,1.6-2.3,2.6-3,3.3c-1.2,1.2-2.3,2.1-3.3,2.8c-0.5,1.9-1.6,4.4-3.3,7.5c-0.7,1.2-1.9,1.9-3.5,2.1c-1.4,0.2-2.8,0.2-4.4,0.5
			c-0.2,0-0.9,0-2.1,0.2c-0.7,0.2-1.4,0.2-1.9,0.2C416.5,382.4,416.2,381.9,416.5,381.5z M445,365.3l-0.2,0.5
			c-1.4,2.6-2.1,4-2.3,4.2c-0.7,1.6-1.2,3.3-1.2,4.7c0,0.2,0.2,0.7,0.5,1.2c0.2,0.2,0.5,0.2,0.9,0.2c0.2-0.2,0.5-0.5,0.7-1.4
			c0.2-0.7,0.5-0.9,0.9-0.9c0.2,0,0.2,0,0.5,0.2c0.2,0.5,0.5,0.9,0.5,1.6c0,1.2-0.2,2.1-0.9,3s-1.4,1.6-2.6,1.6
			c-0.9,0.2-1.9-0.5-2.6-1.6c-0.2-0.9-0.5-1.6-0.5-2.6c0-1.9,0.9-4.4,2.6-7.9c0.5-0.9,1.4-2.1,2.6-3.7
			C444.7,364.9,445,364.9,445,365.3z"/>
		<path class="st1" d="M487.8,341.5c0.9,1.6,1.2,3.3,1.2,5.4c0,1.6-0.2,3.7-0.9,5.6c-0.5,1.4-1.2,3.3-2.3,6.1c0,0.9,0.2,1.4,0.7,1.9
			c0.9,0.5,1.9,0.7,2.8,1.2c1.2,0.5,1.9,1.2,2.1,2.1c0.5,0.9,0.7,2.3,0.7,3.5c0,1.4-0.2,3-0.7,4.7c-0.9,4-2.6,7.5-4.9,10.8
			c-2.6,3.5-5.8,5.8-9.4,7c-0.9,0.2-2.1,0.5-3,0.5c-2.3,0-4.4-0.7-5.8-2.3c-2.6-2.6-3.7-6.1-3.7-10.8c0-3.5,0.7-7.5,2.1-12.4
			c0.9-3.3,1.9-5.8,2.8-7.9c0.2-0.5,0.5-0.5,0.9-0.2c0.2,0.2,0.2,0.7,0,1.2c-1.9,6.5-2.8,11.2-2.8,14c0,2.1,0.2,4.2,0.9,5.8
			c0.5,1.2,1.2,2.3,2.6,3.3c1.2,0.9,2.6,1.4,4,1.4c5.4,0,9.6-2.1,12.6-6.1c1.6-2.1,2.3-3.7,2.6-5.1c0-1.2-0.7-1.9-1.9-2.1
			c-1.6-0.5-2.8-0.9-3-1.2c-1.2-0.9-1.9-2.3-1.9-4.2c0,0.5,0.2-0.9,0.5-4.2c0.2-0.7,0.5-1.9,1.2-3.3c0.7-1.4,0.9-2.6,0.9-3.5
			c0-0.5,0-0.7-0.2-1.2c-0.2-0.5-0.5-0.5-1.2-0.5c-0.9,0-1.4,0-1.4,0c-1.4-0.2-2.3-0.9-2.8-1.9c-0.2-0.5-0.2-0.7-0.2-1.2
			c0-0.7,0.2-1.4,0.7-2.1c0.5-1.2,0.9-1.9,0.9-2.1c0.5-1.4,0.7-2.1,0.9-2.6c0.5-0.9,1.2-1.4,2.1-1.6
			C486.1,339.6,487.1,340.3,487.8,341.5z M478.4,331.7v-0.5c0.9-1.4,2.3-3,4-4.9h0.5c1.4,1.2,3,2.6,4.9,3.7v0.2
			c-0.7,1.2-1.9,2.8-3.7,4.9c-0.2,0.2-0.5,0.2-0.7,0.2s-0.9-0.2-2.1-0.9C480.5,333.8,479.6,333.1,478.4,331.7z"/>
		<path class="st1" d="M505.1,361.6L505.1,361.6c0.9-0.2,1.9-0.2,2.8-0.2c2.3,0,4,0.7,5.4,2.1c0.9,0.9,1.4,2.3,1.4,4.2
			c0,0.9-0.2,2.1-0.5,3.7c-0.2,0.7-0.9,2.1-1.6,4.7c-0.5,1.9-1.2,3.3-1.9,4.2c-1.2,1.6-2.6,2.3-4.7,2.3c-0.2,0-0.7,0-0.9,0
			c-2.6-0.7-4.2-3.3-4.7-8.2c-0.2-1.4-0.2-3-0.2-4.9c0-1.9,0-4.2,0.2-7.7c0.2-3.5,0.2-6.1,0.2-7.7c-0.2-1.2,0-2.6,0.7-4.2
			c0.9-2.3,1.4-3.7,1.4-4l0.2-0.2c0.5,0,0.7,0.2,0.7,0.5c-0.7,5.4-1.2,10.8-0.9,15.9l0.2-0.2c0-0.2,0.2-0.2,0.2-0.2
			c0-0.2,0.5-0.9,1.2-2.1c1.2-1.9,4.2-4.9,8.9-9.1c0.2-0.2,2.3-1.9,5.8-4.9c2.3-2.1,4.2-3.7,5.6-5.6c0.2-0.5,0.7-1.2,1.4-1.6
			c0.2,0,0.2,0.2,0.5,0.5v0.9c-0.7,1.9-1.6,3.7-3,5.6c-1.9,2.1-4.7,4.4-7.9,7.2c-5.4,4.4-8.2,6.5-8.2,6.8
			C506,360,505.3,360.7,505.1,361.6z M511.8,370.7c-0.9-1.4-2.1-2.1-3.7-2.6c-2.1-0.2-4,0.2-4.9,1.6c-0.2,0.7-0.2,1.6,0.2,3
			c0.9,1.6,2.3,2.6,4,2.8c2.1,0,3.5-1.2,4.7-3.3C512.1,371.7,512.1,371.2,511.8,370.7z"/>
		<path class="st1" d="M547.1,389.7c0.5-0.5,0.7-0.7,0.7-0.7c0.2,0,0.5,0.2,0.9,0.7c1.6,1.6,3,2.6,4.2,3.3c0,0,0.2-0.2,0.7-0.7
			c1.6-1.9,2.6-2.8,2.8-3c0,0,0.2,0.2,0.7,0.5c1.4,1.2,2.8,2.3,4,3.3c0,0,0,0.2,0,0.5s-0.5,0.7-1.2,1.6l-0.5,0.5
			c-1.4,1.6-2.1,2.6-2.3,2.6c0,0-0.2,0-0.5,0c-0.7,0-1.6-0.5-2.8-1.6c-0.9-0.7-1.4-1.4-1.6-1.9c-0.2-0.2-0.2-0.2-0.2-0.5
			c0,0-0.7,0.5-1.6,1.6s-1.6,1.6-1.6,1.9c-0.5,0-0.9,0-1.4-0.2c-0.9-0.5-1.9-1.2-2.8-2.1c-0.7-0.7-1.2-1.2-1.2-1.4
			C543.6,393.6,544.8,392.2,547.1,389.7z"/>
		<path class="st1" d="M560.7,351.6c-0.2-4.9-0.2-10.5,0-16.6c0-0.2,0.2-0.9,0.7-1.9l1.2-2.8c0.5-0.9,0.7-1.6,0.9-1.9
			c0.2-0.2,0.2-0.2,0.5,0c0.2,0.9,0.2,1.9-0.2,3.5c0,6.1-0.2,12.2-0.2,18.2c-0.2,4.4-1.6,8.2-3.7,11.5c-0.7,1.2-1.6,1.9-2.8,2.6
			c-1.4,0.7-3,0.9-4.9,0.5c-0.9-0.5-1.9-0.7-2.3-1.2c0,0-0.2,0.2-0.5,0.7c-0.9,1.6-1.9,2.8-2.8,3.5l-6.1,2.8
			c-0.7,0.5-1.4,0.9-2.1,1.4c-0.7,0.7-0.9,1.2-1.2,1.6c0,0.2,0.2,0.7,0.9,0.9c1.6,0.7,4,1.2,7,1.4c11.9,0.2,24.5,0.2,37.6,0.2
			c2.3-0.2,4-0.2,4.9,0c0,0-0.2,0.5-0.7,0.9c-3,2.3-7,4-12.2,4.4c-0.5,0-2.3,0.2-5.1,0.5l-4.2,0.5H560c-3.5,0-6.3,0.2-8.2,0.2
			c-6.8,0.5-12.4,0-16.6-1.2c-1.4-0.5-2.3-1.2-3-2.3c-0.2-0.5-0.2-1.2,0-1.9c0.5-1.4,1.4-3,2.8-4.9c1.2-1.6,2.3-2.8,3.5-3.7
			c0.9-0.7,2.3-1.4,4.2-2.6c1.6-0.9,2.6-1.4,2.8-1.6c1.2-0.7,2.1-2.1,2.8-4c0.7-1.2,0.9-1.9,1.2-2.1c0.2-0.2,0.5-0.2,0.7,0
			c0.2,0.2,0.2,0.7,0.2,1.4l0.7,0.2c1.9,0.9,4,0.9,5.8,0.2c0.5-0.2,0.9-0.7,1.4-1.2C560,357.4,560.7,354.8,560.7,351.6z"/>
		<path class="st1" d="M632,341.3l9.1-4c1.2-0.7,2.3-1.2,3.7-1.9s2.6-1.6,3.5-2.3c0.2,0,0.5,0,0.5,0.2c0.2,0.2-0.2,0.9-0.7,1.6
			c-1.9,2.3-4.4,4.2-7.2,5.6c-3,1.4-7.7,3.5-13.8,6.3c-1.6,0.9-2.6,1.9-2.8,3.3c-0.2,0.9-0.2,2.8-0.5,5.4c-0.2,2.3-0.2,4.2-0.7,5.4
			c-0.9,3.5-2.8,6.1-5.8,7.2c-1.4,0.7-2.8,1.2-4.2,1.9c-1.6,0.9-2.8,1.9-3.3,3.3c0,0.2,0.2,0.7,0.9,1.2c1.6,0.5,3.5,0.9,6.3,0.9
			c4.2,0.2,6.3,0.5,6.5,0.5h12.2l11.2-0.5l7.7-0.5c0.2,0,0.5,0,0.5,0.2l-0.2,0.5c-3.5,2.8-7.7,4.4-12.6,5.1l-9.8,0.9l-11.2,0.7
			c-1.6,0.2-3,0.2-4.4,0.2c-4,0-7.5-0.7-9.8-1.9c-1.4-0.7-1.9-1.4-1.9-2.6c0-0.9,0.5-1.9,0.9-3c0.5-0.9,1.2-1.9,1.9-2.8
			c0.9-1.6,2.6-3,4.4-4.4c0.9-0.7,2.8-1.6,5.6-3.3c2.3-1.2,3.5-2.8,3.5-4.9c0-1.6,0-3.3,0-5.1s0.5-3.5,0.9-4.7
			c1.2-3,2.8-5.1,4.7-6.3C627.8,343.1,629.7,342.2,632,341.3z"/>
		<path class="st1" d="M692.5,357.2L692.5,357.2c0,0.2,0,0.7-0.2,1.2c-0.2,0.9-0.7,1.6-0.9,2.1c-0.5,0.7-0.7,1.4-1.4,1.9
			c0,0-0.5,0.5-1.4,0.9c-0.9,0.5-2.6,0.9-5.1,1.4c-2.3,0.5-4,0.9-5.1,1.6c-3,1.4-4.9,2.8-5.4,4.9c-0.2,1.2-0.5,2.8-0.5,4.9
			c0,1.6,0,3.3-0.2,5.1c0,1.4,0,3.5,0.2,6.3c0,1.4-0.2,6.3-0.7,14.5c0,0.7-0.2,1.6-0.7,2.6c-0.2,0-0.5,0-0.5-0.2
			c0-7.2-0.2-14.7-0.7-22.2c0.2-4,0.5-6.8,0.7-8.4c0.7-3.3,1.6-5.8,3.5-7.7c2.1-3,4.9-5.1,8.4-6.5c0.9-1.9,2.1-4,3.5-5.8
			c1.2,0.5,2.8,1.4,5.1,2.6C691.8,356,692.1,356.5,692.5,357.2z"/>
		<path class="st1" d="M702.8,361.6L702.8,361.6c0.9-0.2,1.9-0.2,2.8-0.2c2.3,0,4,0.7,5.4,2.1c0.9,0.9,1.4,2.3,1.4,4.2
			c0,0.9-0.2,2.1-0.5,3.7c-0.2,0.7-0.9,2.1-1.6,4.7c-0.5,1.9-1.2,3.3-1.9,4.2c-1.2,1.6-2.6,2.3-4.7,2.3c-0.2,0-0.7,0-0.9,0
			c-2.6-0.7-4.2-3.3-4.7-8.2c-0.2-1.4-0.2-3-0.2-4.9c0-1.9,0-4.2,0.2-7.7c0.2-3.5,0.2-6.1,0.2-7.7c-0.2-1.2,0-2.6,0.7-4.2
			c0.9-2.3,1.4-3.7,1.4-4l0.2-0.2c0.5,0,0.7,0.2,0.7,0.5c-0.7,5.4-1.2,10.8-0.9,15.9l0.2-0.2c0-0.2,0.2-0.2,0.2-0.2
			c0-0.2,0.5-0.9,1.2-2.1c1.2-1.9,4.2-4.9,8.9-9.1c0.2-0.2,2.3-1.9,5.8-4.9c2.3-2.1,4.2-3.7,5.6-5.6c0.2-0.5,0.7-1.2,1.4-1.6
			c0.2,0,0.2,0.2,0.5,0.5v0.9c-0.7,1.9-1.6,3.7-3,5.6c-1.9,2.1-4.7,4.4-7.9,7.2c-5.4,4.4-8.2,6.5-8.2,6.8
			C703.8,360,703.1,360.7,702.8,361.6z M709.6,370.7c-0.9-1.4-2.1-2.1-3.7-2.6c-2.1-0.2-4,0.2-4.9,1.6c-0.2,0.7-0.2,1.6,0.2,3
			c0.9,1.6,2.3,2.6,4,2.8c2.1,0,3.5-1.2,4.7-3.3C709.8,371.7,709.8,371.2,709.6,370.7z"/>
		<path class="st1" d="M759.6,362.1c0.2,2.6-0.7,4.4-2.6,6.1c-0.7,0.5-1.4,0.7-2.3,0.5c0,0-0.5-0.5-1.2-0.9
			c-0.5-0.5-0.9-0.5-1.4-0.5c-0.2,0-0.5,0-0.7,0.2c-3.7,1.4-6.8,4.7-8.9,10.1c-2.3,6.1-6.1,10.8-11,13.6c-0.9,0.7-2.6,1.4-4.7,2.6
			c-0.7,0-0.9,0-0.9-0.2s0.2-0.5,0.7-0.9c6.8-4.7,11.2-9.6,13.6-14.3c1.4-3.3,3-6.3,4.4-9.6c2.1-3.5,4.4-6.1,7.7-7.2
			c1.2-0.2,2.1-0.2,2.6,0c0.2,0,0.5,0.5,0.9,0.9s0.7,0.7,0.9,0.7c0.2,0,0.2,0,0.5-0.2c0.2-0.5,0.5-0.9,0.9-1.9c0,0,0.2-0.2,0.5-0.5
			C758.9,360.2,759.2,360.9,759.6,362.1z M754.5,374.5v0.5c-1.6,2.8-2.8,5.6-3.5,7.9c0,1.4,0.2,2.3,0.7,2.6c0.2,0.2,0.5,0,0.7-0.2
			c0,0,0.2-0.5,0.7-1.4c0.2-0.5,0.5-0.7,0.9-0.7c0.5,0.2,0.7,0.5,0.9,0.9c0,0.5,0,0.9,0,1.4c-0.2,2.1-1.2,3.5-2.8,4.2
			c-0.5,0.2-1.2,0-2.1-0.5c-0.9-0.7-1.4-1.9-1.4-3.5c0-0.9,0.2-2.6,0.7-4.4c1.2-2.8,2.6-5.4,4.2-7.2L754.5,374.5z"/>
	</g>
	<g>
		<g>
			<path class="st1" d="M27.9,339.9c-7.7,4.9-11.5,12.4-11.5,22.7c0,4,0.9,7.7,2.6,11.2c1.9,4.4,4.7,7.7,8.4,10.1
				c0.5,0.2,0.7,0.7,0.7,0.9c0,0.5-0.5,0.7-1.6,0.2c-4.4-1.6-8.2-4.7-11-8.9s-4.2-8.9-4.2-13.6c0-5.4,1.6-10.1,4.7-14.7
				c3-4.4,7-7.5,11.5-9.1c0.7-0.2,0.9,0,0.9,0.5C28.4,339.4,28.2,339.6,27.9,339.9z"/>
			<path class="st1" d="M56.2,345.2c0,2.6-1.2,6.5-3.3,12.2c-0.2,1.2,0,2.1,0.5,2.6c0.5,0.2,1.2,0.7,2.6,1.2
				c1.2,0.5,1.9,0.9,2.3,1.6c0.7,0.9,0.9,3,0.9,6.1c-0.5,4.2-1.6,8.2-3.7,11.7c-2.3,3.7-5.1,6.8-8.9,8.6c-1.4,0.7-3,1.2-4.7,1.2
				s-3-0.5-4.2-1.2c-3.5-2.3-5.4-6.3-5.4-12.2c0-2.1,0.2-4.7,0.7-7.2c0.7-3.7,1.9-7.9,3.7-12.6c0.5-0.2,0.7-0.2,0.7,0v1.4
				c-1.9,6.3-2.8,11.2-2.6,14.7c0.5,4.4,1.9,7.2,4.2,8.4c1.2,0.7,2.6,1.2,4.2,1.2c2.8,0,5.6-0.9,8.2-3c2.3-1.6,4-4,5.4-7
				c0.2-1.2,0.2-2.1,0-2.6c-0.5-0.5-1.4-0.9-2.8-1.4c-1.4-0.5-2.3-0.9-2.8-1.4c-0.7-0.7-0.9-1.6-1.2-2.8c-0.2-2.6,0.7-6.3,2.3-11.7
				c0.2-1.9,0.2-2.8,0.2-3v-0.2c0-1.6-1.2-4-3.5-6.5c0-0.5,0.2-1.2,0.5-1.6c0.5-0.9,0.7-1.6,0.7-1.6c0.7-1.4,1.2-2.3,1.4-3
				c0.7,0.5,1.6,1.4,2.6,3C55.3,341.5,56.2,343.1,56.2,345.2z M44.8,335l0.2-0.5c0.5-0.9,1.2-2.6,2.3-4.4c0.2,0,0.7,0.2,0.9,0.2
				c1.2,0,2.6-0.7,3.7-1.9c0.2-0.2,0.7-1.2,1.6-2.8c0.7-1.2,1.4-1.9,2.3-2.1c1.6-0.5,2.6-0.5,3.5,0c-0.5,0.9-1.2,2.3-2.6,4.2
				c-1.6-0.2-2.8,0.2-3.7,1.2c-0.9,1.4-1.9,2.8-3,4.2c-1.2,1.6-2.6,2.3-4.2,2.3C45.7,335.2,45.2,335.2,44.8,335z"/>
			<path class="st1" d="M66.5,368.9l0.2-13.3c-0.2-1.6,0.2-4.2,1.6-7.2c0.2-0.7,0.5-1.4,0.9-2.6c0.2,0,0.5,0.2,0.5,0.7
				c-0.7,5.1-0.9,11.7-0.9,19.4c0,4,0.9,6.8,2.6,8.4c0.5,0.5,0.9,0.7,1.6,0.7c-0.2,0,0.5,0,1.9,0c1.6-0.7,2.8-1.4,3.5-2.6
				c0.2-0.2,0.5-0.5,0.7-0.2c0.2,0.2,0.5,0.2,0.5,0.5c0,0.5,0,0.7-0.2,0.7c0.5,0.5,1.4,0.5,2.8,0.2c0.7,0,1.2-0.5,1.9-1.2
				c0.5-0.7,1.2-1.4,1.6-1.9c0.2,0,0.5,0,0.5,0.5c0,0.2-0.2,0.7-0.5,1.4c0.2,0.2,0.7,0.2,1.2,0.2c0.9-0.2,1.6-0.7,2.3-1.4
				c0.5-0.9,1.2-1.6,1.6-2.3c0.2,0,0.5,0,0.5,0.2S91,370,90.8,371h1.4c1.9-0.7,3-1.9,3.5-3.7c0.2-2.6,0.2-5.6,0.2-8.6
				c0.5-0.9,1.2-2.3,2.3-4.4c0,0,0.2,0,0.7,0l0.2,0.5c-0.2,0.7-0.2,2.6-0.2,5.8c0,2.3-0.2,4.2-0.9,5.6c-1.4,3.5-3,5.8-4.9,6.8
				c-1.2,0.7-2.1,0.9-3,0.9c-0.5,0-0.7,0-1.2-0.2c-0.9,1.4-2.3,2.3-3.7,2.3c-0.5,0-0.7,0-1.2-0.2h-0.2c-1.2,1.4-2.6,1.9-4.4,1.9
				l-1.2-0.5c-1.4,3-3,4.7-5.1,5.4c-2.6,0.2-4.2-0.7-5.1-2.6C66.7,377.5,66.3,373.8,66.5,368.9z M96.7,349c-2.6-0.5-4.2-1.9-5.1-4
				c2.3-2.8,3.7-4.4,4-4.7c1.6,1.4,3.5,2.8,5.1,4L96.7,349z"/>
			<path class="st1" d="M125.2,363.7v0.7l-0.9,0.5c-0.9,0.5-1.9,1.2-3,2.1c-1.2,0.9-1.9,2.1-2.3,3c-0.2,0.5,0,0.9,0.2,1.2
				c1.4,0,2.6,0.5,3,1.4c0.5,0.9,0.5,2.1-0.2,3c-0.7,1.2-1.9,1.6-3.5,1.2c-1.9-0.5-2.6-1.9-2.6-4.4c0-2.1,0.9-4.2,2.6-6.1
				c1.4-1.4,3-2.3,4.9-3c0.2,0,0.7-0.2,0.9-0.2C124.7,363.2,124.9,363.5,125.2,363.7z"/>
			<path class="st1" d="M160.2,341.7l0.2,0.5c-0.5,1.4-0.9,3.5-1.9,6.3c-0.2,0.2-0.5,0.5-0.9,0.5c-0.7,0-0.9,0-1.2,0.2
				c-3.7,1.9-6.1,4.7-7,8.2c-0.2,0.9,0,1.9,0.7,2.6c0.2,0.2,1.2,0.5,2.8,0.9c1.2,0.2,1.9,0.9,2.3,1.6c0.5,0.9,0.9,2.3,0.9,4
				c0,0.5,0,1.2-0.2,2.1c0,1.2-0.2,1.6-0.2,2.1c-0.7,4-2.1,7.5-4,10.5c-2.1,3.5-4.9,6.1-7.9,7.9c-1.4,0.7-3,1.2-4.7,1.2
				c-2.1,0-3.7-0.5-5.1-1.6c-3-2.6-4.7-6.5-4.7-11.9c0-4.4,1.2-11,4-19.4l0.5-0.2c0.2,0.2,0.2,0.7,0.2,1.4
				c-1.4,5.8-2.1,10.1-2.1,12.6c0,5.4,1.4,8.9,4,10.5c1.2,0.9,2.8,1.2,4.2,1.2c2.8,0,5.8-1.2,8.9-3.5c3-2.8,4.7-5.4,4.9-7.9
				c0.2-1.2-0.2-2.1-0.9-2.6c-1.2-0.2-2.1-0.7-3.3-0.9c-1.2-0.5-2.1-1.2-2.3-2.1c-0.5-0.9-0.5-2.1-0.5-3.3c0-1.2,0.2-2.6,0.7-4.4
				c1.6-7,4.9-12.2,9.6-15.4c1.2-0.5,1.9-0.7,1.9-0.7C159.8,341.5,160,341.5,160.2,341.7z"/>
			<path class="st1" d="M192.5,355.8l0.7,0.2c1.2,0.5,2.3,1.2,3.5,1.6c1.4,0.7,2.1,1.9,2.1,3c0,1.2-0.5,2.6-1.6,3.7
				c-0.9,1.2-2.1,1.9-3.3,2.3c-2.8,0.5-4.2,0.5-4.4,0.5c-1.6,0.5-2.8,0.9-3.7,2.1c-2.1,1.9-4.2,4.4-6.3,8.2
				c-2.8,4.7-4.9,7.5-5.6,8.6c-2.6,3.3-6.5,6.1-11.7,8.4c-0.7,0.2-1.2,0.2-1.4,0.2c-0.2-0.2-0.2-0.2-0.2-0.5
				c1.2-0.7,2.6-1.9,4.7-3.3c5.4-4,8.6-7.7,10.3-11.2c1.9-4.4,3.3-7.2,4.2-8.6c1.9-3,4-5.6,6.5-7.2l3-1.9c0.5-0.9,1.2-2.1,1.6-3.3
				C191.1,357.4,191.8,356.5,192.5,355.8z M180.3,352.5h0.5c0.9,0.9,2.6,1.9,4.9,3.5c0,0,0,0.2,0,0.9l-3.3,4.2
				c-0.2,0.2-0.5,0.2-0.7,0.2c-0.2,0-0.9-0.2-2.1-0.9c-0.7-0.5-1.6-1.4-2.8-2.6c0.2-0.2,0.7-0.9,0.9-1.6
				C178,355.5,179.2,354.4,180.3,352.5z"/>
			<path class="st1" d="M228.5,358.1c-0.5,2.8-1.4,5.4-3,7.7c-0.5,0.5-1.2,0.9-2.6,1.4c-1.2,0.5-2.1,0.9-2.6,1.4
				c-1.2,1.2-2.1,2.8-3,4.9c-0.7,1.6-1.6,3.3-2.3,5.1c-0.2,0.5-0.7,0.9-0.9,1.4c-0.5,0.5-0.7,0.9-1.2,1.2c-3.5,0.7-6.8,1.2-9.6,1.4
				c-0.2,0-0.5-0.2-0.7-0.5c0-0.5,0.2-0.7,0.7-0.9c0.5-0.2,0.7-0.5,1.2-0.7c2.1-1.2,4-2.1,6.1-3.3c2.3-1.4,4.2-3,5.4-4.7
				c0.5-0.5,1.4-2.6,3-6.1c1.2-2.3,2.6-4,4.4-4.9c2.3-0.7,3.5-1.9,3.7-3.7c0.2-0.2,0.5-0.5,0.7-0.7
				C227.8,357.2,228.3,357.4,228.5,358.1z M225.2,350.4c-1.4-0.7-3-1.9-4.9-3.5l-3,3.5c-2.6-0.5-4.2-1.9-5.4-4
				c2.3-3,3.7-4.7,4.2-4.9c1.4,1.2,3,2.6,4.9,3.7l3.7-4c2.3,1.9,4,3.3,5.1,4.2C227.6,347.8,226.2,349.4,225.2,350.4z"/>
			<path class="st1" d="M252.6,363.7v0.7l-0.9,0.5c-0.9,0.5-1.9,1.2-3,2.1s-1.9,2.1-2.3,3c-0.2,0.5,0,0.9,0.2,1.2
				c1.4,0,2.6,0.5,3,1.4c0.5,0.9,0.5,2.1-0.2,3c-0.7,1.2-1.9,1.6-3.5,1.2c-1.9-0.5-2.6-1.9-2.6-4.4c0-2.1,0.9-4.2,2.6-6.1
				c1.4-1.4,3-2.3,4.9-3c0.2,0,0.7-0.2,0.9-0.2C252.3,363.2,252.6,363.5,252.6,363.7z"/>
			<path class="st1" d="M270.1,364.2c0.2,0.9,0.2,1.6,0.2,2.6c0,1.6-0.5,3.5-1.4,5.6c0,0.2-0.9,1.9-2.6,5.4
				c-0.2,0.5-0.7,0.9-1.4,1.6c-1.9,0.7-4.9,1.4-8.9,2.3c-0.2,0.2-0.5,0-0.7-0.5c0-0.2,0.7-0.7,2.1-1.6c0.9-0.7,2.3-1.4,4.4-2.6
				c1.9-0.9,3.3-1.9,4.4-2.8c0.7-0.7,0.7-1.9,0.5-3.3c-0.5-1.9-1.9-3.3-4.2-4.4c-0.2-0.2-0.2-0.5,0-0.7c0.2-0.2,0.2-0.5,0.5-0.7
				c0.5-1.6,0.9-3.5,1.9-5.6c1.2,0,2.1,0.7,3,1.6C269.2,362.1,269.6,363,270.1,364.2z"/>
			<path class="st1" d="M287.9,370.7c-0.2,2.1-1.4,4.7-3.3,7.9c-0.5,0.9-1.4,1.4-2.6,1.9c-0.9,0.2-2.1,0.5-3.3,0.7
				c-0.7,0.2-1.9,0.7-3.5,1.2c-0.5,0-0.7-0.2-0.7-0.5s0.2-0.7,0.7-0.9c1.6-0.9,3.3-1.9,4.9-2.8c1.9-1.2,3.3-2.3,4.7-3.5
				c0.5-0.5,0.5-1.2,0.5-2.1c-0.2-0.7-0.5-0.9-0.9-1.2c-0.5,0-0.7,0.2-1.2,0.2c-1.4,0-2.6-0.5-3.3-1.6c-0.2-0.5-0.5-0.9-0.5-1.6
				c0-0.7,0.2-1.4,0.5-2.1c0.2-0.7,0.7-1.4,0.9-2.1s0.5-1.4,0.7-2.3c0.5-0.9,0.9-1.4,1.9-1.9c1.4-0.2,2.6,0.2,3.3,1.6
				c0.9,1.6,1.4,3.3,1.4,5.4C288.3,368.4,288.3,369.6,287.9,370.7z M290,349L290,349c-0.2,0.5-0.7,1.2-1.6,2.1c-0.5,0-0.7,0-0.9,0
				c-1.6,0-3.3,0.7-4.2,2.1c-0.9,1.6-1.6,2.8-2.1,3c-0.9,1.2-1.9,1.9-2.8,2.3c-0.7,0.2-1.2,0.2-1.6,0.2c-0.7,0-1.4-0.2-1.9-0.7
				l0.2-0.5c0.7-1.2,1.6-2.6,3-4.4c0.5,0.2,0.9,0.5,1.4,0.5c0.7,0,1.2-0.2,1.9-0.7c0.9-0.9,2.1-2.6,4-4.7c1.6-1.6,3.3-2.6,4.9-2.6
				c0.5,0,0.7,0.2,1.2,0.5v0.5C291.2,347.1,290.7,347.8,290,349z"/>
			<path class="st1" d="M300,349.7c-0.2,0.7-0.2,1.9-0.5,3.3c-0.2,1.9-0.2,4.4-0.2,7.7c0,3.7,0,6.3-0.2,7.9
				c-0.2,3.3-0.9,6.5-2.6,10.1c-0.2,0.7-0.5,0.9-0.7,0.9c-0.2,0-0.2,0-0.5-0.2c-0.2-0.2-0.5-0.5-0.2-1.2c0.2-1.2,0.5-4,0.7-8.4
				c-0.2-3.5-0.5-7.5-0.2-11.9c0.7-2.3,1.9-4.9,3.5-8.2C299.6,349.2,299.8,349.2,300,349.7z"/>
			<path class="st1" d="M316.9,364.2c0.2,0.9,0.2,1.6,0.2,2.6c0,1.6-0.5,3.5-1.4,5.6c0,0.2-0.9,1.9-2.6,5.4
				c-0.2,0.5-0.7,0.9-1.4,1.6c-1.9,0.7-4.9,1.4-8.9,2.3c-0.2,0.2-0.5,0-0.7-0.5c0-0.2,0.7-0.7,2.1-1.6c0.9-0.7,2.3-1.4,4.4-2.6
				c1.9-0.9,3.3-1.9,4.4-2.8c0.7-0.7,0.7-1.9,0.5-3.3c-0.5-1.9-1.9-3.3-4.2-4.4c-0.2-0.2-0.2-0.5,0-0.7c0.2-0.2,0.2-0.5,0.5-0.7
				c0.5-1.6,0.9-3.5,1.9-5.6c1.2,0,2.1,0.7,3,1.6C315.7,362.1,316.4,363,316.9,364.2z"/>
			<path class="st1" d="M324.4,382.2l-3,0.5c-0.2,0-0.2-0.2-0.5-0.5c0-0.2,0.2-0.7,0.5-0.7s0.7-0.5,0.9-0.5c0.9-0.7,2.6-1.4,4.7-2.3
				s3.7-1.9,4.9-2.6c0.9-0.9,1.4-1.6,1.4-2.3c0-0.2,0-0.5-0.2-0.7c-0.2-0.2-0.5-0.7-0.9-1.2c-1.6,0.2-2.8,0-3.7-0.7
				c-0.5-0.7-0.9-1.2-0.9-2.1c0-0.7,0.2-1.4,0.5-2.3c0.2-0.7,0.7-1.4,0.9-2.3c0.5-1.6,0.7-2.3,0.7-2.6c0.5-0.9,1.2-1.4,2.1-1.6
				c1.2-0.2,2.1,0.5,2.8,1.6c0.7,1.2,1.2,2.8,1.4,4.7h0.2c0.2-0.2,0.2-0.2,0.2-0.2c2.3-1.4,3.7-3.3,3.5-5.6c0-4,0-6.3,0-7
				c1.2-2.6,2.1-4.4,3.3-5.4l0.5,0.2c0,0.5-0.2,3-0.7,7.7c-0.2,3.3-0.9,5.6-1.9,7.5c-1.9,3.5-3.7,6.1-5.6,7.2
				c-0.5,2.8-1.4,5.8-3,8.6c-0.7,1.2-1.9,2.1-3.7,2.3C327.4,381.7,326,381.9,324.4,382.2z M334.6,384.3l3.3-4
				c0.2-0.2,0.2-0.2,0.5-0.2c0.2,0,0.5,0.2,0.9,0.5c0.5,0.5,0.7,0.5,0.9,0.5l3,2.1c0.2,0.5,0.2,0.7,0,0.7l-3.5,4.4h-0.2
				c-2.1-0.9-3.5-2.1-4.7-3C334.9,385.2,334.6,384.7,334.6,384.3z"/>
			<path class="st1" d="M355,349.7c-0.2,0.7-0.2,1.9-0.5,3.3c-0.2,1.9-0.2,4.4-0.2,7.7c0,3.7,0,6.3-0.2,7.9
				c-0.2,3.3-0.9,6.5-2.6,10.1c-0.2,0.7-0.5,0.9-0.7,0.9c-0.2,0-0.2,0-0.5-0.2c-0.2-0.2-0.5-0.5-0.2-1.2c0.2-1.2,0.5-4,0.7-8.4
				c-0.2-3.5-0.5-7.5-0.2-11.9c0.7-2.3,1.9-4.9,3.5-8.2C354.3,349.2,354.7,349.2,355,349.7z"/>
			<path class="st1" d="M361.5,339.9c-0.5-0.2-0.5-0.5-0.5-0.7c0-0.5,0.2-0.5,0.9-0.5c4.7,1.6,8.4,4.7,11.5,9.1s4.7,9.4,4.7,14.7
				c0,4.9-1.4,9.4-4.2,13.6c-2.8,4.2-6.5,7.2-11,8.9c-0.9,0.5-1.6,0.2-1.6-0.2c0-0.2,0.2-0.5,0.7-0.9c3.7-2.3,6.5-5.6,8.4-10.1
				c1.6-3.7,2.6-7.5,2.6-11.2C372.7,352.3,369,344.5,361.5,339.9z"/>
		</g>
	</g>
</g>
<g>
	<g>
		<path class="st0" d="M260.1,498l0.4-1.1c5.9-9.6,12.5-14.7,20.2-14.3c1.1,0,2.6,0.7,4.8,1.8c2.2,1.1,3.7,1.5,5.1,1.5
			c0.7,0,1.1,0,1.8-0.4c1.8-0.4,4-1.5,6.6-3.7c2.6-2.9,4.8-4.4,5.9-5.1c0.7-0.4,1.8,0,3.3,0.7c1.5,0.7,2.2,1.1,2.9,1.1
			c0.7,0,1.5-0.4,2.2-1.1c0.7-1.1,2.2-2.6,4-4.8c0.4,0,0.7,0,1.1,0.4c-0.4,2.9-2.6,5.9-6.3,9.2c-1.8,1.5-3.7,1.8-5.5,1.5
			c-0.4,0-1.1-0.4-1.8-0.7c-0.7-0.4-1.5-0.7-2.2-0.7c-0.4,0.4-2.2,2.2-6.6,6.3c-2.6,2.6-5.1,4.4-7.4,5.1c-1.5,1.1-3.3,1.5-5.1,1.5
			c-2.9,0-5.9-0.7-8.5-2.6c-0.7-0.4-1.8-0.4-2.6-0.4c-3.3,0-7,2.2-11,6.6C260.4,498.4,260.1,498,260.1,498z M281.4,507.2l4-4.4
			l0.7,0.4c2.2,1.8,4.8,4,7.4,5.9v0.7c-1.1,1.8-3.3,4-6.3,7c-1.1,0.4-2.6-0.4-4.4-1.8c-1.1-0.7-2.2-1.8-4-3.7
			C279.2,510.2,279.9,509.1,281.4,507.2z M295,458.7l6.6-7.4h0.7c2.6,2.6,5.1,4.8,7,5.9c0,0.4,0,0.4,0.4,0.4
			c1.1-1.5,2.9-3.3,5.1-5.9h0.7c1.5,1.5,3.7,3.3,7,5.9c0.4,0.4,0.4,0.7,0,1.5l-5.9,6.3c-0.4,0.4-0.7,0.4-1.1,0.4
			c-0.4,0-0.7,0-1.5-0.4c-1.1-0.7-1.5-0.7-1.5-0.7c-2.6-1.8-4-3.3-4.8-4.8c-1.1,1.5-2.9,2.9-5.5,5.5c-1.1-0.4-2.6-0.7-3.7-1.8
			c-1.1-1.1-2.2-1.8-3.3-2.9C295.4,459.8,295,459,295,458.7z"/>
		<path class="st0" d="M375.9,452.4l1.1,0.4c1.8,0.7,3.7,1.8,5.5,2.6c2.2,1.1,3.3,2.9,3.3,4.8c0,1.8-0.7,4-2.6,5.9
			c-1.5,1.8-3.3,2.9-5.1,3.7c-4.4,0.7-6.6,0.7-7,0.7c-2.6,0.7-4.4,1.5-5.9,3.3c-3.3,2.9-6.6,7-9.9,12.9c-4.4,7.4-7.7,11.8-8.8,13.6
			c-4,5.1-10.3,9.6-18.4,13.2c-0.7,0.4-1.8,0.4-2.2,0.4c-0.4-0.4-0.4-0.4-0.4-0.7c1.8-1.1,4-2.9,7.4-5.1
			c8.5-6.3,13.6-12.1,16.2-17.7c2.9-7,5.1-11.4,6.6-13.6c2.9-4.8,6.3-8.8,10.3-11.4l4.8-2.9c0.7-1.5,1.8-3.3,2.6-5.1
			C373.7,455,374.8,453.5,375.9,452.4z"/>
		<path class="st0" d="M465.7,505.8c0.7-0.7,1.1-1.1,1.1-1.1s0.7,0.4,1.5,1.1c2.6,2.6,4.8,4,6.6,5.1c0,0,0.4-0.4,1.1-1.1
			c2.6-2.9,4-4.4,4.4-4.8c0,0,0.4,0.4,1.1,0.7c2.2,1.8,4.4,3.7,6.3,5.1c0,0,0,0.4,0,0.7c0,0.4-0.7,1.1-1.8,2.6l-0.7,0.7
			c-2.2,2.6-3.3,4-3.7,4c0,0-0.4,0-0.7,0c-1.1,0-2.6-0.7-4.4-2.6c-1.5-1.1-2.2-2.2-2.6-2.9c-0.4-0.4-0.4-0.4-0.4-0.7
			c0,0-1.1,0.7-2.6,2.6c-1.5,1.8-2.6,2.6-2.6,2.9c-0.7,0-1.5,0-2.2-0.4c-1.5-0.7-2.9-1.8-4.4-3.3c-1.1-1.1-1.8-1.8-1.8-2.2
			C460.5,512,462,509.8,465.7,505.8z"/>
		<path class="st0" d="M465.7,481.5c0-0.7-0.4-1.5-0.4-1.5l-2.2,3.7c-3.3,4.4-8.5,7.4-15.1,8.5c-4.8,1.1-9.9,1.8-14.7,1.8
			c-4.8,0.4-9.6-0.4-13.6-1.5c-2.2-0.7-3.7-1.5-4.4-2.2c-1.5-1.8-1.8-4.4-1.8-8.1c0-4,0.7-7.7,1.5-10.7c0.4-0.4,0.7-0.4,1.1-0.4
			c0,0,0.4,1.1,0.4,2.6c0,2.6,0.4,4.4,0.7,5.5c0.4,0.4,0.7,0.7,1.1,1.1c2.6,1.5,7.7,2.2,15.1,2.6h1.1c4,0.4,7.7,0,11.4-0.4
			c8.5-0.7,14-2.9,16.9-5.9c0.4-0.4,0.7-1.1,1.1-1.8c0.7-1.1,1.1-4.4,1.1-9.9c0-5.9,0.4-11,0.4-15.4c0.7-6.6,4-11.8,9.6-15.1
			c3.3-1.8,7.7-4,13.6-6.6c7.4-2.9,13.6-6.3,18.4-9.6c0.7-0.7,1.1-0.4,1.1,0.4c0,0.4-0.4,1.1-1.1,1.8l-1.1,1.5
			c-1.8,2.6-4,4.4-6.3,5.9c-1.8,1.1-6.6,3.7-14.3,6.6c-7,2.9-11,4.8-12.5,5.9c-1.8,1.1-2.6,2.2-3.3,3.7c-0.7,6.3-1.1,14.3-0.7,24.3
			l0.4,4c0.4,4.4,1.8,7.4,5.1,8.5c3.7,0.4,6.3-0.4,8.5-2.9c0.7-1.1,1.5-1.8,1.8-1.8s0.7,0.4,0.7,1.1c-0.4,2.6-1.8,5.5-4,8.8
			c-2.2,3.3-4.4,5.1-6.6,5.9c-3.7,0.4-6.3-0.4-8.1-2.9C466.8,487.7,466.1,485.2,465.7,481.5z"/>
		<path class="st0" d="M510.9,442.9c-0.4,1.1-0.4,2.9-0.7,5.1c-0.4,2.9-0.4,7-0.4,12.1c0,5.9,0,9.9-0.4,12.5
			c-0.4,5.1-1.5,10.3-4,15.8c-0.4,1.1-0.7,1.5-1.1,1.5c-0.4,0-0.4,0-0.7-0.4c-0.4-0.4-0.7-0.7-0.4-1.8c0.4-1.8,0.7-6.3,1.1-13.2
			c-0.4-5.5-0.7-11.8-0.4-18.8c1.1-3.7,2.9-7.7,5.5-12.9C509.8,442.1,510.2,442.1,510.9,442.9z"/>
	</g>
</g>
</svg>
