<?xml version="1.0" encoding="utf-8"?>
<!-- Generator: Adobe Illustrator 19.2.1, SVG Export Plug-In . SVG Version: 6.00 Build 0)  -->
<svg version="1.1" id="Layer_1_copy" xmlns="http://www.w3.org/2000/svg" xmlns:xlink="http://www.w3.org/1999/xlink" x="0px"
	 y="0px" viewBox="0 0 771 196" style="enable-background:new 0 0 771 196;" xml:space="preserve">
<style type="text/css">
	.st0{fill:#F7931E;}
	.st1{fill:#FFFF00;}
</style>
<g>
	<path class="st0" d="M45.9,64.1c0,0.4,0,0.8,0,1c0,0.3-0.1,0.5-0.1,0.7c-0.1,0.2-0.2,0.4-0.3,0.6s-0.2,0.4-0.3,0.7
		c-0.8,0.2-1.6,0.5-2.4,0.9s-1.5,0.7-2.3,1.1s-1.5,0.7-2.3,1c-0.7,0.3-1.5,0.5-2.3,0.6c-0.1-0.3-0.1-0.5-0.1-0.6c0-0.2,0-0.3,0-0.5
		s0.1-0.4,0.1-0.6s0-0.5,0-0.9c0.9-0.2,1.7-0.6,2.5-1s1.6-0.9,2.4-1.3s1.6-0.8,2.4-1.1C44.1,64.2,44.9,64.1,45.9,64.1z"/>
	<path class="st0" d="M54,55.4c0.7,0,1.2,0.3,1.5,0.7c0.3,0.5,0.5,1,0.5,1.6c0,0.3,0,0.6-0.1,0.9s-0.2,0.6-0.4,0.8s-0.4,0.4-0.6,0.6
		c-0.2,0.2-0.5,0.2-0.8,0.2c-0.7,0-1.3-0.2-1.9-0.4c-0.6-0.2-1.2-0.6-1.7-1s-0.9-0.9-1.3-1.5s-0.6-1.3-0.7-2.1
		c-0.9,0.7-2,1.3-3.3,1.8c-1.2,0.5-2.6,0.7-4,0.7c-0.6,0-1.2-0.1-1.8-0.2c-0.6-0.1-1.2-0.3-1.9-0.5c-0.4-0.8-0.8-1.5-1-2.2
		s-0.3-1.4-0.3-2.1c0-0.9,0.2-1.7,0.5-2.5s0.8-1.5,1.4-2.1c0.6-0.7,1.3-1.3,2-1.8c0.8-0.5,1.6-1,2.5-1.4s1.8-0.8,2.7-1.1
		s1.8-0.5,2.7-0.7c0-0.2,0.1-0.3,0.1-0.5s0-0.3,0-0.5c0-0.4,0-0.7-0.1-1.1c0-0.3-0.1-0.7-0.1-1s0-0.7,0.1-1s0.3-0.6,0.6-0.9
		c0.6,0.6,1.1,1.4,1.3,2.3c0.2,0.9,0.3,1.9,0.3,3c0,1,0,2-0.1,3.1s-0.1,2-0.1,3c0,0.3,0,0.6,0,0.9c0,0.3,0,0.6,0.1,0.8
		c0.1,0.6,0.2,1.1,0.5,1.6c0.2,0.5,0.5,0.9,0.9,1.2s0.8,0.6,1.2,0.8C53,55.1,53.5,55.3,54,55.4z M38.1,51.3c0.1,0.6,0.4,1,1,1.3
		c0.5,0.2,1.2,0.4,2,0.4c0.6,0,1.2-0.1,1.9-0.2c0.7-0.1,1.3-0.3,2-0.5c0.6-0.2,1.2-0.4,1.7-0.6s0.9-0.4,1.3-0.6
		c0.1-0.5,0.2-1,0.3-1.5c0.1-0.6,0.2-1.1,0.2-1.6c0-0.4,0-0.8-0.1-1.1s-0.3-0.6-0.5-0.9c-0.4,0.1-1,0.2-1.6,0.4s-1.3,0.3-2,0.6
		s-1.4,0.5-2.1,0.7s-1.4,0.6-1.9,0.9s-1,0.7-1.4,1.1c-0.3,0.4-0.5,0.8-0.5,1.3C38.1,51.1,38.1,51.2,38.1,51.3z"/>
	<path class="st0" d="M57.9,24.5c-0.2-0.3-0.4-0.5-0.5-0.8s-0.2-0.6-0.3-1c-0.1-0.3-0.1-0.7-0.2-1c-0.1-0.3-0.2-0.7-0.3-1.1
		s-0.2-0.8-0.4-1.2c-0.2-0.4-0.3-0.8-0.5-1.2s-0.3-0.9-0.4-1.3c-0.1-0.4-0.2-0.9-0.2-1.3c0-0.1,0-0.2,0-0.2s0-0.1,0-0.2
		c0-0.3,0.1-0.5,0.2-0.8c0.1-0.3,0.2-0.5,0.4-0.8c0.5,0.2,0.9,0.5,1.2,0.9s0.6,0.9,0.8,1.4c0.2,0.5,0.3,1.1,0.4,1.7
		c0.1,0.6,0.1,1.3,0.1,1.9c0,0.5,0,1,0,1.5s-0.1,1-0.1,1.4C58,23.1,58,23.8,57.9,24.5z"/>
	<path class="st0" d="M59.6,26.1c-0.1,0.3-0.1,0.5-0.1,0.8s0,0.5,0,0.8c0,0.4,0,0.7,0.1,1s0.2,0.6,0.3,0.9c0.2,0.3,0.4,0.5,0.6,0.6
		c0.3,0.1,0.6,0.2,1,0.2c0.1,0,0.2,0,0.2,0c0.1,0,0.1,0,0.2,0c0.1-0.2,0.2-0.4,0.3-0.5c0.1-0.2,0.1-0.4,0.1-0.6L62,27.1
		c0-0.2,0-0.4,0.1-0.6s0.2-0.4,0.3-0.6c0.5,0.4,0.9,0.9,1.2,1.5s0.4,1.3,0.4,2c0,0.4-0.1,0.9-0.2,1.3c-0.1,0.4-0.3,0.8-0.5,1.1
		c-0.2,0.3-0.5,0.6-0.8,0.8s-0.7,0.3-1.1,0.3c-0.3,0-0.6,0-0.9-0.1c-0.3-0.1-0.7-0.3-1.1-0.5c-0.8,0.6-1.5,0.9-2.3,0.9
		c-0.5,0-0.9-0.1-1.3-0.3c-0.4-0.2-0.7-0.4-1-0.7s-0.5-0.7-0.7-1.1s-0.3-0.8-0.3-1.3c0-0.4,0.1-0.9,0.3-1.3s0.5-0.9,0.9-1.3
		c0,0.3,0.1,0.7,0.1,1.2c0,0.4,0,0.8,0.1,1.2s0.2,0.7,0.4,1s0.5,0.4,0.8,0.4c0.4,0,0.7-0.1,0.9-0.2c0.2-0.2,0.4-0.4,0.5-0.6
		c0.1-0.3,0.2-0.6,0.2-0.9s0-0.7,0-1v-0.1c0-0.3,0-0.5,0-0.8c0-0.2,0-0.5,0.1-0.7s0.1-0.3,0.2-0.5c0.1-0.1,0.3-0.2,0.5-0.2
		C59,25.8,59.3,25.9,59.6,26.1z"/>
	<path class="st0" d="M66.8,54.7c0.3,0,0.6,0.1,0.8,0.2s0.4,0.3,0.6,0.5c0.1,0.2,0.2,0.5,0.3,0.7s0.1,0.6,0.1,0.9s0,0.7-0.1,1
		s-0.2,0.6-0.4,0.9s-0.3,0.5-0.6,0.6c-0.2,0.2-0.5,0.2-0.8,0.2c-0.7-0.1-1.3-0.3-1.9-0.5s-1.2-0.5-1.7-0.9c-0.5-0.3-1-0.7-1.4-1.1
		s-0.7-0.9-1-1.3c-0.2,0.7-0.5,1.4-0.9,1.9s-0.9,1-1.4,1.4s-1.1,0.6-1.8,0.8s-1.3,0.3-1.9,0.3c-0.1,0-0.2,0-0.3,0s-0.2,0-0.3,0
		c-0.3,0-0.5-0.1-0.7-0.2c-0.2-0.2-0.4-0.3-0.5-0.6c-0.1-0.2-0.2-0.5-0.3-0.8s-0.1-0.6-0.1-0.9s0-0.6,0.1-0.9s0.2-0.5,0.3-0.8
		c0.1-0.2,0.3-0.4,0.5-0.5s0.4-0.2,0.7-0.2c0.2,0,0.4,0.1,0.6,0.1s0.4,0,0.6,0c0.5,0,1.1-0.1,1.6-0.2s1-0.3,1.4-0.6s0.8-0.6,1-1
		c0.3-0.4,0.5-0.9,0.6-1.4c0.1-0.6,0.1-1.1,0.1-1.7c0-0.9-0.1-1.9-0.3-2.8s-0.4-1.9-0.6-2.9c-0.2-1-0.5-1.9-0.7-2.9s-0.3-2-0.4-3
		c0.1-1.6,0.3-2.4,0.3-2.5c0.1,0,0.3-0.2,0.5-0.4c0.3-0.2,0.7,0.2,1.3,1.4c0.6,1.1,0.8,2,0.5,2.5c-0.2,0.5-0.3,1.4-0.1,2.6
		c0.1,1.2,0.3,2.3,0.5,3.5s0.4,2.3,0.7,3.5c0.3,1.1,0.6,2.2,0.9,3.3c0.2,0.2,0.5,0.4,0.8,0.6c0.3,0.2,0.6,0.4,1,0.6s0.8,0.3,1.2,0.5
		C65.9,54.6,66.4,54.7,66.8,54.7z"/>
	<path class="st0" d="M66.9,59.8c-0.3,0-0.6-0.1-0.9-0.2s-0.5-0.4-0.6-0.6c-0.2-0.2-0.3-0.5-0.4-0.8s-0.1-0.6-0.1-0.9s0-0.6,0.1-0.9
		s0.2-0.6,0.4-0.8c0.2-0.2,0.4-0.4,0.6-0.6c0.3-0.2,0.5-0.2,0.9-0.2c0.2,0,0.4,0.1,0.7,0.1c0.2,0,0.4,0,0.7,0c0.6,0,1.1-0.1,1.6-0.2
		c0.5-0.2,0.9-0.4,1.3-0.7c-0.2-0.8-0.5-1.5-0.9-2.3c-0.4-0.7-0.9-1.5-1.3-2.2c-0.4-0.8-0.8-1.5-1.2-2.3c-0.3-0.8-0.5-1.6-0.5-2.5
		c0-0.4,0.1-0.8,0.2-1.3c0.1-0.4,0.3-0.9,0.5-1.4c0.6,0.8,1.3,1.6,1.9,2.5s1.1,1.9,1.6,3s0.8,2.2,1.1,3.3s0.4,2.3,0.4,3.5
		c0,0.8-0.1,1.5-0.2,2.3c-0.1,0.7-0.3,1.5-0.6,2.3c-0.6,0.4-1.2,0.7-1.8,0.9c-0.6,0.2-1.3,0.3-2,0.3c-0.2,0-0.4,0-0.7,0
		C67.3,59.9,67.1,59.9,66.9,59.8z"/>
	<path class="st0" d="M90.9,55.3c0.6,0,1.1,0.1,1.5,0.3s0.7,0.4,1,0.6s0.5,0.5,0.6,0.8s0.2,0.6,0.2,0.8c0,0.3-0.1,0.6-0.3,0.9
		s-0.4,0.5-0.7,0.8s-0.6,0.4-1,0.5s-0.8,0.2-1.2,0.2h-1.3c-1.5,0-2.7-0.2-3.8-0.5c-1-0.3-1.9-0.8-2.6-1.4c-0.7-0.6-1.3-1.5-1.7-2.4
		c-0.4-1-0.8-2.1-1-3.5c-0.3-1.6-0.6-3.3-1-5c-0.3-1.7-0.6-3.5-0.9-5.4c-0.1-0.9-0.3-1.8-0.5-2.7s-0.4-1.9-0.6-2.8
		c-0.2-0.9-0.4-1.8-0.5-2.7s-0.2-1.8-0.2-2.6c0-0.7,0.1-1.4,0.2-2s0.3-1.3,0.7-1.8c0.6-0.2,1.1-0.3,1.7-0.3c0.7,0,1.4,0.1,2,0.4
		s1.1,0.7,1.6,1.2s0.9,1,1.2,1.7c0.3,0.6,0.6,1.3,0.8,1.9c-0.4,0-0.8-0.1-1.2-0.3c-0.3-0.2-0.7-0.4-1-0.6S82.3,31,82,30.8
		s-0.7-0.3-1-0.3c-0.2,0-0.5,0-0.8,0.1c-0.1,0.3-0.2,0.7-0.3,1.1c-0.1,0.4-0.1,0.8-0.1,1.3c0,0.9,0.1,1.8,0.3,2.8s0.4,2,0.6,3.1
		s0.5,2.1,0.7,3.2c0.3,1.1,0.5,2.2,0.6,3.2c0,0.2,0.1,0.4,0.1,0.6c0,0.2,0.1,0.4,0.1,0.5c0.1,0.9,0.3,1.8,0.4,2.6s0.3,1.5,0.5,2.2
		s0.5,1.2,0.8,1.8s0.8,1,1.3,1.3s1.2,0.6,1.9,0.8c0.8,0.2,1.7,0.3,2.7,0.3L90.9,55.3L90.9,55.3L90.9,55.3z"/>
	<path class="st0" d="M100,70.8c0,0.4,0,0.8,0,1c0,0.3-0.1,0.5-0.1,0.7c-0.1,0.2-0.2,0.4-0.3,0.6s-0.2,0.4-0.3,0.7
		c-0.8,0.2-1.6,0.5-2.4,0.9s-1.5,0.7-2.3,1.1s-1.5,0.7-2.3,1c-0.7,0.3-1.5,0.5-2.3,0.6c-0.1-0.3-0.1-0.5-0.1-0.6c0-0.2,0-0.3,0-0.5
		s0.1-0.4,0.1-0.6s0-0.5,0-0.9c0.9-0.2,1.7-0.6,2.5-1s1.6-0.9,2.4-1.3s1.6-0.8,2.4-1.1C98.2,71,99.1,70.8,100,70.8z"/>
	<path class="st0" d="M94.1,55.3c0.8,0,1.6-0.1,2.4-0.3s1.4-0.4,1.8-0.7c0-0.5-0.1-0.9-0.2-1.2s-0.2-0.6-0.4-0.8s-0.3-0.4-0.5-0.6
		c-0.2-0.2-0.3-0.4-0.5-0.6c-0.2-0.2-0.3-0.5-0.4-0.8s-0.1-0.7-0.1-1.2c0-0.4,0.1-0.8,0.3-1.3c0.2-0.4,0.4-0.9,0.7-1.4
		c0.5,0.5,0.9,1,1.4,1.5c0.4,0.5,0.8,1,1.1,1.5s0.6,1.1,0.8,1.8s0.3,1.5,0.3,2.5c0,0.8-0.1,1.5-0.3,2.2s-0.6,1.4-1.1,2
		c-0.6,0.8-1.4,1.4-2.4,1.8c-0.9,0.3-1.9,0.5-2.9,0.5h-3.6c-0.8-0.2-1.3-0.5-1.7-1s-0.5-1-0.5-1.5s0.2-1,0.6-1.5s0.9-0.8,1.7-0.9
		H94.1z M94.3,62.2c0.9,0.1,1.6,0.3,2.2,0.6s1.1,0.7,1.6,1.2c0,0.8-0.1,1.5-0.3,2.2c-0.1,0.7-0.4,1.2-0.9,1.5h-0.3
		c-1.5,0-2.6-0.5-3.2-1.4c0-0.4,0.1-0.8,0.1-1.2c0-0.4,0-0.7,0.1-1.1s0.1-0.7,0.2-1C93.9,62.8,94,62.5,94.3,62.2z"/>
	<path class="st0" d="M124.4,54.7c-0.6-1-1.2-1.9-1.8-2.8s-1.1-1.7-1.7-2.5s-1.3-1.5-2-2.2s-1.6-1.4-2.6-2.1
		c-0.4-0.3-0.9-0.6-1.3-0.8c-0.5-0.2-1-0.4-1.6-0.5c-0.4,0.3-0.9,0.5-1.2,0.7c-0.4,0.1-0.8,0.2-1.1,0.2c-0.8,0-1.4-0.3-2-0.8
		s-1.1-1.2-1.4-1.9c-0.4-0.8-0.7-1.6-0.9-2.5s-0.3-1.8-0.3-2.6c0-0.4,0-0.7,0.1-1s0.1-0.6,0.2-0.9c0.8,0.3,1.7,0.6,2.6,1
		s1.8,0.9,2.6,1.4s1.7,1.1,2.6,1.7c0.9,0.6,1.7,1.2,2.5,1.8c0.9,0.7,1.8,1.5,2.7,2.3s1.7,1.7,2.4,2.7s1.3,2.1,1.7,3.3
		s0.7,2.6,0.7,4.1C124.5,53.7,124.4,54.2,124.4,54.7z"/>
	<path class="st0" d="M130.8,13.7c0,0.4,0,0.8,0,1c0,0.3-0.1,0.5-0.1,0.7c-0.1,0.2-0.2,0.4-0.3,0.6s-0.2,0.4-0.3,0.7
		c-0.8,0.2-1.6,0.5-2.4,0.9c-0.8,0.4-1.5,0.7-2.3,1.1s-1.5,0.7-2.3,1c-0.7,0.3-1.5,0.5-2.3,0.6c-0.1-0.3-0.1-0.5-0.1-0.6
		c0-0.2,0-0.3,0-0.5s0.1-0.4,0.1-0.6s0-0.5,0-0.9c0.9-0.2,1.7-0.6,2.5-1s1.6-0.9,2.4-1.3c0.8-0.4,1.6-0.8,2.4-1.1
		C129,13.9,129.9,13.7,130.8,13.7z"/>
	<path class="st0" d="M127.2,21.8c-0.1,0.3-0.1,0.5-0.1,0.8s0,0.5,0,0.8c0,0.4,0,0.7,0.1,1s0.2,0.6,0.3,0.9c0.2,0.3,0.4,0.5,0.6,0.6
		c0.3,0.1,0.6,0.2,1,0.2c0.1,0,0.2,0,0.2,0c0.1,0,0.1,0,0.2,0c0.1-0.2,0.2-0.4,0.3-0.5c0.1-0.2,0.1-0.4,0.1-0.6l-0.3-2.2
		c0-0.2,0-0.4,0.1-0.6s0.2-0.4,0.3-0.6c0.5,0.4,0.9,0.9,1.2,1.5s0.4,1.3,0.4,2c0,0.4-0.1,0.9-0.2,1.3c-0.1,0.4-0.3,0.8-0.5,1.1
		s-0.5,0.6-0.8,0.8s-0.7,0.3-1.1,0.3c-0.3,0-0.6,0-0.9-0.1c-0.3-0.1-0.7-0.3-1.1-0.5c-0.8,0.6-1.5,0.9-2.3,0.9
		c-0.5,0-0.9-0.1-1.3-0.3c-0.4-0.2-0.7-0.4-1-0.7s-0.5-0.7-0.7-1.1s-0.3-0.8-0.3-1.3c0-0.4,0.1-0.9,0.3-1.3s0.5-0.9,0.9-1.3
		c0,0.3,0.1,0.7,0.1,1.2c0,0.4,0,0.8,0.1,1.2s0.2,0.7,0.4,1s0.5,0.4,0.8,0.4c0.4,0,0.7-0.1,0.9-0.2c0.2-0.2,0.4-0.4,0.5-0.6
		c0.1-0.3,0.2-0.6,0.2-0.9s0-0.7,0-1v-0.1c0-0.3,0-0.5,0-0.8c0-0.2,0-0.5,0.1-0.7s0.1-0.3,0.2-0.5c0.1-0.1,0.3-0.2,0.5-0.2
		C126.6,21.6,126.8,21.6,127.2,21.8z"/>
	<path class="st0" d="M130.2,37.1c0.1,0.3,0.1,0.5,0.2,0.8c0,0.3,0.1,0.6,0.1,0.9c0,0.4,0,0.7-0.1,1.1c-0.1,0.4-0.2,0.7-0.4,1
		s-0.4,0.5-0.6,0.7s-0.6,0.2-1,0.2h-0.3c0.3,1.5,0.6,2.9,0.8,4.4s0.3,3,0.3,4.4c0,1-0.1,2-0.2,3c-0.1,1-0.4,1.9-0.7,2.7
		c-0.3,0.9-0.7,1.7-1.2,2.4s-1.1,1.4-1.9,2s-1.8,1.1-3,1.4s-2.5,0.4-3.8,0.4c-1.2,0-2.3-0.1-3.5-0.3s-2.3-0.5-3.4-0.8
		c0.4-0.5,1-0.9,1.6-1.2s1.3-0.5,2-0.6s1.4-0.3,2.2-0.4s1.5-0.3,2.1-0.6c0.7-0.3,1.5-0.6,2.3-1s1.6-0.9,2.4-1.4s1.4-1,2-1.6
		s0.9-1.2,1.1-1.8c0.1-0.4,0.1-0.8,0.1-1.3c0-0.7-0.1-1.4-0.2-2.2c-0.2-0.8-0.4-1.6-0.6-2.4s-0.4-1.7-0.7-2.6
		c-0.2-0.9-0.4-1.7-0.5-2.6v-0.2c-0.1-0.8-0.2-1.7-0.4-2.7c-0.1-0.9-0.2-1.8-0.2-2.7c0-0.6,0-1.2,0.1-1.7s0.2-1,0.4-1.3
		c0.4,0.3,0.9,0.6,1.2,1c0.4,0.4,0.8,0.7,1.1,1.1s0.8,0.7,1.2,1C129.3,36.6,129.7,36.9,130.2,37.1z"/>
	<path class="st0" d="M147.1,64.1c0,0.4,0,0.8,0,1c0,0.3-0.1,0.5-0.1,0.7c-0.1,0.2-0.2,0.4-0.3,0.6s-0.2,0.4-0.3,0.7
		c-0.8,0.2-1.6,0.5-2.4,0.9c-0.8,0.4-1.5,0.7-2.3,1.1s-1.5,0.7-2.3,1c-0.7,0.3-1.5,0.5-2.3,0.6c-0.1-0.3-0.1-0.5-0.1-0.6
		c0-0.2,0-0.3,0-0.5s0.1-0.4,0.1-0.6s0-0.5,0-0.9c0.9-0.2,1.7-0.6,2.5-1s1.6-0.9,2.4-1.3c0.8-0.4,1.6-0.8,2.4-1.1
		C145.3,64.3,146.2,64.1,147.1,64.1z"/>
	<path class="st0" d="M134,35.1c0-0.5,0.1-0.9,0.1-1.3c0-0.3,0.1-0.6,0.1-0.7s0.1-0.3,0.1-0.3c0-0.1,0.1-0.1,0.1-0.1
		c0.1-0.1,0.2-0.2,0.2-0.2c0.1-0.1,0.2-0.1,0.2-0.1c0.1,0,0.2,0.1,0.4,0.2c0.5,0.5,1,0.9,1.6,1.4s1.2,1,1.7,1.6s1,1.2,1.4,1.9
		s0.6,1.5,0.6,2.5c0,0.2,0,0.4-0.1,0.7v0.1c0,0.3-0.1,0.5-0.2,0.5s-0.3,0.1-0.5,0.1c-0.2,0.1-0.4,0.1-0.5,0.2s-0.3,0.2-0.4,0.3
		c0.1,1.2,0.3,2.4,0.6,3.6c0.3,1.2,0.6,2.4,1,3.6c0.3,1.2,0.7,2.4,0.9,3.6c0.3,1.2,0.4,2.4,0.4,3.6c0,0.6,0,1.2-0.1,1.9
		c-0.1,0.6-0.2,1.2-0.5,1.9c-0.4-0.2-0.6-0.5-0.8-0.8s-0.3-0.6-0.4-0.9c-0.1-0.3-0.1-0.6-0.2-0.9c0-0.3-0.1-0.6-0.1-0.9
		c-0.1-0.8-0.3-1.6-0.5-2.5s-0.5-1.9-0.8-2.9s-0.6-2-0.9-3c-0.3-1-0.6-2-0.9-3c-0.2-0.8-0.4-1.5-0.7-2.3s-0.6-1.6-0.8-2.4
		c-0.3-0.8-0.5-1.7-0.7-2.5s-0.3-1.7-0.3-2.5L134,35.1L134,35.1z"/>
	<path class="st0" d="M158.3,20.5c0,0.4,0,0.8,0,1c0,0.3-0.1,0.5-0.1,0.7c-0.1,0.2-0.2,0.4-0.3,0.6s-0.2,0.4-0.3,0.7
		c-0.8,0.2-1.6,0.5-2.4,0.9c-0.8,0.4-1.5,0.7-2.3,1.1s-1.5,0.7-2.3,1c-0.7,0.3-1.5,0.5-2.3,0.6c-0.1-0.3-0.1-0.5-0.1-0.6
		c0-0.2,0-0.3,0-0.5s0.1-0.4,0.1-0.6s0-0.5,0-0.9c0.9-0.2,1.7-0.6,2.5-1s1.6-0.9,2.4-1.3c0.8-0.4,1.6-0.8,2.4-1.1
		C156.5,20.7,157.4,20.5,158.3,20.5z"/>
	<path class="st0" d="M161.9,39.9c-0.3,0.5-0.7,1-1.2,1.4c-0.4,0.4-0.9,0.8-1.3,1.2c-0.5,0.4-0.9,0.8-1.3,1.2s-0.8,0.9-1.1,1.4
		c0.5,0.6,1.1,1.3,1.7,1.8c0.6,0.6,1.2,1.2,1.7,1.9s0.9,1.4,1.3,2.3c0.3,0.8,0.5,1.8,0.5,3c0,0.9-0.2,1.8-0.7,2.5s-1.1,1.3-1.9,1.9
		c-0.8,0.5-1.6,0.9-2.5,1.2s-1.8,0.4-2.7,0.5h-0.2c-0.9,0-1.6-0.2-2.2-0.5c-0.6-0.3-1.1-0.7-1.5-1.2s-0.7-1.1-0.8-1.7
		c-0.2-0.7-0.3-1.3-0.3-2.1c0-1.1,0.2-2.2,0.5-3.3s0.9-2.1,1.5-3c-0.3-0.3-0.7-0.6-1-0.9c-0.4-0.3-0.7-0.7-1.1-1.1
		c-0.3-0.4-0.6-0.8-0.9-1.3s-0.3-1-0.3-1.5c0-0.6,0.2-1.3,0.5-2c0.7,0.1,1.3,0.2,1.8,0.4s1,0.5,1.5,0.7c0.5,0.3,0.9,0.5,1.4,0.8
		s1,0.5,1.6,0.6c0.6-0.3,1.2-0.6,1.8-0.9c0.6-0.3,1.2-0.7,1.7-1c0.6-0.3,1.1-0.7,1.7-1.1S161.3,40.2,161.9,39.9z M160.6,37.5
		c-0.2,0-0.3,0.1-0.5,0.1s-0.3,0-0.4,0c-0.4,0-0.8-0.1-1.2-0.2c-0.4-0.2-0.7-0.3-1-0.5s-0.7-0.4-1-0.6c-0.4-0.2-0.8-0.3-1.2-0.4
		c-0.3,0-0.6,0.2-0.7,0.4c-0.2,0.2-0.3,0.5-0.4,0.7c-0.1,0.3-0.2,0.5-0.4,0.8c-0.1,0.2-0.4,0.4-0.7,0.5c-0.5,0-0.9-0.1-1.3-0.2
		c-0.4-0.1-0.7-0.2-1.1-0.4c-0.3-0.2-0.6-0.3-0.9-0.5c-0.3-0.2-0.6-0.4-0.9-0.5v-0.3c0-0.8,0.1-1.4,0.2-2c0.1-0.6,0.3-1.2,0.4-1.8
		l0.1-0.2c0.1,0,0.2,0,0.2,0s0.1,0,0.2,0c0.3,0,0.7,0.1,1.1,0.2c0.4,0.1,0.7,0.2,1.1,0.4c0.4,0.2,0.7,0.3,1.1,0.5
		c0.4,0.2,0.7,0.3,1,0.4c0.3,0,0.6-0.1,0.8-0.3s0.4-0.3,0.5-0.6c0.1-0.2,0.2-0.5,0.3-0.7c0.1-0.3,0.2-0.5,0.3-0.8
		c0.7,0,1.4,0.1,2,0.3c0.6,0.2,1.1,0.4,1.6,0.7c0.4,0.3,0.8,0.7,1,1.2c0.3,0.5,0.4,1,0.4,1.6C161.2,35.9,161,36.6,160.6,37.5z
		 M153.4,49.1c-0.3,0.3-0.5,0.5-0.7,0.8s-0.5,0.6-0.6,0.9c-0.2,0.3-0.3,0.7-0.5,1.1c-0.1,0.4-0.2,0.9-0.2,1.4v0.2
		c0.3,0.4,0.8,0.7,1.5,0.9s1.4,0.3,2.2,0.3c0.5,0,1,0,1.4-0.1s0.9-0.2,1.3-0.4c0.4-0.2,0.7-0.4,1-0.6s0.5-0.5,0.6-0.9
		c-0.8-0.8-1.7-1.6-2.6-2.3c-0.9-0.7-2-1.3-3.2-1.7L153.4,49.1z"/>
	<path class="st0" d="M179.3,27.1c0,0.4,0,0.8,0,1c0,0.3-0.1,0.5-0.1,0.7c-0.1,0.2-0.2,0.4-0.3,0.6s-0.2,0.4-0.3,0.7
		c-0.8,0.2-1.6,0.5-2.4,0.9c-0.8,0.4-1.5,0.7-2.3,1.1c-0.8,0.4-1.5,0.7-2.3,1c-0.7,0.3-1.5,0.5-2.3,0.6c-0.1-0.3-0.1-0.5-0.1-0.6
		c0-0.2,0-0.3,0-0.5s0.1-0.4,0.1-0.6s0-0.5,0-0.9c0.9-0.2,1.7-0.6,2.5-1s1.6-0.9,2.4-1.3c0.8-0.4,1.6-0.8,2.4-1.1
		C177.5,27.3,178.3,27.1,179.3,27.1z"/>
	<path class="st0" d="M175.7,35.2c-0.1,0.3-0.1,0.5-0.1,0.8s0,0.5,0,0.8c0,0.4,0,0.7,0.1,1s0.2,0.6,0.3,0.9c0.2,0.3,0.4,0.5,0.6,0.6
		c0.3,0.1,0.6,0.2,1,0.2c0.1,0,0.2,0,0.2,0c0.1,0,0.1,0,0.2,0c0.1-0.2,0.2-0.4,0.3-0.5c0.1-0.2,0.1-0.4,0.1-0.6l-0.3-2.2
		c0-0.2,0-0.4,0.1-0.6s0.2-0.4,0.3-0.6c0.5,0.4,0.9,0.9,1.2,1.5s0.4,1.3,0.4,2c0,0.4-0.1,0.9-0.2,1.3c-0.1,0.4-0.3,0.8-0.5,1.1
		s-0.5,0.6-0.8,0.8s-0.7,0.3-1.1,0.3c-0.3,0-0.6,0-0.9-0.1c-0.3-0.1-0.7-0.3-1.1-0.5c-0.8,0.6-1.5,0.9-2.3,0.9
		c-0.5,0-0.9-0.1-1.3-0.3c-0.4-0.2-0.7-0.4-1-0.7s-0.5-0.7-0.7-1.1c-0.2-0.4-0.3-0.8-0.3-1.3c0-0.4,0.1-0.9,0.3-1.3s0.5-0.9,0.9-1.3
		c0,0.3,0.1,0.7,0.1,1.2c0,0.4,0,0.8,0.1,1.2s0.2,0.7,0.4,1s0.5,0.4,0.8,0.4c0.4,0,0.7-0.1,0.9-0.2c0.2-0.2,0.4-0.4,0.5-0.6
		c0.1-0.3,0.2-0.6,0.2-0.9c0-0.3,0-0.7,0-1v-0.1c0-0.3,0-0.5,0-0.8c0-0.2,0-0.5,0.1-0.7s0.1-0.3,0.2-0.5c0.1-0.1,0.3-0.2,0.5-0.2
		C175,35,175.3,35.1,175.7,35.2z"/>
	<path class="st0" d="M182.7,55.3h0.9c0.2,0.1,0.4,0.2,0.6,0.4c0.2,0.2,0.4,0.3,0.5,0.6c0.2,0.2,0.3,0.5,0.4,0.7
		c0.1,0.3,0.2,0.5,0.2,0.8c0,0.2,0,0.4-0.1,0.7s-0.1,0.5-0.3,0.7c-0.1,0.2-0.3,0.4-0.5,0.6s-0.5,0.4-0.8,0.5c-0.2,0-0.4,0-0.8,0
		s-0.7,0-1,0s-0.6,0.1-0.9,0.1s-0.4,0.2-0.5,0.3c-0.4,1.4-0.9,2.7-1.6,3.9c-0.6,1.2-1.4,2.3-2.3,3.2c-0.9,0.9-1.9,1.7-3.1,2.2
		c-1.2,0.5-2.6,0.8-4.2,0.9h-0.3c-0.6,0-1.3,0-2-0.1s-1.4-0.1-2.1-0.2c-0.7-0.1-1.4-0.2-2.1-0.2c-0.7-0.1-1.4-0.1-2.1-0.1
		c0.8-0.6,1.6-1,2.5-1.3s1.9-0.6,2.9-0.9s2-0.6,3-0.8c1-0.3,1.9-0.6,2.8-1.1l0.6-0.3c0.5-0.3,1.1-0.5,1.6-0.8c0.6-0.3,1.1-0.6,1.5-1
		c0.5-0.4,0.9-0.8,1.2-1.3s0.5-1,0.6-1.7c-0.5-0.1-1.1-0.3-1.7-0.3c-0.6-0.1-1.2-0.2-1.9-0.3c-0.6-0.1-1.3-0.3-1.9-0.4
		c-0.6-0.2-1.1-0.4-1.6-0.8c-0.3-0.6-0.4-1.3-0.6-2c-0.1-0.7-0.2-1.4-0.2-2.1s0.1-1.4,0.2-2.1s0.4-1.3,0.7-1.8s0.7-1,1.1-1.3
		c0.5-0.3,1-0.5,1.6-0.6c0.1,0,0.2,0,0.2,0c0.1,0,0.1,0,0.2,0c0.8,0,1.4,0.2,2,0.5c0.6,0.4,1.1,0.8,1.5,1.4c0.4,0.6,0.8,1.2,1.2,1.8
		c0.4,0.7,0.7,1.3,1.1,1.9c0.2,0.3,0.4,0.4,0.7,0.5s0.6,0.1,0.9,0.1h1.9L182.7,55.3L182.7,55.3z"/>
	<path class="st0" d="M182.6,27.4c0.2-0.5,0.5-0.9,0.9-1.2s0.8-0.5,1.3-0.7s0.9-0.5,1.3-0.7c0.4-0.3,0.7-0.6,1-1.1
		c-0.6-0.4-1-0.9-1.3-1.6s-0.4-1.4-0.4-2.1s0.1-1.5,0.3-2.2c0.2-0.8,0.5-1.4,0.9-2s0.9-1.1,1.4-1.5s1.1-0.6,1.7-0.6
		c0.5,0,0.9,0.1,1.4,0.4s1,0.7,1.5,1.2c0.1,0.4,0.2,0.8,0.2,1.1s0.1,0.7,0.1,1.1c0,1.3-0.3,2.5-0.9,3.6c-0.6,1.1-1.3,2-2.2,2.8
		c-0.5,0.5-1,0.9-1.7,1.3c-0.6,0.4-1.2,0.8-1.9,1.1c-0.6,0.3-1.3,0.6-1.9,0.8C183.8,27.2,183.2,27.3,182.6,27.4z M190.8,18.7
		c0-0.2-0.1-0.4-0.2-0.6s-0.3-0.3-0.5-0.4s-0.4-0.2-0.6-0.3c-0.2-0.1-0.5-0.1-0.7-0.1s-0.3,0-0.5,0c-0.1,0-0.3,0.1-0.4,0.2
		c-0.3,0.2-0.5,0.3-0.6,0.5s-0.2,0.3-0.2,0.5s0.1,0.4,0.2,0.6s0.3,0.4,0.5,0.5c0.2,0.2,0.5,0.3,0.7,0.4c0.3,0.1,0.5,0.1,0.8,0.1
		s0.6-0.1,0.9-0.3c0.3-0.2,0.4-0.5,0.4-1v-0.1C190.6,18.7,190.8,18.7,190.8,18.7z"/>
	<path class="st0" d="M183.2,60.1c-0.7-0.2-1.3-0.5-1.5-0.9c-0.3-0.4-0.4-0.9-0.4-1.4c0-0.6,0.2-1.1,0.5-1.6s0.8-0.8,1.5-1h2.7
		c0.9,0,1.9-0.1,2.9-0.3s1.9-0.5,2.8-0.9c0.8-0.4,1.6-0.8,2.1-1.4c0.6-0.5,0.9-1.1,1-1.7c-0.3-0.2-0.7-0.3-1.2-0.3
		c-0.3,0-0.7,0-1.1,0.1s-0.8,0.2-1.2,0.3s-0.8,0.2-1.3,0.3s-0.9,0.1-1.3,0.1c-0.5,0-0.9-0.1-1.3-0.2c-0.4-0.1-0.8-0.4-1.2-0.8
		c-0.3-0.6-0.5-1.2-0.7-1.9c-0.1-0.7-0.2-1.4-0.2-2.2c0-0.7,0.1-1.5,0.2-2.2c0.2-0.7,0.4-1.3,0.7-1.9c0.3-0.6,0.7-1,1.1-1.3
		c0.5-0.3,1-0.5,1.6-0.5s1.2,0.2,1.9,0.5c0.7,0.4,1.4,0.9,2,1.7c0.7,0.8,1.3,1.7,1.8,2.7s0.9,2.1,1.3,3.3c0.3,1.2,0.5,2.3,0.5,3.5
		c0,1.3-0.2,2.5-0.7,3.6s-1.3,2-2.5,2.8c-0.5,0.3-1,0.5-1.6,0.7s-1.2,0.4-1.9,0.5c-0.6,0.1-1.3,0.2-1.9,0.3
		c-0.6,0.1-1.2,0.1-1.7,0.1L183.2,60.1L183.2,60.1z M193.5,37.4c-0.2,0-0.3,0.1-0.5,0.1s-0.3,0-0.4,0c-0.4,0-0.8-0.1-1.2-0.2
		s-0.7-0.3-1-0.5s-0.7-0.4-1-0.6c-0.4-0.2-0.8-0.3-1.2-0.4c-0.3,0-0.6,0.2-0.7,0.4c-0.2,0.2-0.3,0.5-0.4,0.7
		c-0.1,0.3-0.2,0.5-0.4,0.8c-0.1,0.2-0.4,0.4-0.7,0.5c-0.5,0-0.9-0.1-1.3-0.2c-0.4-0.1-0.7-0.2-1.1-0.4s-0.6-0.3-0.9-0.5
		s-0.6-0.4-0.9-0.5v-0.1c0-0.8,0.1-1.4,0.2-2s0.3-1.2,0.4-1.8l0.1-0.2c0.1,0,0.2,0,0.2,0s0.1,0,0.2,0c0.3,0,0.7,0.1,1.1,0.2
		c0.4,0.1,0.7,0.2,1.1,0.4s0.7,0.3,1.1,0.5s0.7,0.3,1,0.4c0.3,0,0.6-0.1,0.8-0.3s0.4-0.3,0.5-0.6c0.1-0.2,0.2-0.5,0.3-0.7
		c0.1-0.3,0.2-0.5,0.3-0.8c0.7,0,1.4,0.1,2,0.3c0.6,0.2,1.1,0.4,1.6,0.7c0.4,0.3,0.8,0.7,1,1.2c0.3,0.5,0.4,1,0.4,1.6
		C194.1,35.8,193.9,36.5,193.5,37.4z"/>
	<path class="st0" d="M219.9,54.7c-0.6-1-1.2-1.9-1.8-2.8s-1.1-1.7-1.7-2.5s-1.3-1.5-2-2.2s-1.6-1.4-2.6-2.1
		c-0.4-0.3-0.9-0.6-1.3-0.8c-0.5-0.2-1-0.4-1.6-0.5c-0.4,0.3-0.9,0.5-1.2,0.7c-0.4,0.1-0.8,0.2-1.1,0.2c-0.8,0-1.4-0.3-2-0.8
		s-1.1-1.2-1.4-1.9c-0.4-0.8-0.7-1.6-0.9-2.5s-0.3-1.8-0.3-2.6c0-0.4,0-0.7,0.1-1s0.1-0.6,0.2-0.9c0.8,0.3,1.7,0.6,2.6,1
		s1.8,0.9,2.6,1.4s1.7,1.1,2.6,1.7c0.9,0.6,1.7,1.2,2.5,1.8c0.9,0.7,1.8,1.5,2.7,2.3s1.7,1.7,2.4,2.7s1.3,2.1,1.7,3.3
		s0.7,2.6,0.7,4.1C220,53.7,219.9,54.2,219.9,54.7z"/>
	<path class="st0" d="M226,22.1c0,0.4,0,0.8,0,1c0,0.3-0.1,0.5-0.1,0.7c-0.1,0.2-0.2,0.4-0.3,0.6s-0.2,0.4-0.3,0.7
		c-0.8,0.2-1.6,0.5-2.4,0.9s-1.5,0.7-2.3,1.1s-1.5,0.7-2.3,1c-0.7,0.3-1.5,0.5-2.3,0.6c-0.1-0.3-0.1-0.5-0.1-0.6c0-0.2,0-0.3,0-0.5
		s0.1-0.4,0.1-0.6s0-0.5,0-0.9c0.9-0.2,1.7-0.6,2.5-1s1.6-0.9,2.4-1.3c0.8-0.4,1.6-0.8,2.4-1.1C224.2,22.3,225,22.1,226,22.1z"/>
	<path class="st0" d="M225.7,37.1c0.1,0.3,0.1,0.5,0.2,0.8c0,0.3,0.1,0.6,0.1,0.9c0,0.4,0,0.7-0.1,1.1c-0.1,0.4-0.2,0.7-0.4,1
		s-0.4,0.5-0.6,0.7s-0.6,0.2-1,0.2h-0.3c0.3,1.5,0.6,2.9,0.8,4.4s0.3,3,0.3,4.4c0,1-0.1,2-0.2,3s-0.4,1.9-0.7,2.7
		c-0.3,0.9-0.7,1.7-1.2,2.4s-1.1,1.4-1.9,2s-1.8,1.1-3,1.4s-2.5,0.4-3.8,0.4c-1.2,0-2.3-0.1-3.5-0.3s-2.3-0.5-3.4-0.8
		c0.4-0.5,1-0.9,1.6-1.2s1.3-0.5,2-0.6s1.4-0.3,2.2-0.4c0.8-0.1,1.5-0.3,2.1-0.6c0.7-0.3,1.5-0.6,2.3-1s1.6-0.9,2.4-1.4s1.4-1,2-1.6
		s0.9-1.2,1.1-1.8c0.1-0.4,0.1-0.8,0.1-1.3c0-0.7-0.1-1.4-0.2-2.2c-0.2-0.8-0.4-1.6-0.6-2.4s-0.4-1.7-0.7-2.6
		c-0.2-0.9-0.4-1.7-0.5-2.6v-0.2c-0.1-0.8-0.2-1.7-0.4-2.7c-0.1-0.9-0.2-1.8-0.2-2.7c0-0.6,0-1.2,0.1-1.7s0.2-1,0.4-1.3
		c0.4,0.3,0.9,0.6,1.2,1c0.4,0.4,0.8,0.7,1.1,1.1s0.8,0.7,1.2,1C224.8,36.6,225.2,36.9,225.7,37.1z"/>
	<path class="st0" d="M241.6,32.6c0,0.4,0,0.8,0,1c0,0.3-0.1,0.5-0.1,0.7c-0.1,0.2-0.2,0.4-0.3,0.6c-0.1,0.2-0.2,0.4-0.3,0.7
		c-0.8,0.2-1.6,0.5-2.4,0.9s-1.5,0.7-2.3,1.1c-0.8,0.4-1.5,0.7-2.3,1c-0.7,0.3-1.5,0.5-2.3,0.6c-0.1-0.3-0.1-0.5-0.1-0.6
		c0-0.2,0-0.3,0-0.5s0.1-0.4,0.1-0.6s0-0.5,0-0.9c0.9-0.2,1.7-0.6,2.5-1s1.6-0.9,2.4-1.3c0.8-0.4,1.6-0.8,2.4-1.1
		C239.8,32.8,240.7,32.6,241.6,32.6z"/>
	<path class="st0" d="M227.4,64.5c0.8-0.5,1.7-1,2.7-1.4s2-0.8,3-1.1c1-0.4,2-0.7,3-1.1s1.9-0.8,2.8-1.3s1.6-1.1,2.3-1.8
		s1.2-1.6,1.6-2.6c-0.2-0.1-0.5-0.2-0.7-0.3c-0.3,0-0.5-0.1-0.8-0.1c-0.6,0-1.2,0.1-1.9,0.2c-0.6,0.1-1.3,0.2-1.9,0.2
		c-0.4,0-0.8-0.1-1.2-0.2c-0.4-0.1-0.7-0.3-1-0.6c-0.2-0.6-0.4-1.2-0.5-2s-0.2-1.5-0.2-2.3c0-0.7,0.1-1.4,0.2-2.1
		c0.1-0.7,0.3-1.3,0.6-1.8s0.6-0.9,1-1.3c0.4-0.3,0.9-0.5,1.6-0.5c0.2,0,0.5,0,0.7,0.1c0.3,0.1,0.5,0.1,0.8,0.2
		c0.8,0.3,1.5,0.8,2.1,1.4c0.6,0.6,1.1,1.4,1.5,2.3s0.7,1.8,0.9,2.8s0.3,2,0.3,3.1c0,0.7-0.1,1.4-0.2,2.2c-0.1,0.7-0.3,1.4-0.5,2
		s-0.5,1.3-0.8,1.8c-0.3,0.6-0.7,1-1.2,1.4c-0.5,0.5-1.2,0.9-1.9,1.3s-1.5,0.7-2.4,0.9s-1.8,0.4-2.8,0.5s-2,0.2-3.1,0.2
		c-0.7,0-1.4,0-2.1-0.1C228.8,64.6,228.1,64.6,227.4,64.5z"/>
	<path class="st0" d="M270.7,22.6c0,0.4,0,0.8,0,1c0,0.3-0.1,0.5-0.1,0.7c-0.1,0.2-0.2,0.4-0.3,0.6c-0.1,0.2-0.2,0.4-0.3,0.7
		c-0.8,0.2-1.6,0.5-2.4,0.9s-1.5,0.7-2.3,1.1s-1.5,0.7-2.3,1c-0.7,0.3-1.5,0.5-2.3,0.6c-0.1-0.3-0.1-0.5-0.1-0.6c0-0.2,0-0.3,0-0.5
		s0.1-0.4,0.1-0.6s0-0.5,0-0.9c0.9-0.2,1.7-0.6,2.5-1s1.6-0.9,2.4-1.3s1.6-0.8,2.4-1.1C268.9,22.8,269.8,22.6,270.7,22.6z"/>
	<path class="st0" d="M272.3,38.5c0,0.1,0,0.2,0,0.2c0,0.1,0,0.2,0,0.2c0,0.5-0.1,1-0.2,1.4c-0.2,0.4-0.3,0.7-0.5,1.1
		c-0.2,0.3-0.4,0.6-0.6,0.9c-0.2,0.3-0.3,0.7-0.3,1c0,0.1,0,0.2,0,0.3s0,0.2,0,0.3c0,0.6,0.1,1.3,0.3,2c0.2,0.7,0.4,1.4,0.6,2.1
		s0.5,1.5,0.7,2.2s0.4,1.5,0.5,2.1c0.1,0.8,0.3,1.7,0.3,2.6s0.1,1.7,0.1,2.5v0.1c0,1.6-0.3,3.1-0.9,4.6c-0.6,1.4-1.4,2.7-2.6,3.7
		c-1.1,1.1-2.5,1.9-4.1,2.5s-3.4,0.9-5.5,0.9c-1.5,0-2.9-0.3-4.1-1s-2.3-1.5-3.2-2.6s-1.6-2.3-2-3.7c-0.5-1.4-0.7-2.7-0.7-4.1
		c0-1.2,0.2-2.4,0.5-3.6c0.3-1.2,0.9-2.3,1.6-3.5c0.1-0.2,0.3-0.5,0.5-0.7c0.2-0.3,0.4-0.5,0.7-0.8c0.3-0.2,0.6-0.5,0.9-0.7
		s0.7-0.3,1.2-0.4c-0.1,0.6-0.3,1.2-0.7,1.6c-0.3,0.5-0.7,0.9-1,1.3s-0.7,0.8-1.1,1.3c-0.3,0.4-0.6,0.9-0.8,1.4
		c-0.1,0.4-0.2,0.7-0.3,1.1c0,0.4-0.1,0.7-0.1,1.1c0,0.7,0.1,1.4,0.2,2c0.2,0.7,0.4,1.3,0.7,2c0.3,0.6,0.7,1.2,1.1,1.7
		c0.5,0.5,1,1,1.5,1.4c0.7,0.5,1.6,0.9,2.6,1.1c1,0.2,2,0.3,3.1,0.3c0.5,0,1.1,0,1.6-0.1c0.5,0,1.1-0.1,1.6-0.2
		c0.8-0.1,1.6-0.3,2.5-0.7c0.9-0.3,1.7-0.8,2.4-1.3c0.7-0.6,1.4-1.3,1.9-2.1s0.7-1.8,0.7-2.9c0-0.1,0-0.2,0-0.3s0-0.2,0-0.3
		c0-0.6-0.2-1.2-0.3-2c-0.2-0.8-0.3-1.6-0.6-2.5c-0.2-0.9-0.4-1.7-0.7-2.6c-0.2-0.9-0.5-1.7-0.7-2.4c0-0.1,0-0.1,0-0.2v-0.1
		c-0.3-1.2-0.7-2.3-1.1-3.4c-0.4-1.1-0.8-2.3-1.2-3.4c-0.4-1.1-0.7-2.3-0.9-3.5c-0.2-1.2-0.4-2.4-0.4-3.6c0.1,0,0.2-0.1,0.2-0.2
		s0.1-0.1,0.2-0.1c0.6,0.1,1.1,0.4,1.6,0.9c0.5,0.4,1,0.9,1.4,1.5c0.5,0.5,0.9,1.1,1.4,1.7C271.2,37.7,271.7,38.2,272.3,38.5z"/>
	<path class="st0" d="M281.2,42.2c0.4-0.5,0.9-0.9,1.4-1.2c0.6-0.3,1.1-0.6,1.7-0.9c0.6-0.3,1.2-0.6,1.7-0.9c0.5-0.3,1-0.8,1.3-1.3
		c-0.2-0.3-0.5-0.6-0.8-0.7s-0.7-0.2-1.1-0.2c-0.3,0-0.7,0-1,0.1c-0.4,0.1-0.7,0.2-1,0.3s-0.7,0.2-1,0.3s-0.6,0.2-0.8,0.3
		c-0.1-0.4-0.2-0.9-0.2-1.3c0-0.6,0.1-1.1,0.4-1.5s0.6-0.8,1-1.1s0.9-0.5,1.4-0.7c0.5-0.1,1.1-0.2,1.6-0.2c0.4,0,0.8,0,1.2,0.1
		s0.8,0.2,1.1,0.4c0.3,0.2,0.6,0.4,0.8,0.7s0.4,0.6,0.5,1c0.1,0.3,0.1,0.6,0.1,1c0,0.7-0.1,1.3-0.4,1.8s-0.6,1-1,1.5
		c-0.4,0.4-0.9,0.8-1.4,1.2c-0.5,0.3-1.1,0.6-1.7,0.8s-1.2,0.4-1.7,0.5s-1.1,0.2-1.6,0.2c-0.1,0-0.2,0-0.2,0S281.3,42.2,281.2,42.2z
		"/>
	<path class="st0" d="M293.7,55.3h0.9c0.2,0.1,0.4,0.2,0.6,0.4s0.4,0.3,0.5,0.6c0.2,0.2,0.3,0.5,0.4,0.7c0.1,0.3,0.2,0.5,0.2,0.8
		c0,0.2,0,0.4-0.1,0.7s-0.1,0.5-0.3,0.7c-0.1,0.2-0.3,0.4-0.5,0.6s-0.5,0.4-0.8,0.5c-0.2,0-0.4,0-0.8,0s-0.7,0-1,0s-0.6,0.1-0.9,0.1
		s-0.4,0.2-0.5,0.3c-0.4,1.4-0.9,2.7-1.6,3.9c-0.6,1.2-1.4,2.3-2.3,3.2c-0.9,0.9-1.9,1.7-3.1,2.2s-2.6,0.8-4.2,0.9h-0.3
		c-0.6,0-1.3,0-2-0.1s-1.4-0.1-2.1-0.2s-1.4-0.2-2.1-0.2c-0.7-0.1-1.4-0.1-2.1-0.1c0.8-0.6,1.6-1,2.5-1.3s1.9-0.6,2.9-0.9
		s2-0.6,3-0.8c1-0.3,1.9-0.6,2.8-1.1l0.6-0.3c0.5-0.3,1.1-0.5,1.6-0.8c0.6-0.3,1.1-0.6,1.5-1c0.5-0.4,0.9-0.8,1.2-1.3
		c0.3-0.5,0.5-1,0.6-1.7c-0.5-0.1-1.1-0.3-1.7-0.3c-0.6-0.1-1.2-0.2-1.9-0.3c-0.6-0.1-1.3-0.3-1.9-0.4c-0.6-0.2-1.1-0.4-1.6-0.8
		c-0.3-0.6-0.4-1.3-0.6-2c-0.1-0.7-0.2-1.4-0.2-2.1s0.1-1.4,0.2-2.1s0.4-1.3,0.7-1.8c0.3-0.5,0.7-1,1.1-1.3c0.5-0.3,1-0.5,1.6-0.6
		c0.1,0,0.2,0,0.2,0c0.1,0,0.1,0,0.2,0c0.8,0,1.4,0.2,2,0.5c0.6,0.4,1.1,0.8,1.5,1.4c0.4,0.6,0.8,1.2,1.2,1.8
		c0.4,0.7,0.7,1.3,1.1,1.9c0.2,0.3,0.4,0.4,0.7,0.5s0.6,0.1,0.9,0.1h1.9L293.7,55.3L293.7,55.3z"/>
	<path class="st0" d="M312.9,32.3c0,0.4,0,0.8,0,1c0,0.3-0.1,0.5-0.1,0.7c-0.1,0.2-0.2,0.4-0.3,0.6c-0.1,0.2-0.2,0.4-0.3,0.7
		c-0.8,0.2-1.6,0.5-2.4,0.9s-1.5,0.7-2.3,1.1c-0.8,0.4-1.5,0.7-2.3,1c-0.7,0.3-1.5,0.5-2.3,0.6c-0.1-0.3-0.1-0.5-0.1-0.6
		c0-0.2,0-0.3,0-0.5s0.1-0.4,0.1-0.6s0-0.5,0-0.9c0.9-0.2,1.7-0.6,2.5-1s1.6-0.9,2.4-1.3c0.8-0.4,1.6-0.8,2.4-1.1
		C311.1,32.5,311.9,32.4,312.9,32.3z"/>
	<path class="st0" d="M294.2,60.1c-0.6-0.3-1-0.6-1.2-1c-0.3-0.4-0.4-0.9-0.4-1.4s0.1-0.9,0.4-1.4c0.3-0.4,0.7-0.8,1.2-1.1h1.5
		c0.6,0,1.3,0,2-0.1c0.8-0.1,1.6-0.2,2.4-0.4s1.7-0.4,2.6-0.7s1.7-0.7,2.5-1.1c-0.3-0.4-0.6-0.7-1.1-1.1s-0.9-0.6-1.5-0.8
		s-1.1-0.4-1.8-0.5c-0.6-0.1-1.2-0.2-1.9-0.2c-0.8,0-1.6,0.1-2.4,0.3s-1.4,0.5-1.9,1c0.3-0.9,0.6-1.6,1-2.2s0.8-1.1,1.3-1.4
		c0.5-0.4,1-0.6,1.6-0.8s1.2-0.2,1.8-0.2c0.9,0,1.8,0.1,2.7,0.4c1,0.2,2,0.5,3,0.9s2.1,0.7,3.2,1.2c1.1,0.4,2.2,0.8,3.3,1.2
		c1.1,0.4,2.2,0.7,3.3,0.9s2.1,0.4,3.2,0.4h0.5c0.2,0.4,0.2,0.8,0.2,1.3c0,0.6-0.1,1.1-0.3,1.6c-0.2,0.5-0.5,0.9-0.8,1.2h-0.1
		c-0.1,0.1-0.2,0.2-0.2,0.2h-0.1h-0.1H318c-0.7,0-1.4,0-2.3,0s-1.8,0-2.7,0c-1,0-2.1,0-3.1,0.1s-2,0.2-2.8,0.5
		c-0.8,0.2-1.6,0.5-2.4,0.9s-1.8,0.7-2.7,1.1c-1,0.4-1.9,0.7-2.9,0.9c-1,0.3-2,0.4-3,0.4h-1.9V60.1z"/>
	<path class="st0" d="M343.3,54.7c-0.6-1-1.2-1.9-1.8-2.8s-1.1-1.7-1.7-2.5s-1.3-1.5-2-2.2s-1.6-1.4-2.6-2.1
		c-0.4-0.3-0.9-0.6-1.3-0.8c-0.5-0.2-1-0.4-1.6-0.5c-0.4,0.3-0.9,0.5-1.2,0.7c-0.4,0.1-0.8,0.2-1.1,0.2c-0.8,0-1.4-0.3-2-0.8
		s-1.1-1.2-1.4-1.9c-0.4-0.8-0.7-1.6-0.9-2.5c-0.2-0.9-0.3-1.8-0.3-2.6c0-0.4,0-0.7,0.1-1s0.1-0.6,0.2-0.9c0.8,0.3,1.7,0.6,2.6,1
		s1.8,0.9,2.6,1.4s1.7,1.1,2.6,1.7c0.9,0.6,1.7,1.2,2.5,1.8c0.9,0.7,1.8,1.5,2.7,2.3c0.9,0.8,1.7,1.7,2.4,2.7c0.7,1,1.3,2.1,1.7,3.3
		c0.4,1.2,0.7,2.6,0.7,4.1C343.4,53.7,343.4,54.2,343.3,54.7z"/>
	<path class="st0" d="M349.4,22.1c0,0.4,0,0.8,0,1c0,0.3-0.1,0.5-0.1,0.7c-0.1,0.2-0.2,0.4-0.3,0.6c-0.1,0.2-0.2,0.4-0.3,0.7
		c-0.8,0.2-1.6,0.5-2.4,0.9s-1.5,0.7-2.3,1.1s-1.5,0.7-2.3,1c-0.7,0.3-1.5,0.5-2.3,0.6c-0.1-0.3-0.1-0.5-0.1-0.6c0-0.2,0-0.3,0-0.5
		s0.1-0.4,0.1-0.6s0-0.5,0-0.9c0.9-0.2,1.7-0.6,2.5-1s1.6-0.9,2.4-1.3s1.6-0.8,2.4-1.1C347.6,22.3,348.5,22.1,349.4,22.1z"/>
	<path class="st0" d="M349.2,37.1c0.1,0.3,0.1,0.5,0.2,0.8c0,0.3,0.1,0.6,0.1,0.9c0,0.4,0,0.7-0.1,1.1c-0.1,0.4-0.2,0.7-0.4,1
		c-0.2,0.3-0.4,0.5-0.6,0.7s-0.6,0.2-1,0.2h-0.3c0.3,1.5,0.6,2.9,0.8,4.4s0.3,3,0.3,4.4c0,1-0.1,2-0.2,3s-0.4,1.9-0.7,2.7
		c-0.3,0.9-0.7,1.7-1.2,2.4s-1.1,1.4-1.9,2s-1.8,1.1-3,1.4s-2.5,0.4-3.8,0.4c-1.2,0-2.3-0.1-3.5-0.3s-2.3-0.5-3.4-0.8
		c0.4-0.5,1-0.9,1.6-1.2s1.3-0.5,2-0.6s1.4-0.3,2.2-0.4c0.8-0.1,1.5-0.3,2.1-0.6c0.7-0.3,1.5-0.6,2.3-1s1.6-0.9,2.4-1.4s1.4-1,2-1.6
		s0.9-1.2,1.1-1.8c0.1-0.4,0.1-0.8,0.1-1.3c0-0.7-0.1-1.4-0.2-2.2c-0.2-0.8-0.4-1.6-0.6-2.4s-0.4-1.7-0.7-2.6
		c-0.2-0.9-0.4-1.7-0.5-2.6v-0.2c-0.1-0.8-0.2-1.7-0.4-2.7c-0.1-0.9-0.2-1.8-0.2-2.7c0-0.6,0-1.2,0.1-1.7s0.2-1,0.4-1.3
		c0.4,0.3,0.9,0.6,1.2,1c0.4,0.4,0.8,0.7,1.1,1.1s0.8,0.7,1.2,1C348.2,36.6,348.7,36.9,349.2,37.1z"/>
	<path class="st0" d="M365.1,32.6c0,0.4,0,0.8,0,1c0,0.3-0.1,0.5-0.1,0.7c-0.1,0.2-0.2,0.4-0.3,0.6c-0.1,0.2-0.2,0.4-0.3,0.7
		c-0.8,0.2-1.6,0.5-2.4,0.9s-1.5,0.7-2.3,1.1c-0.8,0.4-1.5,0.7-2.3,1c-0.7,0.3-1.5,0.5-2.3,0.6c-0.1-0.3-0.1-0.5-0.1-0.6
		c0-0.2,0-0.3,0-0.5s0.1-0.4,0.1-0.6s0-0.5,0-0.9c0.9-0.2,1.7-0.6,2.5-1s1.6-0.9,2.4-1.3c0.8-0.4,1.6-0.8,2.4-1.1
		C363.2,32.8,364.1,32.6,365.1,32.6z"/>
	<path class="st0" d="M350.8,64.5c0.8-0.5,1.7-1,2.7-1.4s2-0.8,3-1.1c1-0.4,2-0.7,3-1.1s1.9-0.8,2.8-1.3s1.6-1.1,2.3-1.8
		c0.7-0.7,1.2-1.6,1.6-2.6c-0.2-0.1-0.5-0.2-0.7-0.3c-0.3,0-0.5-0.1-0.8-0.1c-0.6,0-1.2,0.1-1.9,0.2c-0.6,0.1-1.3,0.2-1.9,0.2
		c-0.4,0-0.8-0.1-1.2-0.2c-0.4-0.1-0.7-0.3-1-0.6c-0.2-0.6-0.4-1.2-0.5-2s-0.2-1.5-0.2-2.3c0-0.7,0.1-1.4,0.2-2.1
		c0.1-0.7,0.3-1.3,0.6-1.8c0.3-0.5,0.6-0.9,1-1.3c0.4-0.3,0.9-0.5,1.6-0.5c0.2,0,0.5,0,0.7,0.1c0.3,0.1,0.5,0.1,0.8,0.2
		c0.8,0.3,1.5,0.8,2.1,1.4c0.6,0.6,1.1,1.4,1.5,2.3s0.7,1.8,0.9,2.8s0.3,2,0.3,3.1c0,0.7-0.1,1.4-0.2,2.2c-0.1,0.7-0.3,1.4-0.5,2
		s-0.5,1.3-0.8,1.8c-0.3,0.6-0.7,1-1.2,1.4c-0.5,0.5-1.2,0.9-1.9,1.3s-1.5,0.7-2.4,0.9s-1.8,0.4-2.8,0.5s-2,0.2-3.1,0.2
		c-0.7,0-1.4,0-2.1-0.1C352.3,64.6,351.6,64.6,350.8,64.5z"/>
	<path class="st0" d="M381.6,75.8c-0.2-0.3-0.4-0.5-0.5-0.8s-0.2-0.6-0.3-1c-0.1-0.3-0.1-0.7-0.2-1s-0.2-0.7-0.3-1.1
		s-0.2-0.8-0.4-1.2c-0.2-0.4-0.3-0.8-0.5-1.2s-0.3-0.9-0.4-1.3s-0.2-0.9-0.2-1.3c0-0.1,0-0.2,0-0.2s0-0.1,0-0.2
		c0-0.3,0.1-0.5,0.2-0.8s0.2-0.5,0.4-0.8c0.5,0.2,0.9,0.5,1.2,0.9c0.3,0.4,0.6,0.9,0.8,1.4c0.2,0.5,0.3,1.1,0.4,1.7s0.1,1.3,0.1,1.9
		c0,0.5,0,1,0,1.5s-0.1,1-0.1,1.4C381.8,74.4,381.7,75.1,381.6,75.8z"/>
	<path class="st0" d="M387.4,39.9c-0.3,0.5-0.7,1-1.2,1.4c-0.4,0.4-0.9,0.8-1.3,1.2c-0.5,0.4-0.9,0.8-1.3,1.2s-0.8,0.9-1.1,1.4
		c0.5,0.6,1.1,1.3,1.7,1.8c0.6,0.6,1.2,1.2,1.7,1.9s0.9,1.4,1.3,2.3c0.3,0.8,0.5,1.8,0.5,3c0,0.9-0.2,1.8-0.7,2.5s-1.1,1.3-1.9,1.9
		c-0.8,0.5-1.6,0.9-2.5,1.2s-1.8,0.4-2.7,0.5h-0.2c-0.9,0-1.6-0.2-2.2-0.5s-1.1-0.7-1.5-1.2s-0.7-1.1-0.8-1.7
		c-0.2-0.7-0.3-1.3-0.3-2.1c0-1.1,0.2-2.2,0.5-3.3s0.9-2.1,1.5-3c-0.3-0.3-0.7-0.6-1-0.9c-0.4-0.3-0.7-0.7-1.1-1.1
		c-0.3-0.4-0.6-0.8-0.9-1.3s-0.3-1-0.3-1.5c0-0.6,0.2-1.3,0.5-2c0.7,0.1,1.3,0.2,1.8,0.4s1,0.5,1.5,0.7c0.5,0.3,0.9,0.5,1.4,0.8
		s1,0.5,1.6,0.6c0.6-0.3,1.2-0.6,1.8-0.9c0.6-0.3,1.2-0.7,1.7-1c0.6-0.3,1.1-0.7,1.7-1.1S386.8,40.2,387.4,39.9z M378.9,49.1
		c-0.3,0.3-0.5,0.5-0.7,0.8s-0.5,0.6-0.6,0.9c-0.2,0.3-0.3,0.7-0.5,1.1c-0.1,0.4-0.2,0.9-0.2,1.4v0.2c0.3,0.4,0.8,0.7,1.5,0.9
		s1.4,0.3,2.2,0.3c0.5,0,1,0,1.4-0.1s0.9-0.2,1.3-0.4s0.7-0.4,1-0.6s0.5-0.5,0.6-0.9c-0.8-0.8-1.7-1.6-2.6-2.3s-2-1.3-3.2-1.7
		L378.9,49.1z"/>
	<path class="st0" d="M402.9,66.2c0,0.4,0,0.8,0,1c0,0.3-0.1,0.5-0.1,0.7c-0.1,0.2-0.1,0.4-0.3,0.6c-0.1,0.2-0.2,0.4-0.3,0.7
		c-0.8,0.2-1.6,0.5-2.4,0.9s-1.5,0.7-2.3,1.1s-1.5,0.7-2.3,1c-0.7,0.3-1.5,0.5-2.3,0.6c-0.1-0.3-0.1-0.5-0.1-0.6c0-0.2,0-0.3,0-0.5
		s0.1-0.4,0.1-0.6s0-0.5,0-0.9c0.9-0.2,1.7-0.6,2.5-1s1.6-0.9,2.4-1.3s1.6-0.8,2.4-1.1C401.1,66.4,402,66.2,402.9,66.2z"/>
	<path class="st0" d="M412,60.1c-0.2,0-0.4,0-0.6,0s-0.3-0.1-0.5-0.1s-0.3-0.1-0.5-0.1c-0.2-0.1-0.4-0.1-0.6-0.2
		c-0.5-0.2-1-0.5-1.5-0.8s-0.9-0.7-1.4-1.1s-0.9-0.8-1.4-1.2s-1-0.8-1.5-1.3c-0.4,0.9-0.8,1.8-1.2,2.8c-0.4,1-0.9,1.9-1.4,2.7
		s-1.2,1.5-2,2s-1.7,0.8-2.8,0.8c-1,0-1.8-0.2-2.5-0.7s-1.3-1.1-1.9-1.8c-0.5-0.8-1-1.7-1.3-2.7s-0.6-2.1-0.8-3.2
		c-0.2-1.1-0.3-2.3-0.4-3.5s-0.1-2.3-0.1-3.5c0-0.6,0-1.1,0-1.7c0-0.5,0-1,0.1-1.5c0.3,0.6,0.5,1.2,0.7,1.9s0.3,1.4,0.4,2.1
		c0.1,0.7,0.2,1.5,0.3,2.3c0.1,0.8,0.2,1.5,0.3,2.2c0.1,0.7,0.3,1.4,0.5,2s0.5,1.2,0.9,1.6c0.4,0.5,0.8,0.8,1.4,1.1s1.2,0.4,2,0.4
		c0.9,0,1.7-0.2,2.5-0.7s1.4-1.1,2-1.8c0.6-0.8,1-1.7,1.3-2.7s0.5-2,0.5-3.1v-0.5c0-0.7-0.1-1.4-0.3-2.1c-0.2-0.7-0.4-1.4-0.6-2.1
		c-0.2-0.7-0.4-1.3-0.6-2s-0.3-1.3-0.3-2c0-0.4,0-0.8,0.1-1.2s0.2-0.8,0.4-1.2c0.1,0.1,0.2,0.1,0.3,0.2c0.1,0.1,0.1,0.2,0.2,0.3
		c0.1,1,0.3,2,0.6,3c0.3,1,0.6,2.1,1,3.1s0.8,2,1.3,3s1.1,1.8,1.7,2.6s1.3,1.5,2,2.1s1.5,1,2.3,1.3c0.2,0.1,0.4,0.1,0.6,0.2
		s0.5,0.1,0.8,0.1h0.3c0.6,0.3,1.1,0.6,1.4,1s0.5,0.9,0.5,1.4s-0.2,0.9-0.5,1.3s-0.8,0.8-1.4,1.1H412V60.1z"/>
	<path class="st0" d="M418.5,43c0.4-0.5,0.9-0.9,1.4-1.2c0.6-0.3,1.1-0.6,1.7-0.9s1.2-0.6,1.7-0.9c0.5-0.3,1-0.8,1.3-1.3
		c-0.2-0.3-0.5-0.6-0.8-0.7c-0.3-0.1-0.7-0.2-1.1-0.2c-0.3,0-0.7,0-1,0.1c-0.4,0.1-0.7,0.2-1,0.3s-0.7,0.2-1,0.3s-0.6,0.2-0.8,0.3
		c-0.1-0.4-0.2-0.9-0.2-1.3c0-0.6,0.1-1.1,0.4-1.5s0.6-0.8,1-1.1s0.9-0.5,1.4-0.7s1.1-0.2,1.6-0.2c0.4,0,0.8,0,1.2,0.1
		c0.4,0.1,0.8,0.2,1.1,0.4c0.3,0.2,0.6,0.4,0.8,0.7c0.2,0.3,0.4,0.6,0.5,1c0.1,0.3,0.1,0.6,0.1,1c0,0.7-0.1,1.3-0.4,1.8
		s-0.6,1-1,1.5c-0.4,0.4-0.9,0.8-1.4,1.2c-0.5,0.3-1.1,0.6-1.7,0.8s-1.2,0.4-1.7,0.5s-1.1,0.2-1.6,0.2c-0.1,0-0.2,0-0.2,0
		S418.6,43,418.5,43z"/>
	<path class="st0" d="M411.8,60.1c-0.3,0-0.5-0.2-0.8-0.3c-0.2-0.2-0.4-0.4-0.6-0.6s-0.3-0.5-0.4-0.7c-0.1-0.3-0.1-0.5-0.1-0.7
		c0-0.3,0-0.5,0.1-0.8s0.2-0.5,0.4-0.7s0.3-0.4,0.6-0.6c0.2-0.2,0.5-0.3,0.8-0.4h1.1c0.6,0,1.2-0.1,1.8-0.3c0.5-0.2,1.1-0.4,1.6-0.7
		s1-0.6,1.5-0.9c0.5-0.3,1-0.6,1.5-0.9c0.5-0.3,1-0.5,1.6-0.7c0.5-0.2,1.1-0.3,1.8-0.4c0.2,0,0.3-0.2,0.4-0.3s0.1-0.3,0.2-0.5
		c0-0.2,0.1-0.4,0.2-0.5s0.2-0.3,0.4-0.3c0.5,0.2,0.9,0.4,1.2,0.8c0.2,0.3,0.5,0.7,0.6,1.2c0.2,0.4,0.4,0.9,0.6,1.3
		c0.2,0.4,0.6,0.8,1.1,1.2c0.3,0.2,0.7,0.4,1.1,0.6s0.9,0.3,1.3,0.3c0.5,0.1,1,0.1,1.4,0.2c0.5,0,1,0,1.5,0h0.6
		c0.5,0.1,0.9,0.2,1.3,0.3c0.3,0.2,0.6,0.4,0.8,0.6s0.3,0.5,0.4,0.7c0.1,0.3,0.1,0.5,0.1,0.8s-0.1,0.6-0.2,0.9
		c-0.1,0.3-0.3,0.6-0.5,0.8s-0.5,0.4-0.8,0.5s-0.7,0.2-1.2,0.2h-0.5c-1,0-2-0.1-3.1-0.3s-2.1-0.4-3-0.8c-0.3,0.1-0.5,0.3-0.8,0.5
		c-0.2,0.2-0.5,0.4-0.7,0.6c-0.3,0.2-0.5,0.4-0.8,0.5c-0.3,0.2-0.6,0.2-1,0.2c-0.2,0-0.4,0-0.6-0.1c-0.2,0-0.4-0.1-0.6-0.2
		c-0.2-0.2-0.3-0.5-0.3-0.8c-0.1-0.3-0.1-0.7-0.2-1c0-0.4-0.1-0.7-0.1-1.1s-0.1-0.7-0.1-1.1c-0.1-0.2-0.3-0.4-0.4-0.4
		c-0.2,0-0.3-0.1-0.5-0.1c-0.5,0.4-1.1,0.8-1.8,1.3s-1.4,0.9-2.1,1.3s-1.5,0.7-2.2,1s-1.5,0.4-2.1,0.4H411.8z"/>
	<path class="st0" d="M442.8,30.7c0,0.4,0,0.8,0,1c0,0.3-0.1,0.5-0.1,0.7c-0.1,0.2-0.2,0.4-0.3,0.6c-0.1,0.2-0.2,0.4-0.3,0.7
		c-0.8,0.2-1.6,0.5-2.4,0.9s-1.5,0.7-2.3,1.1s-1.5,0.7-2.3,1c-0.7,0.3-1.5,0.5-2.3,0.6c-0.1-0.3-0.1-0.5-0.1-0.6c0-0.2,0-0.3,0-0.5
		s0.1-0.4,0.1-0.6c0-0.2,0-0.5,0-0.9c0.9-0.2,1.7-0.6,2.5-1s1.6-0.9,2.4-1.3c0.8-0.4,1.6-0.8,2.4-1.1
		C441,30.9,441.9,30.7,442.8,30.7z"/>
	<path class="st0" d="M441.7,45.9c0.9,0,1.5,0.3,2,0.8s0.7,1.1,0.7,1.8c0,0.1,0,0.2,0,0.3s0,0.2,0,0.3c1.4,0.4,2.8,0.8,4.1,1.1
		s2.6,0.6,3.9,0.9c1.3,0.3,2.6,0.5,3.9,0.8s2.6,0.6,4,1c0.1,0.2,0.1,0.4,0.2,0.7c0,0.2,0,0.5,0,0.8c0,0.6-0.1,1.2-0.2,1.8
		c-0.2,0.6-0.4,1.1-0.6,1.4c-0.5-0.1-0.9-0.1-1.4-0.1s-1,0-1.5,0c-1.6,0-3.4,0.1-5.2,0.4s-3.7,0.5-5.5,0.9c-1.8,0.3-3.6,0.6-5.3,1
		s-3.3,0.5-4.6,0.7c-0.3,0-0.7,0.1-1.2,0.1s-0.8,0-1.1,0H433c-0.3,0-0.5-0.1-0.7-0.2s-0.4-0.3-0.5-0.5s-0.2-0.5-0.3-0.7
		s-0.1-0.6-0.1-0.9s0-0.6,0.1-0.9s0.2-0.6,0.3-0.8c0.1-0.2,0.3-0.4,0.5-0.6s0.4-0.2,0.7-0.3h2.8c0.7,0,1.4-0.1,2.1-0.2
		c0.7-0.1,1.4-0.2,2-0.4s1.3-0.3,2-0.5s1.3-0.4,1.9-0.6c-0.2-0.3-0.5-0.5-0.9-0.7s-0.9-0.4-1.5-0.6s-1.2-0.4-1.9-0.5
		c-0.7-0.2-1.3-0.4-2-0.6c-0.6-0.2-1.2-0.4-1.8-0.7c-0.6-0.2-1-0.5-1.3-0.9c0.3-0.7,0.6-1.3,1.1-1.8s1.1-0.8,1.7-1.1
		s1.4-0.5,2.1-0.6C440.1,46.1,440.9,46,441.7,45.9z"/>
	<path class="st0" d="M459.2,68.7c0,0.4,0,0.8,0,1c0,0.3-0.1,0.5-0.1,0.7c-0.1,0.2-0.2,0.4-0.3,0.6s-0.2,0.4-0.3,0.7
		c-0.8,0.2-1.6,0.5-2.4,0.9s-1.5,0.7-2.3,1.1s-1.5,0.7-2.3,1c-0.7,0.3-1.5,0.5-2.3,0.6c-0.1-0.3-0.1-0.5-0.1-0.6c0-0.2,0-0.3,0-0.5
		s0.1-0.4,0.1-0.6s0-0.5,0-0.9c0.9-0.2,1.7-0.6,2.5-1s1.6-0.9,2.4-1.3s1.6-0.8,2.4-1.1C457.4,68.9,458.2,68.7,459.2,68.7z"/>
	<path class="st0" d="M444.4,49c-0.2,0.1-0.5,0.2-0.8,0.2s-0.6-0.1-0.8-0.2c-0.3-0.1-0.5-0.3-0.7-0.4c-0.2-0.2-0.4-0.4-0.5-0.7
		s-0.2-0.6-0.2-0.9c0-0.3,0.1-0.7,0.3-1.2l0.5-0.1c0.6-0.1,1.2-0.1,1.8-0.2s1.2-0.2,1.7-0.3s1.1-0.3,1.6-0.5s1-0.4,1.4-0.7
		c0.5-0.3,0.8-0.7,1.1-1.2s0.4-0.9,0.6-1.3c0.2-0.4,0.4-0.9,0.6-1.3c0.2-0.4,0.6-0.8,1.2-1.1c0.5,0.4,1,0.8,1.5,1.3s0.9,1,1.3,1.6
		s0.7,1.2,0.9,2c0.2,0.7,0.4,1.5,0.4,2.3c0,0.5,0,1-0.1,1.4c-0.5-0.1-1-0.4-1.3-0.7s-0.7-0.7-1-1.1c-0.3-0.4-0.6-0.8-0.9-1.2
		s-0.6-0.7-1-1c-0.3,0.2-0.6,0.4-0.8,0.7s-0.3,0.5-0.4,0.8s-0.3,0.6-0.4,0.8s-0.4,0.5-0.7,0.7s-0.6,0.3-0.9,0.4
		c-0.3,0.1-0.7,0.1-1,0.1s-0.7,0.1-1,0.1s-0.7,0.1-0.9,0.2c-0.3,0.1-0.6,0.2-0.8,0.5C444.7,48.3,444.5,48.6,444.4,49z M454.9,59.2
		c0.9,0.1,1.6,0.3,2.2,0.6s1.1,0.7,1.6,1.2c0,0.8-0.1,1.5-0.3,2.2s-0.4,1.2-0.9,1.5h-0.3c-1.5,0-2.6-0.5-3.2-1.4
		c0-0.4,0.1-0.8,0.1-1.2s0-0.7,0.1-1.1c0-0.3,0.1-0.7,0.2-1C454.4,59.8,454.6,59.5,454.9,59.2z"/>
	<path class="st0" d="M478.5,32.6c0,0.4,0,0.8,0,1c0,0.3-0.1,0.5-0.1,0.7c-0.1,0.2-0.2,0.4-0.3,0.6c-0.1,0.2-0.2,0.4-0.3,0.7
		c-0.8,0.2-1.6,0.5-2.4,0.9s-1.5,0.7-2.3,1.1s-1.5,0.7-2.3,1c-0.7,0.3-1.5,0.5-2.3,0.6c-0.1-0.3-0.1-0.5-0.1-0.6c0-0.2,0-0.3,0-0.5
		s0.1-0.4,0.1-0.6c0-0.2,0-0.5,0-0.9c0.9-0.2,1.7-0.6,2.5-1s1.6-0.9,2.4-1.3c0.8-0.4,1.6-0.8,2.4-1.1
		C476.7,32.8,477.5,32.6,478.5,32.6z"/>
	<path class="st0" d="M464.3,64.5c0.8-0.5,1.7-1,2.7-1.4s2-0.8,3-1.1c1-0.4,2-0.7,3-1.1s1.9-0.8,2.8-1.3s1.6-1.1,2.3-1.8
		c0.7-0.7,1.2-1.6,1.6-2.6c-0.2-0.1-0.5-0.2-0.7-0.3c-0.3,0-0.5-0.1-0.8-0.1c-0.6,0-1.2,0.1-1.9,0.2c-0.6,0.1-1.3,0.2-1.9,0.2
		c-0.4,0-0.8-0.1-1.2-0.2s-0.7-0.3-1-0.6c-0.2-0.6-0.4-1.2-0.5-2s-0.2-1.5-0.2-2.3c0-0.7,0.1-1.4,0.2-2.1c0.1-0.7,0.3-1.3,0.6-1.8
		s0.6-0.9,1-1.3c0.4-0.3,0.9-0.5,1.6-0.5c0.2,0,0.5,0,0.7,0.1c0.3,0.1,0.5,0.1,0.8,0.2c0.8,0.3,1.5,0.8,2.1,1.4
		c0.6,0.6,1.1,1.4,1.5,2.3s0.7,1.8,0.9,2.8s0.3,2,0.3,3.1c0,0.7-0.1,1.4-0.2,2.2c-0.1,0.7-0.3,1.4-0.5,2s-0.5,1.3-0.8,1.8
		c-0.3,0.6-0.7,1-1.2,1.4c-0.5,0.5-1.2,0.9-1.9,1.3s-1.5,0.7-2.4,0.9s-1.8,0.4-2.8,0.5s-2,0.2-3.1,0.2c-0.7,0-1.4,0-2.1-0.1
		C465.7,64.6,465,64.6,464.3,64.5z"/>
	<path class="st0" d="M498.2,74.4c0,0.4,0,0.8,0,1c0,0.3-0.1,0.5-0.1,0.7c-0.1,0.2-0.2,0.4-0.3,0.6s-0.2,0.4-0.3,0.7
		c-0.8,0.2-1.6,0.5-2.4,0.9s-1.5,0.7-2.3,1.1s-1.5,0.7-2.3,1c-0.7,0.3-1.5,0.5-2.3,0.6c-0.1-0.3-0.1-0.5-0.1-0.6c0-0.2,0-0.3,0-0.5
		s0.1-0.4,0.1-0.6s0-0.5,0-0.9c0.9-0.2,1.7-0.6,2.5-1s1.6-0.9,2.4-1.3s1.6-0.8,2.4-1.1C496.3,74.6,497.2,74.4,498.2,74.4z"/>
	<path class="st0" d="M502.2,44.4c0.4,0.1,0.8,0.2,1.1,0.4s0.5,0.4,0.7,0.7s0.3,0.6,0.4,0.9s0.1,0.7,0.1,1c0,0.4,0,0.7-0.1,1
		s-0.2,0.6-0.4,0.9c-0.2,0.3-0.4,0.5-0.7,0.6c-0.3,0.2-0.6,0.2-1,0.2c-0.1,0-0.2,0-0.3,0s-0.2,0-0.3,0c-0.2,0-0.4,0-0.5,0
		c-0.2,0-0.4,0-0.6,0.1c0.6,0.2,1.2,0.5,1.7,0.9s1,0.8,1.3,1.3c0.4,0.5,0.7,1,0.9,1.6s0.3,1.2,0.3,1.8s-0.1,1.2-0.3,1.8
		c-0.2,0.6-0.6,1.2-1.1,1.8c-0.7,0.3-1.4,0.4-2.1,0.4c-0.6,0-1.3-0.1-1.9-0.3s-1.1-0.5-1.6-0.9s-0.9-0.8-1.3-1.3s-0.6-1-0.8-1.5
		c-0.7-0.1-1.3-0.1-1.9-0.1c-1.3,0-2.1,0.2-2.6,0.7s-0.7,1.1-0.7,1.9c0,0.6,0.1,1.2,0.3,1.9c0.2,0.7,0.4,1.5,0.7,2.3
		c0.2,0.8,0.5,1.6,0.7,2.5s0.4,1.7,0.5,2.6c0.1,0.8,0.1,1.5,0.1,2.2c0,0.9-0.1,1.7-0.3,2.4c-0.2,0.8-0.5,1.5-1,2.2
		c-0.3-0.5-0.6-1-0.8-1.7s-0.3-1.4-0.4-2.1c-0.1-0.8-0.2-1.5-0.4-2.4c-0.1-0.8-0.3-1.6-0.5-2.5c-0.2-0.6-0.4-1.3-0.6-2
		c-0.3-0.7-0.5-1.5-0.7-2.3s-0.4-1.6-0.6-2.4c-0.2-0.8-0.3-1.6-0.3-2.4c0-0.9,0.1-1.7,0.4-2.5s0.8-1.5,1.6-2
		c0.4-0.3,0.8-0.5,1.2-0.7c0.5-0.2,0.9-0.3,1.5-0.4c0.5-0.1,1.1-0.1,1.7-0.2c0.6,0,1.2-0.1,1.9-0.2c0.2-0.1,0.3-0.3,0.4-0.6
		s0.1-0.5,0.2-0.8s0.1-0.6,0.2-0.9c0.1-0.3,0.2-0.6,0.4-0.9c0.3-0.5,0.6-0.9,1-1.2c0.4-0.4,0.9-0.7,1.3-1c0.5-0.3,1-0.5,1.5-0.6
		S501.7,44.4,502.2,44.4L502.2,44.4z"/>
	<path class="st0" d="M506.6,37c0.4-0.5,0.9-0.9,1.4-1.2c0.6-0.3,1.1-0.6,1.7-0.9s1.2-0.6,1.7-0.9c0.5-0.3,1-0.8,1.3-1.3
		c-0.2-0.3-0.5-0.6-0.8-0.7c-0.3-0.1-0.7-0.2-1.1-0.2c-0.3,0-0.7,0-1,0.1c-0.4,0.1-0.7,0.2-1,0.3s-0.7,0.2-1,0.3s-0.6,0.2-0.8,0.3
		c-0.1-0.4-0.2-0.9-0.2-1.3c0-0.6,0.1-1.1,0.4-1.5s0.6-0.8,1-1.1s0.9-0.5,1.4-0.7s1.1-0.2,1.6-0.2c0.4,0,0.8,0,1.2,0.1
		s0.8,0.2,1.1,0.4s0.6,0.4,0.8,0.7s0.4,0.6,0.5,1c0.1,0.3,0.1,0.6,0.1,1c0,0.7-0.1,1.3-0.4,1.8c-0.3,0.5-0.6,1-1,1.5
		c-0.4,0.4-0.9,0.8-1.4,1.2c-0.5,0.3-1.1,0.6-1.7,0.8s-1.2,0.4-1.7,0.5s-1.1,0.2-1.6,0.2c-0.1,0-0.2,0-0.2,0S506.7,37,506.6,37z"/>
	<path class="st0" d="M502.2,50.3c-0.6,0-1-0.3-1.3-0.8s-0.4-1.1-0.4-1.8c0-0.3,0-0.7,0.1-1s0.2-0.7,0.3-0.9s0.3-0.5,0.6-0.7
		c0.2-0.2,0.5-0.4,0.8-0.5c0.7,0,1.4,0.2,1.9,0.5c0.6,0.3,1.1,0.7,1.5,1.3s0.8,1.2,1.2,2c0.4,0.7,0.7,1.4,1.1,2.2s0.8,1.5,1.2,2.1
		s1,1.2,1.5,1.7s1.3,0.8,2.1,0.9c0,0,0.3,0,0.6,0s0.8,0,1.2,0s0.8,0,1.2,0s0.6,0,0.6,0h0.2c0.3,0,0.6,0.1,0.8,0.2s0.4,0.3,0.6,0.6
		s0.3,0.5,0.3,0.8s0.1,0.6,0.1,0.9c0,0.6-0.2,1.2-0.5,1.7s-0.8,0.7-1.4,0.7h-3.8c-0.2,0-0.4,0-0.6,0c-0.2,0-0.4,0-0.5-0.1
		c-0.8-0.2-1.5-0.5-2.1-1s-1.1-1.1-1.6-1.8s-0.9-1.4-1.3-2.2s-0.8-1.5-1.2-2.1s-0.9-1.2-1.4-1.7C503.5,50.7,502.9,50.4,502.2,50.3z
		 M512.4,68.6c-0.2,0-0.3,0.1-0.5,0.1s-0.3,0-0.4,0c-0.4,0-0.8-0.1-1.2-0.2s-0.7-0.3-1-0.5s-0.7-0.4-1-0.6c-0.4-0.2-0.8-0.3-1.2-0.4
		c-0.3,0-0.6,0.2-0.7,0.4c-0.2,0.2-0.3,0.5-0.4,0.7c-0.1,0.3-0.2,0.5-0.4,0.8c-0.1,0.2-0.4,0.4-0.7,0.5c-0.5,0-0.9-0.1-1.3-0.2
		s-0.7-0.2-1.1-0.4c-0.3-0.2-0.6-0.3-0.9-0.5s-0.6-0.4-0.9-0.5v-0.1c0-0.8,0.1-1.4,0.2-2s0.3-1.2,0.4-1.8l0.1-0.2c0.1,0,0.2,0,0.2,0
		c0.1,0,0.1,0,0.2,0c0.3,0,0.7,0.1,1.1,0.2s0.7,0.2,1.1,0.4s0.7,0.3,1.1,0.5s0.7,0.3,1,0.4c0.3,0,0.6-0.1,0.8-0.3s0.4-0.3,0.5-0.6
		c0.1-0.2,0.2-0.5,0.3-0.7c0.1-0.3,0.2-0.5,0.3-0.8c0.7,0,1.4,0.1,2,0.3s1.1,0.4,1.6,0.7c0.5,0.3,0.8,0.7,1,1.2
		c0.3,0.5,0.4,1,0.4,1.6C513,67,512.8,67.8,512.4,68.6z"/>
	<path class="st0" d="M532.8,62.6c0,0.4,0,0.8,0,1c0,0.3-0.1,0.5-0.1,0.7c-0.1,0.2-0.2,0.4-0.3,0.6s-0.2,0.4-0.3,0.7
		c-0.8,0.2-1.6,0.5-2.4,0.9c-0.8,0.4-1.5,0.7-2.3,1.1s-1.5,0.7-2.3,1c-0.7,0.3-1.5,0.5-2.3,0.6c-0.1-0.3-0.1-0.5-0.1-0.6
		c0-0.2,0-0.3,0-0.5s0.1-0.4,0.1-0.6s0-0.5,0-0.9c0.9-0.2,1.7-0.6,2.5-1s1.6-0.9,2.4-1.3s1.6-0.8,2.4-1.1
		C531,62.8,531.8,62.6,532.8,62.6z"/>
	<path class="st0" d="M538.7,55.3h2.7c0.4,0,0.8,0.1,1.1,0.2c0.3,0.2,0.6,0.4,0.8,0.6s0.3,0.5,0.5,0.8c0.1,0.3,0.2,0.5,0.2,0.8
		s-0.1,0.6-0.2,0.9c-0.1,0.3-0.3,0.5-0.5,0.8s-0.5,0.4-0.8,0.6s-0.6,0.2-1,0.2c-2.2,0-4.2,0.1-5.8,0.1c-1.7,0-3.2,0-4.6,0
		c-1.4,0-2.7,0-3.8,0s-2.2,0-3.3,0c-1,0-2.1,0-3.1,0s-2.4,0-4.2,0c-0.4,0-0.7-0.1-1-0.2s-0.5-0.4-0.7-0.6s-0.3-0.5-0.4-0.8
		s-0.1-0.5-0.1-0.8s0-0.5,0.1-0.8s0.2-0.6,0.4-0.8c0.2-0.3,0.4-0.5,0.7-0.6c0.3-0.2,0.6-0.3,1-0.3h1l0.5-0.2c0.9-0.4,1.5-1,1.8-1.8
		s0.5-1.8,0.5-3c0-0.9-0.1-1.9-0.2-2.9c-0.2-1-0.4-2.1-0.6-3.2c-0.3-1.1-0.5-2.1-0.8-3.2c-0.3-1.1-0.6-2.1-0.8-3
		c-0.3-1-0.5-1.8-0.6-2.7s-0.3-1.5-0.3-2.1c0-0.1,0-0.2,0-0.2s0-0.1,0-0.2c0.6,0.3,1.2,0.6,1.9,1.1s1.3,0.9,1.8,1.4
		c0.6,0.5,1,1.1,1.4,1.8c0.4,0.6,0.5,1.3,0.5,2.1s-0.2,1.6-0.7,2.4c0.2,0.6,0.4,1.1,0.5,1.5s0.1,0.8,0.2,1.2s0.1,0.8,0.2,1.2
		c0.1,0.4,0.2,0.9,0.5,1.6c0.8-0.7,1.7-1.2,2.6-1.5c1-0.3,2-0.5,3-0.5c1.2,0,2.4,0.2,3.6,0.6c1.2,0.4,2.2,1,3.2,1.8
		c0.9,0.8,1.7,1.7,2.3,2.8s0.9,2.4,0.9,3.7C538.8,54.4,538.7,54.8,538.7,55.3z M533.5,53.9c0.3-0.4,0.4-0.7,0.4-1.1
		c0-0.3-0.1-0.6-0.2-0.9s-0.3-0.6-0.5-0.8s-0.4-0.4-0.7-0.6c-0.2-0.2-0.4-0.3-0.6-0.4c-0.5-0.2-0.9-0.3-1.4-0.4
		c-0.5-0.1-0.9-0.1-1.4-0.1c-0.8,0-1.6,0.1-2.3,0.3l-0.2,0.1c-0.2,0.1-0.5,0.2-0.9,0.5c-0.4,0.2-0.8,0.5-1.3,0.9s-0.9,0.9-1.3,1.5
		c-0.4,0.6-0.7,1.3-0.8,2.2c0.5,0,1.1,0.1,1.9,0.2c0.8,0.1,1.7,0.1,2.7,0.1c0.6,0,1.3,0,2-0.1c0.7,0,1.3-0.1,1.9-0.2
		c0.6-0.1,1.1-0.3,1.6-0.5C532.8,54.4,533.2,54.2,533.5,53.9z M527.1,37.2c0.9,0.1,1.6,0.3,2.2,0.6c0.6,0.3,1.1,0.7,1.6,1.2
		c0,0.8-0.1,1.5-0.3,2.2c-0.1,0.7-0.4,1.2-0.9,1.5h-0.3c-1.5,0-2.6-0.5-3.2-1.4c0-0.4,0.1-0.8,0.1-1.2s0-0.7,0.1-1.1
		c0-0.3,0.1-0.7,0.2-1S526.8,37.5,527.1,37.2z"/>
	<path class="st0" d="M554.2,31.6c0,0.4,0,0.8,0,1c0,0.3-0.1,0.5-0.1,0.7c-0.1,0.2-0.2,0.4-0.3,0.6c-0.1,0.2-0.2,0.4-0.3,0.7
		c-0.8,0.2-1.6,0.5-2.4,0.9c-0.8,0.4-1.5,0.7-2.3,1.1s-1.5,0.7-2.3,1c-0.7,0.3-1.5,0.5-2.3,0.6c-0.1-0.3-0.1-0.5-0.1-0.6
		c0-0.2,0-0.3,0-0.5s0.1-0.4,0.1-0.6c0-0.2,0-0.5,0-0.9c0.9-0.2,1.7-0.6,2.5-1s1.6-0.9,2.4-1.3c0.8-0.4,1.6-0.8,2.4-1.1
		C552.4,31.8,553.3,31.6,554.2,31.6z"/>
	<path class="st0" d="M540.8,60.1c-0.4,0-0.7-0.1-1-0.2s-0.6-0.3-0.8-0.6c-0.2-0.2-0.4-0.5-0.5-0.8s-0.2-0.6-0.2-0.9
		s0.1-0.6,0.2-0.9c0.1-0.3,0.3-0.5,0.5-0.8c0.2-0.2,0.5-0.4,0.8-0.5s0.7-0.2,1.1-0.2c0.6,0,1.2-0.1,1.9-0.2s1.4-0.3,2.1-0.5
		s1.2-0.5,1.7-0.8s0.7-0.7,0.7-1.1c0-0.2-0.1-0.5-0.2-0.8c-0.2-0.3-0.4-0.6-0.8-0.9c-0.1,0-0.2,0-0.3,0s-0.2,0-0.3,0
		c-0.3,0-0.5,0-0.8,0.1c-0.2,0.1-0.4,0.1-0.6,0.2c-0.2,0.1-0.4,0.1-0.6,0.2c-0.2,0.1-0.5,0.1-0.7,0.1c-0.1,0-0.2,0-0.2,0
		s-0.1,0-0.2,0c-0.1-0.4-0.2-0.8-0.2-1.2c0-0.5,0.1-1,0.2-1.6c0.1-0.5,0.3-1,0.4-1.4c0.5-0.2,1-0.4,1.6-0.6c0.6-0.2,1.2-0.4,1.8-0.5
		s1.3-0.3,2-0.3c0.7-0.1,1.4-0.1,2.1-0.1c1,0,1.9,0.1,2.7,0.3c0.9,0.2,1.6,0.5,2.2,1c0.1,0.5,0.2,1,0.2,1.4c0,0.5-0.1,1-0.2,1.5
		c-0.1,0.5-0.3,0.9-0.5,1.3c-0.2,0.4-0.4,0.8-0.7,1.2c-0.2,0.4-0.5,0.7-0.7,1.1c0.2,0.2,0.5,0.4,0.9,0.5c0.4,0.2,0.9,0.4,1.4,0.5
		c0.5,0.2,1,0.3,1.5,0.4s1,0.2,1.4,0.2h0.5c0.5,0,0.9,0.1,1.2,0.2c0.4,0.2,0.7,0.3,0.9,0.6c0.3,0.2,0.5,0.5,0.6,0.8s0.2,0.6,0.2,0.9
		s-0.1,0.6-0.2,0.9c-0.2,0.3-0.4,0.5-0.7,0.7s-0.6,0.4-0.9,0.5c-0.4,0.1-0.7,0.2-1.1,0.3h-0.5c-1,0-1.8-0.1-2.5-0.2
		s-1.3-0.3-1.8-0.5s-1-0.4-1.3-0.7c-0.4-0.2-0.7-0.5-1-0.7s-0.6-0.4-1-0.5c-0.3-0.1-0.7-0.2-1.1-0.3h-0.3c-0.6,0-1.1,0.1-1.7,0.4
		c-0.5,0.3-1.1,0.6-1.7,0.9c-0.6,0.3-1.2,0.6-1.8,1c-0.6,0.3-1.3,0.5-2,0.5c-0.1,0-0.3,0-0.4,0c-0.1,0-0.3,0-0.4,0L540.8,60.1
		L540.8,60.1z M549.9,51.2c0.2,0,0.4-0.1,0.6-0.1c0.2-0.1,0.3-0.2,0.4-0.3c0-0.1,0.1-0.1,0.1-0.2c0-0.1,0-0.1,0-0.2
		c0-0.1,0-0.2-0.1-0.2s-0.2-0.1-0.4-0.1h-0.3c-0.1,0.1-0.1,0.2-0.2,0.4c0,0.1-0.1,0.3-0.1,0.5C549.9,51,549.9,51.1,549.9,51.2z"/>
	<path class="st0" d="M557.4,28.8c0.4-0.5,0.9-0.9,1.4-1.2c0.6-0.3,1.1-0.6,1.7-0.9s1.2-0.6,1.7-0.9s1-0.8,1.3-1.3
		c-0.2-0.3-0.5-0.6-0.8-0.7s-0.7-0.2-1.1-0.2c-0.3,0-0.7,0-1,0.1c-0.4,0.1-0.7,0.2-1,0.3s-0.7,0.2-1,0.3s-0.6,0.2-0.8,0.3
		c-0.1-0.4-0.2-0.9-0.2-1.3c0-0.6,0.1-1.1,0.4-1.5c0.3-0.4,0.6-0.8,1-1.1s0.9-0.5,1.4-0.7s1.1-0.2,1.6-0.2c0.4,0,0.8,0,1.2,0.1
		s0.8,0.2,1.1,0.4c0.3,0.2,0.6,0.4,0.8,0.7c0.2,0.3,0.4,0.6,0.5,1c0.1,0.3,0.1,0.6,0.1,1c0,0.7-0.1,1.3-0.4,1.8
		c-0.3,0.5-0.6,1-1,1.5c-0.4,0.4-0.9,0.8-1.4,1.2c-0.5,0.3-1.1,0.6-1.7,0.8c-0.6,0.2-1.2,0.4-1.7,0.5s-1.1,0.2-1.6,0.2
		c-0.1,0-0.2,0-0.2,0L557.4,28.8z"/>
	<path class="st0" d="M559,55.3c1.1-0.1,2-0.3,2.7-0.5s1.3-0.5,1.8-0.9s0.8-0.8,1-1.2c0.2-0.5,0.3-1,0.3-1.6c0-0.3,0-0.7,0-0.9
		s-0.1-0.5-0.1-0.8c-0.1-0.3-0.1-0.6-0.2-1c-0.1-0.4-0.3-0.8-0.5-1.3c-0.3-1-0.7-1.9-1.1-2.8c-0.4-0.9-0.8-1.9-1.2-2.8
		s-0.7-1.9-0.9-2.8c-0.2-0.9-0.4-1.8-0.4-2.7c0-0.6,0.1-1.2,0.2-1.8s0.4-1.2,0.7-1.7c0.5,0.4,1,0.8,1.5,1.3s0.9,1,1.4,1.4
		c0.5,0.5,1,0.9,1.5,1.2s1.1,0.5,1.7,0.6c0.1,0.3,0.1,0.7,0.2,1.2c0,0.5,0.1,0.9,0.1,1.4c0,0.4,0,0.8-0.1,1.1c0,0.4-0.1,0.7-0.2,0.9
		c-0.1,0-0.2,0-0.3,0s-0.2,0-0.3,0c-0.3,0-0.5,0-0.7-0.1s-0.4-0.2-0.5-0.3c-0.2-0.1-0.3-0.2-0.5-0.3s-0.4-0.2-0.6-0.2
		c0.3,1,0.7,2,1,3.1s0.6,2.2,1,3.4c0.1,0.5,0.2,1,0.3,1.4s0.1,0.8,0.2,1.1c0,0.4,0.1,0.7,0.1,1.1s0,0.8,0,1.3c0,1-0.1,2-0.4,3
		c-0.3,1-0.7,1.8-1.3,2.6s-1.5,1.4-2.5,1.8s-2.3,0.7-3.9,0.7c-0.4,0-0.7-0.1-1-0.2s-0.5-0.3-0.7-0.6c-0.2-0.2-0.3-0.5-0.5-0.8
		c-0.1-0.3-0.2-0.6-0.2-0.9s0-0.6,0.1-0.9s0.2-0.5,0.4-0.8c0.2-0.2,0.4-0.4,0.7-0.5S558.6,55.3,559,55.3z"/>
	<path class="st0" d="M571.2,35.1c0-0.5,0.1-0.9,0.1-1.3c0-0.3,0.1-0.6,0.1-0.7c0-0.2,0.1-0.3,0.1-0.3c0-0.1,0.1-0.1,0.1-0.1
		c0.1-0.1,0.2-0.2,0.2-0.2l0.2-0.1c0.1,0,0.2,0.1,0.4,0.2c0.5,0.5,1,0.9,1.6,1.4s1.2,1,1.7,1.6s1,1.2,1.4,1.9s0.6,1.5,0.6,2.5
		c0,0.2,0,0.4-0.1,0.7v0.1c0,0.3-0.1,0.5-0.2,0.5s-0.3,0.2-0.5,0.2c-0.2,0.1-0.4,0.1-0.5,0.2c-0.2,0.1-0.3,0.2-0.4,0.3
		c0.1,1.2,0.3,2.4,0.6,3.6c0.3,1.2,0.6,2.4,1,3.6s0.7,2.4,0.9,3.6c0.3,1.2,0.4,2.4,0.4,3.6c0,0.6,0,1.2-0.1,1.9
		c-0.1,0.6-0.2,1.2-0.5,1.9c-0.4-0.2-0.6-0.5-0.8-0.8s-0.3-0.6-0.4-0.9s-0.1-0.6-0.2-0.9c0-0.3-0.1-0.6-0.1-0.9
		c-0.1-0.8-0.3-1.6-0.5-2.5s-0.5-1.9-0.8-2.9s-0.6-2-0.9-3c-0.3-1-0.6-2-0.9-3c-0.2-0.8-0.4-1.5-0.7-2.3s-0.6-1.6-0.8-2.4
		c-0.3-0.8-0.5-1.7-0.7-2.5s-0.3-1.7-0.3-2.5L571.2,35.1L571.2,35.1z"/>
	<path class="st0" d="M594.9,64.1c0,0.4,0,0.8,0,1c0,0.3-0.1,0.5-0.1,0.7c-0.1,0.2-0.2,0.4-0.3,0.6s-0.2,0.4-0.3,0.7
		c-0.8,0.2-1.6,0.5-2.4,0.9c-0.8,0.4-1.5,0.7-2.3,1.1s-1.5,0.7-2.3,1c-0.7,0.3-1.5,0.5-2.3,0.6c-0.1-0.3-0.1-0.5-0.1-0.6
		c0-0.2,0-0.3,0-0.5s0.1-0.4,0.1-0.6s0-0.5,0-0.9c0.9-0.2,1.7-0.6,2.5-1s1.6-0.9,2.4-1.3s1.6-0.8,2.4-1.1
		C593.1,64.2,594,64.1,594.9,64.1z"/>
	<path class="st0" d="M603.1,55.4c0.7,0,1.2,0.3,1.5,0.7c0.3,0.5,0.5,1,0.5,1.6c0,0.3,0,0.6-0.1,0.9s-0.2,0.6-0.4,0.8
		s-0.4,0.4-0.6,0.6c-0.2,0.2-0.5,0.2-0.8,0.2c-0.7,0-1.3-0.2-1.9-0.4c-0.6-0.2-1.2-0.6-1.7-1s-0.9-0.9-1.3-1.5
		c-0.4-0.6-0.6-1.3-0.7-2.1c-0.9,0.7-2,1.3-3.3,1.8c-1.2,0.5-2.6,0.7-4,0.7c-0.6,0-1.2-0.1-1.8-0.2s-1.2-0.3-1.9-0.5
		c-0.4-0.8-0.8-1.5-1-2.2s-0.3-1.4-0.3-2.1c0-0.9,0.2-1.7,0.5-2.5s0.8-1.5,1.4-2.1c0.6-0.7,1.3-1.3,2-1.8c0.8-0.5,1.6-1,2.5-1.4
		s1.8-0.8,2.7-1.1s1.8-0.5,2.7-0.7c0-0.2,0.1-0.3,0.1-0.5s0-0.3,0-0.5c0-0.4,0-0.7-0.1-1.1c0-0.3-0.1-0.7-0.1-1s0-0.7,0.1-1
		s0.3-0.6,0.6-0.9c0.6,0.6,1.1,1.4,1.3,2.3c0.2,0.9,0.3,1.9,0.3,3c0,1,0,2-0.1,3.1s-0.1,2-0.1,3c0,0.3,0,0.6,0,0.9
		c0,0.3,0,0.6,0.1,0.8c0.1,0.6,0.2,1.1,0.5,1.6c0.2,0.5,0.5,0.9,0.9,1.2s0.8,0.6,1.2,0.8C602.1,55.1,602.6,55.3,603.1,55.4z
		 M587.2,51.3c0.1,0.6,0.4,1,1,1.3c0.5,0.2,1.2,0.4,2,0.4c0.6,0,1.2-0.1,1.9-0.2c0.7-0.1,1.3-0.3,2-0.5c0.6-0.2,1.2-0.4,1.7-0.6
		c0.5-0.2,0.9-0.4,1.3-0.6c0.1-0.5,0.2-1,0.3-1.5c0.1-0.6,0.2-1.1,0.2-1.6c0-0.4,0-0.8-0.1-1.1s-0.3-0.6-0.5-0.9
		c-0.4,0.1-1,0.2-1.6,0.4s-1.3,0.3-2,0.6c-0.7,0.2-1.4,0.5-2.1,0.7s-1.4,0.6-1.9,0.9c-0.6,0.3-1,0.7-1.4,1.1
		c-0.3,0.4-0.5,0.8-0.5,1.3C587.1,51.1,587.2,51.2,587.2,51.3z"/>
	<path class="st0" d="M606.9,24.5c-0.2-0.3-0.4-0.5-0.5-0.8s-0.2-0.6-0.3-1c-0.1-0.3-0.1-0.7-0.2-1c-0.1-0.3-0.2-0.7-0.3-1.1
		s-0.3-0.8-0.4-1.2s-0.3-0.8-0.5-1.2c-0.2-0.4-0.3-0.9-0.4-1.3c-0.1-0.4-0.2-0.9-0.2-1.3c0-0.1,0-0.2,0-0.2s0-0.1,0-0.2
		c0-0.3,0.1-0.5,0.2-0.8c0.1-0.3,0.2-0.5,0.4-0.8c0.5,0.2,0.9,0.5,1.2,0.9s0.6,0.9,0.8,1.4c0.2,0.5,0.3,1.1,0.4,1.7
		c0.1,0.6,0.1,1.3,0.1,1.9c0,0.5,0,1,0,1.5s-0.1,1-0.1,1.4C607.1,23.1,607,23.8,606.9,24.5z"/>
	<path class="st0" d="M608.7,26.1c-0.1,0.3-0.1,0.5-0.1,0.8s0,0.5,0,0.8c0,0.4,0,0.7,0.1,1s0.2,0.6,0.3,0.9c0.2,0.3,0.4,0.5,0.6,0.6
		c0.3,0.1,0.6,0.2,1,0.2c0.1,0,0.2,0,0.2,0c0.1,0,0.1,0,0.2,0c0.1-0.2,0.2-0.4,0.3-0.5s0.1-0.4,0.1-0.6l-0.3-2.2
		c0-0.2,0-0.4,0.1-0.6s0.2-0.4,0.3-0.6c0.5,0.4,0.9,0.9,1.2,1.5s0.4,1.3,0.4,2c0,0.4-0.1,0.9-0.2,1.3c-0.1,0.4-0.3,0.8-0.5,1.1
		s-0.5,0.6-0.8,0.8s-0.7,0.3-1.1,0.3c-0.3,0-0.6,0-0.9-0.1c-0.3-0.1-0.7-0.3-1.1-0.5c-0.8,0.6-1.5,0.9-2.3,0.9
		c-0.5,0-0.9-0.1-1.3-0.3c-0.4-0.2-0.7-0.4-1-0.7s-0.5-0.7-0.7-1.1s-0.3-0.8-0.3-1.3c0-0.4,0.1-0.9,0.3-1.3c0.2-0.5,0.5-0.9,0.9-1.3
		c0,0.3,0.1,0.7,0.1,1.2c0,0.4,0,0.8,0.1,1.2s0.2,0.7,0.4,1s0.5,0.4,0.8,0.4s0.7-0.1,0.9-0.2c0.2-0.2,0.4-0.4,0.5-0.6
		c0.1-0.3,0.2-0.6,0.2-0.9s0-0.7,0-1v-0.1c0-0.3,0-0.5,0-0.8c0-0.2,0-0.5,0.1-0.7s0.1-0.3,0.3-0.5c0.1-0.1,0.3-0.2,0.5-0.2
		C608,25.8,608.3,25.9,608.7,26.1z"/>
	<path class="st0" d="M615.9,54.7c0.3,0,0.6,0.1,0.8,0.2s0.4,0.3,0.6,0.5c0.1,0.2,0.3,0.5,0.3,0.7s0.1,0.6,0.1,0.9s0,0.7-0.1,1
		s-0.2,0.6-0.4,0.9s-0.3,0.5-0.6,0.6s-0.5,0.2-0.8,0.2c-0.7-0.1-1.3-0.3-1.9-0.5c-0.6-0.3-1.2-0.5-1.7-0.9s-1-0.7-1.4-1.1
		s-0.7-0.9-1-1.3c-0.2,0.7-0.5,1.4-1,1.9c-0.4,0.5-0.9,1-1.4,1.4s-1.1,0.6-1.8,0.8c-0.6,0.2-1.3,0.3-1.9,0.3c-0.1,0-0.2,0-0.3,0
		s-0.2,0-0.3,0c-0.3,0-0.5-0.1-0.7-0.2c-0.2-0.2-0.4-0.3-0.5-0.6c-0.1-0.2-0.2-0.5-0.3-0.8s-0.1-0.6-0.1-0.9s0-0.6,0.1-0.9
		s0.2-0.5,0.3-0.8c0.1-0.2,0.3-0.4,0.5-0.5s0.4-0.2,0.7-0.2c0.2,0,0.4,0.1,0.6,0.1c0.2,0,0.4,0,0.6,0c0.5,0,1.1-0.1,1.6-0.2
		s1-0.3,1.4-0.6s0.8-0.6,1-1c0.3-0.4,0.5-0.9,0.6-1.4c0.1-0.6,0.1-1.1,0.1-1.7c0-0.9-0.1-1.9-0.3-2.8c-0.2-1-0.4-1.9-0.6-2.9
		s-0.5-1.9-0.7-2.9s-0.3-2-0.4-3c0.1-1.6,0.3-2.4,0.3-2.5c0.1,0,0.3-0.2,0.5-0.4c0.3-0.2,0.7,0.2,1.3,1.4c0.6,1.1,0.8,2,0.5,2.5
		c-0.2,0.5-0.3,1.4-0.1,2.6c0.1,1.2,0.3,2.3,0.5,3.5s0.4,2.3,0.7,3.5c0.3,1.1,0.6,2.2,1,3.3c0.2,0.2,0.5,0.4,0.8,0.6
		c0.3,0.2,0.6,0.4,1,0.6s0.8,0.3,1.2,0.5C615,54.6,615.4,54.7,615.9,54.7z"/>
	<path class="st0" d="M615.9,59.8c-0.3,0-0.6-0.1-0.9-0.2s-0.5-0.4-0.6-0.6c-0.2-0.2-0.3-0.5-0.4-0.8c-0.1-0.3-0.1-0.6-0.1-0.9
		s0-0.6,0.1-0.9s0.2-0.6,0.4-0.8s0.4-0.4,0.6-0.6c0.3-0.2,0.5-0.2,0.9-0.2c0.2,0,0.4,0.1,0.7,0.1s0.4,0,0.7,0c0.6,0,1.1-0.1,1.6-0.2
		c0.5-0.2,0.9-0.4,1.3-0.7c-0.2-0.8-0.5-1.5-0.9-2.3s-0.9-1.5-1.3-2.2c-0.4-0.8-0.8-1.5-1.2-2.3c-0.3-0.8-0.5-1.6-0.5-2.5
		c0-0.4,0.1-0.8,0.2-1.3c0.1-0.4,0.3-0.9,0.5-1.4c0.6,0.8,1.3,1.6,1.9,2.5c0.6,0.9,1.1,1.9,1.6,3s0.8,2.2,1.1,3.3s0.4,2.3,0.4,3.5
		c0,0.8-0.1,1.5-0.2,2.3s-0.3,1.5-0.6,2.3c-0.6,0.4-1.2,0.7-1.8,0.9s-1.3,0.3-2,0.3c-0.2,0-0.4,0-0.7,0S616.2,59.9,615.9,59.8z"/>
	<path class="st0" d="M626,35.1c0-0.5,0.1-0.9,0.1-1.3c0-0.3,0.1-0.6,0.1-0.7c0-0.2,0.1-0.3,0.1-0.3c0-0.1,0.1-0.1,0.1-0.1
		c0.1-0.1,0.2-0.2,0.2-0.2l0.2-0.1c0.1,0,0.2,0.1,0.4,0.2c0.5,0.5,1,0.9,1.6,1.4s1.2,1,1.7,1.6s1,1.2,1.4,1.9s0.6,1.5,0.6,2.5
		c0,0.2,0,0.4-0.1,0.7v0.1c0,0.3-0.1,0.5-0.2,0.5s-0.3,0.1-0.5,0.1c-0.2,0.1-0.4,0.1-0.5,0.2c-0.2,0.1-0.3,0.2-0.4,0.3
		c0.1,1.2,0.3,2.4,0.6,3.6c0.3,1.2,0.6,2.4,1,3.6s0.7,2.4,0.9,3.6c0.3,1.2,0.4,2.4,0.4,3.6c0,0.6,0,1.2-0.1,1.9
		c-0.1,0.6-0.2,1.2-0.5,1.9c-0.4-0.2-0.6-0.5-0.8-0.8s-0.3-0.6-0.4-0.9s-0.1-0.6-0.2-0.9c0-0.3-0.1-0.6-0.1-0.9
		c-0.1-0.8-0.3-1.6-0.5-2.5s-0.5-1.9-0.8-2.9s-0.6-2-0.9-3c-0.3-1-0.6-2-0.9-3c-0.2-0.8-0.4-1.5-0.7-2.3s-0.6-1.6-0.8-2.4
		c-0.3-0.8-0.5-1.7-0.7-2.5s-0.3-1.7-0.3-2.5L626,35.1L626,35.1z"/>
	<path class="st0" d="M656.7,30.1c0,0.4,0,0.8,0,1c0,0.3-0.1,0.5-0.1,0.7c-0.1,0.2-0.2,0.4-0.3,0.6s-0.2,0.4-0.3,0.7
		c-0.8,0.2-1.6,0.5-2.4,0.9c-0.8,0.4-1.5,0.7-2.3,1.1s-1.5,0.7-2.3,1c-0.7,0.3-1.5,0.5-2.3,0.6c-0.1-0.3-0.1-0.5-0.1-0.6
		c0-0.2,0-0.3,0-0.5s0.1-0.4,0.1-0.6c0-0.2,0-0.5,0-0.9c0.9-0.2,1.7-0.6,2.5-1s1.6-0.9,2.4-1.3c0.8-0.4,1.6-0.8,2.4-1.1
		C654.9,30.3,655.8,30.1,656.7,30.1z"/>
	<path class="st0" d="M660.4,43c0.4,0.8,0.9,1.5,1.3,2.3c0.4,0.8,0.9,1.6,1.2,2.4c0.4,0.8,0.7,1.7,0.9,2.6c0.2,0.9,0.3,1.9,0.3,3
		c0,0.1,0,0.3,0,0.4s0,0.3,0,0.5c-0.1,1.7-0.5,3.2-1,4.6s-1.3,2.5-2.2,3.5s-2,1.8-3.2,2.4s-2.5,1.1-3.8,1.4
		c-0.9,0.2-1.8,0.3-2.7,0.3c-1.7,0-3.2-0.3-4.6-1c-1.4-0.7-2.5-1.6-3.5-2.7s-1.7-2.5-2.2-4s-0.8-3.1-0.8-4.8c0-0.5,0-1,0.1-1.5
		c0-0.5,0.1-1,0.2-1.5c0.1-0.6,0.3-1.4,0.6-2.1c0.3-0.8,0.6-1.5,1.1-2.3c0.4-0.7,0.9-1.4,1.5-1.9c0.6-0.6,1.2-0.9,1.9-1.1
		c-0.2,0.7-0.5,1.3-0.7,1.8c-0.3,0.5-0.5,1-0.8,1.4s-0.6,0.8-0.8,1.2c-0.3,0.4-0.5,0.8-0.7,1.2s-0.4,0.9-0.6,1.4
		c-0.2,0.5-0.2,1.1-0.3,1.7c0,0.9,0.1,1.6,0.3,2.3s0.4,1.4,0.7,1.9c0,0.2,0.1,0.4,0.3,0.7s0.5,0.6,0.8,0.9s0.6,0.6,0.9,0.8
		s0.5,0.4,0.6,0.5c1,0.7,2.1,1.1,3.3,1.4s2.5,0.5,3.7,0.5c0.9,0,1.8-0.1,2.6-0.2c0.9-0.1,1.7-0.4,2.5-0.6c0.8-0.3,1.5-0.6,2.2-1.1
		c0.7-0.4,1.3-0.9,1.8-1.5c0.4-0.4,0.7-0.9,0.9-1.3s0.2-0.9,0.2-1.4c0-0.7-0.1-1.4-0.4-2.2c-0.3-0.8-0.6-1.5-0.9-2.3
		c-0.3-0.8-0.6-1.6-0.9-2.4s-0.4-1.7-0.4-2.6c0-0.4,0-0.8,0.1-1.2S660.2,43.4,660.4,43z M651.3,42.3c0.9,0.1,1.6,0.3,2.2,0.6
		c0.6,0.3,1.1,0.7,1.6,1.2c0,0.8-0.1,1.5-0.3,2.2s-0.4,1.2-0.9,1.5h-0.3c-1.5,0-2.6-0.5-3.2-1.4c0-0.4,0.1-0.8,0.1-1.2
		s0-0.7,0.1-1.1c0-0.3,0.1-0.7,0.2-1C650.9,42.9,651.1,42.6,651.3,42.3z"/>
	<path class="st0" d="M681.7,55.3c0.6,0,1.1,0.1,1.5,0.3s0.7,0.4,1,0.6s0.5,0.5,0.6,0.8s0.2,0.6,0.2,0.8c0,0.3-0.1,0.6-0.3,0.9
		s-0.4,0.5-0.7,0.8c-0.3,0.2-0.6,0.4-1,0.5s-0.8,0.2-1.2,0.2h-1.3c-1.5,0-2.7-0.2-3.8-0.5c-1-0.3-1.9-0.8-2.6-1.4
		c-0.7-0.6-1.3-1.5-1.7-2.4s-0.8-2.1-1-3.5c-0.3-1.6-0.6-3.3-1-5c-0.3-1.7-0.6-3.5-0.9-5.4c-0.1-0.9-0.3-1.8-0.5-2.7
		s-0.4-1.9-0.6-2.8c-0.2-0.9-0.4-1.8-0.5-2.7s-0.2-1.8-0.2-2.6c0-0.7,0.1-1.4,0.2-2s0.3-1.3,0.7-1.8c0.6-0.2,1.1-0.3,1.7-0.3
		c0.7,0,1.4,0.1,2,0.4s1.1,0.7,1.6,1.2s0.9,1,1.2,1.7c0.3,0.6,0.6,1.3,0.8,1.9c-0.4,0-0.8-0.1-1.2-0.3c-0.3-0.2-0.7-0.4-1-0.6
		s-0.6-0.4-0.9-0.6c-0.3-0.2-0.7-0.3-1-0.3c-0.2,0-0.5,0-0.8,0.1c-0.1,0.3-0.2,0.7-0.3,1.1c-0.1,0.4-0.1,0.8-0.1,1.3
		c0,0.9,0.1,1.8,0.3,2.8s0.4,2,0.6,3.1s0.5,2.1,0.7,3.2c0.3,1.1,0.5,2.2,0.6,3.2c0,0.2,0.1,0.4,0.1,0.6c0,0.2,0.1,0.4,0.1,0.5
		c0.1,0.9,0.3,1.8,0.4,2.6s0.3,1.5,0.5,2.2s0.5,1.2,0.8,1.8c0.3,0.5,0.8,1,1.3,1.3s1.2,0.6,1.9,0.8c0.8,0.2,1.7,0.3,2.7,0.3
		L681.7,55.3L681.7,55.3L681.7,55.3z"/>
	<path class="st0" d="M691.3,32.5c0,0.4,0,0.8,0,1c0,0.3-0.1,0.5-0.1,0.7c-0.1,0.2-0.2,0.4-0.3,0.6c-0.1,0.2-0.2,0.4-0.3,0.7
		c-0.8,0.2-1.6,0.5-2.4,0.9c-0.8,0.4-1.5,0.7-2.3,1.1s-1.5,0.7-2.3,1c-0.7,0.3-1.5,0.5-2.3,0.6c-0.1-0.3-0.1-0.5-0.1-0.6
		c0-0.2,0-0.3,0-0.5s0.1-0.4,0.1-0.6c0-0.2,0-0.5,0-0.9c0.9-0.2,1.7-0.6,2.5-1s1.6-0.9,2.4-1.3c0.8-0.4,1.6-0.8,2.4-1.1
		C689.5,32.7,690.3,32.5,691.3,32.5z"/>
	<path class="st0" d="M691.6,47.7c0.4,0,0.7,0.2,1,0.4s0.3,0.6,0.3,0.9c0,0.2-0.1,0.4-0.2,0.6c-0.1,0.2-0.3,0.3-0.5,0.4l-1.5,0.4
		c0.8,0.4,1.6,0.8,2.4,1.1s1.7,0.5,2.5,0.8c0.9,0.2,1.8,0.4,2.7,0.5c0.9,0.2,1.9,0.3,2.8,0.4l1.2,0.2c0.1,0.3,0.1,0.7,0.1,1.1
		c0,0.5-0.1,1.1-0.2,1.5c-0.1,0.5-0.2,1-0.2,1.4v0.1c-0.5,0.2-1,0.3-1.5,0.4s-1,0.1-1.4,0.1h-2.4c-0.1,0-0.2,0-0.3,0s-0.2,0-0.3,0
		s-0.2,0-0.3,0s-0.2,0-0.3,0c-1,0.1-2,0.3-3,0.5s-2,0.4-2.9,0.6s-1.9,0.4-2.9,0.6c-0.9,0.2-1.8,0.3-2.7,0.3c-0.1,0-0.2,0-0.3,0
		s-0.2,0-0.3,0h-0.9c-0.1,0-0.2,0-0.3,0s-0.3,0-0.5,0c-0.8-0.1-1.4-0.3-1.8-0.8c-0.4-0.5-0.6-1-0.6-1.5s0.2-1,0.5-1.5
		c0.4-0.5,0.9-0.8,1.6-1h0.2c0.5,0,1,0,1.4,0.1c0.4,0,0.8,0.1,1.1,0.1s0.7,0.1,1,0.1s0.7,0.1,1.1,0.1c0.7,0,1.4-0.1,1.9-0.2
		s0.9-0.4,0.9-0.8c-0.3-0.3-0.8-0.6-1.3-0.7s-1.1-0.2-1.6-0.3c-0.6-0.1-1.1-0.2-1.7-0.3c-0.6-0.1-1-0.3-1.4-0.5c0-0.1,0-0.2,0-0.3
		s0-0.2,0-0.3c0-0.4,0-0.7,0.1-1s0.1-0.6,0.2-1c0.5-0.4,1-0.7,1.6-1s1.3-0.5,2-0.7s1.5-0.3,2.3-0.5C689.9,48,690.7,47.9,691.6,47.7z
		"/>
	<path class="st0" d="M699.1,31.6c0.4-0.5,0.9-0.9,1.4-1.2c0.6-0.3,1.1-0.6,1.7-0.9s1.2-0.6,1.7-0.9s1-0.8,1.3-1.3
		c-0.2-0.3-0.5-0.6-0.8-0.7s-0.7-0.2-1.1-0.2c-0.3,0-0.7,0-1,0.1c-0.4,0.1-0.7,0.2-1,0.3s-0.7,0.2-1,0.3s-0.6,0.2-0.8,0.3
		c-0.1-0.4-0.2-0.9-0.2-1.3c0-0.6,0.1-1.1,0.4-1.5c0.3-0.4,0.6-0.8,1-1.1s0.9-0.5,1.4-0.7s1.1-0.2,1.6-0.2c0.4,0,0.8,0,1.2,0.1
		s0.8,0.2,1.1,0.4s0.6,0.4,0.8,0.7s0.4,0.6,0.5,1c0.1,0.3,0.1,0.6,0.1,1c0,0.7-0.1,1.3-0.4,1.8c-0.3,0.5-0.6,1-1,1.5
		c-0.4,0.4-0.9,0.8-1.4,1.2c-0.5,0.3-1.1,0.6-1.7,0.8c-0.6,0.2-1.2,0.4-1.7,0.5s-1.1,0.2-1.6,0.2c-0.1,0-0.2,0-0.2,0
		S699.2,31.6,699.1,31.6z"/>
	<path class="st0" d="M692.2,50.1c-0.1,0-0.3-0.1-0.4-0.2c-0.1-0.1-0.2-0.2-0.3-0.4s-0.2-0.3-0.2-0.5s-0.1-0.4-0.1-0.6
		c0-0.4,0.1-0.6,0.3-0.8c0.9-0.1,1.8-0.3,2.7-0.4s1.7-0.3,2.5-0.5s1.5-0.5,2.1-0.8s1.1-0.8,1.5-1.3c0.2-0.3,0.4-0.6,0.4-1
		s0.1-0.8,0.2-1.2c0.1-0.4,0.2-0.8,0.3-1.2s0.4-0.7,0.7-1.1c0.5,0.3,0.9,0.6,1.1,1.1c0.3,0.5,0.5,1,0.7,1.5c0.2,0.6,0.4,1.1,0.5,1.7
		c0.2,0.6,0.4,1.2,0.6,1.7c0.3,0.5,0.7,1.1,1,1.7c0.4,0.6,0.7,1.3,1.1,1.9c0.4,0.7,0.8,1.3,1.3,2c0.5,0.6,1,1.2,1.5,1.7
		s1.1,0.9,1.7,1.2s1.3,0.5,2,0.5h0.3c0.3,0,0.5,0.2,0.8,0.3c0.2,0.2,0.4,0.4,0.6,0.6c0.2,0.2,0.3,0.5,0.3,0.8s0.1,0.5,0.1,0.8
		c0,0.6-0.2,1.1-0.5,1.5s-0.7,0.7-1.3,0.9h-0.4c-0.1,0-0.2,0-0.3,0s-0.2,0-0.2,0c-1-0.1-1.9-0.4-2.8-1s-1.5-1.2-2.2-2
		s-1.3-1.7-1.8-2.7s-1-2-1.5-3s-0.9-2.1-1.3-3.1c-0.4-1-0.8-2-1.2-2.8c-0.7,0.4-1.3,0.9-1.9,1.5c-0.6,0.6-1.1,1.2-1.6,1.8
		L692.2,50.1z M703.3,60.4c0.9,0.1,1.6,0.3,2.2,0.6c0.6,0.3,1.1,0.7,1.6,1.2c0,0.8-0.1,1.5-0.3,2.2c-0.2,0.7-0.4,1.2-0.9,1.5h-0.3
		c-1.5,0-2.6-0.5-3.2-1.4c0-0.4,0.1-0.8,0.1-1.2s0-0.7,0.1-1.1c0-0.3,0.1-0.7,0.2-1C702.8,61,703,60.7,703.3,60.4z"/>
	<path class="st0" d="M720.1,41.3c0.2-0.5,0.5-0.9,0.9-1.2s0.8-0.5,1.3-0.7s0.9-0.5,1.3-0.7c0.4-0.3,0.7-0.6,1-1.1
		c-0.6-0.4-1-0.9-1.3-1.6c-0.3-0.6-0.4-1.4-0.4-2.1c0-0.7,0.1-1.5,0.3-2.2s0.5-1.4,1-2c0.4-0.6,0.9-1.1,1.4-1.5s1.1-0.6,1.7-0.6
		c0.5,0,0.9,0.1,1.4,0.4s1,0.7,1.5,1.2c0.1,0.4,0.2,0.8,0.2,1.1s0.1,0.7,0.1,1.1c0,1.3-0.3,2.5-0.9,3.6c-0.6,1.1-1.3,2-2.2,2.8
		c-0.5,0.5-1,0.9-1.7,1.3c-0.6,0.4-1.2,0.8-1.9,1.1c-0.6,0.3-1.3,0.6-1.9,0.8S720.6,41.2,720.1,41.3z M728.3,32.6
		c0-0.2-0.1-0.4-0.2-0.6c-0.1-0.2-0.3-0.3-0.5-0.4s-0.4-0.2-0.6-0.3s-0.5-0.1-0.7-0.1s-0.3,0-0.5,0c-0.1,0-0.3,0.1-0.4,0.2
		c-0.3,0.2-0.5,0.3-0.6,0.5c-0.1,0.2-0.2,0.3-0.2,0.5s0.1,0.4,0.2,0.6c0.1,0.2,0.3,0.4,0.5,0.5c0.2,0.2,0.5,0.3,0.7,0.4
		c0.3,0.1,0.5,0.1,0.8,0.1s0.6-0.1,0.9-0.3s0.4-0.5,0.4-1v-0.1C728.1,32.6,728.3,32.6,728.3,32.6z"/>
	<path class="st0" d="M713.6,60.1c-0.7-0.3-1.2-0.6-1.5-1.1s-0.5-0.9-0.5-1.4s0.2-1,0.5-1.4s0.8-0.8,1.5-1h0.9
		c0.6,0,1.3-0.2,1.9-0.6c0.6-0.3,1.3-0.8,1.9-1.2c0.6-0.5,1.2-1,1.8-1.6s1.1-1.1,1.5-1.6c0.3,0.3,0.6,0.6,0.9,1
		c0.2,0.4,0.5,0.7,0.7,1.1c0.3,0.4,0.5,0.7,0.8,0.9s0.7,0.4,1.2,0.4h0.3c0.4,0,0.7-0.2,0.9-0.4s0.4-0.5,0.6-0.8
		c0.2-0.3,0.3-0.6,0.5-1s0.4-0.7,0.6-1c0.5,0.1,0.9,0.3,1.2,0.7c0.3,0.3,0.6,0.7,0.8,1c0.3,0.4,0.6,0.7,0.9,1
		c0.3,0.3,0.8,0.4,1.4,0.4c0-0.1,0.1-0.2,0.1-0.4s0-0.3,0-0.5c0-0.3,0-0.6,0-0.9c0-0.3,0-0.7,0-1c0-0.5,0.1-0.9,0.2-1.2
		c0.1-0.4,0.4-0.6,0.8-0.7c0.5,0.5,1,1.3,1.2,2.2s0.4,1.9,0.4,2.9c0,0.6-0.1,1.2-0.2,1.8c-0.1,0.6-0.3,1.1-0.6,1.6s-0.6,0.8-1,1.1
		s-0.9,0.4-1.4,0.4h-0.2c-0.4,0-0.7-0.1-1-0.2s-0.5-0.3-0.6-0.5c-0.2-0.2-0.4-0.4-0.6-0.6c-0.2-0.2-0.5-0.4-0.8-0.6
		c-0.3,0.2-0.6,0.5-0.9,0.7c-0.3,0.3-0.6,0.5-0.9,0.7c-0.3,0.2-0.6,0.4-1,0.5c-0.3,0.1-0.7,0.2-1.1,0.2c-0.1,0-0.2,0-0.2,0h-0.2
		c-0.4-0.1-0.8-0.2-1-0.5s-0.4-0.5-0.6-0.7c-0.2-0.3-0.4-0.5-0.6-0.8c-0.2-0.3-0.5-0.5-0.8-0.7c-0.5,0.3-1,0.7-1.6,1.2
		s-1.2,0.8-1.9,1.2s-1.3,0.7-2,1C715,60,714.3,60.1,713.6,60.1z"/>
</g>
<g>
	<path class="st1" d="M42.9,98.9l-4.9,4.7c-2.5,2.5-3.9,5.9-3.9,9.9c0,1.7,0.3,3.2,1.2,4.5c1.2,1.8,3,2.7,5.9,2.7c0.7,0,1.3,0,2-0.2
		c2.5-0.3,4.9-1.7,7-3.9c2-2,3.4-4.4,4.2-7h0.2c0.2,0,0.2,0,0.2,0s0.2,0.3,0.2,1c0,0-0.2,0.3-0.3,1c-1,3.4-2.7,6.2-4.9,8.7
		c-2.5,2.9-5.2,4.7-8.4,5.4c-0.7,0.2-1.3,0.3-2.2,0.3c-2.2,0-3.9-0.7-5-2.2c-1.5-1.8-2.3-4-2.3-6.9c0-2.7,0.7-5.5,2-8.7
		s3.9-6.7,7.7-10.6c-0.2,0-0.3-0.2-0.5-0.3c-3.2-0.2-5.5,0-7,0.2c-0.2,0-0.3-0.2-0.5-0.2c0-0.3,0.2-1,0.5-1.7c1.2-2,2.5-3.7,3.9-4.9
		c1-0.7,2.3-1.7,4.2-3.2c0.3-0.5,0.5-1.2,0.5-2s0-1.5,0-2.3c-0.2-2.3-0.2-4,0.2-5c0.3-0.8,0.8-2.2,1.5-4.2c0-0.2,0.2-0.2,0.3-0.2
		c0.2,0,0.3,0.2,0.3,0.3c-0.2,1-0.3,2.3-0.3,4c0,0.3,0,0.8,0,1.7c0,0.7,0,1.3,0,1.7c0,3-0.5,5.4-1.3,7c-0.5,1-1.7,2-3.4,3
		c-1.8,1.2-3,2.2-3.5,3c0,0.3,0,0.5,0,0.5c0.2,0.2,0.3,0.2,0.7,0.2l0.7-0.2c2-0.3,4.2-0.3,6.2,0c0.3,0,0.5,0.3,0.7,0.7
		C44.2,96.8,43.7,97.9,42.9,98.9z M41.4,109.6v-0.2c0.7-0.8,1.5-2,2.7-3.7c0,0,0.2,0,0.5,0l2.3,1.7c0,0,0.3,0.2,0.7,0.3
		c0.3,0.2,0.3,0.3,0.3,0.7c-0.8,1.3-1.7,2.5-2.5,3.4c-0.2,0.2-0.5,0.2-1.2-0.2C43.1,111.1,42.1,110.4,41.4,109.6z"/>
	<path class="st1" d="M59,112.8l0.2-7.2c0.2-3.2,0.2-5.2,0-6.4c0-0.7,0.3-1.5,0.7-2.5c0.5-1.2,0.8-2,0.8-2.5c0.2-0.3,0.5-0.3,0.8,0
		c-0.7,5-0.8,10.2-0.5,15.6c0.2,3,1,4.7,2.7,5.2c0.5,0.2,1,0.3,1.5,0.3c1,0,2-0.3,2.9-1c0.5-0.3,0.7-1,0.5-1.8
		c0-0.3-0.2-0.5-0.5-0.7c-1.5,0.2-2.7,0-3.2-0.3s-0.7-1-0.7-1.5c0-0.3,0.2-0.8,0.3-1.5c0.2-0.5,0.3-1,0.5-1.5
		c0.2-0.7,0.3-1.2,0.7-1.8c0.2-0.7,0.7-1,1.2-1.2c0.2-0.2,0.3-0.2,0.5-0.2c0.5,0,1,0.2,1.3,0.7c1.2,1.2,1.8,2.9,1.8,5
		c0,1.2-0.2,2.2-0.5,3.4c-0.8,2.9-2.2,5.2-4.2,6.7c-0.8,0.7-1.7,1-2.7,1c-0.5,0-1-0.2-1.3-0.3c-1.3-0.8-2.2-2.7-2.5-5.4L59,112.8z
		 M68.6,100.2c-1.5-0.5-2.7-1.5-3.9-2.9c1.7-2,2.7-3.2,3-3.4c1.2,1,2.5,2,3.7,2.9L68.6,100.2z"/>
	<path class="st1" d="M89.3,107.1v0.5l-0.7,0.3c-0.7,0.3-1.3,0.8-2.2,1.5c-0.8,0.7-1.3,1.5-1.7,2.2c-0.2,0.3,0,0.7,0.2,0.8
		c1,0,1.8,0.3,2.2,1c0.3,0.7,0.3,1.5-0.2,2.2c-0.5,0.8-1.3,1.2-2.5,0.8c-1.3-0.3-1.8-1.3-1.8-3.2c0-1.5,0.7-3,1.8-4.4
		c1-1,2.2-1.7,3.5-2.2c0.2,0,0.5-0.2,0.7-0.2C89,106.7,89.2,106.9,89.3,107.1z"/>
	<path class="st1" d="M99.9,117.6c-0.8,1.7-1.7,2.5-2.7,2.9c-1,0.3-1.8,0.2-2.7-0.5c-0.5-0.3-1-1.2-1.3-2.3
		c-0.2-0.7-0.3-2.9-0.5-6.4c0-0.7,0-2.2,0-4.2l0.2-7.7c0-0.7,0.2-1.5,0.7-2.5c0.7-1.5,0.8-2.3,0.8-2.3h0.2c0,0,0,0,0.2,0
		c0.2,0.2,0.3,0.2,0.5,0.3c-0.5,4.4-0.7,9.2-0.5,14.8c0,0.8,0.2,1.8,0.5,3.4c0.3,1.3,1.2,2.2,2.2,2.3c0.2,0,0.3,0.2,0.5,0.2
		c0.7,0,1.3-0.5,2-1.5c0.2-0.3,0.3-0.7,0.5-1.3c0.2-0.2,0.2-0.2,0.3-0.5c0.2,0,0.3,0.3,0.5,0.7C101.4,113.8,100.9,115.6,99.9,117.6z
		 M96.9,102v-0.3l3.2-3l0.3,0.2c0.7,0.7,1.7,1.5,3,2.9c0,0.2-0.2,0.7-0.7,1.2l-2.2,2c-0.3,0.2-0.7,0.2-1-0.2
		C98.1,103.7,97.2,102.9,96.9,102z"/>
	<path class="st1" d="M104.9,119.8l0.5-0.3c1.5-0.7,3.9-1.7,6.9-3.2c0.8-0.7,1.5-1.2,1.5-1.7c0.2-0.7,0-1.2-0.5-1.7
		c-0.2-0.2-0.5-0.2-0.8-0.2s-0.7,0-0.7,0c-1.2-0.2-1.7-0.7-1.8-1.5c-0.2-0.7,0-1.5,0.5-2.7c0.7-1.3,0.8-2.2,1-2.5
		c0.3-0.5,0.5-0.8,0.5-0.8c0.3-0.3,0.5-0.5,0.8-0.5c0.7-0.2,1.3,0,2,0.8s1,2.2,1.2,4.2c0.3,0,1-0.3,1.7-0.8c1.8-1.5,3.5-3.4,4.9-5.4
		c0.7-0.8,1.3-1.2,1.8-1.2c0.2,0,0.3,0,0.5,0.2c0.2,0,0.3,0.3,0.7,0.7c0.2,0.3,0.5,0.5,0.7,0.5s0.2,0,0.3-0.2c0.2,0,0.3-0.3,0.5-1
		c0.2-0.5,0.5-0.7,1-0.5c0.2,0.2,0.3,0.3,0.5,0.7c0,0.2,0,0.5,0,0.7c0,1.3-0.5,2.5-1.5,3.4c-0.7,0.3-1.3,0.2-2-0.2
		c-0.2,0-0.3-0.3-0.5-0.7c-0.3-0.3-0.5-0.5-0.8-0.3c-0.5,0.3-1,1-1.7,1.7c-1,1.2-1.3,1.8-1.5,1.8c-1,1.2-1.7,1.8-2.2,2.3
		c-0.8,0.8-1.7,1.5-2.3,2c-0.3,1.3-1.2,3.2-2.3,5.4c-0.5,0.8-1.3,1.3-2.5,1.5c-1,0.2-2,0.2-3.2,0.3c-0.2,0-0.7,0-1.5,0.2
		c-0.5,0.2-1,0.2-1.3,0.2C104.8,120.3,104.8,120.2,104.9,119.8z M125.2,108.3l-0.2,0.3c-1,1.8-1.5,2.9-1.7,3
		c-0.5,1.2-0.8,2.3-0.8,3.4c0,0.2,0.2,0.5,0.3,0.8c0.2,0.2,0.3,0.2,0.7,0.2c0.2-0.2,0.3-0.3,0.5-1c0.2-0.5,0.3-0.7,0.7-0.7
		c0.2,0,0.2,0,0.3,0.2c0.2,0.3,0.3,0.7,0.3,1.2c0,0.8-0.2,1.5-0.7,2.2s-1,1.2-1.8,1.2c-0.7,0.2-1.3-0.3-1.8-1.2
		c-0.2-0.7-0.3-1.2-0.3-1.8c0-1.3,0.7-3.2,1.8-5.7c0.3-0.7,1-1.5,1.8-2.7C125.1,107.7,125.2,107.9,125.2,108.3z"/>
	<path class="st1" d="M134.3,93.8c-0.2,1.5-0.3,3.9-0.7,7c-0.3,4.9-0.3,8.6-0.2,10.9c0.5,1.8,1.2,3,2.2,3.5c0.3,0.2,0.5,0.2,0.8,0.2
		c0.5,0,1-0.2,1.7-0.5c0.7-1.8,2-4.7,3.9-8.4c1-1.2,2-1.7,3.2-1.7c0.8,0.2,1.5,0.5,2,1.2c0.2,0.2,0.2,0.7,0.3,1.7
		c1.2-1.2,2.3-1.7,3.2-1.7c0.3,0,0.7,0,1,0.2c0.7,0.2,1,0.8,1.2,1.8c0,1.2-0.7,2.7-2,4.5c-1.7,2.2-4.5,3.2-8.4,3.4
		c-1,1-2.2,1.8-3.2,2.9c-1.3,1.2-2.7,1.8-3.7,2c-1.2,0.2-2,0-2.7-0.7c-1.2-1.2-1.7-3-1.7-5.5c0-0.3,0-1,0-1.5c0-0.8,0-1.3,0-1.5
		c0-1.2,0-3,0-5.4c0.2-1.5,0.2-4,0.3-7.2c0-0.7,0.5-2.2,1.7-4.5c0-0.2,0.2-0.5,0.3-0.8C134,93.5,134.1,93.5,134.3,93.8z
		 M145.7,108.4c-0.3-0.8-0.8-1-1.7-1c-0.8,0.3-1.5,1-2,2c-0.3,0.8-0.7,1.7-1.2,2.7c-0.3,0.5-0.7,1.3-1.2,2.3
		c1.3-0.3,2.9-1.3,4.4-2.9c1-1.3,1.7-2.2,1.7-2.7C145.9,108.8,145.7,108.6,145.7,108.4z M149.4,108.6c-0.3,0-0.7,0.2-1.3,0.3
		c-0.5,0.7-1.2,1.5-2,2.7c-0.8,1.3-1.5,2.2-2,2.7l1.8-0.3c0.7-0.2,1.2-0.3,1.7-0.7c2-0.8,3-2,3.2-3.5c0-0.5-0.2-0.8-0.5-1
		C149.9,108.6,149.7,108.6,149.4,108.6z"/>
	<path class="st1" d="M160.4,118.6l-6,1.8c-0.2,0-0.3,0-0.3-0.2c-0.2-0.2,0.2-0.5,0.5-0.8c1.8-1.2,3.4-2.2,4-2.9
		c1.5-1.2,2.7-2.3,3.7-3.5c0.8-1.2,1.7-2.9,2.2-5c0.8-3,1.3-4.7,1.5-5.2c0.2-0.2,0.3-0.2,0.5-0.2s0.3,0.2,0.3,0.3c0,0.5,0,1-0.2,1.5
		s-0.3,1.2-0.3,1.7c0,1.5,0,2.5,0,3c0.2,1.2,0.7,2,1.3,2.7c0.5,0.3,1.3,0.7,2.2,0.7c1-0.2,1.8-1,2.5-2.7c0.2-0.2,0.3-0.3,0.5-0.2
		c0.2,0.2,0.2,0.3,0.2,0.7c0,0.5-0.2,1.2-0.5,1.8c-1.5,3.5-3.2,5.4-5,5.4c-1.2,0-2-0.5-2.5-1.5c-0.3-0.8-0.7-1.7-0.8-2.7
		c-0.3,1-0.8,2.3-1.5,4c-0.2,0.3-0.5,0.7-1,0.8C161.3,118.3,160.8,118.5,160.4,118.6z M172.7,103.4c-1.5-0.5-2.7-1.3-3.9-2.9
		c1.7-2,2.7-3.2,2.9-3.4c1.2,1,2.5,2,3.7,2.9L172.7,103.4z"/>
	<path class="st1" d="M181.7,97c-0.2,0.5-0.2,1.3-0.3,2.3c-0.2,1.3-0.2,3.2-0.2,5.5c0,2.7,0,4.5-0.2,5.7c-0.2,2.3-0.7,4.7-1.8,7.2
		c-0.2,0.5-0.3,0.7-0.5,0.7s-0.2,0-0.3-0.2c-0.2-0.2-0.3-0.3-0.2-0.8c0.2-0.8,0.3-2.9,0.5-6c-0.2-2.5-0.3-5.4-0.2-8.6
		c0.5-1.7,1.3-3.5,2.5-5.9C181.4,96.7,181.6,96.7,181.7,97z"/>
	<path class="st1" d="M201.2,107.1v0.5l-0.7,0.3c-0.7,0.3-1.3,0.8-2.2,1.5c-0.8,0.7-1.3,1.5-1.7,2.2c-0.2,0.3,0,0.7,0.2,0.8
		c1,0,1.8,0.3,2.2,1c0.3,0.7,0.3,1.5-0.2,2.2c-0.5,0.8-1.3,1.2-2.5,0.8c-1.3-0.3-1.8-1.3-1.8-3.2c0-1.5,0.7-3,1.8-4.4
		c1-1,2.2-1.7,3.5-2.2c0.2,0,0.5-0.2,0.7-0.2C201,106.7,201.2,106.9,201.2,107.1z"/>
	<path class="st1" d="M208.2,104.6L208.2,104.6c-0.2,1.5-0.7,3.5-1.3,6.2c-0.2,1-0.3,2-0.3,2.9c0,3,1,5,3,6.2c1.2,0.7,2.7,1,4.2,1
		c2.3,0,4.5-0.7,6.7-2c2.3-1.5,3.7-3.2,4.4-5.4c0.2-0.8,0.2-1.7,0.2-2.7c0-0.3,0-1.7-0.2-3.7c0-1.5,0-2.9,0-3.7
		c0.3-1.7,1-3.2,1.7-4.9c0.2-0.2,0.3-0.2,0.5,0c0,0.5,0,2-0.2,4.4c0,1.7,0,3.5-0.2,5.2c-0.2,2-0.3,3.7-0.7,5c-1,3.4-2.7,6.4-4.9,8.9
		c-1.8,1.7-3.7,2.9-5.9,3.7c-1.2,0.3-2.5,0.7-3.7,0.7c-1.3,0-2.7-0.3-3.7-0.8c-2.3-1.5-3.5-4.2-3.5-8.2c0-2.2,0.3-4.7,1.2-7.5
		c0-0.2,0-0.5,0.2-0.8s0.2-0.5,0.2-0.7c0.2-0.7,0.7-1.8,1.3-3.2C207.9,104.4,208.1,104.4,208.2,104.6z M212.6,109.3l3.2-3.5l0.2,0.2
		c0.8,1,2,2,3.2,3c-0.7,0.7-1.7,1.8-3.2,3.2c-0.5-0.2-1-0.3-1.7-0.8c-0.5-0.5-1-1-1.5-1.5L212.6,109.3z"/>
	<path class="st1" d="M255.9,101.2c-1.8-1.3-3.2-2.5-4.4-3.5c-0.3-0.3-0.8-0.3-1.5-0.2c-0.3,0.2-0.7,0.3-1.2,0.7
		c-0.5,0.3-0.8,0.7-1,0.8c-0.2,0-0.3-0.2-0.3-0.3c0.2-0.3,0.5-0.8,1.3-1.7c1.2-1,2.2-1.5,3-1.5c0.2,0,0.3,0,0.5,0
		c0.7,0.2,1.3,0.5,2,1.2c0.7,0.5,1.2,1,1.8,1.5c0.8,0.5,1.3,1,1.8,1.2c0.7,0.3,1.3,0.7,2,0.8c0.2,0.3,0.2,0.3,0,0.5
		c-3.5,1.8-6.5,3.9-9.6,6c-1.2,0.8-2.2,1.2-3.4,1.2c-0.7,0-1.2-0.2-1.7-0.3c-1.3,2.3-3,3.9-5.4,4.7c-0.2,0.7-0.5,1.5-0.8,2.7
		c-0.3,1-0.7,1.8-0.8,2.2c-0.3,0.8-0.8,1.5-1.3,2c-0.3,0.2-1.3,0.5-3,0.8c-1,0.2-2.3,0.5-4.4,0.8c-0.2,0-0.3,0-0.5-0.2
		c0-0.2,0.2-0.3,0.5-0.8c1.2-0.7,3.4-1.8,6.5-3.5c1.2-0.8,1.7-1.5,1.7-2.2s-0.2-1.2-0.7-1.5c-1.3,0.2-2.3,0-2.9-0.5
		c-0.3-0.5-0.5-1-0.5-1.5c0-0.3,0.2-1,0.3-1.7c0.3-1,0.5-1.5,0.5-1.5c0.3-1,0.5-1.7,0.5-1.8c0.3-0.7,0.7-1.2,1.3-1.2
		c0.8-0.2,1.5,0.2,2,0.8c0.7,0.8,1.2,2.2,1.2,3.7c1.5,0.2,2.9-0.7,4.2-2.3c0.3-0.3,0.5-0.7,0.8-1.3c0.3-0.7,0.5-1,0.7-1.3
		c0.2-0.2,0.3,0,0.5,0.2c0,0.3,0.2,0.5,0.5,1c0.3,0.3,0.8,0.5,1.3,0.5c0.7,0,1.7-0.3,2.9-1.2C252.7,103.7,254.2,102.6,255.9,101.2z
		 M237.4,97.7l3.4-3h0.2c0.7,0.7,1.7,1.7,3,3v0.5c-1.2,1.2-2.2,2.2-3.2,2.9c-0.3,0.2-0.7,0-1-0.2s-0.7-0.5-1-0.7
		c-0.5-0.5-1-1.2-1.7-2.2L237.4,97.7z M252,110.3h0.3c1,1,2,1.8,3.2,2.7c0.2,0.2,0.2,0.3,0.2,0.5c-0.5,0.7-1.3,1.7-2.5,3
		c-0.2,0.2-0.5,0.3-0.7,0.2c-1.2-0.5-2.2-1.5-3.2-2.7c0,0,0-0.2,0-0.3C249.7,112.9,250.7,111.8,252,110.3z"/>
	<path class="st1" d="M278.8,107.1v0.5l-0.7,0.3c-0.7,0.3-1.3,0.8-2.2,1.5c-0.8,0.7-1.3,1.5-1.7,2.2c-0.2,0.3,0,0.7,0.2,0.8
		c1,0,1.8,0.3,2.2,1c0.3,0.7,0.3,1.5-0.2,2.2c-0.5,0.8-1.3,1.2-2.5,0.8c-1.3-0.3-1.8-1.3-1.8-3.2c0-1.5,0.7-3,1.8-4.4
		c1-1,2.2-1.7,3.5-2.2c0.2,0,0.5-0.2,0.7-0.2C278.7,106.7,278.8,106.9,278.8,107.1z"/>
	<path class="st1" d="M298.1,102.4L298.1,102.4c0,0.2,0,0.5-0.2,0.8c-0.2,0.7-0.5,1.2-0.7,1.5c-0.3,0.5-0.5,1-1,1.3
		c0,0-0.3,0.3-1,0.7c-0.7,0.3-1.8,0.7-3.7,1c-1.7,0.3-2.9,0.7-3.7,1.2c-2.2,1-3.5,2-3.9,3.5c-0.2,0.8-0.3,2-0.3,3.5
		c0,1.2,0,2.3-0.2,3.7c0,1,0,2.5,0.2,4.5c0,1-0.2,4.5-0.5,10.4c0,0.5-0.2,1.2-0.5,1.8c-0.2,0-0.3,0-0.3-0.2c0-5.2-0.2-10.6-0.5-15.9
		c0.2-2.9,0.3-4.9,0.5-6c0.5-2.3,1.2-4.2,2.5-5.5c1.5-2.2,3.5-3.7,6-4.7c0.7-1.3,1.5-2.9,2.5-4.2c0.8,0.3,2,1,3.7,1.8
		C297.5,101.5,297.8,101.9,298.1,102.4z"/>
	<path class="st1" d="M305.3,97c-0.2,0.5-0.2,1.3-0.3,2.3c-0.2,1.3-0.2,3.2-0.2,5.5c0,2.7,0,4.5-0.2,5.7c-0.2,2.3-0.7,4.7-1.8,7.2
		c-0.2,0.5-0.3,0.7-0.5,0.7s-0.2,0-0.3-0.2c-0.2-0.2-0.3-0.3-0.2-0.8c0.2-0.8,0.5-2.9,0.5-6c-0.2-2.5-0.3-5.4-0.2-8.6
		c0.5-1.7,1.3-3.5,2.5-5.9C304.8,96.7,305.2,96.7,305.3,97z"/>
	<path class="st1" d="M318.9,114.1c-0.5,1.2-0.8,2-1,2.3c-0.3,0.8-0.8,1.5-1.3,2.2c-0.3,0.3-0.7,0.7-1.2,0.7c-2.3,0.3-4.5,0.7-6.4,1
		c-0.2,0-0.3-0.2-0.5-0.3c0-0.2,0.2-0.3,0.5-0.7c1.3-0.8,2.7-1.7,4-2.3c1.7-1,2.9-2,3.7-2.9c0.8-1.2,1.5-2.5,2.2-4
		c0.2-0.5,0.7-2,1.2-4.4c0.2-0.2,0.2-0.3,0.5-0.5s0.5,0,0.5,0.3l0.2,0.7c0,0.2-0.2,1-0.3,2.2c-0.2,0.8-0.2,1.5-0.2,2.2
		c0,0.8,0.2,1.5,0.3,2.2c0.5,1,1.5,1.5,2.9,1.8c0.5-1.2,1-2.3,1.5-3.5c0.7-1.3,1.3-2.5,2-3.4c0.5-0.7,1.2-0.8,2-0.8
		c0.5,0,1.2,0.2,2,0.3c0.7,0.2,1.3,0.3,1.8,0.7c0.7,0.2,1.7,0.5,3,0.7c0.2,0.2,0.2,0.3,0.2,0.5c-0.8,0.8-2.2,2.3-4,4.5
		c-1.7,2.2-3,3.7-4.2,4.5c-1.7,1.3-3.5,2-5.5,1.8c-1.5-0.2-2.5-0.5-3-1.2C319.6,117.8,319.1,116.3,318.9,114.1z M320.4,99.7
		c-1.8-0.3-3-1.3-3.7-2.9c1.7-2,2.7-3.2,2.9-3.4c1.2,1,2.5,2,3.7,2.9L320.4,99.7z M325.8,129c-1.8-0.3-3-1.3-3.9-2.9
		c1.8-2,2.7-3.2,3-3.4c1.2,1,2.5,2,3.7,2.9L325.8,129z M333.3,110.1l-1.2-0.3c-0.2,0-0.7-0.2-1.5-0.5c-0.7-0.2-1.2-0.3-1.5-0.3
		c-0.5,0-1,0.3-1.5,0.8c-1,1.2-1.7,2.7-2.2,4.5c1.5,0,3.4-0.5,5.2-1.7c0.5-0.3,1-0.7,1.5-1.2C332.7,110.9,333.2,110.6,333.3,110.1z"
		/>
	<path class="st1" d="M355.5,107.1v0.5l-0.7,0.3c-0.7,0.3-1.3,0.8-2.2,1.5c-0.8,0.7-1.3,1.5-1.7,2.2c-0.2,0.3,0,0.7,0.2,0.8
		c1,0,1.8,0.3,2.2,1c0.3,0.7,0.3,1.5-0.2,2.2c-0.5,0.8-1.3,1.2-2.5,0.8c-1.3-0.3-1.8-1.3-1.8-3.2c0-1.5,0.7-3,1.8-4.4
		c1-1,2.2-1.7,3.5-2.2c0.2,0,0.5-0.2,0.7-0.2C355.1,106.7,355.5,106.9,355.5,107.1z"/>
	<path class="st1" d="M390,112.6l0.2,0.2c1,0.2,1.7,0.2,2,0.2c1.2-1.3,1.8-2.2,1.8-2.3c0.7-0.8,1-1.8,1.2-2.7
		c0.3-1.7,0.7-4.7,0.7-9.1c0.2-0.8,0.3-1.7,0.8-2.9c0.7-1.5,1-2.5,1.2-2.7s0.2-0.3,0.5-0.5c0.3,0,0.5,0,0.5,0.2
		c-0.2,0.7-0.2,1.5-0.3,2.7c-0.2,1.8-0.2,3.7-0.2,5.7c-0.2,2.2-0.5,4-1,5.4l0,0c2-1.8,3.9-2.9,5.2-2.9c0.7,0,1.2,0.2,1.8,0.5
		c0.8,0.5,1.3,1.2,1.3,2.2c-0.2,1.5-1.5,3.5-4,5.7c-2,1.2-4,2.2-6,2.9c-0.7,0.2-1.3,0.3-2,0.3c-1.5,0-2.9-0.5-3.7-1.7h-0.2
		c-1.2,2-3,3.4-5.4,4.4c-1.3,0.5-3.5,1.2-6.7,1.7c-2.5,0.5-5.2,0.7-7.7,0.7c-2.7,0-5-0.3-7.2-0.8c-1.5-0.3-2.2-1.2-2.5-2.3
		c-0.2-0.7-0.2-1.5-0.2-2.2c0-1.3,0.2-2.9,0.7-5c0.2-0.3,0.3-0.3,0.7-0.3c0.2,0.3,0.3,0.8,0.2,1.3c0,0.7,0,1.2,0,1.3
		c-0.2,0.8,0.3,1.3,1.2,1.7c2.3,0.8,5.4,1.2,8.9,1.2c1.5,0,3.5-0.2,5.5-0.3c5.2-0.3,8.9-1.2,10.9-2.5c0.5-0.3,1.3-1.2,2.3-2.9
		c0.2-0.2,0.3-0.2,0.7-0.2c0.2,0.2,0.2,0.3,0,0.7C390.5,110.9,390.4,111.8,390,112.6z M378,110.1c-1-0.5-2.2-1.3-3.5-2.5l-2.2,2.5
		c-1.7-0.3-3-1.3-3.9-2.9c1.7-2.2,2.7-3.4,2.9-3.5c0.5,0.5,1.2,1,1.7,1.5c0.7,0.5,1.2,0.8,1.8,1.2l2.7-2.7c1.7,1.3,2.9,2.3,3.7,3
		C379.6,108.3,378.6,109.4,378,110.1z M401.1,106.7c-1.3,0.2-2.7,1-4,2.3c0,0-1,1.3-3,3.7c1.2-0.3,2.5-0.5,3.7-0.7
		c1.5-0.3,2.5-0.8,3.5-1.5c0.8-0.7,1.3-1.5,1.3-2.3C402.6,107.4,402.1,106.9,401.1,106.7z M403.9,99.4c-1.3-0.5-2.7-1.5-3.9-2.9
		c1.7-2,2.7-3.2,2.9-3.4c1.2,1,2.5,2,3.7,2.9L403.9,99.4z"/>
	<path class="st1" d="M422.6,112.9l-0.2,0.3c0.3,0,0.7,0,1-0.2s0.7-0.2,1-0.3c1.2-0.7,2.2-1.7,3.4-3.2c0.8-1.3,1.7-2.5,2.5-3.9
		c0.3-0.7,1-1.5,1.8-2.7c-0.7-0.3-1.7-0.8-3-1.5c-1.8-0.7-2.9-1-3-1c-0.5,0-0.8,0.2-1.3,0.3c-0.2,0.2-0.5,0.5-0.7,0.8
		c-0.2,0.5-0.3,0.7-0.5,0.8c-0.2,0-0.3,0-0.5-0.3c0.3-2,1.2-3.4,2.2-4c0.5-0.2,1-0.3,1.5-0.3c0.7,0,1.5,0.2,2.5,0.5
		c0.8,0.3,1.5,0.7,2.3,1c0.3,0.2,1.7,0.7,4.4,1.5c0.2,0.2,0.3,0.3,0.2,0.7c0,0-1,1.2-3,3.2c-0.8,0.8-1.8,2.3-3.2,4.4
		c-1.3,2-2.2,3.5-3,4.4c-1.3,1.3-2.9,2.2-4.7,2.3c-0.2,0-0.5,0-1,0c-0.3,0-0.7-0.2-0.8-0.2c-1.2,1.3-2,2.3-2.5,2.9
		c-1.2,1-2.2,1.5-3.4,1.7c-1.3,0-2.3-0.7-3.2-1.8c-0.8-1.8-1.2-4-1.2-6.7c0-0.5,0-1.8,0.2-3.7c0-1.5,0-2.9,0-3.7
		c0-1.3,0-3.5,0.2-6.2c0.3-0.8,0.8-2,1.3-3.7c0-0.2,0.2-0.2,0.3-0.3c0.3,0,0.5,0.2,0.5,0.3c-0.2,0.8-0.2,2.2-0.3,4
		c-0.3,5.7-0.3,9.7,0,12.2c0.2,2.3,1,3.9,2.3,4.4c0.3,0.2,0.7,0.2,1,0.2c0.8,0,1.7-0.3,2.3-1c-0.7-1.2-1.2-2.3-1.2-4
		c0-1.5,0.3-2.7,1-3.9c0.7-1.2,1.5-1.8,2.3-2c1-0.2,1.8,0.2,2.3,0.8c0.5,0.7,1,1.7,1,2.9C423.7,109.3,423.4,110.9,422.6,112.9z
		 M418.2,89.3l0.3,0.2c0.7,0.7,1.7,1.5,3.2,2.9c0,0,0,0.2,0,0.5c-1,1.2-1.8,2.2-2.9,3c-0.2,0-0.2,0-0.3,0c-0.2,0-0.7-0.3-1.5-0.8
		c-0.3-0.3-0.8-0.7-1.2-1s-0.7-0.8-0.8-1.2C415.5,92,416.7,90.8,418.2,89.3z M420.2,112.8l1-0.8c0.7-0.7,1.2-1.3,1.2-2.3
		c0-0.3-0.2-0.8-0.3-1.2c-0.3-0.7-0.8-1-1.7-1c-0.5,0.2-1,0.3-1.5,0.8s-0.7,1-0.7,1.5s0.3,1.2,0.8,2c0.2,0,0.2,0.2,0.5,0.5
		S420,112.8,420.2,112.8z"/>
	<path class="st1" d="M479.6,91.7l6.4-2.9c0.2-0.2,1.2-0.7,2.7-1.5c1.2-0.7,2-1.2,2.7-1.7c0.2,0,0.3,0.2,0.3,0.3
		c0,0.3-0.2,0.7-0.5,1c-1.5,2-3,3.2-4.5,3.9c-1.2,0.7-2.9,1.5-5.4,2.5s-4.2,1.8-5.2,2.5c-1.3,0.8-2.2,1.7-2.2,2.7
		c-0.3,3.9-0.3,8.2,0,13.2c0.3,1.2,0.8,2,1.5,2.5c0.5,0.3,1,0.5,1.7,0.5c0.8,0,1.5-0.2,2.2-0.7c0.2-0.2,0.5-0.5,0.8-0.8
		s0.5-0.7,0.8-0.8c0.2,0,0.3,0,0.3,0.3c-0.3,1.8-1,3.4-1.8,4.7c-1.2,1.7-2.3,2.5-3.4,2.5c-1.5,0.2-2.5-0.5-3.4-1.7
		c-0.3-0.8-0.7-2.2-1-4c-1,2.3-2.9,4-5.5,5c-1.5,0.7-4.2,1-7.7,1.5c-0.8,0.2-1.5,0.2-2.3,0.2c-2.2,0-4.2-0.3-6-1
		c-1.2-0.3-1.8-1.2-2-2.2c-0.2-0.8-0.2-1.5-0.2-2.3c0-1.5,0.2-3.2,0.7-4.7l0.3-0.3c0.3,0,0.5,0.2,0.5,0.3c0,0,0,0.7,0,1.8
		c0,0.8,0.2,1.3,0.5,1.7c1,0.7,2.7,1,5,1.2c1.8,0.2,3.7,0.3,5.2,0.3c3.5,0,6.5-0.5,8.7-1.5c1.7-0.8,2.5-1.7,2.9-2.9
		c0.2-1.2,0.3-3,0.3-5.5s0.2-4.4,0.3-5.5c0.5-3.2,2.2-5.5,5.2-7L479.6,91.7z M484.9,106.7c-1-0.5-2.2-1.3-3.5-2.5l-2.3,2.5
		c-1.8-0.5-3-1.3-3.9-2.9c1.7-2.2,2.7-3.4,2.9-3.5c1,0.8,2.2,1.8,3.5,2.7l2.7-2.9c1.7,1.3,2.9,2.3,3.7,3
		C486.8,104.9,485.6,106.1,484.9,106.7z"/>
	<path class="st1" d="M528.4,110.3c-0.3,1.8-1.2,3.5-2.5,5s-2.9,2.7-4.7,3.2c-4.7,1.5-9.4,2.2-13.9,2.2c-2.3,0-4.5-0.2-6.5-0.5
		c-1.8-0.3-2.9-1.2-3.2-2.5c-0.2-0.7-0.2-1.3-0.2-2.2c0-1.2,0.2-2.7,0.7-4.9c0,0,0-0.2,0.2-0.2c0-0.2,0.2-0.2,0.2-0.2
		c0.3,0,0.5,0.2,0.5,0.3c0,0.7,0,1.5,0,2.2c0,0.8,0.5,1.5,1.2,1.7c2.3,1,6.2,1.3,11.4,1.3c5.2,0,9.6-0.7,12.9-1.8
		c1.7-0.5,2.9-1.7,3.7-3.5C528,110.3,528.2,110.3,528.4,110.3C528.2,109.9,528.4,110.1,528.4,110.3z M512.6,106.9L512.6,106.9
		c0.7-0.7,1.3-1.5,2.3-2.7c0.3,0.2,0.8,0.5,1.5,1s1,0.8,1.3,1s0.7,0.5,1,0.8c-0.3,0.5-1,1.7-2.5,3.4c-0.2,0.3-0.5,0.5-0.8,0.3
		c-1.3-0.5-2.3-1.3-3.4-2.5h-0.2c-0.5,0.7-1.2,1.5-2.3,2.7c-0.3,0-0.8-0.2-1.5-0.7c-0.5-0.3-1.3-1-2.3-2v-0.3c0.7-0.8,1.5-2,2.9-3.5
		l0.2,0.2C509.8,104.9,511.1,105.7,512.6,106.9z"/>
	<path class="st1" d="M538.4,112.8l-0.2-0.2c-1.3,0.2-2.3,0-3.2-0.7c-0.3-0.3-0.5-0.8-0.5-1.3s0.2-1,0.5-1.7c0.5-1,0.7-1.5,0.7-1.5
		c0.3-1,0.5-1.5,0.7-1.8c0.3-0.7,0.8-1,1.3-1c0.7-0.2,1.3,0.2,2,1s1,2,1,3.7c1.3-0.2,2.9-1,4.2-2.2c0.7-0.7,1.8-2,3.2-3.7
		c0.2-0.3,0.7-0.7,1.5-1.3c0.7-0.5,1-1,1-1.5c0.5-1,1-1.8,1.5-2.2c0.3,0,0.5,0.2,0.7,0.5c0.3,0.5,0.3,0.8,0.3,0.8
		c0.8,1,1.7,2,2.7,2.9c0,0.3-0.2,0.8-0.3,1.3c-0.3,0.5-0.8,1-1.2,1.3c-0.5,0.5-1,0.8-1.3,1c-0.3,0-0.8-0.2-1.5-0.5s-1.2-0.5-1.7-0.5
		c-0.3,0-0.5,0-0.8,0.2c-0.8,0.3-1.7,1-2.3,2c-1.3,1.5-2,2.3-2.2,2.5c-1.5,1.5-2.7,2.2-3.7,2.3c-0.3,1.2-0.8,2.7-1.7,4.4
		c-0.5,1.2-1.2,2-1.8,2.7c-0.2,0.2-0.5,0.2-0.8,0.3c-0.5,0-0.7,0.2-0.8,0.2c-2,0.5-3.5,0.8-4.5,0.8c-0.2,0-0.2-0.2-0.3-0.3
		c0-0.2,0.3-0.3,0.7-0.5c0.3-0.2,0.7-0.3,0.7-0.3c0.3-0.2,1.5-1,3.4-2c1.3-0.8,2.3-1.5,3.2-2.3c0.2-0.2,0.3-0.5,0.3-0.8
		C538.8,113.8,538.8,113.5,538.4,112.8z"/>
	<path class="st1" d="M578.4,105.4h0.3c0.7,1,1.3,1.5,1.8,1.5c0.2,0.2,0.5,0.2,0.7,0.2c0.7,0,1.5-0.3,2.2-1c0.2-0.3,0.7-0.7,1.2-1.2
		c0,0,0.2,0.3,0.2,0.7c0.2,0.3,0.3,0.5,0.5,0.7c0.3,0.2,0.5,0.2,0.8,0.2c0.8,0,1.8-0.7,3.4-2c0.2,0,0.3,0,0.3,0.2s0.2,0.2,0,0.3
		c-0.3,1-1,2-2,2.7c-1,0.8-2,1.2-3.2,1.2c-0.7,0-1.3-0.2-2-0.5c-0.5,0.3-1,0.7-1.5,1c-0.7,0.3-1.2,0.5-1.7,0.5c-0.2,0-0.5,0-0.7-0.2
		c-0.3-0.2-0.8-0.3-1.7-0.8c-1.3,1.2-2.9,2.2-4.9,3c-0.7,0.3-1.3,0.8-1.8,1.7c-0.2,0.2-0.2,0.5-0.2,0.7c0.5,0.3,1,0.7,1.8,0.8
		c0.7,0.2,1.3,0.2,2.2,0.3l5.4,0.3l11.2,0.2c2.7,0,6.7-0.2,12.1-0.7c0.8-0.2,2-0.3,3.7-0.5c0.2,0.2,0,0.3-0.2,0.7
		c-0.5,0.5-1.3,1-2.2,1.3c-0.8,0.3-1.5,0.7-2.3,1c-2.3,0.8-5.4,1.5-8.7,1.8c-1.3,0.2-4.5,0.3-9.2,0.7c-3.5,0.2-6,0.3-7.2,0.3
		c-3.2,0-5.9-0.3-8-1c-1.2-0.5-2-1.2-2.2-2c0.3-1.8,1.5-3.9,3.9-6c1.2-1.2,2.9-2.3,5-3.4c0.3-0.3,0.7-0.7,1.2-1.3
		C577,106.1,578,105.7,578.4,105.4z"/>
	<path class="st1" d="M621.1,104.6L621.1,104.6c-0.2,1.5-0.7,3.5-1.3,6.2c-0.2,1-0.3,2-0.3,2.9c0,3,1,5,3,6.2c1.2,0.7,2.7,1,4.2,1
		c2.3,0,4.5-0.7,6.7-2c2.3-1.5,3.7-3.2,4.4-5.4c0.2-0.8,0.2-1.7,0.2-2.7c0-0.3,0-1.7-0.2-3.7c0-1.5,0-2.9,0-3.7
		c0.3-1.7,1-3.2,1.7-4.9c0.2-0.2,0.3-0.2,0.5,0c0,0.5,0,2-0.2,4.4c0,1.7,0,3.5-0.2,5.2c-0.2,2-0.3,3.7-0.7,5c-1,3.4-2.7,6.4-4.9,8.9
		c-1.8,1.7-3.7,2.9-5.9,3.7c-1.2,0.3-2.5,0.7-3.7,0.7c-1.3,0-2.7-0.3-3.7-0.8c-2.3-1.5-3.5-4.2-3.5-8.2c0-2.2,0.3-4.7,1.2-7.5
		c0-0.2,0-0.5,0.2-0.8s0.2-0.5,0.2-0.7c0.2-0.7,0.7-1.8,1.3-3.2C620.8,104.4,621.1,104.4,621.1,104.6z"/>
	<path class="st1" d="M648.6,124.4c0.3-0.3,0.5-0.5,0.5-0.5s0.3,0.2,0.7,0.5c1.2,1.2,2.2,1.8,3,2.3c0,0,0.2-0.2,0.5-0.5
		c1.2-1.3,1.8-2,2-2.2c0,0,0.2,0.2,0.5,0.3c1,0.8,2,1.7,2.9,2.3c0,0,0,0.2,0,0.3c0,0.2-0.3,0.5-0.8,1.2l-0.3,0.3
		c-1,1.2-1.5,1.8-1.7,1.8c0,0-0.2,0-0.3,0c-0.5,0-1.2-0.3-2-1.2c-0.7-0.5-1-1-1.2-1.3c-0.2-0.2-0.2-0.2-0.2-0.3c0,0-0.5,0.3-1.2,1.2
		s-1.2,1.2-1.2,1.3c-0.3,0-0.7,0-1-0.2c-0.7-0.3-1.3-0.8-2-1.5c-0.5-0.5-0.8-0.8-0.8-1C646.3,127.2,647.1,126.2,648.6,124.4z"/>
	<path class="st1" d="M658.2,96.5c0.2-0.3,0.5-0.5,0.7-0.7c-0.2,2.5-0.5,5-0.7,7.5c-0.3,2.3-1.3,4.5-3.2,6.5
		c-0.7,0.8-1.3,1.5-1.8,1.8c-0.3,2-1,3.9-1.8,5.9c-0.5,1-1.2,1.5-2.3,1.8c-0.5,0.2-2,0.3-4.5,0.7l-1.3,0.2c-0.3,0-0.5,0-0.5,0
		c0-0.2,0-0.3,0-0.5l1.2-0.7c1-0.7,2.2-1.3,3.7-1.8c1.3-0.7,2.5-1.2,3.2-1.7c1-0.8,1.2-1.7,0.7-2.7l-0.2-0.2h-1
		c-0.7,0-1.2-0.2-1.7-0.3c-0.7-0.3-1-1-1-2c0.3-1.3,0.8-2.9,1.3-4.4c0.5-1.2,1.2-1.7,2.3-1.5c0.8,0.3,1.3,1.2,1.8,2.7
		c0.2,0.5,0.3,1,0.3,1.7l0.3-0.3c0.7-0.5,1.3-1,1.7-1.7c0.3-0.5,0.5-1,0.7-1.5v-2.5c0-1.8,0.2-3,0.3-3.9
		C656.7,98.7,657.2,97.7,658.2,96.5z"/>
	<path class="st1" d="M664.2,119.8c-0.5,0.2-1.3,0.3-2.7,0.5c-0.3,0-0.5-0.2-0.5-0.3c0-0.3,0.2-0.5,0.7-0.7c1.2-0.7,2.2-1.5,3.4-2.2
		c1.3-0.8,2.3-1.7,3.2-2.3c0.8-1,1.7-2.3,2.5-4.4c0.5-1.7,1.2-3.2,1.7-4.7c0.2-0.2,0.3-0.3,0.5-0.3c0.3,0,0.3,0.2,0.3,0.3
		c0,0.5-0.2,1.8-0.7,3.9c-0.8,3.5-2,6.4-3.2,8.4c-0.5,0.8-1.3,1.3-2.3,1.5S665.1,119.8,664.2,119.8z"/>
	<path class="st1" d="M682.8,123.3c0.3-0.3,0.5-0.5,0.5-0.5s0.3,0.2,0.7,0.5c1.2,1.2,2.2,1.8,3,2.3c0,0,0.2-0.2,0.5-0.5
		c1.2-1.3,1.8-2,2-2.2c0,0,0.2,0.2,0.5,0.3c1,0.8,2,1.7,2.9,2.3c0,0,0,0.2,0,0.3s-0.3,0.5-0.8,1.2l-0.3,0.3c-1,1.2-1.5,1.8-1.7,1.8
		c0,0-0.2,0-0.3,0c-0.5,0-1.2-0.3-2-1.2c-0.7-0.5-1-1-1.2-1.3c-0.2-0.2-0.2-0.2-0.2-0.3c0,0-0.5,0.3-1.2,1.2
		c-0.7,0.8-1.2,1.2-1.2,1.3c-0.3,0-0.7,0-1-0.2c-0.7-0.3-1.3-0.8-2-1.5c-0.5-0.5-0.8-0.8-0.8-1C680.5,126.2,681.2,125.2,682.8,123.3
		z"/>
	<path class="st1" d="M692.9,115.1c0.3-0.3,0.7-0.3,1,0c0.5,0.5,1.2,1,2,1.7c0.3,0.3,0.7,0.5,0.7,0.7s0,0.2-0.3,0.5
		c-0.5,0.5-1,1.2-1.8,2l-0.5,0.5c-0.7,0-1.2-0.2-1.5-0.5c-0.7-0.5-1.3-1.2-1.8-1.8c0-0.2,0.3-0.5,0.8-1l0.3-0.3
		C692.6,115.6,692.9,115.1,692.9,115.1z"/>
	<path class="st1" d="M678.6,96c0.2-0.5,0.3-0.8,0.7-1c0.3,0,0.3,0.3,0.3,0.7c-0.3,5-0.5,10.6-0.3,16.4c0.2,0.5,0.2,0.8,0.3,0.8
		c0.2,0,0.2-0.2,0.3-0.5c0.2-0.5,0.5-1.2,1-1.7c1-1.3,2.3-2.9,4.4-4.4c0.8-0.7,1.8-1.2,2.9-1.3c0.3,0,0.8,0.2,1.5,0.3
		c0.7,0.3,1.2,0.5,1.5,0.5c0.7,0.2,1.3,0.2,1.7-0.3c0.3-0.3,0.7-0.7,0.8-0.8c0.2-0.3,0.5-0.7,1-1.2c0.2-0.2,0.5-0.3,0.7-0.3
		s0.3,0.2,0.3,0.3c0,0.2,0,0.3-0.2,0.7c-1,2-2.2,3.5-3.7,4.4c-0.8,0.2-1.7,0.2-2.5-0.3c-1-0.5-1.8-0.5-2.3-0.3
		c-1.3,0.5-2.5,1.3-3.7,2.7c-0.7,0.8-1,1.3-1.2,1.7c-0.2,0.3,0,0.7,0.2,0.8c0.3,0.2,0.8,0.5,1.7,0.8c0.5,0.2,1,0.3,1.2,0.7
		c0.3,0.5,0.5,1,0.3,1.7c-0.3,2-1.3,3.5-2.7,4h-0.7c-0.5,0-0.8,0-1-0.2c-0.7-0.2-1.3-0.7-1.7-1.2c-0.7-1-1.2-2.2-1.3-3.7
		c-0.2-2.7-0.3-6,0-9.9c0-0.5,0-1.5,0-3c-0.2-2,0.2-3.7,0.7-4.7C678.3,97,678.5,96.5,678.6,96z"/>
	<path class="st1" d="M709,119.8c-0.5,0.2-1.3,0.3-2.7,0.5c-0.3,0-0.5-0.2-0.5-0.3c0-0.3,0.2-0.5,0.7-0.7c1.2-0.7,2.2-1.5,3.4-2.2
		c1.3-0.8,2.3-1.7,3.2-2.3c0.8-1,1.7-2.3,2.5-4.4c0.5-1.7,1.2-3.2,1.7-4.7c0.2-0.2,0.3-0.3,0.5-0.3c0.3,0,0.3,0.2,0.3,0.3
		c0,0.5-0.2,1.8-0.7,3.9c-0.8,3.5-2,6.4-3.2,8.4c-0.5,0.8-1.3,1.3-2.3,1.5C710.8,119.7,710,119.8,709,119.8z"/>
	<path class="st1" d="M737.2,108.9l1.8,0.3c0.2,0,0.2,0.2,0.2,0.3c0,0.2,0,0.2-0.2,0.2c-0.8,0.8-2.2,2.2-3.9,4.4
		c-1.7,2.2-3,3.7-4,4.5c-1.7,1.3-3.4,2-5.2,2c-0.7,0-1.3-0.2-1.8-0.7c-0.7-0.3-1-1-1.3-1.5c-0.7-1.7-1.2-4-1.2-6.7
		c0-0.8,0-2.2,0.2-4c0.2-1.7,0.2-3,0.2-3.9c0-1.2,0-2.5,0-3.7c0-1.5,0.3-2.7,0.8-3.5c0.2-0.5,0.5-1.3,0.8-2.2c0.2,0,0.3,0,0.5,0.2
		c-0.3,3.9-0.7,7.4-0.7,10.4c0,2.3,0.2,4.5,0.3,6.7c0.5,2,1.2,3.2,2.3,3.5l0.2-0.2c0.5-1.2,1-2.3,1.5-3.4c0.7-1.3,1.3-2.3,2-3.2
		c0.7-0.7,1.3-1,2.2-1c0.7,0,1.5,0.2,2.5,0.7C736,108.6,736.8,108.8,737.2,108.9z M732.1,129.9c-1-0.5-2.2-1.3-3.5-2.5l-2.2,2.5
		c-1.8-0.3-3-1.3-3.9-2.9c1.7-2.2,2.7-3.4,2.9-3.5c1,0.8,2.2,1.8,3.5,2.7l2.7-2.9c1.7,1.3,2.9,2.3,3.7,3
		C733.8,128,732.8,129,732.1,129.9z M729.6,136.3c-1.8-0.3-3-1.3-3.7-2.9c1.7-2,2.7-3.2,2.9-3.4c1.2,1,2.5,2,3.7,2.9L729.6,136.3z
		 M727.8,115.1c2.9,0,5.4-1.2,7.9-3.7l0.2-0.2c-0.8-0.3-2-0.7-3.4-1.2c-0.3,0-0.8,0-1.2-0.2c-0.5,0-0.8,0.2-1,0.3
		C729.3,111.4,728.4,113.1,727.8,115.1z"/>
</g>
<g>
	<path class="st0" d="M38.6,137.7c-3.3,2.1-4.9,5.3-4.9,9.7c0,1.7,0.4,3.3,1.1,4.8c0.8,1.9,2,3.3,3.6,4.3c0.2,0.1,0.3,0.3,0.3,0.4
		c0,0.2-0.2,0.3-0.7,0.1c-1.9-0.7-3.5-2-4.7-3.8s-1.8-3.8-1.8-5.8c0-2.3,0.7-4.3,2-6.3s3-3.2,4.9-3.9c0.3-0.1,0.4,0,0.4,0.2
		C38.8,137.5,38.8,137.6,38.6,137.7z"/>
	<path class="st0" d="M43.7,154.8l-3.6,1.1c-0.1,0-0.2,0-0.2-0.1c-0.1-0.1,0.1-0.3,0.3-0.5c1.1-0.7,2-1.3,2.4-1.7
		c0.9-0.7,1.6-1.4,2.2-2.1c0.5-0.7,1-1.7,1.3-3c0.5-1.8,0.8-2.8,0.9-3.1c0.1-0.1,0.2-0.1,0.3-0.1s0.2,0.1,0.2,0.2
		c0,0.3,0,0.6-0.1,0.9s-0.2,0.7-0.2,1c0,0.9,0,1.5,0,1.8c0.1,0.7,0.4,1.2,0.8,1.6c0.3,0.3,0.8,0.4,1.3,0.4c0.6-0.1,1.1-0.6,1.5-1.6
		c0.1-0.1,0.2-0.2,0.3-0.1c0.1,0.1,0.1,0.2,0.1,0.4c0,0.3-0.1,0.7-0.3,1.1c-0.9,2.1-1.9,3.2-3,3.2c-0.7,0-1.2-0.3-1.5-0.9
		c-0.2-0.5-0.4-1-0.5-1.6c-0.2,0.6-0.5,1.4-0.9,2.4c-0.1,0.2-0.3,0.4-0.6,0.5C44.1,154.6,43.9,154.7,43.7,154.8z M54.8,140.8
		L54.8,140.8c-0.1,0.1-0.2,0.4-0.5,0.9c-0.1,0.1-0.3,0.1-0.5,0c-0.2,0-0.4,0-0.5,0c-0.4,0.1-0.8,0.4-1.1,1c-0.1,0.1-0.4,0.5-0.9,1.3
		c-0.4,0.5-0.8,0.9-1.2,1.1c-0.1,0-0.2,0-0.4,0.1s-0.4,0.1-0.5,0.1c-0.2,0-0.3-0.1-0.4-0.2V145c0.2-0.5,0.6-1.1,1.1-2
		c0.1,0,0.3,0.1,0.4,0.1c0.6,0,1.1-0.2,1.5-0.7c0.1-0.2,0.5-0.7,1-1.5c0.4-0.6,0.8-1,1.2-1.2c0.2-0.1,0.4-0.2,0.7-0.2
		s0.6,0.1,0.7,0.3C55.2,140,55,140.4,54.8,140.8z"/>
	<path class="st0" d="M58.6,141.9c-0.1,0.3-0.1,0.8-0.2,1.4c-0.1,0.8-0.1,1.9-0.1,3.3c0,1.6,0,2.7-0.1,3.4c-0.1,1.4-0.4,2.8-1.1,4.3
		c-0.1,0.3-0.2,0.4-0.3,0.4s-0.1,0-0.2-0.1c-0.1-0.1-0.2-0.2-0.1-0.5c0.1-0.5,0.2-1.7,0.3-3.6c-0.1-1.5-0.2-3.2-0.1-5.1
		c0.3-1,0.8-2.1,1.5-3.5C58.3,141.7,58.5,141.7,58.6,141.9z"/>
	<path class="st0" d="M65.3,150.9c-0.1,0.9-0.6,2-1.4,3.4c-0.2,0.4-0.6,0.6-1.1,0.8c-0.4,0.1-0.9,0.2-1.4,0.3
		c-0.3,0.1-0.8,0.3-1.5,0.5c-0.2,0-0.3-0.1-0.3-0.2c0-0.1,0.1-0.3,0.3-0.4c0.7-0.4,1.4-0.8,2.1-1.2c0.8-0.5,1.4-1,2-1.5
		c0.2-0.2,0.2-0.5,0.2-0.9c-0.1-0.3-0.2-0.4-0.4-0.5c-0.2,0-0.3,0.1-0.5,0.1c-0.6,0-1.1-0.2-1.4-0.7c-0.1-0.2-0.2-0.4-0.2-0.7
		s0.1-0.6,0.2-0.9c0.1-0.3,0.3-0.6,0.4-0.9c0.1-0.3,0.2-0.6,0.3-1c0.2-0.4,0.4-0.6,0.8-0.8c0.6-0.1,1.1,0.1,1.4,0.7
		c0.4,0.7,0.6,1.4,0.6,2.3C65.5,149.9,65.4,150.4,65.3,150.9z"/>
	<path class="st0" d="M77.3,143.8v-5.4c0.1-0.4,0.2-0.9,0.5-1.5c0.3-0.7,0.5-1.2,0.6-1.4c0.1-0.1,0.1-0.2,0.2-0.3
		c0.1,0,0.2,0,0.2,0.1c-0.1,1.1-0.2,1.9-0.2,2.4l-0.1,4.3l-0.2,1.8l-0.8,2.4c-0.3,1-0.7,1.7-1.1,2.2c-0.2,0.1-0.5,0.3-1,0.5
		s-0.8,0.4-1,0.6c-0.5,0.6-1,1.4-1.6,2.4c-0.8,1.5-1.2,2.3-1.3,2.5c-0.3,0.4-0.6,0.6-1,0.7c-0.1,0.1-0.5,0.1-1.2,0.2l-2.1,0.3
		c-0.1,0-0.2-0.1-0.3-0.2c0.1-0.2,0.2-0.3,0.3-0.4c0.1-0.1,0.4-0.2,0.5-0.3c0.9-0.5,1.7-1,2.6-1.6c1-0.6,1.7-1.4,2.2-2.1
		c0.4-0.8,0.8-1.7,1.2-2.5c0.5-1,1.1-1.6,1.9-2c0.8-0.2,1.3-0.6,1.5-1.3L77.3,143.8z M72.5,141.1l0.2,0.1c0.5,0.4,1.2,0.9,2.1,1.6
		c-0.4,0.6-0.9,1.3-1.5,2.1c-0.2,0.1-0.4,0.1-0.6,0.1c-0.5-0.2-1.2-0.7-1.9-1.4c-0.1-0.1,0-0.2,0.1-0.4
		C71.5,142.2,72.1,141.5,72.5,141.1z"/>
	<path class="st0" d="M83.4,141.9c-0.1,0.3-0.1,0.8-0.2,1.4c-0.1,0.8-0.1,1.9-0.1,3.3c0,1.6,0,2.7-0.1,3.4c-0.1,1.4-0.4,2.8-1.1,4.3
		c-0.1,0.3-0.2,0.4-0.3,0.4s-0.1,0-0.2-0.1s-0.2-0.2-0.1-0.5c0.1-0.5,0.2-1.7,0.3-3.6c-0.1-1.5-0.2-3.2-0.1-5.1
		c0.3-1,0.8-2.1,1.5-3.5C83.1,141.7,83.3,141.7,83.4,141.9z"/>
	<path class="st0" d="M107.1,129.9l0.8-0.9c0.3,0.1,0.8,0.3,1.7,0.8c0.6,0.5,0.9,0.9,0.9,1.2c0,0.1,0,0.2,0,0.3
		c0,0.6-0.5,1.3-1.5,1.9c-0.4,0.2-1.2,0.4-2.5,0.7c-1,0.2-1.8,0.6-2.3,1.1c-0.1,0.1-0.4,0.4-1,1.1c0.2,0,0.5-0.1,0.9-0.1
		c1.2-0.1,2.4,0,3.8,0.4c0.2,0.1,0.3,0.2,0.5,0.4c0,0.2-0.2,0.8-0.7,1.6c-0.4,0.6-1,1.1-1.8,1.6c-0.3,0.2-1,0.5-2.1,1
		c-0.1,0.1-0.1,0.3-0.1,0.4c0.4,0.7,0.7,1.3,1,1.9c0.1,0.2-0.1,0.4-0.3,0.7c-0.5,0.4-1,0.8-1.5,1.1c-0.1,0-0.2,0.1-0.3,0.1
		c-0.3,0-0.6-0.2-1.1-0.6c-0.4-0.4-0.8-0.6-1-0.6s-0.5,0.1-0.7,0.3c-0.4,0.4-0.5,0.6-0.6,0.6c-1.1,1-2.1,1.5-3,1.5
		c-0.3,0-0.6-0.1-1-0.2c-0.4-0.2-0.8-0.5-1.1-0.9c-1.7,1.5-2.5,3.5-2.5,5.9c0,0.2,0,0.5,0,0.8c0,0.1,0,0.2,0,0.4
		c0.4,1.9,1.2,3.1,2.3,3.5c0.6,0.2,1.2,0.3,1.8,0.3c1.5,0,2.8-0.5,4-1.5c1.6-1.3,2.7-3.2,3.4-5.8c0-0.1,0.1-0.1,0.2-0.1
		c0.1,0.1,0.2,0.4,0.2,0.7c0,0.5-0.1,0.8-0.1,0.7c-0.4,2.3-1.2,4.2-2.2,5.8c-1.5,2.2-3.5,3.3-5.9,3.3c-0.2,0-0.5,0-0.7,0
		c-0.7-0.1-1.3-0.4-1.9-0.8c-0.6-0.4-1-1.1-1.3-1.8c-0.5-1.2-0.8-2.5-0.8-3.9c0-1.9,0.4-3.9,1.3-5.9c0.4-0.6,0.9-1.6,1.7-2.8
		c-0.3-1.1-1.2-1.6-2.7-1.5c-0.1,0-0.2-0.1-0.3-0.3c0.1-0.3,0.4-0.6,1-1c1-0.5,2-0.8,3-0.8c0.5,0,1,0.1,1.4,0.2
		c0.5,0.3,0.8,0.6,0.9,1c0,0.4-0.2,0.9-0.7,1.4c-0.4,0.4-0.8,0.8-1.2,1.2c0.3,0.3,0.8,0.4,1.3,0.4s1-0.1,1.5-0.3
		c0.4-0.2,0.8-0.5,1.4-0.9c0.6-0.5,1-0.9,1.3-1c0.1-0.1,0.3-0.1,0.6-0.3c0.2-0.1,0.4-0.2,0.5-0.4c0.4-0.8,1.2-1.5,2.3-2.1
		c1.5-0.8,2.5-1.3,2.7-1.5c0.1-0.1,0.1-0.2,0-0.2c-0.5-0.3-1.4-0.5-2.7-0.6c-0.6-0.1-1.5,0.1-2.7,0.3c-0.1,0-0.2-0.1-0.3-0.2
		c0.2-0.7,0.8-1.5,1.8-2.6c0.9-0.9,1.9-1.6,3.2-2.1c0-0.1-0.1-0.1-0.3-0.2c-0.2-0.1-0.2-0.2-0.2-0.3v-0.1
		C106,131.7,106.5,130.9,107.1,129.9z M105.5,147.3v-0.2c0.4-0.5,1.1-1.1,1.9-2l0.2,0.1c0.5,0.5,1.1,1.1,1.9,1.7l-0.1,0.3
		c-0.4,0.4-1,1-1.8,1.7c-0.1,0-0.1,0-0.2,0s-0.2,0-0.3-0.1c-0.1-0.1-0.2-0.1-0.3-0.1C106.3,148.2,105.9,147.8,105.5,147.3z"/>
	<path class="st0" d="M112.6,137.7c-0.2-0.1-0.2-0.2-0.2-0.3c0-0.2,0.1-0.2,0.4-0.2c2,0.7,3.6,2,4.9,3.9s2,4,2,6.3
		c0,2.1-0.6,4-1.8,5.8c-1.2,1.8-2.8,3.1-4.7,3.8c-0.4,0.2-0.7,0.1-0.7-0.1c0-0.1,0.1-0.2,0.3-0.4c1.6-1,2.8-2.4,3.6-4.3
		c0.7-1.6,1.1-3.2,1.1-4.8C117.5,143,115.9,139.7,112.6,137.7z"/>
</g>
<g>
	<path class="st0" d="M322,178l0.2-0.6c3.1-5,6.5-7.7,10.6-7.5c0.6,0,1.3,0.4,2.5,1c1.2,0.6,1.9,0.8,2.7,0.8c0.4,0,0.6,0,1-0.2
		c1-0.2,2.1-0.8,3.5-1.9c1.3-1.5,2.5-2.3,3.1-2.7c0.4-0.2,1,0,1.7,0.4c0.8,0.4,1.2,0.6,1.5,0.6c0.4,0,0.8-0.2,1.2-0.6
		c0.4-0.6,1.2-1.3,2.1-2.5c0.2,0,0.4,0,0.6,0.2c-0.2,1.5-1.3,3.1-3.3,4.8c-1,0.8-1.9,1-2.9,0.8c-0.2,0-0.6-0.2-1-0.4
		c-0.4-0.2-0.8-0.4-1.2-0.4c-0.2,0.2-1.2,1.2-3.5,3.3c-1.3,1.3-2.7,2.3-3.8,2.7c-0.8,0.6-1.7,0.8-2.7,0.8c-1.5,0-3.1-0.4-4.4-1.3
		c-0.4-0.2-1-0.2-1.3-0.2c-1.7,0-3.6,1.2-5.8,3.5C322.1,178.2,322,178,322,178z M333.3,182.8l2.1-2.3l0.4,0.2c1.2,1,2.5,2.1,3.8,3.1
		v0.4c-0.6,1-1.7,2.1-3.3,3.6c-0.6,0.2-1.3-0.2-2.3-1c-0.6-0.4-1.2-1-2.1-1.9C331.9,184.3,332.3,183.8,333.3,182.8z M340.2,157.5
		l3.5-3.8h0.4c1.3,1.3,2.7,2.5,3.6,3.1c0,0.2,0,0.2,0.2,0.2c0.6-0.8,1.5-1.7,2.7-3.1h0.4c0.8,0.8,1.9,1.7,3.6,3.1
		c0.2,0.2,0.2,0.4,0,0.8l-3.1,3.3c-0.2,0.2-0.4,0.2-0.6,0.2c-0.2,0-0.4,0-0.8-0.2c-0.6-0.4-0.8-0.4-0.8-0.4c-1.3-1-2.1-1.7-2.5-2.5
		c-0.6,0.8-1.5,1.5-2.9,2.9c-0.6-0.2-1.3-0.4-1.9-1s-1.2-1-1.7-1.5C340.4,158,340.2,157.7,340.2,157.5z"/>
	<path class="st0" d="M382.4,154.2l0.6,0.2c1,0.4,1.9,1,2.9,1.3c1.2,0.6,1.7,1.5,1.7,2.5c0,1-0.4,2.1-1.3,3.1
		c-0.8,1-1.7,1.5-2.7,1.9c-2.3,0.4-3.5,0.4-3.6,0.4c-1.3,0.4-2.3,0.8-3.1,1.7c-1.7,1.5-3.5,3.6-5.2,6.7c-2.3,3.8-4,6.1-4.6,7.1
		c-2.1,2.7-5.4,5-9.6,6.9c-0.4,0.2-1,0.2-1.2,0.2c-0.2-0.2-0.2-0.2-0.2-0.4c1-0.6,2.1-1.5,3.8-2.7c4.4-3.3,7.1-6.3,8.4-9.2
		c1.5-3.6,2.7-6,3.5-7.1c1.5-2.5,3.3-4.6,5.4-6l2.5-1.5c0.4-0.8,1-1.7,1.3-2.7C381.3,155.6,381.9,154.8,382.4,154.2z"/>
	<path class="st0" d="M413.1,161.9c0.4-0.4,0.8-0.4,1.3,0c0.8,0.6,1.5,1.2,2.5,1.9c0.4,0.2,0.6,0.4,0.6,0.6c0,0.2-0.4,0.8-1.3,1.7
		l-1.5,1.7c-0.6,0-1,0-1.3-0.4c-0.4-0.2-1-0.8-1.7-1.7c-0.4-0.4-0.8-0.8-0.8-0.8c0-0.2,0.4-0.6,1.3-1.5
		C412.8,162.3,413.1,161.9,413.1,161.9z"/>
	<path class="st0" d="M426.4,176.9c0.4-0.4,0.6-0.6,0.6-0.6s0.4,0.2,0.8,0.6c1.3,1.3,2.5,2.1,3.5,2.7c0,0,0.2-0.2,0.6-0.6
		c1.3-1.5,2.1-2.3,2.3-2.5c0,0,0.2,0.2,0.6,0.4c1.2,1,2.3,1.9,3.3,2.7c0,0,0,0.2,0,0.4c0,0.2-0.4,0.6-1,1.3l-0.4,0.4
		c-1.2,1.3-1.7,2.1-1.9,2.1c0,0-0.2,0-0.4,0c-0.6,0-1.3-0.4-2.3-1.3c-0.8-0.6-1.2-1.2-1.3-1.5c-0.2-0.2-0.2-0.2-0.2-0.4
		c0,0-0.6,0.4-1.3,1.3c-0.8,1-1.3,1.3-1.3,1.5c-0.4,0-0.8,0-1.2-0.2c-0.8-0.4-1.5-1-2.3-1.7c-0.6-0.6-1-1-1-1.2
		C423.5,180.1,424.5,179,426.4,176.9z"/>
	<path class="st0" d="M434.7,134c0.8-1.2,1.9-2.5,3.3-3.8c0.2-0.2,0.6,0,0.8,0.4c1.3,1.2,2.5,2.1,3.5,2.9c0,0,0.2-0.2,0.6-0.4
		c1-1.2,1.9-2.1,2.5-2.5c0,0,0.2,0.2,0.4,0.4c1,0.8,1.9,1.5,2.9,2.5l0.6,0.4v0.2c0,0.2-0.6,1-1.5,2.1l-0.6,0.8
		c-0.6,0.8-1,1.2-1.2,1.2c-0.2,0-0.4,0-0.6,0c-1.3-0.6-2.5-1.5-3.5-2.9c0-0.2-0.2-0.2-0.2-0.2s-0.6,0.4-1.3,1.3
		c-0.8,1-1.2,1.3-1.3,1.3c-0.4,0.2-0.8,0.2-1.3-0.2c-0.6-0.2-1.2-0.8-1.7-1.3l-0.4-0.4C435,134.6,434.7,134.2,434.7,134z"/>
	<path class="st0" d="M425.8,152.1c0,0.6,0.4,0.8,1.2,0.8c1.7,0.2,3.3-0.2,4.4-1.3c0.6-0.4,1-1,1.3-1.7c0.2-0.6,0.4-1.3,0.6-2.5
		c0.2-1.3,0.6-2.7,1-4c0.2-0.8,0.4-1.2,0.6-1.3c0.2-0.2,0.4-0.2,0.6-0.2c0,0,0,0.4,0.2,1.2c0,2.1,0.6,3.5,1.7,4.2c1.5,1,2.9,1,3.6,0
		c0.4-0.6,1-1.2,1.5-1.3c0.2,0,0.4,0,0.4,0.2l-0.2,0.6c-0.8,2.9-2.5,5-4.8,6.7c-0.8,0.4-1.3,0.6-1.9,0.4c-0.8-0.2-1.5-0.8-2.1-1.3
		c-0.2-0.2-0.2-0.2-0.2-0.2c-0.4,1-1.2,1.7-1.7,2.5c-1.2,1.3-2.9,1.9-5,1.9v0.8c0,2.1-0.2,3.8-0.4,5.2c-1.2,7.3-4.2,13.1-9,17.3
		c-1.9,1.5-4,2.5-6.3,2.7c-1,0.2-2.1,0.2-3.1,0c-2.9-0.8-4.6-2.7-5.6-5.4c-0.8-3.3-0.8-6.5-0.2-10.2c0.6-2.9,1.3-5.2,2.3-7.1
		c0.2-0.4,0.4-0.6,0.6-0.6c0.2,0,0.4,0.2,0.4,0.6c0,0.2,0,0.6-0.2,1.3c-0.8,2.9-1.3,5-1.3,6.9c-0.2,1.9,0.2,3.5,0.6,4.8
		c0.6,1.5,1.7,2.5,3.5,3.1c3.1,0.6,6,0.4,8.6-1c3.3-1.7,5.6-4.4,7.1-7.9c1.2-2.7,1.5-5.8,1.2-9.2c-0.2-1.9-0.2-3.3,0-4
		c0.2-0.4,0.2-0.8,0.6-1.3C425.8,152.3,425.8,152.1,425.8,152.1C425.6,151.5,425.8,151.7,425.8,152.1z"/>
</g>
</svg>
