<?xml version="1.0" encoding="utf-8"?>
<!-- Generator: Adobe Illustrator 19.2.1, SVG Export Plug-In . SVG Version: 6.00 Build 0)  -->
<svg version="1.1" id="Layer_1_copy" xmlns="http://www.w3.org/2000/svg" xmlns:xlink="http://www.w3.org/1999/xlink" x="0px"
	 y="0px" viewBox="0 0 771 448" style="enable-background:new 0 0 771 448;" xml:space="preserve">
<style type="text/css">
	.st0{fill:#F7931E;}
	.st1{fill:#FFFF00;}
</style>
<g>
	<g>
		<path class="st0" d="M275,80.7c1,0,1.8,0.3,2.6,0.8s1.3,1,1.8,1.5c0.5,0.5,1,1.3,1.3,2.1c0.3,0.8,0.5,1.5,0.5,2.1
			c0,0.8-0.3,1.3-0.5,2.1s-1,1.3-1.5,2.1c-0.5,0.5-1.3,1-1.8,1.5c-0.8,0.5-1.3,0.5-2.1,0.5h-2.6c-1.8,0-3.6,0-5.4-0.3
			c-1.8-0.3-3.3-0.3-4.6-0.8c-0.8-0.3-1.3-0.5-2.1-0.8c-0.8-0.3-1.3-0.8-2.1-1.3c-0.8-0.5-1.5-0.8-2.3-1c-0.8-0.3-1.5-0.5-2.1-0.5
			h-0.8c-1,0-2.3,0.3-3.3,0.5c-1,0.3-2.3,0.8-3.6,1c-1.3,0.5-2.3,0.8-3.6,1.3s-2.6,0.8-3.9,1c-3.6,0.5-7.2,1-10.8,1.3
			c-3.9,0.3-7.4,0.5-11.3,0.5c-3.1,0-5.9-0.3-8.7-0.5c-2.8-0.3-5.6-0.8-8.2-1.3c-2.6-0.8-4.9-1.5-7.2-2.6c-2.3-1-4.1-2.3-5.9-3.9
			s-3.1-3.3-4.1-5.4c-1-2.1-1.8-4.6-2.1-7.4c0-1-0.3-2.1-0.3-3.1c0-3.6,0.5-6.9,1.8-10.8s3.1-7.2,5.4-10.8c0.5,0,0.8,0,1,0.3
			c0.3,0.3,0.5,0.3,0.8,0.3c-0.3,1.5-0.5,2.8-1,4.1c-0.5,1.3-1,2.3-1.5,3.6s-1,2.3-1.3,3.6s-0.5,2.6-0.5,4.1v1
			c0.3,3.1,1.5,5.6,3.3,7.7c1.8,2.1,4.4,3.6,7.2,4.9c2.8,1.3,6.2,2.1,9.8,2.6s7.4,0.8,11.3,0.8c2.3,0,4.6,0,7.2-0.3
			c2.3-0.3,4.6-0.5,6.9-0.8c2.3-0.3,4.4-0.5,6.7-1c2.1-0.3,4.1-0.8,5.9-1.3c0-1.3-0.3-2.6-0.5-3.9c-0.3-1.3-0.5-2.6-0.8-3.9
			c-0.3-1.3-0.5-2.6-0.8-3.6c-0.3-1-0.3-2.3-0.3-3.6s0.3-2.3,0.5-3.6s1-2.3,1.8-3.6c0.5-0.8,1.3-1.5,2.3-2.1s1.8-1,3.1-1.5
			c1-0.5,2.3-0.8,3.3-0.8c1.3-0.3,2.6-0.3,3.6-0.3c2.3,0,4.4,0.3,6.4,1c2.1,0.8,3.3,1.8,4.1,3.1c0.5,1,1,1.8,1.3,2.8
			s0.3,2.1,0.3,3.1c0,1.3-0.3,2.6-0.5,4.1c-0.3,1.3-0.5,2.8-1,4.1c-0.3,1.3-0.8,2.8-1,4.1s-0.5,2.8-0.5,4.1c1,1,2.3,1.8,3.9,2.3
			s3.3,0.5,5.1,0.5C273.7,80.7,275,80.7,275,80.7z M247.5,68.2v0.3c0,0.8,0.3,1.5,0.8,2.3c0.5,0.8,1,1.5,1.8,2.3
			c0.8,0.8,1.8,1.3,2.6,1.5c1,0.5,2.1,0.5,3.1,0.5c0.3,0,0.5,0,0.5,0h0.5c1.3-0.3,2.1-0.8,2.3-1.8c0.3-1,0.5-2.1,0.5-3.3
			c0-0.5,0-0.8,0-1.3c0-0.3,0-0.5,0-1s0-0.8-0.3-1s-0.5-0.8-1-1.3c-0.8-0.8-1.5-1-2.6-1.5c-1-0.3-2.1-0.5-2.8-0.5
			c-1.5,0-2.8,0.3-3.9,1C248.5,65.6,247.7,66.9,247.5,68.2z M251.3,27.8c2.3,0.3,4.1,0.8,5.6,1.5c1.5,0.8,2.8,1.8,4.1,3.1
			c0,2.1-0.3,3.9-0.8,5.6c-0.3,1.8-1,3.1-2.3,3.9h-1c-3.9,0-6.7-1.3-8.2-3.6c0-1,0.3-2.1,0.3-3.1c0-1,0-1.8,0.3-2.8
			c0-0.8,0.3-1.8,0.5-2.6C250.1,29.1,250.6,28.4,251.3,27.8z"/>
		<path class="st0" d="M283.2,80.7c2.1,0,4.1-0.3,6.2-0.8s3.6-1,4.6-1.8c0-1.3-0.3-2.3-0.5-3.1c-0.3-0.8-0.5-1.5-1-2.1
			c-0.5-0.5-0.8-1-1.3-1.5c-0.5-0.5-0.8-1-1.3-1.5c-0.5-0.5-0.8-1.3-1-2.1s-0.3-1.8-0.3-3.1c0-1,0.3-2.1,0.8-3.3
			c0.5-1,1-2.3,1.8-3.6c1.3,1.3,2.3,2.6,3.6,3.9c1,1.3,2.1,2.6,2.8,3.9c0.8,1.3,1.5,2.8,2.1,4.6c0.5,1.8,0.8,3.9,0.8,6.4
			c0,2.1-0.3,3.9-0.8,5.6c-0.5,1.8-1.5,3.6-2.8,5.1c-1.5,2.1-3.6,3.6-6.2,4.6c-2.3,0.8-4.9,1.3-7.4,1.3h-9.2
			c-2.1-0.5-3.3-1.3-4.4-2.6c-1-1.3-1.3-2.6-1.3-3.9s0.5-2.6,1.5-3.9s2.3-2.1,4.4-2.3H283.2z M298.8,115.9c-0.5,0-0.8,0.3-1.3,0.3
			c-0.5,0-0.8,0-1,0c-1,0-2.1-0.3-3.1-0.5c-1-0.3-1.8-0.8-2.6-1.3c-0.8-0.5-1.8-1-2.6-1.5c-0.8-0.5-2.1-0.8-3.1-1
			c-0.8,0-1.5,0.5-1.8,1c-0.5,0.5-0.8,1.3-1,1.8c-0.3,0.8-0.5,1.3-1,2.1c-0.3,0.5-1,1-1.8,1.3c-1.3,0-2.3-0.3-3.3-0.5
			c-1-0.3-1.8-0.5-2.8-1c-0.8-0.5-1.5-0.8-2.3-1.3c-0.8-0.5-1.5-1-2.3-1.3v-0.3c0-2.1,0.3-3.6,0.5-5.1c0.3-1.5,0.8-3.1,1-4.6
			l0.3-0.5c0.3,0,0.5,0,0.5,0s0.3,0,0.5,0c0.8,0,1.8,0.3,2.8,0.5c1,0.3,1.8,0.5,2.8,1s1.8,0.8,2.8,1.3c1,0.5,1.8,0.8,2.6,1
			c0.8,0,1.5-0.3,2.1-0.8c0.5-0.5,1-0.8,1.3-1.5s0.5-1.3,0.8-1.8s0.5-1.3,0.8-2.1c1.8,0,3.6,0.3,5.1,0.8s2.8,1,4.1,1.8
			c1,0.8,2.1,1.8,2.6,3.1c0.8,1.3,1,2.6,1,4.1C300.4,111.8,299.9,113.9,298.8,115.9z"/>
		<path class="st0" d="M347.6,64.1c1.3,0,2.1,0.5,2.6,1.5c0.5,1,0.8,2.1,0.8,3.3c0,0.8,0,1.5-0.3,2.1c-0.3,0.8-0.5,1.3-0.8,1.8
			c-0.3,0.5-0.5,1-1,1.3c-0.5,0.3-0.8,0.5-1.3,0.5c-1,0.5-2.1,0.8-2.8,1.5c-0.8,0.5-1.8,1-2.6,1.8c0.8,3.6,1.3,6.7,1.3,9.8
			c0,3.3-0.5,6.4-1.5,9s-2.3,5.1-3.9,7.2c-1.8,2.1-3.6,3.9-5.9,5.4s-4.9,2.8-7.4,3.6s-5.4,1.5-8.5,2.1c-2.8,0.5-5.9,0.8-9,0.8
			c-4.1,0-8-0.5-11.8-1.3c1.8-1.3,3.6-2.3,5.4-3.1s3.9-1.5,5.9-2.3c2.1-0.8,4.1-1.3,6.4-2.1c2.3-0.8,4.6-1.3,6.9-2.3
			c0.8-0.3,2.1-0.8,3.3-1.3s2.6-1.3,3.9-1.8s2.8-1.5,4.1-2.3c1.3-0.8,2.6-1.8,3.6-2.6c1-1,2.1-1.8,2.8-2.8c0.8-1,1.3-1.8,1.3-2.8
			c0-0.5,0.3-1.3,0.3-1.8c0-1-0.3-2.3-0.5-3.3c-0.3-1.3-0.5-2.3-1-3.6s-0.5-2.3-1-3.6c-0.3-1.3-0.5-2.3-0.5-3.3
			c0-1.3,0.3-2.6,0.8-3.6c0.5-1,1.5-2.3,2.8-3.6c1-0.8,2.1-1.5,3.3-2.3C345.1,65.3,346.3,64.6,347.6,64.1z"/>
		<path class="st0" d="M347.6,74.6c-1.3-0.3-2.1-0.8-2.6-1.8s-0.8-2.1-0.8-3.3s0.3-2.3,0.8-3.3c0.5-1,1.5-1.8,2.6-2.3
			c2.6-1,5.6-2.1,8.5-2.6c3.1-0.5,5.9-1,8.7-1.3V63c0,0.8,0,1.3,0,1.8s0,1,0,1.5c0,0.5,0,1-0.3,1.5c0,0.5-0.3,1-0.3,1.8
			c-0.8,0.8-1.5,1.3-2.6,1.8s-2.1,0.8-2.8,1.3c0,1.5,0.3,2.6,0.8,3.6c0.5,1,0.8,1.8,1.5,2.6c0.5,0.5,1.3,1,2.1,1.3
			c0.8,0.3,1.5,0.5,2.6,0.5c1.3,0,2.6-0.3,3.9-0.8s2.6-1,3.6-2.1c1-0.8,2.1-1.8,2.8-2.8c0.8-1,1.3-2.3,1.5-3.6
			c0.5,0.8,1,1.8,1.8,2.8c0.8,1,1.3,1.8,2.1,2.6s1.8,1.3,2.6,1.8c1,0.5,2.1,0.8,3.1,0.8c0.5,0,1,0,1.8-0.3c0.5-0.5,0.8-1,1-1.5
			c0.3-0.5,0.3-1.3,0.3-2.1s0-1.5-0.3-2.6c-0.3-1-0.3-1.8-0.3-2.6s0-1.3,0.3-2.1c0.3-0.5,0.5-1,1.3-1.3c1.5,1.5,2.6,3.6,3.3,5.9
			c0.8,2.3,1,4.9,1,7.4c0,1.5,0,3.1-0.3,4.6s-0.5,3.1-1,4.6c-0.8,0.5-1.8,1-2.6,1.3c-1,0.3-1.8,0.5-2.8,0.5s-2.3-0.3-3.3-0.5
			c-1.3-0.3-2.3-0.8-3.3-1.3c-1-0.5-2.1-1-2.8-1.8c-1-0.5-1.8-1.3-2.3-1.8c-0.5,0.8-1,1.5-1.8,2.1c-0.8,0.5-1.5,1.3-2.3,1.8
			c-0.8,0.5-1.5,1-2.6,1.5c-0.8,0.5-1.8,0.8-2.6,1.3h-0.5c-2.1,0-3.9-0.5-5.1-1.3s-2.3-1.8-3.1-3.3s-1.3-2.8-1.5-4.6
			s-0.5-3.3-0.5-5.1c0-0.8,0-1.5,0-2.3c0-0.8,0-1.5,0.3-2.1c-0.8-0.8-1.3-1.3-2.1-1.5s-1.5-0.5-2.1-0.5c-0.8,0-1.8,0.3-2.6,0.5
			C349.4,73.6,348.4,74.1,347.6,74.6z M393.3,52.5c-0.5,0-0.8,0.3-1.3,0.3c-0.3,0-0.8,0-1,0c-1,0-2.1-0.3-3.1-0.5
			c-1-0.3-1.8-0.8-2.6-1.3s-1.8-1-2.6-1.5c-1-0.5-2.1-0.8-3.1-1c-0.8,0-1.5,0.5-1.8,1c-0.5,0.5-0.8,1.3-1,1.8
			c-0.3,0.8-0.5,1.3-1,2.1c-0.3,0.5-1,1-1.8,1.3c-1.3,0-2.3-0.3-3.3-0.5c-1-0.3-1.8-0.5-2.8-1c-0.8-0.5-1.5-0.8-2.3-1.3
			s-1.5-1-2.3-1.3v-0.3c0-2.1,0.3-3.6,0.5-5.1s0.8-3.1,1-4.6l0.3-0.5c0.3,0,0.5,0,0.5,0c0.3,0,0.3,0,0.5,0c0.8,0,1.8,0.3,2.8,0.5
			s1.8,0.5,2.8,1s1.8,0.8,2.8,1.3s1.8,0.8,2.6,1c0.8,0,1.5-0.3,2.1-0.8c0.5-0.5,1-0.8,1.3-1.5c0.3-0.5,0.5-1.3,0.8-1.8
			c0.3-0.8,0.5-1.3,0.8-2.1c1.8,0,3.6,0.3,5.1,0.8c1.5,0.5,2.8,1,4.1,1.8c1,0.8,2.1,1.8,2.6,3.1c0.8,1.3,1,2.6,1,4.1
			C394.9,48.4,394.4,50.4,393.3,52.5z M369.5,22.2c2.3,0.3,4.1,0.8,5.6,1.5c1.5,0.8,2.8,1.8,4.1,3.1c0,2.1-0.3,3.9-0.5,5.6
			s-1,3.1-2.3,3.9h-0.8c-2.1,0-3.6-0.3-4.9-1s-2.3-1.5-3.3-2.6c0-1,0.3-2.1,0.3-3.1c0-1,0-1.8,0.3-2.8c0-0.8,0.3-1.8,0.5-2.6
			C368.4,23.7,368.9,23,369.5,22.2z"/>
		<path class="st0" d="M411.8,93.1c-0.5-0.5-0.8-1-1-2.1c-0.3-0.8-0.3-1.8-0.3-2.8c0-1.3,0-2.3,0.3-3.6s0.5-2.3,1-3.1
			c1.5-1.5,3.6-2.6,5.6-3.1c2.3-0.8,4.6-1.3,6.9-1.8c2.3-0.5,4.9-1,7.2-1.5c2.3-0.5,4.4-1.3,6.4-2.6c-1.8-1.5-3.6-2.8-5.9-4.1
			c-2.1-1.3-4.4-2.3-6.7-3.3c-2.3-1-4.6-2.1-6.7-3.3c-2.3-1-4.1-2.3-5.9-3.9c0-0.5,0.3-1,0.3-1.3c0-0.5,0-0.8,0-1.3l-0.3-4.4
			c0-0.5,0-0.8,0-1.3s0-0.8,0.3-1.3c0.3,0,0.5-0.3,0.5-0.3c0-0.3,0.3-0.3,0.5-0.3c2.6,0,5.1,0.3,7.7,1c2.6,0.8,5.1,1.5,7.7,2.8
			s4.9,2.6,6.9,4.4c2.3,1.8,4.1,3.6,5.6,5.6s2.8,4.4,3.9,6.7c1,2.3,1.5,4.9,1.5,7.4c0,2.8-0.5,5.6-1.8,8.2c-2.6,1-5.1,2.1-8.2,2.8
			c-2.8,0.8-5.9,1.3-8.7,1.8c-3.1,0.5-5.9,1.3-8.7,1.8C417.2,91.3,414.4,92,411.8,93.1z"/>
		<path class="st0" d="M451.6,104.4c2.1-1.3,4.4-2.6,6.9-3.6c2.6-1,5.1-2.1,7.7-2.8c2.6-1,5.1-1.8,7.7-2.8c2.6-1,4.9-2.1,7.2-3.3
			c2.3-1.3,4.1-2.8,5.9-4.6s3.1-4.1,4.1-6.7c-0.5-0.3-1.3-0.5-1.8-0.8c-0.8,0-1.3-0.3-2.1-0.3c-1.5,0-3.1,0.3-4.9,0.5
			c-1.8,0.3-3.3,0.5-4.9,0.5c-1,0-2.1-0.3-3.1-0.5c-1-0.3-1.8-0.8-2.6-1.5c-0.5-1.5-1-3.1-1.3-5.1c-0.3-2.1-0.5-3.9-0.5-5.9
			c0-1.8,0.3-3.6,0.5-5.4c0.3-1.8,0.8-3.3,1.5-4.6s1.5-2.3,2.6-3.3c1-0.8,2.3-1.3,4.1-1.3c0.5,0,1.3,0,1.8,0.3
			c0.8,0.3,1.3,0.3,2.1,0.5c2.1,0.8,3.9,2.1,5.4,3.6c1.5,1.5,2.8,3.6,3.9,5.9c1,2.3,1.8,4.6,2.3,7.2c0.5,2.6,0.8,5.1,0.8,8
			c0,1.8-0.3,3.6-0.5,5.6c-0.3,1.8-0.8,3.6-1.3,5.1s-1.3,3.3-2.1,4.6c-0.8,1.5-1.8,2.6-3.1,3.6c-1.3,1.3-3.1,2.3-4.9,3.3
			c-1.8,1-3.9,1.8-6.2,2.3c-2.3,0.5-4.6,1-7.2,1.3s-5.1,0.5-8,0.5c-1.8,0-3.6,0-5.4-0.3C455.2,104.6,453.4,104.6,451.6,104.4z"/>
		<path class="st0" d="M532,55.8h1.3c2.3,1.3,4.1,2.8,5.9,4.4c1.5,1.5,3.1,3.3,4.1,5.4c1,1.8,1.8,3.9,2.3,6.2
			c0.5,2.1,0.8,4.4,0.8,6.4c0,2.8-0.5,5.9-1.3,8.7c-1,2.8-2.3,5.4-4.1,7.7c-1.8,2.3-3.9,4.4-6.4,6.2s-5.4,3.1-8.7,3.6
			c-1,0.3-2.1,0.3-3.1,0.5c-1,0-2.1,0.3-3.3,0.3c-3.1,0-6.4-0.3-9.8-0.8c-3.3-0.5-6.9-1-10.3-1.5c2.8-1.3,6.2-2.3,9.8-3.3
			c3.6-1,6.9-2.1,10.5-3.1c3.6-1,6.7-2.3,10-3.3c3.1-1.3,5.6-2.8,7.7-4.4c1.5-1.3,2.8-2.6,3.3-3.9c0.8-1.3,1-2.3,1-3.3
			c0-1.5-0.5-3.1-1.5-4.6c-1-1.5-2.1-3.1-3.3-4.6s-2.3-3.3-3.3-5.4s-1.5-4.1-1.5-6.4c0-0.5,0-1.3,0-1.8
			C531.7,57.4,531.7,56.6,532,55.8z"/>
		<path class="st0" d="M554.8,93.1c-0.5-0.5-0.8-1-1-2.1c-0.3-0.8-0.3-1.8-0.3-2.8c0-1.3,0-2.3,0.3-3.6c0.3-1.3,0.5-2.3,1-3.1
			c1.5-1.5,3.6-2.6,5.6-3.1c2.1-0.5,4.6-1.3,6.9-1.8s4.9-1,7.2-1.5c2.3-0.5,4.4-1.3,6.4-2.6c-1.8-1.5-3.6-2.8-5.9-4.1
			c-2.1-1.3-4.4-2.3-6.7-3.3c-2.3-1-4.4-2.1-6.7-3.3c-2.3-1.3-4.1-2.3-5.9-3.9c0-0.5,0.3-1,0.3-1.3c0-0.5,0-0.8,0-1.3l-0.3-4.4
			c0-0.5,0-0.8,0-1.3s0-0.8,0.3-1.3c0.3,0,0.5-0.3,0.5-0.3c0-0.3,0.3-0.3,0.5-0.3c2.6,0,5.1,0.3,7.7,1c2.6,0.8,5.1,1.5,7.7,2.8
			s4.9,2.6,6.9,4.4c2.3,1.8,4.1,3.6,5.6,5.6c1.5,2.1,2.8,4.4,3.9,6.7c1,2.3,1.5,4.9,1.5,7.4c0,2.8-0.5,5.6-1.8,8.2
			c-2.6,1-5.1,2.1-8.2,2.8c-2.8,0.8-5.9,1.3-8.7,1.8c-3.1,0.5-5.9,1.3-8.7,1.8C560.2,91.3,557.4,92,554.8,93.1z"/>
	</g>
</g>
<g>
	<g>
		<path class="st0" d="M215.6,380.4l0.5-1.6c8.4-13.7,17.9-21.1,29-20.6c1.6,0,3.7,1.1,6.9,2.6c3.2,1.6,5.3,2.1,7.4,2.1
			c1.1,0,1.6,0,2.6-0.5c2.6-0.5,5.8-2.1,9.5-5.3c3.7-4.2,6.9-6.3,8.4-7.4c1.1-0.5,2.6,0,4.7,1.1s3.2,1.6,4.2,1.6
			c1.1,0,2.1-0.5,3.2-1.6c1.1-1.6,3.2-3.7,5.8-6.9c0.5,0,1.1,0,1.6,0.5c-0.5,4.2-3.7,8.4-9,13.2c-2.6,2.1-5.3,2.6-7.9,2.1
			c-0.5,0-1.6-0.5-2.6-1.1c-1.1-0.5-2.1-1.1-3.2-1.1c-0.5,0.5-3.2,3.2-9.5,9c-3.7,3.7-7.4,6.3-10.6,7.4c-2.1,1.6-4.7,2.1-7.4,2.1
			c-4.2,0-8.4-1.1-12.1-3.7c-1.1-0.5-2.6-0.5-3.7-0.5c-4.7,0-10,3.2-15.8,9.5C216.1,381.5,215.6,380.9,215.6,380.4z M246.2,394.1
			l5.8-6.3l1.1,0.5c3.2,2.6,6.9,5.8,10.6,8.4v1.1c-1.6,2.6-4.7,5.8-9,10c-1.6,0.5-3.7-0.5-6.3-2.6c-1.6-1.1-3.2-2.6-5.8-5.3
			C243,398.3,244.1,396.2,246.2,394.1z M265.7,323.9l9.5-10.6h1.1c3.7,3.7,7.4,6.9,10,8.4c0,0.5,0,0.5,0.5,0.5
			c1.6-2.1,4.2-4.7,7.4-8.4h1.1c2.1,2.1,5.3,4.7,10,8.4c0.5,0.5,0.5,1.1,0,2.1l-8.4,9c-0.5,0.5-1.1,0.5-1.6,0.5
			c-0.5,0-1.1,0-2.1-0.5c-1.6-1.1-2.1-1.1-2.1-1.1c-3.7-2.6-5.8-4.7-6.9-6.9c-1.6,2.1-4.2,4.2-7.9,7.9c-1.6-0.5-3.7-1.1-5.3-2.6
			c-1.6-1.6-3.2-2.6-4.7-4.2C266.2,326,265.7,325,265.7,323.9z"/>
		<path class="st0" d="M381.8,315.5l1.6,0.5c2.6,1.1,5.3,2.6,7.9,3.7c3.2,1.6,4.7,4.2,4.7,6.9s-1.1,5.8-3.7,8.4
			c-2.1,2.6-4.7,4.2-7.4,5.3c-6.3,1.1-9.5,1.1-10,1.1c-3.7,1.1-6.3,2.1-8.4,4.7c-4.7,4.2-9.5,10-14.2,18.5
			c-6.3,10.6-11.1,16.9-12.7,19.5c-5.8,7.4-14.8,13.7-26.4,19c-1.1,0.5-2.6,0.5-3.2,0.5c-0.5-0.5-0.5-0.5-0.5-1.1
			c2.6-1.6,5.8-4.2,10.6-7.4c12.1-9,19.5-17.4,23.2-25.3c4.2-10,7.4-16.4,9.5-19.5c4.2-6.9,9-12.7,14.8-16.4l6.9-4.2
			c1.1-2.1,2.6-4.7,3.7-7.4C378.6,318.6,380.2,317.1,381.8,315.5z"/>
		<path class="st0" d="M526.4,297.5c0,3.2-1.1,6.3-3.2,9s-4.2,4.7-7.4,5.8c-0.5,0-1.6,0-2.6,0s-2.1,0-2.1,0
			c-3.2,5.3-6.9,7.9-11.6,7.9c0.5,15.3-2.6,30.1-9,43.3c-4.2,8.4-9,15.3-15.3,21.1c-7.4,6.3-15.3,9.5-23.7,9
			c-3.7,0-7.4-1.6-10.6-4.2c-3.2-2.6-5.8-5.8-7.4-9c-2.1-4.7-3.2-10.6-3.2-16.4c0-7.9,2.6-19,7.4-32.7c0.5-0.5,0.5-1.1,1.6-2.1
			c1.1,0,1.1,0,1.1,0.5c0,1.6-0.5,3.2-1.1,5.8c-1.1,3.2-1.6,4.7-1.6,5.3c-1.1,6.3-1.6,11.6-1.6,14.8c0,8.4,2.6,14.2,8.4,17.9
			c3.2,2.1,7.4,3.2,11.6,3.2c6.9,0,13.7-2.1,20.1-6.9c12.7-9,18.5-21.1,18.5-36.4c0-1.6,0-3.2,0-4.7c0-1.6-0.5-3.7-0.5-5.8
			c-0.5-2.6-0.5-4.2-0.5-5.8c0-1.1,0-2.1,0.5-3.2c0-1.1,0.5-2.1,0.5-3.2s0.5-2.1,1.6-2.6c0.5,0,1.1,0.5,1.1,1.1
			c0,1.1,0.5,1.6,0.5,1.6c1.1,0.5,2.1,0.5,2.6,0.5c2.6,0,4.7-1.1,6.9-3.2c0,0,1.1-2.1,3.2-5.8c0-0.5,0.5-0.5,1.1-0.5
			c0.5,1.6,1.1,2.6,2.1,3.2c1.1,0.5,2.6,0,4.7-1.1c1.1-1.6,3.2-3.7,5.8-7.9c0.5,0,0.5,0,1.1,0C525.9,297,526.4,297.5,526.4,297.5z"
			/>
		<path class="st0" d="M554.9,334.5c0.5,2.1,0.5,3.7,0.5,5.8c0,3.7-1.1,7.9-3.2,12.7c0,0.5-2.1,4.2-5.8,12.1
			c-0.5,1.1-1.6,2.1-3.2,3.7c-4.2,1.6-11.1,3.2-20.1,5.3c-0.5,0.5-1.1,0-1.6-1.1c0-0.5,1.6-1.6,4.7-3.7c2.1-1.6,5.3-3.2,10-5.8
			c4.2-2.1,7.4-4.2,10-6.3c1.6-1.6,1.6-4.2,1.1-7.4c-1.1-4.2-4.2-7.4-9.5-10c-0.5-0.5-0.5-1.1,0-1.6c0.5-0.5,0.5-1.1,1.1-1.6
			c1.1-3.7,2.1-7.9,4.2-12.7c2.6,0,4.7,1.6,6.9,3.7C552.3,329.2,553.9,331.8,554.9,334.5z"/>
	</g>
</g>
<g>
	<g>
		<path class="st1" d="M25.7,242.7c-3.9,2.5-5.8,6.3-5.8,11.5c0,2,0.5,3.9,1.3,5.7c0.9,2.2,2.4,3.9,4.3,5.1c0.2,0.1,0.4,0.4,0.4,0.5
			c0,0.2-0.2,0.4-0.8,0.1c-2.2-0.8-4.1-2.4-5.6-4.5c-1.4-2.1-2.1-4.5-2.1-6.9c0-2.7,0.8-5.1,2.4-7.4c1.5-2.2,3.5-3.8,5.8-4.6
			c0.4-0.1,0.5,0,0.5,0.2C26,242.3,26,242.6,25.7,242.7z"/>
		<path class="st1" d="M54.5,248c-0.9,1.1-1.5,1.7-1.9,2c-0.8,0.7-1.7,1.1-2.5,1.1c-0.2,0-0.5,0-0.7-0.1c-0.7-0.4-1.1-0.7-1.3-1.2
			H48c-0.4,0.7-0.9,1.3-1.5,1.9c-0.7,0.6-1.5,0.8-2.4,0.7h-0.5c0.1,4-1.1,7.7-3.3,11.2c-2,3.1-4.5,4.7-7.4,4.7c-0.2,0-0.6,0-0.8-0.1
			c-0.8-0.1-1.5-0.5-2.2-1.1c-0.7-0.6-1.2-1.3-1.4-2c-0.4-0.9-0.5-2-0.5-3.2c0-1.8,0.6-4.3,1.7-7.3c0.1-0.2,0.1-0.4,0.2-0.6
			c0.1-0.2,0.2-0.2,0.5-0.2c0.1,0.1,0.1,0.2,0,0.5c-0.7,2.6-1.2,4.6-1.1,5.9c0,1.8,0.7,3,1.9,3.5c0.7,0.5,1.7,0.6,2.6,0.6
			c1.4,0,2.8-0.4,4.1-1.2c2.5-1.5,4-3.7,4.5-6.5c0.2-1.4,0.2-3.1,0.1-4.6c0-1.1,0.1-1.8,0.2-2.4c0.1-0.1,0.2-0.2,0.2-0.2
			c0.2,0,0.4,0.1,0.4,0.5c0,0.2,0.2,0.5,0.4,0.5c0.2,0.1,0.6,0.1,0.8,0.1c0.8,0,1.5-0.2,2.4-0.8c0.6-0.6,0.9-1.3,0.9-2
			c0.4-1.5,0.7-2.8,1.3-3.7c0,0,0.1,0,0.1-0.1c0.1,0,0.1,0,0.1,0c0,0.1,0,0.6,0,1.2c0,0.5,0.1,0.8,0.2,1.2c0.4,0.9,1.1,1.4,2.4,1.5
			c1.1-0.1,2-0.6,2.6-1.5c0.1-0.2,0.2-0.4,0.4-0.4c0.1,0,0.2,0,0.2,0.1s0,0.2-0.1,0.5c0,0.1,0,0.2,0.1,0.4c0.1,0,0.2,0.1,0.4,0.1
			c0.5,0,0.8-0.2,1.2-0.6c0.1-0.1,0.4-0.5,0.5-0.7c0.1-0.4,0.2-0.6,0.4-0.6c0.1,0,0.2,0,0.2,0.1s0,0.2-0.1,0.5c0,0.1,0,0.2,0.1,0.2
			c0.1,0,0.2,0.1,0.4,0.1c0.5,0,0.8-0.1,1.1-0.5c0.2-0.2,0.5-0.6,0.6-1.2c0.1-0.1,0.2-0.2,0.4-0.1c0.1,0.1,0.2,0.4,0.5,0.6
			c0.6,0,0.9-0.1,1.2-0.4c0.9-0.6,1.3-1.8,1.2-3.3c-0.1-2.6-0.2-4.1-0.2-4.6c0.1-0.5,0.2-1.1,0.5-1.7c0.2-0.6,0.4-1.1,0.6-1.7
			c0.1-0.2,0.2-0.5,0.4-0.5c0.1,0,0.1,0.1,0.1,0.2c0,0.2,0,0.6,0,1.1c0,0.5,0,0.8,0,1.1l0.1,4c0,1.7-0.1,3-0.4,3.8
			c-0.4,1.2-1.2,2.2-2.2,3.1c-0.5,0.4-0.9,0.6-1.5,0.6c-0.1,0-0.4,0-0.5-0.1c0,0-0.1,0-0.1-0.1c-0.1,0-0.1,0-0.1,0
			c-0.2,0.4-0.5,0.6-0.9,0.8c-0.5,0.2-0.8,0.4-1.2,0.4c-0.1,0-0.2-0.1-0.5-0.2c-0.2,0.4-0.5,0.6-0.9,0.9c-0.5,0.2-0.8,0.4-1.2,0.4
			C54.9,248.3,54.8,248.1,54.5,248z M34,255.6v-0.1c1.1-1.1,1.8-1.9,2.2-2.4l0.2,0.1c0.8,0.8,1.5,1.5,2.1,2c0,0.1,0,0.2-0.1,0.4
			c-0.1,0.1-0.2,0.2-0.4,0.4l-1.5,1.5c-0.1,0.1-0.2,0.1-0.4,0.1c-0.1,0-0.2,0-0.5-0.1c-0.1-0.1-0.2-0.2-0.5-0.4
			C35.1,256.8,34.6,256.3,34,255.6z M50.3,238.6c-0.5,0.7-1.2,1.4-2,2.4c-0.1,0.1-0.2,0.1-0.4,0.1c-0.1,0-0.4-0.1-0.7-0.4
			c-0.5-0.4-0.9-0.9-1.7-1.7c0.4-0.6,1.1-1.4,2.2-2.6C48.2,236.9,49,237.6,50.3,238.6z"/>
		<path class="st1" d="M69.9,247.7c-0.1,0.4-0.1,0.9-0.2,1.7c-0.1,0.9-0.1,2.2-0.1,3.9c0,1.9,0,3.2-0.1,4c-0.1,1.7-0.5,3.3-1.3,5.1
			c-0.1,0.4-0.2,0.5-0.4,0.5c-0.1,0-0.1,0-0.2-0.1c-0.1-0.1-0.2-0.2-0.1-0.6c0.1-0.6,0.2-2,0.4-4.3c-0.1-1.8-0.2-3.8-0.1-6
			c0.4-1.2,0.9-2.5,1.8-4.1C69.6,247.4,69.8,247.4,69.9,247.7z"/>
		<path class="st1" d="M77.9,258.3c-0.1,1.1-0.7,2.4-1.7,4c-0.2,0.5-0.7,0.7-1.3,0.9c-0.5,0.1-1.1,0.2-1.7,0.4
			c-0.4,0.1-0.9,0.4-1.8,0.6c-0.2,0-0.4-0.1-0.4-0.2c0-0.1,0.1-0.4,0.4-0.5c0.8-0.5,1.7-0.9,2.5-1.4c0.9-0.6,1.7-1.2,2.4-1.8
			c0.2-0.2,0.2-0.6,0.2-1.1c-0.1-0.4-0.2-0.5-0.5-0.6c-0.2,0-0.4,0.1-0.6,0.1c-0.7,0-1.3-0.2-1.7-0.8c-0.1-0.2-0.2-0.5-0.2-0.8
			s0.1-0.7,0.2-1.1c0.1-0.4,0.4-0.7,0.5-1.1c0.1-0.4,0.2-0.7,0.4-1.2c0.2-0.5,0.5-0.7,0.9-0.9c0.7-0.1,1.3,0.1,1.7,0.8
			c0.5,0.8,0.7,1.7,0.7,2.7C78.1,257.1,78,257.7,77.9,258.3z"/>
		<path class="st1" d="M86,267.5c0.2-0.2,0.4-0.4,0.4-0.4s0.2,0.1,0.5,0.4c0.8,0.8,1.5,1.3,2.1,1.7c0,0,0.1-0.1,0.4-0.4
			c0.8-0.9,1.3-1.4,1.4-1.5c0,0,0.1,0.1,0.4,0.2c0.7,0.6,1.4,1.2,2,1.7c0,0,0,0.1,0,0.2c0,0.1-0.2,0.4-0.6,0.8l-0.2,0.2
			c-0.7,0.8-1.1,1.3-1.2,1.3c0,0-0.1,0-0.2,0c-0.4,0-0.8-0.2-1.4-0.8c-0.5-0.4-0.7-0.7-0.8-0.9c-0.1-0.1-0.1-0.1-0.1-0.2
			c0,0-0.4,0.2-0.8,0.8c-0.5,0.6-0.8,0.8-0.8,0.9c-0.2,0-0.5,0-0.7-0.1c-0.5-0.2-0.9-0.6-1.4-1.1c-0.4-0.4-0.6-0.6-0.6-0.7
			C84.4,269.7,85,268.9,86,267.5z"/>
		<path class="st1" d="M100.3,244.6c0.2-0.2,0.5-0.2,0.8,0c0.5,0.4,0.9,0.7,1.5,1.2c0.2,0.1,0.4,0.2,0.4,0.4s-0.4,0.5-0.8,1.1
			l-0.9,1.1c-0.4,0-0.6,0-0.8-0.2c-0.2-0.1-0.6-0.5-1.1-1.1c-0.2-0.2-0.5-0.5-0.5-0.5c0-0.1,0.2-0.4,0.8-0.9
			C100.1,244.9,100.3,244.7,100.3,244.6z"/>
		<path class="st1" d="M88.9,252.9c0.1-0.1,0.2,0,0.4,0c0.1,0.1,0.1,0.1,0.1,0.4s-0.1,0.8-0.4,1.7c-0.1,0.6-0.2,1.2-0.2,1.7
			c0,1.9,0.9,2.7,2.8,2.5c0.6-0.1,1.2-0.4,1.7-0.7c0.1-0.1,0.4-0.4,0.8-0.8c0.6-0.7,0.9-1.2,1.2-1.3c0.2-0.1,0.5-0.2,0.6-0.2
			c0.5,0.1,1.1,0.2,1.7,0.4c0.2-0.1,0.5-0.4,0.7-0.7c0.2-0.2,0.5-0.6,0.8-1.1c0.2-0.2,0.4-0.4,0.5-0.4c0.1,0.1,0.2,0.2,0.2,0.5
			c-0.4,0.8-0.8,1.7-1.7,2.5c-0.4,0.4-0.7,0.6-0.8,0.7c-0.4,0.1-0.7,0.1-1.2-0.1c-0.4-0.1-0.7-0.1-0.8-0.1c-0.2,0.1-0.5,0.5-0.7,0.9
			c-0.8,1.5-1.5,2.6-2.1,3.1c-1.1,0.9-2.2,1.2-3.5,0.7c-0.5-0.2-0.8-0.6-1.1-1.2c-0.2-0.6-0.4-1.2-0.5-1.8c0,0-0.2,0.4-0.5,1.1
			l-0.6,1.3c-0.4,0.7-0.8,1.1-1.3,1.3c-0.9,0.2-2.7,0.6-5.2,1.2c-0.1,0-0.2,0-0.2-0.1c-0.1-0.1,0.1-0.4,0.5-0.6
			c0.1-0.1,0.2-0.1,0.4-0.2c0.9-0.6,1.9-1.1,2.6-1.5c1.5-1.1,2.6-2,3.2-2.8c0.5-0.7,0.9-1.7,1.3-2.8C88.3,253.9,88.7,253,88.9,252.9
			z"/>
		<path class="st1" d="M123.1,248.8v-5.3c0-0.1,0-0.4,0-0.5c0-0.6,0.1-1.2,0.5-2c0.6-1.2,0.8-1.9,0.9-2c0-0.1,0.1-0.1,0.2-0.1
			c0.1,0,0.1,0.1,0.2,0.2c-0.1,0.9-0.2,2.2-0.4,3.8c-0.1,2.4-0.1,3.7-0.1,3.8c-0.1,1.1-0.1,1.9-0.2,2.4c-0.1,0.9-0.4,1.7-0.7,2.2
			c-0.1,0.1-0.6,0.8-1.4,2.1l0.1,0.4c0.5,0.7,1.1,1.4,1.8,2.2c0,0.2-0.1,0.6-0.5,1.1c-0.2,0.4-0.6,0.7-0.9,0.9
			c-0.4,0.4-0.7,0.5-1.2,0.5c-0.2-0.1-0.6-0.2-1.1-0.6c-0.5-0.2-0.8-0.4-1.1-0.4c-0.2,0-0.5,0.1-0.7,0.2c-0.4,0.4-0.7,0.7-1.1,0.9
			c-0.5,0.4-0.8,0.5-1.3,0.5c-0.4,0-0.7-0.1-1.2-0.2c-0.8,0.9-1.5,1.4-2.1,1.4c-0.1,0-0.4-0.1-0.7-0.2c-0.4,0.2-0.6,0.5-0.9,0.6
			c-0.4,0.2-0.7,0.4-0.9,0.4c-0.2,0-0.5,0-0.6-0.1c-0.1-0.1-0.2-0.1-0.2-0.1c-0.9,2.2-2,3.5-3.2,3.7c-1.1,0.1-2-0.2-2.6-1.2
			c-0.5-0.8-0.7-1.9-0.8-3.1c0-0.5-0.1-1.5-0.1-3.2v-4.7c0,0.2,0-0.4-0.1-2c0-0.8,0-1.4,0.2-2c0.1-0.5,0.5-1.3,0.7-2.4
			c0.1-0.1,0.2-0.2,0.4-0.1l0.1,0.1c-0.1,3.4-0.2,5.7-0.2,6.6c0,1.9,0.1,3.5,0.2,5.1c0.1,0.8,0.2,1.4,0.4,1.8
			c0.2,0.6,0.6,1.1,1.2,1.3c0.2,0,0.4,0,0.6,0c1.3,0,2.5-0.6,3.3-1.7c0.1-0.2,0.4-0.4,0.5-0.2c0.4,0.6,0.7,0.9,0.9,0.9
			c0.8,0,1.7-0.6,2.4-1.8c0.1-0.1,0.2-0.1,0.2-0.1c0.1,0.1,0.1,0.1,0.1,0.2c0,0,0,0.1,0,0.2c0,0.1,0,0.1,0,0.2
			c0,0.1,0.1,0.2,0.2,0.2c0.5,0.1,0.8-0.1,1.3-0.6c0,0,0.2-0.5,0.8-1.2c0.1,0,0.2,0,0.4-0.1c0.1,0.1,0.1,0.4,0,0.6
			c0.4,0.2,0.7,0.4,1.2,0.1c0.2-0.1,0.6-0.4,0.9-0.8c0.5-0.5,0.7-0.7,0.8-0.8c0.5-0.4,0.8-0.6,1.2-0.8c0.2-0.6,0.7-1.4,1.2-2.2
			c0.5-0.7,0.9-1.4,1.4-2.1C122.9,250.3,123.1,249.7,123.1,248.8z"/>
		<path class="st1" d="M129.9,247.7c-0.1,0.4-0.1,0.9-0.2,1.7c-0.1,0.9-0.1,2.2-0.1,3.9c0,1.9,0,3.2-0.1,4c-0.1,1.7-0.5,3.3-1.3,5.1
			c-0.1,0.4-0.2,0.5-0.4,0.5c-0.1,0-0.1,0-0.2-0.1c-0.1-0.1-0.2-0.2-0.1-0.6c0.1-0.6,0.2-2,0.4-4.3c-0.1-1.8-0.2-3.8-0.1-6
			c0.4-1.2,0.9-2.5,1.8-4.1C129.5,247.4,129.6,247.4,129.9,247.7z"/>
		<path class="st1" d="M158.7,239.9c0.1,0.1,0.2,0.2,0.2,0.4c0-0.1-0.1,0.1-0.2,0.8c-0.6,1.4-1.4,2.5-2.2,3.1
			c-0.9,0.5-2.2,1.4-4,2.7c-0.2,0.1-0.2,0.4-0.1,0.5c0.1,0.1,0.5,0.4,1.2,0.6c0.5,0.2,0.7,0.5,0.7,0.9c-0.5,1.2-0.9,2-1.5,2.5
			c-0.1,0-0.1,0-0.2,0c-0.2,0-0.6-0.1-0.8-0.4c-0.5-0.2-0.7-0.5-0.8-0.5c-0.2-0.1-0.6-0.2-0.8-0.2c-0.5,0-1.1,0.2-1.9,0.7
			c-0.8,0.5-1.5,0.7-2.1,0.6c-0.9,0-1.7-0.5-2.1-1.4c-2.4,2.5-3.5,5.3-3.5,8.2c0,0.5,0,1.1,0.1,1.5c0.4,2,1.2,3.2,2.6,3.8
			c0.7,0.2,1.5,0.4,2.2,0.4c2.1,0,4-0.8,5.7-2.6c1.4-1.4,2.5-3.3,3-5.7c0-0.2,0.1-0.6,0.4-0.9c0.1,0,0.2,0,0.4,0.2
			c0,0.9-0.2,2.1-0.7,3.8c-0.6,2.1-1.5,4-2.7,5.4c-1.4,1.9-3.1,3-5.1,3.3c-0.6,0.1-1.1,0.1-1.5,0.1c-1.9,0-3.2-0.7-4.1-2
			c-0.9-1.4-1.5-3.2-1.5-5.3c0-2.5,0.6-5.1,1.9-7.8c0.7-1.4,1.5-2.7,2.4-4c-0.1-0.8-0.5-1.3-1.4-1.7c-0.1-0.1-0.6-0.1-1.2-0.2
			c-0.5,0-0.8-0.1-0.9-0.2c0-0.2,0.1-0.5,0.4-0.7c0.2-0.1,0.4-0.4,0.6-0.5c1.3-0.7,2.5-1.1,3.7-1.1c0.8,0,1.5,0.2,2.1,0.6
			c0.4,0.4,0.6,0.7,0.6,1.1c-0.1,0.5-0.4,1.1-0.8,1.7c-0.5,0.5-0.9,0.8-1.3,1.3c0.6,0.4,1.3,0.6,2.1,0.6c0.5,0,0.9-0.1,1.3-0.2
			c0.2-0.1,0.6-0.4,1.1-0.7s0.7-0.6,0.9-0.6c0.6-1.3,1.5-2.4,3-3.5c1.3-0.8,2.6-1.7,3.8-2.6c0.2-0.2,0.5-0.5,0.5-0.6
			c-0.6-0.2-1.4-0.4-2.6-0.5c-2.1-0.1-3.4,0.5-4,1.5c0,0.1-0.1,0.2-0.4,0.1c-0.1-0.1-0.1-0.2-0.1-0.4c0-0.1,0.1-0.2,0.2-0.5
			c0.1-0.2,0.2-0.5,0.2-0.5c0.9-1.4,2-2.1,3.1-2.1C156,239.4,157.7,239.5,158.7,239.9z M155.2,252.5l2.2-2.4h0.2
			c0.5,0.5,1.2,1.2,2.2,2l0.1,0.1c0,0.1,0,0.1-0.1,0.2c-0.5,0.5-1.2,1.2-2.1,2.1c-0.2,0-0.5-0.1-0.9-0.4
			C156.4,253.9,155.9,253.3,155.2,252.5L155.2,252.5z"/>
		<path class="st1" d="M173.1,254.8v0.4l-0.5,0.2c-0.5,0.2-0.9,0.6-1.5,1.1c-0.6,0.5-0.9,1.1-1.2,1.5c-0.1,0.2,0,0.5,0.1,0.6
			c0.7,0,1.3,0.2,1.5,0.7c0.2,0.5,0.2,1.1-0.1,1.5c-0.4,0.6-0.9,0.8-1.8,0.6c-0.9-0.2-1.3-0.9-1.3-2.2c0-1.1,0.5-2.1,1.3-3.1
			c0.7-0.7,1.5-1.2,2.5-1.5c0.1,0,0.4-0.1,0.5-0.1C173,254.5,173.1,254.5,173.1,254.8z"/>
		<path class="st1" d="M186,241.6c0.8,1.1,1.3,2.4,1.3,4c0,0.8-0.1,1.7-0.4,2.5c-0.2,0.8-0.7,1.9-1.3,3.4c-0.2,0.6-0.1,1.1,0.2,1.4
			c0.1,0.1,0.6,0.2,1.4,0.5c0.6,0.2,0.9,0.5,1.2,0.8c0.2,0.5,0.4,1.1,0.4,1.9c0,0.1-0.1,0.9-0.2,2.5c-1.1,4.3-3.1,7.2-6.1,8.7
			c-0.7,0.4-1.5,0.6-2.4,0.6c-0.9,0-1.8-0.2-2.5-0.7c-1.7-1.2-2.5-3.2-2.5-6c0-1.5,0.2-3.2,0.7-5.1c0.2-0.9,0.8-2.6,1.5-4.8
			c0.1-0.1,0.2-0.2,0.4-0.1c0,0.1,0,0.2,0.1,0.5c-1.1,3.4-1.4,6-1.4,7.9c0.4,2.2,1.2,3.7,2.4,4.3c0.6,0.2,1.2,0.4,1.9,0.4
			c1.4,0,3-0.6,4.5-1.7c1.4-1.3,2.2-2.5,2.6-3.5c0.1-0.7,0.1-1.2-0.1-1.4s-0.7-0.4-1.4-0.6c-0.6-0.1-1.1-0.5-1.3-0.8
			c-0.2-0.2-0.4-0.7-0.5-1.2c0-0.5-0.1-0.8-0.1-1.3c0-0.7,0.2-1.8,0.7-3.2c0.5-1.3,0.7-2.4,0.7-3.1s-0.1-1.3-0.5-1.9
			c-0.2-0.4-0.6-0.9-1.3-1.5c0-0.1,0.2-0.6,0.6-1.5c0.1-0.2,0.2-0.5,0.4-0.8c0.1-0.4,0.2-0.7,0.4-0.8
			C185.3,241,185.5,241.3,186,241.6z M183.3,239.3h-0.2c-0.5-0.4-1.2-0.9-2.1-1.7c0-0.1,0-0.4,0.2-0.8l1.9-1.9l0.4,0.1
			c0.5,0.4,1.2,0.9,2,1.9l0.1,0.1C185.1,237.5,184.2,238.3,183.3,239.3z"/>
		<path class="st1" d="M193.8,247.7c-0.1,0.4-0.1,0.9-0.2,1.7c-0.1,0.9-0.1,2.2-0.1,3.9c0,1.9,0,3.2-0.1,4c-0.1,1.7-0.5,3.3-1.3,5.1
			c-0.1,0.4-0.2,0.5-0.4,0.5c-0.1,0-0.1,0-0.2-0.1c-0.1-0.1-0.2-0.2-0.1-0.6c0.1-0.6,0.2-2,0.4-4.3c-0.1-1.8-0.2-3.8-0.1-6
			c0.4-1.2,0.9-2.5,1.8-4.1C193.6,247.4,193.7,247.4,193.8,247.7z"/>
		<path class="st1" d="M214.7,237.9c-0.1,0.7-0.1,1.5-0.1,2.4c0,0.6,0,1.8,0.1,3.5c0.1,1.5,0.1,2.7,0.1,3.5c0,0.2-0.2,1.1-0.5,2.4
			c0,0,0,0.1,0.1,0.1c1.4-1.8,2.7-2.6,4.1-2.6c0.7,0.1,1.2,0.5,1.5,0.9c0.1,0.2,0.2,0.6,0.2,0.9s-0.2,1.1-0.6,2
			c-0.9,1.5-1.7,2.7-2.1,3.3c-0.9,1.2-2,2-3.1,2.5c-0.7,0.2-1.8,0.4-3.2,0.1c-1.5-0.1-2.6-0.1-3.3,0.2c-1.3,0.7-2.6,2-3.9,3.9
			c-1.4,2.1-2.6,3.7-3.5,4.3c-1.7,1.2-3.4,2-5,2.5c-0.4,0.1-0.6,0.1-0.7,0c0,0-0.1-0.1-0.1-0.2c0.4-0.4,1.1-0.7,1.9-1.1
			c3.4-2.1,5.7-4.3,7-6.4c1.1-1.8,1.9-3.1,2.5-3.8c1.2-1.4,2.4-2.4,3.5-2.8c0.5-0.2,1.2-0.2,2.1-0.1c0.5-0.8,0.8-1.3,1.1-1.7
			c0.4-0.6,0.5-1.2,0.6-1.8c0-0.4,0.1-0.8,0.1-1.3c0-0.7-0.1-2-0.2-3.7c-0.1-1.7-0.1-2.8-0.1-3.7c0.2-0.8,0.7-2.1,1.2-3.8
			c0.1-0.1,0.1-0.2,0.4-0.2C214.7,237.6,214.7,237.7,214.7,237.9z M208.6,263.4v-0.1c0.5-0.6,1.1-1.4,2-2.5c0.2,0.2,0.6,0.5,1.2,0.9
			c0.1,0.1,0.6,0.5,1.4,1.1l-0.1,0.4l-1.8,2.1c-0.1,0.1-0.2,0.1-0.4,0.1c-0.1,0-0.4-0.1-0.8-0.4
			C209.7,264.6,209.2,264.1,208.6,263.4z M218.3,249.6c-0.4-0.2-0.7-0.2-0.9-0.2c-1.2,0.2-2.4,1.3-3.8,3.4c-0.1,0.2-0.4,0.5-0.6,0.9
			c0,0,0.7-0.1,2-0.2c2.5-0.7,3.7-1.7,3.7-3C218.5,250.1,218.4,249.8,218.3,249.6z"/>
		<path class="st1" d="M223,242.7c-0.2-0.1-0.2-0.2-0.2-0.4c0-0.2,0.1-0.2,0.5-0.2c2.4,0.8,4.3,2.4,5.8,4.6s2.4,4.7,2.4,7.4
			c0,2.5-0.7,4.7-2.1,6.9c-1.4,2.1-3.3,3.7-5.6,4.5c-0.5,0.2-0.8,0.1-0.8-0.1c0-0.1,0.1-0.2,0.4-0.5c1.9-1.2,3.3-2.8,4.3-5.1
			c0.8-1.9,1.3-3.8,1.3-5.7C228.8,248.8,226.9,245.1,223,242.7z"/>
	</g>
</g>
<g>
	<g>
		<path class="st1" d="M48.9,205.5l-11.3,0.4c-2.6,0.2-4.9,0.2-6.4,0.2c-4.6,0-8.4-0.4-11.3-1.5c-1.8-0.9-2.6-1.8-2.6-2.9
			c0.2-2,1.8-4.4,4.4-7.3c0.9-1.1,2.2-2.2,3.8-3.1c1.5-0.7,2.9-1.5,4.2-2.2c1.1-0.4,1.8-1.3,2.6-2.6c0.4-1.1,1.1-2.2,1.5-3.3
			c0.2-0.2,0.7-0.4,0.9-0.4c0.2,0.2,0.2,0.4,0.2,0.7c0,0.4,0,0.7,0,0.7c1.1,0.7,2.2,1.1,3.5,1.1c1.1,0,2.2-0.2,3.1-0.9
			c1.8-1.5,2.6-4.2,2.6-7.7c0-0.4,0-1.5-0.2-2.9c0-1.1,0-2.2,0-2.9c-0.2-2.2,0-5.5,0-10.1c0.4-1.1,1.3-3.1,2.2-5.5
			c0-0.2,0.2-0.4,0.4-0.9c0.2,0,0.4,0.2,0.4,0.4c0,0.9-0.2,2-0.4,3.5v14.8c0,5.3-1.3,9.7-4,13.2c-1.5,2-3.5,2.9-6.2,2.6
			c-0.4-0.2-1.1-0.2-1.5-0.4c-0.7-0.2-1.1-0.7-1.5-1.1h-0.2c-1.1,2.4-2.4,4-3.8,4.4c-1.5,0.7-2.9,1.3-4.4,2c-1.8,0.9-2.9,2-3.8,3.3
			c0,0.2,0.2,0.7,0.9,1.1c2.2,0.9,6,1.3,11.5,1.5l26.9,0.2c0.7,0,2,0,4.2-0.2c1.8-0.2,3.1-0.2,4.2,0c0.2,0,0,0.2-0.2,0.4
			c-3.1,2.6-7.5,4.2-12.8,4.6L48.9,205.5z M24.6,180.8v-0.4c0.4-0.9,1.3-2.2,2.4-4c0.2,0,0.7,0,0.9,0c1.3,0,2.6-0.7,3.8-1.8
			c0.7-1.1,1.5-2.4,2.2-3.5c0.9-1.3,2-2,3.1-2.2c1.1-0.4,2-0.2,2.4,0.4l-0.2,0.4c-0.4,0.9-1.3,2.2-2.4,4c-0.9-0.4-2-0.4-3.1,0.4
			c-1.1,1.5-2.2,2.9-3.5,4.2c-1.3,1.8-2.9,2.6-4.4,2.9C25.5,181.2,25.1,181,24.6,180.8z"/>
		<path class="st1" d="M111.3,166.9l8.6-3.8c1.1-0.7,2.2-1.1,3.5-1.8c1.3-0.7,2.4-1.5,3.3-2.2c0.2,0,0.4,0,0.4,0.2
			c0.2,0.2-0.2,0.9-0.7,1.5c-1.8,2.2-4.2,4-6.8,5.3c-2.9,1.3-7.3,3.3-13,6c-1.5,0.9-2.4,1.8-2.6,3.1c-0.2,0.9-0.2,2.6-0.4,5.1
			c-0.2,2.2-0.2,4-0.7,5.1c-0.9,3.3-2.6,5.7-5.5,6.8c-1.3,0.7-2.6,1.1-4,1.8c-1.5,0.9-2.6,1.8-3.1,3.1c0,0.2,0.2,0.7,0.9,1.1
			c1.5,0.4,3.3,0.9,6,0.9c4,0.2,6,0.4,6.2,0.4h11.5l10.6-0.4l7.3-0.4c0.2,0,0.4,0,0.4,0.2l-0.2,0.4c-3.3,2.6-7.3,4.2-11.9,4.9
			l-9.3,0.9l-10.6,0.7c-1.5,0.2-2.9,0.2-4.2,0.2c-3.8,0-7.1-0.7-9.3-1.8c-1.3-0.7-1.8-1.3-1.8-2.4c0-0.9,0.4-1.8,0.9-2.9
			c0.4-0.9,1.1-1.8,1.8-2.6c0.9-1.5,2.4-2.9,4.2-4.2c0.9-0.7,2.6-1.5,5.3-3.1c2.2-1.1,3.3-2.6,3.3-4.6c0-1.5,0-3.1,0-4.9
			c0-1.8,0.4-3.3,0.9-4.4c1.1-2.9,2.6-4.9,4.4-6C107.6,168.9,109.1,168,111.3,166.9z"/>
		<path class="st1" d="M205.5,177.3c0.4,0.9,0.4,1.5-0.2,2.2c-0.2,0.2-0.4,0.4-0.7,0.4c-0.2,0-0.7-0.2-1.1-0.4
			c-0.4-0.2-0.9-0.4-1.3-0.4c-1.1,0-2.2,0.9-3.3,2.6c-0.4,0.7-0.7,1.1-0.4,1.5c0.4,0.7,1.5,1.3,3.1,2c0.2,0,0.7,0.2,0.9,0.2
			c0.9,0,2-0.4,3.1-1.3c1.3-1.3,2.4-2,2.6-2.2c0.4-0.4,0.9-0.4,1.1-0.4c0.2,0.2,0.4,0.4,0.2,0.9c-0.7,0.9-1.8,2.4-3.5,4.4
			c-3.5,2.4-7.1,6-11,10.4c-1.5,1.3-2.9,2.2-4,2.2c-0.9,0-2-0.4-4-1.3c-0.4,0.4-0.9,1.1-1.8,2.2c-2,1.8-4.4,3.1-7.5,4
			c-1.8,0.4-4.4,1.1-8.4,1.5c-2.9,0.4-5.5,0.7-8.4,0.7c-3.1,0-6-0.2-8.6-0.9c-2-0.7-3.1-1.5-3.5-2.4c-0.4-1.1-0.4-2.4-0.4-3.8
			c0-1.1,0.2-3.3,0.7-6.2c0.2-0.4,0.4-0.7,0.7-0.7c0.4,0,0.7,0.2,0.7,0.4c0,0.9,0,1.8,0,2.9c0,1.1,0.4,2,1.3,2.2
			c1.8,0.9,4.2,1.3,6.8,1.5c1.5,0.2,4,0.2,7.5,0.2c7.3,0,13.2-0.9,17.6-2.6c2.4-0.9,4-2.4,4.9-4.4c0.4-0.4,0.7-0.4,1.1-0.4
			c0.2,0.2,0.2,0.7,0,1.1c-0.4,1.1-0.7,2.2-1.1,2.9c0.7,0.2,1.1,0.2,1.8,0.2c2.2,0,4.2-1.1,6-3.1c0.4-0.4,0.9-1.1,1.5-1.8
			c-1.5-0.9-2.2-1.3-2.4-1.3c-0.9-0.7-1.5-1.3-2-2.2c0-0.7,0-1.3,0.4-2c1.3-2,2.9-4,4.2-6c2-2.4,3.8-3.8,5.7-3.8
			C204.2,176.2,204.9,176.4,205.5,177.3z M173.5,191.4c-1.3-0.7-2.9-1.8-4.6-3.3l-2.9,3.3c-2.4-0.7-4-1.8-5.1-3.8
			c2.2-2.9,3.5-4.4,3.8-4.6c0.7,0.7,1.5,1.3,2.2,2c0.9,0.7,1.5,1.1,2.4,1.5l3.5-3.5c2.2,1.8,3.8,3.1,4.9,4
			C175.7,189,174.4,190.5,173.5,191.4z"/>
		<path class="st1" d="M251,190.5l1.3-2.4c0.2-0.2,0.4-0.2,0.7-0.2c0.2,0.2,0.2,0.4,0.2,0.7c0,0.2-0.2,0.4-0.2,0.7
			c-1.5,4.2-3.5,6.4-5.7,6.6c-0.4,0-1.3-0.2-2.4-0.7c-1.5,2.2-3.1,3.1-4.4,2.9c-0.7-0.2-1.5-0.7-2.9-0.9c-0.4,0-1.1,0.2-1.5,0.9
			c-3.1,3.3-6,4.9-8.6,4.9c-0.9,0-1.8-0.2-2.6-0.4c-0.2,0-0.4,0.2-0.7,0.4c-0.2,0.2-0.4,0.4-0.7,0.7c-2,1.5-3.8,2.4-5.7,2.6
			c-1.5-0.2-2.4-0.9-3.1-2c-1.1-2-1.5-4.4-1.5-7.3c0-0.7,0-1.8,0.2-3.1c0-1.5,0.2-2.4,0.2-3.1c0-1.1,0.2-3.5,0.2-6.8
			c0.2-2.9,0.2-5.1,0.2-7.1c0-0.9,0.4-1.8,1.1-3.1c0.7-1.5,1.1-2.4,1.3-2.9c0.2-0.2,0.4-0.2,0.4-0.2c0.2,0,0.4,0,0.4,0.2
			c-0.2,2-0.4,4.9-0.7,8.6c0,0.7-0.2,2.6-0.4,5.7c-0.2,2.2-0.2,4.2,0,5.7c0.2,2.6,0.7,4.6,1.3,5.7c0.2,0.4,0.7,0.9,1.5,1.5
			c0.7,0.2,1.3,0,2.4,0c-0.2-0.9-0.2-1.5-0.2-2.4c0-3.5,1.5-6.4,4.4-8.4c1.1-0.7,2-0.9,2.9-0.4c1.3,0.4,2.2,1.3,2.6,2.4
			c0,0.4,0.2,0.9,0.2,1.3c0,1.8-1.1,4.4-3.3,7.9c0.2,0.2,0.4,0.2,0.9,0.2c0.4,0,0.7,0,0.9,0c2.4-0.2,5.1-2,8.2-5.1
			c0.4-0.4,0.7-0.7,1.1-0.7s0.9,0.2,1.5,0.7c0.7,0.4,1.3,0.7,1.5,0.7c0.2,0,0.7-0.2,0.9-0.4c0.7-0.4,1.3-1.1,2-2
			c0.9-1.1,1.3-1.8,1.8-2c0.4-0.2,0.9,0,0.9,0.4c0,0.2,0,0.4-0.2,0.7s-0.2,0.4-0.2,0.4c0,0.2,0,0.2,0.2,0.4c0.2,0,0.4,0,0.7,0
			C249.4,192.5,250.3,191.8,251,190.5z M231.5,178.4l-0.2,0.7c-0.9,0.9-2,2.4-3.8,4.2c-0.4,0-0.9,0-1.3-0.2
			c-0.4-0.2-0.9-0.4-1.1-0.7c-0.7-0.4-1.5-1.3-2.6-2.4c0-0.2,0-0.2,0-0.4c0-0.2,0.2-0.2,0.2-0.4c0.9-1.1,2-2.4,3.8-4.4h0.4
			C228.5,176.2,230,177.3,231.5,178.4z M227.1,191.2c-1.5-0.2-2.6,0.4-3.5,2c-0.2,0.4-0.2,0.9-0.2,1.3c0,0.9,0.2,1.8,0.7,2.6
			c0.4,0.4,0.7,0.9,0.9,0.9c1.3-0.4,2.4-1.3,3.3-2.2c0.4-0.7,0.7-1.5,0.7-2.2c0-0.4,0-0.9-0.2-1.3
			C228.5,191.8,227.8,191.4,227.1,191.2z M244.3,182.3L244.3,182.3c-0.9,0.7-1.8,1.8-3.3,3.1c-0.4,0.2-1.1,0-1.5-0.4
			s-0.9-0.7-1.3-1.1c-1.3-1.1-2-2-2.2-2.6c1.5-1.8,3.1-3.3,4.2-4.4h0.4c0.9,0.9,2.4,2.2,4.4,3.8h0.2l3.1-3.1l0.2-0.2
			c0.2,0,0.2,0,0.2,0.2c1.3,1.3,2.9,2.6,4.2,4c0,0.4-0.4,1.1-0.9,1.5c-0.9,0.9-1.3,1.3-1.3,1.3s-0.4,0.4-1.1,1.1
			c-0.4,0.4-0.9,0.7-1.3,0.7c-0.2,0-0.4,0-0.7-0.2C246.8,185,245.4,183.9,244.3,182.3z M241.3,172.9l0.2-0.4
			c1.3-1.5,2.6-2.9,3.5-3.8h0.4c0.9,0.9,2.2,2,4,3.5v0.4c-0.7,0.9-2,2.2-3.8,4c-0.4,0.2-0.9,0-1.3-0.4c-0.4-0.4-0.9-0.9-1.5-1.1
			c-0.4-0.4-0.9-0.7-1.1-0.9C241.5,173.5,241.3,173.3,241.3,172.9z"/>
		<path class="st1" d="M307.9,152.1c0,0.4-0.2,0.9-0.4,1.3c-0.2,0.4-0.4,0.9-0.9,1.1c-0.9,1.3-2.2,2.6-4,4c-1.5,0.9-3.1,2-4.6,2.9
			c-1.3,0.7-2.6,1.3-4,2c-1.5,0.9-2.6,1.8-3.5,2.6c-0.4,1.3-0.7,3.1-0.4,5.1c0.2,1.5,0.2,2.6,0.2,3.5c0,2.4-0.4,4.6-1.3,6.2
			c-0.4,1.3-0.9,2.2-0.9,2.4c0,0.4,0.2,0.9,0.7,1.3s1.1,0.7,2,0.9c0.9,0.2,1.5,0.4,2,0.7c1.3,1.1,2,2.6,2,5.1c0,0,0,1.1-0.2,3.8
			c-0.7,4-2,7.3-3.8,10.4c-2,3.5-4.9,6-7.9,7.5c-1.1,0.4-2.4,0.7-3.8,0.7c-1.8,0-3.3-0.4-4.6-1.3c-3.5-2.6-5.1-7.5-4.6-14.3
			c0.2-2.2,0.4-4.9,1.3-7.7c0.7-2.4,1.3-5.1,2-7.5c0.2-0.2,0.4-0.2,0.7-0.2c0.2,0.4,0,1.3-0.2,2.9c-1.1,4.9-1.5,8.2-1.5,10.4
			c0,3.1,0.7,6,2.2,8.2c1.5,1.5,3.3,2.4,5.7,2.4c2.6,0,5.3-1.1,7.7-3.1c2.4-2,4.2-4.2,5.1-6.8c0.2-1.5,0.2-2.6-0.4-3.1
			c-1.1-0.4-2.2-0.7-3.5-0.9c-1.3-0.4-2.2-1.1-2.6-2.2c-0.2-0.9-0.4-1.8-0.4-2.9c0-2.6,0.7-5.3,2-8.2v-4.4c0-0.7,0-1.3,0-1.8
			c0-3.1,0.7-5.7,2-8.2c1.1-1.8,2.9-3.5,5.3-4.9c2.2-1.1,4.4-2.4,6.4-3.5c1.1-0.7,2-1.3,3.1-2c1.3-0.9,2.2-1.5,2.9-2.4
			C307.7,151.7,307.9,151.7,307.9,152.1z"/>
		<path class="st1" d="M314.3,226.7l-0.2-0.4c0-2.6,0-6.6-0.2-11.9c0-0.9,0-2.2,0-4.2s0-3.3,0-4.4c0-7.9,1.8-13.7,5.5-17
			c1.8-1.8,3.8-3.1,6-4.2c0.7-1.1,1.8-2.6,3.1-4.9c0.4-0.4,1.8-2,4.2-4.2c1.8-1.8,2.9-3.3,3.3-4.6l0.2-17.6c0.2-0.7,0.7-2,1.8-4.2
			c0-0.2,0.2-0.2,0.4-0.2c0.2,0,0.2,0.2,0.4,0.2c-0.4,7.7-0.4,13.9,0,18.3c0.2,2.6,1.3,4.2,2.9,4.6c0.4,0.2,0.9,0.2,1.3,0.2
			c1.8,0,3.3-0.9,4.9-2.4c0.2-0.2,0.7-0.9,1.8-2.4c0.7-1.1,1.5-1.5,2.4-1.5c0.2,0,0.4,0,1.1,0.2c0.4,0.2,0.9,0.2,1.1,0.2
			s0.4,0,0.7-0.2c0.4-0.4,0.9-1.1,1.3-1.8c0.2-0.7,0.7-1.5,0.9-2.2c0.2-0.4,0.4-0.4,0.9-0.4c0,0.2,0,0.4,0,0.7
			c0,0.2,0.2,0.4,0.4,0.4c0.7,0.2,1.3,0,1.8-0.4c0.4-0.4,1.1-1.8,1.8-4c0.2-0.2,0.4-0.4,0.7-0.4c0.2,0.2,0.2,0.7,0.2,1.8
			c-0.4,1.8-0.9,2.9-1.1,3.5c-0.7,1.3-1.5,2.2-2.6,2.6c-0.4,0.2-1.3,0.2-2.2-0.2c-0.4,0.9-1.1,1.5-1.5,2.4c-0.7,0.9-1.5,1.3-2.4,1.1
			c-0.2,0-0.7,0-1.1-0.2c-0.4-0.2-0.9-0.2-1.1-0.2c-0.4,0-0.9,0.2-1.1,0.7c-1.5,3.3-2.4,5.3-2.9,5.7c-1.3,2.2-3.1,3.3-5.1,3.5
			c-2,0-3.5-0.9-4.4-2.9c-0.4-0.7-0.7-1.5-0.9-2.9h-0.2c-0.4,0.9-1.1,2-2.2,3.1c-1.5,1.5-2.4,2.4-2.6,2.6c1.3,0.4,2.4,1.1,3.3,2.2
			c0.4,0.4,0.4,1.1,0.4,1.8c0,0.9-0.2,1.5-0.7,2.2c-2,2.2-3.5,3.3-4.9,3.5c-6.6,0.9-10.8,3.3-12.8,7.7c-0.4,0.9-0.7,3.1-0.7,6.2
			c0,4,0,10.1,0,18.1c0,2-0.4,3.8-1.1,5.1C314.7,226.7,314.5,226.7,314.3,226.7z"/>
		<path class="st1" d="M376.5,194.9c-0.2,2-1.3,4.4-3.1,7.5c-0.4,0.9-1.3,1.3-2.4,1.8c-0.9,0.2-2,0.4-3.1,0.7
			c-0.7,0.2-1.8,0.7-3.3,1.1c-0.4,0-0.7-0.2-0.7-0.4c0-0.2,0.2-0.7,0.7-0.9c1.5-0.9,3.1-1.8,4.6-2.6c1.8-1.1,3.1-2.2,4.4-3.3
			c0.4-0.4,0.4-1.1,0.4-2c-0.2-0.7-0.4-0.9-0.9-1.1c-0.4,0-0.7,0.2-1.1,0.2c-1.3,0-2.4-0.4-3.1-1.5c-0.2-0.4-0.4-0.9-0.4-1.5
			s0.2-1.3,0.4-2c0.2-0.7,0.7-1.3,0.9-2c0.2-0.7,0.4-1.3,0.7-2.2c0.4-0.9,0.9-1.3,1.8-1.8c1.3-0.2,2.4,0.2,3.1,1.5
			c0.9,1.5,1.3,3.1,1.3,5.1C376.9,192.7,376.7,193.8,376.5,194.9z"/>
		<path class="st1" d="M403.4,198.9c0,0,0.4,0.2,1.1,0.9l0.9,0.9v3.1l-2,2h-0.7c-0.9,0-1.5-0.2-2.4-0.7l-0.9-0.2h-0.7
			c-0.7,0-1.3,0.2-2,0.4c-1.3,0.7-2.6,1.8-3.8,3.8l-0.2,0.4c-0.4,0-0.7,0-0.9,0c-0.2-0.2-0.2-0.7,0.2-1.1c1.8-4.2,4.2-7.1,7.3-8.6
			c1.3-0.7,2.4-0.9,3.3-0.9C403,199.1,403.4,199.1,403.4,198.9z"/>
		<path class="st1" d="M399.4,214.1c0.4-0.4,0.7-0.7,0.7-0.7s0.4,0.2,0.9,0.7c1.5,1.5,2.9,2.4,4,3.1c0,0,0.2-0.2,0.7-0.7
			c1.5-1.8,2.4-2.6,2.6-2.9c0,0,0.2,0.2,0.7,0.4c1.3,1.1,2.6,2.2,3.8,3.1c0,0,0,0.2,0,0.4c0,0.2-0.4,0.7-1.1,1.5l-0.4,0.4
			c-1.3,1.5-2,2.4-2.2,2.4c0,0-0.2,0-0.4,0c-0.7,0-1.5-0.4-2.6-1.5c-0.9-0.7-1.3-1.3-1.5-1.8c-0.2-0.2-0.2-0.2-0.2-0.4
			c0,0-0.7,0.4-1.5,1.5c-0.9,1.1-1.5,1.5-1.5,1.8c-0.4,0-0.9,0-1.3-0.2c-0.9-0.4-1.8-1.1-2.6-2c-0.7-0.7-1.1-1.1-1.1-1.3
			C396.1,218.1,397.2,216.8,399.4,214.1z"/>
		<path class="st1" d="M413.5,194.7c0.9-0.7,1.8-0.9,2.9-0.2c0.7,0.2,1.3,0.4,1.8,0.9l0.4,0.4v1.1l-0.4,0.4
			c-0.2,0.4-0.4,0.4-0.4,0.7s-0.2,0.2-0.7,0.2c-0.7,0-1.3-0.2-2.2-0.4c-0.7-0.2-1.1-0.4-1.3-0.4c-0.7,0-1.1,0.4-1.8,1.3l-0.9,1.3
			c-1.8,2.6-3.5,4.4-5.3,5.3c-0.7,0.4-1.3,0.7-2.2,0.7v-7.1c0.2,0,0.9,0.2,1.3,0.2c2.4,0.2,4.4-0.4,6-2
			C412.2,195.8,413.1,194.9,413.5,194.7z"/>
		<path class="st1" d="M420.4,170.9c0.4-1.5,0.9-2.9,1.5-4c0.2,0,0.4,0,0.4,0.2c-0.7,6.8-0.7,13.7-0.2,20.5c0.2,2.9,1.1,4.4,3.1,5.3
			c0.4,0.2,0.9,0.7,1.3,1.1l0.9,0.9v3.1l-2,2c-2.9-0.4-4.6-2.2-5.1-5.3l-0.2-0.9l0,0L418,198l-0.2,0.2v-1.5v-1.5l1.5-4l0.4-2v-5.7
			c0-6.2,0.2-9.7,0.2-10.6v-1.1L420.4,170.9z"/>
		<path class="st1" d="M433.6,181.2c1.1-0.4,2.2-0.4,3.1,0c0.4,0.4,0.7,0.9,0.7,1.8c0,0.4-0.2,0.9-0.4,0.9c-0.2,0.2-0.9,0-1.5-0.2
			c-0.7-0.4-1.5-0.4-2.2,0c-1.5,0.9-2.6,2.2-3.3,4.2c-0.4,1.8,0.2,3.1,1.5,3.8c0.9,0.4,2,0.4,2.9,0c0.9-0.4,1.5-1.1,2.4-2.2l0.7-0.9
			c0.2-0.4,0.7-0.7,0.9-0.7c0.2,0.4,0.2,0.9,0,1.5c-0.4,1.5-1.1,3.1-2,4.6c-2.2,3.8-4.9,5.7-7.9,6.2c-1.1,0-2,0-2.6,0v-7.1
			c0.2,0,0.4,0,0.4-0.4c0.9-2.6,1.8-4.9,2.6-6.6C430.1,183.9,431.6,182.1,433.6,181.2z"/>
		<path class="st1" d="M471.3,199.1c0.4-0.4,0.9-1.1,1.3-1.5c0.4-0.9,0.7-2,0.7-3.5c0-1.5,0-3.1,0-4.6c0-0.7,0-2.4-0.2-4.9
			c0-1.8,0-3.3,0.2-4.6c0.7-2.6,1.3-4.6,2-5.7c0.2-0.2,0.4-0.4,0.4-0.4c0.2,0.2,0.2,0.9,0.2,1.8c-0.2,4.2-0.2,9.3,0.2,15.4
			c0.2,2.2,0.9,3.8,2.4,4.4c0.9,0.4,1.8,0.7,2.2,0.4c1.5-0.7,2.6-2,2.9-4.2c0-1.8,0-3.8,0-5.5v-9c0.2-1.1,0.4-2.2,1.1-3.5
			c0.9-2.2,1.5-3.3,1.5-3.3c0.4-0.4,0.7-0.4,0.7,0s0,1.1-0.2,2c-0.2,1.1-0.2,1.8-0.2,2.2c0,4.4-0.2,7.9-0.2,10.1c0,0.9,0,2,0,2.9
			c-0.7,5.3-2.2,9.7-4.4,13.5c-1.1,1.5-2.2,2.2-3.5,2.2c-2.2,0-3.5-1.5-4.2-4.2l-0.7,0.9c-2,2-3.3,3.5-4.2,4.2
			c-1.8,1.3-3.5,2.2-5.1,2.2c-0.9,0-1.5-0.2-2.4-0.4c-1.3-0.9-2.6-1.3-4-1.3c-0.9,0-1.5,0.2-2.2,0.4c-0.7,0.2-1.3,0.9-2,1.5
			c-0.7,0.7-1.5,1.3-2.2,2c-0.2,0.2-0.4,0-0.7-0.2l0.2-0.4c3.1-5.3,6.6-8.2,11-8.8c0.9-0.2,2.2,0,3.5,0.7c1.3,0.7,2.4,0.9,3.3,0.9
			c0.4,0,0.9,0,1.3-0.2C470.5,200,470.9,199.8,471.3,199.1z M474.9,167.3c0,1.1-0.2,2-0.4,2.2c-0.7,0.4-1.3,0.7-1.8,0.4
			c-0.7-0.2-0.9-0.7-0.9-1.3c0.4-1.5,0.7-2.6,0.9-3.3c0-0.2-0.2-0.4-0.4-0.4c-0.4,0.2-0.7,0.4-0.9,0.9c-0.7,1.3-1.1,2.6-1.1,4
			c0,0.4,0,0.7,0.2,1.1c0.4,1.1,1.1,1.8,2,1.8c1.1,0,2.2-0.4,3.1-1.8h0.2c0.4,0.7,0.9,1.1,1.5,1.3c0.9,0.2,1.8,0,2.4-0.4
			c0.9-0.9,1.3-2.2,1.3-4c0-1.1-0.2-2.2-0.7-3.3c0,0,0-0.2-0.2-0.2c0-0.2-0.2-0.2-0.4-0.2c-0.2,0-0.2,0.2-0.4,0.4
			c-0.4,0.4-0.4,1.3-0.2,2.4c0.2,1.1,0.2,1.8-0.2,2.4c-0.9,0.4-1.5,0.7-2.2,0.4c-0.4-0.2-0.9-0.9-0.9-1.5s0-1.3,0-2l-0.2-0.2
			C475.3,166,474.9,166.5,474.9,167.3z M477.7,150.1c-0.2,0-0.2,0-0.4,0.2c-0.4,1.5-0.9,2.6-1.3,3.3c0,0.2,0,1.8,0,4.4
			c0,2,0,3.3-0.2,4.6c0,0.2,0.2,0.2,0.7,0.2c0.9-1.5,1.3-3.5,1.5-6c0-2.2,0-4.2,0-6.4C478,150.4,477.7,150.1,477.7,150.1z"/>
		<path class="st1" d="M495.8,175.1c-0.2,0.7-0.2,1.8-0.4,3.1c-0.2,1.8-0.2,4.2-0.2,7.3c0,3.5,0,6-0.2,7.5c-0.2,3.1-0.9,6.2-2.4,9.5
			c-0.2,0.7-0.4,0.9-0.7,0.9s-0.2,0-0.4-0.2c-0.2-0.2-0.4-0.4-0.2-1.1c0.2-1.1,0.4-3.8,0.7-7.9c-0.2-3.3-0.4-7.1-0.2-11.3
			c0.7-2.2,1.8-4.6,3.3-7.7C495.4,174.6,495.6,174.6,495.8,175.1z"/>
		<path class="st1" d="M534,179.5c-0.4,0.7-0.9,1.8-1.5,3.1c-0.2,0.2-0.2,0.7-0.2,0.9c0,0.7,0.2,1.1,0.4,1.8
			c0.2,0.2,1.1,0.7,2.6,1.1c1.1,0.4,1.8,0.9,2.2,1.8c0.4,0.9,0.7,2,0.7,3.3c0,0.4-0.2,2-0.7,5.1c-0.9,3.5-2.2,6.6-4.2,9.3
			c-2.2,3.1-4.9,5.3-7.9,6.8c-1.1,0.7-2.4,0.9-4,0.9c-2.4,0-4.2-0.7-5.5-2c-2.4-2.4-3.8-5.7-3.8-10.4c0-2.9,0.4-5.7,1.3-9.3
			s2-6.6,3.3-9.9c0-0.2,0.2-0.2,0.7-0.2c0.2,0,0.2,0.4,0.2,1.1c-2,6.2-2.9,10.8-2.9,13.5c0,2.9,0.7,5.3,2,7.3
			c1.1,1.8,3.1,2.6,5.7,2.6c2.4,0,4.9-0.7,7.1-2c2.2-1.3,4-3.1,5.3-5.3c0.9-1.5,1.3-2.6,1.3-3.5c0-0.4-0.2-0.9-0.4-1.3
			c-0.2-0.2-1.3-0.7-3.3-1.3c-1.3-0.4-2.2-1.1-2.4-2.2c-0.2-0.9-0.4-1.8-0.4-2.6c0-1.8,0.4-4.2,1.5-7.1c0.4-0.9,1.1-2.2,1.5-4v-4.4
			v-18.8c0.4-1.3,1.1-3.3,1.8-6c0.2-0.2,0.4-0.4,0.7-0.2c0.2,0,0.4,0.2,0.4,0.4c-0.4,10.1-0.7,15-0.7,14.6c0,4.4,0.2,7.7,0.7,9.9
			c0.4,1.8,1.3,2.9,3.1,3.1c1.5,0,3.1-0.2,4.4-1.1s2.4-2,3.1-3.5c0.2-0.2,0.2-0.2,0.4-0.2c0.2,0,0.4,0.2,0.9,0.4
			c0.4,0.2,0.7,0.4,0.7,0.7c0.4,0.2,1.3,0.4,2.2,0.7c0.9-0.4,2.4-2.2,4.9-5.1c1.8-2.2,3.8-3.5,5.5-3.8s3.1,0.4,3.8,1.8
			c0.2,0.4,0.2,0.9,0.2,1.3c0,1.1-0.4,2.4-1.3,4.2c-1.3,2.4-3.1,4.4-5.1,6c-2.4,1.8-4.9,2.6-7.5,2.4c-2.4,0-4.4-0.7-6-2
			c-2,3.5-4,5.3-6,5.5c-1.8,0.2-3.3-0.7-4.2-2.2C534.4,180.6,534.2,180.1,534,179.5z M562.5,168c-0.4-0.9-1.1-1.3-2-1.3
			c-1.3,0-2.9,0.9-4.2,2.2c-1.1,1.3-2.2,2.4-3.5,3.8c0.7,0,1.1,0.2,1.8,0.2c2.9,0,5.3-0.9,7.3-2.9
			C562.5,169.3,562.7,168.7,562.5,168z"/>
		<path class="st1" d="M617.6,173.3c0,1.3-0.4,2.6-1.3,3.8c-0.9,1.1-1.8,2-3.1,2.4c-0.2,0-0.7,0-1.1,0s-0.9,0-0.9,0
			c-1.3,2.2-2.9,3.3-4.9,3.3c0.2,6.4-1.1,12.6-3.8,18.1c-1.8,3.5-3.8,6.4-6.4,8.8c-3.1,2.6-6.4,4-9.9,3.8c-1.5,0-3.1-0.7-4.4-1.8
			c-1.3-1.1-2.4-2.4-3.1-3.8c-0.9-2-1.3-4.4-1.3-6.8c0-3.3,1.1-7.9,3.1-13.7c0.2-0.2,0.2-0.4,0.7-0.9c0.4,0,0.4,0,0.4,0.2
			c0,0.7-0.2,1.3-0.4,2.4c-0.4,1.3-0.7,2-0.7,2.2c-0.4,2.6-0.7,4.9-0.7,6.2c0,3.5,1.1,6,3.5,7.5c1.3,0.9,3.1,1.3,4.9,1.3
			c2.9,0,5.7-0.9,8.4-2.9c5.3-3.8,7.7-8.8,7.7-15.2c0-0.7,0-1.3,0-2c0-0.7-0.2-1.5-0.2-2.4c-0.2-1.1-0.2-1.8-0.2-2.4
			c0-0.4,0-0.9,0.2-1.3c0-0.4,0.2-0.9,0.2-1.3s0.2-0.9,0.7-1.1c0.2,0,0.4,0.2,0.4,0.4c0,0.4,0.2,0.7,0.2,0.7
			c0.4,0.2,0.9,0.2,1.1,0.2c1.1,0,2-0.4,2.9-1.3c0,0,0.4-0.9,1.3-2.4c0-0.2,0.2-0.2,0.4-0.2c0.2,0.7,0.4,1.1,0.9,1.3
			c0.4,0.2,1.1,0,2-0.4c0.4-0.7,1.3-1.5,2.4-3.3c0.2,0,0.2,0,0.4,0C617.6,173.1,617.6,173.3,617.6,173.3z"/>
		<path class="st1" d="M637.2,186.1l0.2,0.4c-0.4,2-0.7,3.5-0.7,4.6c0,1.1,0.2,2,0.4,2.9c0.9,1.5,2.2,2.2,3.8,2.2
			c1.8,0,3.5-0.7,5.3-2.2c1.8-1.5,2.9-3.1,3.1-4.9c0-1.1-0.2-2-0.7-2.2c-0.4,0-0.7,0.2-1.1,0.2c-1.1,0-2.2-0.4-3.1-1.3
			c-0.7-0.7-0.7-1.5-0.4-2.6c0.4-0.7,0.9-1.8,1.3-3.1c0.4-1.3,1.1-2.4,1.3-3.1c0.7-0.7,1.5-0.9,2.4-0.7c0.9,0.2,1.3,0.7,1.8,1.5
			c0.9,1.3,1.3,3.1,1.3,4.9c0,1.8-0.4,4.4-1.5,7.9c-2.4,6-5.5,9.9-9.3,11.7c-0.7,0.4-1.5,0.4-2.2,0.4c-0.9,0-1.8-0.2-2.6-0.7
			c-1.5-1.1-2.4-3.5-2.4-7.1h-0.2c-0.4,1.5-1.5,3.8-2.9,6.8c-0.4,0.7-0.9,1.1-1.8,1.3c-0.9,0.2-1.5,0.4-2.2,0.7l-7.7,1.5
			c-0.2,0-0.2,0-0.2-0.2c-0.2-0.2,0.2-0.7,0.7-1.1c1.8-1.1,3.5-2.2,5.3-3.1c2-1.3,3.8-2.6,4.9-4c1.1-1.3,2.2-3.1,3.1-5.1
			c0.7-1.8,1.3-3.8,2-5.5c0,0,0.2-0.4,0.4-0.9c0.2-0.4,0.4-0.4,0.7-0.7C636.8,185.4,637,185.7,637.2,186.1z M643,162l0.4,0.2
			c1.1,0.7,2.6,1.8,4.6,2.9c0.2,0.2,0.2,0.2,0.2,0.2c0.7-0.9,1.5-2.2,2.9-3.8l0.4,0.2c1.1,0.7,2.6,1.8,4.6,2.9
			c0.2,0.2,0.2,0.4,0,0.9c-0.7,1.1-1.8,2.6-3.3,4.4c-0.7,0-1.3-0.2-2-0.7c-0.7-0.4-1.3-0.9-2-1.3c-0.4-0.2-0.7-0.7-1.3-1.3h-0.2
			c-0.4,0.9-1.5,2.2-2.6,3.5c-0.4,0.2-1.1,0-2.2-0.7c-0.9-0.4-1.8-1.3-3.1-2.4l0.2-0.4C640.5,165.1,641.9,163.4,643,162z"/>
		<path class="st1" d="M663.1,175.1c-0.2,0.7-0.2,1.8-0.4,3.1c-0.2,1.8-0.2,4.2-0.2,7.3c0,3.5,0,6-0.2,7.5c-0.2,3.1-0.9,6.2-2.4,9.5
			c-0.2,0.7-0.4,0.9-0.7,0.9c-0.2,0-0.2,0-0.4-0.2c-0.2-0.2-0.4-0.4-0.2-1.1c0.2-1.1,0.7-3.8,0.7-7.9c-0.2-3.3-0.4-7.1-0.2-11.3
			c0.7-2.2,1.8-4.6,3.3-7.7C662.6,174.6,662.8,174.6,663.1,175.1z"/>
		<path class="st1" d="M682,205.1c-0.7,0.2-1.8,0.4-3.5,0.7c-0.4,0-0.7-0.2-0.7-0.4c0-0.4,0.2-0.7,0.9-0.9c1.5-0.9,2.9-2,4.4-2.9
			c1.8-1.1,3.1-2.2,4.2-3.1c1.1-1.3,2.2-3.1,3.3-5.7c0.7-2.2,1.5-4.2,2.2-6.2c0.2-0.2,0.4-0.4,0.7-0.4c0.4,0,0.4,0.2,0.4,0.4
			c0,0.7-0.2,2.4-0.9,5.1c-1.1,4.6-2.6,8.4-4.2,11c-0.7,1.1-1.8,1.8-3.1,2C684.5,204.8,683.3,204.8,682,205.1z"/>
		<path class="st1" d="M733.6,183.9h0.4c2.2-0.2,4.6-1.5,7.5-4c1.3-1.1,3.5-3.3,6.6-6.4c-0.9-0.4-2-1.1-3.8-2c0,0-0.7-0.4-2-1.3
			c-0.9-0.4-1.5-0.9-2-0.9s-1.1,0.2-1.5,0.4l-2,2.2c-0.4,0.2-0.7,0.2-0.7,0c-0.2-0.2-0.2-0.2-0.2-0.4c0-0.2,0.2-0.7,0.4-1.1
			c0.2-0.4,0.4-0.7,0.7-0.9c1.5-2.2,3.1-3.3,4.4-3.3c1.1,0,2.2,0.2,3.3,0.9c0.9,0.7,2,1.1,2.9,1.8c1.3,0.4,3.3,1.3,5.7,2.6
			c0.2,0.2,0.2,0.4,0,0.7c-0.9,0.7-2.2,1.5-3.8,2.9c-1.3,1.1-3.3,2.9-5.7,5.3c-2.4,2.4-4.4,4.2-5.7,5.3c-1.8,1.1-4,1.3-6.8,1.1
			c-2.6,2.9-5.7,4.2-9.5,4.2c-1.1,0-2.2-0.2-3.5-0.4c-1.1-0.4-2-0.9-2.6-1.5h-0.2c-1.8,3.1-4.2,5.1-6.8,6.2c-1.1,3.5-2.4,6.4-4,8.4
			c-0.4,0.4-1.1,0.7-2,0.9c-0.9,0.2-1.5,0.4-2.4,0.4l-3.5,1.1c-0.4,0-0.7,0-0.9-0.4c0-0.2,0.2-0.4,0.7-0.9c2-1.1,4.9-2.9,8.6-5.3
			c0.4-0.2,0.7-0.9,1.1-1.5c0-1.1-0.2-1.8-0.7-2.2c-2,0.2-3.3-0.2-4-1.1c-0.4-0.4-0.7-1.1-0.7-1.8c0-0.4,0.2-1.3,0.7-2.2
			c0.4-1.1,0.9-1.8,0.9-2c0.4-1.1,0.7-2,0.7-2.2c0.4-0.9,1.1-1.3,1.8-1.5c0.2,0,0.4-0.2,0.7-0.2c0.7,0,1.5,0.4,2.2,1.3
			c0.7,1.1,1.1,2.2,1.3,3.3c1.8,0.2,3.5-0.4,5.3-2.2c1.1-1.1,2.4-2.9,3.5-4.9c0.2,0,0.2-0.2,0.4-0.2c0.2,0,0.4,0.2,0.7,0.4
			c0.2,0.2,0.4,0.4,0.7,0.4c0.7,0.4,1.3,0.4,2,0.4c0.7-0.4,2.2-2.2,4.9-5.1c1.8-2.2,3.8-3.5,5.7-3.8c1.8,0,2.9,0.4,3.5,1.5
			c0.2,0.4,0.2,0.9,0.2,1.5C735.6,179.7,735,181.5,733.6,183.9z M719.3,168.9l4-4.4h0.4c1.3,1.3,2.9,2.4,4.4,3.5c0,0.2,0,0.2,0,0.4
			c0,0.2,0,0.2,0,0.2c-0.9,1.1-2,2.4-3.8,4.2c-0.2,0-0.2,0.2-0.4,0.2c-0.2,0-0.9-0.4-2-1.1c-0.7-0.4-1.5-1.3-2.6-2.6L719.3,168.9z
			 M733,179c-0.4-0.4-1.1-0.7-1.8-0.7c-0.9,0-1.8,0.2-2.4,0.9c-0.2,0.2-2,2-5.1,5.1c0.7,0.2,1.1,0.2,1.8,0.2c1.1,0,2.4-0.2,3.8-0.7
			c1.3-0.7,2-1.1,2.2-1.1c0.9-0.4,1.3-1.1,1.8-1.8C733.6,180.4,733.4,179.7,733,179z"/>
	</g>
</g>
</svg>
