<?xml version="1.0" encoding="utf-8"?>
<!-- Generator: Adobe Illustrator 19.2.1, SVG Export Plug-In . SVG Version: 6.00 Build 0)  -->
<svg version="1.1" id="Layer_1_copy" xmlns="http://www.w3.org/2000/svg" xmlns:xlink="http://www.w3.org/1999/xlink" x="0px"
	 y="0px" viewBox="0 0 771 196" style="enable-background:new 0 0 771 196;" xml:space="preserve">
<style type="text/css">
	.st0{fill:#F7931E;}
	.st1{fill:#FFFF00;}
</style>
<g>
	<g>
		<path class="st0" d="M200.5,88.3c0,0.5,0,1,0,1.3c0,0.4-0.1,0.6-0.1,0.9c-0.1,0.3-0.3,0.5-0.4,0.8c-0.1,0.3-0.3,0.5-0.4,0.9
			c-1,0.3-2,0.6-3,1.1c-1,0.5-1.9,0.9-2.9,1.4c-1,0.5-1.9,0.9-2.9,1.3c-0.9,0.4-1.9,0.6-2.9,0.8c-0.1-0.4-0.1-0.6-0.1-0.8
			c0-0.3,0-0.4,0-0.6s0.1-0.5,0.1-0.8c0-0.3,0-0.6,0-1.1c1.1-0.3,2.1-0.8,3.1-1.3c1-0.5,2-1.1,3-1.6c1-0.5,2-1,3-1.4
			C198.2,88.6,199.3,88.3,200.5,88.3z"/>
		<path class="st0" d="M198.9,60.7h0.6c1.1,0.6,2,1.4,2.9,2.1c0.8,0.8,1.5,1.6,2,2.6c0.5,0.9,0.9,1.9,1.1,3c0.3,1,0.4,2.1,0.4,3.1
			c0,1.4-0.3,2.9-0.6,4.3c-0.5,1.4-1.1,2.6-2,3.8s-1.9,2.1-3.1,3c-1.3,0.9-2.6,1.5-4.3,1.8c-0.5,0.1-1,0.1-1.5,0.3
			c-0.5,0-1,0.1-1.6,0.1c-1.5,0-3.1-0.1-4.8-0.4c-1.6-0.3-3.4-0.5-5-0.8c1.4-0.6,3-1.1,4.8-1.6c1.8-0.5,3.4-1,5.1-1.5
			c1.8-0.5,3.3-1.1,4.9-1.6c1.5-0.6,2.8-1.4,3.8-2.1c0.8-0.6,1.4-1.3,1.6-1.9s0.5-1.1,0.5-1.6c0-0.8-0.3-1.5-0.8-2.3
			c-0.5-0.8-1-1.5-1.6-2.3c-0.6-0.8-1.1-1.6-1.6-2.6c-0.5-0.9-0.8-2-0.8-3.1c0-0.3,0-0.6,0-0.9C198.8,61.5,198.9,61.1,198.9,60.7z"
			/>
		<path class="st0" d="M228,72.9c0.8,0,1.4,0.1,1.9,0.4c0.5,0.3,0.9,0.5,1.3,0.8c0.4,0.3,0.6,0.6,0.8,1c0.1,0.4,0.3,0.8,0.3,1
			c0,0.4-0.1,0.8-0.4,1.1c-0.3,0.4-0.5,0.6-0.9,1s-0.8,0.5-1.3,0.6s-1,0.3-1.5,0.3h-1.6c-1.9,0-3.4-0.3-4.8-0.6
			c-1.3-0.4-2.4-1-3.3-1.8s-1.6-1.9-2.1-3c-0.5-1.3-1-2.6-1.3-4.4c-0.4-2-0.8-4.1-1.3-6.3c-0.4-2.1-0.8-4.4-1.1-6.8
			c-0.1-1.1-0.4-2.3-0.6-3.4c-0.3-1.1-0.5-2.4-0.8-3.5c-0.3-1.1-0.5-2.3-0.6-3.4c-0.1-1.1-0.3-2.3-0.3-3.3c0-0.9,0.1-1.8,0.3-2.5
			c0.1-0.8,0.4-1.6,0.9-2.3c0.8-0.3,1.4-0.4,2.1-0.4c0.9,0,1.8,0.1,2.5,0.5c0.8,0.4,1.4,0.9,2,1.5c0.6,0.6,1.1,1.3,1.5,2.1
			c0.4,0.8,0.8,1.6,1,2.4c-0.5,0-1-0.1-1.5-0.4c-0.4-0.3-0.9-0.5-1.3-0.8s-0.8-0.5-1.1-0.8c-0.4-0.3-0.9-0.4-1.3-0.4
			c-0.3,0-0.6,0-1,0.1c-0.1,0.4-0.3,0.9-0.4,1.4c-0.1,0.5-0.1,1-0.1,1.6c0,1.1,0.1,2.3,0.4,3.5c0.3,1.3,0.5,2.5,0.8,3.9
			c0.3,1.4,0.6,2.6,0.9,4c0.4,1.4,0.6,2.8,0.8,4c0,0.3,0.1,0.5,0.1,0.8c0,0.3,0.1,0.5,0.1,0.6c0.1,1.1,0.4,2.3,0.5,3.3
			s0.4,1.9,0.6,2.8c0.3,0.9,0.6,1.5,1,2.3c0.4,0.8,1,1.3,1.6,1.6c0.6,0.4,1.5,0.8,2.4,1c1,0.3,2.1,0.4,3.4,0.4h1.4V72.9z"/>
		<path class="st0" d="M245.9,31.9c0,0.5,0,1,0,1.3c0,0.4-0.1,0.6-0.1,0.9c-0.1,0.3-0.3,0.5-0.4,0.8c-0.1,0.3-0.3,0.5-0.4,0.9
			c-1,0.3-2,0.6-3,1.1c-1,0.5-1.9,0.9-2.9,1.4c-1,0.5-1.9,0.9-2.9,1.3c-0.9,0.4-1.9,0.6-2.9,0.8c-0.1-0.4-0.1-0.6-0.1-0.8
			c0-0.3,0-0.4,0-0.6s0.1-0.5,0.1-0.8c0-0.3,0-0.6,0-1.1c1.1-0.3,2.1-0.8,3.1-1.3c1-0.5,2-1.1,3-1.6c1-0.5,2-1,3-1.4
			C243.6,32.2,244.7,31.9,245.9,31.9z"/>
		<path class="st0" d="M241.4,42.1c-0.1,0.4-0.1,0.6-0.1,1s0,0.6,0,1c0,0.5,0,0.9,0.1,1.3c0.1,0.4,0.3,0.8,0.4,1.1
			c0.3,0.4,0.5,0.6,0.8,0.8c0.4,0.1,0.8,0.3,1.3,0.3c0.1,0,0.3,0,0.3,0c0.1,0,0.1,0,0.3,0c0.1-0.3,0.3-0.5,0.4-0.6
			c0.1-0.3,0.1-0.5,0.1-0.8l-0.4-2.8c0-0.3,0-0.5,0.1-0.8c0.1-0.3,0.3-0.5,0.4-0.8c0.6,0.5,1.1,1.1,1.5,1.9c0.4,0.8,0.5,1.6,0.5,2.5
			c0,0.5-0.1,1.1-0.3,1.6c-0.1,0.5-0.4,1-0.6,1.4c-0.3,0.4-0.6,0.8-1,1c-0.4,0.3-0.9,0.4-1.4,0.4c-0.4,0-0.8,0-1.1-0.1
			s-0.9-0.4-1.4-0.6c-1,0.8-1.9,1.1-2.9,1.1c-0.6,0-1.1-0.1-1.6-0.4c-0.5-0.3-0.9-0.5-1.3-0.9c-0.4-0.4-0.6-0.9-0.9-1.4
			c-0.3-0.5-0.4-1-0.4-1.6c0-0.5,0.1-1.1,0.4-1.6s0.6-1.1,1.1-1.6c0,0.4,0.1,0.9,0.1,1.5c0,0.5,0,1,0.1,1.5c0.1,0.5,0.3,0.9,0.5,1.3
			c0.3,0.4,0.6,0.5,1,0.5c0.5,0,0.9-0.1,1.1-0.3c0.3-0.3,0.5-0.5,0.6-0.8c0.1-0.4,0.3-0.8,0.3-1.1s0-0.9,0-1.3v-0.1c0-0.4,0-0.6,0-1
			c0-0.3,0-0.6,0.1-0.9c0.1-0.3,0.1-0.4,0.3-0.6c0.1-0.1,0.4-0.3,0.6-0.3C240.5,41.9,240.9,42,241.4,42.1z"/>
		<path class="st0" d="M254.3,72.9c0.9,0.3,1.5,0.8,2,1.3c0.5,0.5,0.6,1.1,0.6,1.8s-0.3,1.3-0.6,1.8c-0.4,0.5-1.1,1-1.9,1.3h-2
			c-0.9,0-1.9-0.1-2.8-0.4s-1.9-0.6-2.8-1.1s-1.6-1.1-2.3-1.8c-0.6-0.6-1.1-1.4-1.5-2.3c-1,0.8-2.1,1.4-3.3,2
			c-1.1,0.6-2.4,1.1-3.8,1.6c-1.3,0.5-2.6,0.9-4,1.3c-1.4,0.4-2.8,0.5-4.1,0.6h-0.5c-0.8-0.3-1.3-0.8-1.5-1.3
			c-0.4-0.6-0.5-1.1-0.5-1.8s0.1-1.3,0.5-1.9s0.9-1,1.5-1.1h0.6c1.6-0.1,3.1-0.4,4.6-0.8s3-0.9,4.4-1.4c1.4-0.5,2.8-1.1,4-1.8
			s2.4-1.3,3.4-1.9c0.1,1,0.4,1.8,0.9,2.5c0.5,0.8,1,1.4,1.8,1.9c0.8,0.5,1.5,0.9,2.4,1.1c0.9,0.3,1.9,0.4,2.8,0.4h2V72.9z
			 M242.1,56.2c1.1,0.1,2,0.4,2.8,0.8c0.8,0.4,1.4,0.9,2,1.5c0,1-0.1,1.9-0.4,2.8c-0.3,0.9-0.5,1.5-1.1,1.9H245
			c-1.9,0-3.3-0.6-4-1.8c0-0.5,0.1-1,0.1-1.5s0-0.9,0.1-1.4c0-0.4,0.1-0.9,0.3-1.3C241.6,56.8,241.8,56.6,242.1,56.2z"/>
		<path class="st0" d="M254.1,72.9c1.4-0.1,2.5-0.4,3.4-0.6s1.6-0.6,2.3-1.1c0.6-0.4,1-1,1.3-1.5c0.3-0.6,0.4-1.3,0.4-2
			c0-0.4,0-0.9,0-1.1c0-0.4-0.1-0.6-0.1-1c-0.1-0.4-0.1-0.8-0.3-1.3c-0.1-0.5-0.4-1-0.6-1.6c-0.4-1.3-0.9-2.4-1.4-3.5
			c-0.5-1.1-1-2.4-1.5-3.5c-0.5-1.1-0.9-2.4-1.1-3.5c-0.3-1.1-0.5-2.3-0.5-3.4c0-0.8,0.1-1.5,0.3-2.3c0.3-0.8,0.5-1.5,0.9-2.1
			c0.6,0.5,1.3,1,1.9,1.6c0.6,0.6,1.1,1.3,1.8,1.8c0.6,0.6,1.3,1.1,1.9,1.5c0.6,0.4,1.4,0.6,2.1,0.8c0.1,0.4,0.1,0.9,0.3,1.5
			c0,0.6,0.1,1.1,0.1,1.8c0,0.5,0,1-0.1,1.4c-0.1,0.4-0.1,0.9-0.3,1.1c-0.1,0-0.3,0-0.4,0c-0.1,0-0.3,0-0.4,0c-0.4,0-0.6,0-0.9-0.1
			c-0.3-0.1-0.5-0.3-0.6-0.4s-0.4-0.3-0.6-0.4c-0.3-0.1-0.5-0.3-0.8-0.3c0.4,1.3,0.9,2.5,1.3,3.9c0.4,1.4,0.8,2.8,1.1,4.3
			c0.1,0.6,0.3,1.3,0.4,1.8c0.1,0.5,0.1,1,0.3,1.4c0.1,0.4,0.1,0.9,0.1,1.4s0,1,0,1.6c0,1.3-0.1,2.5-0.5,3.8
			c-0.4,1.3-0.9,2.3-1.6,3.3s-1.8,1.6-3,2.1c-1.3,0.6-2.9,0.9-4.9,0.9c-0.5,0-0.9-0.1-1.3-0.3s-0.6-0.4-0.9-0.8
			c-0.3-0.3-0.4-0.6-0.6-1c-0.1-0.4-0.3-0.8-0.3-1.1s0-0.8,0.1-1.1s0.3-0.6,0.5-1c0.3-0.4,0.5-0.5,0.9-0.6
			C253.1,72.9,253.6,72.9,254.1,72.9z"/>
		<path class="st0" d="M269.3,47.5c0-0.6,0.1-1.1,0.1-1.6c0-0.4,0.1-0.8,0.1-0.9s0.1-0.4,0.1-0.4c0-0.1,0.1-0.1,0.1-0.1
			c0.1-0.1,0.3-0.3,0.3-0.3c0.1-0.1,0.3-0.1,0.3-0.1c0.1,0,0.3,0.1,0.5,0.3c0.6,0.6,1.3,1.1,2,1.8c0.8,0.6,1.5,1.3,2.1,2
			s1.3,1.5,1.8,2.4c0.5,0.9,0.8,1.9,0.8,3.1c0,0.3,0,0.5-0.1,0.9v0.1c0,0.4-0.1,0.6-0.3,0.6s-0.4,0.3-0.6,0.3
			c-0.3,0.1-0.5,0.1-0.6,0.3s-0.4,0.3-0.5,0.4c0.1,1.5,0.4,3,0.8,4.5c0.4,1.5,0.8,3,1.3,4.5c0.4,1.5,0.9,3,1.1,4.5
			c0.4,1.5,0.5,3,0.5,4.5c0,0.8,0,1.5-0.1,2.4c-0.1,0.8-0.3,1.5-0.6,2.4c-0.5-0.3-0.8-0.6-1-1c-0.3-0.4-0.4-0.8-0.5-1.1
			c-0.1-0.4-0.1-0.8-0.3-1.1c0-0.4-0.1-0.8-0.1-1.1c-0.1-1-0.4-2-0.6-3.1c-0.3-1.1-0.6-2.4-1-3.6c-0.4-1.3-0.8-2.5-1.1-3.8
			c-0.4-1.3-0.8-2.5-1.1-3.8c-0.3-1-0.5-1.9-0.9-2.9c-0.4-1-0.8-2-1-3c-0.4-1-0.6-2.1-0.9-3.1s-0.4-2.1-0.4-3.1L269.3,47.5
			L269.3,47.5z"/>
		<path class="st0" d="M306.6,41.4c0,0.5,0,1,0,1.3c0,0.4-0.1,0.6-0.1,0.9c-0.1,0.3-0.3,0.5-0.4,0.8c-0.1,0.3-0.3,0.5-0.4,0.9
			c-1,0.3-2,0.6-3,1.1c-1,0.5-1.9,0.9-2.9,1.4c-1,0.5-1.9,0.9-2.9,1.3c-0.9,0.4-1.9,0.6-2.9,0.8c-0.1-0.4-0.1-0.6-0.1-0.8
			c0-0.3,0-0.4,0-0.6c0-0.3,0.1-0.5,0.1-0.8c0-0.3,0-0.6,0-1.1c1.1-0.3,2.1-0.8,3.1-1.3c1-0.5,2-1.1,3-1.6c1-0.5,2-1,3-1.4
			C304.3,41.6,305.3,41.4,306.6,41.4z"/>
		<path class="st0" d="M319.7,74.5c-0.3,0-0.5,0-0.8,0c-0.3,0-0.5,0-0.6-0.1l-0.5,1.3c-0.4,1.1-0.8,2-1.1,3
			c-0.4,0.9-0.8,1.8-1.3,2.5c-0.5,0.8-1,1.5-1.5,2.3c-0.6,0.8-1.3,1.4-2.1,2c-1.4,1-2.9,1.8-4.8,2.3c-1.8,0.5-3.6,0.8-5.7,0.8
			c-0.4,0-0.8,0-1.1,0c-0.4,0-0.8,0-1.1-0.1c-3.5-0.4-6.3-1.5-8.3-3.4c-2-1.9-3.1-4.5-3.6-7.9c0-0.5-0.1-0.9-0.1-1.4
			c0-0.5,0-0.9,0-1.4c0-1.4,0.1-2.8,0.4-4.1c0.3-1.4,0.8-2.6,1.3-3.8c0.6-1.1,1.3-2.1,2.1-3s1.8-1.4,2.9-1.8
			c-0.3,0.9-0.6,1.8-1.1,2.5s-0.9,1.5-1.4,2.4c-0.5,0.8-0.9,1.6-1.3,2.5c-0.4,0.9-0.5,1.9-0.5,3c0,0.4,0,0.9,0.1,1.3
			c0.1,1.5,0.6,2.9,1.4,4c0.8,1.1,1.8,2.1,2.9,2.8c1.1,0.8,2.4,1.3,3.9,1.6c1.4,0.4,2.9,0.5,4.4,0.5c1.4,0,2.6-0.1,3.9-0.4
			c1.3-0.3,2.5-0.8,3.6-1.3c1.1-0.6,2.1-1.3,3-2.1c0.9-0.9,1.5-1.9,2-3c-0.1-0.9-0.4-1.9-0.6-2.8c-0.3-0.9-0.8-1.9-1-2.8
			c-0.4-0.9-0.8-1.9-1-2.8c-0.3-1-0.4-1.9-0.4-2.9c0-0.5,0-1.1,0.1-1.8s0.4-1.1,0.6-1.8c0.4,1.1,0.9,2.1,1.4,3c0.5,1,1,1.8,1.6,2.5
			s1.4,1.3,2.1,1.6c0.8,0.4,1.8,0.6,2.9,0.6c0.1,0,0.4,0,0.4,0c0.1,0,0.3,0,0.5,0h0.3c0.5,0,1,0.1,1.4,0.3s0.8,0.4,1.1,0.8
			c0.3,0.3,0.5,0.6,0.6,1c0.1,0.4,0.3,0.8,0.3,1.1c0,0.6-0.3,1.3-0.8,1.9c-0.5,0.6-1.4,1-2.6,1.3h-1.9V74.5z M306.1,63.3
			c0,1-0.1,1.9-0.1,2.9c-0.1,0.9-0.4,1.6-0.8,2.3h-1c-1,0-1.9-0.1-2.6-0.5c-0.8-0.3-1.5-0.6-2.1-1v-2c0-0.8,0-1.5,0.1-2.1
			s0.4-1.3,0.8-1.6c1.4,0,2.5,0.3,3.4,0.6c0.9,0.4,1.8,0.9,2.5,1.5l0,0H306.1z"/>
		<path class="st0" d="M338.2,79.4c0,0.5,0,1,0,1.3c0,0.4-0.1,0.6-0.1,0.9c-0.1,0.3-0.3,0.5-0.4,0.8c-0.1,0.3-0.3,0.5-0.4,0.9
			c-1,0.3-2,0.6-3,1.1c-1,0.5-1.9,0.9-2.9,1.4s-1.9,0.9-2.9,1.3c-0.9,0.4-1.9,0.6-2.9,0.8c-0.1-0.4-0.1-0.6-0.1-0.8
			c0-0.3,0-0.4,0-0.6s0.1-0.5,0.1-0.8c0-0.3,0-0.6,0-1.1c1.1-0.3,2.1-0.8,3.1-1.3c1-0.5,2-1.1,3-1.6c1-0.5,2-1,3-1.4
			C335.9,79.7,336.9,79.4,338.2,79.4z"/>
		<path class="st0" d="M321.5,74.5c-0.5,0-0.9-0.1-1.3-0.3c-0.4-0.3-0.6-0.4-0.8-0.8c-0.3-0.3-0.4-0.6-0.4-1
			c-0.1-0.4-0.1-0.8-0.1-1.1s0-0.8,0.1-1.1c0.1-0.4,0.3-0.6,0.5-1c0.3-0.4,0.5-0.5,0.8-0.6s0.6-0.3,1.1-0.3c1.3,0,2.5-0.3,3.6-0.5
			c1.1-0.3,2.4-0.6,3.4-1.1c1.1-0.4,2.1-0.9,3-1.4c0.9-0.5,1.8-1.1,2.5-1.6c0.5-0.4,1-0.9,1.4-1.4c0.5-0.5,0.9-1,1.4-1.5
			c0.5-0.5,1-0.9,1.6-1.3c0.6-0.4,1.3-0.5,2-0.5c0.6,0,1.1,0.1,1.8,0.5c0.5,0.4,1,0.8,1.4,1.3c0.4,0.5,0.8,1.1,1,1.9
			c0.3,0.8,0.5,1.5,0.6,2.3c0.1,0.8,0.3,1.5,0.4,2.4c0.1,0.8,0.1,1.6,0.1,2.4c0,0.6,0,1.3-0.1,1.8c-0.1,0.6-0.3,1.1-0.6,1.5
			c-0.3,0.4-0.6,0.8-1.1,1c-0.5,0.3-1.1,0.4-1.9,0.4c-0.4,0-0.8,0-1.1-0.1c-0.8-0.1-1.5-0.4-2.3-0.6c-0.8-0.4-1.6-0.6-2.4-1
			s-1.5-0.8-2.3-1c-0.8-0.4-1.5-0.6-2.1-0.8c-0.4,0.4-0.9,0.8-1.6,1.3c-0.8,0.4-1.6,0.9-2.5,1.3c-1,0.4-2,0.6-3,0.9
			C323.4,74.4,322.4,74.5,321.5,74.5z M338.7,65.7c0.1,0.6,0.4,1.1,0.8,1.5s0.9,0.5,1.5,0.5c0.3,0,0.4,0,0.6,0c0.3,0,0.4,0,0.6-0.1
			c0-0.8-0.3-1.3-0.8-1.5c-0.5-0.3-1-0.4-1.6-0.4c-0.3,0-0.4,0-0.6,0C339.1,65.7,338.8,65.7,338.7,65.7z"/>
		<path class="st0" d="M357.9,62c0.5-0.6,1.1-1.1,1.8-1.5c0.8-0.4,1.4-0.8,2.1-1.1s1.5-0.8,2.1-1.1c0.6-0.4,1.3-1,1.6-1.6
			c-0.3-0.4-0.6-0.8-1-0.9c-0.4-0.1-0.9-0.3-1.4-0.3c-0.4,0-0.9,0-1.3,0.1c-0.5,0.1-0.9,0.3-1.3,0.4c-0.4,0.1-0.9,0.3-1.3,0.4
			c-0.4,0.1-0.8,0.3-1,0.4c-0.1-0.5-0.3-1.1-0.3-1.6c0-0.8,0.1-1.4,0.5-1.9c0.4-0.5,0.8-1,1.3-1.4c0.5-0.4,1.1-0.6,1.8-0.9
			c0.6-0.1,1.4-0.3,2-0.3c0.5,0,1,0,1.5,0.1c0.5,0.1,1,0.3,1.4,0.5s0.8,0.5,1,0.9c0.3,0.4,0.5,0.8,0.6,1.3c0.1,0.4,0.1,0.8,0.1,1.3
			c0,0.9-0.1,1.6-0.5,2.3c-0.4,0.6-0.8,1.3-1.3,1.9c-0.5,0.5-1.1,1-1.8,1.5c-0.6,0.4-1.4,0.8-2.1,1c-0.8,0.3-1.5,0.5-2.1,0.6
			c-0.6,0.1-1.4,0.3-2,0.3c-0.1,0-0.3,0-0.3,0S358,62,357.9,62z"/>
		<path class="st0" d="M377.6,74.5c-0.1,0-0.3,0-0.5,0c-0.3,0-0.3,0-0.4,0c-0.3,0-0.5,0.1-0.8,0.1s-0.5,0.1-0.8,0.3
			s-0.5,0.3-0.6,0.5c-0.1,0.3-0.4,0.5-0.6,0.8c0.6,0.4,1.4,0.6,2.1,0.9c0.8,0.1,1.6,0.4,2.4,0.6c0.8,0.3,1.4,0.5,2,0.9
			c0.6,0.4,0.9,1,1.1,1.8c0.1,0.5,0.1,1.1,0.1,1.6c0,1.3-0.3,2.4-0.8,3.5c-0.5,1.1-1.1,2.1-2,3.1s-1.9,1.9-3,2.8
			c-1.1,0.9-2.4,1.5-3.6,2.1c-1.3,0.6-2.6,1-4,1.4c-1.4,0.4-2.8,0.5-4.1,0.5c-1.4,0-2.6-0.1-3.8-0.5c-1.3-0.4-2.3-0.9-3.3-1.8
			c-0.8-0.5-1.4-1.3-1.9-2c-0.5-0.8-1-1.6-1.3-2.5c-0.4-0.9-0.6-1.9-0.8-2.9c-0.1-1-0.3-2-0.3-3c0-1.5,0.1-3,0.5-4.5
			c0.4-1.5,0.9-2.9,1.5-4.1s1.4-2.3,2.3-3.1c0.9-0.9,1.9-1.5,3.1-1.8c-0.1,0.6-0.4,1.3-0.6,1.9s-0.6,1.1-1.1,1.8
			c-0.4,0.5-0.8,1.1-1.3,1.8c-0.5,0.6-0.9,1.3-1.1,1.9c-0.4,0.6-0.6,1.4-0.9,2.1c-0.3,0.8-0.4,1.6-0.4,2.6c0,0.3,0,0.5,0,0.8
			c0,0.3,0,0.5,0.1,0.8c0.1,1.1,0.5,2.1,1.1,3c0.6,0.9,1.3,1.5,2.1,2.1c0.9,0.5,1.8,0.9,2.9,1.1c1.1,0.3,2.1,0.4,3.4,0.4
			c1.3,0,2.5-0.1,3.8-0.4c1.3-0.3,2.4-0.6,3.5-1.1c1.1-0.5,2.1-1.1,3-1.8c0.9-0.8,1.5-1.5,2-2.4c-0.8-0.4-1.5-0.6-2.3-0.6
			c-0.8,0-1.5-0.3-2.3-0.4c-0.8-0.1-1.4-0.4-1.9-0.6c-0.6-0.3-1-0.9-1.3-1.6c-0.4-1-0.5-1.9-0.5-2.8c0-1.1,0.3-2.3,0.8-3.3
			s1.1-1.9,1.9-2.6c0.8-0.8,1.6-1.5,2.5-2s1.9-0.9,2.8-1.1c0.1,0,0.3,0,0.5,0c0.3,0,0.5,0,0.8,0c0.4,0,0.8,0.1,1,0.3
			c0.3,0.1,0.6,0.4,0.9,0.6c0.3,0.3,0.5,0.6,0.6,1c0.1,0.4,0.3,0.8,0.3,1.1s0,0.6-0.1,1s-0.3,0.6-0.5,0.9c-0.3,0.3-0.5,0.5-0.9,0.8
			C378.5,74.3,378.1,74.4,377.6,74.5z"/>
		<path class="st0" d="M388.6,89c0,0.5,0,1,0,1.3c0,0.4-0.1,0.6-0.1,0.9c-0.1,0.3-0.3,0.5-0.4,0.8c-0.1,0.3-0.3,0.5-0.4,0.9
			c-1,0.3-2,0.6-3,1.1c-1,0.5-1.9,0.9-2.9,1.4c-1,0.5-1.9,0.9-2.9,1.3c-0.9,0.4-1.9,0.6-2.9,0.8c-0.1-0.4-0.1-0.6-0.1-0.8
			c0-0.3,0-0.4,0-0.6s0.1-0.5,0.1-0.8c0-0.3,0-0.6,0-1.1c1.1-0.3,2.1-0.8,3.1-1.3c1-0.5,2-1.1,3-1.6c1-0.5,2-1,3-1.4
			C386.3,89.2,387.3,89,388.6,89z"/>
		<path class="st0" d="M381.7,68.4c1,0,2-0.1,3-0.4c1-0.3,1.8-0.5,2.3-0.9c0-0.6-0.1-1.1-0.3-1.5c-0.1-0.4-0.3-0.8-0.5-1
			c-0.3-0.3-0.4-0.5-0.6-0.8s-0.4-0.5-0.6-0.8c-0.3-0.3-0.4-0.6-0.5-1c-0.1-0.4-0.1-0.9-0.1-1.5c0-0.5,0.1-1,0.4-1.6
			c0.3-0.5,0.5-1.1,0.9-1.8c0.6,0.6,1.1,1.3,1.8,1.9c0.5,0.6,1,1.3,1.4,1.9c0.4,0.6,0.8,1.4,1,2.3c0.3,0.9,0.4,1.9,0.4,3.1
			c0,1-0.1,1.9-0.4,2.8c-0.3,0.9-0.8,1.8-1.4,2.5c-0.8,1-1.8,1.8-3,2.3c-1.1,0.4-2.4,0.6-3.6,0.6h-4.5c-1-0.3-1.6-0.6-2.1-1.3
			c-0.5-0.6-0.6-1.3-0.6-1.9s0.3-1.3,0.8-1.9c0.5-0.6,1.1-1,2.1-1.1H381.7z M379.5,47.5c1.1,0.1,2,0.4,2.8,0.8
			c0.8,0.4,1.4,0.9,2,1.5c0,1-0.1,1.9-0.4,2.8c-0.1,0.9-0.5,1.5-1.1,1.9h-0.4c-1.9,0-3.3-0.6-4-1.8c0-0.5,0.1-1,0.1-1.5
			c0-0.5,0-0.9,0.1-1.4c0-0.4,0.1-0.9,0.3-1.3C378.9,48.3,379.1,47.9,379.5,47.5z"/>
		<path class="st0" d="M398.2,58.8c0.5-0.6,1.1-1.1,1.8-1.5c0.8-0.4,1.4-0.8,2.1-1.1c0.8-0.4,1.5-0.8,2.1-1.1s1.3-1,1.6-1.6
			c-0.3-0.4-0.6-0.8-1-0.9c-0.4-0.1-0.9-0.3-1.4-0.3c-0.4,0-0.9,0-1.3,0.1c-0.5,0.1-0.9,0.3-1.3,0.4c-0.4,0.1-0.9,0.3-1.3,0.4
			c-0.4,0.1-0.8,0.3-1,0.4c-0.1-0.5-0.3-1.1-0.3-1.6c0-0.8,0.1-1.4,0.5-1.9c0.4-0.5,0.8-1,1.3-1.4c0.5-0.4,1.1-0.6,1.8-0.9
			c0.6-0.1,1.4-0.3,2-0.3c0.5,0,1,0,1.5,0.1c0.5,0.1,1,0.3,1.4,0.5c0.4,0.3,0.8,0.5,1,0.9c0.3,0.4,0.5,0.8,0.6,1.3
			c0.1,0.4,0.1,0.8,0.1,1.3c0,0.9-0.1,1.6-0.5,2.3c-0.4,0.6-0.8,1.3-1.3,1.9c-0.5,0.5-1.1,1-1.8,1.5c-0.6,0.4-1.4,0.8-2.1,1
			c-0.8,0.3-1.5,0.5-2.1,0.6c-0.6,0.1-1.4,0.3-2,0.3c-0.1,0-0.3,0-0.3,0C398.4,58.8,398.2,58.8,398.2,58.8z"/>
		<path class="st0" d="M416.6,74.5c-1,0-1.8,0-2.3,0s-0.9,0-1.3,0c-0.1,0-0.4,0-0.5,0s-0.3,0-0.5,0c-0.3,0-0.4,0-0.6,0
			c-0.3,0-0.5,0-0.9,0c-0.6,0.6-1,1.3-1.3,1.9s-0.5,1.3-0.6,2s-0.4,1.3-0.6,2c-0.3,0.8-0.5,1.3-1,1.8c-0.8,0.9-1.5,1.6-2.3,2.1
			c-0.9,0.6-1.8,1-2.8,1.4s-2,0.6-3.1,0.8c-1.1,0.1-2.3,0.3-3.4,0.3c-1.5,0-3.1-0.1-4.8-0.4c-1.6-0.3-3.3-0.5-5-0.8
			c1-0.6,2.1-1.1,3.4-1.5c1.3-0.4,2.4-0.8,3.8-1.1c1.3-0.4,2.6-0.8,3.9-1.1c1.4-0.4,2.6-0.9,3.9-1.4c0.6-0.3,1.4-0.6,2.1-1
			s1.5-0.8,2.1-1.3c0.6-0.5,1.3-0.9,1.8-1.5c0.5-0.5,0.8-1.1,0.9-1.6c0-0.1,0-0.3,0-0.3c0-0.1,0-0.3,0-0.4c0-0.6-0.1-1.1-0.3-1.6
			c-0.3-0.5-0.5-1-0.8-1.5c-0.3-0.5-0.6-1-1-1.4s-0.6-0.9-1-1.4c-0.3-0.5-0.5-1-0.8-1.5c-0.3-0.5-0.3-1-0.3-1.6
			c0-0.4,0.1-0.8,0.3-1.3c0.1-0.4,0.4-0.9,0.6-1.4c0.8,0,1.4,0.1,1.9,0.5s0.9,0.8,1.4,1.3c0.4,0.5,0.9,1,1.3,1.5
			c0.5,0.5,1,0.9,1.8,1.3c0.9,0.4,1.9,0.6,2.8,0.9c0.9,0.3,1.9,0.3,3,0.3h0.3c0.8,0.3,1.4,0.6,1.8,1.3c0.4,0.6,0.6,1.1,0.6,1.8
			s-0.1,1.1-0.5,1.8C418.2,73.8,417.4,74.1,416.6,74.5z"/>
		<path class="st0" d="M440.4,84.8c0,0.5,0,1,0,1.3c0,0.4-0.1,0.6-0.1,0.9c-0.1,0.3-0.3,0.5-0.4,0.8c-0.1,0.3-0.3,0.5-0.4,0.9
			c-1,0.3-2,0.6-3,1.1c-1,0.5-1.9,0.9-2.9,1.4s-1.9,0.9-2.9,1.3c-0.9,0.4-1.9,0.6-2.9,0.8c-0.1-0.4-0.1-0.6-0.1-0.8
			c0-0.3,0-0.4,0-0.6s0.1-0.5,0.1-0.8c0-0.3,0-0.6,0-1.1c1.1-0.3,2.1-0.8,3.1-1.3c1-0.5,2-1.1,3-1.6c1-0.5,2-1,3-1.4
			C438.2,85.1,439.3,84.8,440.4,84.8z"/>
		<path class="st0" d="M415.9,74.5c-0.8-0.4-1.3-0.8-1.5-1.3c-0.4-0.5-0.5-1.1-0.5-1.8s0.1-1.1,0.5-1.8c0.4-0.5,0.9-1,1.5-1.4h1.9
			c0.8,0,1.6,0,2.5-0.1c1-0.1,2-0.3,3-0.5c1-0.3,2.1-0.5,3.3-0.9c1.1-0.4,2.1-0.9,3.1-1.4c-0.4-0.5-0.8-0.9-1.4-1.4
			c-0.6-0.5-1.1-0.8-1.9-1c-0.8-0.3-1.4-0.5-2.3-0.6c-0.8-0.1-1.5-0.3-2.4-0.3c-1,0-2,0.1-3,0.4s-1.8,0.6-2.4,1.3
			c0.4-1.1,0.8-2,1.3-2.8c0.5-0.8,1-1.4,1.6-1.8c0.6-0.4,1.3-0.8,2-1c0.8-0.3,1.5-0.3,2.3-0.3c1.1,0,2.3,0.1,3.4,0.5
			c1.3,0.3,2.5,0.6,3.8,1.1c1.3,0.5,2.6,0.9,4,1.5c1.4,0.5,2.8,1,4.1,1.5c1.4,0.5,2.8,0.9,4.1,1.1c1.4,0.3,2.6,0.5,4,0.5h0.6
			c0.3,0.5,0.3,1,0.3,1.6c0,0.8-0.1,1.4-0.4,2c-0.3,0.6-0.6,1.1-1,1.5h-0.1c-0.1,0.1-0.3,0.3-0.3,0.3h-0.1h-0.1h-0.1
			c-0.9,0-1.8,0-2.9,0c-1.1,0-2.3,0-3.4,0c-1.3,0-2.6,0-3.9,0.1c-1.3,0.1-2.5,0.3-3.5,0.6c-1,0.3-2,0.6-3,1.1
			c-1.1,0.5-2.3,0.9-3.4,1.4c-1.3,0.5-2.4,0.9-3.6,1.1c-1.3,0.4-2.5,0.5-3.8,0.5h-2.4V74.5z M433.5,74.5c1.1,0.1,2,0.4,2.8,0.8
			c0.8,0.4,1.4,0.9,2,1.5c0,1-0.1,1.9-0.4,2.8c-0.3,0.9-0.5,1.5-1.1,1.9h-0.4c-1.9,0-3.3-0.6-4-1.8c0-0.5,0.1-1,0.1-1.5
			s0-0.9,0.1-1.4c0-0.4,0.1-0.9,0.3-1.3S433.1,74.9,433.5,74.5z"/>
		<path class="st0" d="M460.8,28.7c0,0.5,0,1,0,1.3c0,0.4-0.1,0.6-0.1,0.9c-0.1,0.3-0.3,0.5-0.4,0.8c-0.1,0.3-0.3,0.5-0.4,0.9
			c-1,0.3-2,0.6-3,1.1c-1,0.5-1.9,0.9-2.9,1.4c-1,0.5-1.9,0.9-2.9,1.3c-0.9,0.4-1.9,0.6-2.9,0.8c-0.1-0.4-0.1-0.6-0.1-0.8
			c0-0.3,0-0.4,0-0.6c0-0.3,0.1-0.5,0.1-0.8s0-0.6,0-1.1c1.1-0.3,2.1-0.8,3.1-1.3c1-0.5,2-1.1,3-1.6c1-0.5,2-1,3-1.4
			C458.5,28.9,459.6,28.7,460.8,28.7z"/>
		<path class="st0" d="M452.3,43c0-0.6,0.1-1.1,0.1-1.6c0-0.4,0.1-0.8,0.1-0.9s0.1-0.4,0.1-0.4c0-0.1,0.1-0.1,0.1-0.1
			c0.1-0.1,0.3-0.3,0.3-0.3c0.1-0.1,0.3-0.1,0.3-0.1c0.1,0,0.3,0.1,0.5,0.3c0.6,0.6,1.3,1.1,2,1.8s1.5,1.3,2.1,2
			c0.6,0.8,1.3,1.5,1.8,2.4c0.5,0.9,0.8,1.9,0.8,3.1c0,0.3,0,0.5-0.1,0.9v0.1c0,0.4-0.1,0.6-0.3,0.6s-0.4,0.3-0.6,0.3
			c-0.3,0.1-0.5,0.1-0.6,0.3c-0.3,0.1-0.4,0.3-0.5,0.4c0.1,1.5,0.4,3,0.8,4.5c0.4,1.5,0.8,3,1.3,4.5c0.4,1.5,0.9,3,1.1,4.5
			c0.4,1.5,0.5,3,0.5,4.5c0,0.8,0,1.5-0.1,2.4c-0.1,0.8-0.3,1.5-0.6,2.4c-0.5-0.3-0.8-0.6-1-1c-0.3-0.4-0.4-0.8-0.5-1.1
			c-0.1-0.4-0.1-0.8-0.3-1.1c0-0.4-0.1-0.8-0.1-1.1c-0.1-1-0.4-2-0.6-3.1s-0.6-2.4-1-3.6c-0.4-1.3-0.8-2.5-1.1-3.8s-0.8-2.5-1.1-3.8
			c-0.3-1-0.5-1.9-0.9-2.9c-0.4-1-0.8-2-1-3c-0.4-1-0.6-2.1-0.9-3.1c-0.3-1-0.4-2.1-0.4-3.1L452.3,43L452.3,43z"/>
		<path class="st0" d="M487.9,37.3c0,0.5,0,1,0,1.3c0,0.4-0.1,0.6-0.1,0.9c-0.1,0.3-0.3,0.5-0.4,0.8s-0.3,0.5-0.4,0.9
			c-1,0.3-2,0.6-3,1.1c-1,0.5-1.9,0.9-2.9,1.4c-1,0.5-1.9,0.9-2.9,1.3c-0.9,0.4-1.9,0.6-2.9,0.8c-0.1-0.4-0.1-0.6-0.1-0.8
			c0-0.3,0-0.4,0-0.6s0.1-0.5,0.1-0.8c0-0.3,0-0.6,0-1.1c1.1-0.3,2.1-0.8,3.1-1.3c1-0.5,2-1.1,3-1.6c1-0.5,2-1,3-1.4
			C485.6,37.6,486.6,37.3,487.9,37.3z"/>
		<path class="st0" d="M483.4,47.5c-0.1,0.4-0.1,0.6-0.1,1s0,0.6,0,1c0,0.5,0,0.9,0.1,1.3c0.1,0.4,0.3,0.8,0.4,1.1
			c0.3,0.4,0.5,0.6,0.8,0.8c0.4,0.1,0.8,0.3,1.3,0.3c0.1,0,0.3,0,0.3,0c0.1,0,0.1,0,0.3,0c0.1-0.3,0.3-0.5,0.4-0.6
			c0.1-0.1,0.1-0.5,0.1-0.8l-0.4-2.8c0-0.3,0-0.5,0.1-0.8c0.1-0.3,0.3-0.5,0.4-0.8c0.6,0.5,1.1,1.1,1.5,1.9c0.4,0.8,0.5,1.6,0.5,2.5
			c0,0.5-0.1,1.1-0.3,1.6c-0.1,0.5-0.4,1-0.6,1.4s-0.6,0.8-1,1c-0.4,0.3-0.9,0.4-1.4,0.4c-0.4,0-0.8,0-1.1-0.1s-0.9-0.4-1.4-0.6
			c-1,0.8-1.9,1.1-2.9,1.1c-0.6,0-1.1-0.1-1.6-0.4c-0.5-0.3-0.9-0.5-1.3-0.9c-0.4-0.4-0.6-0.9-0.9-1.4c-0.3-0.5-0.4-1-0.4-1.6
			c0-0.5,0.1-1.1,0.4-1.6s0.6-1.1,1.1-1.6c0,0.4,0.1,0.9,0.1,1.5c0,0.5,0,1,0.1,1.5c0.1,0.5,0.3,0.9,0.5,1.3s0.6,0.5,1,0.5
			c0.4,0,0.9-0.1,1.1-0.3c0.3-0.3,0.5-0.5,0.6-0.8c0.1-0.4,0.3-0.8,0.3-1.1c0-0.4,0-0.9,0-1.3v-0.1c0-0.4,0-0.6,0-1
			c0-0.3,0-0.6,0.1-0.9c0.1-0.3,0.1-0.4,0.3-0.6c0.1-0.1,0.4-0.3,0.6-0.3C482.5,47.3,482.9,47.3,483.4,47.5z"/>
		<path class="st0" d="M501.9,68.4c0.4,0,0.6,0.1,0.9,0.3c0.3,0.1,0.6,0.4,0.9,0.6c0.3,0.3,0.5,0.6,0.6,1c0.1,0.4,0.3,0.8,0.3,1.1
			c0,0.4-0.1,0.8-0.3,1.1s-0.4,0.8-0.6,1c-0.3,0.3-0.5,0.5-0.9,0.8c-0.4,0.1-0.6,0.3-1,0.3h-0.8c-0.1,0-0.3,0-0.4,0
			c-0.1,0-0.4,0-0.5,0s-0.4,0-0.5,0s-0.3,0-0.4,0c-1.4,0-2.6-0.1-3.9-0.3c-1.3-0.1-2.4-0.4-3.4-0.8c-0.6,0.3-1.1,0.6-1.6,1
			c-0.4,0.4-0.9,0.6-1.3,1c-0.4,0.4-0.9,0.6-1.3,0.9c-0.4,0.3-1,0.5-1.8,0.6c-0.4,0-0.8,0.1-1.1,0.1c-0.5,0-1,0-1.5-0.1
			c-0.5-0.1-1-0.1-1.5-0.3c-0.5-0.1-1-0.1-1.5-0.3c-0.5-0.1-1-0.1-1.4-0.1c-0.3,0-0.4,0-0.6,0c-0.3,0-0.4,0-0.6,0.1
			c-0.5,0.1-1,0.4-1.4,0.8c-0.4,0.4-0.9,0.9-1.3,1.4c-0.4,0.5-0.8,1-1.3,1.6c-0.4,0.5-0.9,1-1.4,1.3c-0.6,0.5-1.3,0.8-1.9,1
			c-0.6,0.3-1.1,0.5-1.8,0.6s-1.3,0.3-1.9,0.4c-0.6,0.1-1.3,0.3-2,0.4c0.3-0.9,0.6-1.6,1.3-2.3c0.6-0.6,1.1-1.1,1.9-1.6
			s1.4-1,2.3-1.4c0.8-0.4,1.5-0.9,2.3-1.3c0.8-0.5,1.4-1,2.1-1.5c0.6-0.5,1.1-1.1,1.6-1.9v-0.6c0-1.1,0-2.4,0.1-3.5
			c0.1-1.1,0.3-2.3,0.5-3.3c0.3-1,0.6-1.9,1-2.6c0.5-0.8,1.1-1.4,1.9-1.8c0.5-0.3,1.1-0.5,1.5-0.6c0.5-0.1,1-0.3,1.4-0.3
			c0.8,0,1.4,0.1,2,0.4c0.6,0.3,1.3,0.6,1.9,1.1c0.6,0.4,1.1,0.9,1.8,1.5c0.6,0.5,1.1,1,1.8,1.5c0.6,0.5,1.3,1,1.9,1.4
			c0.6,0.4,1.4,0.6,2.1,0.9c1.4,0.4,2.8,0.5,4.1,0.5c0.3,0,0.5,0,0.8,0c0.3,0,0.5,0,0.8-0.1c0.3,0,0.6,0,0.9-0.1
			C501.2,68.4,501.6,68.4,501.9,68.4z M479.7,70.2c0.4,0.3,0.9,0.5,1.5,0.6c0.6,0.1,1.4,0.3,2.1,0.3c0.6,0,1.3,0,1.8-0.1
			c0.6-0.1,1.1-0.3,1.6-0.5c0-0.4-0.3-0.8-0.5-1.1c-0.3-0.4-0.6-0.6-1-0.8c-0.4-0.3-0.9-0.4-1.4-0.5c-0.5-0.1-1-0.1-1.5-0.1
			c-0.8,0-1.4,0.1-2,0.5c-0.5,0.3-0.9,0.8-0.9,1.4C479.7,70,479.7,70.1,479.7,70.2z"/>
		<path class="st0" d="M507.3,45c0.3-0.6,0.6-1.1,1.1-1.5c0.5-0.4,1-0.6,1.6-0.9c0.6-0.3,1.1-0.6,1.6-0.9c0.5-0.4,0.9-0.8,1.3-1.4
			c-0.8-0.5-1.3-1.1-1.6-2c-0.4-0.8-0.5-1.8-0.5-2.6s0.1-1.9,0.4-2.8c0.3-1,0.6-1.8,1.1-2.5c0.5-0.8,1.1-1.4,1.8-1.9
			c0.6-0.5,1.4-0.8,2.1-0.8c0.6,0,1.1,0.1,1.8,0.5c0.6,0.4,1.3,0.9,1.9,1.5c0.1,0.5,0.3,1,0.3,1.4c0,0.4,0.1,0.9,0.1,1.4
			c0,1.6-0.4,3.1-1.1,4.5c-0.8,1.4-1.6,2.5-2.8,3.5c-0.6,0.6-1.3,1.1-2.1,1.6c-0.8,0.5-1.5,1-2.4,1.4c-0.8,0.4-1.6,0.8-2.4,1
			C508.7,44.8,508,44.9,507.3,45z M517.5,34.1c0-0.3-0.1-0.5-0.3-0.8c-0.1-0.3-0.4-0.4-0.6-0.5c-0.3-0.1-0.5-0.3-0.8-0.4
			c-0.3-0.1-0.6-0.1-0.9-0.1c-0.3,0-0.4,0-0.6,0c-0.1,0-0.4,0.1-0.5,0.3c-0.4,0.3-0.6,0.4-0.8,0.6c-0.1,0.3-0.3,0.4-0.3,0.6
			c0,0.3,0.1,0.5,0.3,0.8c0.1,0.3,0.4,0.5,0.6,0.6c0.3,0.3,0.6,0.4,0.9,0.5c0.4,0.1,0.6,0.1,1,0.1s0.8-0.1,1.1-0.4
			c0.4-0.3,0.5-0.6,0.5-1.3v-0.1H517.5z"/>
		<path class="st0" d="M529.1,68.6c0.4,0,0.8,0.1,1,0.4c0.3,0.3,0.5,0.5,0.6,0.9s0.3,0.8,0.4,1.1c0.1,0.4,0.1,0.8,0.1,1.1
			c0,0.9-0.3,1.5-0.6,2.1c-0.4,0.6-0.9,1-1.6,1.1c-0.8,0-1.5-0.1-2.1-0.4c-0.6-0.3-1-0.4-1.4-0.5c0,0.4,0.1,0.6,0.1,1s0,0.6,0,1
			c0,1-0.1,2-0.4,3s-0.5,1.9-0.9,2.6c-0.4,0.8-0.8,1.5-1.3,2.1c-0.4,0.6-0.9,1.1-1.3,1.5c-0.5,0.1-0.9,0.3-1.3,0.3
			c-0.4,0-0.8,0.1-1.3,0.1c-1.4,0-2.5-0.3-3.5-0.9c-1-0.6-1.9-1.4-2.6-2.3c-0.8-0.9-1.4-2-2-3.1c-0.6-1.1-1.1-2.3-1.6-3.4
			c-0.1-0.3-0.3-0.5-0.4-0.8s-0.3-0.5-0.4-0.8c-0.4-0.3-0.8-0.4-1.3-0.4s-1-0.1-1.5-0.1h-4.4c-0.6,0-1.3-0.1-1.8-0.3
			c-0.5-0.1-0.9-0.4-1.3-0.6c-0.4-0.3-0.6-0.6-0.8-1c-0.1-0.4-0.3-0.8-0.3-1.1c0-0.4,0.1-0.8,0.3-1.1c0.1-0.4,0.4-0.8,0.8-1
			c0.4-0.3,0.8-0.5,1.3-0.8c0.5-0.1,1.1-0.3,1.8-0.3c0.8,0,1.4,0,1.9-0.1c0.5,0,1-0.1,1.4-0.3c0.4-0.1,0.8-0.4,1.1-0.6
			c0.4-0.3,0.6-0.5,1-0.9c0.4-0.6,0.6-1.4,1-2.3c0.3-0.9,0.5-1.6,0.9-2.6c0.3-0.9,0.5-1.8,0.9-2.8c0.3-0.9,0.6-1.8,1-2.6
			c0.4-0.9,0.8-1.5,1.3-2.3c0.5-0.8,1-1.1,1.6-1.6c0.4-0.3,0.9-0.5,1.4-0.6c0.5-0.1,1-0.3,1.5-0.3c0.6,0,1.3,0.1,1.8,0.3
			c0.6,0.1,1.3,0.4,1.8,0.8c0.5,0.4,1.1,0.8,1.5,1.3c0.5,0.5,0.9,1,1.1,1.6c0.3,0.5,0.5,1.1,0.6,1.8c0.1,0.6,0.1,1.4,0.1,2.1
			c0,1.3-0.1,2.6-0.5,4c-0.4,1.4-0.8,2.6-1.4,3.9c0.3,0.5,0.9,0.9,1.6,1.1c0.8,0.3,1.8,0.4,2.8,0.4C527.2,69,528.2,68.9,529.1,68.6z
			 M511.9,66.1c0.8-0.1,1.6-0.4,2.5-0.6c0.9-0.3,1.8-0.6,2.4-1c0.8-0.4,1.4-0.9,1.9-1.5c0.5-0.6,0.8-1.3,0.8-2c0-0.5-0.1-1-0.4-1.6
			c-0.4-0.1-0.9-0.3-1.3-0.4c-0.4-0.1-0.8-0.1-1.1-0.1c-0.8,0-1.5,0.1-2.1,0.4c-0.6,0.3-1.1,0.6-1.6,1.1c-0.4,0.5-0.8,1-1,1.8
			c-0.3,0.6-0.4,1.4-0.4,2.1C511.6,65,511.7,65.6,511.9,66.1z M514.5,75.8c0.3,0.5,0.5,1,0.9,1.5c0.4,0.5,0.8,0.9,1.3,1.3
			c0.5,0.4,1,0.6,1.6,0.9c0.6,0.3,1.3,0.4,1.9,0.4c0.3,0,0.4,0,0.6,0s0.4-0.1,0.6-0.1c0.1-0.4,0.3-0.8,0.3-1.1c0-0.5-0.1-1-0.4-1.5
			c-0.3-0.5-0.6-0.9-1.1-1.3s-1-0.6-1.5-0.9c-0.6-0.3-1.1-0.4-1.6-0.4c-0.5,0-1,0.1-1.4,0.3C515.1,75,514.8,75.3,514.5,75.8z"/>
		<path class="st0" d="M529.4,20.4c-0.3-0.4-0.5-0.6-0.6-1c-0.1-0.4-0.3-0.8-0.4-1.3c-0.1-0.4-0.1-0.9-0.3-1.3
			c-0.1-0.4-0.3-0.9-0.4-1.4s-0.4-1-0.5-1.5s-0.4-1-0.6-1.5s-0.4-1.1-0.5-1.6c-0.1-0.5-0.3-1.1-0.3-1.6c0-0.1,0-0.3,0-0.3
			s0-0.1,0-0.3c0-0.4,0.1-0.6,0.3-1c0.1-0.4,0.3-0.6,0.5-1c0.6,0.3,1.1,0.6,1.5,1.1c0.4,0.5,0.8,1.1,1,1.8s0.4,1.4,0.5,2.1
			c0.1,0.8,0.1,1.6,0.1,2.4c0,0.6,0,1.3,0,1.9s-0.1,1.3-0.1,1.8C529.7,18.6,529.6,19.5,529.4,20.4z"/>
		<path class="st0" d="M531.6,22.3c-0.1,0.4-0.1,0.6-0.1,1c0,0.4,0,0.6,0,1c0,0.5,0,0.9,0.1,1.3s0.3,0.8,0.4,1.1
			c0.3,0.4,0.5,0.6,0.8,0.8c0.4,0.1,0.8,0.3,1.3,0.3c0.1,0,0.3,0,0.3,0c0.1,0,0.1,0,0.3,0c0.1-0.3,0.3-0.5,0.4-0.6s0.1-0.5,0.1-0.8
			l-0.4-2.8c0-0.3,0-0.5,0.1-0.8c0.1-0.3,0.3-0.5,0.4-0.8c0.6,0.5,1.1,1.1,1.5,1.9s0.5,1.6,0.5,2.5c0,0.5-0.1,1.1-0.3,1.6
			c-0.1,0.5-0.4,1-0.6,1.4c-0.3,0.4-0.6,0.8-1,1s-0.9,0.4-1.4,0.4c-0.4,0-0.8,0-1.1-0.1c-0.4-0.1-0.9-0.4-1.4-0.6
			c-1,0.8-1.9,1.1-2.9,1.1c-0.6,0-1.1-0.1-1.6-0.4c-0.5-0.3-0.9-0.5-1.3-0.9c-0.4-0.4-0.6-0.9-0.9-1.4c-0.3-0.5-0.4-1-0.4-1.6
			c0-0.5,0.1-1.1,0.4-1.6c0.3-0.5,0.6-1.1,1.1-1.6c0,0.4,0.1,0.9,0.1,1.5c0,0.5,0,1,0.1,1.5c0.1,0.5,0.3,0.9,0.5,1.3
			c0.3,0.4,0.6,0.5,1,0.5c0.4,0,0.9-0.1,1.1-0.3c0.3-0.3,0.5-0.5,0.6-0.8c0.1-0.4,0.3-0.8,0.3-1.1s0-0.9,0-1.3v-0.1c0-0.4,0-0.6,0-1
			c0-0.3,0-0.6,0.1-0.9c0.1-0.3,0.1-0.4,0.3-0.6c0.1-0.1,0.4-0.3,0.6-0.3C530.8,22,531.2,22.2,531.6,22.3z"/>
		<path class="st0" d="M542.6,67.7c0.4,0,0.6,0.1,0.9,0.4c0.3,0.3,0.4,0.5,0.6,0.9c0.1,0.4,0.3,0.6,0.4,1s0.1,0.8,0.1,1.1
			c0,0.9-0.3,1.6-0.6,2.1c-0.4,0.6-0.9,1-1.4,1.3c-0.6,0-1.3-0.1-1.9-0.4c-0.6-0.3-1.3-0.5-1.8-0.8c-0.5-0.3-1.1-0.6-1.6-1.1
			c-0.5-0.4-0.9-0.9-1.3-1.4c-0.3,0.9-0.6,1.6-1.1,2.3s-1,1-1.5,1.4c-0.6,0.4-1.1,0.6-1.9,0.8c-0.6,0.1-1.3,0.3-1.9,0.3
			c-0.1,0-0.3,0-0.4,0c-0.1,0-0.3,0-0.4,0c-0.5-0.3-0.9-0.6-1.3-1.3c-0.4-0.6-0.4-1.3-0.4-2s0.1-1.4,0.4-2s0.6-1.1,1.3-1.5
			c0.5-0.1,1-0.4,1.5-0.5c0.5-0.3,0.9-0.5,1.3-0.8c0.4-0.4,0.6-0.6,0.9-1.1c0.3-0.4,0.3-0.9,0.3-1.4c0-0.1,0-0.3,0-0.3v-0.3
			c0-0.9-0.1-1.9-0.3-3c-0.1-1.1-0.4-2.3-0.6-3.4c-0.3-1.3-0.5-2.4-0.8-3.6c-0.3-1.3-0.5-2.5-0.8-3.8c-0.3-1.3-0.4-2.4-0.6-3.5
			c-0.1-1.1-0.3-2.1-0.3-3.1c0-0.8,0-1.4,0.1-1.9c0.1-0.5,0.3-1,0.5-1.5c0.5,0.3,1,0.8,1.4,1.5c0.4,0.8,0.8,1.8,1.1,3s0.8,2.5,1,4
			c0.4,1.5,0.6,2.9,1,4.4c0.4,1.5,0.6,3,1,4.4c0.4,1.4,0.6,2.8,1,3.9c0.1,0.4,0.4,0.9,0.5,1.5c0.3,0.5,0.5,1,0.8,1.5s0.6,1,1,1.4
			s0.8,0.8,1.1,1C541.1,67.5,541.9,67.7,542.6,67.7z"/>
		<path class="st0" d="M542.6,67.7c0.9,0,1.6-0.3,2.4-0.8c0.8-0.5,1-1.4,1-2.5v-0.4c0-0.6-0.1-1.4-0.4-2.1c-0.1-0.8-0.4-1.5-0.5-2.1
			c-0.3-1-0.8-2.3-1.3-3.5s-1-2.6-1.5-4s-1-2.8-1.4-4.1c-0.4-1.4-0.6-2.6-0.6-3.9c0-0.6,0-1.1,0.1-1.8c0.1-0.5,0.3-1,0.5-1.5
			c0.6,0.4,1.3,0.9,1.9,1.4c0.6,0.5,1.1,1,1.8,1.5c0.6,0.5,1.1,1,1.8,1.4c0.6,0.5,1.4,0.8,2.3,1c0.1,0.4,0.1,0.8,0.3,1.3
			c0,0.5,0.1,1,0.1,1.5c0,0.5,0,0.9-0.1,1.3c0,0.4-0.1,0.8-0.3,1.1c-0.1,0-0.3,0-0.4,0c-0.1,0-0.3,0-0.3,0c-0.4,0-0.6,0-0.9-0.1
			s-0.5-0.3-0.6-0.4c-0.3-0.1-0.4-0.3-0.6-0.4c-0.3-0.1-0.5-0.3-0.8-0.3c0.4,0.9,0.6,1.8,1,2.8s0.8,2,1.1,3c0.4,1,0.8,2.1,1,3.1
			c0.3,1.1,0.5,2.3,0.8,3.3c0.1,0.6,0.1,1.4,0.3,2c0.1,0.6,0.1,1.3,0.1,1.9c0,0.8,0,1.4-0.1,2c-0.1,1.1-0.4,2-0.8,2.8
			c-0.4,0.8-0.9,1.4-1.4,1.9c-0.5,0.5-1.1,0.9-1.9,1c-0.8,0.1-1.4,0.4-2.1,0.4h-0.6c-0.5-0.3-0.8-0.8-1-1.4s-0.4-1.4-0.4-2
			s0.1-1.3,0.4-1.9C541.8,68.5,542.1,68.1,542.6,67.7z"/>
		<path class="st0" d="M562.3,28.7c0,0.5,0,1,0,1.3c0,0.4-0.1,0.6-0.1,0.9c-0.1,0.3-0.3,0.5-0.4,0.8c-0.1,0.3-0.3,0.5-0.4,0.9
			c-1,0.3-2,0.6-3,1.1c-1,0.5-1.9,0.9-2.9,1.4c-1,0.5-1.9,0.9-2.9,1.3c-0.9,0.4-1.9,0.6-2.9,0.8c-0.1-0.4-0.1-0.6-0.1-0.8
			c0-0.3,0-0.4,0-0.6c0-0.3,0.1-0.5,0.1-0.8c0-0.3,0-0.6,0-1.1c1.1-0.3,2.1-0.8,3.1-1.3c1-0.5,2-1.1,3-1.6c1-0.5,2-1,3-1.4
			C560.1,28.9,561.1,28.7,562.3,28.7z"/>
		<path class="st0" d="M553.9,43c0-0.6,0.1-1.1,0.1-1.6c0-0.4,0.1-0.8,0.1-0.9c0-0.3,0.1-0.4,0.1-0.4c0-0.1,0.1-0.1,0.1-0.1
			c0.1-0.1,0.3-0.3,0.3-0.3l0.3-0.1c0.1,0,0.3,0.1,0.5,0.3c0.6,0.6,1.3,1.1,2,1.8c0.8,0.6,1.5,1.3,2.1,2c0.6,0.8,1.3,1.5,1.8,2.4
			c0.5,0.9,0.8,1.9,0.8,3.1c0,0.3,0,0.5-0.1,0.9v0.1c0,0.4-0.1,0.6-0.3,0.6s-0.4,0.3-0.6,0.3c-0.3,0.1-0.5,0.1-0.6,0.3
			s-0.4,0.3-0.5,0.4c0.1,1.5,0.4,3,0.8,4.5c0.4,1.5,0.8,3,1.3,4.5s0.9,3,1.1,4.5c0.4,1.5,0.5,3,0.5,4.5c0,0.8,0,1.5-0.1,2.4
			c-0.1,0.8-0.3,1.5-0.6,2.4c-0.5-0.3-0.8-0.6-1-1s-0.4-0.8-0.5-1.1c-0.1-0.4-0.1-0.8-0.3-1.1c0-0.4-0.1-0.8-0.1-1.1
			c-0.1-1-0.4-2-0.6-3.1s-0.6-2.4-1-3.6c-0.4-1.3-0.8-2.5-1.1-3.8s-0.8-2.5-1.1-3.8c-0.3-1-0.5-1.9-0.9-2.9c-0.4-1-0.8-2-1-3
			c-0.4-1-0.6-2.1-0.9-3.1c-0.3-1-0.4-2.1-0.4-3.1L553.9,43L553.9,43z"/>
	</g>
</g>
<g>
	<g>
		<g>
			<path class="st1" d="M375.4,129.1l0.1,0.1c0.8,0.1,1.3,0.1,1.5,0.1c0.9-1,1.4-1.6,1.4-1.8c0.5-0.6,0.8-1.4,0.9-2
				c0.3-1.3,0.5-3.5,0.5-6.8c0.1-0.6,0.3-1.3,0.6-2.1c0.5-1.1,0.8-1.9,0.9-2c0.1-0.1,0.1-0.3,0.4-0.4c0.3,0,0.4,0,0.4,0.1
				c-0.1,0.5-0.1,1.1-0.3,2c-0.1,1.4-0.1,2.8-0.1,4.3c-0.1,1.6-0.4,3-0.8,4l0,0c1.5-1.4,2.9-2.1,3.9-2.1c0.5,0,0.9,0.1,1.4,0.4
				c0.6,0.4,1,0.9,1,1.6c-0.1,1.1-1.1,2.6-3,4.3c-1.5,0.9-3,1.6-4.5,2.1c-0.5,0.1-1,0.3-1.5,0.3c-1.1,0-2.1-0.4-2.8-1.3h-0.1
				c-0.9,1.5-2.3,2.5-4,3.3c-1,0.4-2.6,0.9-5,1.3c-1.9,0.4-3.9,0.5-5.8,0.5c-2,0-3.8-0.3-5.4-0.6c-1.1-0.3-1.6-0.9-1.9-1.8
				c-0.1-0.5-0.1-1.1-0.1-1.6c0-1,0.1-2.1,0.5-3.8c0.1-0.3,0.3-0.4,0.5-0.3c0.1,0.3,0.3,0.6,0.1,1c0,0.5,0,0.9,0,1
				c-0.1,0.6,0.3,1,0.9,1.3c1.8,0.6,4,0.9,6.7,0.9c1.1,0,2.6-0.1,4.1-0.3c3.9-0.3,6.7-0.9,8.2-1.9c0.4-0.3,1-0.9,1.8-2.1
				c0.1-0.1,0.3-0.1,0.5-0.1c0.1,0.1,0.1,0.3,0,0.5C375.9,127.8,375.6,128.4,375.4,129.1z M366.3,127.1c-0.8-0.4-1.6-1-2.6-1.9
				l-1.6,1.9c-1.3-0.4-2.3-1-2.9-2.1c1.3-1.6,2-2.5,2.1-2.6c0.4,0.4,0.9,0.8,1.3,1.1c0.5,0.4,0.9,0.6,1.4,0.9l2-2
				c1.3,1,2.1,1.8,2.8,2.3C367.6,125.7,366.8,126.6,366.3,127.1z M383.7,124.6c-1,0.1-2,0.8-3,1.8c0,0-0.8,1-2.3,2.8
				c0.9-0.3,1.9-0.4,2.8-0.5c1.1-0.3,1.9-0.6,2.6-1.1c0.6-0.5,1-1.1,1-1.8C384.8,125.1,384.4,124.7,383.7,124.6z M385.8,119.1
				c-1-0.4-2-1.1-2.9-2.1c1.3-1.5,2-2.4,2.1-2.5c0.9,0.8,1.9,1.5,2.8,2.1L385.8,119.1z"/>
			<path class="st1" d="M399.9,129.3l-0.1,0.3c0.3,0,0.5,0,0.8-0.1c0.3-0.1,0.5-0.1,0.8-0.3c0.9-0.5,1.6-1.3,2.5-2.4
				c0.6-1,1.3-1.9,1.9-2.9c0.4-0.5,0.8-1.1,1.4-2c-0.5-0.3-1.3-0.6-2.3-1.1c-1.4-0.5-2.1-0.8-2.3-0.8c-0.4,0-0.6,0.1-1,0.3
				c-0.1,0.1-0.4,0.4-0.5,0.6c-0.1,0.4-0.3,0.5-0.4,0.6c-0.1,0-0.3,0-0.4-0.3c0.3-1.5,0.9-2.5,1.6-3c0.4-0.1,0.8-0.3,1.1-0.3
				c0.5,0,1.1,0.1,1.9,0.4c0.6,0.3,1.1,0.5,1.8,0.8c0.3,0.1,1.3,0.5,3.3,1.1c0.1,0.1,0.3,0.3,0.1,0.5c0,0-0.8,0.9-2.3,2.4
				c-0.6,0.6-1.4,1.8-2.4,3.3c-0.9,1.6-1.6,2.6-2.3,3.3c-1,1-2.1,1.6-3.5,1.8c-0.1,0-0.4,0-0.8,0c-0.3,0-0.5-0.1-0.6-0.1
				c-0.9,1-1.5,1.8-1.9,2.1c-0.9,0.8-1.6,1.1-2.5,1.3c-1,0-1.8-0.5-2.4-1.4c-0.6-1.4-0.9-3-0.9-5c0-0.4,0-1.4,0.1-2.8
				c0-1.1,0-2.1,0-2.8c0-1,0-2.6,0.1-4.6c0.3-0.6,0.6-1.5,1-2.8c0-0.1,0.1-0.1,0.3-0.3c0.3,0,0.4,0.1,0.4,0.3
				c-0.1,0.6-0.1,1.6-0.3,3c-0.3,4.3-0.3,7.3,0,9.2c0.1,1.8,0.8,2.9,1.8,3.3c0.3,0.1,0.5,0.1,0.8,0.1c0.6,0,1.3-0.3,1.8-0.8
				c-0.5-0.9-0.9-1.8-0.9-3c0-1.1,0.3-2,0.8-2.9c0.5-0.9,1.1-1.4,1.8-1.5c0.8-0.1,1.4,0.1,1.8,0.6c0.4,0.5,0.8,1.3,0.8,2.1
				C400.6,126.5,400.4,127.8,399.9,129.3z M396.5,111.6l0.3,0.1c0.5,0.5,1.3,1.1,2.4,2.1c0,0,0,0.1,0,0.4c-0.8,0.9-1.4,1.6-2.1,2.3
				c-0.1,0-0.1,0-0.3,0s-0.5-0.3-1.1-0.6c-0.3-0.3-0.6-0.5-0.9-0.8s-0.5-0.6-0.6-0.9C394.6,113.6,395.3,112.7,396.5,111.6z
				 M398,129.1l0.8-0.6c0.5-0.5,0.9-1,0.9-1.8c0-0.3-0.1-0.6-0.3-0.9c-0.3-0.5-0.6-0.8-1.3-0.8c-0.4,0.1-0.8,0.3-1.1,0.6
				c-0.4,0.4-0.5,0.8-0.5,1.1s0.3,0.9,0.6,1.5c0.1,0,0.1,0.1,0.4,0.4C397.6,129.1,397.8,129.1,398,129.1z"/>
			<path class="st1" d="M426.7,123.7h0.3c0.5,0.8,1,1.1,1.4,1.1c0.1,0.1,0.4,0.1,0.5,0.1c0.5,0,1.1-0.3,1.6-0.8
				c0.1-0.3,0.5-0.5,0.9-0.9c0,0,0.1,0.3,0.1,0.5c0.1,0.3,0.3,0.4,0.4,0.5c0.3,0.1,0.4,0.1,0.6,0.1c0.6,0,1.4-0.5,2.5-1.5
				c0.1,0,0.3,0,0.3,0.1c0,0.1,0.1,0.1,0,0.3c-0.3,0.8-0.8,1.5-1.5,2c-0.8,0.6-1.5,0.9-2.4,0.9c-0.5,0-1-0.1-1.5-0.4
				c-0.4,0.3-0.8,0.5-1.1,0.8c-0.5,0.3-0.9,0.4-1.3,0.4c-0.1,0-0.4,0-0.5-0.1c-0.3-0.1-0.6-0.3-1.3-0.6c-1,0.9-2.1,1.6-3.6,2.3
				c-0.5,0.3-1,0.6-1.4,1.3c-0.1,0.1-0.1,0.4-0.1,0.5c0.4,0.3,0.8,0.5,1.4,0.6c0.5,0.1,1,0.1,1.6,0.3l4.1,0.3l8.4,0.1
				c2,0,5-0.1,9-0.5c0.6-0.1,1.5-0.3,2.8-0.4c0.1,0.1,0,0.3-0.1,0.5c-0.4,0.4-1,0.8-1.6,1c-0.6,0.3-1.1,0.5-1.8,0.8
				c-1.8,0.6-4,1.1-6.5,1.4c-1,0.1-3.4,0.3-6.9,0.5c-2.6,0.1-4.5,0.3-5.4,0.3c-2.4,0-4.4-0.3-6-0.8c-0.9-0.4-1.5-0.9-1.6-1.5
				c0.3-1.4,1.1-2.9,2.9-4.5c0.9-0.9,2.1-1.8,3.8-2.5c0.3-0.3,0.5-0.5,0.9-1C426.2,124.2,426.5,123.9,426.7,123.7z"/>
			<path class="st1" d="M483.2,111.7L483.2,111.7c-0.4-0.3-1.6-1-3.8-2.4c-0.1-0.1-0.4-0.1-0.6-0.1c-0.5,0-1.1,0.5-2,1.4
				c-0.3,0.1-0.4,0-0.5-0.3c0.3-0.6,0.8-1.3,1.6-2.1c0.5-0.5,1-0.8,1.6-0.8c0.5,0,1.3,0.3,2.3,0.9c1.3,0.9,2,1.3,2.3,1.4
				c0.9,0.5,1.6,0.9,2.3,1c0,0.1,0,0.3,0,0.4c-1.3,0.8-2.4,1.5-3.6,2.4c-1.5,1-2.6,1.9-3.4,2.9c-0.9,1-1.8,2.3-2.5,3.8
				c-0.1,0.3-0.3,0.3-0.5,0.1c-0.1-0.3,0-0.6,0.3-1.3c0.4-0.8,0.5-1.5,0.5-2c0-0.6-0.1-1.1-0.5-1.5c-0.3-0.3-0.6-0.3-1.1-0.1
				c-1,0.4-1.6,0.9-2.3,1.6c-0.6,0.9-1.3,1.3-1.9,1.3c-0.3,0-0.6-0.1-1-0.4c-0.4-0.3-0.8-0.4-1.1-0.4c-0.3,0-0.4,0-0.6,0.1
				c-0.9,0.1-1.8,0.6-2.6,1.4v0.1c0.4,0.3,0.9,0.5,1.3,0.8c0.5,0.4,0.8,0.8,0.9,1.1c0,0.1,0,0.3,0,0.4c0,0.5-0.3,1-0.6,1.5
				c-0.1,0.1-0.6,0.6-1.4,1.3c-0.5,0.3-1.3,0.5-2.3,0.8c-1.1,0.3-1.9,0.4-2.3,0.6c-1,0.5-1.9,1.1-2.6,2c-0.9,0.9-1.3,1.9-1.4,2.9
				c-0.1,1-0.1,2.8-0.1,5.3l0.1,6.2c0,1.9-0.1,3.5-0.5,4.8c-0.1,0.1-0.3,0.3-0.4,0.3l-0.1-0.1c0-0.4-0.1-3.5-0.4-9.7
				c-0.1-1.8-0.1-2.9-0.1-3.4c0-3.9,0.9-6.8,2.6-8.7c1-1.1,2.3-2.1,3.8-2.9c0.8-1.3,1.3-2.1,1.6-2.5c0.6-0.9,1.4-1.6,2.1-2.1
				c0.8-0.5,1.3-0.9,1.6-1c0.6-0.4,1.3-0.6,1.9-0.6c0.3,0,0.5,0.1,0.9,0.4c0.4,0.3,0.6,0.4,1,0.4c0.4,0,0.9-0.3,1.3-0.6
				c0.4-0.4,0.8-0.8,1.1-1.1c1-1,1.9-1.5,2.5-1.5c0.3,0,0.5,0,0.8,0.1c0.6,0.3,0.9,0.8,1,1.5c0,0.4,0,0.8,0,1.1
				c0.5-0.6,1.3-1.4,2.3-2.4C481.1,112.9,482,112.4,483.2,111.7z M467.8,108.4l2.3-2.5h0.1c0.5,0.5,1.4,1.1,2.5,2
				c0.1,0.1,0.1,0.3-0.1,0.4l-1.9,2.1c-0.1,0.3-0.4,0.3-0.6,0.3c-1-0.5-1.8-1.1-2.4-2L467.8,108.4z M473.3,122.2
				c-0.4,0.6-0.8,1.3-1.1,1.9c-0.4,0.6-0.5,1.4-0.5,2.3c0,0.3,0.1,0.4,0.3,0.5c0.3,0,0.3,0,0.3,0c0.1-0.1,0.3-0.3,0.4-0.6
				c0.1-0.3,0.4-0.5,0.5-0.5c0.1,0,0.1,0,0.3,0.1c0.1,0.1,0.3,0.3,0.3,0.5s0.1,0.5,0.1,0.8c-0.1,0.5-0.4,1-0.8,1.5
				c-0.4,0.5-0.9,0.8-1.4,0.8c-0.4,0-0.8-0.3-1.1-0.8c-0.1-0.4-0.3-0.8-0.3-1.3c0-0.4,0.1-0.9,0.3-1.8c0.4-1.3,1.1-2.5,2.1-3.6
				c0.1-0.1,0.1-0.3,0.4-0.3C473.3,122,473.3,122.1,473.3,122.2z M479.5,122v-0.1c0.5-0.6,1.3-1.4,2.3-2.5h0.1
				c0.5,0.5,1.4,1.3,2.4,2.1c0,0,0,0.1,0,0.4c-0.5,0.5-1.1,1.3-2.1,2.3c-0.1,0-0.5-0.1-1-0.4c-0.5-0.4-0.8-0.6-1-0.8
				C479.8,122.6,479.6,122.4,479.5,122z"/>
		</g>
	</g>
	<g>
		<g>
			<path class="st1" d="M264.1,112.1c-4.1,2.6-6.2,6.7-6.2,12.2c0,2.1,0.5,4.1,1.4,6c1,2.4,2.5,4.1,4.5,5.4c0.3,0.1,0.4,0.4,0.4,0.5
				c0,0.3-0.3,0.4-0.9,0.1c-2.4-0.9-4.4-2.5-5.9-4.8c-1.5-2.3-2.3-4.8-2.3-7.3c0-2.9,0.9-5.4,2.5-7.9c1.6-2.4,3.8-4,6.2-4.9
				c0.4-0.1,0.5,0,0.5,0.3C264.4,111.8,264.2,111.9,264.1,112.1z"/>
			<path class="st1" d="M273.7,125.1c0.1,0.5,0.1,0.9,0.1,1.4c0,0.9-0.3,1.9-0.8,3c0,0.1-0.5,1-1.4,2.9c-0.1,0.3-0.4,0.5-0.8,0.9
				c-1,0.4-2.6,0.8-4.8,1.3c-0.1,0.1-0.3,0-0.4-0.3c0-0.1,0.4-0.4,1.1-0.9c0.5-0.4,1.3-0.8,2.4-1.4c1-0.5,1.8-1,2.4-1.5
				c0.4-0.4,0.4-1,0.3-1.8c-0.3-1-1-1.8-2.3-2.4c-0.1-0.1-0.1-0.3,0-0.4c0.1-0.1,0.1-0.3,0.3-0.4c0.3-0.9,0.5-1.9,1-3
				c0.6,0,1.1,0.4,1.6,0.9C273,124,273.4,124.5,273.7,125.1z"/>
			<path class="st1" d="M283.2,128.6c-0.1,1.1-0.8,2.5-1.8,4.3c-0.3,0.5-0.8,0.8-1.4,1c-0.5,0.1-1.1,0.3-1.8,0.4
				c-0.4,0.1-1,0.4-1.9,0.6c-0.3,0-0.4-0.1-0.4-0.3s0.1-0.4,0.4-0.5c0.9-0.5,1.8-1,2.6-1.5c1-0.6,1.8-1.3,2.5-1.9
				c0.3-0.3,0.3-0.6,0.3-1.1c-0.1-0.4-0.3-0.5-0.5-0.6c-0.3,0-0.4,0.1-0.6,0.1c-0.8,0-1.4-0.3-1.8-0.9c-0.1-0.3-0.3-0.5-0.3-0.9
				c0-0.4,0.1-0.8,0.3-1.1c0.1-0.4,0.4-0.8,0.5-1.1s0.3-0.8,0.4-1.3c0.3-0.5,0.5-0.8,1-1c0.8-0.1,1.4,0.1,1.8,0.9
				c0.5,0.9,0.8,1.8,0.8,2.9C283.5,127.4,283.3,128,283.2,128.6z M284.3,117L284.3,117c-0.1,0.3-0.4,0.6-0.9,1.1c-0.3,0-0.4,0-0.5,0
				c-0.9,0-1.8,0.4-2.3,1.1c-0.5,0.9-0.9,1.5-1.1,1.6c-0.5,0.6-1,1-1.5,1.3c-0.4,0.1-0.6,0.1-0.9,0.1c-0.4,0-0.8-0.1-1-0.4l0.1-0.3
				c0.4-0.6,0.9-1.4,1.6-2.4c0.3,0.1,0.5,0.3,0.8,0.3c0.4,0,0.6-0.1,1-0.4c0.5-0.5,1.1-1.4,2.1-2.5c0.9-0.9,1.8-1.4,2.6-1.4
				c0.3,0,0.4,0.1,0.6,0.3v0.3C284.8,116,284.6,116.3,284.3,117z"/>
			<path class="st1" d="M289.7,117.3c-0.1,0.4-0.1,1-0.3,1.8c-0.1,1-0.1,2.4-0.1,4.1c0,2,0,3.4-0.1,4.3c-0.1,1.8-0.5,3.5-1.4,5.4
				c-0.1,0.4-0.3,0.5-0.4,0.5c-0.1,0-0.1,0-0.3-0.1s-0.3-0.3-0.1-0.6c0.1-0.6,0.3-2.1,0.4-4.5c-0.1-1.9-0.3-4-0.1-6.4
				c0.4-1.3,1-2.6,1.9-4.4C289.4,117.1,289.5,117.1,289.7,117.3z"/>
			<path class="st1" d="M298.6,125.1c0.1,0.5,0.1,0.9,0.1,1.4c0,0.9-0.3,1.9-0.8,3c0,0.1-0.5,1-1.4,2.9c-0.1,0.3-0.4,0.5-0.8,0.9
				c-1,0.4-2.6,0.8-4.8,1.3c-0.1,0.1-0.3,0-0.4-0.3c0-0.1,0.4-0.4,1.1-0.9c0.5-0.4,1.3-0.8,2.4-1.4c1-0.5,1.8-1,2.4-1.5
				c0.4-0.4,0.4-1,0.3-1.8c-0.3-1-1-1.8-2.3-2.4c-0.1-0.1-0.1-0.3,0-0.4c0.1-0.1,0.1-0.3,0.3-0.4c0.3-0.9,0.5-1.9,1-3
				c0.6,0,1.1,0.4,1.6,0.9C298,124,298.4,124.5,298.6,125.1z"/>
			<path class="st1" d="M302.7,134.8L301,135c-0.1,0-0.1-0.1-0.3-0.3c0-0.1,0.1-0.4,0.3-0.4c0.1-0.1,0.4-0.3,0.5-0.3
				c0.5-0.4,1.4-0.8,2.5-1.3c1.1-0.5,2-1,2.6-1.4c0.5-0.5,0.8-0.9,0.8-1.3c0-0.1,0-0.3-0.1-0.4c-0.1-0.1-0.3-0.4-0.5-0.6
				c-0.9,0.1-1.5,0-2-0.4c-0.3-0.4-0.5-0.6-0.5-1.1c0-0.4,0.1-0.8,0.3-1.3c0.1-0.4,0.4-0.8,0.5-1.3c0.3-0.9,0.4-1.3,0.4-1.4
				c0.3-0.5,0.6-0.8,1.1-0.9c0.6-0.1,1.1,0.3,1.5,0.9c0.4,0.6,0.6,1.5,0.8,2.5h0.1c0.1-0.1,0.1-0.1,0.1-0.1c1.3-0.8,2-1.8,1.9-3
				c0-2.1,0-3.4,0-3.8c0.6-1.4,1.3-2.4,1.8-2.9l0.3,0.1c0,0.3-0.1,1.6-0.4,4.1c-0.1,1.8-0.5,3-1,4c-1,1.9-2,3.3-3,3.9
				c-0.3,1.5-0.8,3.1-1.6,4.6c-0.4,0.6-1,1.1-2,1.3C304.3,134.5,303.5,134.7,302.7,134.8z M308.3,135.9l1.8-2.1
				c0.1-0.1,0.1-0.1,0.3-0.1s0.3,0.1,0.5,0.3c0.3,0.1,0.4,0.3,0.5,0.3l1.6,1.1c0.1,0.3,0.1,0.4,0,0.4l-2,2.3h-0.1
				c-1.1-0.5-1.9-1.1-2.5-1.6C308.3,136.4,308.3,136.2,308.3,135.9z"/>
			<path class="st1" d="M319.1,117.3c-0.1,0.4-0.1,1-0.3,1.8c-0.1,1-0.1,2.4-0.1,4.1c0,2,0,3.4-0.1,4.3c-0.1,1.8-0.5,3.5-1.4,5.4
				c-0.1,0.4-0.3,0.5-0.4,0.5c-0.1,0-0.1,0-0.3-0.1s-0.3-0.3-0.1-0.6c0.1-0.6,0.3-2.1,0.4-4.5c-0.1-1.9-0.3-4-0.1-6.4
				c0.4-1.3,1-2.6,1.9-4.4C318.7,117.1,319,117.1,319.1,117.3z"/>
			<path class="st1" d="M322.6,112.1c-0.3-0.1-0.3-0.3-0.3-0.4c0-0.3,0.1-0.3,0.5-0.3c2.5,0.9,4.5,2.5,6.2,4.9
				c1.6,2.4,2.5,5,2.5,7.9c0,2.6-0.8,5-2.3,7.3c-1.5,2.3-3.5,3.9-5.9,4.8c-0.5,0.3-0.9,0.1-0.9-0.1c0-0.1,0.1-0.3,0.4-0.5
				c2-1.3,3.5-3,4.5-5.4c0.9-2,1.4-4,1.4-6C328.8,118.7,326.7,114.6,322.6,112.1z"/>
		</g>
	</g>
</g>
<g>
	<g>
		<path class="st0" d="M327.4,172.1l0.1-0.4c2-3.3,4.3-5,6.9-4.9c0.4,0,0.9,0.3,1.6,0.6c0.6,0.4,1.3,0.5,1.8,0.5
			c0.3,0,0.4,0,0.6-0.1c0.6-0.1,1.4-0.5,2.3-1.3c0.9-1,1.6-1.5,2-1.8c0.3-0.1,0.6,0,1.1,0.3c0.5,0.3,0.8,0.4,1,0.4
			c0.3,0,0.5-0.1,0.8-0.4c0.4-0.4,0.8-0.9,1.4-1.6c0.1,0,0.3,0,0.4,0.1c-0.1,1-0.9,2-2.1,3.1c-0.6,0.5-1.3,0.6-1.9,0.5
			c-0.1,0-0.3-0.1-0.6-0.3c-0.3-0.1-0.5-0.3-0.8-0.3c-0.1,0.1-0.8,0.8-2.3,2.1c-0.9,0.9-1.8,1.5-2.5,1.8c-0.5,0.4-1.1,0.5-1.8,0.5
			c-1,0-2-0.3-2.9-0.9c-0.3-0.1-0.6-0.1-0.9-0.1c-1.1,0-2.4,0.8-3.8,2.3C327.5,172.2,327.4,172.1,327.4,172.1z M334.8,175.2l1.4-1.5
			l0.3,0.1c0.8,0.6,1.6,1.4,2.5,2v0.3c-0.4,0.6-1.1,1.4-2.1,2.4c-0.4,0.1-0.9-0.1-1.5-0.6c-0.4-0.3-0.8-0.6-1.4-1.3
			C333.9,176.2,334.3,175.8,334.8,175.2z M339.5,158.6l2.3-2.5h0.3c0.9,0.9,1.8,1.6,2.4,2c0,0.1,0,0.1,0.1,0.1c0.4-0.5,1-1.1,1.8-2
			h0.3c0.5,0.5,1.3,1.1,2.4,2c0.1,0.1,0.1,0.3,0,0.5l-2,2.1c-0.1,0.1-0.3,0.1-0.4,0.1s-0.3,0-0.5-0.1c-0.3-0.3-0.5-0.3-0.5-0.3
			c-0.9-0.6-1.4-1.1-1.6-1.6c-0.4,0.5-1,1-1.9,1.9c-0.4-0.1-0.9-0.3-1.3-0.6c-0.4-0.4-0.8-0.6-1.1-1
			C339.5,159,339.3,158.8,339.5,158.6z"/>
		<path class="st0" d="M367,156.5l0.4,0.1c0.6,0.3,1.3,0.6,1.9,0.9c0.8,0.4,1.1,1,1.1,1.6c0,0.6-0.3,1.4-0.9,2
			c-0.5,0.6-1.1,1-1.8,1.3c-1.5,0.3-2.3,0.3-2.4,0.3c-0.9,0.3-1.5,0.5-2,1.1c-1.1,1-2.3,2.4-3.4,4.4c-1.5,2.5-2.6,4-3,4.6
			c-1.4,1.8-3.5,3.3-6.3,4.5c-0.4,0.1-0.6,0.1-0.8,0.1c-0.1-0.1-0.1-0.1-0.1-0.3c0.6-0.4,1.4-1,2.5-1.8c2.9-2.1,4.6-4.1,5.5-6
			c1-2.4,1.8-3.9,2.3-4.6c1-1.6,2.1-3,3.5-3.9l1.6-1c0.3-0.5,0.6-1.1,0.9-1.8C366.2,157.4,366.6,156.9,367,156.5z"/>
		<path class="st0" d="M402.6,163.2c-0.3,1.4-0.9,2.6-1.9,3.8s-2.1,2-3.5,2.4c-3.5,1.1-7,1.6-10.4,1.6c-1.8,0-3.4-0.1-4.9-0.4
			c-1.4-0.3-2.1-0.9-2.4-1.9c-0.1-0.5-0.1-1-0.1-1.6c0-0.9,0.1-2,0.5-3.6c0,0,0-0.1,0.1-0.1c0-0.1,0.1-0.1,0.1-0.1
			c0.3,0,0.4,0.1,0.4,0.3c0,0.5,0,1.1,0,1.6c0,0.6,0.4,1.1,0.9,1.3c1.8,0.8,4.6,1,8.5,1c3.9,0,7.2-0.5,9.7-1.4
			c1.3-0.4,2.1-1.3,2.8-2.6C402.4,163.2,402.5,163.2,402.6,163.2C402.6,162.9,402.6,163,402.6,163.2z M390.8,160.7L390.8,160.7
			c0.5-0.5,1-1.1,1.8-2c0.3,0.1,0.6,0.4,1.1,0.8c0.5,0.4,0.8,0.6,1,0.8c0.3,0.1,0.4,0.4,0.8,0.6c-0.3,0.4-0.8,1.3-1.9,2.5
			c-0.1,0.3-0.4,0.4-0.6,0.3c-1-0.4-1.8-1-2.5-1.9h-0.1c-0.4,0.5-0.9,1.1-1.8,2c-0.3,0-0.6-0.1-1.1-0.5c-0.4-0.3-1-0.8-1.8-1.5v-0.3
			c0.5-0.6,1.1-1.5,2.1-2.6l0.1,0.1C388.7,159.1,389.7,159.8,390.8,160.7z"/>
		<path class="st0" d="M405.6,164v-7.4c0-1,0-1.8,0.1-2.4c0.3-0.6,0.6-1.5,1-2.8c0-0.1,0.1-0.3,0.3-0.1c0.1,0,0.3,0.1,0.3,0.3
			c-0.3,2.1-0.4,4.4-0.4,6.7c0,2.3,0.1,4.4,0.4,6.4c0.3,1.3,0.8,2,1.5,2.3c0.3,0,0.4,0.1,0.6,0.1c1.4,0,2.4-0.6,3.4-2
			c0.3-0.4,0.5-0.6,0.8-1s0.6-0.6,1-0.6c0.4,0,1,0,1.8,0c0.3-0.1,0.6-0.5,1-1.3c0.4-0.6,0.9-0.9,1.4-0.9c0.1,0,0.3,0,0.5,0.1
			c0.3,0,0.4,0.1,0.5,0.1c0.4,0,0.6-0.1,0.8-0.4c0.1-0.1,0.3-0.4,0.4-0.8c0.1-0.3,0.3-0.5,0.4-0.6c0.3,0,0.4,0.1,0.4,0.3
			c-0.4,1.5-0.9,2.5-1.5,3.1c-0.1,0.1-0.4,0.1-0.6,0.3c-0.3,0-0.5,0-0.8,0c-0.5,0-0.8,0-0.8,0l-0.3,0.1c-0.3,0.5-0.6,1-0.9,1.5
			c-0.4,0.5-0.9,0.8-1.5,0.8c-0.1,0-0.4,0-0.6-0.1c-0.3-0.1-0.5-0.1-0.5-0.1c-0.3,0-0.4,0.1-0.5,0.3c-0.4,0.8-0.8,1.5-1.1,2.3
			c-0.5,0.9-0.9,1.6-1.4,2.1c-0.9,0.6-1.6,1-2.3,1c-0.3,0-0.6,0-0.9-0.1c-0.8-0.4-1.3-0.9-1.6-1.8c-0.3-0.5-0.4-1.3-0.6-2.4
			L405.6,164z"/>
	</g>
</g>
</svg>
