<?xml version="1.0" encoding="utf-8"?>
<!-- Generator: Adobe Illustrator 19.2.1, SVG Export Plug-In . SVG Version: 6.00 Build 0)  -->
<svg version="1.1" id="Layer_1_copy" xmlns="http://www.w3.org/2000/svg" xmlns:xlink="http://www.w3.org/1999/xlink" x="0px"
	 y="0px" viewBox="0 0 771 299" style="enable-background:new 0 0 771 299;" xml:space="preserve">
<style type="text/css">
	.st0{fill:#F7931E;}
	.st1{fill:#FFFF00;}
</style>
<g>
	<g>
		<path class="st0" d="M34.7,58.5c0,0.5,0,1,0,1.3c0,0.4-0.1,0.6-0.1,0.9c-0.1,0.3-0.3,0.5-0.4,0.8c-0.1,0.3-0.3,0.5-0.4,0.9
			c-1,0.3-2.1,0.6-3.1,1.2c-1,0.5-1.9,0.9-3,1.4c-1,0.5-1.9,0.9-3,1.3c-0.9,0.4-1.9,0.6-3,0.8c-0.1-0.4-0.1-0.6-0.1-0.8
			c0-0.3,0-0.4,0-0.6s0.1-0.5,0.1-0.8s0-0.6,0-1.2c1.2-0.3,2.2-0.8,3.2-1.3c1-0.5,2.1-1.2,3.1-1.7c1-0.5,2.1-1,3.1-1.4
			C32.4,58.7,33.5,58.5,34.7,58.5z"/>
		<path class="st0" d="M40,95.3h4c0.5,0,1,0.1,1.6,0.3c0.4,0.3,0.8,0.4,1,0.8s0.5,0.6,0.6,1s0.3,0.8,0.3,1s0,0.6-0.1,1
			c-0.1,0.4-0.3,0.8-0.6,1s-0.6,0.5-1,0.8c-0.4,0.3-1,0.3-1.6,0.3h-3.2v0.4c0,0.4,0,0.8,0,1.2s0,0.9-0.1,1.3c0,0.4-0.1,0.9-0.1,1.3
			s-0.1,0.8-0.3,1c-0.5,2.1-1.4,3.9-2.6,5.6c-1.2,1.7-2.7,3-4.3,4.1c-1.7,1.2-3.5,1.9-5.4,2.6c-1.9,0.6-3.9,0.9-5.8,0.9
			c-1.7,0-3.2-0.3-4.8-0.6s-3-1.2-4.1-2.1c-1.3-0.9-2.3-2.2-3.2-3.6c-0.9-1.4-1.4-3.2-1.8-5.2c-0.1-1.3-0.3-2.5-0.3-3.8
			c0-1.6,0.1-3,0.4-4.4c0.3-1.4,0.6-2.9,1.2-4.1c0.5-1.3,1.2-2.5,2.1-3.4c0.8-1,1.8-1.8,2.9-2.5v0.4c0,0.8-0.3,1.4-0.6,2.2
			c-0.4,0.6-0.8,1.4-1.3,2.1c-0.5,0.8-1,1.4-1.4,2.2s-0.8,1.7-0.9,2.6c-0.1,0.4-0.1,0.9-0.1,1.3s0,0.9,0,1.3c0,1,0.1,2.1,0.4,3.1
			c0.3,1,0.5,1.9,1,2.9c0.4,0.9,1,1.7,1.7,2.3c0.6,0.6,1.6,1.3,2.6,1.7c0.9,0.4,1.9,0.8,3,0.9c1,0.3,2.1,0.3,3.2,0.3
			c1.7,0,3.5-0.3,5.2-0.6s3.4-1,4.8-1.8c1.4-0.8,2.7-1.7,3.9-2.9c1-1,1.8-2.3,2.3-3.6c-0.4-0.5-0.8-0.9-1-1c-0.4-0.1-0.6-0.3-1-0.3
			s-0.6,0-1,0.1c-0.4,0.1-0.8,0.1-1.3,0.1c-0.4,0-0.8,0-1.2-0.1c-0.8-0.3-1.4-0.6-1.9-1.2c-0.5-0.5-1-1.3-1.3-2.1
			c-0.4-0.8-0.6-1.7-0.8-2.5c-0.1-0.9-0.3-1.8-0.3-2.7c0-0.6,0-1.4,0.1-2.1c0.1-0.6,0.3-1.3,0.4-1.8c0.3-0.5,0.4-1,0.8-1.4
			c0.3-0.4,0.6-0.8,1-0.9c0.5-0.3,1-0.5,1.6-0.6c0.5-0.1,1-0.3,1.6-0.3c0.9,0,1.7,0.3,2.5,0.6c0.8,0.4,1.4,1,1.9,1.7
			c0.5,0.8,1,1.6,1.3,2.5C39.6,93.4,39.9,94.3,40,95.3z M39.1,82.3c-0.3,0-0.4,0.1-0.6,0.1c-0.1,0-0.4,0-0.5,0c-0.5,0-1-0.1-1.6-0.3
			c-0.5-0.3-0.9-0.4-1.3-0.6c-0.4-0.3-0.9-0.5-1.3-0.8c-0.5-0.3-1-0.4-1.6-0.5c-0.4,0-0.8,0.3-0.9,0.5c-0.1,0.3-0.4,0.6-0.5,0.9
			c-0.1,0.4-0.3,0.6-0.5,1c-0.1,0.3-0.5,0.5-0.9,0.6c-0.6,0-1.2-0.1-1.7-0.3c-0.5-0.1-0.9-0.3-1.4-0.5s-0.8-0.4-1.2-0.6
			c-0.4-0.3-0.8-0.5-1.2-0.6v-0.1c0-1,0.1-1.8,0.3-2.6c0.1-0.8,0.4-1.6,0.5-2.3l0.1-0.3c0.1,0,0.3,0,0.3,0c0.1,0,0.1,0,0.3,0
			c0.4,0,0.9,0.1,1.4,0.3c0.5,0.1,0.9,0.3,1.4,0.5c0.5,0.3,0.9,0.4,1.4,0.6c0.5,0.3,0.9,0.4,1.3,0.5c0.4,0,0.8-0.1,1-0.4
			c0.3-0.3,0.5-0.4,0.6-0.8c0.1-0.4,0.3-0.6,0.4-0.9c0.1-0.4,0.3-0.6,0.4-1c0.9,0,1.8,0.1,2.6,0.4s1.4,0.5,2.1,0.9
			c0.6,0.4,1,0.9,1.3,1.6c0.4,0.6,0.5,1.3,0.5,2.1C39.9,80.3,39.6,81.2,39.1,82.3z"/>
		<path class="st0" d="M53.1,49.7c0,0.5,0,1,0,1.3c0,0.4-0.1,0.6-0.1,0.9c-0.1,0.3-0.3,0.5-0.4,0.8s-0.3,0.5-0.4,0.9
			c-1,0.3-2.1,0.6-3.1,1.2c-1,0.5-1.9,0.9-3,1.4c-1,0.5-1.9,0.9-3,1.3c-0.9,0.4-1.9,0.6-3,0.8C40,57.8,40,57.6,40,57.4
			c0-0.3,0-0.4,0-0.6s0.1-0.5,0.1-0.8s0-0.6,0-1.2c1.2-0.3,2.2-0.8,3.2-1.3s2.1-1.2,3.1-1.7c1-0.5,2.1-1,3.1-1.4
			C50.8,49.9,52,49.7,53.1,49.7z"/>
		<path class="st0" d="M43.7,101.5c-0.9-0.3-1.6-0.6-2.1-1.2c-0.4-0.5-0.6-1.2-0.6-1.8c0-0.6,0.3-1.3,0.6-1.9c0.5-0.6,1.2-1,1.9-1.3
			c1.2-0.1,2.3-0.3,3.2-0.3s1.7-0.3,2.5-0.5c0.6-0.3,1.2-0.6,1.6-1c0.4-0.5,0.6-1.2,0.8-2.2c0-0.9-0.1-1.9-0.4-3.1
			c-0.3-1.2-0.5-2.3-0.8-3.5c-0.3-1.3-0.6-2.6-1-3.9s-0.6-2.7-1-4c-0.3-1.3-0.5-2.7-0.8-4c-0.3-1.3-0.3-2.6-0.3-3.8
			c0-0.8,0.1-1.6,0.4-2.2c0.3-0.8,0.4-1.4,0.6-2.1h0.9c0.5,1.3,0.9,2.7,1.3,4.1c0.4,1.4,0.8,3.1,1,4.8c0.4,1.7,0.6,3.2,1,4.9
			s0.8,3.4,1.3,4.9s1,3.1,1.7,4.4s1.4,2.6,2.3,3.6c0.9,1,1.9,1.9,3.1,2.6c1.2,0.6,2.6,1,4.1,1.2h0.6c1,0.1,1.7,0.5,2.2,1.2
			c0.5,0.6,0.6,1.3,0.6,1.9c0,0.8-0.3,1.4-0.8,1.9c-0.5,0.5-1.2,1-2.1,1.3c0,0-0.3,0-0.6,0c-2.2-0.1-4.1-0.4-5.7-1
			c-1.6-0.6-2.7-1.2-3.5-1.6c-0.8-0.4-1.4-0.9-2.1-1.4c-0.5,0.6-1,1.3-1.7,1.7c-0.6,0.5-1.8,1-3.2,1.6
			C47.7,101.3,45.9,101.5,43.7,101.5z"/>
		<path class="st0" d="M90.7,59.6c0,0.5,0,1,0,1.3c0,0.4-0.1,0.6-0.1,0.9c-0.1,0.3-0.3,0.5-0.4,0.8c-0.1,0.3-0.3,0.5-0.4,0.9
			c-1,0.3-2.1,0.6-3.1,1.2s-1.9,0.9-3,1.4c-1,0.5-1.9,0.9-3,1.3c-0.9,0.4-1.9,0.6-3,0.8c-0.1-0.4-0.1-0.6-0.1-0.8c0-0.3,0-0.4,0-0.6
			s0.1-0.5,0.1-0.8c0-0.3,0-0.6,0-1.2c1.2-0.3,2.2-0.8,3.2-1.3c1-0.5,2.1-1.2,3.1-1.7c1-0.5,2.1-1,3.1-1.4
			C88.4,59.9,89.4,59.6,90.7,59.6z"/>
		<path class="st0" d="M65.4,101.5c-0.8-0.4-1.3-0.8-1.6-1.3c-0.3-0.5-0.5-1.2-0.5-1.8s0.1-1.2,0.5-1.8c0.4-0.6,0.9-1,1.6-1.4h1.9
			c0.8,0,1.7,0,2.6-0.1c1-0.1,2.1-0.3,3.1-0.5c1-0.3,2.2-0.5,3.4-0.9c1.2-0.4,2.2-0.9,3.2-1.4c-0.4-0.5-0.8-0.9-1.4-1.4
			c-0.6-0.5-1.2-0.8-1.9-1s-1.4-0.5-2.3-0.6c-0.8-0.1-1.6-0.3-2.5-0.3c-1,0-2.1,0.1-3.1,0.4s-1.8,0.6-2.5,1.3
			c0.4-1.2,0.8-2.1,1.3-2.9s1-1.4,1.7-1.8c0.6-0.5,1.3-0.8,2.1-1s1.6-0.3,2.3-0.3c1.2,0,2.3,0.1,3.5,0.5c1.3,0.3,2.6,0.6,3.9,1.2
			c1.3,0.5,2.7,0.9,4.1,1.6c1.4,0.5,2.9,1,4.3,1.6c1.4,0.5,2.9,0.9,4.3,1.2s2.7,0.5,4.1,0.5h0.6c0.3,0.5,0.3,1,0.3,1.7
			c0,0.8-0.1,1.4-0.4,2.1c-0.3,0.6-0.6,1.2-1,1.6H97c-0.1,0.1-0.3,0.3-0.3,0.3h-0.1h-0.1h-0.1c-0.9,0-1.8,0-3,0c-1.2,0-2.3,0-3.5,0
			c-1.3,0-2.7,0-4,0.1c-1.3,0.1-2.6,0.3-3.6,0.6c-1,0.3-2.1,0.6-3.1,1.2c-1.2,0.5-2.3,0.9-3.5,1.4c-1.3,0.5-2.5,0.9-3.8,1.2
			c-1.3,0.4-2.6,0.5-3.9,0.5h-2.5V101.5z M83.9,76c1.2,0.1,2.1,0.4,2.9,0.8c0.8,0.4,1.4,0.9,2.1,1.6c0,1-0.1,1.9-0.4,2.9
			c-0.3,0.9-0.5,1.6-1.2,1.9h-0.4c-1.9,0-3.4-0.6-4.1-1.8c0-0.5,0.1-1,0.1-1.6c0-0.5,0-0.9,0.1-1.4c0-0.4,0.1-0.9,0.3-1.3
			C83.3,76.8,83.6,76.4,83.9,76z"/>
		<path class="st0" d="M125,95.3c0.8,0,1.4,0.1,1.9,0.4s0.9,0.5,1.3,0.8c0.4,0.3,0.6,0.6,0.8,1c0.1,0.4,0.3,0.8,0.3,1
			c0,0.4-0.1,0.8-0.4,1.2c-0.3,0.4-0.5,0.6-0.9,1c-0.4,0.4-0.8,0.5-1.3,0.6c-0.5,0.1-1,0.3-1.6,0.3h-1.7c-1.9,0-3.5-0.3-4.9-0.6
			c-1.3-0.4-2.5-1-3.4-1.8c-0.9-0.8-1.7-1.9-2.2-3.1c-0.5-1.2-1-2.7-1.3-4.5c-0.4-2.1-0.8-4.3-1.3-6.5c-0.4-2.2-0.8-4.5-1.2-7
			c-0.1-1.2-0.4-2.3-0.6-3.5c-0.3-1.2-0.5-2.5-0.8-3.6c-0.3-1.2-0.5-2.3-0.6-3.5c-0.1-1.2-0.3-2.3-0.3-3.4c0-0.9,0.1-1.8,0.3-2.6
			c0.1-0.8,0.4-1.7,0.9-2.3c0.8-0.3,1.4-0.4,2.2-0.4c0.9,0,1.8,0.1,2.6,0.5s1.4,0.9,2.1,1.6c0.6,0.6,1.2,1.3,1.6,2.2
			c0.4,0.8,0.8,1.7,1,2.5c-0.5,0-1-0.1-1.6-0.4c-0.4-0.3-0.9-0.5-1.3-0.8c-0.4-0.3-0.8-0.5-1.2-0.8c-0.4-0.3-0.9-0.4-1.3-0.4
			c-0.3,0-0.6,0-1,0.1c-0.1,0.4-0.3,0.9-0.4,1.4c-0.1,0.5-0.1,1-0.1,1.7c0,1.2,0.1,2.3,0.4,3.6c0.3,1.3,0.5,2.6,0.8,4
			s0.6,2.7,0.9,4.1c0.4,1.4,0.6,2.9,0.8,4.1c0,0.3,0.1,0.5,0.1,0.8s0.1,0.5,0.1,0.6c0.1,1.2,0.4,2.3,0.5,3.4c0.1,1,0.4,1.9,0.6,2.9
			c0.3,0.9,0.6,1.6,1,2.3c0.4,0.6,1,1.3,1.7,1.7c0.6,0.4,1.6,0.8,2.5,1c1,0.3,2.2,0.4,3.5,0.4h1.4V95.3z"/>
		<path class="st0" d="M139.9,70.1c0,0.5,0,1,0,1.3c0,0.4-0.1,0.6-0.1,0.9c-0.1,0.3-0.3,0.5-0.4,0.8c-0.1,0.3-0.3,0.5-0.4,0.9
			c-1,0.3-2.1,0.6-3.1,1.2s-1.9,0.9-3,1.4s-1.9,0.9-3,1.3c-0.9,0.4-1.9,0.6-3,0.8c-0.1-0.4-0.1-0.6-0.1-0.8c0-0.3,0-0.4,0-0.6
			c0-0.3,0.1-0.5,0.1-0.8c0-0.3,0-0.6,0-1.2c1.2-0.3,2.2-0.8,3.2-1.3c1-0.5,2.1-1.2,3.1-1.7s2.1-1,3.1-1.4
			C137.6,70.4,138.6,70.1,139.9,70.1z"/>
		<path class="st0" d="M124.7,101.5c-0.5,0-0.9-0.1-1.3-0.3c-0.4-0.3-0.6-0.4-0.8-0.8c-0.3-0.3-0.4-0.6-0.4-1
			c-0.1-0.4-0.1-0.8-0.1-1.2c0-0.4,0-0.8,0.1-1.2c0.1-0.4,0.3-0.6,0.5-1c0.3-0.4,0.5-0.5,0.8-0.6c0.3-0.1,0.6-0.3,1.2-0.3
			c1.3,0,2.6-0.3,3.8-0.5c1.2-0.3,2.5-0.6,3.5-1.2c1.2-0.4,2.2-0.9,3.1-1.4c0.9-0.5,1.8-1.2,2.6-1.7c0.5-0.4,1-0.9,1.4-1.4
			c0.5-0.5,0.9-1,1.4-1.6c0.5-0.5,1-0.9,1.7-1.3c0.6-0.4,1.3-0.5,2.1-0.5c0.6,0,1.2,0.1,1.8,0.5c0.5,0.4,1,0.8,1.4,1.3
			c0.4,0.5,0.8,1.2,1,1.9c0.3,0.8,0.5,1.6,0.6,2.3c0.1,0.8,0.3,1.6,0.4,2.5c0.1,0.9,0.1,1.7,0.1,2.5c0,0.6,0,1.3-0.1,1.8
			c-0.1,0.6-0.3,1.2-0.6,1.6c-0.3,0.4-0.6,0.8-1.2,1c-0.5,0.3-1.2,0.4-1.9,0.4c-0.4,0-0.8,0-1.2-0.1c-0.8-0.1-1.6-0.4-2.3-0.6
			c-0.8-0.4-1.7-0.6-2.5-1c-0.8-0.4-1.6-0.8-2.3-1c-0.8-0.3-1.6-0.6-2.2-0.8c-0.4,0.4-0.9,0.8-1.7,1.3c-0.8,0.4-1.7,0.9-2.6,1.3
			c-0.9,0.4-2.1,0.6-3.1,0.9C126.7,101.4,125.6,101.5,124.7,101.5z M142.5,92.6c0.1,0.6,0.4,1.2,0.8,1.6c0.4,0.4,0.9,0.5,1.6,0.5
			c0.3,0,0.4,0,0.6,0c0.3,0,0.4,0,0.6-0.1c0-0.8-0.3-1.3-0.8-1.6c-0.5-0.3-1-0.4-1.7-0.4c-0.3,0-0.4,0-0.6,0
			C142.7,92.6,142.7,92.6,142.5,92.6z"/>
		<path class="st0" d="M176.6,116.3c0,0.5,0,1,0,1.3c0,0.4-0.1,0.6-0.1,0.9c-0.1,0.3-0.3,0.5-0.4,0.8c-0.1,0.3-0.3,0.5-0.4,0.9
			c-1,0.3-2.1,0.6-3.1,1.2c-1,0.5-1.9,0.9-3,1.4c-1,0.5-1.9,0.9-3,1.3c-0.9,0.4-1.9,0.6-3,0.8c-0.1-0.4-0.1-0.6-0.1-0.8
			c0-0.3,0-0.4,0-0.6c0-0.3,0.1-0.5,0.1-0.8c0-0.3,0-0.6,0-1.2c1.2-0.3,2.2-0.8,3.2-1.3c1-0.5,2.1-1.2,3.1-1.7s2.1-1,3.1-1.4
			C174.3,116.6,175.4,116.4,176.6,116.3z"/>
		<path class="st0" d="M172.2,67.9c-0.1,0.4-0.1,0.6-0.1,1s0,0.6,0,1c0,0.5,0,0.9,0.1,1.3c0.1,0.4,0.3,0.8,0.4,1.2
			c0.3,0.4,0.5,0.6,0.8,0.8c0.4,0.1,0.8,0.3,1.3,0.3c0.1,0,0.3,0,0.3,0s0.1,0,0.3,0c0.1-0.3,0.3-0.5,0.4-0.6
			c0.1-0.1,0.1-0.5,0.1-0.8l-0.4-2.9c0-0.3,0-0.5,0.1-0.8c0.1-0.3,0.3-0.5,0.4-0.8c0.6,0.5,1.2,1.2,1.6,1.9c0.4,0.8,0.5,1.7,0.5,2.6
			c0,0.5-0.1,1.2-0.3,1.7c-0.1,0.5-0.4,1-0.6,1.4c-0.3,0.4-0.6,0.8-1,1s-0.9,0.4-1.4,0.4c-0.4,0-0.8,0-1.2-0.1s-0.9-0.4-1.4-0.6
			c-1,0.8-1.9,1.2-3,1.2c-0.6,0-1.2-0.1-1.7-0.4c-0.5-0.3-0.9-0.5-1.3-0.9c-0.4-0.4-0.6-0.9-0.9-1.4c-0.3-0.5-0.4-1-0.4-1.7
			c0-0.5,0.1-1.2,0.4-1.7c0.3-0.6,0.6-1.2,1.2-1.7c0,0.4,0.1,0.9,0.1,1.6c0,0.5,0,1,0.1,1.6c0.1,0.5,0.3,0.9,0.5,1.3
			c0.3,0.4,0.6,0.5,1,0.5c0.5,0,0.9-0.1,1.2-0.3c0.3-0.3,0.5-0.5,0.6-0.8c0.1-0.4,0.3-0.8,0.3-1.2s0-0.9,0-1.3v-0.1c0-0.4,0-0.6,0-1
			c0-0.3,0-0.6,0.1-0.9s0.1-0.4,0.3-0.6c0.1-0.1,0.4-0.3,0.6-0.3C171.4,67.7,171.8,67.8,172.2,67.9z"/>
		<path class="st0" d="M177,86.9c0.6,0,1,0.3,1.3,0.8c0.3,0.5,0.4,1,0.4,1.7c0,0.4,0,0.8-0.1,1c-0.1,0.3-0.3,0.6-0.4,0.9
			c-0.1,0.3-0.3,0.5-0.5,0.6c-0.3,0.1-0.4,0.3-0.6,0.3c-0.5,0.3-1,0.4-1.4,0.8c-0.4,0.3-0.9,0.5-1.3,0.9c0.4,1.8,0.6,3.4,0.6,4.9
			c0,1.7-0.3,3.2-0.8,4.5c-0.5,1.3-1.2,2.6-1.9,3.6c-0.8,1-1.8,1.9-3,2.7s-2.5,1.4-3.8,1.8c-1.3,0.4-2.7,0.8-4.3,1
			c-1.4,0.3-3,0.4-4.5,0.4c-2.1,0-4-0.3-6-0.6c0.9-0.6,1.8-1.2,2.7-1.6c0.9-0.4,1.9-0.8,3-1.2s2.1-0.6,3.2-1s2.3-0.6,3.5-1.2
			c0.4-0.1,1-0.4,1.7-0.6c0.6-0.3,1.3-0.6,1.9-0.9c0.6-0.4,1.4-0.8,2.1-1.2c0.6-0.4,1.3-0.9,1.8-1.3c0.5-0.5,1-0.9,1.4-1.4
			c0.4-0.5,0.6-0.9,0.6-1.4c0-0.3,0.1-0.6,0.1-0.9c0-0.5-0.1-1.2-0.3-1.7c-0.1-0.6-0.3-1.2-0.5-1.8c-0.3-0.6-0.3-1.2-0.5-1.8
			c-0.3-0.6-0.3-1.2-0.3-1.7c0-0.6,0.1-1.3,0.4-1.8s0.8-1.2,1.4-1.8c0.5-0.4,1-0.8,1.7-1.2C175.4,87.4,176.3,87.1,177,86.9z"/>
		<path class="st0" d="M196.8,49.3c0,0.5,0,1,0,1.3c0,0.4-0.1,0.6-0.1,0.9c-0.1,0.3-0.3,0.5-0.4,0.8c-0.1,0.3-0.3,0.5-0.4,0.9
			c-1,0.3-2.1,0.6-3.1,1.2s-1.9,0.9-3,1.4c-1,0.5-1.9,0.9-3,1.3c-0.9,0.4-1.9,0.6-3,0.8c-0.1-0.4-0.1-0.6-0.1-0.8c0-0.3,0-0.4,0-0.6
			s0.1-0.5,0.1-0.8s0-0.6,0-1.2c1.2-0.3,2.2-0.8,3.2-1.3c1-0.5,2.1-1.2,3.1-1.7s2.1-1,3.1-1.4C194.5,49.4,195.6,49.3,196.8,49.3z"/>
		<path class="st0" d="M177,92.2c-0.6-0.1-1-0.4-1.3-0.9c-0.3-0.5-0.4-1-0.4-1.7c0-0.6,0.1-1.2,0.4-1.7c0.3-0.5,0.8-0.9,1.3-1.2
			c1.3-0.5,2.9-1,4.3-1.3c1.6-0.3,3-0.5,4.4-0.6v1.6c0,0.4,0,0.6,0,0.9s0,0.5,0,0.8c0,0.3,0,0.5-0.1,0.8c0,0.3-0.1,0.5-0.1,0.9
			c-0.4,0.4-0.8,0.6-1.3,0.9c-0.5,0.3-1,0.4-1.4,0.6c0,0.8,0.1,1.3,0.4,1.8s0.4,0.9,0.8,1.3c0.3,0.3,0.6,0.5,1,0.6s0.8,0.3,1.3,0.3
			c0.6,0,1.3-0.1,1.9-0.4c0.6-0.3,1.3-0.5,1.8-1c0.5-0.4,1-0.9,1.4-1.4c0.4-0.5,0.6-1.2,0.8-1.8c0.3,0.4,0.5,0.9,0.9,1.4
			c0.4,0.5,0.6,0.9,1,1.3s0.9,0.6,1.3,0.9c0.5,0.3,1,0.4,1.6,0.4c0.3,0,0.5,0,0.9-0.1c0.3-0.3,0.4-0.5,0.5-0.8
			c0.1-0.3,0.1-0.6,0.1-1c0-0.4,0-0.8-0.1-1.3c0-0.4-0.1-0.9-0.1-1.3c0-0.4,0-0.6,0.1-1c0.1-0.4,0.3-0.5,0.6-0.6
			c0.8,0.8,1.3,1.8,1.7,3c0.4,1.2,0.5,2.5,0.5,3.8c0,0.8,0,1.6-0.1,2.3c-0.1,0.8-0.3,1.6-0.5,2.3c-0.4,0.3-0.9,0.5-1.3,0.6
			c-0.5,0.1-0.9,0.3-1.4,0.3c-0.5,0-1.2-0.1-1.7-0.3c-0.5-0.1-1.2-0.4-1.7-0.6c-0.5-0.3-1-0.5-1.4-0.9c-0.5-0.3-0.9-0.6-1.2-0.9
			c-0.3,0.4-0.5,0.8-0.9,1c-0.4,0.3-0.8,0.6-1.2,0.9s-0.8,0.5-1.3,0.8c-0.4,0.3-0.9,0.4-1.3,0.6H187c-1,0-1.9-0.3-2.6-0.6
			c-0.6-0.4-1.2-0.9-1.6-1.7c-0.4-0.8-0.6-1.4-0.8-2.3c-0.1-0.9-0.3-1.7-0.3-2.6c0-0.4,0-0.8,0-1.2c0-0.4,0-0.8,0.1-1
			c-0.4-0.4-0.6-0.6-1-0.8c-0.4-0.1-0.8-0.3-1-0.3c-0.4,0-0.9,0.1-1.3,0.3S177.5,91.9,177,92.2z M200.1,81c-0.3,0-0.4,0.1-0.6,0.1
			c-0.1,0-0.4,0-0.5,0c-0.5,0-1-0.1-1.6-0.3s-0.9-0.4-1.3-0.6c-0.4-0.3-0.9-0.5-1.3-0.8c-0.5-0.3-1-0.4-1.6-0.5
			c-0.4,0-0.8,0.3-0.9,0.5s-0.4,0.6-0.5,0.9c-0.1,0.4-0.3,0.6-0.5,1c-0.1,0.3-0.5,0.5-0.9,0.6c-0.6,0-1.2-0.1-1.7-0.3
			c-0.5-0.1-0.9-0.3-1.4-0.5c-0.5-0.3-0.8-0.4-1.2-0.6c-0.4-0.3-0.8-0.5-1.2-0.6v-0.1c0-1,0.1-1.8,0.3-2.6c0.1-0.8,0.4-1.6,0.5-2.3
			l0.1-0.3c0.1,0,0.3,0,0.3,0c0.1,0,0.1,0,0.3,0c0.4,0,0.9,0.1,1.4,0.3c0.5,0.1,0.9,0.3,1.4,0.5c0.5,0.3,0.9,0.4,1.4,0.6
			c0.5,0.3,0.9,0.4,1.3,0.5c0.4,0,0.8-0.1,1-0.4s0.5-0.4,0.6-0.8c0.1-0.4,0.3-0.6,0.4-0.9c0.1-0.4,0.3-0.6,0.4-1
			c0.9,0,1.8,0.1,2.6,0.4s1.4,0.5,2.1,0.9c0.6,0.4,1,0.9,1.3,1.6c0.4,0.6,0.5,1.3,0.5,2.1C200.8,79,200.6,80,200.1,81z M188.1,65.7
			c1.2,0.1,2.1,0.4,2.9,0.8c0.8,0.4,1.4,0.9,2.1,1.6c0,1-0.1,1.9-0.3,2.9c-0.1,0.9-0.5,1.6-1.2,1.9h-0.4c-1,0-1.8-0.1-2.5-0.5
			c-0.6-0.4-1.2-0.8-1.7-1.3c0-0.5,0.1-1,0.1-1.6c0-0.5,0-0.9,0.1-1.4c0-0.4,0.1-0.9,0.3-1.3C187.5,66.5,187.7,66.1,188.1,65.7z"/>
		<path class="st0" d="M217.7,71.3c0.5-0.6,1.2-1.2,1.8-1.6c0.8-0.4,1.4-0.8,2.2-1.2s1.6-0.8,2.2-1.2c0.6-0.4,1.3-1,1.7-1.7
			c-0.3-0.4-0.6-0.8-1-0.9c-0.4-0.1-0.9-0.3-1.4-0.3c-0.4,0-0.9,0-1.3,0.1c-0.5,0.1-0.9,0.3-1.3,0.4c-0.4,0.1-0.9,0.3-1.3,0.4
			s-0.8,0.3-1,0.4c-0.1-0.5-0.3-1.2-0.3-1.7c0-0.8,0.1-1.4,0.5-1.9s0.8-1,1.3-1.4c0.5-0.4,1.2-0.6,1.8-0.9c0.6-0.1,1.4-0.3,2.1-0.3
			c0.5,0,1,0,1.6,0.1c0.5,0.1,1,0.3,1.4,0.5c0.4,0.3,0.8,0.5,1,0.9c0.3,0.4,0.5,0.8,0.6,1.3c0.1,0.4,0.1,0.8,0.1,1.3
			c0,0.9-0.1,1.7-0.5,2.3c-0.4,0.6-0.8,1.3-1.3,1.9c-0.5,0.5-1.2,1-1.8,1.6c-0.6,0.5-1.4,0.8-2.2,1s-1.6,0.5-2.2,0.6
			c-0.6,0.1-1.4,0.3-2.1,0.3c-0.1,0-0.3,0-0.3,0S217.8,71.4,217.7,71.3z"/>
		<path class="st0" d="M242.6,97c-0.3,0-0.5,0-0.8,0c-0.3,0-0.5,0-0.6-0.1l-0.5,1.3c-0.4,1.2-0.8,2.1-1.2,3.1
			c-0.4,1-0.8,1.8-1.3,2.6c-0.5,0.8-1,1.6-1.6,2.3c-0.6,0.8-1.3,1.4-2.2,2.1c-1.4,1-3,1.8-4.9,2.3c-1.8,0.5-3.8,0.8-5.8,0.8
			c-0.4,0-0.8,0-1.2,0c-0.4,0-0.8,0-1.2-0.1c-3.6-0.4-6.5-1.6-8.6-3.5s-3.2-4.7-3.8-8.2c0-0.5-0.1-0.9-0.1-1.4s0-0.9,0-1.4
			c0-1.4,0.1-2.9,0.4-4.3c0.3-1.4,0.8-2.7,1.3-3.9c0.5-1.2,1.3-2.2,2.2-3.1c0.9-0.9,1.8-1.4,3-1.8c-0.3,0.9-0.6,1.8-1.2,2.6
			c-0.5,0.8-0.9,1.6-1.4,2.5c-0.5,0.8-0.9,1.7-1.3,2.6c-0.4,0.9-0.5,1.9-0.5,3.1c0,0.4,0,0.9,0.1,1.3c0.1,1.6,0.6,3,1.4,4.1
			s1.8,2.2,3,2.9c1.2,0.6,2.5,1.3,4,1.7s3,0.5,4.5,0.5c1.4,0,2.7-0.1,4-0.4c1.3-0.3,2.6-0.8,3.8-1.3c1.2-0.5,2.2-1.3,3.1-2.2
			c0.9-0.9,1.6-1.9,2.1-3.1c-0.1-0.9-0.4-1.9-0.6-2.9c-0.4-0.9-0.8-1.9-1-2.9c-0.4-0.9-0.8-1.9-1-2.9c-0.3-0.9-0.4-1.9-0.4-3
			c0-0.5,0-1.2,0.1-1.8c0.1-0.6,0.4-1.2,0.6-1.8c0.4,1.2,0.9,2.2,1.4,3.1c0.5,1,1,1.8,1.7,2.6c0.6,0.8,1.4,1.3,2.2,1.7
			s1.8,0.6,3,0.6c0.1,0,0.4,0,0.4,0c0.1,0,0.3,0,0.5,0h0.3c0.5,0,1,0.1,1.4,0.3c0.4,0.1,0.8,0.4,1.2,0.8c0.4,0.4,0.5,0.6,0.6,1
			c0.1,0.4,0.3,0.8,0.3,1.2c0,0.6-0.3,1.3-0.8,1.9c-0.5,0.6-1.4,1-2.7,1.3h-1.9V97z M228.5,85.5c0,1-0.1,1.9-0.1,3
			c-0.1,0.9-0.4,1.7-0.8,2.3h-1c-1,0-1.9-0.1-2.7-0.5c-0.8-0.3-1.6-0.6-2.2-1v-2.1c0-0.8,0-1.6,0.1-2.2c0.1-0.6,0.4-1.3,0.8-1.7
			c1.4,0,2.6,0.3,3.5,0.6s1.8,0.9,2.6,1.6l0,0H228.5z"/>
		<path class="st0" d="M261.7,102c0,0.5,0,1,0,1.3c0,0.4-0.1,0.6-0.1,0.9c-0.1,0.3-0.3,0.5-0.4,0.8c-0.1,0.3-0.3,0.5-0.4,0.9
			c-1,0.3-2.1,0.6-3.1,1.2c-1,0.5-1.9,0.9-3,1.4s-1.9,0.9-3,1.3c-0.9,0.4-1.9,0.6-3,0.8c-0.1-0.4-0.1-0.6-0.1-0.8c0-0.3,0-0.4,0-0.6
			c0-0.3,0.1-0.5,0.1-0.8c0-0.3,0-0.6,0-1.2c1.2-0.3,2.2-0.8,3.2-1.3c1-0.5,2.1-1.2,3.1-1.7c1-0.5,2.1-1,3.1-1.4
			C259.3,102.3,260.5,102,261.7,102z"/>
		<path class="st0" d="M244.4,97c-0.5,0-0.9-0.1-1.3-0.3c-0.4-0.3-0.6-0.4-0.8-0.8c-0.3-0.3-0.4-0.6-0.4-1c-0.1-0.4-0.1-0.8-0.1-1.2
			c0-0.4,0-0.8,0.1-1.2s0.3-0.6,0.5-1s0.5-0.5,0.8-0.6c0.3-0.1,0.6-0.3,1.2-0.3c1.3,0,2.6-0.3,3.8-0.5s2.5-0.6,3.5-1.2
			c1.2-0.4,2.2-0.9,3.1-1.4c0.9-0.5,1.8-1.2,2.6-1.7c0.5-0.4,1-0.9,1.4-1.4c0.5-0.5,0.9-1,1.4-1.6s1-0.9,1.7-1.3
			c0.6-0.4,1.3-0.5,2.1-0.5c0.6,0,1.2,0.1,1.8,0.5c0.5,0.4,1,0.8,1.4,1.3c0.4,0.5,0.8,1.2,1,1.9c0.3,0.8,0.5,1.6,0.6,2.3
			c0.1,0.8,0.3,1.6,0.4,2.5c0.1,0.9,0.1,1.7,0.1,2.5c0,0.6,0,1.3-0.1,1.8c-0.1,0.6-0.3,1.2-0.6,1.6c-0.3,0.4-0.6,0.8-1.2,1
			c-0.5,0.3-1.2,0.4-1.9,0.4c-0.4,0-0.8,0-1.2-0.1c-0.8-0.1-1.6-0.4-2.3-0.6c-0.8-0.4-1.7-0.6-2.5-1c-0.8-0.4-1.6-0.8-2.3-1
			s-1.6-0.6-2.2-0.8c-0.4,0.4-0.9,0.8-1.7,1.3c-0.8,0.4-1.7,0.9-2.6,1.3c-0.9,0.4-2.1,0.6-3.1,0.9C246.4,96.9,245.3,97,244.4,97z
			 M262.2,87.9c0.1,0.6,0.4,1.2,0.8,1.6c0.4,0.4,0.9,0.5,1.6,0.5c0.3,0,0.4,0,0.6,0c0.3,0,0.4,0,0.6-0.1c0-0.8-0.3-1.3-0.8-1.6
			c-0.5-0.3-1-0.4-1.7-0.4c-0.3,0-0.4,0-0.6,0S262.4,87.9,262.2,87.9z"/>
		<path class="st0" d="M301.5,101.1c0,0.5,0,1,0,1.3c0,0.4-0.1,0.6-0.1,0.9c-0.1,0.3-0.3,0.5-0.4,0.8c-0.1,0.3-0.3,0.5-0.4,0.9
			c-1,0.3-2.1,0.6-3.1,1.2c-1,0.5-1.9,0.9-3,1.4c-1,0.5-1.9,0.9-3,1.3c-0.9,0.4-1.9,0.6-3,0.8c-0.1-0.4-0.1-0.6-0.1-0.8
			c0-0.3,0-0.4,0-0.6c0-0.3,0.1-0.5,0.1-0.8s0-0.6,0-1.2c1.2-0.3,2.2-0.8,3.2-1.3c1-0.5,2.1-1.2,3.1-1.7c1-0.5,2.1-1,3.1-1.4
			C299.1,101.4,300.2,101.1,301.5,101.1z"/>
		<path class="st0" d="M280.6,72.6h0.1c0.3,0,0.4,0.1,0.5,0.4c-0.1,0.8-0.4,1.6-0.6,2.2c-0.3,0.6-0.6,1.3-0.9,1.9
			c-0.3,0.6-0.6,1.3-0.9,1.9c-0.3,0.6-0.4,1.4-0.4,2.2c0,0.1,0,0.3,0,0.4c0,0.1,0,0.3,0,0.4c0.1,1.4,0.6,2.6,1.6,3.6
			c0.9,1,2.1,1.8,3.5,2.3c1.4,0.5,3.1,1,4.9,1.3c1.8,0.3,3.6,0.4,5.6,0.4c1.7,0,3.4-0.1,5.1-0.3c1.7-0.1,3.2-0.4,4.8-0.8
			s2.9-0.8,4.1-1.2c1.3-0.4,2.3-0.9,3.1-1.6c-0.1-0.8-0.4-1.6-0.6-2.2c-0.4-0.6-0.8-1.3-1.2-1.9c-0.4-0.6-0.8-1.3-1-1.9
			c-0.3-0.6-0.4-1.4-0.4-2.2c0-0.4,0-0.8,0.1-1.2c0.1-0.4,0.3-0.8,0.4-1.3c0.4,0,0.9,0.3,1.4,0.6s0.9,0.9,1.4,1.4
			c0.5,0.5,0.8,1.2,1.2,1.9c0.4,0.6,0.6,1.3,0.9,1.9c0.3,0.9,0.5,1.8,0.8,2.7c0.1,0.9,0.3,1.8,0.3,2.7c0,1-0.1,1.9-0.4,2.7
			c-0.3,0.9-0.6,1.7-1.2,2.3c-0.8,0.9-1.8,1.7-3,2.3c-1.2,0.6-2.7,1.2-4.3,1.6s-3.2,0.8-4.9,0.9c-1.7,0.1-3.5,0.3-5.3,0.3
			c-2.1,0-4.1-0.1-6.1-0.4s-3.6-0.6-5.2-1.2c-1.3-0.4-2.3-1-3.2-1.8c-0.9-0.8-1.7-1.7-2.2-2.7c-0.5-1-1-2.2-1.3-3.4
			c-0.3-1.2-0.4-2.5-0.4-3.8c0-1,0.1-1.9,0.3-3c0.1-1,0.4-1.9,0.8-2.9c0.4-0.9,0.8-1.8,1.2-2.7C279.4,74,280.1,73.3,280.6,72.6z
			 M301.6,78.2c-0.3,0-0.4,0.1-0.6,0.1s-0.4,0-0.5,0c-0.5,0-1-0.1-1.6-0.3c-0.5-0.3-0.9-0.4-1.3-0.6c-0.4-0.3-0.9-0.5-1.3-0.8
			c-0.5-0.3-1-0.4-1.6-0.5c-0.4,0-0.8,0.3-0.9,0.5c-0.3,0.3-0.4,0.6-0.5,0.9c-0.1,0.4-0.3,0.6-0.5,1c-0.1,0.3-0.5,0.5-0.9,0.6
			c-0.6,0-1.2-0.1-1.7-0.3c-0.5-0.1-0.9-0.3-1.4-0.5c-0.4-0.3-0.8-0.4-1.2-0.6c-0.4-0.3-0.8-0.5-1.2-0.6V77c0-1,0.1-1.8,0.3-2.6
			c0.1-0.8,0.4-1.6,0.5-2.3l0.1-0.3c0.1,0,0.3,0,0.3,0s0.1,0,0.3,0c0.4,0,0.9,0.1,1.4,0.3c0.5,0.1,0.9,0.3,1.4,0.5
			c0.5,0.3,0.9,0.4,1.4,0.6c0.5,0.3,0.9,0.4,1.3,0.5c0.4,0,0.8-0.1,1-0.4c0.3-0.3,0.5-0.4,0.6-0.8c0.1-0.3,0.3-0.6,0.4-0.9
			c0.1-0.4,0.3-0.6,0.4-1c0.9,0,1.8,0.1,2.6,0.4c0.8,0.3,1.4,0.5,2.1,0.9c0.5,0.4,1,0.9,1.3,1.6c0.4,0.6,0.5,1.3,0.5,2.1
			C302.4,76.1,302.1,77.2,301.6,78.2z"/>
		<path class="st0" d="M337.1,90.6c0.8,0,1.4,0.1,1.9,0.4s0.9,0.5,1.3,0.8c0.4,0.3,0.6,0.6,0.8,1c0.1,0.4,0.3,0.8,0.3,1
			c0,0.4-0.1,0.8-0.4,1.2c-0.3,0.4-0.5,0.6-0.9,1c-0.4,0.4-0.8,0.5-1.3,0.6s-1,0.3-1.6,0.3h-1.9c-1.9,0-3.5-0.3-4.9-0.6
			c-1.3-0.4-2.5-1-3.4-1.8c-0.9-0.8-1.7-1.9-2.2-3.1c-0.5-1.3-1-2.7-1.3-4.5c-0.4-2.1-0.8-4.3-1.3-6.5c-0.4-2.2-0.8-4.5-1.2-7
			c-0.1-1.2-0.4-2.3-0.6-3.5c-0.3-1.2-0.5-2.5-0.8-3.6c-0.3-1.2-0.5-2.3-0.6-3.5c-0.1-1.2-0.3-2.3-0.3-3.4c0-0.9,0.1-1.8,0.3-2.6
			c0.1-0.8,0.4-1.7,0.9-2.3c0.8-0.3,1.4-0.4,2.2-0.4c0.9,0,1.8,0.1,2.6,0.5c0.8,0.4,1.4,0.9,2.1,1.6s1.2,1.3,1.6,2.2
			c0.4,0.8,0.8,1.7,1,2.5c-0.5,0-1-0.1-1.6-0.4c-0.4-0.3-0.9-0.5-1.3-0.8c-0.4-0.3-0.8-0.5-1.2-0.8c-0.4-0.3-0.9-0.4-1.3-0.4
			c-0.3,0-0.6,0-1,0.1c-0.1,0.4-0.3,0.9-0.4,1.4c-0.1,0.5-0.1,1-0.1,1.7c0,1.2,0.1,2.3,0.4,3.6c0.3,1.3,0.5,2.6,0.8,4
			c0.3,1.4,0.6,2.7,0.9,4.1c0.3,1.4,0.6,2.9,0.8,4.1c0,0.3,0.1,0.5,0.1,0.8s0.1,0.5,0.1,0.6c0.1,1.2,0.4,2.3,0.5,3.4
			c0.1,1,0.4,1.9,0.6,2.9c0.3,0.9,0.6,1.6,1,2.3c0.4,0.6,1,1.3,1.7,1.7c0.6,0.4,1.6,0.8,2.5,1c1,0.3,2.2,0.4,3.5,0.4h1.7V90.6z"/>
		<path class="st0" d="M352.4,54.6c0,0.5,0,1,0,1.3c0,0.4-0.1,0.6-0.1,0.9c-0.1,0.3-0.3,0.5-0.4,0.8c-0.1,0.3-0.3,0.5-0.4,0.9
			c-1,0.3-2.1,0.6-3.1,1.2c-1,0.5-1.9,0.9-3,1.4c-1,0.5-1.9,0.9-3,1.3c-0.9,0.4-1.9,0.6-3,0.8c-0.1-0.4-0.1-0.6-0.1-0.8
			c0-0.3,0-0.4,0-0.6s0.1-0.5,0.1-0.8c0-0.3,0-0.6,0-1.2c1.2-0.3,2.2-0.8,3.2-1.3c1-0.5,2.1-1.2,3.1-1.7c1-0.5,2.1-1,3.1-1.4
			C350,54.8,351.1,54.6,352.4,54.6z"/>
		<path class="st0" d="M347.6,65.1c-0.1,0.4-0.1,0.6-0.1,1c0,0.4,0,0.6,0,1c0,0.5,0,0.9,0.1,1.3s0.3,0.8,0.4,1.2
			c0.3,0.4,0.5,0.6,0.8,0.8c0.4,0.1,0.8,0.3,1.3,0.3c0.1,0,0.3,0,0.3,0c0.1,0,0.1,0,0.3,0c0.1-0.3,0.3-0.5,0.4-0.6
			c0.1-0.3,0.1-0.5,0.1-0.8l-0.4-2.9c0-0.3,0-0.5,0.1-0.8c0.1-0.3,0.3-0.5,0.4-0.8c0.6,0.5,1.2,1.2,1.6,1.9c0.4,0.8,0.5,1.7,0.5,2.6
			c0,0.5-0.1,1.2-0.3,1.7c-0.1,0.5-0.4,1-0.6,1.4c-0.3,0.4-0.6,0.8-1,1c-0.4,0.3-0.9,0.4-1.4,0.4c-0.4,0-0.8,0-1.2-0.1
			c-0.4-0.1-0.9-0.4-1.4-0.6c-1,0.8-1.9,1.2-3,1.2c-0.6,0-1.2-0.1-1.7-0.4c-0.5-0.3-0.9-0.5-1.3-0.9c-0.4-0.4-0.6-0.9-0.9-1.4
			s-0.4-1-0.4-1.7c0-0.5,0.1-1.2,0.4-1.7c0.3-0.6,0.6-1.2,1.2-1.7c0,0.4,0.1,0.9,0.1,1.6c0,0.6,0,1,0.1,1.6s0.3,0.9,0.5,1.3
			c0.3,0.4,0.6,0.5,1,0.5c0.4,0,0.9-0.1,1.2-0.3c0.3-0.3,0.5-0.5,0.6-0.8c0.1-0.4,0.3-0.8,0.3-1.2c0-0.4,0-0.9,0-1.3v-0.1
			c0-0.4,0-0.6,0-1c0-0.3,0-0.6,0.1-0.9c0.1-0.3,0.1-0.4,0.3-0.6c0.1-0.1,0.4-0.3,0.6-0.3C346.9,64.8,347.2,64.8,347.6,65.1z"/>
		<path class="st0" d="M336.7,97c-0.5,0-0.9-0.1-1.3-0.3c-0.4-0.1-0.6-0.4-0.8-0.8c-0.1-0.4-0.4-0.6-0.4-1c-0.1-0.4-0.1-0.8-0.1-1.2
			c0-0.4,0-0.8,0.1-1.2c0.1-0.4,0.3-0.6,0.5-1s0.5-0.5,0.8-0.6c0.3-0.1,0.6-0.3,1.2-0.3c1.3,0,2.6-0.3,3.8-0.5
			c1.2-0.3,2.5-0.6,3.5-1.2c1.2-0.4,2.2-0.9,3.1-1.4c0.9-0.5,1.8-1.2,2.6-1.7c0.5-0.4,1-0.9,1.4-1.4c0.5-0.5,0.9-1,1.4-1.6
			s1-0.9,1.7-1.3c0.6-0.4,1.3-0.5,2.1-0.5c0.6,0,1.2,0.1,1.8,0.5c0.5,0.4,1,0.8,1.4,1.3c0.4,0.5,0.8,1.2,1,1.9
			c0.3,0.8,0.5,1.6,0.6,2.3c0.1,0.8,0.3,1.6,0.4,2.5c0.1,0.8,0.1,1.7,0.1,2.5c0,0.6,0,1.3-0.1,1.8c-0.1,0.6-0.3,1.2-0.6,1.6
			c-0.3,0.4-0.6,0.8-1.2,1c-0.5,0.3-1.2,0.4-1.9,0.4c-0.4,0-0.8,0-1.2-0.1c-0.8-0.1-1.6-0.4-2.3-0.6c-0.8-0.4-1.7-0.6-2.5-1
			c-0.8-0.4-1.6-0.8-2.3-1c-0.8-0.4-1.6-0.6-2.2-0.8c-0.4,0.4-0.9,0.8-1.7,1.3c-0.8,0.4-1.7,0.9-2.6,1.3c-1,0.4-2.1,0.6-3.1,0.9
			C338.7,96.9,337.6,97,336.7,97z M354.5,87.9c0.1,0.6,0.4,1.2,0.8,1.6c0.4,0.4,0.9,0.5,1.6,0.5c0.3,0,0.4,0,0.6,0
			c0.3,0,0.4,0,0.6-0.1c0-0.8-0.3-1.3-0.8-1.6c-0.5-0.3-1-0.4-1.7-0.4c-0.3,0-0.4,0-0.6,0C354.9,87.9,354.8,87.9,354.5,87.9z"/>
		<path class="st0" d="M388.9,39.8c0,0.4-0.1,0.6-0.3,0.9c-0.1,0.3-0.3,0.5-0.5,0.8c-0.1,0.3-0.3,0.5-0.5,0.8s-0.3,0.5-0.3,0.9
			c-0.9,0.5-1.9,1-3.2,1.4c-1.3,0.4-2.6,0.9-4,1.2c-1.4,0.4-2.9,0.6-4.4,0.8c-1.6,0.3-3,0.3-4.5,0.3c-1.3,0-2.5-0.1-3.6-0.3
			c-1.2-0.1-2.2-0.4-3.2-0.8c0,0.4-0.1,0.9-0.3,1.4c-0.1,0.5-0.3,1-0.5,1.6c-0.3,0.5-0.5,0.9-0.9,1.4c-0.4,0.4-0.8,0.6-1.3,0.9
			c0.4-0.6,0.6-1.3,0.8-1.9c0.1-0.6,0.3-1.3,0.3-1.9c0-1.2-0.3-2.2-0.6-3.1c-0.4-1-0.9-1.8-1.7-2.6c0.1,0,0.3-0.1,0.3-0.4
			c0-0.3,0-0.4,0-0.5c0.5-0.1,1-0.1,1.6-0.1c0.6,0,1.3,0.1,1.9,0.3s1.3,0.4,1.8,0.5c0.6,0.3,1.3,0.4,1.8,0.5
			c0.6,0.1,1.3,0.3,1.9,0.4c0.6,0,1.4,0.1,2.1,0.1c1.6,0,3-0.1,4.4-0.4c1.4-0.3,2.9-0.5,4.3-0.8c1.4-0.3,2.9-0.5,4.1-0.8
			c1.3-0.3,2.6-0.4,3.9-0.4h0.8V39.8z M385.8,90.6c0.8,0,1.4,0.1,1.9,0.4c0.5,0.3,0.9,0.5,1.3,0.8c0.4,0.3,0.6,0.6,0.8,1
			c0.1,0.4,0.3,0.8,0.3,1c0,0.4-0.1,0.8-0.4,1.2c-0.3,0.4-0.5,0.6-0.9,1c-0.4,0.4-0.8,0.5-1.3,0.6c-0.5,0.1-1,0.3-1.6,0.3h-1.7
			c-1.9,0-3.5-0.3-4.9-0.6c-1.3-0.4-2.5-1-3.4-1.8c-0.9-0.8-1.7-1.9-2.2-3.1c-0.5-1.2-1-2.7-1.3-4.5c-0.4-2.1-0.8-4.3-1.3-6.5
			c-0.4-2.2-0.8-4.5-1.2-7c-0.1-1.2-0.4-2.3-0.6-3.5c-0.3-1.2-0.5-2.5-0.8-3.6c-0.3-1.2-0.5-2.3-0.6-3.5c-0.1-1.2-0.3-2.3-0.3-3.4
			c0-0.9,0.1-1.8,0.3-2.6c0.1-0.8,0.4-1.7,0.9-2.3c0.8-0.3,1.4-0.4,2.2-0.4c0.9,0,1.8,0.1,2.6,0.5c0.8,0.4,1.4,0.9,2.1,1.6
			s1.2,1.3,1.6,2.2c0.4,0.8,0.8,1.7,1,2.5c-0.5,0-1-0.1-1.6-0.4c-0.4-0.3-0.9-0.5-1.3-0.8c-0.4-0.3-0.8-0.5-1.2-0.8
			c-0.4-0.3-0.9-0.4-1.3-0.4c-0.3,0-0.6,0-1,0.1c-0.1,0.4-0.3,0.9-0.4,1.4c-0.1,0.5-0.1,1-0.1,1.7c0,1.2,0.1,2.3,0.4,3.6
			c0.3,1.3,0.5,2.6,0.8,4s0.6,2.7,0.9,4.1c0.4,1.4,0.6,2.9,0.8,4.1c0,0.3,0.1,0.5,0.1,0.8s0.1,0.5,0.1,0.6c0.1,1.2,0.4,2.3,0.5,3.4
			c0.1,1,0.4,1.9,0.6,2.9c0.3,0.9,0.6,1.6,1,2.3c0.4,0.6,1,1.3,1.7,1.7c0.6,0.5,1.6,0.8,2.5,1c1,0.3,2.2,0.4,3.5,0.4h1.4V90.6z"/>
		<path class="st0" d="M406,46c0,0.5,0,1,0,1.3c0,0.4-0.1,0.6-0.1,0.9c-0.1,0.3-0.3,0.5-0.4,0.8c-0.1,0.3-0.3,0.5-0.4,0.9
			c-1,0.3-2.1,0.6-3.1,1.2c-1,0.5-1.9,0.9-3,1.4c-1,0.5-1.9,0.9-3,1.3c-0.9,0.4-1.9,0.6-3,0.8c-0.1-0.4-0.1-0.6-0.1-0.8
			c0-0.3,0-0.4,0-0.6c0-0.3,0.1-0.5,0.1-0.8c0-0.3,0-0.6,0-1.2c1.2-0.3,2.2-0.8,3.2-1.3c1-0.5,2.1-1.2,3.1-1.7c1-0.5,2.1-1,3.1-1.4
			C403.7,46.3,404.8,46,406,46z"/>
		<path class="st0" d="M401.3,56.4c-0.1,0.4-0.1,0.6-0.1,1c0,0.4,0,0.6,0,1c0,0.5,0,0.9,0.1,1.3c0.1,0.4,0.3,0.8,0.4,1.2
			c0.3,0.4,0.5,0.6,0.8,0.8c0.4,0.1,0.8,0.3,1.3,0.3c0.1,0,0.3,0,0.3,0c0.1,0,0.1,0,0.3,0c0.1-0.3,0.3-0.5,0.4-0.6
			c0.1-0.3,0.1-0.5,0.1-0.8l-0.4-2.9c0-0.3,0-0.5,0.1-0.8c0.1-0.3,0.3-0.5,0.4-0.8c0.6,0.5,1.2,1.2,1.6,1.9c0.4,0.8,0.5,1.7,0.5,2.6
			c0,0.5-0.1,1.2-0.3,1.7c-0.1,0.5-0.4,1-0.6,1.4c-0.3,0.4-0.6,0.8-1,1c-0.4,0.3-0.9,0.4-1.4,0.4c-0.4,0-0.8,0-1.2-0.1
			c-0.4-0.1-0.9-0.4-1.4-0.6c-1,0.8-1.9,1.2-3,1.2c-0.6,0-1.2-0.1-1.7-0.4s-0.9-0.5-1.3-0.9c-0.4-0.4-0.6-0.9-0.9-1.4
			c-0.3-0.5-0.4-1-0.4-1.7c0-0.5,0.1-1.2,0.4-1.7c0.3-0.6,0.6-1.2,1.2-1.7c0,0.4,0.1,0.9,0.1,1.6s0,1,0.1,1.6
			c0.1,0.5,0.3,0.9,0.5,1.3c0.3,0.4,0.6,0.5,1,0.5c0.4,0,0.9-0.1,1.2-0.3c0.3-0.3,0.5-0.5,0.6-0.8c0.1-0.4,0.3-0.8,0.3-1.2
			c0-0.4,0-0.9,0-1.3v-0.1c0-0.4,0-0.6,0-1c0-0.3,0-0.6,0.1-0.9c0.1-0.3,0.1-0.4,0.3-0.6c0.1-0.1,0.4-0.3,0.6-0.3
			C400.5,56.1,400.9,56.3,401.3,56.4z"/>
		<path class="st0" d="M413.4,90.6c0.9,0.3,1.6,0.8,2.1,1.3c0.4,0.5,0.6,1.2,0.6,1.8c0,0.6-0.3,1.3-0.6,1.8c-0.4,0.6-1.2,1-1.9,1.3
			h-2.1c-0.9,0-1.9-0.1-2.9-0.4c-1-0.3-1.9-0.6-2.9-1.2c-0.9-0.5-1.7-1.2-2.3-1.8c-0.6-0.6-1.2-1.4-1.6-2.3c-1,0.8-2.2,1.4-3.4,2.1
			c-1.2,0.6-2.5,1.2-3.9,1.7c-1.3,0.5-2.7,0.9-4.1,1.3c-1.4,0.4-2.9,0.5-4.3,0.6h-0.5c-0.8-0.3-1.3-0.8-1.6-1.3
			c-0.3-0.5-0.5-1.2-0.5-1.8c0-0.6,0.1-1.3,0.5-1.9c0.4-0.6,0.9-1,1.6-1.2h0.6c1.7-0.1,3.2-0.4,4.8-0.8s3.1-0.9,4.5-1.4
			c1.4-0.5,2.9-1.2,4.1-1.8s2.5-1.3,3.5-1.9c0.1,1,0.4,1.8,0.9,2.6c0.5,0.8,1,1.4,1.8,1.9c0.8,0.5,1.6,0.9,2.5,1.2
			c0.9,0.3,1.9,0.4,2.9,0.4h2.1V90.6z M408.1,79.4c-0.3,0-0.4,0.1-0.6,0.1c-0.1,0-0.4,0-0.5,0c-0.5,0-1-0.1-1.6-0.3
			c-0.5-0.3-0.9-0.4-1.3-0.6c-0.4-0.3-0.9-0.5-1.3-0.8c-0.5-0.3-1-0.4-1.6-0.5c-0.4,0-0.8,0.3-0.9,0.5c-0.1,0.3-0.4,0.6-0.5,0.9
			c-0.1,0.4-0.3,0.6-0.5,1c-0.3,0.4-0.5,0.5-0.9,0.6c-0.6,0-1.2-0.1-1.7-0.3s-0.9-0.3-1.4-0.5c-0.4-0.3-0.8-0.4-1.2-0.6
			c-0.4-0.3-0.8-0.5-1.2-0.6v-0.1c0-1,0.1-1.8,0.3-2.6c0.1-0.8,0.4-1.6,0.5-2.3l0.1-0.3c0.1,0,0.3,0,0.3,0c0.1,0,0.1,0,0.3,0
			c0.4,0,0.9,0.1,1.4,0.3c0.5,0.1,0.9,0.3,1.4,0.5c0.5,0.3,0.9,0.4,1.4,0.6s0.9,0.4,1.3,0.5c0.4,0,0.8-0.1,1-0.4
			c0.3-0.3,0.5-0.4,0.6-0.8s0.3-0.6,0.4-0.9c0.1-0.4,0.3-0.6,0.4-1c0.9,0,1.8,0.1,2.6,0.4c0.8,0.3,1.4,0.5,2.1,0.9
			c0.5,0.4,1,0.9,1.3,1.6c0.4,0.6,0.5,1.3,0.5,2.1C408.7,77.3,408.5,78.3,408.1,79.4z"/>
		<path class="st0" d="M413.1,90.6c1.4-0.1,2.6-0.4,3.5-0.6s1.7-0.6,2.3-1.2c0.6-0.4,1-1,1.3-1.6c0.3-0.6,0.4-1.3,0.4-2.1
			c0-0.4,0-0.9,0-1.2s-0.1-0.6-0.1-1c-0.1-0.4-0.1-0.8-0.3-1.3c-0.1-0.5-0.4-1-0.6-1.7c-0.4-1.3-0.9-2.5-1.4-3.6
			c-0.5-1.2-1-2.5-1.6-3.6s-0.9-2.5-1.2-3.6c-0.3-1.2-0.5-2.3-0.5-3.5c0-0.8,0.1-1.6,0.3-2.3c0.1-0.8,0.5-1.6,0.9-2.2
			c0.6,0.5,1.3,1,1.9,1.7s1.2,1.3,1.8,1.8c0.6,0.6,1.3,1.2,1.9,1.6s1.4,0.6,2.2,0.8c0.1,0.4,0.1,0.9,0.3,1.6c0,0.6,0.1,1.2,0.1,1.8
			c0,0.5,0,1-0.1,1.4c0,0.5-0.1,0.9-0.3,1.2c-0.1,0-0.3,0-0.4,0c-0.1,0-0.3,0-0.4,0c-0.4,0-0.6,0-0.9-0.1s-0.5-0.3-0.6-0.4
			c-0.1-0.1-0.4-0.3-0.6-0.4c-0.3-0.1-0.5-0.3-0.8-0.3c0.4,1.3,0.9,2.6,1.3,4c0.4,1.4,0.8,2.9,1.3,4.4c0.1,0.6,0.3,1.3,0.4,1.8
			s0.1,1,0.3,1.4c0,0.5,0.1,0.9,0.1,1.4c0,0.5,0,1,0,1.7c0,1.3-0.1,2.6-0.5,3.9c-0.4,1.3-0.9,2.3-1.7,3.4c-0.8,1-1.9,1.8-3.2,2.3
			s-3,0.9-5.1,0.9c-0.5,0-0.9-0.1-1.3-0.3c-0.4-0.1-0.6-0.4-0.9-0.8c-0.3-0.3-0.4-0.6-0.6-1c-0.1-0.4-0.3-0.8-0.3-1.2
			c0-0.4,0-0.8,0.1-1.2c0.1-0.4,0.3-0.6,0.5-1c0.3-0.3,0.5-0.5,0.9-0.6C412,90.8,412.6,90.6,413.1,90.6z"/>
		<path class="st0" d="M428.8,64.4c0-0.6,0.1-1.2,0.1-1.7c0-0.4,0.1-0.8,0.1-0.9c0-0.3,0.1-0.4,0.1-0.4c0-0.1,0.1-0.1,0.1-0.1
			c0.1-0.1,0.3-0.3,0.3-0.3c0.1-0.1,0.3-0.1,0.3-0.1c0.1,0,0.3,0.1,0.5,0.3c0.6,0.6,1.3,1.2,2.1,1.8s1.6,1.3,2.2,2.1
			c0.6,0.8,1.3,1.6,1.8,2.5c0.5,0.9,0.8,1.9,0.8,3.2c0,0.3,0,0.5-0.1,0.9v0.1c0,0.4-0.1,0.6-0.3,0.6c-0.1,0-0.4,0.3-0.6,0.3
			c-0.3,0-0.5,0.1-0.6,0.3c-0.3,0.1-0.4,0.3-0.5,0.4c0.1,1.6,0.4,3.1,0.8,4.7c0.4,1.6,0.8,3.1,1.3,4.7c0.4,1.6,0.9,3.1,1.2,4.7
			c0.4,1.6,0.5,3.1,0.5,4.7c0,0.8,0,1.6-0.1,2.5c-0.1,0.8-0.3,1.6-0.6,2.5c-0.5-0.3-0.8-0.6-1-1c-0.3-0.4-0.4-0.8-0.5-1.2
			c-0.1-0.4-0.1-0.8-0.3-1.2c0-0.4-0.1-0.8-0.1-1.2c-0.1-1-0.4-2.1-0.6-3.2c-0.3-1.2-0.6-2.5-1-3.8s-0.8-2.6-1.2-3.9
			c-0.4-1.3-0.8-2.6-1.2-3.9c-0.3-1-0.5-1.9-0.9-3s-0.8-2.1-1-3.1c-0.4-1-0.6-2.2-0.9-3.2c-0.3-1-0.4-2.2-0.4-3.2L428.8,64.4
			L428.8,64.4z"/>
		<path class="st0" d="M459.7,102c0,0.5,0,1,0,1.3c0,0.4-0.1,0.6-0.1,0.9c-0.1,0.3-0.3,0.5-0.4,0.8c-0.1,0.3-0.3,0.5-0.4,0.9
			c-1,0.3-2.1,0.6-3.1,1.2c-1,0.5-1.9,0.9-3,1.4c-1,0.5-1.9,0.9-3,1.3c-0.9,0.4-1.9,0.6-3,0.8c-0.1-0.4-0.1-0.6-0.1-0.8
			c0-0.3,0-0.4,0-0.6c0-0.3,0.1-0.5,0.1-0.8c0-0.3,0-0.6,0-1.2c1.2-0.3,2.2-0.8,3.2-1.3c1-0.5,2.1-1.2,3.1-1.7c1-0.5,2.1-1,3.1-1.4
			C457.3,102.3,458.4,102,459.7,102z"/>
		<path class="st0" d="M470.2,90.8c0.9,0,1.6,0.4,1.9,0.9c0.4,0.6,0.6,1.3,0.6,2.1c0,0.4,0,0.8-0.1,1.2c-0.1,0.4-0.3,0.8-0.5,1
			c-0.3,0.3-0.5,0.5-0.8,0.8c-0.3,0.3-0.6,0.3-1,0.3c-0.9,0-1.7-0.3-2.5-0.5c-0.8-0.3-1.6-0.8-2.2-1.3c-0.6-0.5-1.2-1.2-1.7-1.9
			c-0.5-0.8-0.8-1.7-0.9-2.7c-1.2,0.9-2.6,1.7-4.3,2.3c-1.6,0.6-3.4,0.9-5.2,0.9c-0.8,0-1.6-0.1-2.3-0.3c-0.8-0.1-1.6-0.4-2.5-0.6
			c-0.5-1-1-1.9-1.3-2.9s-0.4-1.8-0.4-2.7c0-1.2,0.3-2.2,0.6-3.2c0.4-1,1-1.9,1.8-2.7c0.8-0.9,1.7-1.7,2.6-2.3
			c1-0.6,2.1-1.3,3.2-1.8c1.2-0.5,2.3-1,3.5-1.4c1.2-0.4,2.3-0.6,3.5-0.9c0-0.3,0.1-0.4,0.1-0.6s0-0.4,0-0.6c0-0.5,0-0.9-0.1-1.4
			c0-0.4-0.1-0.9-0.1-1.3c0-0.4,0-0.9,0.1-1.3c0.1-0.4,0.4-0.8,0.8-1.2c0.8,0.8,1.4,1.8,1.7,3c0.3,1.2,0.4,2.5,0.4,3.9
			c0,1.3,0,2.6-0.1,4s-0.1,2.6-0.1,3.9c0,0.4,0,0.8,0,1.2c0,0.4,0,0.8,0.1,1c0.1,0.8,0.3,1.4,0.6,2.1c0.3,0.6,0.6,1.2,1.2,1.6
			c0.5,0.4,1,0.8,1.6,1C469,90.5,469.5,90.6,470.2,90.8z M449.6,85.5c0.1,0.8,0.5,1.3,1.3,1.7c0.6,0.3,1.6,0.5,2.6,0.5
			c0.8,0,1.6-0.1,2.5-0.3c0.9-0.1,1.7-0.4,2.6-0.6c0.8-0.3,1.6-0.5,2.2-0.8c0.6-0.3,1.2-0.5,1.7-0.8c0.1-0.6,0.3-1.3,0.4-1.9
			c0.1-0.8,0.3-1.4,0.3-2.1c0-0.5,0-1-0.1-1.4c-0.1-0.4-0.4-0.8-0.6-1.2c-0.5,0.1-1.3,0.3-2.1,0.5c-0.8,0.3-1.7,0.4-2.6,0.8
			c-0.9,0.3-1.8,0.6-2.7,0.9c-0.9,0.4-1.8,0.8-2.5,1.2c-0.8,0.4-1.3,0.9-1.8,1.4c-0.4,0.5-0.6,1-0.6,1.7
			C449.6,85.3,449.6,85.5,449.6,85.5z"/>
		<path class="st0" d="M475.2,50.7c-0.3-0.4-0.5-0.6-0.6-1c-0.1-0.4-0.3-0.8-0.4-1.3c-0.1-0.4-0.1-0.9-0.3-1.3
			c-0.1-0.4-0.3-0.9-0.4-1.4c-0.1-0.5-0.3-1-0.5-1.6s-0.4-1-0.6-1.6c-0.3-0.5-0.4-1.2-0.5-1.7c-0.1-0.5-0.3-1.2-0.3-1.7
			c0-0.1,0-0.3,0-0.3s0-0.1,0-0.3c0-0.4,0.1-0.6,0.3-1c0.1-0.4,0.3-0.6,0.5-1c0.6,0.3,1.2,0.6,1.6,1.2c0.4,0.5,0.8,1.2,1,1.8
			c0.3,0.6,0.4,1.4,0.5,2.2c0.1,0.8,0.1,1.7,0.1,2.5c0,0.6,0,1.3,0,1.9s-0.1,1.3-0.1,1.8C475.5,49,475.4,49.9,475.2,50.7z"/>
		<path class="st0" d="M477.4,52.8c-0.1,0.4-0.1,0.6-0.1,1c0,0.4,0,0.6,0,1c0,0.5,0,0.9,0.1,1.3s0.3,0.8,0.4,1.2
			c0.3,0.4,0.5,0.6,0.8,0.8c0.4,0.1,0.8,0.3,1.3,0.3c0.1,0,0.3,0,0.3,0s0.1,0,0.3,0c0.1-0.3,0.3-0.5,0.4-0.6
			c0.1-0.1,0.1-0.5,0.1-0.8l-0.4-3c0-0.3,0-0.5,0.1-0.8s0.3-0.5,0.4-0.8c0.6,0.5,1.2,1.2,1.6,1.9c0.4,0.8,0.5,1.7,0.5,2.6
			c0,0.5-0.1,1.2-0.3,1.7c-0.1,0.5-0.4,1-0.6,1.4c-0.3,0.4-0.6,0.8-1,1c-0.4,0.3-0.9,0.4-1.4,0.4c-0.4,0-0.8,0-1.2-0.1
			c-0.4-0.1-0.9-0.4-1.4-0.6c-1,0.8-1.9,1.2-3,1.2c-0.6,0-1.2-0.1-1.7-0.4c-0.5-0.3-0.9-0.5-1.3-0.9c-0.4-0.4-0.6-0.9-0.9-1.4
			s-0.4-1-0.4-1.7c0-0.5,0.1-1.2,0.4-1.7c0.3-0.6,0.6-1.2,1.2-1.7c0,0.4,0.1,0.9,0.1,1.6c0,0.5,0,1,0.1,1.6c0.1,0.5,0.3,0.9,0.5,1.3
			c0.3,0.4,0.6,0.5,1,0.5c0.5,0,0.9-0.1,1.2-0.3c0.3-0.3,0.5-0.5,0.6-0.8c0.1-0.4,0.3-0.8,0.3-1.2c0-0.4,0-0.9,0-1.3v-0.1
			c0-0.4,0-0.6,0-1c0-0.3,0-0.6,0.1-0.9s0.1-0.4,0.3-0.6c0.1-0.1,0.4-0.3,0.6-0.3C476.7,52.5,477.1,52.5,477.4,52.8z"/>
		<path class="st0" d="M486.8,90c0.4,0,0.8,0.1,1,0.3c0.3,0.1,0.5,0.4,0.8,0.6c0.1,0.3,0.3,0.6,0.4,0.9c0.1,0.3,0.1,0.8,0.1,1.2
			c0,0.4,0,0.9-0.1,1.3c-0.1,0.4-0.3,0.8-0.5,1.2s-0.4,0.6-0.8,0.8c-0.3,0.3-0.6,0.3-1,0.3c-0.9-0.1-1.7-0.4-2.5-0.6
			c-0.8-0.4-1.6-0.6-2.2-1.2c-0.6-0.4-1.3-0.9-1.8-1.4c-0.5-0.5-0.9-1.2-1.3-1.7c-0.3,0.9-0.6,1.8-1.3,2.5c-0.5,0.6-1.2,1.3-1.8,1.8
			s-1.4,0.8-2.3,1c-0.8,0.3-1.7,0.4-2.5,0.4c-0.1,0-0.3,0-0.4,0c-0.1,0-0.3,0-0.4,0c-0.4,0-0.6-0.1-0.9-0.3
			c-0.3-0.3-0.5-0.4-0.6-0.8c-0.1-0.3-0.3-0.6-0.4-1c-0.1-0.4-0.1-0.8-0.1-1.2c0-0.4,0-0.8,0.1-1.2c0.1-0.4,0.3-0.6,0.4-1
			c0.1-0.3,0.4-0.5,0.6-0.6c0.3-0.1,0.5-0.3,0.9-0.3c0.3,0,0.5,0.1,0.8,0.1c0.3,0,0.5,0,0.8,0c0.6,0,1.4-0.1,2.1-0.3
			c0.6-0.1,1.3-0.4,1.8-0.8c0.5-0.4,1-0.8,1.3-1.3c0.4-0.5,0.6-1.2,0.8-1.8c0.1-0.8,0.1-1.4,0.1-2.2c0-1.2-0.1-2.5-0.4-3.6
			c-0.3-1.3-0.5-2.5-0.8-3.8c-0.3-1.3-0.6-2.5-0.9-3.8c-0.3-1.3-0.4-2.6-0.5-3.9c0.1-2.1,0.4-3.1,0.4-3.2c0.1,0,0.4-0.3,0.6-0.5
			c0.4-0.3,0.9,0.3,1.7,1.8c0.8,1.4,1,2.6,0.6,3.2c-0.3,0.6-0.4,1.8-0.1,3.4c0.1,1.6,0.4,3,0.6,4.5c0.3,1.6,0.5,3,0.9,4.5
			c0.4,1.4,0.8,2.9,1.3,4.3c0.3,0.3,0.6,0.5,1,0.8c0.4,0.3,0.8,0.5,1.3,0.8c0.5,0.3,1,0.4,1.6,0.6C485.7,90.1,486.3,89.9,486.8,90z"
			/>
		<path class="st0" d="M486.9,96.6c-0.4,0-0.8-0.1-1.2-0.3c-0.4-0.3-0.6-0.5-0.8-0.8c-0.3-0.3-0.4-0.6-0.5-1
			c-0.1-0.4-0.1-0.8-0.1-1.2c0-0.4,0-0.8,0.1-1.2s0.3-0.8,0.5-1c0.3-0.3,0.5-0.5,0.8-0.8c0.3-0.3,0.6-0.3,1.2-0.3
			c0.3,0,0.5,0.1,0.9,0.1c0.3,0,0.5,0,0.9,0c0.8,0,1.4-0.1,2.1-0.3c0.6-0.3,1.2-0.5,1.7-0.9c-0.3-1-0.6-1.9-1.2-3
			c-0.5-0.9-1.2-1.9-1.7-2.9c-0.5-1-1-1.9-1.6-3c-0.4-1-0.6-2.1-0.6-3.2c0-0.5,0.1-1,0.3-1.7c0.1-0.5,0.4-1.2,0.6-1.8
			c0.8,1,1.7,2.1,2.5,3.2c0.8,1.2,1.4,2.5,2.1,3.9s1,2.9,1.4,4.3c0.4,1.4,0.5,3,0.5,4.5c0,1-0.1,1.9-0.3,3s-0.4,1.9-0.8,3
			c-0.8,0.5-1.6,0.9-2.3,1.2c-0.8,0.3-1.7,0.4-2.6,0.4c-0.3,0-0.5,0-0.9,0C487.4,96.6,487.2,96.6,486.9,96.6z"/>
		<path class="st0" d="M500,64.4c0-0.6,0.1-1.2,0.1-1.7c0-0.4,0.1-0.8,0.1-0.9c0-0.3,0.1-0.4,0.1-0.4c0-0.1,0.1-0.1,0.1-0.1
			c0.1-0.1,0.3-0.3,0.3-0.3c0.1-0.1,0.3-0.1,0.3-0.1c0.1,0,0.3,0.1,0.5,0.3c0.6,0.6,1.3,1.2,2.1,1.8s1.6,1.3,2.2,2.1
			s1.3,1.6,1.8,2.5c0.5,0.9,0.8,1.9,0.8,3.2c0,0.3,0,0.5-0.1,0.9v0.1c0,0.4-0.1,0.6-0.3,0.6c-0.1,0-0.4,0.3-0.6,0.3
			c-0.3,0-0.5,0.1-0.6,0.3c-0.3,0.1-0.4,0.3-0.5,0.4c0.1,1.6,0.4,3.1,0.8,4.7c0.4,1.6,0.8,3.1,1.3,4.7c0.4,1.6,0.9,3.1,1.2,4.7
			c0.4,1.6,0.5,3.1,0.5,4.7c0,0.8,0,1.6-0.1,2.5c-0.1,0.8-0.3,1.6-0.6,2.5c-0.5-0.3-0.8-0.6-1-1c-0.3-0.4-0.4-0.8-0.5-1.2
			c-0.1-0.4-0.1-0.8-0.3-1.2c0-0.4-0.1-0.8-0.1-1.2c-0.1-1-0.4-2.1-0.6-3.2c-0.3-1.2-0.6-2.5-1-3.8s-0.8-2.6-1.2-3.9
			c-0.4-1.3-0.8-2.6-1.2-3.9c-0.3-1-0.5-1.9-0.9-3c-0.4-1-0.8-2.1-1-3.1c-0.4-1-0.6-2.2-0.9-3.2c-0.3-1-0.4-2.2-0.4-3.2L500,64.4
			L500,64.4z"/>
		<path class="st0" d="M542.8,101.1c0,0.5,0,1,0,1.3c0,0.4-0.1,0.6-0.1,0.9c-0.1,0.3-0.3,0.5-0.4,0.8c-0.1,0.3-0.3,0.5-0.4,0.9
			c-1,0.3-2.1,0.6-3.1,1.2c-1,0.5-1.9,0.9-3,1.4s-1.9,0.9-3,1.3c-0.9,0.4-1.9,0.6-3,0.8c-0.1-0.4-0.1-0.6-0.1-0.8c0-0.3,0-0.4,0-0.6
			c0-0.3,0.1-0.5,0.1-0.8s0-0.6,0-1.2c1.2-0.3,2.2-0.8,3.2-1.3c1-0.5,2.1-1.2,3.1-1.7c1-0.5,2.1-1,3.1-1.4
			C540.5,101.4,541.6,101.1,542.8,101.1z"/>
		<path class="st0" d="M522.1,72.6h0.1c0.3,0,0.4,0.1,0.5,0.4c-0.1,0.8-0.4,1.6-0.6,2.2c-0.3,0.6-0.6,1.3-0.9,1.9
			c-0.3,0.6-0.6,1.3-0.9,1.9c-0.3,0.6-0.4,1.4-0.4,2.2c0,0.1,0,0.3,0,0.4c0,0.1,0,0.3,0,0.4c0.1,1.4,0.6,2.6,1.6,3.6
			s2.1,1.8,3.5,2.3c1.4,0.5,3.1,1,4.9,1.3c1.8,0.3,3.6,0.4,5.6,0.4c1.7,0,3.4-0.1,5.1-0.3c1.7-0.1,3.2-0.4,4.8-0.8
			c1.6-0.4,2.9-0.8,4.1-1.2c1.3-0.4,2.3-0.9,3.1-1.6c-0.1-0.8-0.4-1.6-0.6-2.2c-0.4-0.6-0.8-1.3-1.2-1.9c-0.4-0.6-0.8-1.3-1-1.9
			c-0.3-0.6-0.4-1.4-0.4-2.2c0-0.4,0-0.8,0.1-1.2s0.3-0.8,0.4-1.3c0.4,0,0.9,0.3,1.4,0.6c0.5,0.4,0.9,0.9,1.4,1.4
			c0.4,0.6,0.8,1.2,1.2,1.9c0.4,0.6,0.6,1.3,0.9,1.9c0.3,0.9,0.5,1.8,0.8,2.7c0.1,0.9,0.3,1.8,0.3,2.7c0,1-0.1,1.9-0.4,2.7
			c-0.3,0.9-0.6,1.7-1.2,2.3c-0.8,0.9-1.8,1.7-3,2.3c-1.3,0.6-2.7,1.2-4.3,1.6c-1.6,0.4-3.2,0.8-4.9,0.9c-1.8,0.3-3.5,0.3-5.3,0.3
			c-2.1,0-4.1-0.1-6.1-0.4c-1.9-0.3-3.6-0.6-5.2-1.2c-1.3-0.4-2.3-1-3.2-1.8c-0.9-0.8-1.7-1.7-2.2-2.7c-0.5-1-1-2.2-1.3-3.4
			c-0.3-1.2-0.4-2.5-0.4-3.8c0-1,0.1-1.9,0.3-3c0.1-1,0.4-1.9,0.8-2.9c0.4-0.9,0.8-1.8,1.2-2.7C520.9,74,521.4,73.3,522.1,72.6z
			 M542.9,78.2c-0.3,0-0.4,0.1-0.6,0.1c-0.3,0-0.4,0-0.5,0c-0.5,0-1-0.1-1.6-0.3s-0.9-0.4-1.3-0.6s-0.9-0.5-1.3-0.8
			c-0.5-0.3-1-0.4-1.6-0.5c-0.4,0-0.8,0.3-0.9,0.5c-0.3,0.3-0.4,0.6-0.5,0.9c-0.1,0.4-0.3,0.6-0.5,1c-0.1,0.3-0.5,0.5-0.9,0.6
			c-0.6,0-1.2-0.1-1.7-0.3c-0.5-0.1-0.9-0.3-1.4-0.5c-0.4-0.3-0.8-0.4-1.2-0.6c-0.4-0.3-0.8-0.5-1.2-0.6V77c0-1,0.1-1.8,0.3-2.6
			c0.1-0.8,0.4-1.6,0.5-2.3l0.1-0.3c0.1,0,0.3,0,0.3,0s0.1,0,0.3,0c0.4,0,0.9,0.1,1.4,0.3c0.5,0.1,0.9,0.3,1.4,0.5
			c0.5,0.3,0.9,0.4,1.4,0.6s0.9,0.4,1.3,0.5c0.4,0,0.8-0.1,1-0.4c0.3-0.3,0.5-0.4,0.6-0.8s0.3-0.6,0.4-0.9c0.1-0.4,0.3-0.6,0.4-1
			c0.9,0,1.8,0.1,2.6,0.4c0.8,0.3,1.4,0.5,2.1,0.9c0.5,0.4,1,0.9,1.3,1.6c0.3,0.6,0.5,1.3,0.5,2.1C543.7,76.1,543.5,77.2,542.9,78.2
			z"/>
		<path class="st0" d="M578.5,90.6c0.8,0,1.4,0.1,1.9,0.4s0.9,0.5,1.3,0.8c0.4,0.3,0.6,0.6,0.8,1c0.1,0.4,0.3,0.8,0.3,1
			c0,0.4-0.1,0.8-0.4,1.2c-0.3,0.4-0.5,0.6-0.9,1c-0.4,0.4-0.8,0.5-1.3,0.6c-0.5,0.1-1,0.3-1.6,0.3h-1.7c-1.9,0-3.5-0.3-4.9-0.6
			c-1.3-0.4-2.5-1-3.4-1.8c-0.9-0.8-1.7-1.9-2.2-3.1c-0.5-1.2-1-2.7-1.3-4.5c-0.4-2.1-0.8-4.3-1.3-6.5c-0.4-2.2-0.8-4.5-1.2-7
			c-0.1-1.2-0.4-2.3-0.6-3.5c-0.3-1.2-0.5-2.5-0.8-3.6c-0.3-1.2-0.5-2.3-0.6-3.5s-0.3-2.3-0.3-3.4c0-0.9,0.1-1.8,0.3-2.6
			c0.1-0.8,0.4-1.7,0.9-2.3c0.8-0.3,1.4-0.4,2.2-0.4c0.9,0,1.8,0.1,2.6,0.5c0.8,0.4,1.4,0.9,2.1,1.6c0.6,0.6,1.2,1.3,1.6,2.2
			c0.4,0.8,0.8,1.7,1,2.5c-0.5,0-1-0.1-1.6-0.4c-0.4-0.3-0.9-0.5-1.3-0.8c-0.4-0.3-0.8-0.5-1.2-0.8c-0.4-0.3-0.9-0.4-1.3-0.4
			c-0.3,0-0.6,0-1,0.1c-0.1,0.4-0.3,0.9-0.4,1.4s-0.1,1-0.1,1.7c0,1.2,0.1,2.3,0.4,3.6c0.3,1.3,0.5,2.6,0.8,4
			c0.3,1.4,0.6,2.7,0.9,4.1c0.4,1.4,0.6,2.9,0.8,4.1c0,0.3,0.1,0.5,0.1,0.8s0.1,0.5,0.1,0.6c0.1,1.2,0.4,2.3,0.5,3.4
			c0.1,1,0.4,1.9,0.6,2.9c0.3,0.9,0.6,1.6,1,2.3c0.4,0.6,1,1.3,1.7,1.7c0.6,0.4,1.6,0.8,2.5,1c1,0.3,2.2,0.4,3.5,0.4h1.4V90.6z"/>
		<path class="st0" d="M597.9,66.1c0,0.5,0,1,0,1.3c0,0.4-0.1,0.6-0.1,0.9c-0.1,0.3-0.3,0.5-0.4,0.8c-0.1,0.3-0.3,0.5-0.4,0.9
			c-1,0.3-2.1,0.6-3.1,1.2c-1,0.5-1.9,0.9-3,1.4c-1,0.5-1.9,0.9-3,1.3c-0.9,0.4-1.9,0.6-3,0.8c-0.1-0.4-0.1-0.6-0.1-0.8
			c0-0.3,0-0.4,0-0.6s0.1-0.5,0.1-0.8c0-0.3,0-0.6,0-1.2c1.2-0.3,2.2-0.8,3.2-1.3c1-0.5,2.1-1.2,3.1-1.7s2.1-1,3.1-1.4
			C595.6,66.4,596.6,66.1,597.9,66.1z"/>
		<path class="st0" d="M577.8,97c-0.4,0-0.6-0.3-1-0.4c-0.3-0.3-0.5-0.5-0.8-0.8c-0.3-0.3-0.4-0.6-0.5-0.9c-0.1-0.4-0.1-0.6-0.1-0.9
			c0-0.4,0-0.6,0.1-1c0.1-0.4,0.3-0.6,0.5-0.9c0.3-0.3,0.4-0.5,0.8-0.8c0.3-0.3,0.6-0.4,1-0.5h1.4c0.8,0,1.6-0.1,2.3-0.4
			c0.6-0.3,1.4-0.5,2.1-0.9c0.6-0.4,1.3-0.8,1.9-1.2c0.6-0.4,1.3-0.8,1.9-1.2c0.6-0.4,1.3-0.6,2.1-0.9c0.6-0.3,1.4-0.4,2.3-0.5
			c0.3,0,0.4-0.3,0.5-0.4c0.1-0.1,0.1-0.4,0.3-0.6c0-0.3,0.1-0.5,0.3-0.6c0.1-0.1,0.3-0.4,0.5-0.4c0.6,0.3,1.2,0.5,1.6,1
			c0.3,0.4,0.6,0.9,0.8,1.6c0.3,0.5,0.5,1.2,0.8,1.7c0.3,0.5,0.8,1,1.4,1.6c0.4,0.3,0.9,0.5,1.4,0.8c0.5,0.3,1.2,0.4,1.7,0.4
			c0.6,0.1,1.3,0.1,1.8,0.3c0.6,0,1.3,0,1.9,0h0.8c0.6,0.1,1.2,0.3,1.7,0.4c0.4,0.3,0.8,0.5,1,0.8s0.4,0.6,0.5,0.9
			c0.1,0.4,0.1,0.6,0.1,1c0,0.4-0.1,0.8-0.3,1.2c-0.1,0.4-0.4,0.8-0.6,1c-0.3,0.3-0.6,0.5-1,0.6s-0.9,0.3-1.6,0.3H605
			c-1.3,0-2.6-0.1-4-0.4s-2.7-0.5-3.9-1c-0.4,0.1-0.6,0.4-1,0.6c-0.3,0.3-0.6,0.5-0.9,0.8c-0.4,0.3-0.6,0.5-1,0.6
			c-0.4,0.1-0.8,0.3-1.3,0.3c-0.3,0-0.5,0-0.8-0.1c-0.3,0-0.5-0.1-0.8-0.3c-0.3-0.3-0.4-0.6-0.4-1c-0.1-0.4-0.1-0.9-0.3-1.3
			c-0.1-0.4-0.1-0.9-0.1-1.4c0-0.5-0.1-0.9-0.1-1.4c-0.1-0.3-0.4-0.5-0.5-0.5c-0.3,0-0.4-0.1-0.6-0.1c-0.6,0.5-1.4,1-2.3,1.7
			c-0.9,0.6-1.8,1.2-2.7,1.7c-0.9,0.5-1.9,0.9-2.9,1.3c-0.9,0.4-1.9,0.5-2.7,0.5H577.8z"/>
		<path class="st0" d="M618.4,100.6c0,0.5,0,1,0,1.3c0,0.4-0.1,0.6-0.1,0.9c-0.1,0.3-0.3,0.5-0.4,0.8c-0.1,0.3-0.3,0.5-0.4,0.9
			c-1,0.3-2.1,0.6-3.1,1.2c-1,0.5-1.9,0.9-3,1.4c-1,0.5-1.9,0.9-3,1.3c-0.9,0.4-1.9,0.6-3,0.8c-0.1-0.4-0.1-0.6-0.1-0.8
			c0-0.3,0-0.4,0-0.6c0-0.3,0.1-0.5,0.1-0.8c0-0.3,0-0.6,0-1.2c1.2-0.3,2.2-0.8,3.2-1.3c1-0.5,2.1-1.2,3.1-1.7c1-0.5,2.1-1,3.1-1.4
			C616.1,100.9,617.1,100.6,618.4,100.6z"/>
		<path class="st0" d="M604.9,97c-0.9-0.3-1.6-0.6-2.1-1.2c-0.4-0.5-0.6-1.2-0.6-1.8c0-0.6,0.3-1.3,0.6-1.9c0.5-0.6,1.2-1,1.9-1.3
			c1.2-0.1,2.3-0.3,3.2-0.3s1.7-0.3,2.5-0.5c0.6-0.3,1.2-0.6,1.6-1c0.4-0.5,0.6-1.2,0.8-2.2c0-0.9-0.1-1.9-0.4-3.1
			c-0.3-1.2-0.5-2.3-0.8-3.5c-0.3-1.3-0.6-2.6-1-3.9c-0.4-1.3-0.6-2.7-1-4c-0.3-1.3-0.5-2.7-0.8-4s-0.3-2.6-0.3-3.8
			c0-0.8,0.1-1.6,0.4-2.2c0.3-0.8,0.4-1.4,0.6-2.1h0.9c0.5,1.3,0.9,2.7,1.3,4.1c0.4,1.4,0.8,3.1,1,4.8c0.4,1.7,0.6,3.2,1,4.9
			c0.4,1.7,0.8,3.4,1.3,4.9s1,3.1,1.7,4.4c0.6,1.3,1.4,2.6,2.3,3.6c0.9,1,1.9,1.9,3.1,2.6c1.2,0.6,2.6,1,4.1,1.2h0.6
			c1,0.1,1.7,0.5,2.2,1.2c0.5,0.6,0.6,1.3,0.6,1.9c0,0.8-0.3,1.4-0.8,1.9c-0.5,0.5-1.2,1-2.1,1.3c0,0-0.3,0-0.6,0
			c-2.2-0.1-4.1-0.4-5.7-1c-1.6-0.6-2.7-1.2-3.5-1.6s-1.4-0.9-2.1-1.4c-0.5,0.6-1,1.3-1.7,1.7c-0.6,0.5-1.8,1-3.2,1.6
			C608.9,96.7,607.1,97,604.9,97z"/>
		<path class="st0" d="M641.4,39.8c0,0.5,0,1,0,1.3c0,0.4-0.1,0.6-0.1,0.9c-0.1,0.3-0.3,0.5-0.4,0.8s-0.3,0.5-0.4,0.9
			c-1,0.3-2.1,0.6-3.1,1.2c-1,0.5-1.9,0.9-3,1.4c-1,0.5-1.9,0.9-3,1.3c-0.9,0.4-1.9,0.6-3,0.8c-0.1-0.4-0.1-0.6-0.1-0.8
			c0-0.3,0-0.4,0-0.6s0.1-0.5,0.1-0.8s0-0.6,0-1.2c1.2-0.3,2.2-0.8,3.2-1.3s2.1-1.2,3.1-1.7c1-0.5,2.1-1,3.1-1.4
			C639,40.1,640.2,39.8,641.4,39.8z"/>
		<path class="st0" d="M618.5,85.2h-0.1c-0.4,0-0.8-0.1-1.3-0.5s-0.9-0.9-1.3-1.4c-0.4-0.6-0.8-1.2-1-1.9c-0.3-0.6-0.4-1.3-0.4-1.9
			s0.1-1.2,0.5-1.7c0.5-0.5,1-0.9,1.6-1.3c0.4-0.4,0.9-0.8,1.2-1c0.4-0.4,0.6-0.6,1-0.9c0.3-0.3,0.5-0.5,0.8-0.8l0.3-0.3
			c0.8-0.5,1.6-1,2.3-1.7c0.8-0.6,1.4-1.3,2.1-1.9c0.6-0.6,1.3-1.4,1.9-2.1c0.6-0.6,1.3-1.4,1.9-2.1c1.6-1,2.9-2.1,4.1-3
			c1.3-0.9,2.5-1.9,3.6-2.9c1.2-0.9,2.5-1.8,3.6-2.9c1.2-1,2.7-1.9,4.1-3h0.1c0.3,0,0.5,0,0.8,0.1c0.3,0.1,0.4,0.1,0.5,0.3
			c0,0.8-0.3,1.6-0.5,2.5c-0.3,0.8-0.6,1.6-1,2.5c-0.4,0.8-0.8,1.7-1.2,2.5c-0.4,0.8-0.8,1.6-1,2.5c-0.3,0.5-0.4,1.2-0.5,1.8
			c-0.1,0.6-0.3,1.3-0.4,1.8s-0.4,1-0.6,1.6c-0.3,0.4-0.6,0.8-1.2,1c-0.4-0.3-0.6-0.5-0.8-0.8c-0.1-0.3-0.3-0.6-0.3-0.9
			c0-0.4,0-0.6,0.1-1s0.3-0.6,0.4-1s0.3-0.8,0.4-1.2c0.1-0.4,0.3-0.8,0.3-1.2c-0.3-0.1-0.6-0.1-0.9-0.1c-0.6,0-1.4,0.3-2.2,0.6
			c-0.8,0.4-1.7,0.9-2.5,1.6c-0.8,0.6-1.7,1.3-2.5,2.1c-0.8,0.8-1.6,1.6-2.2,2.3c-0.6,0.8-1.3,1.4-1.8,2.2c-0.5,0.6-0.8,1.2-1,1.6
			c0.3,0.5,0.8,1,1.3,1.3c0.5,0.4,1.2,0.6,1.8,0.9c0.6,0.3,1.3,0.5,1.9,0.8s1.3,0.5,1.8,0.9c0.4,0.6,1,1.3,1.7,2.2
			c0.6,0.9,1.4,1.7,2.2,2.7c0.8,0.9,1.7,1.8,2.6,2.7c0.9,0.9,1.9,1.7,2.9,2.5s1.9,1.3,2.9,1.8c0.9,0.4,1.8,0.6,2.7,0.6h0.5
			c0.4,0,0.9,0.1,1.3,0.3c0.4,0.1,0.8,0.4,1,0.8c0.3,0.4,0.5,0.6,0.6,1s0.3,0.8,0.3,1.2s-0.1,0.8-0.3,1.2c-0.1,0.4-0.4,0.6-0.6,1
			c-0.3,0.4-0.6,0.5-1,0.6c-0.4,0.1-0.8,0.3-1.3,0.3h-0.5c-1-0.1-1.9-0.3-2.7-0.6c-0.8-0.4-1.4-0.6-2.1-1.2
			c-0.6-0.4-1.2-0.9-1.8-1.4c-0.5-0.5-1-1-1.7-1.6c-0.5-0.5-1.2-1-1.8-1.4c-0.6-0.5-1.3-0.9-2.2-1.2c-0.1,0-0.3,0.1-0.4,0.5
			s-0.4,0.8-0.6,1.4c-0.3,0.6-0.6,1.2-1,1.8c-0.4,0.6-0.9,1.2-1.6,1.8c-0.6,0.5-1.3,1-2.1,1.4c-0.8,0.4-1.7,0.5-2.7,0.5
			c-0.3,0-0.5-0.1-0.9-0.3c-0.3-0.1-0.5-0.4-0.8-0.6c-0.3-0.3-0.4-0.6-0.6-1c-0.1-0.4-0.3-0.8-0.3-1.2c0-0.4,0.1-0.6,0.3-1
			c0.1-0.4,0.3-0.8,0.5-1c0.3-0.4,0.5-0.6,0.8-0.8c0.3-0.3,0.6-0.4,0.9-0.4c0.5,0,1.2-0.1,1.7-0.3c0.5-0.3,1-0.5,1.6-0.8
			c0.4-0.4,0.8-0.8,1-1.2c0.3-0.4,0.4-0.9,0.4-1.4c0-0.5-0.1-0.9-0.4-1.3c-0.4-0.6-0.8-1.2-1.3-1.8c-0.5-0.5-1-1-1.7-1.6
			c-0.6-0.4-1.3-0.8-2.1-1c-0.8-0.3-1.6-0.4-2.3-0.4c-0.4,0-0.8,0-1.2,0.1c-0.4,0-0.8,0.1-1.2,0.4c-0.5,0.1-0.9,0.4-1.3,0.6
			c-0.4,0.3-0.6,0.5-0.8,0.9c-0.3,0.4-0.4,0.6-0.5,1C618.7,84.3,618.7,84.7,618.5,85.2z"/>
		<path class="st0" d="M660,110.9c0,0.5,0,1,0,1.3c0,0.4-0.1,0.6-0.1,0.9c-0.1,0.3-0.3,0.5-0.4,0.8c-0.1,0.3-0.3,0.5-0.4,0.9
			c-1,0.3-2.1,0.6-3.1,1.2c-1,0.5-1.9,0.9-3,1.4c-1,0.5-1.9,0.9-3,1.3c-0.9,0.4-1.9,0.6-3,0.8c-0.1-0.4-0.1-0.6-0.1-0.8
			c0-0.3,0-0.4,0-0.6c0-0.3,0.1-0.5,0.1-0.8c0-0.3,0-0.6,0-1.2c1.2-0.3,2.2-0.8,3.2-1.3c1-0.5,2.1-1.2,3.1-1.7s2.1-1,3.1-1.4
			C657.7,111,658.9,110.9,660,110.9z"/>
		<path class="st0" d="M652.4,90.6c1,0,2.1-0.1,3.1-0.4c1-0.3,1.8-0.5,2.3-0.9c0-0.6-0.1-1.2-0.3-1.6c-0.1-0.4-0.3-0.8-0.5-1
			c-0.3-0.3-0.4-0.5-0.6-0.8c-0.3-0.3-0.4-0.5-0.6-0.8c-0.3-0.3-0.4-0.6-0.5-1c-0.1-0.4-0.1-0.9-0.1-1.6c0-0.5,0.1-1,0.4-1.7
			c0.3-0.5,0.5-1.2,0.9-1.8c0.6,0.6,1.2,1.3,1.8,1.9c0.5,0.6,1,1.3,1.4,1.9c0.4,0.6,0.8,1.4,1,2.3c0.3,0.9,0.4,1.9,0.4,3.2
			c0,1-0.1,1.9-0.4,2.9c-0.3,0.9-0.8,1.8-1.4,2.6c-0.8,1-1.8,1.8-3.1,2.3c-1.2,0.4-2.5,0.6-3.8,0.6h-4.7c-1-0.3-1.7-0.6-2.2-1.3
			c-0.5-0.6-0.6-1.3-0.6-1.9c0-0.6,0.3-1.3,0.8-1.9c0.5-0.6,1.2-1,2.2-1.2H652.4z M652.6,99.7c1.2,0.1,2.1,0.4,2.9,0.8
			c0.8,0.4,1.4,0.9,2.1,1.6c0,1-0.1,1.9-0.4,2.9c-0.3,0.9-0.5,1.6-1.2,1.9h-0.4c-1.9,0-3.4-0.6-4.1-1.8c0-0.5,0.1-1,0.1-1.6
			c0-0.5,0-0.9,0.1-1.4c0-0.4,0.1-0.9,0.3-1.3C652.1,100.5,652.4,100.1,652.6,99.7z"/>
		<path class="st0" d="M667.7,59.4c0.3-0.6,0.6-1.2,1.2-1.6s1-0.6,1.7-0.9c0.6-0.3,1.2-0.6,1.7-0.9c0.5-0.4,0.9-0.8,1.3-1.4
			c-0.8-0.5-1.3-1.2-1.7-2.1c-0.4-0.8-0.5-1.8-0.5-2.7s0.1-1.9,0.4-2.9c0.3-1,0.6-1.8,1.2-2.6c0.5-0.8,1.2-1.4,1.8-1.9
			c0.6-0.5,1.4-0.8,2.2-0.8c0.6,0,1.2,0.1,1.8,0.5c0.6,0.4,1.3,0.9,1.9,1.6c0.1,0.5,0.3,1,0.3,1.4c0,0.5,0.1,0.9,0.1,1.4
			c0,1.7-0.4,3.2-1.2,4.7c-0.8,1.4-1.7,2.6-2.9,3.6c-0.6,0.6-1.3,1.2-2.2,1.7c-0.8,0.5-1.6,1-2.5,1.4c-0.8,0.4-1.7,0.8-2.5,1
			C669.2,59.3,668.5,59.4,667.7,59.4z M678.3,48.2c0-0.3-0.1-0.5-0.3-0.8c-0.1-0.3-0.4-0.4-0.6-0.5c-0.3-0.1-0.5-0.3-0.8-0.4
			c-0.3-0.1-0.6-0.1-0.9-0.1s-0.4,0-0.6,0c-0.1,0-0.4,0.1-0.5,0.3c-0.4,0.3-0.6,0.4-0.8,0.6s-0.3,0.4-0.3,0.6c0,0.3,0.1,0.5,0.3,0.8
			c0.1,0.3,0.4,0.5,0.6,0.6c0.3,0.3,0.6,0.4,0.9,0.5c0.4,0.1,0.6,0.1,1,0.1c0.4,0,0.8-0.1,1.2-0.4c0.4-0.3,0.5-0.6,0.5-1.3v-0.1
			H678.3z"/>
		<path class="st0" d="M669.1,97c-0.3-0.3-0.4-0.5-0.5-1c-0.1-0.4-0.1-0.9-0.1-1.4c0-0.6,0-1.2,0.1-1.8c0.1-0.6,0.3-1.2,0.5-1.6
			c0.8-0.8,1.8-1.3,2.9-1.6c1.2-0.4,2.3-0.6,3.5-0.9c1.2-0.3,2.5-0.5,3.6-0.8s2.2-0.6,3.2-1.3c-0.9-0.8-1.8-1.4-3-2.1
			c-1-0.6-2.2-1.2-3.4-1.7c-1.2-0.5-2.3-1-3.4-1.7c-1.2-0.5-2.1-1.2-3-1.9c0-0.3,0.1-0.5,0.1-0.6c0-0.3,0-0.4,0-0.6l-0.1-2.2
			c0-0.3,0-0.4,0-0.6s0-0.4,0.1-0.6c0.1,0,0.3-0.1,0.3-0.1c0-0.1,0.1-0.1,0.3-0.1c1.3,0,2.6,0.1,3.9,0.5c1.3,0.4,2.6,0.8,3.9,1.4
			c1.3,0.6,2.5,1.3,3.5,2.2c1.2,0.9,2.1,1.8,2.9,2.9c0.8,1,1.4,2.2,1.9,3.4s0.8,2.5,0.8,3.8c0,1.4-0.3,2.9-0.9,4.1
			c-1.3,0.5-2.6,1-4.1,1.4c-1.4,0.4-3,0.6-4.4,0.9c-1.6,0.3-3,0.6-4.4,0.9C671.7,96,670.4,96.5,669.1,97z M673.9,63.9
			c1.2,0.1,2.1,0.4,2.9,0.8c0.8,0.4,1.4,0.9,2.1,1.6c0,1-0.1,1.9-0.4,2.9c-0.1,0.9-0.5,1.6-1.2,1.9h-0.4c-1.9,0-3.4-0.6-4.1-1.8
			c0-0.5,0.1-1,0.1-1.6s0-0.9,0.1-1.4c0-0.4,0.1-0.9,0.3-1.3C673.3,64.7,673.5,64.3,673.9,63.9z"/>
		<path class="st0" d="M697.6,73.6c0.5-0.6,1.2-1.2,1.8-1.6c0.8-0.4,1.4-0.8,2.2-1.2c0.8-0.4,1.6-0.8,2.2-1.2c0.6-0.4,1.3-1,1.7-1.7
			c-0.3-0.4-0.6-0.8-1-0.9c-0.4-0.1-0.9-0.3-1.4-0.3c-0.4,0-0.9,0-1.3,0.1c-0.5,0.1-0.9,0.3-1.3,0.4c-0.4,0.1-0.9,0.3-1.3,0.4
			s-0.8,0.3-1,0.4c-0.1-0.5-0.3-1.2-0.3-1.7c0-0.8,0.1-1.4,0.5-1.9c0.4-0.5,0.8-1,1.3-1.4c0.5-0.4,1.2-0.6,1.8-0.9
			c0.6-0.3,1.4-0.3,2.1-0.3c0.5,0,1,0,1.6,0.1c0.5,0.1,1,0.3,1.4,0.5c0.4,0.3,0.8,0.5,1,0.9c0.3,0.4,0.5,0.8,0.6,1.3
			c0.1,0.4,0.1,0.8,0.1,1.3c0,0.9-0.1,1.7-0.5,2.3c-0.4,0.6-0.8,1.3-1.3,1.9c-0.5,0.5-1.2,1-1.8,1.6c-0.6,0.4-1.4,0.8-2.2,1
			c-0.8,0.3-1.6,0.5-2.2,0.6c-0.6,0.1-1.4,0.3-2.1,0.3c-0.1,0-0.3,0-0.3,0S697.8,73.6,697.6,73.6z"/>
		<path class="st0" d="M713.9,90.6h1.2c0.3,0.1,0.5,0.3,0.8,0.5c0.3,0.3,0.5,0.4,0.6,0.8c0.3,0.3,0.4,0.6,0.5,0.9
			c0.1,0.4,0.3,0.6,0.3,1c0,0.3,0,0.5-0.1,0.9c0,0.3-0.1,0.6-0.4,0.9c-0.1,0.3-0.4,0.5-0.6,0.8c-0.3,0.3-0.6,0.5-1,0.6
			c-0.3,0-0.5,0-1,0c-0.4,0-0.9,0-1.3,0s-0.8,0.1-1.2,0.1c-0.4,0.1-0.5,0.3-0.6,0.4c-0.5,1.8-1.2,3.5-2.1,5.1c-0.8,1.6-1.8,3-3,4.1
			c-1.2,1.2-2.5,2.2-4,2.9c-1.6,0.6-3.4,1-5.4,1.2H696c-0.8,0-1.7,0-2.6-0.1s-1.8-0.1-2.7-0.3c-0.9-0.1-1.8-0.3-2.7-0.3
			s-1.8-0.1-2.7-0.1c1-0.8,2.1-1.3,3.2-1.7s2.5-0.8,3.8-1.2c1.3-0.4,2.6-0.8,3.9-1c1.3-0.4,2.5-0.8,3.6-1.4l0.8-0.4
			c0.6-0.4,1.4-0.6,2.1-1c0.8-0.4,1.4-0.8,1.9-1.3c0.6-0.5,1.2-1,1.6-1.7c0.4-0.6,0.6-1.3,0.8-2.2c-0.6-0.1-1.4-0.4-2.2-0.4
			c-0.8-0.1-1.6-0.3-2.5-0.4c-0.8-0.1-1.7-0.4-2.5-0.5c-0.8-0.3-1.4-0.5-2.1-1c-0.4-0.8-0.5-1.7-0.8-2.6c-0.1-0.9-0.3-1.8-0.3-2.7
			c0-0.9,0.1-1.8,0.3-2.7c0.1-0.9,0.5-1.7,0.9-2.3c0.4-0.6,0.9-1.3,1.4-1.7c0.6-0.4,1.3-0.6,2.1-0.8c0.1,0,0.3,0,0.3,0s0.1,0,0.3,0
			c1,0,1.8,0.3,2.6,0.6c0.8,0.5,1.4,1,1.9,1.8s1,1.6,1.6,2.3c0.5,0.8,0.9,1.7,1.4,2.5c0.3,0.4,0.5,0.5,0.9,0.6
			c0.4,0.1,0.8,0.1,1.2,0.1h2.5V90.6z"/>
		<path class="st0" d="M719.8,64.2c0.3-0.6,0.6-1.2,1.2-1.6c0.5-0.4,1-0.6,1.7-0.9c0.6-0.3,1.2-0.6,1.7-0.9c0.5-0.4,0.9-0.8,1.3-1.4
			c-0.8-0.5-1.3-1.2-1.7-2.1c-0.4-0.8-0.5-1.8-0.5-2.7s0.1-1.9,0.4-2.9s0.6-1.8,1.3-2.6c0.6-0.8,1.2-1.4,1.8-1.9
			c0.6-0.5,1.4-0.8,2.2-0.8c0.6,0,1.2,0.1,1.8,0.5s1.3,0.9,1.9,1.6c0.1,0.5,0.3,1,0.3,1.4c0,0.5,0.1,0.9,0.1,1.4
			c0,1.7-0.4,3.2-1.2,4.7c-0.8,1.4-1.7,2.6-2.9,3.6c-0.6,0.6-1.3,1.2-2.2,1.7c-0.8,0.5-1.6,1-2.5,1.4c-0.8,0.4-1.7,0.8-2.5,1
			C721.4,64.1,720.5,64.2,719.8,64.2z M730.5,53c0-0.3-0.1-0.5-0.3-0.8c-0.1-0.3-0.4-0.4-0.6-0.5c-0.3-0.1-0.5-0.3-0.8-0.4
			c-0.3-0.1-0.6-0.1-0.9-0.1s-0.4,0-0.6,0c-0.1,0-0.4,0.1-0.5,0.3c-0.4,0.3-0.6,0.4-0.8,0.6c-0.1,0.3-0.3,0.4-0.3,0.6
			s0.1,0.5,0.3,0.8c0.1,0.3,0.4,0.5,0.6,0.6c0.3,0.3,0.6,0.4,0.9,0.5c0.4,0.1,0.6,0.1,1,0.1c0.4,0,0.8-0.1,1.2-0.4
			c0.4-0.3,0.5-0.6,0.5-1.3V53H730.5z"/>
		<path class="st0" d="M714.4,97c-0.5,0-1-0.3-1.4-0.4s-0.6-0.4-0.9-0.8c-0.3-0.3-0.4-0.5-0.5-0.9c-0.1-0.4-0.1-0.6-0.1-1
			c0-0.4,0-0.8,0.1-1c0.1-0.3,0.3-0.8,0.5-1s0.5-0.5,0.9-0.8c0.4-0.3,0.8-0.4,1.4-0.4c0.4,0,0.9,0,1.4,0s1.2,0,1.8-0.1
			c0.6,0,1.3-0.1,1.8-0.3c0.5-0.1,1.2-0.3,1.7-0.4c-0.4-0.8-0.6-1.6-0.9-2.3c-0.1-0.8-0.3-1.7-0.3-2.5c0-1,0.1-1.9,0.4-3
			c0.3-0.9,0.5-1.8,0.9-2.7c0.4-0.8,0.9-1.6,1.4-2.3c0.5-0.8,1.2-1.3,1.8-1.7c0.3,0,0.6-0.1,1.2-0.1c0.8,0,1.6,0.1,2.6,0.3
			c1,0.1,2.1,0.4,3.2,0.6c1.2,0.3,2.3,0.5,3.4,0.9s2.2,0.8,3.1,1.3s1.7,0.9,2.2,1.6c0.6,0.5,0.9,1.2,0.9,1.7c-1,0-2.1-0.3-3.2-0.5
			s-2.2-0.6-3.2-0.9s-2.2-0.6-3.2-0.9s-2.2-0.4-3.2-0.4c-0.9,0-1.7,0.1-2.5,0.4c-0.8,0.3-1.6,0.6-2.3,1.2c0.3,1.6,0.8,2.7,1.7,3.8
			c0.9,1,1.9,1.7,3.2,2.3c1.3,0.5,2.7,0.9,4.4,1.2c1.6,0.3,3.2,0.4,5.1,0.4s3.8-0.1,5.6-0.3c1.8-0.1,3.6-0.4,5.2-0.6
			c0,0.5,0,1-0.1,1.6c-0.1,0.4-0.3,0.9-0.4,1.3c-0.1,0.4-0.3,0.8-0.4,1.3c-0.1,0.4-0.3,0.9-0.3,1.4c-1.6,0-3.1,0.1-4.8,0.4
			c-1.7,0.3-3.5,0.5-5.3,0.9c-1.8,0.4-3.8,0.6-5.6,1c-1.8,0.4-3.9,0.8-5.7,1c-1.9,0.4-3.8,0.6-5.7,0.8C718,96.9,716.2,97,714.4,97z"
			/>
		<path class="st0" d="M761.7,49.7c0,0.5,0,1,0,1.3c0,0.4-0.1,0.6-0.1,0.9c-0.1,0.3-0.3,0.5-0.4,0.8c-0.1,0.3-0.3,0.5-0.4,0.9
			c-1,0.3-2.1,0.6-3.1,1.2c-1,0.5-1.9,0.9-3,1.4c-1,0.5-1.9,0.9-3,1.3c-0.9,0.4-1.9,0.6-3,0.8c-0.1-0.4-0.1-0.6-0.1-0.8
			c0-0.3,0-0.4,0-0.6s0.1-0.5,0.1-0.8s0-0.6,0-1.2c1.2-0.3,2.2-0.8,3.2-1.3c1-0.5,2.1-1.2,3.1-1.7c1-0.5,2.1-1,3.1-1.4
			C759.4,49.9,760.5,49.7,761.7,49.7z"/>
		<path class="st0" d="M753,64.4c0-0.6,0.1-1.2,0.1-1.7c0-0.4,0.1-0.8,0.1-0.9c0-0.3,0.1-0.4,0.1-0.4c0-0.1,0.1-0.1,0.1-0.1
			c0.1-0.1,0.3-0.3,0.3-0.3l0.3-0.1c0.1,0,0.3,0.1,0.5,0.3c0.6,0.6,1.3,1.2,2.1,1.8c0.8,0.6,1.6,1.3,2.2,2.1
			c0.6,0.8,1.3,1.6,1.8,2.5c0.5,0.9,0.8,1.9,0.8,3.2c0,0.3,0,0.5-0.1,0.9v0.1c0,0.4-0.1,0.6-0.3,0.6c-0.1,0-0.4,0.3-0.6,0.3
			c-0.3,0.1-0.5,0.1-0.6,0.3c-0.3,0.1-0.4,0.3-0.5,0.4c0.1,1.6,0.4,3.1,0.8,4.7c0.4,1.6,0.8,3.1,1.3,4.7c0.4,1.6,0.9,3.1,1.2,4.7
			c0.4,1.6,0.5,3.1,0.5,4.7c0,0.8,0,1.6-0.1,2.5c-0.1,0.8-0.3,1.6-0.6,2.5c-0.5-0.3-0.8-0.6-1-1c-0.3-0.4-0.4-0.8-0.5-1.2
			c-0.1-0.4-0.1-0.8-0.3-1.2c0-0.4-0.1-0.8-0.1-1.2c-0.1-1-0.4-2.1-0.6-3.2c-0.3-1.2-0.6-2.5-1-3.8c-0.4-1.3-0.8-2.6-1.2-3.9
			c-0.4-1.3-0.8-2.6-1.2-3.9c-0.3-1-0.5-1.9-0.9-3s-0.8-2.1-1-3.1c-0.4-1-0.6-2.2-0.9-3.2c-0.3-1-0.4-2.2-0.4-3.2L753,64.4L753,64.4
			z"/>
	</g>
</g>
<g>
	<g>
		<g>
			<path class="st1" d="M425.6,193.3l0.2,0.2c1.3,0.2,2.1,0.2,2.5,0.2c1.5-1.7,2.3-2.7,2.3-2.9c0.8-1,1.3-2.3,1.5-3.4
				c0.4-2.1,0.8-5.9,0.8-11.3c0.2-1,0.4-2.1,1-3.6c0.8-1.9,1.3-3.1,1.5-3.4c0.2-0.2,0.2-0.4,0.6-0.6c0.4,0,0.6,0,0.6,0.2
				c-0.2,0.8-0.2,1.9-0.4,3.4c-0.2,2.3-0.2,4.6-0.2,7.1c-0.2,2.7-0.6,5-1.3,6.7l0,0c2.5-2.3,4.8-3.6,6.5-3.6c0.8,0,1.5,0.2,2.3,0.6
				c1,0.6,1.7,1.5,1.7,2.7c-0.2,1.9-1.9,4.4-5,7.1c-2.5,1.5-5,2.7-7.5,3.6c-0.8,0.2-1.7,0.4-2.5,0.4c-1.9,0-3.6-0.6-4.6-2.1h-0.2
				c-1.5,2.5-3.8,4.2-6.7,5.4c-1.7,0.6-4.4,1.5-8.4,2.1c-3.1,0.6-6.5,0.8-9.6,0.8c-3.4,0-6.3-0.4-9-1c-1.9-0.4-2.7-1.5-3.1-2.9
				c-0.2-0.8-0.2-1.9-0.2-2.7c0-1.7,0.2-3.6,0.8-6.3c0.2-0.4,0.4-0.6,0.8-0.4c0.2,0.4,0.4,1,0.2,1.7c0,0.8,0,1.5,0,1.7
				c-0.2,1,0.4,1.7,1.5,2.1c2.9,1,6.7,1.5,11.1,1.5c1.9,0,4.4-0.2,6.9-0.4c6.5-0.4,11.1-1.5,13.6-3.1c0.6-0.4,1.7-1.5,2.9-3.6
				c0.2-0.2,0.4-0.2,0.8-0.2c0.2,0.2,0.2,0.4,0,0.8C426.2,191.3,426,192.3,425.6,193.3z M410.5,190.2c-1.3-0.6-2.7-1.7-4.4-3.1
				l-2.7,3.1c-2.1-0.6-3.8-1.7-4.8-3.6c2.1-2.7,3.4-4.2,3.6-4.4c0.6,0.6,1.5,1.3,2.1,1.9c0.8,0.6,1.5,1,2.3,1.5l3.4-3.4
				c2.1,1.7,3.6,2.9,4.6,3.8C412.6,187.9,411.3,189.4,410.5,190.2z M439.4,186c-1.7,0.2-3.4,1.3-5,2.9c0,0-1.3,1.7-3.8,4.6
				c1.5-0.4,3.1-0.6,4.6-0.8c1.9-0.4,3.1-1,4.4-1.9c1-0.8,1.7-1.9,1.7-2.9S440.7,186.2,439.4,186z M443,176.8
				c-1.7-0.6-3.4-1.9-4.8-3.6c2.1-2.5,3.4-4,3.6-4.2c1.5,1.3,3.1,2.5,4.6,3.6L443,176.8z"/>
			<path class="st1" d="M466.2,193.8l-0.2,0.4c0.4,0,0.8,0,1.3-0.2c0.4-0.2,0.8-0.2,1.3-0.4c1.5-0.8,2.7-2.1,4.2-4
				c1-1.7,2.1-3.1,3.1-4.8c0.6-0.8,1.3-1.9,2.3-3.4c-0.8-0.4-2.1-1-3.8-1.9c-2.3-0.8-3.6-1.3-3.8-1.3c-0.6,0-1,0.2-1.7,0.4
				c-0.2,0.2-0.6,0.6-0.8,1c-0.2,0.6-0.4,0.8-0.6,1c-0.2,0-0.4,0-0.6-0.4c0.4-2.5,1.5-4.2,2.7-5c0.6-0.2,1.3-0.4,1.9-0.4
				c0.8,0,1.9,0.2,3.1,0.6c1,0.4,1.9,0.8,2.9,1.3c0.4,0.2,2.1,0.8,5.4,1.9c0.2,0.2,0.4,0.4,0.2,0.8c0,0-1.3,1.5-3.8,4
				c-1,1-2.3,2.9-4,5.4c-1.5,2.7-2.7,4.4-3.8,5.4c-1.7,1.7-3.6,2.7-5.9,2.9c-0.2,0-0.6,0-1.3,0c-0.4,0-0.8-0.2-1-0.2
				c-1.5,1.7-2.5,2.9-3.1,3.6c-1.5,1.3-2.7,1.9-4.2,2.1c-1.7,0-2.9-0.8-4-2.3c-1-2.3-1.5-5-1.5-8.4c0-0.6,0-2.3,0.2-4.6
				c0-1.9,0-3.6,0-4.6c0-1.7,0-4.4,0.2-7.7c0.4-1,1-2.5,1.7-4.6c0-0.2,0.2-0.2,0.4-0.4c0.4,0,0.6,0.2,0.6,0.4c-0.2,1-0.2,2.7-0.4,5
				c-0.4,7.1-0.4,12.1,0,15.3c0.2,2.9,1.3,4.8,2.9,5.4c0.4,0.2,0.8,0.2,1.3,0.2c1,0,2.1-0.4,2.9-1.3c-0.8-1.5-1.5-2.9-1.5-5
				c0-1.9,0.4-3.4,1.3-4.8c0.8-1.5,1.9-2.3,2.9-2.5c1.3-0.2,2.3,0.2,2.9,1c0.6,0.8,1.3,2.1,1.3,3.6
				C467.7,189.2,467.3,191.3,466.2,193.8z M460.8,164.2l0.4,0.2c0.8,0.8,2.1,1.9,4,3.6c0,0,0,0.2,0,0.6c-1.3,1.5-2.3,2.7-3.6,3.8
				c-0.2,0-0.2,0-0.4,0c-0.2,0-0.8-0.4-1.9-1c-0.4-0.4-1-0.8-1.5-1.3c-0.4-0.4-0.8-1-1-1.5C457.4,167.6,458.9,166.1,460.8,164.2z
				 M463.3,193.6l1.3-1c0.8-0.8,1.5-1.7,1.5-2.9c0-0.4-0.2-1-0.4-1.5c-0.4-0.8-1-1.3-2.1-1.3c-0.6,0.2-1.3,0.4-1.9,1
				c-0.6,0.6-0.8,1.3-0.8,1.9c0,0.6,0.4,1.5,1,2.5c0.2,0,0.2,0.2,0.6,0.6C462.7,193.6,462.9,193.6,463.3,193.6z"/>
			<path class="st1" d="M511.2,184.6h0.4c0.8,1.3,1.7,1.9,2.3,1.9c0.2,0.2,0.6,0.2,0.8,0.2c0.8,0,1.9-0.4,2.7-1.3
				c0.2-0.4,0.8-0.8,1.5-1.5c0,0,0.2,0.4,0.2,0.8c0,0.4,0.4,0.6,0.6,0.8c0.4,0.2,0.6,0.2,1,0.2c1,0,2.3-0.8,4.2-2.5
				c0.2,0,0.4,0,0.4,0.2c0.2,0.2,0.2,0.2,0,0.4c-0.4,1.3-1.3,2.5-2.5,3.4c-1.3,1-2.5,1.5-4,1.5c-0.8,0-1.7-0.2-2.5-0.6
				c-0.6,0.4-1.3,0.8-1.9,1.3c-0.8,0.4-1.5,0.6-2.1,0.6c-0.2,0-0.6,0-0.8-0.2c-0.4-0.2-1-0.4-2.1-1c-1.7,1.5-3.6,2.7-6.1,3.8
				c-0.8,0.4-1.7,1-2.3,2.1c-0.2,0.2-0.2,0.6-0.2,0.8c0.6,0.4,1.3,0.8,2.3,1c0.8,0.2,1.7,0.2,2.7,0.4l6.7,0.4l14,0.2
				c3.4,0,8.4-0.2,15.1-0.8c1-0.2,2.5-0.4,4.6-0.6c0.2,0.2,0,0.4-0.2,0.8c-0.6,0.6-1.7,1.3-2.7,1.7s-1.9,0.8-2.9,1.3
				c-2.9,1-6.7,1.9-10.9,2.3c-1.7,0.2-5.7,0.4-11.5,0.8c-4.4,0.2-7.5,0.4-9,0.4c-4,0-7.3-0.4-10.1-1.3c-1.5-0.6-2.5-1.5-2.7-2.5
				c0.4-2.3,1.9-4.8,4.8-7.5c1.5-1.5,3.6-2.9,6.3-4.2c0.4-0.4,0.8-0.8,1.5-1.7C510.4,185.4,510.8,184.8,511.2,184.6z"/>
			<path class="st1" d="M566.5,179.1c0.4-0.4,0.8-0.4,1.5,0c0.8,0.6,1.7,1.3,2.7,2.1c0.4,0.2,0.6,0.4,0.6,0.6c0,0.2-0.4,0.8-1.5,1.9
				l-1.7,1.9c-0.6,0-1,0-1.5-0.4c-0.4-0.2-1-0.8-1.9-1.9c-0.4-0.4-0.8-0.8-0.8-0.8c0-0.2,0.4-0.6,1.5-1.7
				C565.9,179.7,566.5,179.1,566.5,179.1z"/>
			<path class="st1" d="M575.5,202.4c0.4-0.4,0.6-0.6,0.6-0.6s0.4,0.2,0.8,0.6c1.5,1.5,2.7,2.3,3.8,2.9c0,0,0.2-0.2,0.6-0.6
				c1.5-1.7,2.3-2.5,2.5-2.7c0,0,0.2,0.2,0.6,0.4c1.3,1,2.5,2.1,3.6,2.9c0,0,0,0.2,0,0.4s-0.4,0.6-1,1.5l-0.4,0.4
				c-1.3,1.5-1.9,2.3-2.1,2.3c0,0-0.2,0-0.4,0c-0.6,0-1.5-0.4-2.5-1.5c-0.8-0.6-1.3-1.3-1.5-1.7c-0.2-0.2-0.2-0.2-0.2-0.4
				c0,0-0.6,0.4-1.5,1.5c-0.8,1-1.5,1.5-1.5,1.7c-0.4,0-0.8,0-1.3-0.2c-0.8-0.4-1.7-1-2.5-1.9c-0.6-0.6-1-1-1-1.3
				C572.6,205.9,573.7,204.7,575.5,202.4z"/>
			<path class="st1" d="M591,193.1c0.6-0.6,1-0.8,1-0.8c0.2,0,0.4,0.2,0.6,0.4c0.8,0.8,1.9,1.7,3.1,2.7c0.2,0.2,0.4,0.4,0.6,0.4
				c0,0,0.6-0.6,1.5-1.7c1-1,1.5-1.7,1.7-1.7c0.2,0,0.4,0.2,0.8,0.6c0.8,0.8,1.9,1.7,2.9,2.5c0.2,0.2,0.4,0.4,0.4,0.4
				c0,0.2-0.2,0.6-0.8,1.3l-2.9,3.1c-0.8-0.2-1.9-0.6-2.7-1.5c-1-0.8-1.7-1.5-1.9-2.1c0,0-0.2,0-0.2,0.2c-0.6,0.8-1.7,1.7-2.7,2.9
				c-0.2,0-0.2,0-0.4,0c-0.6-0.2-1.7-0.8-2.9-2.3c-0.6-0.6-1-1-1-1.3c0-0.2,0-0.2,0-0.2L591,193.1z M591.9,205.1
				c1.3-1.5,2.5-2.7,4-4c0,0,0.2,0.2,0.6,0.6c1,1,2.1,1.9,3.1,2.9c0,0,0,0.2,0,0.4s-0.4,0.6-1,1.3l-2.7,2.5
				c-0.4-0.2-0.8-0.4-1.5-0.6C593.6,207.2,592.7,206.3,591.9,205.1z"/>
			<path class="st1" d="M584.8,175.3c0.8-1,2.3-1.5,4.6-1.5h1l3.1,0.6c2.3,0.4,4.2,0.8,5.7,0.8c0.2,0,0.4,0.2,0.4,0.4
				s-0.6,1-2.3,2.7c-1.5,1.5-2.7,2.7-3.1,3.6c-0.4,0.6-1,1.7-2.1,3.1c-1.7,2.7-2.9,4.6-4,5.4c-0.4,0.4-0.6,0.6-0.8,0.6
				c-0.4,0.2-1.7,0-3.6-0.2c-2.1-0.4-4-0.4-5.4,0c-1.7,0.6-3.4,2.1-5,4.8c-0.4,0.6-1,1.7-1.9,2.9c-1.5,2.5-3.1,4.8-5,6.5
				c-2.1,1.7-4.6,3.4-7.7,4.4l-1.5,0.6h-1v-0.2c0-0.2,0.2-0.4,0.8-0.8c4.4-2.3,8-5,10.7-8.4c1-1.3,2.3-2.9,3.4-5l0.4-0.8
				c1.9-3.4,3.4-5.7,4.8-7.1c0.6-0.6,1.3-1,1.9-1.5c1.3-0.8,2.7-1.5,4.4-1.5c0.4,0,1.7,0,3.6,0.2c1.9,0.2,2.9,0.2,3.1,0
				c1-0.6,1.7-1.5,2.3-2.7c1-1.7,1.9-3.1,2.9-4.6c-1.9-0.6-4.4-1-7.3-1.5c-0.6,0-1,0-1.3,0.2c-0.2,0.2-0.4,0.4-0.8,0.8
				c-0.6,0.6-0.8,0.8-1,0.8c-0.4,0-0.6-0.2-0.4-0.6C583.5,177,584.1,176.2,584.8,175.3z"/>
			<path class="st1" d="M641.9,166.8l0.2,0.4c-0.4,1.3-0.8,3.1-1.7,5.7c-0.2,0.2-0.4,0.4-0.8,0.4c-0.6,0-0.8,0-1,0.2
				c-3.4,1.7-5.4,4.2-6.3,7.3c-0.2,0.8,0,1.7,0.6,2.3c0.2,0.2,1,0.4,2.5,0.8c1,0.2,1.7,0.8,2.1,1.5c0.4,0.8,0.8,2.1,0.8,3.6
				c0,0.4,0,1-0.2,1.9c0,1-0.2,1.5-0.2,1.9c-0.6,3.6-1.9,6.7-3.6,9.4c-1.9,3.1-4.4,5.4-7.1,7.1c-1.3,0.6-2.7,1-4.4,1
				c-1.9,0-3.4-0.4-4.6-1.5c-2.7-2.3-4.2-5.9-4.2-10.7c0-4,1-9.8,3.6-17.4l0.4-0.2c0.2,0.2,0.2,0.6,0.2,1.3c-1.3,5.2-1.9,9-1.9,11.3
				c0,4.8,1.3,8,3.6,9.4c1,0.8,2.5,1,3.8,1c2.5,0,5.2-1,8-3.1c2.7-2.5,4.2-4.8,4.4-7.1c0.2-1-0.2-1.9-0.8-2.3
				c-1-0.2-1.9-0.6-2.9-0.8c-1-0.4-1.9-1-2.1-1.9c-0.4-0.8-0.4-1.9-0.4-2.9s0.2-2.3,0.6-4c1.5-6.3,4.4-10.9,8.6-13.8
				c1-0.4,1.7-0.6,1.7-0.6C641.5,166.5,641.7,166.5,641.9,166.8z"/>
			<path class="st1" d="M652.6,184.3c1.9,1.3,2.7,3.1,2.7,5.7c0,1.5-0.4,3.1-1.3,5.2c-0.8,1.7-1.7,3.1-2.5,4.8
				c-0.4,1-1.7,1.7-3.8,1.9c-1.3,0.2-3.1,0.6-5.9,1c0,0-0.2-0.2-0.4-0.4c0.2-0.4,0.6-0.8,1.3-1l1.7-0.6c1.7-0.8,4-2.1,7.1-3.8
				c0.6-0.6,0.8-1.7,0.6-2.7c-0.2-1.7-1.5-3.1-3.8-4.4c0-0.2,0-0.2,0-0.4c0-0.4,0.2-0.8,0.4-1.5c0.2-0.6,0.4-1,0.4-1.3
				c0.2-0.6,0.6-1.7,1.3-2.7c0.2-0.2,0.4-0.4,0.6-0.4c0.2,0,0.4,0.2,0.8,0.4C652.4,184.1,652.6,184.3,652.6,184.3z M651.1,172.2
				l0.4,0.2c1,1,2.3,2.1,3.8,3.1c-0.2,0.4-0.6,1-1,1.7c-0.4,0.6-1,1.3-1.5,1.9c-0.2,0.2-0.4,0.4-0.6,0.6c-0.2,0.2-0.4,0.2-0.6,0.2
				c-0.8-0.4-1.7-1-2.1-1.7c-0.6-0.4-1.3-0.8-1.9-1.7C648.8,174.7,650.1,173.2,651.1,172.2z"/>
			<path class="st1" d="M668.5,193.6l-0.2-0.2c-1.7,0.2-2.9,0-4-0.8c-0.4-0.4-0.6-1-0.6-1.7c0-0.6,0.2-1.3,0.6-2.1
				c0.6-1.3,0.8-1.9,0.8-1.9c0.4-1.3,0.6-1.9,0.8-2.3c0.4-0.8,1-1.3,1.7-1.3c0.8-0.2,1.7,0.2,2.5,1.3s1.3,2.5,1.3,4.6
				c1.7-0.2,3.6-1.3,5.2-2.7c0.8-0.8,2.3-2.5,4-4.6c0.2-0.4,0.8-0.8,1.9-1.7c0.8-0.6,1.3-1.3,1.3-1.9c0.6-1.3,1.3-2.3,1.9-2.7
				c0.4,0,0.6,0.2,0.8,0.6c0.4,0.6,0.4,1,0.4,1c1,1.3,2.1,2.5,3.4,3.6c0,0.6-0.2,1-0.4,1.7c-0.4,0.6-1,1.3-1.5,1.7
				c-0.6,0.6-1.3,1-1.7,1.3c-0.4,0-1-0.2-1.9-0.6c-0.8-0.4-1.5-0.6-2.1-0.6c-0.4,0-0.6,0-1,0.2c-1,0.4-2.1,1.3-2.9,2.5
				c-1.7,1.9-2.5,2.9-2.7,3.1c-1.9,1.9-3.4,2.7-4.6,2.9c-0.4,1.5-1,3.4-2.1,5.4c-0.6,1.5-1.5,2.5-2.3,3.4c-0.2,0.2-0.6,0.2-1,0.4
				c-0.6,0-0.8,0.2-1,0.2c-2.5,0.6-4.4,1-5.7,1c-0.2,0-0.2-0.2-0.4-0.4c0-0.2,0.4-0.4,0.8-0.6c0.4-0.2,0.8-0.4,0.8-0.4
				c0.4-0.2,1.9-1.3,4.2-2.5c1.7-1,2.9-1.9,4-2.9c0.2-0.2,0.4-0.6,0.4-1C669,195,669,194.4,668.5,193.6z"/>
			<path class="st1" d="M730.5,185c0.2,2.3-0.6,4-2.3,5.4c-0.6,0.4-1.3,0.6-2.1,0.4c0,0-0.4-0.4-1-0.8c-0.4-0.4-0.8-0.4-1.3-0.4
				c-0.2,0-0.4,0-0.6,0.2c-3.4,1.3-6.1,4.2-8,9c-2.1,5.4-5.4,9.6-9.8,12.1c-0.8,0.6-2.3,1.3-4.2,2.3c-0.6,0-0.8,0-0.8-0.2
				s0.2-0.4,0.6-0.8c6.1-4.2,10.1-8.6,12.1-12.8c1.3-2.9,2.7-5.7,4-8.6c1.9-3.1,4-5.4,6.9-6.5c1-0.2,1.9-0.2,2.3,0
				c0.2,0,0.4,0.4,0.8,0.8c0.4,0.4,0.6,0.6,0.8,0.6c0.2,0,0.2,0,0.4-0.2c0.2-0.4,0.4-0.8,0.8-1.7c0,0,0.2-0.2,0.4-0.4
				C729.9,183.3,730.1,183.9,730.5,185z M725.9,196.1v0.4c-1.5,2.5-2.5,5-3.1,7.1c0,1.3,0.2,2.1,0.6,2.3c0.2,0.2,0.4,0,0.6-0.2
				c0,0,0.2-0.4,0.6-1.3c0.2-0.4,0.4-0.6,0.8-0.6c0.4,0.2,0.6,0.4,0.8,0.8c0,0.4,0,0.8,0,1.3c-0.2,1.9-1,3.1-2.5,3.8
				c-0.4,0.2-1,0-1.9-0.4c-0.8-0.6-1.3-1.7-1.3-3.1c0-0.8,0.2-2.3,0.6-4c1-2.5,2.3-4.8,3.8-6.5L725.9,196.1z"/>
		</g>
		<g>
			<g>
				<path class="st1" d="M55.3,165.1c-6.9,4.4-10.3,11.1-10.3,20.3c0,3.6,0.8,6.9,2.3,10.1c1.7,4,4.2,6.9,7.5,9
					c0.4,0.2,0.6,0.6,0.6,0.8c0,0.4-0.4,0.6-1.5,0.2c-4-1.5-7.3-4.2-9.8-8c-2.5-3.8-3.8-8-3.8-12.1c0-4.8,1.5-9,4.2-13.2
					c2.7-4,6.3-6.7,10.3-8.2c0.6-0.2,0.8,0,0.8,0.4C55.7,164.7,55.5,164.9,55.3,165.1z"/>
				<path class="st1" d="M86.9,166.8l0.2,0.4c-0.4,1.3-0.8,3.1-1.7,5.7c-0.2,0.2-0.4,0.4-0.8,0.4c-0.6,0-0.8,0-1,0.2
					c-3.4,1.7-5.4,4.2-6.3,7.3c-0.2,0.8,0,1.7,0.6,2.3c0.2,0.2,1,0.4,2.5,0.8c1,0.2,1.7,0.8,2.1,1.5c0.4,0.8,0.8,2.1,0.8,3.6
					c0,0.4,0,1-0.2,1.9c0,1-0.2,1.5-0.2,1.9c-0.6,3.6-1.9,6.7-3.6,9.4c-1.9,3.1-4.4,5.4-7.1,7.1c-1.3,0.6-2.7,1-4.2,1
					c-1.9,0-3.4-0.4-4.6-1.5c-2.7-2.3-4.2-5.9-4.2-10.7c0-4,1-9.8,3.6-17.4l0.4-0.2c0.2,0.2,0.2,0.6,0.2,1.3
					c-1.3,5.2-1.9,9-1.9,11.3c0,4.8,1.3,8,3.6,9.4c1,0.8,2.5,1,3.8,1c2.5,0,5.2-1,8-3.1c2.7-2.5,4.2-4.8,4.4-7.1
					c0.2-1-0.2-1.9-0.8-2.3c-1-0.2-1.9-0.6-2.9-0.8c-1-0.4-1.9-1-2.1-1.9c-0.4-0.8-0.4-1.9-0.4-2.9s0.2-2.3,0.6-4
					c1.5-6.3,4.4-10.9,8.6-13.8c1-0.4,1.7-0.6,1.7-0.6C86.5,166.5,86.7,166.5,86.9,166.8z"/>
				<path class="st1" d="M107.7,195.7L107.7,195.7c0.4-0.8,1.3-2.1,2.3-3.6c0.6,0,1.5,0.2,2.5,1c0.4,0.4,0.6,1,0.6,1.7
					c0,0.4-0.2,1-0.4,1.9c-0.2,0.6-0.4,1.3-0.6,1.9c-1.5,2.3-2.9,3.6-4.4,3.8c-1.3,0.2-2.3-0.2-3.1-1c-0.8-1-1.5-2.5-1.7-4.6v-0.2
					c-0.4,0.8-0.8,1.7-1.3,2.5c-0.4,1-1,1.7-1.7,2.1c-1,0.2-4.4,1-10.1,2.1c-0.2,0-0.4-0.2-0.2-0.6c0.4-0.4,1.3-1,2.9-2.1
					c3.1-1.3,6.3-3.6,9.2-6.7c0.8-1.5,1.9-3.1,2.7-5.4c1.5-3.4,2.1-5.2,2.3-5.4c0.2-0.2,0.4-0.2,0.6-0.2c0.2,0,0.4,0,0.6,0.4
					c0,0.4-0.2,1-0.4,1.7c-0.2,0.6-0.4,1.3-0.6,1.9c-0.4,1.5-0.6,2.7-0.6,3.8c0,1.5,0.2,2.5,0.8,3.8
					C106.8,195,107,195.2,107.7,195.7z M110.2,176l-3.4,2.9c-0.4,0.2-0.8,0.4-1,0.2c-1.7-1.3-2.9-2.5-3.6-4l0.2-0.2
					c1-0.8,2.5-2.1,4.4-3.8l0.4,0.2c0.8,0.8,1.9,2.3,3.6,4C110.8,175.3,110.6,175.5,110.2,176z"/>
				<path class="st1" d="M140.1,181.4c-0.4,2.5-1.3,4.8-2.7,6.9c-0.4,0.4-1,0.8-2.3,1.3c-1,0.4-1.9,0.8-2.3,1.3
					c-1,1-1.9,2.5-2.7,4.4c-0.6,1.5-1.5,2.9-2.1,4.6c-0.2,0.4-0.6,0.8-0.8,1.3c-0.4,0.4-0.6,0.8-1,1c-3.1,0.6-6.1,1-8.6,1.3
					c-0.2,0-0.4-0.2-0.6-0.4c0-0.4,0.2-0.6,0.6-0.8c0.4-0.2,0.6-0.4,1-0.6c1.9-1,3.6-1.9,5.4-2.9c2.1-1.3,3.8-2.7,4.8-4.2
					c0.4-0.4,1.3-2.3,2.7-5.4c1-2.1,2.3-3.6,4-4.4c2.1-0.6,3.1-1.7,3.4-3.4c0.2-0.2,0.4-0.4,0.6-0.6
					C139.7,180.6,139.9,180.8,140.1,181.4z M137.2,174.5c-1.3-0.6-2.7-1.7-4.4-3.1l-2.7,3.1c-2.3-0.4-3.8-1.7-4.8-3.6
					c2.1-2.7,3.4-4.2,3.8-4.4c1.3,1,2.7,2.3,4.4,3.4l3.4-3.6c2.1,1.7,3.6,2.9,4.6,3.8C139.3,172.2,138,173.7,137.2,174.5z"/>
				<path class="st1" d="M161.9,186.4v0.6l-0.8,0.4c-0.8,0.4-1.7,1-2.7,1.9c-1,0.8-1.7,1.9-2.1,2.7c-0.2,0.4,0,0.8,0.2,1
					c1.3,0,2.3,0.4,2.7,1.3c0.4,0.8,0.4,1.9-0.2,2.7c-0.6,1-1.7,1.5-3.1,1c-1.7-0.4-2.3-1.7-2.3-4c0-1.9,0.8-3.8,2.3-5.4
					c1.3-1.3,2.7-2.1,4.4-2.7c0.2,0,0.6-0.2,0.8-0.2C161.5,186,161.7,186.2,161.9,186.4z"/>
				<path class="st1" d="M177.6,186.9c0.2,0.8,0.2,1.5,0.2,2.3c0,1.5-0.4,3.1-1.3,5c0,0.2-0.8,1.7-2.3,4.8c-0.2,0.4-0.6,0.8-1.3,1.5
					c-1.7,0.6-4.4,1.3-8,2.1c-0.2,0.2-0.4,0-0.6-0.4c0-0.2,0.6-0.6,1.9-1.5c0.8-0.6,2.1-1.3,4-2.3c1.7-0.8,2.9-1.7,4-2.5
					c0.6-0.6,0.6-1.7,0.4-2.9c-0.4-1.7-1.7-2.9-3.8-4c-0.2-0.2-0.2-0.4,0-0.6c0.2-0.2,0.2-0.4,0.4-0.6c0.4-1.5,0.8-3.1,1.7-5
					c1,0,1.9,0.6,2.7,1.5C176.6,185,177.2,185.8,177.6,186.9z"/>
				<path class="st1" d="M193.5,192.7c-0.2,1.9-1.3,4.2-2.9,7.1c-0.4,0.8-1.3,1.3-2.3,1.7c-0.8,0.2-1.9,0.4-2.9,0.6
					c-0.6,0.2-1.7,0.6-3.1,1c-0.4,0-0.6-0.2-0.6-0.4s0.2-0.6,0.6-0.8c1.5-0.8,2.9-1.7,4.4-2.5c1.7-1,2.9-2.1,4.2-3.1
					c0.4-0.4,0.4-1,0.4-1.9c-0.2-0.6-0.4-0.8-0.8-1c-0.4,0-0.6,0.2-1,0.2c-1.3,0-2.3-0.4-2.9-1.5c-0.2-0.4-0.4-0.8-0.4-1.5
					c0-0.6,0.2-1.3,0.4-1.9c0.2-0.6,0.6-1.3,0.8-1.9c0.2-0.6,0.4-1.3,0.6-2.1c0.4-0.8,0.8-1.3,1.7-1.7c1.3-0.2,2.3,0.2,2.9,1.5
					c0.8,1.5,1.3,2.9,1.3,4.8C194,190.6,193.7,191.7,193.5,192.7z M195.4,173.2L195.4,173.2c-0.2,0.4-0.6,1-1.5,1.9
					c-0.4,0-0.6,0-0.8,0c-1.5,0-2.9,0.6-3.8,1.9c-0.8,1.5-1.5,2.5-1.9,2.7c-0.8,1-1.7,1.7-2.5,2.1c-0.6,0.2-1,0.2-1.5,0.2
					c-0.6,0-1.3-0.2-1.7-0.6l0.2-0.4c0.6-1,1.5-2.3,2.7-4c0.4,0.2,0.8,0.4,1.3,0.4c0.6,0,1-0.2,1.7-0.6c0.8-0.8,1.9-2.3,3.6-4.2
					c1.5-1.5,2.9-2.3,4.4-2.3c0.4,0,0.6,0.2,1,0.4v0.4C196.3,171.6,195.8,172.2,195.4,173.2z"/>
				<path class="st1" d="M204.4,173.9c-0.2,0.6-0.2,1.7-0.4,2.9c-0.2,1.7-0.2,4-0.2,6.9c0,3.4,0,5.7-0.2,7.1c-0.2,2.9-0.8,5.9-2.3,9
					c-0.2,0.6-0.4,0.8-0.6,0.8c-0.2,0-0.2,0-0.4-0.2s-0.4-0.4-0.2-1c0.2-1,0.4-3.6,0.6-7.5c-0.2-3.1-0.4-6.7-0.2-10.7
					c0.6-2.1,1.7-4.4,3.1-7.3C203.8,173.5,204,173.5,204.4,173.9z"/>
				<path class="st1" d="M219.3,186.9c0.2,0.8,0.2,1.5,0.2,2.3c0,1.5-0.4,3.1-1.3,5c0,0.2-0.8,1.7-2.3,4.8c-0.2,0.4-0.6,0.8-1.3,1.5
					c-1.7,0.6-4.4,1.3-8,2.1c-0.2,0.2-0.4,0-0.6-0.4c0-0.2,0.6-0.6,1.9-1.5c0.8-0.6,2.1-1.3,4-2.3c1.7-0.8,2.9-1.7,4-2.5
					c0.6-0.6,0.6-1.7,0.4-2.9c-0.4-1.7-1.7-2.9-3.8-4c-0.2-0.2-0.2-0.4,0-0.6c0.2-0.2,0.2-0.4,0.4-0.6c0.4-1.5,0.8-3.1,1.7-5
					c1,0,1.9,0.6,2.7,1.5C218.3,185,218.9,185.8,219.3,186.9z"/>
				<path class="st1" d="M226,203l-2.7,0.4c-0.2,0-0.2-0.2-0.4-0.4c0-0.2,0.2-0.6,0.4-0.6c0.2-0.2,0.6-0.4,0.8-0.4
					c0.8-0.6,2.3-1.3,4.2-2.1c1.9-0.8,3.4-1.7,4.4-2.3c0.8-0.8,1.3-1.5,1.3-2.1c0-0.2,0-0.4-0.2-0.6c-0.2-0.2-0.4-0.6-0.8-1
					c-1.5,0.2-2.5,0-3.4-0.6c-0.4-0.6-0.8-1-0.8-1.9c0-0.6,0.2-1.3,0.4-2.1c0.2-0.6,0.6-1.3,0.8-2.1c0.4-1.5,0.6-2.1,0.6-2.3
					c0.4-0.8,1-1.3,1.9-1.5c1-0.2,1.9,0.4,2.5,1.5c0.6,1,1,2.5,1.3,4.2h0.2c0.2-0.2,0.2-0.2,0.2-0.2c2.1-1.3,3.4-2.9,3.1-5
					c0-3.6,0-5.7,0-6.3c1-2.3,2.1-4,2.9-4.8l0.4,0.2c0,0.4-0.2,2.7-0.6,6.9c-0.2,2.9-0.8,5-1.7,6.7c-1.7,3.1-3.4,5.4-5,6.5
					c-0.4,2.5-1.3,5.2-2.7,7.7c-0.6,1-1.7,1.9-3.4,2.1C228.7,202.6,227.5,202.8,226,203z M235.4,204.9l2.9-3.6
					c0.2-0.2,0.2-0.2,0.4-0.2s0.4,0.2,0.8,0.4s0.6,0.4,0.8,0.4l2.7,1.9c0.2,0.4,0.2,0.6,0,0.6l-3.4,4h-0.2c-1.9-0.8-3.1-1.9-4.2-2.7
					C235.4,205.7,235.4,205.3,235.4,204.9z"/>
				<path class="st1" d="M253.4,173.9c-0.2,0.6-0.2,1.7-0.4,2.9c-0.2,1.7-0.2,4-0.2,6.9c0,3.4,0,5.7-0.2,7.1c-0.2,2.9-0.8,5.9-2.3,9
					c-0.2,0.6-0.4,0.8-0.6,0.8c-0.2,0-0.2,0-0.4-0.2s-0.4-0.4-0.2-1c0.2-1,0.4-3.6,0.6-7.5c-0.2-3.1-0.4-6.7-0.2-10.7
					c0.6-2.1,1.7-4.4,3.1-7.3C252.8,173.5,253.2,173.5,253.4,173.9z"/>
				<path class="st1" d="M277.5,186.4v0.6l-0.8,0.4c-0.8,0.4-1.7,1-2.7,1.9c-1,0.8-1.7,1.9-2.1,2.7c-0.2,0.4,0,0.8,0.2,1
					c1.3,0,2.3,0.4,2.7,1.3c0.4,0.8,0.4,1.9-0.2,2.7c-0.6,1-1.7,1.5-3.1,1c-1.7-0.4-2.3-1.7-2.3-4c0-1.9,0.8-3.8,2.3-5.4
					c1.3-1.3,2.7-2.1,4.4-2.7c0.2,0,0.6-0.2,0.8-0.2C277.3,186,277.5,186.2,277.5,186.4z"/>
				<path class="st1" d="M303.3,173l0.4-0.6c0.2-4,0.2-10.1,0.2-18c0.4-1.3,1-2.9,1.7-5.2c0-0.2,0.2-0.2,0.4-0.2s0.4,0,0.4,0.2
					c-0.4,9.2-0.6,15.1-0.4,17.4c0.4,1.9,0.8,2.9,1,3.6c0.6,1.3,1.5,2.1,2.7,2.3c2.3,0.2,4.4-1,6.3-3.4c0.2,0,0.4,0.2,0.6,0.6
					c0.2,0.4,0.4,0.6,0.6,0.8c0.6,0.4,1.5,0.4,2.3-0.2c0.2-0.2,1-1,2.3-2.5c0.2-0.2,0.4-0.2,0.8,0c0.2,0.2,0.2,0.4,0,0.6
					c-0.2,0.4-0.2,0.6-0.2,0.6c0,0.2,0,0.4,0.2,0.4s0.4,0,0.6,0c0.6,0,1.3-0.4,2.1-1c0.6-0.6,1-1.3,1.7-1.9c0.2,0,0.2,0,0.2,0.2
					s0.2,0.4,0.2,0.4c0.2,0,0.6,0.2,1,0.4c0.6-0.2,1.7-1,3.1-2.7c1.7-1.9,3.1-3.1,4.4-3.8c0.6-1.9,1.5-3.1,2.5-4
					c0.2,0,0.4,0.2,0.8,0.6c0.4,1.3,1.7,2.9,3.4,5c0.2,0.4,0,0.8-0.6,1.5c-0.4,0.6-1,1.3-1.7,1.9c-0.6,0.6-1.3,1-1.9,1
					c-0.2,0-0.6,0-0.8-0.2c-1.3-0.8-2.3-1.3-3.4-1.3c-0.6,0-1.3,0.2-1.7,0.6c-0.4,0.4-1.3,0.8-2.1,1.7c-0.8,0.8-1.5,1.5-1.9,1.7
					c-0.4,0.2-1,0.4-1.7,0.4s-1.3-0.2-1.7-0.6h0.2c-1.3,1.7-2.5,2.5-3.6,2.5c-0.2,0-0.8-0.2-1.5-0.6c-1.5,1.5-2.7,2.1-4,2.1
					c-0.4,0-1-0.2-1.5-0.4c-1.9,3.8-4,5.4-6.5,5.4c-0.8,0-1.7-0.2-2.5-0.8c-0.8-0.4-1.3-1-1.5-1.9l-0.4-1.5c-0.8,1-2.3,2.3-4.2,3.8
					c1,0.6,1.7,1,2.1,1.3c0.8,0.6,1.3,1.3,1.3,2.1c0.2,1-0.2,2.1-1,2.9c-0.2,0.2-1,1-2.5,2.1c-0.8,0.4-2.1,0.6-3.8,0.8
					c-1.7,0.2-3.1,0.6-4,1c-1.7,0.4-3.1,1.5-4.6,2.7c-1.5,1.5-2.3,2.9-2.5,4.6c-0.2,1-0.4,4-0.4,8.4l-0.2,11.5c0,2.7-0.4,4.8-1,6.3
					h-0.2H283l-0.2-0.6v-8l-0.2-8.4c-0.2-4,0.2-7.1,0.6-9.6c0.8-3.4,2.3-6.3,4.6-8.4c1.9-1.9,4-3.4,6.5-4.6c0.6-1.7,2.1-3.4,4.2-5.2
					C301,175.5,302.7,173.9,303.3,173z"/>
				<path class="st1" d="M347.1,165.1c-0.4-0.2-0.4-0.4-0.4-0.6c0-0.4,0.2-0.4,0.8-0.4c4.2,1.5,7.5,4.2,10.3,8.2
					c2.7,4,4.2,8.4,4.2,13.2c0,4.4-1.3,8.4-3.8,12.1c-2.5,3.8-5.9,6.5-9.8,8c-0.8,0.4-1.5,0.2-1.5-0.2c0-0.2,0.2-0.4,0.6-0.8
					c3.4-2.1,5.9-5,7.5-9c1.5-3.4,2.3-6.7,2.3-10.1C357.3,176.2,354,169.3,347.1,165.1z"/>
			</g>
		</g>
	</g>
</g>
<g>
	<g>
		<path class="st0" d="M302.3,276l0.3-0.8c4-6.5,8.5-10.1,13.8-9.8c0.8,0,1.8,0.5,3.3,1.3c1.5,0.8,2.5,1,3.5,1c0.5,0,0.8,0,1.3-0.3
			c1.3-0.3,2.8-1,4.5-2.5c1.8-2,3.3-3,4-3.5c0.5-0.3,1.3,0,2.3,0.5c1,0.5,1.5,0.8,2,0.8c0.5,0,1-0.3,1.5-0.8
			c0.5-0.8,1.5-1.8,2.8-3.3c0.3,0,0.5,0,0.8,0.3c-0.3,2-1.8,4-4.3,6.3c-1.3,1-2.5,1.3-3.8,1c-0.3,0-0.8-0.3-1.3-0.5
			c-0.5-0.3-1-0.5-1.5-0.5c-0.3,0.3-1.5,1.5-4.5,4.3c-1.8,1.8-3.5,3-5,3.5c-1,0.8-2.3,1-3.5,1c-2,0-4-0.5-5.8-1.8
			c-0.5-0.3-1.3-0.3-1.8-0.3c-2.3,0-4.8,1.5-7.5,4.5C302.5,276.2,302.3,276,302.3,276z M317.1,282.2l2.8-3l0.5,0.3
			c1.5,1.3,3.3,2.8,5,4v0.5c-0.8,1.3-2.3,2.8-4.3,4.8c-0.8,0.3-1.8-0.3-3-1.3c-0.8-0.5-1.5-1.3-2.8-2.5
			C315.3,284.3,315.8,283.5,317.1,282.2z M326.2,249.1l4.5-5h0.5c1.8,1.8,3.5,3.3,4.8,4c0,0.3,0,0.3,0.3,0.3c0.8-1,2-2.3,3.5-4h0.5
			c1,1,2.5,2.3,4.8,4c0.3,0.3,0.3,0.5,0,1l-4,4.3c-0.3,0.3-0.5,0.3-0.8,0.3c-0.3,0-0.5,0-1-0.3c-0.8-0.5-1-0.5-1-0.5
			c-1.8-1.3-2.8-2.3-3.3-3.3c-0.8,1-2,2-3.8,3.8c-0.8-0.3-1.8-0.5-2.5-1.3s-1.5-1.3-2.3-2C326.4,249.8,326.2,249.3,326.2,249.1z"/>
		<path class="st0" d="M381.5,244.8l0.8,0.3c1.3,0.5,2.5,1.3,3.8,1.8c1.5,0.8,2.3,2,2.3,3.3c0,1.3-0.5,2.8-1.8,4
			c-1,1.3-2.3,2-3.5,2.5c-3,0.5-4.5,0.5-4.8,0.5c-1.8,0.5-3,1-4,2.3c-2.3,2-4.5,4.8-6.8,8.8c-3,5-5.3,8-6,9.3
			c-2.8,3.5-7,6.5-12.6,9.1c-0.5,0.3-1.3,0.3-1.5,0.3c-0.3-0.3-0.3-0.3-0.3-0.5c1.3-0.8,2.8-2,5-3.5c5.8-4.3,9.3-8.3,11.1-12.1
			c2-4.8,3.5-7.8,4.5-9.3c2-3.3,4.3-6,7-7.8l3.3-2c0.5-1,1.3-2.3,1.8-3.5C380,246.5,380.7,245.5,381.5,244.8z"/>
		<path class="st0" d="M421.7,254.8c0.5-0.5,1-0.5,1.8,0c1,0.8,2,1.5,3.3,2.5c0.5,0.3,0.8,0.5,0.8,0.8s-0.5,1-1.8,2.3l-2,2.3
			c-0.8,0-1.3,0-1.8-0.5c-0.5-0.3-1.3-1-2.3-2.3c-0.5-0.5-1-1-1-1c0-0.3,0.5-0.8,1.8-2C421.2,255.3,421.7,254.8,421.7,254.8z"/>
		<path class="st0" d="M439.1,274.4c0.5-0.5,0.8-0.8,0.8-0.8s0.5,0.3,1,0.8c1.8,1.8,3.3,2.8,4.5,3.5c0,0,0.3-0.3,0.8-0.8
			c1.8-2,2.8-3,3-3.3c0,0,0.3,0.3,0.8,0.5c1.5,1.3,3,2.5,4.3,3.5c0,0,0,0.3,0,0.5c0,0.3-0.5,0.8-1.3,1.8l-0.5,0.5
			c-1.5,1.8-2.3,2.8-2.5,2.8c0,0-0.3,0-0.5,0c-0.8,0-1.8-0.5-3-1.8c-1-0.8-1.5-1.5-1.8-2c-0.3-0.3-0.3-0.3-0.3-0.5
			c0,0-0.8,0.5-1.8,1.8c-1,1.3-1.8,1.8-1.8,2c-0.5,0-1,0-1.5-0.3c-1-0.5-2-1.3-3-2.3c-0.8-0.8-1.3-1.3-1.3-1.5
			C435.3,278.7,436.5,277.2,439.1,274.4z"/>
		<path class="st0" d="M449.9,218.4c1-1.5,2.5-3.3,4.3-5c0.3-0.3,0.8,0,1,0.5c1.8,1.5,3.3,2.8,4.5,3.8c0,0,0.3-0.3,0.8-0.5
			c1.3-1.5,2.5-2.8,3.3-3.3c0,0,0.3,0.3,0.5,0.5c1.3,1,2.5,2,3.8,3.3l0.8,0.5v0.3c0,0.3-0.8,1.3-2,2.8l-0.8,1
			c-0.8,1-1.3,1.5-1.5,1.5s-0.5,0-0.8,0c-1.8-0.8-3.3-2-4.5-3.8c0-0.3-0.3-0.3-0.3-0.3s-0.8,0.5-1.8,1.8c-1,1.3-1.5,1.8-1.8,1.8
			c-0.5,0.3-1,0.3-1.8-0.3c-0.8-0.3-1.5-1-2.3-1.8l-0.5-0.5C450.4,219.1,449.9,218.6,449.9,218.4z"/>
		<path class="st0" d="M438.3,242c0,0.8,0.5,1,1.5,1c2.3,0.3,4.3-0.3,5.8-1.8c0.8-0.5,1.3-1.3,1.8-2.3c0.3-0.8,0.5-1.8,0.8-3.3
			c0.3-1.8,0.8-3.5,1.3-5.3c0.3-1,0.5-1.5,0.8-1.8c0.3-0.3,0.5-0.3,0.8-0.3c0,0,0,0.5,0.3,1.5c0,2.8,0.8,4.5,2.3,5.5
			c2,1.3,3.8,1.3,4.8,0c0.5-0.8,1.3-1.5,2-1.8c0.3,0,0.5,0,0.5,0.3l-0.3,0.8c-1,3.8-3.3,6.5-6.3,8.8c-1,0.5-1.8,0.8-2.5,0.5
			c-1-0.3-2-1-2.8-1.8c-0.3-0.3-0.3-0.3-0.3-0.3c-0.5,1.3-1.5,2.3-2.3,3.3c-1.5,1.8-3.8,2.5-6.5,2.5v1c0,2.8-0.3,5-0.5,6.8
			c-1.5,9.6-5.5,17.1-11.8,22.6c-2.5,2-5.3,3.3-8.3,3.5c-1.3,0.3-2.8,0.3-4,0c-3.8-1-6-3.5-7.3-7c-1-4.3-1-8.5-0.3-13.3
			c0.8-3.8,1.8-6.8,3-9.3c0.3-0.5,0.5-0.8,0.8-0.8c0.3,0,0.5,0.3,0.5,0.8c0,0.3,0,0.8-0.3,1.8c-1,3.8-1.8,6.5-1.8,9.1
			c-0.3,2.5,0.3,4.5,0.8,6.3c0.8,2,2.3,3.3,4.5,4c4,0.8,7.8,0.5,11.3-1.3c4.3-2.3,7.3-5.8,9.3-10.3c1.5-3.5,2-7.5,1.5-12.1
			c-0.3-2.5-0.3-4.3,0-5.3c0.3-0.5,0.3-1,0.8-1.8c0.3-0.3,0.3-0.5,0.5-0.5C438.1,241.3,438.3,241.5,438.3,242z"/>
	</g>
</g>
</svg>
