<?xml version="1.0" encoding="utf-8"?>
<!-- Generator: Adobe Illustrator 19.2.1, SVG Export Plug-In . SVG Version: 6.00 Build 0)  -->
<svg version="1.1" id="Layer_1_copy" xmlns="http://www.w3.org/2000/svg" xmlns:xlink="http://www.w3.org/1999/xlink" x="0px"
	 y="0px" viewBox="0 0 771 400" style="enable-background:new 0 0 771 400;" xml:space="preserve">
<style type="text/css">
	.st0{fill:#F7931E;}
	.st1{fill:#FFFF00;}
</style>
<g>
	<path class="st0" d="M92.6,214.2c1.1,0,2.1,0.2,2.8,0.6s1.3,0.8,1.9,1.1c0.6,0.4,0.9,0.9,1.1,1.5c0.2,0.6,0.4,1.1,0.4,1.5
		c0,0.6-0.2,1.1-0.6,1.7c-0.4,0.6-0.8,0.9-1.3,1.5c-0.6,0.6-1.1,0.8-1.9,0.9s-1.5,0.4-2.3,0.4h-2.5c-2.8,0-5.1-0.4-7.2-0.9
		c-1.9-0.6-3.6-1.5-4.9-2.6c-1.3-1.1-2.5-2.8-3.2-4.5s-1.5-4-1.9-6.6c-0.6-3-1.1-6.2-1.9-9.4c-0.6-3.2-1.1-6.6-1.7-10.2
		c-0.2-1.7-0.6-3.4-0.9-5.1c-0.4-1.7-0.8-3.6-1.1-5.3s-0.8-3.4-0.9-5.1c-0.2-1.7-0.4-3.4-0.4-4.9c0-1.3,0.2-2.6,0.4-3.8
		c0.2-1.1,0.6-2.5,1.3-3.4c1.1-0.4,2.1-0.6,3.2-0.6c1.3,0,2.6,0.2,3.8,0.8c1.1,0.6,2.1,1.3,3,2.3c0.9,0.9,1.7,1.9,2.3,3.2
		c0.6,1.1,1.1,2.5,1.5,3.6c-0.8,0-1.5-0.2-2.3-0.6c-0.6-0.4-1.3-0.8-1.9-1.1c-0.6-0.4-1.1-0.8-1.7-1.1c-0.6-0.4-1.3-0.6-1.9-0.6
		c-0.4,0-0.9,0-1.5,0.2c-0.2,0.6-0.4,1.3-0.6,2.1c-0.2,0.8-0.2,1.5-0.2,2.5c0,1.7,0.2,3.4,0.6,5.3c0.4,1.9,0.8,3.8,1.1,5.9
		s0.9,4,1.3,6c0.6,2.1,0.9,4.2,1.1,6c0,0.4,0.2,0.8,0.2,1.1c0,0.4,0.2,0.8,0.2,0.9c0.2,1.7,0.6,3.4,0.8,4.9c0.2,1.5,0.6,2.8,0.9,4.2
		c0.4,1.3,0.9,2.3,1.5,3.4c0.6,0.9,1.5,1.9,2.5,2.5c0.9,0.6,2.3,1.1,3.6,1.5c1.5,0.4,3.2,0.6,5.1,0.6h2.1V214.2z"/>
	<path class="st0" d="M116,154.8c0,0.8,0,1.5,0,1.9c0,0.6-0.2,0.9-0.2,1.3c-0.2,0.4-0.4,0.8-0.6,1.1c-0.2,0.4-0.4,0.8-0.6,1.3
		c-1.5,0.4-3,0.9-4.5,1.7c-1.5,0.8-2.8,1.3-4.3,2.1c-1.5,0.8-2.8,1.3-4.3,1.9c-1.3,0.6-2.8,0.9-4.3,1.1c-0.2-0.6-0.2-0.9-0.2-1.1
		c0-0.4,0-0.6,0-0.9s0.2-0.8,0.2-1.1s0-0.9,0-1.7c1.7-0.4,3.2-1.1,4.7-1.9c1.5-0.8,3-1.7,4.5-2.5c1.5-0.8,3-1.5,4.5-2.1
		C112.6,155.1,114.3,154.8,116,154.8z"/>
	<path class="st0" d="M120.3,162.7c0,0.8,0,1.5,0,1.9c0,0.6-0.2,0.9-0.2,1.3c-0.2,0.4-0.4,0.8-0.6,1.1c-0.2,0.4-0.4,0.8-0.6,1.3
		c-1.5,0.4-3,0.9-4.5,1.7c-1.5,0.8-2.8,1.3-4.3,2.1c-1.5,0.8-2.8,1.3-4.3,1.9c-1.3,0.6-2.8,0.9-4.3,1.1c-0.2-0.6-0.2-0.9-0.2-1.1
		c0-0.4,0-0.6,0-0.9s0.2-0.8,0.2-1.1c0-0.4,0-0.9,0-1.7c1.7-0.4,3.2-1.1,4.7-1.9s3-1.7,4.5-2.5c1.5-0.8,3-1.5,4.5-2.1
		C116.9,162.9,118.4,162.7,120.3,162.7z"/>
	<path class="st0" d="M113.5,177.8c-0.2,0.6-0.2,0.9-0.2,1.5c0,0.6,0,0.9,0,1.5c0,0.8,0,1.3,0.2,1.9c0.2,0.6,0.4,1.1,0.6,1.7
		c0.4,0.6,0.8,0.9,1.1,1.1c0.6,0.2,1.1,0.4,1.9,0.4c0.2,0,0.4,0,0.4,0c0.2,0,0.2,0,0.4,0c0.2-0.4,0.4-0.8,0.6-0.9
		c0.2-0.4,0.2-0.8,0.2-1.1l-0.6-4.2c0-0.4,0-0.8,0.2-1.1c0.2-0.4,0.4-0.8,0.6-1.1c0.9,0.8,1.7,1.7,2.3,2.8c0.6,1.1,0.8,2.5,0.8,3.8
		c0,0.8-0.2,1.7-0.4,2.5c-0.2,0.8-0.6,1.5-0.9,2.1c-0.4,0.6-0.9,1.1-1.5,1.5c-0.6,0.4-1.3,0.6-2.1,0.6c-0.6,0-1.1,0-1.7-0.2
		c-0.6-0.2-1.3-0.6-2.1-0.9c-1.5,1.1-2.8,1.7-4.3,1.7c-0.9,0-1.7-0.2-2.5-0.6s-1.3-0.8-1.9-1.3c-0.6-0.6-0.9-1.3-1.3-2.1
		c-0.4-0.8-0.6-1.5-0.6-2.5c0-0.8,0.2-1.7,0.6-2.5c0.4-0.9,0.9-1.7,1.7-2.5c0,0.6,0.2,1.3,0.2,2.3c0,0.9,0,1.5,0.2,2.3
		c0.2,0.8,0.4,1.3,0.8,1.9c0.4,0.6,0.9,0.8,1.5,0.8c0.6,0,1.3-0.2,1.7-0.4c0.4-0.4,0.8-0.8,0.9-1.1c0.2-0.6,0.4-1.1,0.4-1.7
		c0-0.6,0-1.3,0-1.9v-0.2c0-0.6,0-0.9,0-1.5c0-0.4,0-0.9,0.2-1.3c0.2-0.4,0.2-0.6,0.4-0.9c0.2-0.2,0.6-0.4,0.9-0.4
		C112.2,177.4,112.8,177.6,113.5,177.8z"/>
	<path class="st0" d="M132.2,214.2c1.3,0.4,2.3,1.1,3,1.9c0.6,0.8,0.9,1.7,0.9,2.6c0,0.9-0.4,1.9-0.9,2.6c-0.6,0.9-1.7,1.5-2.8,1.9
		h-3c-1.3,0-2.8-0.2-4.2-0.6c-1.5-0.4-2.8-0.9-4.2-1.7c-1.3-0.8-2.5-1.7-3.4-2.6c-0.9-0.9-1.7-2.1-2.3-3.4c-1.5,1.1-3.2,2.1-4.9,3
		c-1.7,0.9-3.6,1.7-5.7,2.5c-1.9,0.8-4,1.3-6,1.9c-2.1,0.6-4.2,0.8-6.2,0.9h-0.8c-1.1-0.4-1.9-1.1-2.3-1.9c-0.6-0.9-0.8-1.7-0.8-2.6
		c0-0.9,0.2-1.9,0.8-2.8c0.6-0.9,1.3-1.5,2.3-1.7h0.9c2.5-0.2,4.7-0.6,7-1.1s4.5-1.3,6.6-2.1s4.2-1.7,6-2.6c1.9-0.9,3.6-1.9,5.1-2.8
		c0.2,1.5,0.6,2.6,1.3,3.8c0.8,1.1,1.5,2.1,2.6,2.8c1.1,0.8,2.3,1.3,3.6,1.7c1.3,0.4,2.8,0.6,4.2,0.6h3V214.2z M122.6,238.6
		c-0.4,0-0.6,0.2-0.9,0.2c-0.2,0-0.6,0-0.8,0c-0.8,0-1.5-0.2-2.3-0.4c-0.8-0.4-1.3-0.6-1.9-0.9c-0.6-0.4-1.3-0.8-1.9-1.1
		c-0.8-0.4-1.5-0.6-2.3-0.8c-0.6,0-1.1,0.4-1.3,0.8c-0.2,0.4-0.6,0.9-0.8,1.3c-0.2,0.6-0.4,0.9-0.8,1.5s-0.8,0.8-1.3,0.9
		c-0.9,0-1.7-0.2-2.5-0.4s-1.3-0.4-2.1-0.8c-0.6-0.4-1.1-0.6-1.7-0.9c-0.6-0.4-1.1-0.8-1.7-0.9v-0.2c0-1.5,0.2-2.6,0.4-3.8
		c0.2-1.1,0.6-2.3,0.8-3.4l0.2-0.4c0.2,0,0.4,0,0.4,0c0.2,0,0.2,0,0.4,0c0.6,0,1.3,0.2,2.1,0.4c0.8,0.2,1.3,0.4,2.1,0.8
		s1.3,0.6,2.1,0.9c0.8,0.4,1.3,0.6,1.9,0.8c0.6,0,1.1-0.2,1.5-0.6s0.8-0.6,0.9-1.1c0.2-0.4,0.4-0.9,0.6-1.3c0.2-0.6,0.4-0.9,0.6-1.5
		c1.3,0,2.6,0.2,3.8,0.6s2.1,0.8,3,1.3c0.9,0.6,1.5,1.3,1.9,2.3c0.6,0.9,0.8,1.9,0.8,3C123.7,235.4,123.3,236.9,122.6,238.6z"/>
	<path class="st0" d="M163,241.6c0,0.8,0,1.5,0,1.9c0,0.6-0.2,0.9-0.2,1.3c-0.2,0.4-0.4,0.8-0.6,1.1c-0.2,0.4-0.4,0.8-0.6,1.3
		c-1.5,0.4-3,0.9-4.5,1.7s-2.8,1.3-4.3,2.1s-2.8,1.3-4.3,1.9c-1.3,0.6-2.8,0.9-4.3,1.1c-0.2-0.6-0.2-0.9-0.2-1.1c0-0.4,0-0.6,0-0.9
		c0-0.4,0.2-0.8,0.2-1.1c0-0.4,0-0.9,0-1.7c1.7-0.4,3.2-1.1,4.7-1.9s3-1.7,4.5-2.5c1.5-0.8,3-1.5,4.5-2.1
		C159.6,241.8,161.3,241.6,163,241.6z"/>
	<path class="st0" d="M172.1,214.2c1.3,0.4,2.3,1.1,3,1.9c0.6,0.8,0.9,1.7,0.9,2.6c0,0.9-0.4,1.9-0.9,2.6c-0.6,0.9-1.7,1.5-2.8,1.9
		h-3c-1.3,0-2.8-0.2-4.2-0.6c-1.5-0.4-2.8-0.9-4.2-1.7s-2.5-1.7-3.4-2.6c-0.9-0.9-1.7-2.1-2.3-3.4c-1.5,1.1-3.2,2.1-4.9,3
		c-1.7,0.9-3.6,1.7-5.7,2.5c-1.9,0.8-4,1.3-6,1.9c-2.1,0.6-4.2,0.8-6.2,0.9h-0.9c-1.1-0.4-1.9-1.1-2.3-1.9c-0.6-0.9-0.8-1.7-0.8-2.6
		c0-0.9,0.2-1.9,0.8-2.8s1.3-1.5,2.3-1.7h0.9c2.5-0.2,4.7-0.6,7-1.1s4.5-1.3,6.6-2.1c2.1-0.8,4.2-1.7,6-2.6c1.9-0.9,3.6-1.9,5.1-2.8
		c0.2,1.5,0.6,2.6,1.3,3.8c0.8,1.1,1.5,2.1,2.6,2.8c1.1,0.8,2.3,1.3,3.6,1.7s2.8,0.6,4.2,0.6h3.2V214.2z M151.3,227.8
		c1.7,0.2,3,0.6,4.2,1.1c1.1,0.6,2.1,1.3,3,2.3c0,1.5-0.2,2.8-0.6,4.2c-0.2,1.3-0.8,2.3-1.7,2.8h-0.6c-2.8,0-4.9-0.9-6-2.6
		c0-0.8,0.2-1.5,0.2-2.3c0-0.8,0-1.3,0.2-2.1c0-0.6,0.2-1.3,0.4-1.9C150.5,229,150.9,228.4,151.3,227.8z"/>
	<path class="st0" d="M187.7,146.5c0,0.8,0,1.5,0,1.9c0,0.6-0.2,0.9-0.2,1.3c-0.2,0.4-0.4,0.8-0.6,1.1c-0.2,0.4-0.4,0.8-0.6,1.3
		c-1.5,0.4-3,0.9-4.5,1.7c-1.5,0.8-2.8,1.3-4.3,2.1c-1.5,0.8-2.8,1.3-4.3,1.9c-1.3,0.6-2.8,0.9-4.3,1.1c-0.2-0.6-0.2-0.9-0.2-1.1
		c0-0.4,0-0.6,0-0.9s0.2-0.8,0.2-1.1s0-0.9,0-1.7c1.7-0.4,3.2-1.1,4.7-1.9s3-1.7,4.5-2.5c1.5-0.8,3-1.5,4.5-2.1
		C184.3,146.8,186,146.5,187.7,146.5z"/>
	<path class="st0" d="M180.9,161.8c-0.2,0.6-0.2,0.9-0.2,1.5s0,0.9,0,1.5c0,0.8,0,1.3,0.2,1.9s0.4,1.1,0.6,1.7
		c0.4,0.6,0.8,0.9,1.1,1.1c0.6,0.2,1.1,0.4,1.9,0.4c0.2,0,0.4,0,0.4,0s0.2,0,0.4,0c0.2-0.4,0.4-0.8,0.6-0.9c0.2-0.2,0.2-0.8,0.2-1.1
		l-0.6-4.2c0-0.4,0-0.8,0.2-1.1c0.2-0.4,0.4-0.8,0.6-1.1c0.9,0.8,1.7,1.7,2.3,2.8c0.6,1.1,0.8,2.5,0.8,3.8c0,0.8-0.2,1.7-0.4,2.5
		c-0.2,0.8-0.6,1.5-0.9,2.1c-0.4,0.6-0.9,1.1-1.5,1.5c-0.6,0.4-1.3,0.6-2.1,0.6c-0.6,0-1.1,0-1.7-0.2c-0.6-0.2-1.3-0.6-2.1-0.9
		c-1.5,1.1-2.8,1.7-4.3,1.7c-0.9,0-1.7-0.2-2.5-0.6c-0.8-0.4-1.3-0.8-1.9-1.3s-0.9-1.3-1.3-2.1s-0.6-1.5-0.6-2.5
		c0-0.8,0.2-1.7,0.6-2.5c0.4-0.9,0.9-1.7,1.7-2.5c0,0.6,0.2,1.3,0.2,2.3c0,0.8,0,1.5,0.2,2.3s0.4,1.3,0.8,1.9
		c0.4,0.6,0.9,0.8,1.5,0.8c0.8,0,1.3-0.2,1.7-0.4c0.4-0.4,0.8-0.8,0.9-1.1c0.2-0.6,0.4-1.1,0.4-1.7c0-0.6,0-1.3,0-1.9v-0.2
		c0-0.6,0-0.9,0-1.5c0-0.4,0-0.9,0.2-1.3c0.2-0.4,0.2-0.6,0.4-0.9c0.2-0.2,0.6-0.4,0.9-0.4C179.6,161.4,180.2,161.4,180.9,161.8z"/>
	<path class="st0" d="M178.1,214.2c1.5,0,3-0.2,4.5-0.6c1.5-0.4,2.6-0.8,3.4-1.3c0-0.9-0.2-1.7-0.4-2.3c-0.2-0.6-0.4-1.1-0.8-1.5
		c-0.4-0.4-0.6-0.8-0.9-1.1c-0.4-0.4-0.6-0.8-0.9-1.1c-0.4-0.4-0.6-0.9-0.8-1.5c-0.2-0.6-0.2-1.3-0.2-2.3c0-0.8,0.2-1.5,0.6-2.5
		c0.4-0.8,0.8-1.7,1.3-2.6c0.9,0.9,1.7,1.9,2.6,2.8c0.8,0.9,1.5,1.9,2.1,2.8c0.6,0.9,1.1,2.1,1.5,3.4c0.4,1.3,0.6,2.8,0.6,4.7
		c0,1.5-0.2,2.8-0.6,4.2c-0.4,1.3-1.1,2.6-2.1,3.8c-1.1,1.5-2.6,2.6-4.5,3.4c-1.7,0.6-3.6,0.9-5.5,0.9h-6.8
		c-1.5-0.4-2.5-0.9-3.2-1.9c-0.8-0.9-0.9-1.9-0.9-2.8c0-0.9,0.4-1.9,1.1-2.8c0.8-0.9,1.7-1.5,3.2-1.7H178.1z M174.9,182.9
		c1.7,0.2,3,0.6,4.2,1.1c1.1,0.6,2.1,1.3,3,2.3c0,1.5-0.2,2.8-0.6,4.2c-0.2,1.3-0.8,2.3-1.7,2.8h-0.6c-2.8,0-4.9-0.9-6-2.6
		c0-0.8,0.2-1.5,0.2-2.3s0-1.3,0.2-2.1c0-0.6,0.2-1.3,0.4-1.9C173.9,184,174.3,183.5,174.9,182.9z"/>
	<path class="st0" d="M235.3,213.1c-1.3-1.9-2.3-3.6-3.4-5.3c-0.9-1.7-2.1-3.2-3.2-4.7c-1.1-1.5-2.5-2.8-3.8-4.2
		c-1.3-1.3-3-2.6-4.9-4c-0.8-0.6-1.7-1.1-2.5-1.5c-0.9-0.4-1.9-0.8-3-0.9c-0.8,0.6-1.7,0.9-2.3,1.3c-0.8,0.2-1.5,0.4-2.1,0.4
		c-1.5,0-2.6-0.6-3.8-1.5c-1.1-0.9-2.1-2.3-2.6-3.6c-0.8-1.5-1.3-3-1.7-4.7c-0.4-1.7-0.6-3.4-0.6-4.9c0-0.8,0-1.3,0.2-1.9
		c0-0.6,0.2-1.1,0.4-1.7c1.5,0.6,3.2,1.1,4.9,1.9c1.7,0.8,3.4,1.7,4.9,2.6c1.5,0.9,3.2,2.1,4.9,3.2c1.7,1.1,3.2,2.3,4.7,3.4
		c1.7,1.3,3.4,2.8,5.1,4.3c1.7,1.5,3.2,3.2,4.5,5.1c1.3,1.9,2.5,4,3.2,6.2c0.8,2.3,1.3,4.9,1.3,7.7
		C235.5,211.2,235.5,212.2,235.3,213.1z"/>
	<path class="st0" d="M242.7,143.8c0,0.8,0,1.5,0,1.9c0,0.6-0.2,0.9-0.2,1.3c-0.2,0.4-0.4,0.8-0.6,1.1c-0.2,0.4-0.4,0.8-0.6,1.3
		c-1.5,0.4-3,0.9-4.5,1.7c-1.5,0.8-2.8,1.3-4.3,2.1s-2.8,1.3-4.3,1.9c-1.3,0.6-2.8,0.9-4.3,1.1c-0.2-0.6-0.2-0.9-0.2-1.1
		c0-0.4,0-0.6,0-0.9s0.2-0.8,0.2-1.1s0-0.9,0-1.7c1.7-0.4,3.2-1.1,4.7-1.9s3-1.7,4.5-2.5c1.5-0.8,3-1.5,4.5-2.1
		C239.1,144.2,240.8,143.8,242.7,143.8z"/>
	<path class="st0" d="M246.8,151.6c0,0.8,0,1.5,0,1.9c0,0.6-0.2,0.9-0.2,1.3c-0.2,0.4-0.4,0.8-0.6,1.1c-0.2,0.4-0.4,0.8-0.6,1.3
		c-1.5,0.4-3,0.9-4.5,1.7c-1.5,0.8-2.8,1.3-4.3,2.1s-2.8,1.3-4.3,1.9c-1.3,0.6-2.8,0.9-4.3,1.1c-0.2-0.6-0.2-0.9-0.2-1.1
		c0-0.4,0-0.6,0-0.9s0.2-0.8,0.2-1.1s0-0.9,0-1.7c1.7-0.4,3.2-1.1,4.7-1.9c1.5-0.8,3-1.7,4.5-2.5c1.5-0.8,3-1.5,4.5-2.1
		C243.4,151.9,245.1,151.6,246.8,151.6z"/>
	<path class="st0" d="M246.4,179.9c0.2,0.6,0.2,0.9,0.4,1.5c0.2,0.6,0.2,1.1,0.2,1.7c0,0.8,0,1.3-0.2,2.1c-0.2,0.8-0.4,1.3-0.8,1.9
		c-0.4,0.6-0.8,0.9-1.1,1.3c-0.6,0.4-1.1,0.4-1.9,0.4h-0.6c0.6,2.8,1.1,5.5,1.5,8.3c0.4,2.8,0.6,5.7,0.6,8.3c0,1.9-0.2,3.8-0.4,5.7
		c-0.2,1.9-0.8,3.6-1.3,5.1c-0.6,1.7-1.3,3.2-2.3,4.5c-0.9,1.3-2.1,2.6-3.6,3.8c-1.5,1.1-3.4,2.1-5.7,2.6s-4.7,0.8-7.2,0.8
		c-2.3,0-4.3-0.2-6.6-0.6s-4.3-0.9-6.4-1.5c0.8-0.9,1.9-1.7,3-2.3c1.1-0.6,2.5-0.9,3.8-1.1c1.3-0.4,2.6-0.6,4.2-0.8
		c1.5-0.2,2.8-0.6,4-1.1c1.3-0.6,2.8-1.1,4.3-1.9s3-1.7,4.5-2.6c1.5-0.9,2.6-1.9,3.8-3c1.1-1.1,1.7-2.3,2.1-3.4
		c0.2-0.8,0.2-1.5,0.2-2.5c0-1.3-0.2-2.6-0.6-4.2c-0.4-1.5-0.8-3-1.1-4.5s-0.8-3.2-1.3-4.9c-0.4-1.7-0.8-3.2-0.9-4.9v-0.4
		c-0.2-1.5-0.4-3.2-0.8-5.1c-0.4-1.9-0.4-3.4-0.4-5.1c0-1.1,0-2.3,0.2-3.2c0.2-0.9,0.4-1.9,0.8-2.5c0.8,0.6,1.7,1.1,2.3,1.9
		c0.8,0.8,1.5,1.3,2.1,2.1c0.6,0.8,1.5,1.3,2.3,1.9C244.6,178.9,245.5,179.5,246.4,179.9z"/>
	<path class="st0" d="M261.9,189.5c0.8-0.9,1.7-1.7,2.6-2.3c1.1-0.6,2.1-1.1,3.2-1.7c1.1-0.6,2.3-1.1,3.2-1.7
		c0.9-0.6,1.9-1.5,2.5-2.5c-0.4-0.6-0.9-1.1-1.5-1.3c-0.6-0.2-1.3-0.4-2.1-0.4c-0.6,0-1.3,0-1.9,0.2c-0.8,0.2-1.3,0.4-1.9,0.6
		s-1.3,0.4-1.9,0.6c-0.6,0.2-1.1,0.4-1.5,0.6c-0.2-0.8-0.4-1.7-0.4-2.5c0-1.1,0.2-2.1,0.8-2.8c0.6-0.8,1.1-1.5,1.9-2.1
		c0.8-0.6,1.7-0.9,2.6-1.3c0.9-0.2,2.1-0.4,3-0.4c0.8,0,1.5,0,2.3,0.2c0.8,0.2,1.5,0.4,2.1,0.8s1.1,0.8,1.5,1.3s0.8,1.1,0.9,1.9
		c0.2,0.6,0.2,1.1,0.2,1.9c0,1.3-0.2,2.5-0.8,3.4c-0.6,0.9-1.1,1.9-1.9,2.8c-0.8,0.8-1.7,1.5-2.6,2.3c-0.9,0.8-2.1,1.1-3.2,1.5
		s-2.3,0.8-3.2,0.9c-0.9,0.2-2.1,0.4-3,0.4c-0.2,0-0.4,0-0.4,0L261.9,189.5z"/>
	<path class="st0" d="M285.5,214.2h1.7c0.4,0.2,0.8,0.4,1.1,0.8c0.4,0.4,0.8,0.6,0.9,1.1c0.4,0.4,0.6,0.9,0.8,1.3
		c0.2,0.6,0.4,0.9,0.4,1.5c0,0.4,0,0.8-0.2,1.3c0,0.4-0.2,0.9-0.6,1.3s-0.6,0.8-0.9,1.1c-0.4,0.4-0.9,0.8-1.5,0.9
		c-0.4,0-0.8,0-1.5,0c-0.6,0-1.3,0-1.9,0c-0.6,0-1.1,0.2-1.7,0.2c-0.6,0.2-0.8,0.4-0.9,0.6c-0.8,2.6-1.9,5.1-3,7.4
		c-1.1,2.3-2.6,4.3-4.3,6c-1.7,1.7-3.6,3.2-5.9,4.2c-2.3,0.9-4.9,1.5-7.9,1.7h-0.6c-1.1,0-2.5,0-3.8-0.2s-2.6-0.2-4-0.4
		c-1.3-0.2-2.6-0.4-4-0.4c-1.3-0.2-2.6-0.2-4-0.2c1.5-1.1,3-1.9,4.7-2.5c1.7-0.6,3.6-1.1,5.5-1.7c1.9-0.6,3.8-1.1,5.7-1.5
		c1.9-0.6,3.6-1.1,5.3-2.1l1.1-0.6c0.9-0.6,2.1-0.9,3-1.5c1.1-0.6,2.1-1.1,2.8-1.9c0.8-0.8,1.7-1.5,2.3-2.5c0.6-0.9,0.9-1.9,1.1-3.2
		c-0.9-0.2-2.1-0.6-3.2-0.6c-1.1-0.2-2.3-0.4-3.6-0.6c-1.1-0.2-2.5-0.6-3.6-0.8c-1.1-0.2-2.1-0.8-3-1.5c-0.6-1.1-0.8-2.5-1.1-3.8
		c-0.2-1.3-0.4-2.6-0.4-4s0.2-2.6,0.4-4c0.2-1.3,0.8-2.5,1.3-3.4c0.6-0.9,1.3-1.9,2.1-2.5c0.9-0.6,1.9-0.9,3-1.1c0.2,0,0.4,0,0.4,0
		c0.2,0,0.2,0,0.4,0c1.5,0,2.6,0.4,3.8,0.9c1.1,0.8,2.1,1.5,2.8,2.6c0.8,1.1,1.5,2.3,2.3,3.4c0.8,1.3,1.3,2.5,2.1,3.6
		c0.4,0.6,0.8,0.8,1.3,0.9c0.6,0.2,1.1,0.2,1.7,0.2h3.6V214.2z"/>
	<path class="st0" d="M298.6,187.8c0.4-0.9,0.9-1.7,1.7-2.3c0.8-0.6,1.5-0.9,2.5-1.3s1.7-0.9,2.5-1.3c0.8-0.6,1.3-1.1,1.9-2.1
		c-1.1-0.8-1.9-1.7-2.5-3c-0.6-1.1-0.8-2.6-0.8-4s0.2-2.8,0.6-4.2c0.4-1.5,0.9-2.6,1.7-3.8c0.8-1.1,1.7-2.1,2.6-2.8
		c0.9-0.8,2.1-1.1,3.2-1.1c0.9,0,1.7,0.2,2.6,0.8c0.9,0.6,1.9,1.3,2.8,2.3c0.2,0.8,0.4,1.5,0.4,2.1c0,0.8,0.2,1.3,0.2,2.1
		c0,2.5-0.6,4.7-1.7,6.8s-2.5,3.8-4.2,5.3c-0.9,0.9-1.9,1.7-3.2,2.5c-1.1,0.8-2.3,1.5-3.6,2.1c-1.1,0.6-2.5,1.1-3.6,1.5
		C300.8,187.4,299.7,187.6,298.6,187.8z M314,171.4c0-0.4-0.2-0.8-0.4-1.1c-0.2-0.4-0.6-0.6-0.9-0.8c-0.4-0.2-0.8-0.4-1.1-0.6
		s-0.9-0.2-1.3-0.2s-0.6,0-0.9,0c-0.2,0-0.6,0.2-0.8,0.4c-0.6,0.4-0.9,0.6-1.1,0.9s-0.4,0.6-0.4,0.9s0.2,0.8,0.4,1.1
		c0.2,0.4,0.6,0.8,0.9,0.9c0.4,0.4,0.9,0.6,1.3,0.8c0.6,0.2,0.9,0.2,1.5,0.2c0.6,0,1.1-0.2,1.7-0.6c0.6-0.4,0.8-0.9,0.8-1.9v-0.2
		H314z"/>
	<path class="st0" d="M286.3,223.3c-1.3-0.6-2.3-1.1-2.8-2.1c-0.6-0.9-0.9-1.7-0.9-2.6c0-0.9,0.4-1.9,0.9-2.6
		c0.6-0.8,1.5-1.5,2.8-1.9h1.7c1.1,0,2.5-0.4,3.6-1.1c1.1-0.6,2.5-1.5,3.6-2.3c1.1-0.9,2.3-1.9,3.4-3s2.1-2.1,2.8-3
		c0.6,0.6,1.1,1.1,1.7,1.9c0.6,0.8,0.9,1.3,1.3,2.1c0.4,0.8,0.9,1.3,1.5,1.7c0.6,0.4,1.3,0.8,2.3,0.8h0.6c0.8,0,1.3-0.4,1.7-0.8
		c0.4-0.4,0.8-0.9,1.1-1.5c0.4-0.6,0.6-1.1,0.9-1.9s0.8-1.3,1.1-1.9c0.9,0.2,1.7,0.6,2.3,1.3c0.6,0.6,1.1,1.3,1.5,1.9
		c0.6,0.8,1.1,1.3,1.7,1.9c0.6,0.6,1.5,0.8,2.6,0.8c0-0.2,0.2-0.4,0.2-0.8s0-0.6,0-0.9c0-0.6,0-1.1,0-1.7c0-0.6,0-1.3,0-1.9
		c0-0.9,0.2-1.7,0.4-2.3c0.2-0.8,0.8-1.1,1.5-1.3c0.9,0.9,1.9,2.5,2.3,4.2c0.4,1.7,0.8,3.6,0.8,5.5c0,1.1-0.2,2.3-0.4,3.4
		s-0.6,2.1-1.1,3c-0.6,0.9-1.1,1.5-1.9,2.1c-0.8,0.6-1.7,0.8-2.6,0.8h-0.4c-0.8,0-1.3-0.2-1.7-0.4c-0.4-0.2-0.9-0.6-1.1-0.9
		c-0.4-0.4-0.8-0.8-1.1-1.1s-0.9-0.8-1.5-1.1c-0.6,0.4-1.1,0.9-1.7,1.3c-0.6,0.6-1.1,0.9-1.7,1.3s-1.1,0.8-1.9,0.9
		c-0.6,0.2-1.3,0.4-2.1,0.4c-0.2,0-0.4,0-0.4,0c-0.2,0-0.4,0-0.6,0c-0.8-0.2-1.5-0.4-1.9-0.9c-0.4-0.6-0.8-0.9-1.1-1.3
		c-0.4-0.6-0.8-0.9-1.1-1.5c-0.4-0.6-0.9-0.9-1.5-1.3c-0.9,0.6-1.9,1.3-3,2.3c-1.1,0.9-2.3,1.5-3.6,2.3c-1.3,0.8-2.5,1.3-3.8,1.9
		C288.9,223.1,287.6,223.3,286.3,223.3z"/>
	<path class="st0" d="M357.8,158.7c0,0.8,0,1.5,0,1.9c0,0.6-0.2,0.9-0.2,1.3c-0.2,0.4-0.4,0.8-0.6,1.1c-0.2,0.4-0.4,0.8-0.6,1.3
		c-1.5,0.4-3,0.9-4.5,1.7s-2.8,1.3-4.3,2.1s-2.8,1.3-4.3,1.9c-1.3,0.6-2.8,0.9-4.3,1.1c-0.2-0.6-0.2-0.9-0.2-1.1c0-0.4,0-0.6,0-0.9
		s0.2-0.8,0.2-1.1s0-0.9,0-1.7c1.7-0.4,3.2-1.1,4.7-1.9s3-1.7,4.5-2.5c1.5-0.8,3-1.5,4.5-2.1C354.4,159.1,356.1,158.7,357.8,158.7z"
		/>
	<path class="st0" d="M351,174c-0.2,0.6-0.2,0.9-0.2,1.5c0,0.6,0,0.9,0,1.5c0,0.8,0,1.3,0.2,1.9c0.2,0.6,0.4,1.1,0.6,1.7
		c0.4,0.6,0.8,0.9,1.1,1.1c0.6,0.2,1.1,0.4,1.9,0.4c0.2,0,0.4,0,0.4,0c0.2,0,0.2,0,0.4,0c0.2-0.4,0.4-0.8,0.6-0.9
		c0.2-0.4,0.2-0.8,0.2-1.1l-0.6-4.2c0-0.4,0-0.8,0.2-1.1s0.4-0.8,0.6-1.1c0.9,0.8,1.7,1.7,2.3,2.8c0.6,1.1,0.8,2.5,0.8,3.8
		c0,0.8-0.2,1.7-0.4,2.5c-0.2,0.8-0.6,1.5-0.9,2.1s-0.9,1.1-1.5,1.5c-0.6,0.4-1.3,0.6-2.1,0.6c-0.6,0-1.1,0-1.7-0.2
		s-1.3-0.6-2.1-0.9c-1.5,1.1-2.8,1.7-4.3,1.7c-0.9,0-1.7-0.2-2.5-0.6c-0.8-0.4-1.3-0.8-1.9-1.3c-0.6-0.6-0.9-1.3-1.3-2.1
		s-0.6-1.5-0.6-2.5c0-0.8,0.2-1.7,0.6-2.5c0.4-0.9,0.9-1.7,1.7-2.5c0,0.6,0.2,1.3,0.2,2.3c0,0.9,0,1.5,0.2,2.3s0.4,1.3,0.8,1.9
		c0.4,0.6,0.9,0.8,1.5,0.8c0.6,0,1.3-0.2,1.7-0.4c0.4-0.4,0.8-0.8,0.9-1.1c0.2-0.6,0.4-1.1,0.4-1.7c0-0.6,0-1.3,0-1.9V178
		c0-0.6,0-0.9,0-1.5c0-0.4,0-0.9,0.2-1.3s0.2-0.6,0.4-0.9c0.2-0.2,0.6-0.4,0.9-0.4C349.9,173.7,350.3,173.8,351,174z"/>
	<path class="st0" d="M353.9,195.9h0.9c1.7,0.9,3,2.1,4.3,3.2c1.1,1.1,2.3,2.5,3,4c0.8,1.3,1.3,2.8,1.7,4.5c0.4,1.5,0.6,3.2,0.6,4.7
		c0,2.1-0.4,4.3-0.9,6.4c-0.8,2.1-1.7,4-3,5.7s-2.8,3.2-4.7,4.5c-1.9,1.3-4,2.3-6.4,2.6c-0.8,0.2-1.5,0.2-2.3,0.4
		c-0.8,0-1.5,0.2-2.5,0.2c-2.3,0-4.7-0.2-7.2-0.6s-5.1-0.8-7.6-1.1c2.1-0.9,4.5-1.7,7.2-2.5c2.6-0.8,5.1-1.5,7.7-2.3
		c2.6-0.8,4.9-1.7,7.4-2.5c2.3-0.9,4.2-2.1,5.7-3.2c1.1-0.9,2.1-1.9,2.5-2.8c0.6-0.9,0.8-1.7,0.8-2.5c0-1.1-0.4-2.3-1.1-3.4
		c-0.8-1.1-1.5-2.3-2.5-3.4c-0.9-1.1-1.7-2.5-2.5-4c-0.8-1.5-1.1-3-1.1-4.7c0-0.4,0-0.9,0-1.3C353.7,197.1,353.9,196.5,353.9,195.9z
		"/>
	<path class="st0" d="M400.3,234.8c0,0.8,0,1.5,0,1.9c0,0.6-0.2,0.9-0.2,1.3c-0.2,0.4-0.4,0.8-0.6,1.1c-0.2,0.4-0.4,0.8-0.6,1.3
		c-1.5,0.4-3,0.9-4.5,1.7s-2.8,1.3-4.3,2.1s-2.8,1.3-4.3,1.9c-1.3,0.6-2.8,0.9-4.3,1.1c-0.2-0.6-0.2-0.9-0.2-1.1c0-0.4,0-0.6,0-0.9
		c0-0.4,0.2-0.8,0.2-1.1c0-0.4,0-0.9,0-1.7c1.7-0.4,3.2-1.1,4.7-1.9s3-1.7,4.5-2.5s3-1.5,4.5-2.1
		C396.7,235.2,398.4,234.8,400.3,234.8z"/>
	<path class="st0" d="M400.3,242.4c0,0.8,0,1.5,0,1.9c0,0.6-0.2,0.9-0.2,1.3c-0.2,0.4-0.4,0.8-0.6,1.1c-0.2,0.4-0.4,0.8-0.6,1.3
		c-1.5,0.4-3,0.9-4.5,1.7s-2.8,1.3-4.3,2.1s-2.8,1.3-4.3,1.9c-1.3,0.6-2.8,0.9-4.3,1.1c-0.2-0.6-0.2-0.9-0.2-1.1c0-0.4,0-0.6,0-0.9
		c0-0.4,0.2-0.8,0.2-1.1c0-0.4,0-0.9,0-1.7c1.7-0.4,3.2-1.1,4.7-1.9s3-1.7,4.5-2.5s3-1.5,4.5-2.1
		C396.7,242.8,398.4,242.4,400.3,242.4z"/>
	<path class="st0" d="M417.3,223.3c-0.4,0-0.8,0-1.1,0s-0.6-0.2-0.9-0.2s-0.6-0.2-0.9-0.2c-0.4-0.2-0.8-0.2-1.1-0.4
		c-0.9-0.4-1.9-0.9-2.8-1.5c-0.9-0.6-1.7-1.3-2.6-2.1s-1.7-1.5-2.6-2.3s-1.9-1.5-2.8-2.5c-0.8,1.7-1.5,3.4-2.3,5.3
		c-0.8,1.9-1.7,3.6-2.6,5.1c-1.1,1.5-2.3,2.8-3.8,3.8s-3.2,1.5-5.3,1.5c-1.9,0-3.4-0.4-4.7-1.3c-1.3-0.9-2.5-2.1-3.6-3.4
		c-0.9-1.5-1.9-3.2-2.5-5.1c-0.6-1.9-1.1-4-1.5-6c-0.4-2.1-0.6-4.3-0.8-6.6c-0.2-2.3-0.2-4.3-0.2-6.6c0-1.1,0-2.1,0-3.2
		c0-0.9,0-1.9,0.2-2.8c0.6,1.1,0.9,2.3,1.3,3.6c0.4,1.3,0.6,2.6,0.8,4s0.4,2.8,0.6,4.3c0.2,1.5,0.4,2.8,0.6,4.2
		c0.2,1.3,0.6,2.6,0.9,3.8c0.4,1.1,0.9,2.3,1.7,3c0.8,0.9,1.5,1.5,2.6,2.1c1.1,0.6,2.3,0.8,3.8,0.8c1.7,0,3.2-0.4,4.7-1.3
		c1.5-0.9,2.6-2.1,3.8-3.4c1.1-1.5,1.9-3.2,2.5-5.1c0.6-1.9,0.9-3.8,0.9-5.9v-0.9c0-1.3-0.2-2.6-0.6-4c-0.4-1.3-0.8-2.6-1.1-4
		s-0.8-2.5-1.1-3.8c-0.4-1.3-0.6-2.5-0.6-3.8c0-0.8,0-1.5,0.2-2.3s0.4-1.5,0.8-2.3c0.2,0.2,0.4,0.2,0.6,0.4c0.2,0.2,0.2,0.4,0.4,0.6
		c0.2,1.9,0.6,3.8,1.1,5.7c0.6,1.9,1.1,4,1.9,5.9c0.8,1.9,1.5,3.8,2.5,5.7c0.9,1.9,2.1,3.4,3.2,4.9s2.5,2.8,3.8,4
		c1.3,1.1,2.8,1.9,4.3,2.5c0.4,0.2,0.8,0.2,1.1,0.4c0.4,0.2,0.9,0.2,1.5,0.2h0.6c1.1,0.6,2.1,1.1,2.6,1.9c0.6,0.8,0.9,1.7,0.9,2.6
		c0,0.9-0.4,1.7-0.9,2.5c-0.6,0.8-1.5,1.5-2.6,2.1h-0.6V223.3z"/>
	<path class="st0" d="M447,162.7c0,0.8,0,1.5,0,1.9c0,0.6-0.2,0.9-0.2,1.3c-0.2,0.4-0.4,0.8-0.6,1.1c-0.2,0.4-0.4,0.8-0.6,1.3
		c-1.5,0.4-3,0.9-4.5,1.7s-2.8,1.3-4.3,2.1s-2.8,1.3-4.3,1.9c-1.3,0.6-2.8,0.9-4.3,1.1c-0.2-0.6-0.2-0.9-0.2-1.1c0-0.4,0-0.6,0-0.9
		s0.2-0.8,0.2-1.1c0-0.4,0-0.9,0-1.7c1.7-0.4,3.2-1.1,4.7-1.9s3-1.7,4.5-2.5s3-1.5,4.5-2.1C443.6,162.9,445.1,162.7,447,162.7z"/>
	<path class="st0" d="M440,177.8c-0.2,0.6-0.2,0.9-0.2,1.5c0,0.6,0,0.9,0,1.5c0,0.8,0,1.3,0.2,1.9s0.4,1.1,0.6,1.7
		c0.4,0.6,0.8,0.9,1.1,1.1c0.6,0.2,1.1,0.4,1.9,0.4c0.2,0,0.4,0,0.4,0c0.2,0,0.2,0,0.4,0c0.2-0.4,0.4-0.8,0.6-0.9
		c0.2-0.4,0.2-0.8,0.2-1.1l-0.6-4.2c0-0.4,0-0.8,0.2-1.1c0.2-0.4,0.4-0.8,0.6-1.1c0.9,0.8,1.7,1.7,2.3,2.8c0.6,1.1,0.8,2.5,0.8,3.8
		c0,0.8-0.2,1.7-0.4,2.5c-0.2,0.8-0.6,1.5-0.9,2.1c-0.4,0.6-0.9,1.1-1.5,1.5c-0.6,0.4-1.3,0.6-2.1,0.6c-0.6,0-1.1,0-1.7-0.2
		c-0.6-0.2-1.3-0.6-2.1-0.9c-1.5,1.1-2.8,1.7-4.3,1.7c-0.9,0-1.7-0.2-2.5-0.6s-1.3-0.8-1.9-1.3c-0.6-0.6-0.9-1.3-1.3-2.1
		c-0.4-0.8-0.6-1.5-0.6-2.5c0-0.8,0.2-1.7,0.6-2.5c0.4-0.9,0.9-1.7,1.7-2.5c0,0.6,0.2,1.3,0.2,2.3c0,0.9,0,1.5,0.2,2.3
		s0.4,1.3,0.8,1.9c0.4,0.6,0.9,0.8,1.5,0.8c0.6,0,1.3-0.2,1.7-0.4c0.4-0.4,0.8-0.8,0.9-1.1c0.2-0.6,0.4-1.1,0.4-1.7
		c0-0.6,0-1.3,0-1.9v-0.2c0-0.6,0-0.9,0-1.5c0-0.4,0-0.9,0.2-1.3s0.2-0.6,0.4-0.9c0.2-0.2,0.6-0.4,0.9-0.4
		C438.8,177.4,439.4,177.6,440,177.8z"/>
	<path class="st0" d="M416.9,223.3c-0.6,0-0.9-0.4-1.5-0.6c-0.4-0.4-0.8-0.8-1.1-1.1c-0.4-0.4-0.6-0.9-0.8-1.3
		c-0.2-0.6-0.2-0.9-0.2-1.3c0-0.6,0-0.9,0.2-1.5s0.4-0.9,0.8-1.3c0.4-0.4,0.6-0.8,1.1-1.1c0.4-0.4,0.9-0.6,1.5-0.8h2.1
		c1.1,0,2.3-0.2,3.4-0.6c0.9-0.4,2.1-0.8,3-1.3c0.9-0.6,1.9-1.1,2.8-1.7c0.9-0.6,1.9-1.1,2.8-1.7c0.9-0.6,1.9-0.9,3-1.3
		c0.9-0.4,2.1-0.6,3.4-0.8c0.4,0,0.6-0.4,0.8-0.6s0.2-0.6,0.4-0.9c0-0.4,0.2-0.8,0.4-0.9c0.2-0.2,0.4-0.6,0.8-0.6
		c0.9,0.4,1.7,0.8,2.3,1.5c0.4,0.6,0.9,1.3,1.1,2.3c0.4,0.8,0.8,1.7,1.1,2.5c0.4,0.8,1.1,1.5,2.1,2.3c0.6,0.4,1.3,0.8,2.1,1.1
		c0.8,0.4,1.7,0.6,2.5,0.6c0.9,0.2,1.9,0.2,2.6,0.4c0.9,0,1.9,0,2.8,0h1.1c0.9,0.2,1.7,0.4,2.5,0.6c0.6,0.4,1.1,0.8,1.5,1.1
		c0.4,0.4,0.6,0.9,0.8,1.3c0.2,0.6,0.2,0.9,0.2,1.5c0,0.6-0.2,1.1-0.4,1.7c-0.2,0.6-0.6,1.1-0.9,1.5c-0.4,0.4-0.9,0.8-1.5,0.9
		c-0.6,0.2-1.3,0.4-2.3,0.4h-0.8c-1.9,0-3.8-0.2-5.9-0.6c-2.1-0.4-4-0.8-5.7-1.5c-0.6,0.2-0.9,0.6-1.5,0.9c-0.4,0.4-0.9,0.8-1.3,1.1
		c-0.6,0.4-0.9,0.8-1.5,0.9c-0.6,0.2-1.1,0.4-1.9,0.4c-0.4,0-0.8,0-1.1-0.2c-0.4,0-0.8-0.2-1.1-0.4c-0.4-0.4-0.6-0.9-0.6-1.5
		c-0.2-0.6-0.2-1.3-0.4-1.9c0-0.8-0.2-1.3-0.2-2.1c0-0.8-0.2-1.3-0.2-2.1c-0.2-0.4-0.6-0.8-0.8-0.8c-0.4,0-0.6-0.2-0.9-0.2
		c-0.9,0.8-2.1,1.5-3.4,2.5c-1.3,0.9-2.6,1.7-4,2.5c-1.3,0.8-2.8,1.3-4.2,1.9s-2.8,0.8-4,0.8H416.9z"/>
	<path class="st0" d="M489.8,174c0,0.8,0,1.5,0,1.9c0,0.6-0.2,0.9-0.2,1.3c-0.2,0.4-0.4,0.8-0.6,1.1c-0.2,0.4-0.4,0.8-0.6,1.3
		c-1.5,0.4-3,0.9-4.5,1.7s-2.8,1.3-4.3,2.1s-2.8,1.3-4.3,1.9c-1.3,0.6-2.8,0.9-4.3,1.1c-0.2-0.6-0.2-0.9-0.2-1.1c0-0.4,0-0.6,0-0.9
		s0.2-0.8,0.2-1.1c0-0.4,0-0.9,0-1.7c1.7-0.4,3.2-1.1,4.7-1.9s3-1.7,4.5-2.5c1.5-0.8,3-1.5,4.5-2.1C486.4,174.4,488.1,174,489.8,174
		z"/>
	<path class="st0" d="M488.7,211.4c-1.1,0.2-2.3,0.6-3.2,0.9c-1.1,0.4-2.1,0.8-2.8,1.1c-1.3,0.6-2.6,1.3-4.3,2.3
		c-1.7,0.9-3.4,1.9-5.1,2.8c-1.9,0.9-3.6,1.9-5.5,2.6s-3.8,1.5-5.7,1.9c-0.6,0.2-1.3,0.2-1.9,0.2c-0.6,0-1.3,0-1.9,0h-1.5
		c-1.3-0.8-2.1-1.5-2.6-2.3c-0.6-0.8-0.8-1.5-0.8-2.3c0-0.6,0.2-1.1,0.4-1.5c0.2-0.6,0.6-0.9,0.8-1.3c0.4-0.4,0.8-0.8,1.1-0.9
		c0.4-0.2,0.8-0.6,1.1-0.6h1.9c0.4,0,0.6,0,0.9,0c0.4,0,0.6,0,0.9-0.2c1.1-0.2,2.3-0.6,3.8-0.9c1.5-0.4,3-0.9,4.5-1.5
		s3.2-1.3,4.7-2.3c1.5-0.9,3-1.9,4.5-3c-0.9-0.9-2.3-1.7-3.8-2.3c-1.5-0.6-3.2-0.8-5.1-0.8c-1.1,0-2.1,0-3.2,0.2s-2.1,0.4-3,0.8
		c-0.9,0.4-1.9,0.8-2.6,1.3c-0.8,0.6-1.5,1.1-2.1,1.9c0.4-2.1,0.8-3.8,1.5-5.1c0.8-1.3,1.7-2.5,2.6-3.2c1.1-0.8,2.3-1.3,3.6-1.7
		c1.3-0.4,2.8-0.6,4.5-0.6c2.1,0,4.2,0.2,6.6,0.6c2.3,0.4,4.7,0.8,7.2,1.3c2.5,0.4,4.9,0.9,7.4,1.3c2.5,0.4,4.9,0.6,7.2,0.6
		c1.9,0,3.8-0.2,5.5-0.6c0.4,0.6,0.6,1.1,0.8,1.9c0.2,0.6,0.2,1.3,0.2,1.9c0,0.9-0.2,1.7-0.4,2.5s-0.6,1.5-0.9,1.9
		c-0.2,0.2-0.4,0.2-0.4,0.4c0,0.2-0.2,0.2-0.4,0.2c-1.3,0.2-2.6,0.4-4.3,0.6s-3.4,0.4-5.3,0.8c0.6,0.8,1.3,1.3,2.1,1.7
		c0.8,0.4,1.7,0.8,2.6,1.1c0.9,0.4,1.9,0.6,2.8,0.6c0.9,0,1.9,0.2,2.6,0.2h4c1.1,0.4,1.9,1.1,2.5,1.9c0.6,0.8,0.8,1.7,0.8,2.6
		c0,0.9-0.4,1.9-0.9,2.8c-0.6,0.9-1.5,1.5-2.5,1.9h-2.8c-2.1,0-4-0.2-5.7-0.6c-1.9-0.4-3.4-0.9-4.9-1.9c-1.3-0.9-2.6-2.1-3.6-3.8
		C489.6,215.8,489.1,213.7,488.7,211.4z"/>
	<path class="st0" d="M516.8,191c0.4-0.9,0.9-1.7,1.7-2.3c0.8-0.6,1.5-0.9,2.5-1.3s1.7-0.9,2.5-1.3c0.8-0.6,1.3-1.1,1.9-2.1
		c-1.1-0.8-1.9-1.7-2.5-3c-0.6-1.1-0.8-2.6-0.8-4c0-1.3,0.2-2.8,0.6-4.2c0.4-1.3,0.9-2.6,1.9-3.8c0.9-1.1,1.7-2.1,2.6-2.8
		c0.9-0.8,2.1-1.1,3.2-1.1c0.9,0,1.7,0.2,2.6,0.8c0.9,0.6,1.9,1.3,2.8,2.3c0.2,0.8,0.4,1.5,0.4,2.1c0,0.8,0.2,1.3,0.2,2.1
		c0,2.5-0.6,4.7-1.7,6.8c-1.1,2.1-2.5,3.8-4.2,5.3c-0.9,0.9-1.9,1.7-3.2,2.5c-1.1,0.8-2.3,1.5-3.6,2.1c-1.1,0.6-2.5,1.1-3.6,1.5
		C519.1,190.8,517.8,191,516.8,191z M532.1,174.8c0-0.4-0.2-0.8-0.4-1.1s-0.6-0.6-0.9-0.8c-0.4-0.2-0.8-0.4-1.1-0.6
		s-0.9-0.2-1.3-0.2s-0.6,0-0.9,0c-0.2,0-0.6,0.2-0.8,0.4c-0.6,0.4-0.9,0.6-1.1,0.9c-0.2,0.4-0.4,0.6-0.4,0.9s0.2,0.8,0.4,1.1
		c0.2,0.4,0.6,0.8,0.9,0.9c0.4,0.4,0.9,0.6,1.3,0.8c0.6,0.2,0.9,0.2,1.5,0.2c0.6,0,1.1-0.2,1.7-0.6c0.6-0.4,0.8-0.9,0.8-1.9v-0.2
		H532.1z"/>
	<path class="st0" d="M506.4,223.3c-0.6,0-0.9-0.4-1.5-0.6c-0.4-0.4-0.8-0.8-1.1-1.1c-0.4-0.4-0.6-0.9-0.8-1.3
		c-0.2-0.6-0.2-0.9-0.2-1.3c0-0.6,0-0.9,0.2-1.5s0.4-0.9,0.8-1.3c0.4-0.4,0.6-0.8,1.1-1.1c0.4-0.4,0.9-0.6,1.5-0.8h2.1
		c1.1,0,2.3-0.2,3.4-0.6c0.9-0.4,2.1-0.8,3-1.3c0.9-0.6,1.9-1.1,2.8-1.7c0.9-0.6,1.9-1.1,2.8-1.7c0.9-0.6,1.9-0.9,3-1.3
		c0.9-0.4,2.1-0.6,3.4-0.8c0.4,0,0.6-0.4,0.8-0.6c0.2-0.2,0.2-0.6,0.4-0.9c0-0.4,0.2-0.8,0.4-0.9c0.2-0.2,0.4-0.6,0.8-0.6
		c0.9,0.4,1.7,0.8,2.3,1.5c0.4,0.6,0.9,1.3,1.1,2.3c0.4,0.8,0.8,1.7,1.1,2.5c0.4,0.8,1.1,1.5,2.1,2.3c0.6,0.4,1.3,0.8,2.1,1.1
		c0.8,0.4,1.7,0.6,2.5,0.6c0.9,0.2,1.9,0.2,2.6,0.4c0.9,0,1.9,0,2.8,0h1.1c0.9,0.2,1.7,0.4,2.5,0.6c0.6,0.4,1.1,0.8,1.5,1.1
		c0.4,0.4,0.6,0.9,0.8,1.3c0.2,0.6,0.2,0.9,0.2,1.5c0,0.6-0.2,1.1-0.4,1.7c-0.2,0.6-0.6,1.1-0.9,1.5c-0.4,0.4-0.9,0.8-1.5,0.9
		c-0.6,0.2-1.3,0.4-2.3,0.4h-0.8c-1.9,0-3.8-0.2-5.9-0.6c-2.1-0.4-4-0.8-5.7-1.5c-0.6,0.2-0.9,0.6-1.5,0.9c-0.4,0.4-0.9,0.8-1.3,1.1
		c-0.6,0.4-0.9,0.8-1.5,0.9c-0.6,0.2-1.1,0.4-1.9,0.4c-0.4,0-0.8,0-1.1-0.2c-0.4,0-0.8-0.2-1.1-0.4c-0.4-0.4-0.6-0.9-0.6-1.5
		c-0.2-0.6-0.2-1.3-0.4-1.9c0-0.8-0.2-1.3-0.2-2.1c0-0.8-0.2-1.3-0.2-2.1c-0.2-0.4-0.6-0.8-0.8-0.8c-0.4,0-0.6-0.2-0.9-0.2
		c-0.9,0.8-2.1,1.5-3.4,2.5c-1.3,0.9-2.6,1.7-4,2.5c-1.3,0.8-2.8,1.3-4.2,1.9c-1.3,0.6-2.8,0.8-4,0.8H506.4z"/>
	<path class="st0" d="M564.2,243.5c0,0.8,0,1.5,0,1.9c0,0.6-0.2,0.9-0.2,1.3c-0.2,0.4-0.4,0.8-0.6,1.1c-0.2,0.4-0.4,0.8-0.6,1.3
		c-1.5,0.4-3,0.9-4.5,1.7c-1.5,0.8-2.8,1.3-4.3,2.1c-1.5,0.8-2.8,1.3-4.3,1.9c-1.3,0.6-2.8,0.9-4.3,1.1c-0.2-0.6-0.2-0.9-0.2-1.1
		c0-0.4,0-0.6,0-0.9c0-0.4,0.2-0.8,0.2-1.1c0-0.4,0-0.9,0-1.7c1.7-0.4,3.2-1.1,4.7-1.9c1.5-0.8,3-1.7,4.5-2.5c1.5-0.8,3-1.5,4.5-2.1
		C560.8,243.9,562.5,243.5,564.2,243.5z"/>
	<path class="st0" d="M553.1,214.2c1.5,0,3-0.2,4.5-0.6c1.5-0.4,2.6-0.8,3.4-1.3c0-0.9-0.2-1.7-0.4-2.3c-0.2-0.6-0.4-1.1-0.8-1.5
		c-0.4-0.4-0.6-0.8-0.9-1.1c-0.4-0.4-0.6-0.8-0.9-1.1c-0.4-0.4-0.6-0.9-0.8-1.5c-0.2-0.6-0.2-1.3-0.2-2.3c0-0.8,0.2-1.5,0.6-2.5
		c0.4-0.8,0.8-1.7,1.3-2.6c0.9,0.9,1.7,1.9,2.6,2.8c0.8,0.9,1.5,1.9,2.1,2.8c0.6,0.9,1.1,2.1,1.5,3.4c0.4,1.3,0.6,2.8,0.6,4.7
		c0,1.5-0.2,2.8-0.6,4.2s-1.1,2.6-2.1,3.8c-1.1,1.5-2.6,2.6-4.5,3.4c-1.7,0.6-3.6,0.9-5.5,0.9h-6.8c-1.5-0.4-2.5-0.9-3.2-1.9
		s-0.9-1.9-0.9-2.8c0-0.9,0.4-1.9,1.1-2.8c0.8-0.9,1.7-1.5,3.2-1.7H553.1z M553.4,227.3c1.7,0.2,3,0.6,4.2,1.1
		c1.1,0.6,2.1,1.3,3,2.3c0,1.5-0.2,2.8-0.6,4.2c-0.2,1.3-0.8,2.3-1.7,2.8h-0.6c-2.8,0-4.9-0.9-6-2.6c0-0.8,0.2-1.5,0.2-2.3
		s0-1.3,0.2-2.1c0-0.6,0.2-1.3,0.4-1.9C552.5,228.4,552.9,227.8,553.4,227.3z"/>
	<path class="st0" d="M601,155.5c0,0.8,0,1.5,0,1.9c0,0.6-0.2,0.9-0.2,1.3c-0.2,0.4-0.4,0.8-0.6,1.1c-0.2,0.4-0.4,0.8-0.6,1.3
		c-1.5,0.4-3,0.9-4.5,1.7c-1.5,0.8-2.8,1.3-4.3,2.1c-1.5,0.8-2.8,1.3-4.3,1.9c-1.3,0.6-2.8,0.9-4.3,1.1c-0.2-0.6-0.2-0.9-0.2-1.1
		c0-0.4,0-0.6,0-0.9s0.2-0.8,0.2-1.1s0-0.9,0-1.7c1.7-0.4,3.2-1.1,4.7-1.9c1.5-0.8,3-1.7,4.5-2.5c1.5-0.8,3-1.5,4.5-2.1
		C597.6,155.7,599.3,155.5,601,155.5z"/>
	<path class="st0" d="M594.2,170.6c-0.2,0.6-0.2,0.9-0.2,1.5c0,0.6,0,0.9,0,1.5c0,0.8,0,1.3,0.2,1.9c0.2,0.6,0.4,1.1,0.6,1.7
		c0.4,0.6,0.8,0.9,1.1,1.1c0.6,0.2,1.1,0.4,1.9,0.4c0.2,0,0.4,0,0.4,0s0.2,0,0.4,0c0.2-0.4,0.4-0.8,0.6-0.9c0.2-0.2,0.2-0.8,0.2-1.1
		l-0.6-4.2c0-0.4,0-0.8,0.2-1.1c0.2-0.4,0.4-0.8,0.6-1.1c0.9,0.8,1.7,1.7,2.3,2.8c0.6,1.1,0.8,2.5,0.8,3.8c0,0.8-0.2,1.7-0.4,2.5
		c-0.2,0.8-0.6,1.5-0.9,2.1c-0.4,0.6-0.9,1.1-1.5,1.5s-1.3,0.6-2.1,0.6c-0.6,0-1.1,0-1.7-0.2s-1.3-0.6-2.1-0.9
		c-1.5,1.1-2.8,1.7-4.3,1.7c-0.9,0-1.7-0.2-2.5-0.6c-0.8-0.4-1.3-0.8-1.9-1.3c-0.6-0.6-0.9-1.3-1.3-2.1c-0.4-0.8-0.6-1.5-0.6-2.5
		c0-0.8,0.2-1.7,0.6-2.5c0.4-0.9,0.9-1.7,1.7-2.5c0,0.6,0.2,1.3,0.2,2.3c0,0.8,0,1.5,0.2,2.3c0.2,0.8,0.4,1.3,0.8,1.9
		c0.4,0.6,0.9,0.8,1.5,0.8c0.8,0,1.3-0.2,1.7-0.4c0.4-0.4,0.8-0.8,0.9-1.1c0.2-0.6,0.4-1.1,0.4-1.7s0-1.3,0-1.9v-0.2
		c0-0.6,0-0.9,0-1.5c0-0.4,0-0.9,0.2-1.3c0.2-0.4,0.2-0.6,0.4-0.9c0.2-0.2,0.6-0.4,0.9-0.4C593.1,170.3,593.5,170.4,594.2,170.6z"/>
	<path class="st0" d="M573.6,231.6c1.5-0.9,3.2-1.9,5.1-2.6c1.9-0.8,3.8-1.5,5.7-2.1c1.9-0.8,3.8-1.3,5.7-2.1
		c1.9-0.8,3.6-1.5,5.3-2.5c1.7-0.9,3-2.1,4.3-3.4c1.3-1.3,2.3-3,3-4.9c-0.4-0.2-0.9-0.4-1.3-0.6c-0.6,0-0.9-0.2-1.5-0.2
		c-1.1,0-2.3,0.2-3.6,0.4c-1.3,0.2-2.5,0.4-3.6,0.4c-0.8,0-1.5-0.2-2.3-0.4c-0.8-0.2-1.3-0.6-1.9-1.1c-0.4-1.1-0.8-2.3-0.9-3.8
		c-0.2-1.5-0.4-2.8-0.4-4.3c0-1.3,0.2-2.6,0.4-4c0.2-1.3,0.6-2.5,1.1-3.4c0.6-0.9,1.1-1.7,1.9-2.5c0.8-0.6,1.7-0.9,3-0.9
		c0.4,0,0.9,0,1.3,0.2c0.6,0.2,0.9,0.2,1.5,0.4c1.5,0.6,2.8,1.5,4,2.6c1.1,1.1,2.1,2.6,2.8,4.3s1.3,3.4,1.7,5.3
		c0.4,1.9,0.6,3.8,0.6,5.9c0,1.3-0.2,2.6-0.4,4.2c-0.2,1.3-0.6,2.6-0.9,3.8c-0.4,1.1-0.9,2.5-1.5,3.4c-0.6,1.1-1.3,1.9-2.3,2.6
		c-0.9,0.9-2.3,1.7-3.6,2.5c-1.3,0.8-2.8,1.3-4.5,1.7s-3.4,0.8-5.3,0.9c-1.9,0.2-3.8,0.4-5.9,0.4c-1.3,0-2.6,0-4-0.2
		C576.3,231.8,575,231.8,573.6,231.6z"/>
	<path class="st0" d="M644.3,214.2c1.1,0,2.1,0.2,2.8,0.6s1.3,0.8,1.9,1.1c0.6,0.4,0.9,0.9,1.1,1.5c0.2,0.6,0.4,1.1,0.4,1.5
		c0,0.6-0.2,1.1-0.6,1.7c-0.4,0.6-0.8,0.9-1.3,1.5c-0.6,0.6-1.1,0.8-1.9,0.9s-1.5,0.4-2.3,0.4H642c-2.8,0-5.1-0.4-7.2-0.9
		c-1.9-0.6-3.6-1.5-4.9-2.6c-1.3-1.1-2.5-2.8-3.2-4.5c-0.8-1.9-1.5-4-1.9-6.6c-0.6-3-1.1-6.2-1.9-9.4c-0.6-3.2-1.1-6.6-1.7-10.2
		c-0.2-1.7-0.6-3.4-0.9-5.1c-0.4-1.7-0.8-3.6-1.1-5.3s-0.8-3.4-0.9-5.1c-0.2-1.7-0.4-3.4-0.4-4.9c0-1.3,0.2-2.6,0.4-3.8
		c0.2-1.1,0.6-2.5,1.3-3.4c1.1-0.4,2.1-0.6,3.2-0.6c1.3,0,2.6,0.2,3.8,0.8c1.1,0.6,2.1,1.3,3,2.3c0.9,0.9,1.7,1.9,2.3,3.2
		c0.6,1.1,1.1,2.5,1.5,3.6c-0.8,0-1.5-0.2-2.3-0.6c-0.6-0.4-1.3-0.8-1.9-1.1c-0.6-0.4-1.1-0.8-1.7-1.1s-1.3-0.6-1.9-0.6
		c-0.4,0-0.9,0-1.5,0.2c-0.2,0.6-0.4,1.3-0.6,2.1c-0.2,0.8-0.2,1.5-0.2,2.5c0,1.7,0.2,3.4,0.6,5.3c0.4,1.9,0.8,3.8,1.1,5.9
		s0.9,4,1.3,6s0.9,4.2,1.1,6c0,0.4,0.2,0.8,0.2,1.1c0,0.4,0.2,0.8,0.2,0.9c0.2,1.7,0.6,3.4,0.8,4.9c0.2,1.5,0.6,2.8,0.9,4.2
		c0.4,1.3,0.9,2.3,1.5,3.4c0.6,0.9,1.5,1.9,2.5,2.5c0.9,0.6,2.3,1.1,3.6,1.5c1.5,0.4,3.2,0.6,5.1,0.6h2.1V214.2z"/>
	<path class="st0" d="M666.3,160.8c0,0.8,0,1.5,0,1.9c0,0.6-0.2,0.9-0.2,1.3c-0.2,0.4-0.4,0.8-0.6,1.1s-0.4,0.8-0.6,1.3
		c-1.5,0.4-3,0.9-4.5,1.7s-2.8,1.3-4.3,2.1s-2.8,1.3-4.3,1.9c-1.3,0.6-2.8,0.9-4.3,1.1c-0.2-0.6-0.2-0.9-0.2-1.1c0-0.4,0-0.6,0-0.9
		s0.2-0.8,0.2-1.1s0-0.9,0-1.7c1.7-0.4,3.2-1.1,4.7-1.9c1.5-0.8,3-1.7,4.5-2.5c1.5-0.8,3-1.5,4.5-2.1
		C662.8,161.2,664.5,160.8,666.3,160.8z"/>
	<path class="st0" d="M670.5,168.7c0,0.8,0,1.5,0,1.9c0,0.6-0.2,0.9-0.2,1.3c-0.2,0.4-0.4,0.8-0.6,1.1c-0.2,0.4-0.4,0.8-0.6,1.3
		c-1.5,0.4-3,0.9-4.5,1.7c-1.5,0.8-2.8,1.3-4.3,2.1c-1.5,0.8-2.8,1.3-4.3,1.9c-1.3,0.6-2.8,0.9-4.3,1.1c-0.2-0.6-0.2-0.9-0.2-1.1
		c0-0.4,0-0.6,0-0.9s0.2-0.8,0.2-1.1c0-0.4,0-0.9,0-1.7c1.7-0.4,3.2-1.1,4.7-1.9c1.5-0.8,3-1.7,4.5-2.5c1.5-0.8,3-1.5,4.5-2.1
		C667.1,168.9,668.8,168.7,670.5,168.7z"/>
	<path class="st0" d="M683.9,214.2c1.3,0.4,2.3,1.1,3,1.9c0.6,0.8,0.9,1.7,0.9,2.6c0,0.9-0.4,1.9-0.9,2.6c-0.6,0.9-1.7,1.5-2.8,1.9
		h-3.2c-1.3,0-2.8-0.2-4.2-0.6c-1.5-0.4-2.8-0.9-4.2-1.7s-2.5-1.7-3.4-2.6c-0.9-0.9-1.7-2.1-2.3-3.4c-1.5,1.1-3.2,2.1-4.9,3
		c-1.7,0.9-3.6,1.7-5.7,2.5c-1.9,0.8-4,1.3-6,1.9c-2.1,0.6-4.2,0.8-6.2,0.9h-0.8c-1.1-0.4-1.9-1.1-2.3-1.9c-0.6-0.9-0.8-1.7-0.8-2.6
		c0-0.9,0.2-1.9,0.8-2.8s1.3-1.5,2.3-1.7h0.9c2.5-0.2,4.7-0.6,7-1.1c2.3-0.6,4.5-1.3,6.6-2.1s4.2-1.7,6-2.6c1.9-0.9,3.6-1.9,5.1-2.8
		c0.2,1.5,0.6,2.6,1.3,3.8c0.8,1.1,1.5,2.1,2.6,2.8c1.1,0.8,2.3,1.3,3.6,1.7c1.3,0.4,2.8,0.6,4.2,0.6h3.2V214.2z M665.6,189.1
		c1.7,0.2,3,0.6,4.2,1.1c1.1,0.6,2.1,1.3,3,2.3c0,1.5-0.2,2.8-0.6,4.2s-0.8,2.3-1.7,2.8h-0.6c-2.8,0-4.9-0.9-6-2.6
		c0-0.8,0.2-1.5,0.2-2.3s0-1.3,0.2-2.1c0-0.6,0.2-1.3,0.4-1.9C664.6,190.3,665,189.7,665.6,189.1z"/>
	<path class="st0" d="M682.4,187.6c0.8-0.9,1.7-1.7,2.6-2.3c1.1-0.6,2.1-1.1,3.2-1.7c1.1-0.6,2.3-1.1,3.2-1.7
		c0.9-0.6,1.9-1.5,2.5-2.5c-0.4-0.6-0.9-1.1-1.5-1.3c-0.6-0.2-1.3-0.4-2.1-0.4c-0.6,0-1.3,0-1.9,0.2c-0.8,0.2-1.3,0.4-1.9,0.6
		s-1.3,0.4-1.9,0.6c-0.6,0.2-1.1,0.4-1.5,0.6c-0.2-0.8-0.4-1.7-0.4-2.5c0-1.1,0.2-2.1,0.8-2.8s1.1-1.5,1.9-2.1
		c0.8-0.6,1.7-0.9,2.6-1.3c0.9-0.2,2.1-0.4,3-0.4c0.8,0,1.5,0,2.3,0.2c0.8,0.2,1.5,0.4,2.1,0.8s1.1,0.8,1.5,1.3
		c0.4,0.6,0.8,1.1,0.9,1.9c0.2,0.6,0.2,1.1,0.2,1.9c0,1.3-0.2,2.5-0.8,3.4s-1.1,1.9-1.9,2.8c-0.8,0.8-1.7,1.5-2.6,2.3
		c-0.9,0.8-2.1,1.1-3.2,1.5s-2.3,0.8-3.2,0.9c-0.9,0.2-2.1,0.4-3,0.4c-0.2,0-0.4,0-0.4,0S682.6,187.6,682.4,187.6z"/>
	<path class="st0" d="M689.9,214.2c1.5,0,3-0.2,4.5-0.6c1.5-0.4,2.6-0.8,3.4-1.3c0-0.9-0.2-1.7-0.4-2.3c-0.2-0.6-0.4-1.1-0.8-1.5
		c-0.4-0.4-0.6-0.8-0.9-1.1c-0.4-0.4-0.6-0.8-0.9-1.1s-0.6-0.9-0.8-1.5c-0.2-0.6-0.2-1.3-0.2-2.3c0-0.8,0.2-1.5,0.6-2.5
		c0.4-0.8,0.8-1.7,1.3-2.6c0.9,0.9,1.7,1.9,2.6,2.8c0.8,0.9,1.5,1.9,2.1,2.8c0.6,0.9,1.1,2.1,1.5,3.4c0.4,1.3,0.6,2.8,0.6,4.7
		c0,1.5-0.2,2.8-0.6,4.2c-0.4,1.3-1.1,2.6-2.1,3.8c-1.1,1.5-2.6,2.6-4.5,3.4c-1.7,0.6-3.6,0.9-5.5,0.9h-6.8
		c-1.5-0.4-2.5-0.9-3.2-1.9c-0.8-0.9-0.9-1.9-0.9-2.8c0-0.9,0.4-1.9,1.1-2.8c0.8-0.9,1.7-1.5,3.2-1.7H689.9z M701.5,240.1
		c-0.4,0-0.6,0.2-0.9,0.2s-0.6,0-0.8,0c-0.8,0-1.5-0.2-2.3-0.4s-1.3-0.6-1.9-0.9c-0.6-0.4-1.3-0.8-1.9-1.1c-0.6-0.4-1.5-0.6-2.3-0.8
		c-0.6,0-1.1,0.4-1.3,0.8c-0.4,0.4-0.6,0.9-0.8,1.3c-0.2,0.6-0.4,0.9-0.8,1.5c-0.2,0.4-0.8,0.8-1.3,0.9c-0.9,0-1.7-0.2-2.5-0.4
		s-1.3-0.4-2.1-0.8c-0.6-0.4-1.1-0.6-1.7-0.9c-0.6-0.4-1.1-0.8-1.7-0.9v-0.2c0-1.5,0.2-2.6,0.4-3.8c0.2-1.1,0.6-2.3,0.8-3.4l0.2-0.4
		c0.2,0,0.4,0,0.4,0s0.2,0,0.4,0c0.6,0,1.3,0.2,2.1,0.4s1.3,0.4,2.1,0.8c0.8,0.4,1.3,0.6,2.1,0.9c0.8,0.4,1.3,0.6,1.9,0.8
		c0.6,0,1.1-0.2,1.5-0.6c0.4-0.4,0.8-0.6,0.9-1.1c0.2-0.6,0.4-0.9,0.6-1.3s0.4-0.9,0.6-1.5c1.3,0,2.6,0.2,3.8,0.6s2.1,0.8,3,1.3
		c0.8,0.6,1.5,1.3,1.9,2.3c0.6,0.9,0.8,1.9,0.8,3C702.6,237.1,702.2,238.6,701.5,240.1z"/>
	<path class="st0" d="M730,225.4c0,0.8,0,1.5,0,1.9c0,0.6-0.2,0.9-0.2,1.3c-0.2,0.4-0.4,0.8-0.6,1.1c-0.2,0.4-0.4,0.8-0.6,1.3
		c-1.5,0.4-3,0.9-4.5,1.7c-1.5,0.8-2.8,1.3-4.3,2.1c-1.5,0.8-2.8,1.3-4.3,1.9c-1.3,0.6-2.8,0.9-4.3,1.1c-0.2-0.6-0.2-0.9-0.2-1.1
		c0-0.4,0-0.6,0-0.9c0-0.4,0.2-0.8,0.2-1.1s0-0.9,0-1.7c1.7-0.4,3.2-1.1,4.7-1.9c1.5-0.8,3-1.7,4.5-2.5c1.5-0.8,3-1.5,4.5-2.1
		C726.6,225.8,728.3,225.4,730,225.4z"/>
	<path class="st0" d="M709.4,223.3c-0.4-0.4-0.6-0.8-0.8-1.5c-0.2-0.6-0.2-1.3-0.2-2.1c0-0.9,0-1.7,0.2-2.6s0.4-1.7,0.8-2.3
		c1.1-1.1,2.6-1.9,4.2-2.3c1.5-0.4,3.4-0.9,5.1-1.3c1.7-0.4,3.6-0.8,5.3-1.1c1.7-0.4,3.2-0.9,4.7-1.9c-1.3-1.1-2.6-2.1-4.3-3
		c-1.5-0.9-3.2-1.7-4.9-2.5c-1.7-0.8-3.2-1.5-4.9-2.5c-1.7-0.9-3-1.7-4.3-2.8c0-0.4,0.2-0.8,0.2-0.9c0-0.4,0-0.6,0-0.9l-0.2-3.2
		c0-0.4,0-0.6,0-0.9s0-0.6,0.2-0.9c0.2,0,0.4-0.2,0.4-0.2c0-0.2,0.2-0.2,0.4-0.2c1.9,0,3.8,0.2,5.7,0.8c1.9,0.6,3.8,1.1,5.7,2.1
		c1.9,0.9,3.6,1.9,5.1,3.2c1.7,1.3,3,2.6,4.2,4.2c1.1,1.5,2.1,3.2,2.8,4.9c0.8,1.7,1.1,3.6,1.1,5.5c0,2.1-0.4,4.2-1.3,6
		c-1.9,0.8-3.8,1.5-6,2.1c-2.1,0.6-4.3,0.9-6.4,1.3c-2.3,0.4-4.3,0.9-6.4,1.3C713.2,222,711.1,222.6,709.4,223.3z"/>
	<path class="st0" d="M69.3,106.3c0,0.8,0,1.5,0,1.9c0,0.6-0.2,0.9-0.2,1.3c-0.2,0.4-0.4,0.8-0.6,1.1c-0.2,0.4-0.4,0.8-0.6,1.3
		c-1.5,0.4-3,0.9-4.5,1.7c-1.5,0.8-2.8,1.3-4.3,2.1s-2.8,1.3-4.3,1.9c-1.3,0.6-2.8,0.9-4.3,1.1c-0.2-0.6-0.2-0.9-0.2-1.1
		c0-0.4,0-0.6,0-0.9s0.2-0.8,0.2-1.1s0-0.9,0-1.7c1.7-0.4,3.2-1.1,4.7-1.9c1.5-0.8,3-1.7,4.5-2.5c1.5-0.8,3-1.5,4.5-2.1
		C65.9,106.7,67.6,106.3,69.3,106.3z"/>
	<path class="st0" d="M70.3,97.2c-0.6,0.2-1.1,0.2-1.7,0.4c-0.6,0-1.3,0.2-2.5,0.2h-0.8c-0.2,0-0.6,0-0.8,0c-0.2,0-0.6,0-0.8,0
		c-1.1-0.2-2.5-0.4-3.6-0.8s-2.5-0.8-3.6-1.3c-1.1-0.6-2.3-0.9-3.4-1.3c-1.1-0.6-2.1-0.9-3-1.3c-1.1,1.1-2.3,2.1-3.4,3
		c-1.1,0.9-2.3,1.7-3.6,2.5c-1.3,0.8-2.6,1.3-4.2,1.9c-1.5,0.6-3,0.9-4.9,1.3c-2.1,0.4-4,0.9-5.7,1.3c-1.7,0.6-3.4,0.9-5.1,1.5
		c-1.7,0.4-3.4,0.8-5.3,1.1s-3.8,0.4-6,0.4h-0.4c0.2-0.8,0.9-1.5,1.9-2.1c1.1-0.6,2.5-1.1,4-1.7c1.5-0.6,3-0.9,4.7-1.5
		c1.7-0.6,3.2-0.9,4.7-1.5c1.7-0.6,3.4-1.3,5.5-2.1c2.1-0.8,4-1.5,6-2.5c2.1-0.9,3.8-1.9,5.5-2.8c1.7-1.1,3-2.3,3.8-3.8
		c0.6-0.9,1.3-2.1,1.9-3.2c0.6-1.1,1.3-2.3,2.1-3.4c0.8-1.1,1.5-2.3,2.3-3.4c0.8-1.1,1.5-2.1,2.5-3c0.9-0.9,1.9-1.7,3-2.3
		c1.1-0.6,2.3-0.9,3.4-1.3c0.4,0,0.8-0.2,1.1-0.2s0.8,0,0.9,0h0.9l0.8,0.2c1.3,0.2,2.5,0.6,3.2,1.3c0.9,0.8,1.7,1.5,2.3,2.6
		c0.6,1.1,0.9,2.3,1.3,3.8c0.2,1.5,0.4,3,0.4,4.5v1.3c0,0.4,0,0.8,0,1.1s-0.2,0.8-0.2,1.1c-0.2,1.9-0.8,3.6-1.3,5.3
		C71.8,94.4,71.2,95.9,70.3,97.2z M57.6,85.2c0.9,0.6,2.1,0.9,3.4,1.3c1.3,0.4,2.6,0.8,4,0.9c0.6,0,0.9,0.2,1.5,0.2
		c0.2,0,0.4,0,0.6,0c0.2,0,0.4,0,0.6,0c0.2,0,0.4,0,0.6,0c0,0,0.2,0,0.4,0c0.2,0,0.2,0,0.4,0c0-0.2,0.2-0.4,0.2-0.6
		c0-0.2,0.2-0.4,0.2-0.6v-0.6c0-0.6-0.2-1.1-0.4-1.7c-0.4-0.6-0.8-0.9-1.1-1.3c-0.6-0.4-0.9-0.8-1.7-0.9c-0.6-0.2-1.3-0.4-1.9-0.6
		l-0.8-0.2h-0.8c-1.1,0-2.3,0.4-3.2,0.9C58.4,82.7,57.8,83.8,57.6,85.2z"/>
	<path class="st0" d="M113.2,84.6c-1.1-1.9-2.3-3.6-3.4-5.3c-0.9-1.7-2.1-3.2-3.2-4.7c-1.1-1.5-2.5-2.8-3.8-4.2
		c-1.3-1.3-3-2.6-4.9-4c-0.8-0.6-1.7-1.1-2.5-1.5c-0.9-0.4-1.9-0.8-3-0.9c-0.8,0.6-1.7,0.9-2.3,1.3c-0.8,0.2-1.5,0.4-2.1,0.4
		c-1.5,0-2.6-0.6-3.8-1.5c-1.1-0.9-2.1-2.3-2.6-3.6c-0.8-1.5-1.3-3-1.7-4.7c-0.4-1.7-0.6-3.4-0.6-4.9c0-0.8,0-1.3,0.2-1.9
		c0-0.6,0.2-1.1,0.4-1.7c1.5,0.6,3.2,1.1,4.9,1.9s3.4,1.7,4.9,2.6c1.5,0.9,3.2,2.1,4.9,3.2c1.7,1.1,3.2,2.3,4.7,3.4
		c1.7,1.3,3.4,2.8,5.1,4.3c1.7,1.5,3.2,3.2,4.5,5.1c1.3,1.9,2.5,4,3.2,6.2c0.8,2.3,1.3,4.9,1.3,7.7
		C113.3,82.7,113.3,83.7,113.2,84.6z"/>
	<path class="st0" d="M126,23c0,0.8,0,1.5,0,1.9c0,0.6-0.2,0.9-0.2,1.3c-0.2,0.4-0.4,0.8-0.6,1.1s-0.4,0.8-0.6,1.3
		c-1.5,0.4-3,0.9-4.5,1.7c-1.5,0.8-2.8,1.3-4.3,2.1c-1.5,0.8-2.8,1.3-4.3,1.9c-1.3,0.6-2.8,0.9-4.3,1.1c-0.2-0.6-0.2-0.9-0.2-1.1
		c0-0.4,0-0.6,0-0.9s0.2-0.8,0.2-1.1s0-0.9,0-1.7c1.7-0.4,3.2-1.1,4.7-1.9c1.5-0.8,3-1.7,4.5-2.5c1.5-0.8,3-1.5,4.5-2.1
		C122.6,23.4,124.3,23,126,23z"/>
	<path class="st0" d="M136.9,85.7c1.5,0.2,2.6,0.8,3.4,1.7c0.8,0.9,1.1,1.7,1.1,2.8c0,0.6-0.2,1.1-0.4,1.7c-0.2,0.6-0.6,1.1-0.9,1.5
		c-0.4,0.4-0.9,0.8-1.3,1.1c-0.4,0.4-1.1,0.4-1.7,0.4h-0.8l0,0H136c-0.4,0-0.6,0-0.8,0c-1.5,0-3-0.4-4.3-0.9
		c-1.3-0.6-2.5-1.3-3.6-2.1c-1.1-0.9-2.1-1.9-3-3.2c-0.9-1.1-1.7-2.5-2.3-4c-0.6,0.8-1.1,1.7-1.7,2.6c-0.4,0.9-0.9,1.7-1.3,2.6
		c-0.4,0.9-0.9,1.7-1.5,2.6c-0.6,0.8-1.3,1.5-2.1,2.3c-1.7,1.5-3.8,2.5-6,3.2s-4.7,0.9-7.2,0.9c-2.3,0-4.5-0.2-7-0.6
		c-2.3-0.4-4.5-0.9-6.8-1.7c0.9-0.9,2.1-1.7,3.6-2.1c1.3-0.4,2.8-0.8,4.3-1.1c1.5-0.4,3-0.6,4.5-0.9s3-0.8,4.3-1.1
		c0.6-0.2,1.1-0.6,1.9-0.8c0.6-0.4,1.3-0.6,1.9-0.9c0.6-0.4,1.1-0.6,1.7-0.9s1.1-0.6,1.5-0.9c1.5-0.9,2.6-2.3,3.8-3.8
		c1.1-1.5,1.9-3,2.3-4.9c0.2-0.6,0.2-1.1,0.2-1.9c0-0.6,0-1.3,0-1.9c0-2.1-0.2-4-0.8-6.2c-0.4-2.1-0.9-4.2-1.5-6.4
		c-0.6-2.3-0.9-4.3-1.5-6.4c-0.6-2.1-0.8-4.2-0.8-6.2c0-0.6,0.2-1.3,0.4-2.1c0.2-0.8,0.6-1.5,0.9-2.3s0.8-1.3,1.1-2.1
		c0.4-0.6,0.8-1.1,1.1-1.7l0.2-0.2c0.2,0,0.4,0.2,0.6,0.4c0.2,0.4,0.4,0.6,0.6,0.6c0.8,2.5,1.3,4.9,1.5,7.9c0.4,2.8,0.8,5.9,0.9,8.9
		c0.4,3,0.8,6,1.1,8.9c0.4,2.8,1.1,5.5,2.1,7.9c0.9,2.3,2.1,4.3,3.8,5.9c1.7,1.5,3.6,2.6,6.2,3c0.4,0,0.6,0.2,0.9,0.2
		c0.2,0,0.6,0,0.9,0h0.6V85.7z"/>
	<path class="st0" d="M150.9,59.1c0.8-0.9,1.7-1.7,2.6-2.3c1.1-0.6,2.1-1.1,3.2-1.7c1.1-0.6,2.3-1.1,3.2-1.7
		c0.9-0.6,1.9-1.5,2.5-2.5c-0.4-0.6-0.9-1.1-1.5-1.3c-0.6-0.2-1.3-0.4-2.1-0.4c-0.6,0-1.3,0-1.9,0.2c-0.8,0.2-1.3,0.4-1.9,0.6
		s-1.3,0.4-1.9,0.6c-0.6,0.2-1.1,0.4-1.5,0.6c-0.2-0.8-0.4-1.7-0.4-2.5c0-1.1,0.2-2.1,0.8-2.8c0.6-0.8,1.1-1.5,1.9-2.1
		c0.8-0.6,1.7-0.9,2.6-1.3c0.9-0.4,2.1-0.4,3-0.4c0.8,0,1.5,0,2.3,0.2s1.5,0.4,2.1,0.8s1.1,0.8,1.5,1.3c0.4,0.6,0.8,1.1,0.9,1.9
		c0.2,0.6,0.2,1.1,0.2,1.9c0,1.3-0.2,2.5-0.8,3.4c-0.6,0.9-1.1,1.9-1.9,2.8c-0.8,0.8-1.7,1.5-2.6,2.3c-0.9,0.6-2.1,1.1-3.2,1.5
		c-1.1,0.4-2.3,0.8-3.2,0.9c-0.9,0.2-2.1,0.4-3,0.4c-0.2,0-0.4,0-0.4,0L150.9,59.1z"/>
	<path class="st0" d="M136,94.8c-1.3-0.6-2.3-1.1-2.8-2.1s-0.9-1.7-0.9-2.6c0-0.9,0.4-1.9,0.9-2.6s1.5-1.5,2.8-1.9h1.7
		c1.1,0,2.5-0.4,3.6-1.1c1.1-0.6,2.5-1.5,3.6-2.3c1.1-0.9,2.3-1.9,3.4-3c1.1-1.1,2.1-2.1,2.8-3c0.6,0.6,1.1,1.1,1.7,1.9
		c0.4,0.8,0.9,1.3,1.3,2.1c0.6,0.8,0.9,1.3,1.5,1.7c0.6,0.4,1.3,0.8,2.3,0.8h0.6c0.8,0,1.3-0.4,1.7-0.8c0.4-0.4,0.8-0.9,1.1-1.5
		c0.4-0.6,0.6-1.1,0.9-1.9c0.4-0.8,0.8-1.3,1.1-1.9c0.9,0.2,1.7,0.6,2.3,1.3c0.6,0.6,1.1,1.3,1.5,1.9c0.6,0.8,1.1,1.3,1.7,1.9
		c0.6,0.6,1.5,0.8,2.6,0.8c0-0.2,0.2-0.4,0.2-0.8c0-0.2,0-0.6,0-0.9c0-0.6,0-1.1,0-1.7c0-0.6,0-1.3,0-1.9c0-0.9,0.2-1.7,0.4-2.3
		c0.2-0.8,0.8-1.1,1.5-1.3c0.9,0.9,1.9,2.5,2.3,4.2c0.6,1.9,0.8,3.6,0.8,5.5c0,1.1-0.2,2.3-0.4,3.4c-0.2,1.1-0.6,2.1-1.1,3
		c-0.6,0.9-1.1,1.5-1.9,2.1s-1.7,0.8-2.6,0.8h-0.4c-0.8,0-1.3-0.2-1.9-0.4c-0.6-0.2-0.9-0.6-1.1-0.9c-0.4-0.4-0.8-0.8-1.1-1.1
		c-0.4-0.4-0.9-0.8-1.5-1.1c-0.6,0.4-1.1,0.9-1.7,1.3c-0.6,0.6-1.1,0.9-1.7,1.3c-0.6,0.4-1.1,0.8-1.9,0.9c-0.6,0.2-1.3,0.4-2.1,0.4
		c-0.2,0-0.4,0-0.6,0c-0.2,0-0.4,0-0.4,0c-0.8-0.2-1.5-0.4-1.9-0.9c-0.4-0.4-0.8-0.9-1.1-1.3c-0.4-0.6-0.8-0.9-1.1-1.5
		c-0.4-0.6-0.9-0.9-1.5-1.3c-0.9,0.6-1.9,1.3-3,2.3c-1.1,0.9-2.3,1.5-3.6,2.3c-1.3,0.8-2.5,1.3-3.8,1.9
		C138.6,94.6,137.3,94.8,136,94.8z"/>
	<path class="st0" d="M201.9,105c0,0.8,0,1.5,0,1.9c0,0.6-0.2,0.9-0.2,1.3c-0.2,0.4-0.4,0.8-0.6,1.1c-0.2,0.4-0.4,0.8-0.6,1.3
		c-1.5,0.4-3,0.9-4.5,1.7c-1.5,0.8-2.8,1.3-4.3,2.1c-1.5,0.8-2.8,1.3-4.3,1.9c-1.3,0.6-2.8,0.9-4.3,1.1c-0.2-0.6-0.2-0.9-0.2-1.1
		c0-0.4,0-0.6,0-0.9s0.2-0.8,0.2-1.1s0-0.9,0-1.7c1.7-0.4,3.2-1.1,4.7-1.9s3-1.7,4.5-2.5s3-1.5,4.5-2.1
		C198.5,105.4,200.2,105,201.9,105z"/>
	<path class="st0" d="M216,84.6c-1.1-1.9-2.3-3.6-3.4-5.3c-0.9-1.7-2.1-3.2-3.2-4.7c-1.1-1.5-2.5-2.8-3.8-4.2s-3-2.6-4.9-4
		c-0.8-0.6-1.7-1.1-2.5-1.5c-0.9-0.4-1.9-0.8-3-0.9c-0.8,0.6-1.7,0.9-2.3,1.3c-0.8,0.2-1.5,0.4-2.1,0.4c-1.5,0-2.6-0.6-3.8-1.5
		c-1.1-0.9-2.1-2.3-2.6-3.6c-0.8-1.5-1.3-3-1.7-4.7c-0.4-1.7-0.6-3.4-0.6-4.9c0-0.8,0-1.3,0.2-1.9c0-0.6,0.2-1.1,0.4-1.7
		c1.5,0.6,3.2,1.1,4.9,1.9c1.7,0.8,3.4,1.7,4.9,2.6c1.5,0.9,3.2,2.1,4.9,3.2c1.7,1.1,3.2,2.3,4.7,3.4c1.7,1.3,3.4,2.8,5.1,4.3
		c1.7,1.5,3.2,3.2,4.5,5.1c1.3,1.9,2.5,4,3.2,6.2c0.8,2.3,1.3,4.9,1.3,7.7C216.2,82.7,216.2,83.7,216,84.6z"/>
	<path class="st0" d="M211.1,35.7c0.8-0.9,1.7-1.7,2.6-2.3c1.1-0.6,2.1-1.1,3.2-1.7c1.1-0.6,2.3-1.1,3.2-1.7
		c0.9-0.6,1.9-1.5,2.5-2.5c-0.4-0.6-0.9-1.1-1.5-1.3c-0.6-0.2-1.3-0.4-2.1-0.4c-0.6,0-1.3,0-1.9,0.2c-0.8,0.2-1.3,0.4-1.9,0.6
		c-0.6,0.2-1.3,0.4-1.9,0.6c-0.6,0.2-1.1,0.4-1.5,0.6c-0.2-0.8-0.4-1.7-0.4-2.5c0-1.1,0.2-2.1,0.8-2.8c0.6-0.8,1.1-1.5,1.9-2.1
		c0.8-0.6,1.7-0.9,2.6-1.3c0.9-0.2,2.1-0.4,3-0.4c0.8,0,1.5,0,2.3,0.2c0.8,0.2,1.5,0.4,2.1,0.8c0.6,0.4,1.1,0.8,1.5,1.3
		c0.4,0.6,0.8,1.1,0.9,1.9c0.2,0.6,0.2,1.1,0.2,1.9c0,1.3-0.2,2.5-0.8,3.4c-0.6,0.9-1.1,1.9-1.9,2.8c-0.8,0.8-1.7,1.5-2.6,2.3
		c-0.9,0.8-2.1,1.1-3.2,1.5s-2.3,0.8-3.2,0.9s-2.1,0.4-3,0.4c-0.2,0-0.4,0-0.4,0L211.1,35.7z"/>
	<path class="st0" d="M227.2,51.4c0.2,0.6,0.2,0.9,0.4,1.5s0.2,1.1,0.2,1.7c0,0.8,0,1.3-0.2,2.1c-0.2,0.8-0.4,1.3-0.8,1.9
		c-0.4,0.6-0.8,0.9-1.1,1.3c-0.6,0.4-1.1,0.4-1.9,0.4h-0.6c0.6,2.8,1.1,5.5,1.5,8.3c0.4,2.8,0.6,5.7,0.6,8.3c0,1.9-0.2,3.8-0.4,5.7
		c-0.2,1.9-0.8,3.6-1.3,5.1c-0.6,1.7-1.3,3.2-2.3,4.5c-0.9,1.3-2.1,2.6-3.6,3.8c-1.5,1.1-3.4,2.1-5.7,2.6c-2.3,0.6-4.7,0.8-7.2,0.8
		c-2.3,0-4.3-0.2-6.6-0.6c-2.3-0.4-4.3-0.9-6.4-1.5c0.8-0.9,1.9-1.7,3-2.3c1.1-0.6,2.5-0.9,3.8-1.1c1.3-0.4,2.6-0.6,4.2-0.8
		c1.5-0.2,2.8-0.6,4-1.1c1.3-0.6,2.8-1.1,4.3-1.9s3-1.7,4.5-2.6c1.5-0.9,2.6-1.9,3.8-3c1.1-1.1,1.7-2.3,2.1-3.4
		c0.2-0.8,0.2-1.5,0.2-2.5c0-1.3-0.2-2.6-0.6-4.2c-0.4-1.5-0.8-3-1.1-4.5s-0.8-3.2-1.3-4.9c-0.4-1.7-0.8-3.2-0.9-4.9v-0.4
		c-0.2-1.5-0.4-3.2-0.8-5.1c-0.4-1.9-0.4-3.4-0.4-5.1c0-1.1,0-2.3,0.2-3.2c0.2-0.9,0.4-1.9,0.8-2.5c0.8,0.6,1.7,1.1,2.3,1.9
		c0.8,0.8,1.5,1.3,2.1,2.1c0.6,0.8,1.5,1.3,2.3,1.9C225.3,50.4,226.2,51,227.2,51.4z"/>
	<path class="st0" d="M260.6,85.7c1.1,0,2.1,0.2,2.8,0.6c0.8,0.4,1.3,0.8,1.9,1.1c0.6,0.4,0.9,0.9,1.1,1.5c0.2,0.6,0.4,1.1,0.4,1.5
		c0,0.6-0.2,1.1-0.6,1.7c-0.4,0.6-0.8,0.9-1.3,1.5c-0.6,0.6-1.1,0.8-1.9,0.9c-0.8,0.2-1.5,0.4-2.3,0.4h-2.5c-2.8,0-5.1-0.4-7.2-0.9
		c-1.9-0.6-3.6-1.5-4.9-2.6c-1.3-1.1-2.5-2.8-3.2-4.5s-1.5-4-1.9-6.6c-0.6-3-1.1-6.2-1.9-9.4c-0.6-3.2-1.1-6.6-1.7-10.2
		c-0.2-1.7-0.6-3.4-0.9-5.1c-0.4-1.7-0.8-3.6-1.1-5.3c-0.4-1.7-0.8-3.4-0.9-5.1c-0.2-1.7-0.4-3.4-0.4-4.9c0-1.3,0.2-2.6,0.4-3.8
		c0.2-1.1,0.6-2.5,1.3-3.4c1.1-0.4,2.1-0.6,3.2-0.6c1.3,0,2.6,0.2,3.8,0.8c1.1,0.6,2.1,1.3,3,2.3c0.9,0.9,1.7,1.9,2.3,3.2
		c0.6,1.1,1.1,2.5,1.5,3.6c-0.8,0-1.5-0.2-2.3-0.6c-0.6-0.4-1.3-0.8-1.9-1.1s-1.1-0.8-1.7-1.1c-0.6-0.4-1.3-0.6-1.9-0.6
		c-0.4,0-0.9,0-1.5,0.2c-0.2,0.6-0.4,1.3-0.6,2.1c-0.2,0.8-0.2,1.5-0.2,2.5c0,1.7,0.2,3.4,0.6,5.3c0.4,1.9,0.8,3.8,1.1,5.9
		c0.4,2.1,0.9,4,1.3,6c0.6,2.1,0.9,4.2,1.1,6c0,0.4,0.2,0.8,0.2,1.1c0,0.4,0.2,0.8,0.2,0.9c0.2,1.7,0.6,3.4,0.8,4.9
		c0.2,1.5,0.6,2.8,0.9,4.2c0.4,1.3,0.9,2.3,1.5,3.4c0.6,0.9,1.5,1.9,2.5,2.5c0.9,0.6,2.3,1.1,3.6,1.5c1.5,0.4,3.2,0.6,5.1,0.6h2.1
		V85.7z"/>
	<path class="st0" d="M278,115c0,0.8,0,1.5,0,1.9c0,0.6-0.2,0.9-0.2,1.3c-0.2,0.4-0.4,0.8-0.6,1.1s-0.4,0.8-0.6,1.3
		c-1.5,0.4-3,0.9-4.5,1.7c-1.5,0.8-2.8,1.3-4.3,2.1s-2.8,1.3-4.3,1.9c-1.3,0.6-2.8,0.9-4.3,1.1c-0.2-0.6-0.2-0.9-0.2-1.1
		c0-0.4,0-0.6,0-0.9s0.2-0.8,0.2-1.1c0-0.4,0-0.9,0-1.7c1.7-0.4,3.2-1.1,4.7-1.9s3-1.7,4.5-2.5c1.5-0.8,3-1.5,4.5-2.1
		C274.4,115.4,276.1,115,278,115z"/>
	<path class="st0" d="M266.6,85.7c1.5,0,3-0.2,4.5-0.6c1.5-0.4,2.6-0.8,3.4-1.3c0-0.9-0.2-1.7-0.4-2.3c-0.2-0.6-0.4-1.1-0.8-1.5
		s-0.6-0.8-0.9-1.1c-0.4-0.4-0.6-0.8-0.9-1.1c-0.4-0.4-0.6-0.9-0.8-1.5s-0.2-1.3-0.2-2.3c0-0.8,0.2-1.5,0.6-2.5
		c0.4-0.8,0.8-1.7,1.3-2.6c0.9,0.9,1.7,1.9,2.6,2.8c0.8,0.9,1.5,1.9,2.1,2.8c0.6,0.9,1.1,2.1,1.5,3.4c0.4,1.3,0.6,2.8,0.6,4.7
		c0,1.5-0.2,2.8-0.6,4.2c-0.4,1.3-1.1,2.6-2.1,3.8c-1.1,1.5-2.6,2.6-4.5,3.4c-1.7,0.6-3.6,0.9-5.5,0.9h-6.8
		c-1.5-0.4-2.5-0.9-3.2-1.9c-0.8-0.9-0.9-1.9-0.9-2.8c0-0.9,0.4-1.9,1.1-2.8c0.8-0.9,1.7-1.5,3.2-1.7H266.6z M267.2,98.8
		c1.7,0.2,3,0.6,4.2,1.1c1.1,0.6,2.1,1.3,3,2.3c0,1.5-0.2,2.8-0.6,4.2c-0.4,1.3-0.8,2.3-1.7,2.8h-0.6c-2.8,0-4.9-0.9-6-2.6
		c0-0.8,0.2-1.5,0.2-2.3c0-0.8,0-1.3,0.2-2.1c0-0.6,0.2-1.3,0.4-1.9C266.3,99.9,266.6,99.3,267.2,98.8z"/>
	<path class="st0" d="M314.8,27c0,0.8,0,1.5,0,1.9c0,0.6-0.2,0.9-0.2,1.3c-0.2,0.4-0.4,0.8-0.6,1.1c-0.2,0.4-0.4,0.8-0.6,1.3
		c-1.5,0.4-3,0.9-4.5,1.7c-1.5,0.8-2.8,1.3-4.3,2.1s-2.8,1.3-4.3,1.9c-1.3,0.6-2.8,0.9-4.3,1.1c-0.2-0.6-0.2-0.9-0.2-1.1
		c0-0.4,0-0.6,0-0.9s0.2-0.8,0.2-1.1s0-0.9,0-1.7c1.7-0.4,3.2-1.1,4.7-1.9s3-1.7,4.5-2.5c1.5-0.8,3-1.5,4.5-2.1
		C311.4,27.2,312.9,27,314.8,27z"/>
	<path class="st0" d="M308,42.1c-0.2,0.6-0.2,0.9-0.2,1.5s0,0.9,0,1.5c0,0.8,0,1.3,0.2,1.9c0.2,0.6,0.4,1.1,0.6,1.7
		c0.4,0.6,0.8,0.9,1.1,1.1c0.6,0.2,1.1,0.4,1.9,0.4c0.2,0,0.4,0,0.4,0c0.2,0,0.2,0,0.4,0c0.2-0.4,0.4-0.8,0.6-0.9
		c0.2-0.4,0.2-0.8,0.2-1.1l-0.6-4.2c0-0.4,0-0.8,0.2-1.1s0.4-0.8,0.6-1.1c0.9,0.8,1.7,1.7,2.3,2.8c0.6,1.1,0.8,2.5,0.8,3.8
		c0,0.8-0.2,1.7-0.4,2.5c-0.2,0.8-0.6,1.5-0.9,2.1c-0.4,0.6-0.9,1.1-1.5,1.5c-0.6,0.4-1.3,0.6-2.1,0.6c-0.6,0-1.1,0-1.7-0.2
		c-0.6-0.2-1.3-0.6-2.1-0.9c-1.5,1.1-2.8,1.7-4.3,1.7c-0.9,0-1.7-0.2-2.5-0.6c-0.8-0.4-1.3-0.8-1.9-1.3c-0.6-0.6-0.9-1.3-1.3-2.1
		c-0.4-0.8-0.6-1.5-0.6-2.5c0-0.8,0.2-1.7,0.6-2.5c0.4-0.9,0.9-1.7,1.7-2.5c0,0.6,0.2,1.3,0.2,2.3c0,0.9,0,1.5,0.2,2.3
		s0.4,1.3,0.8,1.9c0.4,0.6,0.9,0.8,1.5,0.8c0.6,0,1.3-0.2,1.7-0.4c0.4-0.4,0.8-0.8,0.9-1.1c0.2-0.6,0.4-1.1,0.4-1.7
		c0-0.6,0-1.3,0-1.9v-0.2c0-0.6,0-0.9,0-1.5c0-0.4,0-0.9,0.2-1.3c0.2-0.4,0.2-0.6,0.4-0.9c0.2-0.2,0.6-0.4,0.9-0.4
		C306.7,41.7,307.2,41.9,308,42.1z"/>
	<path class="st0" d="M287.2,103.1c1.5-0.9,3.4-1.9,5.1-2.6c1.9-0.8,3.8-1.5,5.7-2.1c1.9-0.8,3.8-1.3,5.7-2.1
		c1.9-0.8,3.6-1.5,5.3-2.5c1.7-0.9,3-2.1,4.3-3.4c1.3-1.3,2.3-3,3-4.9c-0.4-0.2-0.9-0.4-1.3-0.6c-0.6,0-0.9-0.2-1.5-0.2
		c-1.1,0-2.3,0.2-3.6,0.4c-1.3,0.2-2.5,0.4-3.6,0.4c-0.8,0-1.5-0.2-2.3-0.4c-0.8-0.2-1.3-0.6-1.9-1.1c-0.4-1.1-0.8-2.3-0.9-3.8
		s-0.4-2.8-0.4-4.3c0-1.3,0.2-2.6,0.4-4c0.2-1.3,0.6-2.5,1.1-3.4c0.6-0.9,1.1-1.7,1.9-2.5c0.8-0.6,1.7-0.9,3-0.9
		c0.4,0,0.9,0,1.3,0.2c0.4,0.2,0.9,0.2,1.5,0.4c1.5,0.6,2.8,1.5,4,2.6c1.1,1.1,2.1,2.6,2.8,4.3c0.8,1.7,1.3,3.4,1.7,5.3
		c0.4,1.9,0.6,3.8,0.6,5.9c0,1.3-0.2,2.6-0.4,4.2c-0.2,1.3-0.6,2.6-0.9,3.8s-0.9,2.5-1.5,3.4c-0.6,1.1-1.3,1.9-2.3,2.6
		c-0.9,0.9-2.3,1.7-3.6,2.5s-2.8,1.3-4.5,1.7s-3.4,0.8-5.3,0.9c-1.9,0.2-3.8,0.4-5.9,0.4c-1.3,0-2.6,0-4-0.2
		C289.9,103.3,288.5,103.3,287.2,103.1z"/>
	<path class="st0" d="M357.8,85.7c1.1,0,2.1,0.2,2.8,0.6c0.8,0.4,1.3,0.8,1.9,1.1c0.6,0.4,0.9,0.9,1.1,1.5c0.2,0.6,0.4,1.1,0.4,1.5
		c0,0.6-0.2,1.1-0.6,1.7c-0.4,0.6-0.8,0.9-1.3,1.5c-0.6,0.6-1.1,0.8-1.9,0.9c-0.8,0.2-1.5,0.4-2.3,0.4h-2.5c-2.8,0-5.1-0.4-7.2-0.9
		c-1.9-0.6-3.6-1.5-4.9-2.6c-1.3-1.1-2.5-2.8-3.2-4.5c-0.8-1.7-1.5-4-1.9-6.6c-0.6-3-1.1-6.2-1.9-9.4c-0.6-3.2-1.1-6.6-1.7-10.2
		c-0.2-1.7-0.6-3.4-0.9-5.1c-0.4-1.7-0.8-3.6-1.1-5.3c-0.4-1.7-0.8-3.4-0.9-5.1c-0.2-1.7-0.4-3.4-0.4-4.9c0-1.3,0.2-2.6,0.4-3.8
		c0.2-1.1,0.6-2.5,1.3-3.4c1.1-0.4,2.1-0.6,3.2-0.6c1.3,0,2.6,0.2,3.8,0.8c1.1,0.6,2.1,1.3,3,2.3c0.9,0.9,1.7,1.9,2.3,3.2
		c0.6,1.1,1.1,2.5,1.5,3.6c-0.8,0-1.5-0.2-2.3-0.6c-0.6-0.4-1.3-0.8-1.9-1.1c-0.6-0.4-1.1-0.8-1.7-1.1c-0.6-0.4-1.3-0.6-1.9-0.6
		c-0.4,0-0.9,0-1.5,0.2c-0.2,0.6-0.4,1.3-0.6,2.1c-0.2,0.8-0.2,1.5-0.2,2.5c0,1.7,0.2,3.4,0.6,5.3c0.4,1.9,0.8,3.8,1.1,5.9
		c0.4,2.1,0.9,4,1.3,6c0.6,2.1,0.9,4.2,1.1,6c0,0.4,0.2,0.8,0.2,1.1c0,0.4,0.2,0.8,0.2,0.9c0.2,1.7,0.6,3.4,0.8,4.9
		c0.2,1.5,0.6,2.8,0.9,4.2c0.4,1.3,0.9,2.3,1.5,3.4c0.6,0.9,1.5,1.9,2.5,2.5c0.9,0.6,2.3,1.1,3.6,1.5c1.5,0.4,3.2,0.6,5.1,0.6h2.1
		V85.7z"/>
	<path class="st0" d="M371.1,25.1c0,0.8,0,1.5,0,1.9c0,0.6-0.2,0.9-0.2,1.3c-0.2,0.4-0.4,0.8-0.6,1.1s-0.4,0.8-0.6,1.3
		c-1.5,0.4-3,0.9-4.5,1.7c-1.5,0.8-2.8,1.3-4.3,2.1c-1.5,0.8-2.8,1.3-4.3,1.9c-1.3,0.6-2.8,0.9-4.3,1.1c-0.2-0.6-0.2-0.9-0.2-1.1
		c0-0.4,0-0.6,0-0.9s0.2-0.8,0.2-1.1c0-0.4,0-0.9,0-1.7c1.7-0.4,3.2-1.1,4.7-1.9c1.5-0.8,3-1.7,4.5-2.5c1.5-0.8,3-1.5,4.5-2.1
		C367.7,25.5,369.4,25.1,371.1,25.1z"/>
	<path class="st0" d="M373.5,33.1c0,0.8,0,1.5,0,1.9c0,0.6-0.2,0.9-0.2,1.3c-0.2,0.4-0.4,0.8-0.6,1.1c-0.2,0.4-0.4,0.8-0.6,1.3
		c-1.5,0.4-3,0.9-4.5,1.7c-1.5,0.8-2.8,1.3-4.3,2.1s-2.8,1.3-4.3,1.9c-1.3,0.6-2.8,0.9-4.3,1.1c-0.2-0.6-0.2-0.9-0.2-1.1
		c0-0.4,0-0.6,0-0.9s0.2-0.8,0.2-1.1c0-0.4,0-0.9,0-1.7c1.7-0.4,3.2-1.1,4.7-1.9s3-1.7,4.5-2.5c1.5-0.8,3-1.5,4.5-2.1
		C370.1,33.2,371.6,33.1,373.5,33.1z"/>
	<path class="st0" d="M366.7,48.2c-0.2,0.6-0.2,0.9-0.2,1.5s0,0.9,0,1.5c0,0.8,0,1.3,0.2,1.9c0.2,0.6,0.4,1.1,0.6,1.7
		c0.4,0.6,0.8,0.9,1.1,1.1c0.6,0.2,1.1,0.4,1.9,0.4c0.2,0,0.4,0,0.4,0c0.2,0,0.2,0,0.4,0c0.2-0.4,0.4-0.8,0.6-0.9
		c0.2-0.4,0.2-0.8,0.2-1.1l-0.6-4.2c0-0.4,0-0.8,0.2-1.1s0.4-0.8,0.6-1.1c0.9,0.8,1.7,1.7,2.3,2.8c0.6,1.1,0.8,2.5,0.8,3.8
		c0,0.8-0.2,1.7-0.4,2.5c-0.2,0.8-0.6,1.5-0.9,2.1c-0.4,0.6-0.9,1.1-1.5,1.5c-0.6,0.4-1.3,0.6-2.1,0.6c-0.6,0-1.1,0-1.7-0.2
		c-0.6-0.2-1.3-0.6-2.1-0.9c-1.5,1.1-2.8,1.7-4.3,1.7c-0.9,0-1.7-0.2-2.5-0.6c-0.8-0.4-1.3-0.8-1.9-1.3c-0.6-0.6-0.9-1.3-1.3-2.1
		c-0.4-0.8-0.6-1.5-0.6-2.5c0-0.8,0.2-1.7,0.6-2.5c0.4-0.9,0.9-1.7,1.7-2.5c0,0.6,0.2,1.3,0.2,2.3c0,0.9,0,1.5,0.2,2.3
		s0.4,1.3,0.8,1.9c0.4,0.6,0.9,0.8,1.5,0.8c0.6,0,1.3-0.2,1.7-0.4c0.4-0.4,0.8-0.8,0.9-1.1c0.2-0.6,0.4-1.1,0.4-1.7
		c0-0.6,0-1.3,0-1.9v-0.2c0-0.6,0-0.9,0-1.5c0-0.4,0-0.9,0.2-1.3c0.2-0.4,0.2-0.6,0.4-0.9c0.2-0.2,0.6-0.4,0.9-0.4
		C365.4,47.8,366,48,366.7,48.2z"/>
	<path class="st0" d="M363.9,85.7c1.5,0,3-0.2,4.5-0.6c1.5-0.4,2.6-0.8,3.4-1.3c0-0.9-0.2-1.7-0.4-2.3c-0.2-0.6-0.4-1.1-0.8-1.5
		c-0.4-0.4-0.6-0.8-0.9-1.1c-0.4-0.4-0.6-0.8-0.9-1.1s-0.6-0.9-0.8-1.5c-0.2-0.6-0.2-1.3-0.2-2.3c0-0.8,0.2-1.5,0.6-2.5
		c0.4-0.8,0.8-1.7,1.3-2.6c0.9,0.9,1.7,1.9,2.6,2.8c0.8,0.9,1.5,1.9,2.1,2.8c0.6,0.9,1.1,2.1,1.5,3.4c0.4,1.3,0.6,2.8,0.6,4.7
		c0,1.5-0.2,2.8-0.6,4.2s-1.1,2.6-2.1,3.8c-1.1,1.5-2.6,2.6-4.5,3.4c-1.7,0.6-3.6,0.9-5.5,0.9h-6.8c-1.5-0.4-2.5-0.9-3.2-1.9
		c-0.8-0.9-0.9-1.9-0.9-2.8c0-0.9,0.4-1.9,1.1-2.8c0.8-0.9,1.7-1.5,3.2-1.7H363.9z M364.3,98.8c1.7,0.2,3,0.6,4.2,1.1
		c1.1,0.6,2.1,1.3,3,2.3c0,1.5-0.2,2.8-0.6,4.2c-0.2,1.3-0.8,2.3-1.7,2.8h-0.6c-2.8,0-4.9-0.9-6-2.6c0-0.8,0.2-1.5,0.2-2.3
		s0-1.3,0.2-2.1c0-0.6,0.2-1.3,0.4-1.9C363.5,99.9,363.9,99.3,364.3,98.8z"/>
	<path class="st0" d="M406.6,46.3c0,0.8,0,1.5,0,1.9c0,0.6-0.2,0.9-0.2,1.3c-0.2,0.4-0.4,0.8-0.6,1.1c-0.2,0.4-0.4,0.8-0.6,1.3
		c-1.5,0.4-3,0.9-4.5,1.7c-1.5,0.8-2.8,1.3-4.3,2.1c-1.5,0.8-2.8,1.3-4.3,1.9c-1.3,0.6-2.8,0.9-4.3,1.1c-0.2-0.6-0.2-0.9-0.2-1.1
		c0-0.4,0-0.6,0-0.9s0.2-0.8,0.2-1.1c0-0.4,0-0.9,0-1.7c1.7-0.4,3.2-1.1,4.7-1.9s3-1.7,4.5-2.5c1.5-0.8,3-1.5,4.5-2.1
		C403.2,46.6,404.9,46.3,406.6,46.3z"/>
	<path class="st0" d="M403.3,67.4h0.9c1.7,0.9,3,2.1,4.3,3.2c1.1,1.1,2.3,2.5,3,4c0.8,1.5,1.3,2.8,1.7,4.5c0.4,1.5,0.6,3.2,0.6,4.7
		c0,2.1-0.4,4.3-0.9,6.4c-0.8,2.1-1.7,4-3,5.7c-1.3,1.7-2.8,3.2-4.7,4.5c-1.9,1.3-4,2.3-6.4,2.6c-0.8,0.2-1.5,0.2-2.3,0.4
		c-0.8,0-1.5,0.2-2.5,0.2c-2.3,0-4.7-0.2-7.2-0.6c-2.5-0.4-5.1-0.8-7.6-1.1c2.1-0.9,4.5-1.7,7.2-2.5c2.6-0.8,5.1-1.5,7.7-2.3
		c2.6-0.8,4.9-1.7,7.4-2.5c2.3-0.9,4.2-2.1,5.7-3.2c1.1-0.9,2.1-1.9,2.5-2.8c0.6-0.9,0.8-1.7,0.8-2.5c0-1.1-0.4-2.3-1.1-3.4
		s-1.5-2.3-2.5-3.4c-0.9-1.1-1.7-2.5-2.5-4c-0.8-1.3-1.1-3-1.1-4.7c0-0.4,0-0.9,0-1.3C403.2,68.6,403.2,68,403.3,67.4z"/>
	<path class="st0" d="M443,102.3c0,0.8,0,1.5,0,1.9c0,0.6-0.2,0.9-0.2,1.3c-0.2,0.4-0.4,0.8-0.6,1.1c-0.2,0.4-0.4,0.8-0.6,1.3
		c-1.5,0.4-3,0.9-4.5,1.7c-1.5,0.8-2.8,1.3-4.3,2.1c-1.5,0.8-2.8,1.3-4.3,1.9c-1.3,0.6-2.8,0.9-4.3,1.1c-0.2-0.6-0.2-0.9-0.2-1.1
		c0-0.4,0-0.6,0-0.9s0.2-0.8,0.2-1.1s0-0.9,0-1.7c1.7-0.4,3.2-1.1,4.7-1.9s3-1.7,4.5-2.5c1.5-0.8,3-1.5,4.5-2.1
		C439.6,102.5,441.1,102.3,443,102.3z"/>
	<path class="st0" d="M458.3,85.9c1.3,0,2.3,0.6,2.8,1.3c0.6,0.9,0.9,1.9,0.9,3c0,0.6,0,1.1-0.2,1.7c-0.2,0.6-0.4,1.1-0.8,1.5
		s-0.8,0.8-1.1,1.1c-0.4,0.4-0.9,0.4-1.5,0.4c-1.3,0-2.5-0.4-3.6-0.8c-1.1-0.4-2.3-1.1-3.2-1.9c-0.9-0.8-1.7-1.7-2.5-2.8
		c-0.8-1.1-1.1-2.5-1.3-4c-1.7,1.3-3.8,2.5-6.2,3.4c-2.3,0.9-4.9,1.3-7.6,1.3c-1.1,0-2.3-0.2-3.4-0.4c-1.1-0.2-2.3-0.6-3.6-0.9
		c-0.8-1.5-1.5-2.8-1.9-4.2c-0.4-1.3-0.6-2.6-0.6-4c0-1.7,0.4-3.2,0.9-4.7c0.6-1.5,1.5-2.8,2.6-4c1.1-1.3,2.5-2.5,3.8-3.4
		c1.5-0.9,3-1.9,4.7-2.6s3.4-1.5,5.1-2.1c1.7-0.6,3.4-0.9,5.1-1.3c0-0.4,0.2-0.6,0.2-0.9c0-0.4,0-0.6,0-0.9c0-0.8,0-1.3-0.2-2.1
		c0-0.6-0.2-1.3-0.2-1.9c0-0.6,0-1.3,0.2-1.9c0.2-0.6,0.6-1.1,1.1-1.7c1.1,1.1,2.1,2.6,2.5,4.3c0.4,1.7,0.6,3.6,0.6,5.7
		c0,1.9,0,3.8-0.2,5.9c-0.2,2.1-0.2,3.8-0.2,5.7c0,0.6,0,1.1,0,1.7c0,0.6,0,1.1,0.2,1.5c0.2,1.1,0.4,2.1,0.9,3
		c0.4,0.9,0.9,1.7,1.7,2.3c0.8,0.6,1.5,1.1,2.3,1.5C456.4,85.4,457.3,85.7,458.3,85.9z M428.3,78.2c0.2,1.1,0.8,1.9,1.9,2.5
		c0.9,0.4,2.3,0.8,3.8,0.8c1.1,0,2.3-0.2,3.6-0.4s2.5-0.6,3.8-0.9c1.1-0.4,2.3-0.8,3.2-1.1c0.9-0.4,1.7-0.8,2.5-1.1
		c0.2-0.9,0.4-1.9,0.6-2.8c0.2-1.1,0.4-2.1,0.4-3c0-0.8,0-1.5-0.2-2.1c-0.2-0.6-0.6-1.1-0.9-1.7c-0.8,0.2-1.9,0.4-3,0.8
		s-2.5,0.6-3.8,1.1c-1.3,0.4-2.6,0.9-4,1.3c-1.3,0.6-2.6,1.1-3.6,1.7c-1.1,0.6-1.9,1.3-2.6,2.1c-0.6,0.8-0.9,1.5-0.9,2.5
		C428.3,77.8,428.3,78,428.3,78.2z"/>
	<path class="st0" d="M465.6,27.6c-0.4-0.6-0.8-0.9-0.9-1.5s-0.4-1.1-0.6-1.9c-0.2-0.6-0.2-1.3-0.4-1.9c-0.2-0.6-0.4-1.3-0.6-2.1
		c-0.2-0.8-0.4-1.5-0.8-2.3c-0.4-0.8-0.6-1.5-0.9-2.3c-0.4-0.8-0.6-1.7-0.8-2.5c-0.2-0.8-0.4-1.7-0.4-2.5c0-0.2,0-0.4,0-0.4
		s0-0.2,0-0.4c0-0.6,0.2-0.9,0.4-1.5c0.2-0.6,0.4-0.9,0.8-1.5c0.9,0.4,1.7,0.9,2.3,1.7c0.6,0.8,1.1,1.7,1.5,2.6
		c0.4,0.9,0.6,2.1,0.8,3.2c0.2,1.1,0.2,2.5,0.2,3.6c0,0.9,0,1.9,0,2.8c0,0.9-0.2,1.9-0.2,2.6C465.8,24.9,465.6,26.3,465.6,27.6z"/>
	<path class="st0" d="M468.9,30.6c-0.2,0.6-0.2,0.9-0.2,1.5s0,0.9,0,1.5c0,0.8,0,1.3,0.2,1.9c0.2,0.6,0.4,1.1,0.6,1.7
		c0.4,0.6,0.8,0.9,1.1,1.1c0.6,0.2,1.1,0.4,1.9,0.4c0.2,0,0.4,0,0.4,0s0.2,0,0.4,0c0.2-0.4,0.4-0.8,0.6-0.9s0.2-0.8,0.2-1.1
		l-0.6-4.2c0-0.4,0-0.8,0.2-1.1s0.4-0.8,0.6-1.1c0.9,0.8,1.7,1.7,2.3,2.8c0.6,1.1,0.8,2.5,0.8,3.8c0,0.8-0.2,1.7-0.4,2.5
		c-0.2,0.8-0.6,1.5-0.9,2.1c-0.4,0.6-0.9,1.1-1.5,1.5c-0.6,0.4-1.3,0.6-2.1,0.6c-0.6,0-1.1,0-1.7-0.2s-1.3-0.6-2.1-0.9
		c-1.5,1.1-2.8,1.7-4.3,1.7c-0.9,0-1.7-0.2-2.5-0.6c-0.8-0.4-1.3-0.8-1.9-1.3c-0.6-0.6-0.9-1.3-1.3-2.1c-0.4-0.8-0.6-1.5-0.6-2.5
		c0-0.8,0.2-1.7,0.6-2.5c0.4-0.9,0.9-1.7,1.7-2.5c0,0.6,0.2,1.3,0.2,2.3c0,0.8,0,1.5,0.2,2.3s0.4,1.3,0.8,1.9
		c0.4,0.6,0.9,0.8,1.5,0.8c0.8,0,1.3-0.2,1.7-0.4c0.4-0.4,0.8-0.8,0.9-1.1c0.2-0.6,0.4-1.1,0.4-1.7s0-1.3,0-1.9v-0.2
		c0-0.6,0-0.9,0-1.5c0-0.4,0-0.9,0.2-1.3c0.2-0.4,0.2-0.6,0.4-0.9c0.2-0.2,0.6-0.4,0.9-0.4C467.7,30,468.1,30.2,468.9,30.6z"/>
	<path class="st0" d="M482.5,84.6c0.6,0,1.1,0.2,1.5,0.4c0.4,0.2,0.8,0.6,1.1,0.9c0.2,0.4,0.4,0.9,0.6,1.3s0.2,1.1,0.2,1.7
		c0,0.6,0,1.3-0.2,1.9c-0.2,0.6-0.4,1.1-0.8,1.7c-0.4,0.6-0.6,0.9-1.1,1.1c-0.4,0.4-0.9,0.4-1.5,0.4c-1.3-0.2-2.5-0.6-3.6-0.9
		c-1.1-0.6-2.3-0.9-3.2-1.7c-0.9-0.6-1.9-1.3-2.6-2.1c-0.8-0.8-1.3-1.7-1.9-2.5c-0.4,1.3-0.9,2.6-1.9,3.6c-0.8,0.9-1.7,1.9-2.6,2.6
		c-0.9,0.8-2.1,1.1-3.4,1.5c-1.1,0.4-2.5,0.6-3.6,0.6c-0.2,0-0.4,0-0.6,0s-0.4,0-0.6,0c-0.6,0-0.9-0.2-1.3-0.4
		c-0.4-0.4-0.8-0.6-0.9-1.1c-0.2-0.4-0.4-0.9-0.6-1.5c-0.2-0.6-0.2-1.1-0.2-1.7s0-1.1,0.2-1.7c0.2-0.6,0.4-0.9,0.6-1.5
		c0.2-0.4,0.6-0.8,0.9-0.9c0.4-0.2,0.8-0.4,1.3-0.4c0.4,0,0.8,0.2,1.1,0.2c0.4,0,0.8,0,1.1,0c0.9,0,2.1-0.2,3-0.4
		c0.9-0.2,1.9-0.6,2.6-1.1c0.8-0.6,1.5-1.1,1.9-1.9c0.6-0.8,0.9-1.7,1.1-2.6c0.2-1.1,0.2-2.1,0.2-3.2c0-1.7-0.2-3.6-0.6-5.3
		c-0.4-1.9-0.8-3.6-1.1-5.5c-0.4-1.9-0.9-3.6-1.3-5.5c-0.4-1.9-0.6-3.8-0.8-5.7c0.2-3,0.6-4.5,0.6-4.7c0.2,0,0.6-0.4,0.9-0.8
		c0.6-0.4,1.3,0.4,2.5,2.6c1.1,2.1,1.5,3.8,0.9,4.7c-0.4,0.9-0.6,2.6-0.2,4.9c0.2,2.3,0.6,4.3,0.9,6.6c0.4,2.3,0.8,4.3,1.3,6.6
		c0.6,2.1,1.1,4.2,1.9,6.2c0.4,0.4,0.9,0.8,1.5,1.1c0.6,0.4,1.1,0.8,1.9,1.1c0.8,0.4,1.5,0.6,2.3,0.9S481.7,84.6,482.5,84.6z"/>
	<path class="st0" d="M482.6,94.2c-0.6,0-1.1-0.2-1.7-0.4c-0.6-0.4-0.9-0.8-1.1-1.1c-0.4-0.4-0.6-0.9-0.8-1.5
		c-0.2-0.6-0.2-1.1-0.2-1.7c0-0.6,0-1.1,0.2-1.7c0.2-0.6,0.4-1.1,0.8-1.5c0.4-0.4,0.8-0.8,1.1-1.1c0.6-0.4,0.9-0.4,1.7-0.4
		c0.4,0,0.8,0.2,1.3,0.2s0.8,0,1.3,0c1.1,0,2.1-0.2,3-0.4c0.9-0.4,1.7-0.8,2.5-1.3c-0.4-1.5-0.9-2.8-1.7-4.3
		c-0.8-1.5-1.7-2.8-2.5-4.2c-0.8-1.5-1.5-2.8-2.3-4.3c-0.6-1.5-0.9-3-0.9-4.7c0-0.8,0.2-1.5,0.4-2.5c0.2-0.8,0.6-1.7,0.9-2.6
		c1.1,1.5,2.5,3,3.6,4.7c1.1,1.7,2.1,3.6,3,5.7c0.9,2.1,1.5,4.2,2.1,6.2c0.6,2.1,0.8,4.3,0.8,6.6c0,1.5-0.2,2.8-0.4,4.3
		c-0.2,1.3-0.6,2.8-1.1,4.3c-1.1,0.8-2.3,1.3-3.4,1.7c-1.1,0.4-2.5,0.6-3.8,0.6c-0.4,0-0.8,0-1.3,0C483.6,94.8,483,94.4,482.6,94.2z
		"/>
	<path class="st0" d="M528,85.7c1.1,0,2.1,0.2,2.8,0.6c0.8,0.4,1.3,0.8,1.9,1.1c0.6,0.4,0.9,0.9,1.1,1.5c0.2,0.6,0.4,1.1,0.4,1.5
		c0,0.6-0.2,1.1-0.6,1.7c-0.4,0.6-0.8,0.9-1.3,1.5c-0.6,0.6-1.1,0.8-1.9,0.9c-0.8,0.2-1.5,0.4-2.3,0.4h-2.5c-2.8,0-5.1-0.4-7.2-0.9
		c-1.9-0.6-3.6-1.5-4.9-2.6c-1.3-1.1-2.5-2.8-3.2-4.5c-0.8-1.9-1.5-4-1.9-6.6c-0.6-3-1.1-6.2-1.9-9.4c-0.6-3.2-1.1-6.6-1.7-10.2
		c-0.2-1.7-0.6-3.4-0.9-5.1c-0.4-1.7-0.8-3.6-1.1-5.3c-0.4-1.7-0.8-3.4-0.9-5.1c-0.2-1.7-0.4-3.4-0.4-4.9c0-1.3,0.2-2.6,0.4-3.8
		s0.6-2.5,1.3-3.4c1.1-0.4,2.1-0.6,3.2-0.6c1.3,0,2.6,0.2,3.8,0.8c1.1,0.6,2.1,1.3,3,2.3s1.7,1.9,2.3,3.2c0.6,1.1,1.1,2.5,1.5,3.6
		c-0.8,0-1.5-0.2-2.3-0.6c-0.6-0.4-1.3-0.8-1.9-1.1s-1.1-0.8-1.7-1.1s-1.3-0.6-1.9-0.6c-0.4,0-0.9,0-1.5,0.2
		c-0.2,0.6-0.4,1.3-0.6,2.1s-0.2,1.5-0.2,2.5c0,1.7,0.2,3.4,0.6,5.3c0.4,1.9,0.8,3.8,1.1,5.9c0.4,2.1,0.9,4,1.3,6
		c0.4,2.1,0.9,4.2,1.1,6c0,0.4,0.2,0.8,0.2,1.1c0,0.4,0.2,0.8,0.2,0.9c0.2,1.7,0.6,3.4,0.8,4.9c0.2,1.5,0.6,2.8,0.9,4.2
		c0.4,1.3,0.9,2.3,1.5,3.4c0.6,0.9,1.5,1.9,2.5,2.5c0.9,0.6,2.3,1.1,3.6,1.5c1.5,0.4,3.2,0.6,5.1,0.6h2.1V85.7z"/>
	<path class="st0" d="M545.1,115c0,0.8,0,1.5,0,1.9c0,0.6-0.2,0.9-0.2,1.3c-0.2,0.4-0.4,0.8-0.6,1.1s-0.4,0.8-0.6,1.3
		c-1.5,0.4-3,0.9-4.5,1.7c-1.5,0.8-2.8,1.3-4.3,2.1c-1.5,0.8-2.8,1.3-4.3,1.9c-1.3,0.6-2.8,0.9-4.3,1.1c-0.2-0.6-0.2-0.9-0.2-1.1
		c0-0.4,0-0.6,0-0.9s0.2-0.8,0.2-1.1c0-0.4,0-0.9,0-1.7c1.7-0.4,3.2-1.1,4.7-1.9c1.5-0.8,3-1.7,4.5-2.5c1.5-0.8,3-1.5,4.5-2.1
		C541.7,115.4,543.4,115,545.1,115z"/>
	<path class="st0" d="M534,85.7c1.5,0,3-0.2,4.5-0.6c1.5-0.4,2.6-0.8,3.4-1.3c0-0.9-0.2-1.7-0.4-2.3c-0.2-0.6-0.4-1.1-0.8-1.5
		c-0.4-0.4-0.6-0.8-0.9-1.1c-0.4-0.4-0.6-0.8-0.9-1.1c-0.4-0.4-0.6-0.9-0.8-1.5C538,75.7,538,75,538,74c0-0.8,0.2-1.5,0.6-2.5
		c0.4-0.8,0.8-1.7,1.3-2.6c0.9,0.9,1.7,1.9,2.6,2.8c0.8,0.9,1.5,1.9,2.1,2.8c0.6,0.9,1.1,2.1,1.5,3.4c0.4,1.3,0.6,2.8,0.6,4.7
		c0,1.5-0.2,2.8-0.6,4.2s-1.1,2.6-2.1,3.8c-1.1,1.5-2.6,2.6-4.5,3.4c-1.7,0.6-3.6,0.9-5.5,0.9h-6.8c-1.5-0.4-2.5-0.9-3.2-1.9
		c-0.8-0.9-0.9-1.9-0.9-2.8c0-0.9,0.4-1.9,1.1-2.8c0.8-0.9,1.7-1.5,3.2-1.7H534z M534.4,98.8c1.7,0.2,3,0.6,4.2,1.1
		c1.1,0.6,2.1,1.3,3,2.3c0,1.5-0.2,2.8-0.6,4.2c-0.4,1.3-0.8,2.3-1.7,2.8h-0.6c-2.8,0-4.9-0.9-6-2.6c0-0.8,0.2-1.5,0.2-2.3
		c0-0.8,0-1.3,0.2-2.1c0-0.6,0.2-1.3,0.4-1.9C533.6,99.9,533.8,99.3,534.4,98.8z"/>
	<path class="st0" d="M572.5,46.6c0.4-0.9,0.9-1.7,1.7-2.3c0.8-0.6,1.5-0.9,2.5-1.3c0.9-0.4,1.7-0.9,2.5-1.3
		c0.8-0.6,1.3-1.1,1.9-2.1c-1.1-0.8-1.9-1.7-2.5-3c-0.6-1.1-0.8-2.6-0.8-4s0.2-2.8,0.6-4.2c0.4-1.3,0.9-2.6,1.9-3.8
		c0.9-1.1,1.7-2.1,2.6-2.8c0.9-0.8,2.1-1.1,3.2-1.1c0.9,0,1.7,0.2,2.6,0.8c0.9,0.6,1.9,1.3,2.8,2.3c0.2,0.8,0.4,1.5,0.4,2.1
		c0,0.8,0.2,1.3,0.2,2.1c0,2.5-0.6,4.7-1.7,6.8c-1.1,2.1-2.5,3.8-4.2,5.3c-0.9,0.9-1.9,1.7-3.2,2.5c-1.1,0.8-2.3,1.5-3.6,2.1
		c-1.1,0.6-2.5,1.1-3.6,1.5C574.8,46.5,573.5,46.6,572.5,46.6z M587.8,30.4c0-0.4-0.2-0.8-0.4-1.1c-0.2-0.4-0.6-0.6-0.9-0.8
		s-0.8-0.4-1.1-0.6c-0.4-0.2-0.9-0.2-1.3-0.2s-0.6,0-0.9,0c-0.2,0-0.6,0.2-0.8,0.4c-0.6,0.4-0.9,0.6-1.1,0.9
		c-0.2,0.4-0.4,0.6-0.4,0.9s0.2,0.8,0.4,1.1c0.2,0.4,0.6,0.8,0.9,0.9c0.4,0.4,0.9,0.6,1.3,0.8c0.6,0.2,0.9,0.2,1.5,0.2
		c0.6,0,1.1-0.2,1.7-0.6c0.6-0.4,0.8-0.9,0.8-1.9v-0.2H587.8z"/>
	<path class="st0" d="M622.5,85.7c0.6,0,1.1,0.2,1.7,0.6c0.6,0.4,0.9,0.8,1.3,1.1c0.4,0.4,0.6,0.9,0.8,1.5c0.2,0.6,0.4,0.9,0.4,1.3
		s-0.2,0.9-0.4,1.5c-0.2,0.6-0.6,0.9-0.9,1.5c-0.4,0.6-0.8,0.9-1.3,1.1c-0.6,0.4-1.1,0.4-1.5,0.4H622c-1.1,0-2.3-0.2-3.2-0.8
		c-1.1-0.4-2.1-1.1-2.8-1.9c-0.9-0.8-1.5-1.7-2.1-2.8c-0.6-1.1-0.9-2.3-1.3-3.4c-1.9,0.6-4.2,1.1-6.4,1.7c-2.3,0.6-4.7,1.3-7.4,1.9
		c-2.5,0.6-5.1,1.1-7.7,1.5c-2.6,0.4-5.3,0.6-7.9,0.6c-0.9,0-1.9,0-2.6,0c-0.9,0-1.7-0.2-2.6-0.2c-1.5-0.2-3-0.6-4.5-0.9
		c-1.5-0.4-3-0.9-4.5-1.7c-1.5-0.6-2.8-1.3-4.2-2.3c-1.3-0.9-2.3-1.7-3.2-2.6c-1.3-1.5-2.3-3.4-3-5.7c-0.8-2.3-0.9-4.5-0.9-7
		c0-1.5,0.2-3,0.4-4.5c0.2-1.5,0.6-2.8,1.1-4.3c0.6-1.3,1.1-2.6,1.9-3.8c0.8-1.1,1.7-2.3,2.6-3.2h0.2c0.4,0,0.6,0.2,0.6,0.4
		c-0.4,0.9-0.8,1.9-1.3,2.8c-0.4,0.9-0.9,2.1-1.3,3c-0.4,1.1-0.8,2.1-1.1,3.2c-0.4,1.1-0.4,2.3-0.4,3.4c0,0.9,0.2,1.9,0.4,2.8
		c0.2,0.9,0.8,1.9,1.5,2.6c1.1,1.5,2.5,2.6,4.2,3.8c1.7,0.9,3.6,1.9,5.5,2.5c2.1,0.6,4.2,1.1,6.6,1.3c2.3,0.4,4.7,0.4,7.2,0.4
		c2.6,0,5.3-0.2,7.9-0.4c2.6-0.2,5.3-0.8,7.7-1.3c2.5-0.6,4.9-1.1,7-2.1c2.3-0.8,4.2-1.7,5.9-2.6c0.4,0.6,0.6,1.1,0.8,1.7
		c0,0.6,0.2,1.1,0.2,1.7c0,0.6,0,1.1,0,1.7c0,0.6,0.2,1.1,0.4,1.7c0.6,1.1,1.3,1.9,2.6,2.5c1.1,0.6,2.5,0.8,3.8,0.8h0.9V85.7z
		 M596.7,68.2c-0.4,0-0.6,0.2-0.9,0.2c-0.2,0-0.6,0-0.8,0c-0.8,0-1.5-0.2-2.3-0.4c-0.8-0.2-1.3-0.6-1.9-0.9s-1.3-0.8-1.9-1.1
		c-0.8-0.4-1.5-0.6-2.3-0.8c-0.6,0-1.1,0.4-1.3,0.8c-0.4,0.4-0.6,0.9-0.8,1.3c-0.2,0.6-0.4,0.9-0.8,1.5c-0.2,0.4-0.8,0.8-1.3,0.9
		c-0.9,0-1.7-0.2-2.5-0.4c-0.8-0.2-1.3-0.4-2.1-0.8c-0.6-0.4-1.1-0.6-1.7-0.9c-0.6-0.4-1.1-0.8-1.7-0.9v-0.2c0-1.5,0.2-2.6,0.4-3.8
		c0.2-1.1,0.6-2.3,0.8-3.4l0.2-0.4c0.2,0,0.4,0,0.4,0s0.2,0,0.4,0c0.6,0,1.3,0.2,2.1,0.4c0.8,0.2,1.3,0.4,2.1,0.8
		c0.8,0.4,1.3,0.6,2.1,0.9c0.8,0.4,1.3,0.6,1.9,0.8c0.6,0,1.1-0.2,1.5-0.6s0.8-0.6,0.9-1.1c0.2-0.4,0.4-0.9,0.6-1.3
		c0.2-0.6,0.4-0.9,0.6-1.5c1.3,0,2.6,0.2,3.8,0.6c1.1,0.4,2.1,0.8,3,1.3c0.8,0.6,1.5,1.3,1.9,2.3c0.6,0.9,0.8,1.9,0.8,3
		C597.6,65.2,597.2,66.5,596.7,68.2z"/>
	<path class="st0" d="M632.7,62.5c0.8-0.9,1.7-1.7,2.6-2.3c1.1-0.6,2.1-1.1,3.2-1.7c1.1-0.6,2.3-1.1,3.2-1.7
		c0.9-0.6,1.9-1.5,2.5-2.5c-0.4-0.6-0.9-1.1-1.5-1.3c-0.6-0.2-1.3-0.4-2.1-0.4c-0.6,0-1.3,0-1.9,0.2c-0.8,0.2-1.3,0.4-1.9,0.6
		c-0.6,0.2-1.3,0.4-1.9,0.6s-1.1,0.4-1.5,0.6c-0.2-0.8-0.4-1.7-0.4-2.5c0-1.1,0.2-2.1,0.8-2.8c0.6-0.8,1.1-1.5,1.9-2.1
		c0.8-0.6,1.7-0.9,2.6-1.3c0.9-0.2,2.1-0.4,3-0.4c0.8,0,1.5,0,2.3,0.2s1.5,0.4,2.1,0.8c0.6,0.4,1.1,0.8,1.5,1.3s0.8,1.1,0.9,1.9
		c0.2,0.6,0.2,1.1,0.2,1.9c0,1.3-0.2,2.5-0.8,3.4c-0.6,0.9-1.1,1.9-1.9,2.8c-0.8,0.8-1.7,1.5-2.6,2.3c-0.9,0.8-2.1,1.1-3.2,1.5
		s-2.3,0.8-3.2,0.9c-0.9,0.2-2.1,0.4-3,0.4c-0.2,0-0.4,0-0.4,0S632.9,62.5,632.7,62.5z"/>
	<path class="st0" d="M662,85.7c1.3,0.4,2.3,1.1,3,1.9c0.6,0.8,0.9,1.7,0.9,2.6c0,0.9-0.4,1.9-0.9,2.6c-0.6,0.9-1.7,1.5-2.8,1.9h-3
		c-1.3,0-2.8-0.2-4.2-0.6c-1.5-0.4-2.8-0.9-4.2-1.7c-1.3-0.8-2.5-1.7-3.4-2.6c-0.9-0.9-1.7-2.1-2.3-3.4c-1.5,1.1-3.2,2.1-4.9,3
		c-1.7,0.9-3.6,1.7-5.7,2.5c-1.9,0.8-4,1.3-6,1.9c-2.1,0.6-4.2,0.8-6.2,0.9h-0.8c-1.1-0.4-1.9-1.1-2.3-1.9c-0.4-0.8-0.8-1.7-0.8-2.6
		c0-0.9,0.2-1.9,0.8-2.8c0.6-0.9,1.3-1.5,2.3-1.7h0.9c2.5-0.2,4.7-0.6,7-1.1c2.3-0.6,4.5-1.3,6.6-2.1c2.1-0.8,4.2-1.7,6-2.6
		c1.9-0.9,3.6-1.9,5.1-2.8c0.2,1.5,0.6,2.6,1.3,3.8c0.8,1.1,1.5,2.1,2.6,2.8c1.1,0.8,2.3,1.3,3.6,1.7s2.8,0.6,4.2,0.6h3V85.7z
		 M652.4,110.1c-0.4,0-0.6,0.2-0.9,0.2c-0.2,0-0.6,0-0.8,0c-0.8,0-1.5-0.2-2.3-0.4c-0.8-0.2-1.3-0.6-1.9-0.9
		c-0.6-0.4-1.3-0.8-1.9-1.1c-0.8-0.4-1.5-0.6-2.3-0.8c-0.6,0-1.1,0.4-1.3,0.8c-0.4,0.4-0.6,0.9-0.8,1.3c-0.2,0.6-0.4,0.9-0.8,1.5
		c-0.2,0.4-0.8,0.8-1.3,0.9c-0.9,0-1.7-0.2-2.5-0.4c-0.8-0.2-1.3-0.4-2.1-0.8c-0.6-0.4-1.1-0.6-1.7-0.9c-0.6-0.4-1.1-0.8-1.7-0.9
		v-0.2c0-1.5,0.2-2.6,0.4-3.8c0.2-1.1,0.6-2.3,0.8-3.4l0.2-0.4c0.2,0,0.4,0,0.4,0c0.2,0,0.2,0,0.4,0c0.6,0,1.3,0.2,2.1,0.4
		c0.8,0.2,1.3,0.4,2.1,0.8s1.3,0.6,2.1,0.9c0.8,0.4,1.3,0.6,1.9,0.8c0.6,0,1.1-0.2,1.5-0.6c0.4-0.4,0.8-0.6,0.9-1.1
		c0.2-0.4,0.4-0.9,0.6-1.3c0.2-0.6,0.4-0.9,0.6-1.5c1.3,0,2.6,0.2,3.8,0.6s2.1,0.8,3,1.3c0.9,0.6,1.5,1.3,1.9,2.3
		c0.6,0.9,0.8,1.9,0.8,3C653.5,106.9,653.1,108.4,652.4,110.1z"/>
	<path class="st0" d="M706.2,101.6c0,0.8,0,1.5,0,1.9c0,0.6-0.2,0.9-0.2,1.3c-0.2,0.4-0.4,0.8-0.6,1.1c-0.2,0.4-0.4,0.8-0.6,1.3
		c-1.5,0.4-3,0.9-4.5,1.7c-1.5,0.8-2.8,1.3-4.3,2.1c-1.5,0.8-2.8,1.3-4.3,1.9c-1.3,0.6-2.8,0.9-4.3,1.1c-0.2-0.6-0.2-0.9-0.2-1.1
		c0-0.4,0-0.6,0-0.9s0.2-0.8,0.2-1.1s0-0.9,0-1.7c1.7-0.4,3.2-1.1,4.7-1.9c1.5-0.8,3-1.7,4.5-2.5c1.5-0.8,3-1.5,4.5-2.1
		C702.8,102,704.5,101.6,706.2,101.6z"/>
	<path class="st0" d="M661.2,94.8c-1.1-0.4-1.9-0.9-2.5-1.9c-0.6-0.9-0.8-1.7-0.8-2.6c0-0.9,0.2-1.9,0.8-2.6
		c0.6-0.9,1.3-1.5,2.5-1.9c1.9,0,3.4-0.6,4.9-1.3c1.5-0.9,2.8-2.1,4-3.2c1.1-1.1,2.5-2.6,3.6-4.2c1.1-1.5,2.3-2.8,3.2-4
		c0.6,0.8,1.1,1.7,1.7,2.5c0.6,0.9,0.9,1.7,1.5,2.5c0.6,0.8,1.3,1.5,2.1,2.1c0.8,0.6,1.9,0.9,3,0.9c0.8-0.8,1.5-1.7,2.3-2.6
		c0.8-0.9,1.5-2.1,2.3-3c0.8-1.1,1.5-2.1,2.3-3.2c0.8-1.1,1.7-2.1,2.6-3c0.9-0.9,1.9-1.7,3-2.3c1.1-0.6,2.5-1.1,3.8-1.3
		c0.6-0.2,1.1-0.2,1.7-0.2s1.1,0,1.7,0c1.1,0,2.3,0.2,3.2,0.4c0.9,0.2,2.1,0.4,3,0.8s1.7,0.6,2.6,0.9c0.8,0.4,1.5,0.8,2.3,1.1
		c0.8,0.4,1.3,0.9,2.1,1.5c0.6,0.6,1.3,1.3,1.9,2.3c0.6,1.1,1.1,2.3,1.5,3.4c0.4,1.1,0.6,2.5,0.6,3.8c0,1.9-0.4,3.6-1.3,5.1
		c-0.6,0.8-1.3,1.5-2.5,2.3c-1.1,0.8-2.5,1.3-4,1.9c-1.5,0.6-3.2,0.9-5.1,1.5c-1.9,0.4-3.8,0.8-5.7,0.9s-3.8,0.6-5.9,0.6
		c-1.9,0.2-3.8,0.2-5.5,0.2c-1.1,0-2.1,0-2.8,0c-0.9,0-1.7-0.2-2.5-0.2c-0.6,0.4-1.1,0.9-1.5,1.7s-0.8,1.5-0.9,2.3s-0.4,1.7-0.6,2.6
		c-0.2,0.9-0.4,1.7-0.6,2.6c-0.2,0.9-0.4,1.7-0.8,2.5c-0.4,0.8-0.8,1.5-1.1,2.1c0-0.2,0-0.6,0-0.8c0-0.6,0-1.3,0.2-2.1
		c0.2-0.9,0.4-1.7,0.4-2.8s0.4-2.1,0.4-3c0-0.9,0.2-2.1,0.2-3c0-0.9-0.2-1.9-0.4-2.5c-0.9-1.1-2.1-2.3-3.2-3.2
		c-1.1-0.9-2.1-2.1-3-3.4c-0.9,0.8-1.9,1.5-2.6,2.6c-0.9,1.1-1.7,2.1-2.6,3.2c-0.9,1.1-1.9,2.1-3,2.8c-1.1,0.8-2.5,1.3-3.8,1.7
		c-0.2,0-0.4,0.2-0.6,0.2c-0.2,0-0.4,0-0.6,0h-1.5V94.8z M690.9,82.1c0.4,0,0.8,0.2,1.3,0.2c0.6,0,1.1,0,1.7,0c1.1,0,2.3,0,3.6-0.2
		c1.3-0.2,2.8-0.2,4.2-0.4c1.5-0.2,2.8-0.4,4.3-0.8c1.5-0.4,2.8-0.6,4-0.9c1.1-0.4,2.3-0.8,3.2-1.3c0.9-0.4,1.5-0.9,1.9-1.5
		c-1.1-1.1-2.6-2.1-4.5-2.6c-1.7-0.6-3.6-0.9-5.7-0.9c-1.5,0-3,0.2-4.5,0.6c-1.5,0.4-3,0.9-4.2,1.5c-1.1,0.6-2.5,1.5-3.4,2.6
		C692,79.5,691.3,80.8,690.9,82.1z M696,50c1.7,0.2,3,0.6,4.2,1.1c1.1,0.6,2.1,1.3,3,2.3c0,1.5-0.2,2.8-0.6,4.2
		c-0.2,1.3-0.8,2.3-1.7,2.8h-0.6c-2.8,0-4.9-0.9-6-2.6c0-0.8,0.2-1.5,0.2-2.3c0-0.8,0-1.3,0.2-2.1c0-0.6,0.2-1.3,0.4-1.9
		C695.2,51.2,695.4,50.6,696,50z"/>
	<path class="st0" d="M752.1,46.3c0,0.8,0,1.5,0,1.9c0,0.6-0.2,0.9-0.2,1.3c-0.2,0.4-0.4,0.8-0.6,1.1c-0.2,0.4-0.4,0.8-0.6,1.3
		c-1.5,0.4-3,0.9-4.5,1.7c-1.5,0.8-2.8,1.3-4.3,2.1c-1.5,0.8-2.8,1.3-4.3,1.9c-1.3,0.6-2.8,0.9-4.3,1.1c-0.2-0.6-0.2-0.9-0.2-1.1
		c0-0.4,0-0.6,0-0.9s0.2-0.8,0.2-1.1c0-0.4,0-0.9,0-1.7c1.7-0.4,3.2-1.1,4.7-1.9c1.5-0.8,3-1.7,4.5-2.5c1.5-0.8,3-1.5,4.5-2.1
		C748.5,46.6,750.2,46.3,752.1,46.3z"/>
	<path class="st0" d="M748.7,67.4h0.9c1.7,0.9,3,2.1,4.3,3.2c1.1,1.1,2.3,2.5,3,4c0.8,1.3,1.3,2.8,1.7,4.5c0.4,1.5,0.6,3.2,0.6,4.7
		c0,2.1-0.4,4.3-0.9,6.4c-0.8,2.1-1.7,4-3,5.7c-1.3,1.7-2.8,3.2-4.7,4.5c-1.9,1.3-4,2.3-6.4,2.6c-0.8,0.2-1.5,0.2-2.3,0.4
		c-0.8,0-1.5,0.2-2.5,0.2c-2.3,0-4.7-0.2-7.2-0.6c-2.5-0.4-5.1-0.8-7.6-1.1c2.1-0.9,4.5-1.7,7.2-2.5s5.1-1.5,7.7-2.3
		c2.6-0.8,4.9-1.7,7.4-2.5c2.3-0.9,4.2-2.1,5.7-3.2c1.1-0.9,2.1-1.9,2.5-2.8c0.6-0.9,0.8-1.7,0.8-2.5c0-1.1-0.4-2.3-1.1-3.4
		c-0.8-1.1-1.5-2.3-2.5-3.4s-1.7-2.5-2.5-4c-0.8-1.5-1.1-3-1.1-4.7c0-0.4,0-0.9,0-1.3C748.5,68.6,748.7,68,748.7,67.4z"/>
</g>
<g>
	<g>
		<g>
			<path class="st1" d="M271.6,297.8c-0.9,1.7-1.7,2.6-2.8,2.9s-1.9,0.2-2.8-0.5c-0.5-0.3-1-1.2-1.4-2.4c-0.2-0.7-0.3-2.9-0.5-6.5
				c0-0.7,0-2.2,0-4.3l0.2-7.9c0-0.7,0.2-1.5,0.7-2.6c0.7-1.5,0.9-2.4,0.9-2.4h0.2c0,0,0,0,0.2,0c0.2,0.2,0.3,0.2,0.5,0.3
				c-0.5,4.5-0.7,9.5-0.5,15.1c0,0.9,0.2,1.9,0.5,3.4c0.3,1.4,1.2,2.2,2.2,2.4c0.2,0,0.3,0.2,0.5,0.2c0.7,0,1.4-0.5,2.1-1.5
				c0.2-0.3,0.3-0.7,0.5-1.4c0.2-0.2,0.2-0.2,0.3-0.5c0.2,0,0.3,0.3,0.5,0.7C273,293.9,272.6,295.8,271.6,297.8z M268.3,281.9v-0.3
				l3.3-3.1l0.3,0.2c0.7,0.7,1.7,1.5,3.1,2.9c0,0.2-0.2,0.7-0.7,1.2l-2.2,2.1c-0.3,0.2-0.7,0.2-1-0.2
				C269.5,283.6,268.7,282.7,268.3,281.9z"/>
			<path class="st1" d="M309.4,261.6l1.4-0.9c0.2,0,0.3,0,0.5,0.3c-0.2,0.2-0.5,0.7-1.4,1.7c-0.5,0.7-1,1.2-1.5,1.5l-7.6,3.4
				c-1.5,0.7-2.2,1-2.4,1.2c-0.9,0.5-1.4,1.4-1.7,2.2c-0.2,2.6-0.2,5-0.3,7.6c-0.2,3.1-0.5,5.5-1.2,7.4c-0.9,1.7-1.4,2.6-1.4,2.6
				c-0.7,0.9-1.4,1.4-2.2,1.5c-1.5,0.3-2.8,1.5-3.8,3.3c-0.9,1.5-1.5,3.1-2.4,4.5c-0.3,0.3-0.5,0.9-0.9,1.2
				c-0.3,0.5-0.7,0.9-1.2,0.9c-1.5,0.2-4,0.3-7,0.7c-0.2,0-0.3-0.2-0.5-0.3c0.2-0.3,0.3-0.5,0.9-0.7c0.5-0.3,0.9-0.5,1-0.5
				c1.7-0.9,3.3-1.5,5-2.4c1.9-1,3.3-2.4,4-4c0.7-1.2,1.4-2.4,2.1-3.6c0.9-1.4,1.7-2.4,2.9-2.8c1.4-0.3,2.4-0.9,2.8-1.7
				c0.3-0.7,0.3-1.7,0.3-2.9v-7c0-2.2,0.9-4.5,2.6-6.7c0.9-1,2.6-2.1,5.3-3.3L309.4,261.6z"/>
			<path class="st1" d="M339.2,276.7l0.3-0.2c0.7-0.5,1.5-1.4,2.6-2.8c1-1.4,1.9-2.2,2.4-2.8c1-0.9,2.1-1.2,3.1-1.2
				c0.2,0,0.5,0,0.7,0c0.3,0.2,0.9,0.3,1.5,0.9c0.3,0.5,0.3,1,0.3,1.5c0,0.7-0.3,1.7-1,3.1c-2.2,4.6-5.7,6.9-10.3,6.9
				c-1.9,0-3.4-0.9-4.3-2.6c0-0.2-0.2-0.2-0.3-0.3c-1.2,0-2.2,0.5-3.3,1.4c-1,0.9-1.7,1.7-1.9,2.8c-0.2,0.5,0,0.9,0.2,1.2
				c0.2,0.3,0.9,0.5,1.5,0.9c0.7,0.2,1.2,0.3,1.5,0.7c0.9,0.9,1.2,2.1,1.2,3.4c0,0.9-0.2,1.9-0.5,3.3c-0.7,2.9-1.9,5.7-3.6,8.1
				c-1.9,2.6-4.3,4.5-6.9,5.3c-0.9,0.3-1.5,0.3-2.4,0.3c-2.1,0-3.6-0.7-4.8-2.1c-1.5-1.7-2.2-4.3-2.2-7.4c0-3.6,1-8.1,3.3-13.9
				c0,0,0.2-0.3,0.3-0.9c0.2-0.3,0.3-0.5,0.7-0.3c0.2,0.2,0.2,0.3,0.2,0.9c-0.9,3.1-1.4,4.8-1.5,5.2c-0.5,2.1-0.9,3.8-0.9,5.3
				c0,2.1,0.5,3.8,1.4,5.5c1,1.5,2.8,2.2,4.6,2.2c1.7,0,3.4-0.5,5.2-1.5c1.7-1,3.1-2.2,4-3.8c0.9-1.4,1.4-2.6,1.2-3.4
				c-0.3-0.5-0.9-0.9-1.7-1.2c-1-0.3-1.7-0.5-1.9-0.9c-0.9-0.7-1.4-1.7-1.4-3.3c0-0.2,0.2-1.4,0.5-3.8c0.3-1.7,1.4-3.3,2.9-4.8
				c1.4-1.4,2.9-2.6,4.6-3.3c1-0.3,1.7-0.3,2.4,0C337.8,276.2,338.5,276.5,339.2,276.7z M345.4,263.8l-2.6,3.3
				c-0.3,0.2-0.7,0.3-1,0.2c-1.2-0.5-2.2-1.2-3.3-2.6c-0.2-0.2-0.2-0.3,0-0.5c1-1.5,2.1-2.8,2.9-3.6h0.3c1.4,1.2,2.6,2.2,3.6,2.8
				L345.4,263.8L345.4,263.8z M340.9,276.9c1.5,0.2,3.1,0,4.5-0.3c1.7-0.9,2.8-1.7,3.1-2.6c0-0.3,0-0.7-0.3-1l-0.7-0.5
				c-0.2,0-0.3,0-0.5,0c-1,0-2.1,0.5-3.3,1.7C342.6,275,341.7,276,340.9,276.9z"/>
			<path class="st1" d="M358.3,276.7c-0.2,0.5-0.2,1.4-0.3,2.4c-0.2,1.4-0.2,3.3-0.2,5.7c0,2.8,0,4.6-0.2,5.8
				c-0.2,2.4-0.7,4.8-1.9,7.4c-0.2,0.5-0.3,0.7-0.5,0.7c-0.2,0-0.2,0-0.3-0.2c-0.2-0.2-0.3-0.3-0.2-0.9c0.2-0.9,0.3-2.9,0.5-6.2
				c-0.2-2.6-0.3-5.5-0.2-8.8c0.5-1.7,1.4-3.6,2.6-6C357.9,276.4,358.1,276.4,358.3,276.7z"/>
			<path class="st1" d="M361.9,300.1c-0.5,0.2-1.4,0.3-2.8,0.5c-0.3,0-0.5-0.2-0.5-0.3c0-0.3,0.2-0.5,0.7-0.7
				c1.2-0.7,2.2-1.5,3.4-2.2c1.4-0.9,2.4-1.7,3.3-2.4c0.9-1,1.7-2.4,2.6-4.5c0.5-1.7,1.2-3.3,1.7-4.8c0.2-0.2,0.3-0.3,0.5-0.3
				c0.3,0,0.3,0.2,0.3,0.3c0,0.5-0.2,1.9-0.7,4c-0.9,3.6-2.1,6.5-3.3,8.6c-0.5,0.9-1.4,1.4-2.4,1.5
				C363.9,299.9,362.9,300.1,361.9,300.1z"/>
			<path class="st1" d="M409.1,260.4c-0.5,1.2-1.4,2.8-2.9,4.1c-1,0.9-2.4,1.9-4.5,3.1c-2.1,1.4-3.6,2.4-4.5,3.1
				c-0.3,0.3-0.9,0.9-1.4,1.7c0,0,0,0.2-0.2,0.5c0,0.2-0.2,1-0.3,2.6c0,1.5,0,2.8,0,3.4c0,4.8-0.9,8.6-2.6,11.5c0,0-0.5,0.5-1.4,1.7
				c-0.2,0.9-0.3,1.5-0.5,2.2c-0.5,1.4-0.9,2.2-1,2.8c-0.5,1-1,1.7-1.5,2.2c-0.7,0.3-1.4,0.5-2.4,0.7c-0.9,0.2-1.7,0.3-2.6,0.3
				c-1.5,0.3-2.4,0.5-2.6,0.5c-0.2,0-0.3-0.3-0.2-0.5c0.9-0.7,2.2-1.4,4-2.2c1-0.5,2.2-1.2,3.3-1.7c1.2-0.9,1.7-1.7,1.7-2.9
				c0-0.3-0.2-0.5-0.5-0.9c-1.4,0.3-2.4,0.2-3.1-0.7c-0.3-0.3-0.5-0.9-0.5-1.4c0-0.3,0.2-0.9,0.3-1.4c0.2-0.5,0.3-1,0.5-1.5
				c0.2-0.7,0.5-1.4,0.7-2.2c0.3-0.7,0.9-1.2,1.5-1.4c0.7,0,1.2,0.3,1.5,0.9c0.2,0.2,0.5,0.7,1,1.5c0.2,0.3,0.2,0.9,0.3,1.5
				c0.7-0.3,1.2-1,1.9-2.2c0.3-0.7,0.5-1.5,0.5-2.6c0,1,0,0-0.2-2.8c-0.2-3.6,0-5.8,0.2-6.9c0.9-2.4,2.1-4.3,3.6-5.7
				c0.9-0.9,2.6-1.9,4.6-3.1c2.1-1.2,3.4-2.2,4.5-3.3c0.3-0.3,1-0.9,1.7-1.5C409,260,409.1,260.2,409.1,260.4z"/>
			<path class="st1" d="M426.3,300.9h-7.6c-1.5-0.2-3.1-0.3-4.5-0.5c-1.7-0.3-2.9-1.2-3.6-2.2c-0.2-0.2-0.2-0.5-0.2-0.9
				c0-0.5,0.3-1.4,0.9-2.2c2.1-3.4,4.5-5.8,7.4-7.2c0.9-0.3,1.5-0.9,2.4-1.2c0.9-0.5,1.5-1.2,1.9-2.1c0.5-0.7,1-1.7,1.7-3.1
				c0.2-0.2,0.2-0.3,0.3-0.3c0.2,0,0.3,0.2,0.3,0.3c-0.5,2.6-1.5,4.8-3.1,6.7c-0.5,0.5-2.1,1.2-4.3,2.2c-1.9,0.7-3.1,1.7-3.6,3.1
				c0,0.2,0,0.3,0.2,0.5c0.2,0.2,0.3,0.3,0.5,0.5c2.1,0.9,5,1.4,9.1,1.4H438c5.7,0,9.8-0.2,12.5-0.3c0,0,0.2,0.2,0.3,0.2
				c-0.2,0.3-0.3,0.5-0.7,0.9c-0.3,0.2-0.7,0.5-1,0.7c-1.9,1.4-4.3,2.2-7.2,2.8c-0.9,0.2-3.6,0.3-7.9,0.7L426.3,300.9z"/>
			<path class="st1" d="M462.9,292.3L462.9,292.3c-0.5,1-0.9,2.1-1.4,3.1c-0.5,1.2-1,2.2-1.5,2.9c-0.3,0.3-1,0.7-2.4,1
				c-1.4,0.3-3.4,0.9-6.2,1.5c-0.2-0.2-0.2-0.3-0.2-0.5s0.3-0.5,1-0.9c1.2-0.7,2.9-1.9,5.3-3.4c2.4-2.1,3.8-4,4.5-5.8
				c0.5-1.5,1.2-3.8,2.2-6.9c0-0.2,0.2-0.2,0.5-0.2c0.2,0,0.3,0.2,0.5,0.7c-0.2,0.5-0.3,1.2-0.5,2.1c-0.3,1.9-0.5,3.1-0.3,4.1
				c0.2,1.2,0.9,2.1,1.9,2.6c0.5,0.2,1.2,0.3,1.7,0.3c1.4,0,2.8-0.5,4-1.7c0.3-0.5,0.9-1,1.2-1.7c0.5-0.7,1-1,1.5-1.4
				c0.2-0.2,0.5-0.2,0.7-0.2c0.2,0,0.5,0.2,1,0.3c0.5,0.2,0.9,0.3,1,0.3c0.3,0,0.7-0.2,1-0.5c0.3-0.7,1-1.5,1.7-2.6
				c0.2,0,0.3,0,0.3,0c0.2,0.2,0.2,0.9-0.2,1.7c-0.5,0.9-1,1.7-1.5,2.6c-0.7,1-1.5,1.5-2.4,1.5c-0.2,0-0.3,0-0.7-0.2
				c-1-0.2-1.5-0.3-1.4-0.3c-0.2,0-0.5,0-0.7,0.2c-0.5,0.5-1,1.4-1.5,2.8c-0.5,1.2-1,2.1-1.5,2.8c-1.4,1.7-2.9,2.4-4.6,2.2
				c-1.2-0.2-2.2-0.9-2.8-2.2C462.9,295.1,462.8,293.9,462.9,292.3z M470,276l0.3,0.2c1.2,1,2.4,1.9,3.3,2.6c0.2,0.2,0.2,0.5,0,0.9
				c-0.5,0.7-1.5,1.9-2.9,3.3c-0.5,0-1-0.3-1.5-0.7c-0.5-0.3-0.9-0.9-1.4-1.2c-0.5-0.3-0.7-0.7-0.7-1
				C467.8,278.8,468.8,277.6,470,276z M474.1,299.6l0.2-0.3c0.7-0.7,1.9-1.7,3.4-3.1l0.3,0.2c0.7,0.9,1.7,1.9,3.1,3.1l-0.2,0.3
				c-0.9,0.9-1.9,1.9-3.1,3.1c-0.3,0-0.7,0-1.2-0.3c-0.3-0.3-0.7-0.5-1-0.9C475.3,300.9,474.8,300.4,474.1,299.6z"/>
			<path class="st1" d="M497.5,285.5L497.5,285.5c0.7-0.2,1.4-0.2,2.1-0.2c1.7,0,2.9,0.5,4,1.5c0.7,0.7,1,1.7,1,3.1
				c0,0.7-0.2,1.5-0.3,2.8c-0.2,0.5-0.7,1.5-1.2,3.4c-0.3,1.4-0.9,2.4-1.4,3.1c-0.9,1.2-1.9,1.7-3.4,1.7c-0.2,0-0.5,0-0.7,0
				c-1.9-0.5-3.1-2.4-3.4-6c-0.2-1-0.2-2.2-0.2-3.6s0-3.1,0.2-5.7s0.2-4.5,0.2-5.7c-0.2-0.9,0-1.9,0.5-3.1c0.7-1.7,1-2.8,1-2.9
				l0.2-0.2c0.3,0,0.5,0.2,0.5,0.3c-0.5,4-0.9,7.9-0.7,11.7l0.2-0.2c0-0.2,0.2-0.2,0.2-0.2c0-0.2,0.3-0.7,0.9-1.5
				c0.9-1.4,3.1-3.6,6.5-6.7c0.2-0.2,1.7-1.4,4.3-3.6c1.7-1.5,3.1-2.8,4.1-4.1c0.2-0.3,0.5-0.9,1-1.2c0.2,0,0.2,0.2,0.3,0.3v0.7
				c-0.5,1.4-1.2,2.8-2.2,4.1c-1.4,1.5-3.4,3.3-5.8,5.3c-4,3.3-6,4.8-6,5C498.2,284.3,497.7,284.8,497.5,285.5z M502.5,292.2
				c-0.7-1-1.5-1.5-2.8-1.9c-1.5-0.2-2.9,0.2-3.6,1.2c-0.2,0.5-0.2,1.2,0.2,2.2c0.7,1.2,1.7,1.9,2.9,2.1c1.5,0,2.6-0.9,3.4-2.4
				C502.7,292.9,502.7,292.5,502.5,292.2z"/>
			<path class="st1" d="M533.4,266.2v7.4c0,1.4-0.2,2.9-0.7,4.6c-0.5,1.4-1,2.9-1.4,4.3c-0.2,1.2-0.2,1.9,0,2.2
				c0.3,0.2,1,0.5,2.2,0.9c0.9,0.3,1.5,0.7,1.7,1.4c0.7,1.4,0.7,3.3,0.3,5.7c-0.9,6-3.3,10.1-7.7,12.7c-1,0.5-2.1,0.9-3.4,0.9
				s-2.4-0.3-3.3-1c-1.7-1.2-2.8-3.3-3.4-6.2c-0.2-0.9-0.2-1.9-0.2-2.9c0-3.8,0.7-7.9,2.1-12.4c0-0.2,0.2-0.2,0.5-0.2
				c0.2,0.2,0.2,0.9,0,2.2c-0.5,2.9-0.9,5.3-0.9,6.9c0,2.4,0.5,4.3,1.4,5.8s2.2,2.2,4.1,2.2c1.7,0,3.3-0.5,4.8-1.5
				c1.5-1,2.8-2.4,3.6-4c0.7-1.2,0.9-2.4,0.7-3.4c-0.2-0.3-0.5-0.7-1-0.9c-0.9-0.2-1.4-0.3-1.4-0.3c-0.7-0.2-1.4-0.7-1.9-1.4
				c-0.3-1.5-0.2-3.3,0.2-5.3c0.3-1.4,0.5-2.6,0.9-4c0.3-1.5,0.5-2.9,0.5-4.1c-0.2-2.6-0.2-4.3,0-5.5c0.3-0.9,1-2.4,1.7-4.3
				c0.3-0.2,0.3-0.3,0.3-0.3v-0.2C533.3,266,533.4,266,533.4,266.2z"/>
			<path class="st1" d="M539.4,291.5l0.2-7c0-1.4,0-3.3,0.2-5.7c0.3-0.9,0.9-2.2,1.5-4.1c0.2,0,0.3,0,0.3,0.2
				c-0.2,1.4-0.3,3.6-0.5,6.4l-0.2,7.2c0,0.7,0.2,1.5,0.2,2.2c0.2,0.9,0.3,1.5,0.5,2.2c0.2,1.2,0.9,1.9,2.1,2.4
				c0.7,0.2,1.2,0.3,1.9,0.3c2.1,0,4.3-0.9,6.4-2.6c-0.2-0.3-0.3-0.9-0.7-1.5c-0.3-1.2-1.4-1.9-2.9-2.4c-0.2-0.2-0.5-0.2-1,0
				c-0.5,0-0.9,0-1-0.3c0-0.3,0.2-0.7,0.9-1.2c1.7-1.2,3.6-1.7,5.7-1.7c0.9,0,1.5,0.2,2.2,0.3c1.2,0.3,1.9,0.9,1.9,1.9
				c0,0.7-0.2,1.2-0.5,1.5l-1.9,2.9c0.2,0.2,0.5,0.3,1.2,0.2c2.2-0.3,3.8-1.4,4.5-3.1c0.2-0.9,0.3-2.1,0.3-3.4c0-2.1,0-3.3,0-3.4
				c0.2-1,0.7-2.1,1.5-3.4c0-0.3,0.2-0.3,0.5-0.2l0.2,0.3c0,1.5-0.2,4.1-0.3,7.4c-0.3,1.7-0.9,3.1-1.9,4.5c-1,1.5-2.2,2.6-3.8,3.1
				c-0.3,0.2-0.9,0.3-1.4,0.3c-0.7,0-1.5-0.2-2.2-0.5c-2.8,4.3-5.8,6.7-9.5,6.9c-1.4,0-2.6-0.7-3.4-1.9
				C539.8,297.5,539.3,294.9,539.4,291.5z M552.5,273.6l2.8-3.3l0.3,0.2c1.4,1.2,2.4,2.1,3.3,2.6h0.2l2.1-2.4h0.3
				c0.7,0.7,1.7,1.4,3.1,2.4c0.2,0.2,0.2,0.3,0,0.5c-0.5,0.7-1.2,1.7-2.4,2.9c-0.3,0.2-0.7,0.3-0.9,0.2c-1.4-0.7-2.2-1.5-2.9-2.6
				h-0.2l-2.1,2.2c-0.2,0.2-0.3,0.2-0.3,0.2s-0.3-0.2-1.2-0.5c-0.5-0.3-1.4-1-2.2-2.1v-0.3H552.5z"/>
			<path class="st1" d="M584.7,289.2l0.2,0.2c0,2.4,0.5,3.8,1.7,4.6c0.7,0.3,1.2,0.5,1.7,0.3c0.7-0.2,1.4-0.7,2.1-1.4
				c0.5-0.7,0.9-1.4,1-2.2c-0.2-1.7,0.3-3.3,1.5-4.5c0.2,0,0.3,0,0.3,0.2c0.2,1.4,0.2,2.8,0.3,4c0.3,1.5,1,2.4,2.4,2.9
				c0.2,0,0.5,0.2,0.7,0.2c0.9,0,1.7-0.5,2.4-1.4c0.3-0.5,0.5-1.4,0.7-2.1c0.2-0.7,0.2-1.7,0.2-2.4c0-0.3,0-1.4,0-2.9
				c0-1.2,0.2-2.2,0.5-2.9c0.2-0.3,0.3-0.7,0.5-1.2s0.3-0.9,0.5-1.2c0-0.2,0.2-0.2,0.3-0.3c0.2,0,0.2,0,0.3,0.2v8.1
				c-0.5,4-1.7,7.4-3.8,10.1c-1,1-2.1,1.7-2.8,1.7c-0.2,0-0.3,0-0.7-0.2c-1.2-0.2-2.1-1.4-2.8-3.4c0-0.3-0.2-0.9-0.3-1.5h-0.2
				c-0.5,1-1,2.1-1.7,3.1c-0.7,1.2-1.5,1.9-2.4,2.4c-1,0.3-1.9,0.2-2.6-0.3c-0.7-0.5-1.4-1.5-1.7-3.1c-0.2,0.2-0.3,0.5-0.7,0.9
				c-0.3,0.3-0.9,0.9-1.5,1.4c-1.9,1-3.8,1.7-5.3,2.1c-0.5,0-0.7,0-0.9-0.2l0.2-0.3c1.2-0.7,3.1-2.1,6.2-4.5
				c0.9-0.7,1.5-1.7,2.2-3.1c0.3-1,0.9-2.2,1.4-3.3C584.5,289.2,584.7,289.2,584.7,289.2z M596.2,276.7c0.2,0.7,0.3,1.5,0.3,2.2
				c0,1.2-0.3,2.1-0.9,2.8c-0.5,0.5-1,0.7-1.7,0.5s-1.2-0.5-1.5-1.2c-0.2,0.2-0.3,0.5-0.9,0.9c-0.3,0.5-1,0.9-1.5,0.9
				c-0.2,0-0.3,0-0.5-0.2c-0.5-0.2-0.9-0.7-1.2-1.5c0-0.3-0.2-0.7-0.2-1c0-1.2,0.3-2.4,1-3.4l0.5-0.2c0.2,0.2,0.2,0.3,0.2,0.7
				c-0.2,0.2-0.2,0.5-0.2,0.7c-0.3,1.2-0.3,1.7-0.3,1.5c0,0.3,0.2,0.7,0.3,0.9c0.3,0.2,0.7,0.3,0.9,0.2c0.3-0.2,0.5-0.3,0.9-0.7
				c0-0.5,0.2-1,0.2-1.5s0.3-0.9,0.7-1.2c0,0,0.2,0.2,0.3,0.3c0,0.5,0,1,0,1.5c0,0.7,0.3,1,0.7,1.2c0.5,0.2,0.9,0.2,1.2,0
				s0.5-0.3,0.7-0.9c0-0.2-0.2-0.9-0.3-2.1c0.2-0.7,0.3-1.2,0.7-1.5C595.7,275.8,596,276.2,596.2,276.7z M593.8,265.2
				c0,1.7,0,3.3,0,4.8c0,2.1-0.3,3.6-1,4.6c-0.3,0-0.5,0-0.5-0.2c0.2-0.9,0.2-1.9,0.2-3.4c0-1.9,0-3.1,0-3.4s0.2-0.9,0.3-1.4
				c0.3-0.7,0.5-1.2,0.5-1.4s0.2-0.2,0.3-0.2C593.8,264.8,593.8,265,593.8,265.2z"/>
			<path class="st1" d="M608.7,276.7c-0.2,0.5-0.2,1.4-0.3,2.4c-0.2,1.4-0.2,3.3-0.2,5.7c0,2.8,0,4.6-0.2,5.8
				c-0.2,2.4-0.7,4.8-1.9,7.4c-0.2,0.5-0.3,0.7-0.5,0.7s-0.2,0-0.3-0.2c-0.2-0.2-0.3-0.3-0.2-0.9c0.2-0.9,0.5-2.9,0.5-6.2
				c-0.2-2.6-0.3-5.5-0.2-8.8c0.5-1.7,1.4-3.6,2.6-6C608.2,276.4,608.6,276.4,608.7,276.7z"/>
			<path class="st1" d="M665.5,280h0.3c0.3,0.7,0.9,1.4,1.5,2.2c0.7,0.7,1.2,1.4,1.9,2.2c0,0.3-0.2,0.9-0.9,1.9
				c-0.3,0.5-0.9,0.9-1.2,1.4c-0.5,0.5-1,0.7-1.5,0.5c-0.5-0.2-0.9-0.3-1.2-0.5c-0.5-0.2-1-0.3-1.4-0.3s-0.7,0.2-1,0.3
				c-0.7,0.3-1.5,1.2-2.4,2.2c-1.2,1.5-1.9,2.4-2.1,2.6c-1,1-2.1,1.7-3.3,1.7c-0.3,0-0.9-0.2-1.4-0.3c-0.7-0.2-1.2-0.3-1.4-0.3
				c-1.5,3.3-5,5.5-10.5,6.5c-3.8,0.7-7.4,1.2-10.7,1.2c-1.9,0-3.8-0.2-5.7-0.3c-1.2-0.3-1.9-0.5-2.2-0.7c-0.9-0.3-1.4-0.9-1.7-1.5
				c-0.2-0.9-0.3-1.9-0.3-2.9c0-1.4,0.2-3.1,0.7-4.8c0.2-0.3,0.3-0.5,0.5-0.3c0.2,0,0.3,0.2,0.5,0.7c0,0.7,0,1.4,0,2.1
				c0.2,0.9,0.5,1.4,1,1.5c1.5,0.5,3.3,1,5.7,1.2c1.9,0,4,0.2,6,0.2c4.1-0.3,6.7-0.5,7.6-0.7c2.8-0.3,5.2-1,7-2.1
				c0.5-0.2,0.9-0.7,1.4-1.2c0.3-0.5,0.7-1,1-1.5c0.2-0.2,0.2-0.2,0.3-0.2c0.2,0,0.2,0,0.3,0.2c0.2,0.2,0.2,0.2,0.2,0.3
				s0,0.3-0.2,0.7s-0.3,0.7-0.3,0.9c0.2,0,0.3,0,0.7,0c0.3,0,0.7-0.2,0.7-0.2c1.5-0.2,2.9-1,4.3-2.4c0.7-0.7,1.7-2.1,3.1-4
				c0.5-0.7,1.2-1.4,2.2-2.1C664.1,281.9,664.8,280.6,665.5,280z M630.9,287.5l2.8-3.6h0.3c1.4,1.2,2.6,2.1,3.6,2.8h0.2
				c0.5-0.7,1.2-1.5,2.2-2.8h0.3c1.5,1.2,2.6,2.1,3.4,2.6c0.2,0.3-0.2,1-0.9,1.7c-0.3,0.5-1,1.2-2.1,2.2c-0.3,0-0.9-0.2-1.9-0.9
				c-0.5-0.3-1.2-1-2.1-1.9c-0.5,0.5-1.2,1.4-2.1,2.6c-0.2,0.2-0.3,0.2-0.5,0.2s-0.3-0.2-0.7-0.3c-0.5-0.2-0.7-0.3-0.7-0.3
				c-0.3-0.3-0.9-0.7-1.2-1c-0.5-0.3-0.9-0.7-1-1.2L630.9,287.5z"/>
			<path class="st1" d="M674.6,305.1c0.3-0.3,0.5-0.5,0.5-0.5s0.3,0.2,0.7,0.5c1.2,1.2,2.2,1.9,3.1,2.4c0,0,0.2-0.2,0.5-0.5
				c1.2-1.4,1.9-2.1,2.1-2.2c0,0,0.2,0.2,0.5,0.3c1,0.9,2.1,1.7,2.9,2.4c0,0,0,0.2,0,0.3s-0.3,0.5-0.9,1.2l-0.3,0.3
				c-1,1.2-1.5,1.9-1.7,1.9c0,0-0.2,0-0.3,0c-0.5,0-1.2-0.3-2.1-1.2c-0.7-0.5-1-1-1.2-1.4c-0.2-0.2-0.2-0.2-0.2-0.3
				c0,0-0.5,0.3-1.2,1.2c-0.7,0.9-1.2,1.2-1.2,1.4c-0.3,0-0.7,0-1-0.2c-0.7-0.3-1.4-0.9-2.1-1.5c-0.5-0.5-0.9-0.9-0.9-1
				C672.2,308,672.8,306.9,674.6,305.1z"/>
			<path class="st1" d="M682.1,275.5c0.7-1,1.7-2.2,2.9-3.4c0.2-0.2,0.5,0,0.7,0.3c1.2,1,2.2,1.9,3.1,2.6c0,0,0.2-0.2,0.5-0.3
				c0.9-1,1.7-1.9,2.2-2.2c0,0,0.2,0.2,0.3,0.3c0.9,0.7,1.7,1.4,2.6,2.2l0.5,0.3v0.2c0,0.2-0.5,0.9-1.4,1.9l-0.5,0.7
				c-0.5,0.7-0.9,1-1,1s-0.3,0-0.5,0c-1.2-0.5-2.2-1.4-3.1-2.6c0-0.2-0.2-0.2-0.2-0.2s-0.5,0.3-1.2,1.2c-0.7,0.9-1,1.2-1.2,1.2
				c-0.3,0.2-0.7,0.2-1.2-0.2c-0.5-0.2-1-0.7-1.5-1.2l-0.3-0.3C682.3,276,682.1,275.7,682.1,275.5z"/>
			<path class="st1" d="M675.6,273.8h0.2c0.2,0,0.3,0.2,0.2,0.3c-0.5,4-0.5,8.8-0.5,14.4c0.2,2.2,0.3,4,0.7,4.6c0.3,1,1,1.5,1.7,1.9
				c0.2,0,0.5,0.2,0.7,0.2c2.1-0.2,3.8-1,4.8-2.6l0.5-0.9c0.3-0.7,0.9-1,1.2-1.2c0.3-0.2,0.9-0.2,1.7-0.2c0.9,0.2,1.5,0,1.7-0.7
				c0.3-0.7,0.5-1.2,0.3-1.5s-0.3-0.3-0.9-0.3c-1.2,0.2-2.1-0.2-2.6-0.7c-0.5-0.5-0.7-1.2-0.5-2.2l1.5-4.6c0.7-0.9,1.5-1.2,2.6-0.7
				c1,0.7,1.5,1.7,1.9,3.4c0.5,2.2,0,4.8-1.2,7.4c-0.3,0.7-0.7,1.4-1.2,1.9c-0.3,0.5-0.7,0.9-1,0.9c-0.5,0.2-1.2,0.2-2.1,0
				c-0.7-0.2-1.2-0.2-1.4,0.2c-0.2,0.2-0.3,0.7-0.7,1.4c-1,2.6-2.2,4.3-3.6,5.3c-1.2,0.9-2.6,1-3.8,0.2c-0.9-0.5-1.5-1.5-1.9-3.3
				c-0.5-2.1-0.7-4.8-0.5-7.9c0-4,0.2-7.4,0.2-10.7C674.6,276.9,675.1,275.1,675.6,273.8z"/>
			<path class="st1" d="M708.8,300.1c-0.5,0.2-1.4,0.3-2.8,0.5c-0.3,0-0.5-0.2-0.5-0.3c0-0.3,0.2-0.5,0.7-0.7
				c1.2-0.7,2.2-1.5,3.4-2.2c1.4-0.9,2.4-1.7,3.3-2.4c0.9-1,1.7-2.4,2.6-4.5c0.5-1.7,1.2-3.3,1.7-4.8c0.2-0.2,0.3-0.3,0.5-0.3
				c0.3,0,0.3,0.2,0.3,0.3c0,0.5-0.2,1.9-0.7,4c-0.9,3.6-2.1,6.5-3.3,8.6c-0.5,0.9-1.4,1.4-2.4,1.5
				C710.8,299.9,709.8,300.1,708.8,300.1z M715.8,282.2l-0.2-0.2c-1.2-1-2.2-1.9-2.9-2.8c0-0.2,0-0.3,0.2-0.5
				c0.2-0.2,0.3-0.3,0.3-0.5c0.5-0.5,1.2-1.4,2.2-2.2h0.3c0.5,0.7,1.4,1.5,2.6,2.6l0.2,0.2c0,0.2,0,0.2,0,0.3
				C718.1,279.8,717.2,281,715.8,282.2z"/>
			<path class="st1" d="M729.1,292.2c-0.2,1.5-1,3.4-2.4,5.8c-0.3,0.7-1,1-1.9,1.4c-0.7,0.2-1.5,0.3-2.4,0.5
				c-0.5,0.2-1.4,0.5-2.6,0.9c-0.3,0-0.5-0.2-0.5-0.3s0.2-0.5,0.5-0.7c1.2-0.7,2.4-1.4,3.6-2.1c1.4-0.9,2.4-1.7,3.4-2.6
				c0.3-0.3,0.3-0.9,0.3-1.5c-0.2-0.5-0.3-0.7-0.7-0.9c-0.3,0-0.5,0.2-0.9,0.2c-1,0-1.9-0.3-2.4-1.2c-0.2-0.3-0.3-0.7-0.3-1.2
				s0.2-1,0.3-1.5c0.2-0.5,0.5-1,0.7-1.5c0.2-0.5,0.3-1,0.5-1.7c0.3-0.7,0.7-1,1.4-1.4c1-0.2,1.9,0.2,2.4,1.2c0.7,1.2,1,2.4,1,4
				C729.4,290.4,729.2,291.3,729.1,292.2z"/>
			<path class="st1" d="M733.7,300.1c-0.5,0.2-1.4,0.3-2.8,0.5c-0.3,0-0.5-0.2-0.5-0.3c0-0.3,0.2-0.5,0.7-0.7
				c1.2-0.7,2.2-1.5,3.4-2.2c1.4-0.9,2.4-1.7,3.3-2.4c0.9-1,1.7-2.4,2.6-4.5c0.5-1.7,1.2-3.3,1.7-4.8c0.2-0.2,0.3-0.3,0.5-0.3
				c0.3,0,0.3,0.2,0.3,0.3c0,0.5-0.2,1.9-0.7,4c-0.9,3.6-2.1,6.5-3.3,8.6c-0.5,0.9-1.4,1.4-2.4,1.5
				C735.6,299.9,734.6,300.1,733.7,300.1z"/>
		</g>
		<g>
			<g>
				<path class="st1" d="M40.2,269.5c-5.7,3.6-8.4,9.1-8.4,16.7c0,2.9,0.7,5.7,1.9,8.3c1.4,3.3,3.4,5.7,6.2,7.4
					c0.3,0.2,0.5,0.5,0.5,0.7c0,0.3-0.3,0.5-1.2,0.2c-3.3-1.2-6-3.4-8.1-6.5c-2.1-3.1-3.1-6.5-3.1-10c0-4,1.2-7.4,3.4-10.8
					c2.2-3.3,5.2-5.5,8.4-6.7c0.5-0.2,0.7,0,0.7,0.3C40.6,269.1,40.4,269.3,40.2,269.5z"/>
				<path class="st1" d="M66.2,270.8l0.2,0.3c-0.3,1-0.7,2.6-1.4,4.6c-0.2,0.2-0.3,0.3-0.7,0.3c-0.5,0-0.7,0-0.9,0.2
					c-2.8,1.4-4.5,3.4-5.2,6c-0.2,0.7,0,1.4,0.5,1.9c0.2,0.2,0.9,0.3,2.1,0.7c0.9,0.2,1.4,0.7,1.7,1.2c0.5,0.7,0.7,1.7,0.7,2.9
					c0,0.3,0,0.9-0.2,1.5c0,0.9-0.2,1.2-0.2,1.5c-0.5,2.9-1.5,5.5-2.9,7.7c-1.5,2.6-3.6,4.5-5.8,5.8c-1,0.5-2.2,0.9-3.6,0.9
					c-1.5,0-2.8-0.3-3.8-1.2c-2.2-1.9-3.4-4.8-3.4-8.8c0-3.3,0.9-8.1,2.9-14.3l0.3-0.2c0.2,0.2,0.2,0.5,0.2,1
					c-1,4.3-1.5,7.4-1.5,9.3c0,4,1,6.5,2.9,7.7c0.9,0.7,2.1,0.9,3.1,0.9c2.1,0,4.3-0.9,6.5-2.6c2.2-2.1,3.4-4,3.6-5.8
					c0.2-0.9-0.2-1.5-0.7-1.9c-0.9-0.2-1.5-0.5-2.4-0.7c-0.9-0.3-1.5-0.9-1.7-1.5c-0.3-0.7-0.3-1.5-0.3-2.4c0-0.9,0.2-1.9,0.5-3.3
					c1.2-5.2,3.6-8.9,7-11.3c0.9-0.3,1.4-0.5,1.4-0.5C65.8,270.7,66,270.7,66.2,270.8z"/>
				<path class="st1" d="M83.2,294.6L83.2,294.6c0.3-0.7,1-1.7,1.9-2.9c0.5,0,1.2,0.2,2.1,0.9c0.3,0.3,0.5,0.9,0.5,1.4
					c0,0.3-0.2,0.9-0.3,1.5c-0.2,0.5-0.3,1-0.5,1.5c-1.2,1.9-2.4,2.9-3.6,3.1c-1,0.2-1.9-0.2-2.6-0.9c-0.7-0.9-1.2-2.1-1.4-3.8v-0.2
					c-0.3,0.7-0.7,1.4-1,2.1c-0.3,0.9-0.9,1.4-1.4,1.7c-0.9,0.2-3.6,0.9-8.3,1.7c-0.2,0-0.3-0.2-0.2-0.5c0.3-0.3,1-0.9,2.4-1.7
					c2.6-1,5.2-2.9,7.6-5.5c0.7-1.2,1.5-2.6,2.2-4.5c1.2-2.8,1.7-4.3,1.9-4.5c0.2-0.2,0.3-0.2,0.5-0.2c0.2,0,0.3,0,0.5,0.3
					c0,0.3-0.2,0.9-0.3,1.4c-0.2,0.5-0.3,1-0.5,1.5c-0.3,1.2-0.5,2.2-0.5,3.1c0,1.2,0.2,2.1,0.7,3.1
					C82.5,294.1,82.7,294.2,83.2,294.6z M85.3,278.4l-2.8,2.4c-0.3,0.2-0.7,0.3-0.9,0.2c-1.4-1-2.4-2.1-2.9-3.3l0.2-0.2
					c0.9-0.7,2.1-1.7,3.6-3.1l0.3,0.2c0.7,0.7,1.5,1.9,2.9,3.3C85.8,277.9,85.6,278.1,85.3,278.4z"/>
				<path class="st1" d="M109.8,282.9c-0.3,2.1-1,4-2.2,5.7c-0.3,0.3-0.9,0.7-1.9,1c-0.9,0.3-1.5,0.7-1.9,1
					c-0.9,0.9-1.5,2.1-2.2,3.6c-0.5,1.2-1.2,2.4-1.7,3.8c-0.2,0.3-0.5,0.7-0.7,1c-0.3,0.3-0.5,0.7-0.9,0.9c-2.6,0.5-5,0.9-7,1
					c-0.2,0-0.3-0.2-0.5-0.3c0-0.3,0.2-0.5,0.5-0.7c0.3-0.2,0.5-0.3,0.9-0.5c1.5-0.9,2.9-1.5,4.5-2.4c1.7-1,3.1-2.2,4-3.4
					c0.3-0.3,1-1.9,2.2-4.5c0.9-1.7,1.9-2.9,3.3-3.6c1.7-0.5,2.6-1.4,2.8-2.8c0.2-0.2,0.3-0.3,0.5-0.5
					C109.5,282.2,109.7,282.4,109.8,282.9z M107.4,277.2c-1-0.5-2.2-1.4-3.6-2.6l-2.2,2.6c-1.9-0.3-3.1-1.4-4-2.9
					c1.7-2.2,2.8-3.4,3.1-3.6c1,0.9,2.2,1.9,3.6,2.8l2.8-2.9c1.7,1.4,2.9,2.4,3.8,3.1C109.2,275.3,108.1,276.5,107.4,277.2z"/>
				<path class="st1" d="M127.7,287v0.5l-0.7,0.3c-0.7,0.3-1.4,0.9-2.2,1.5c-0.9,0.7-1.4,1.5-1.7,2.2c-0.2,0.3,0,0.7,0.2,0.9
					c1,0,1.9,0.3,2.2,1c0.3,0.7,0.3,1.5-0.2,2.2c-0.5,0.9-1.4,1.2-2.6,0.9c-1.4-0.3-1.9-1.4-1.9-3.3c0-1.5,0.7-3.1,1.9-4.5
					c1-1,2.2-1.7,3.6-2.2c0.2,0,0.5-0.2,0.7-0.2C127.4,286.7,127.6,286.8,127.7,287z"/>
				<path class="st1" d="M140.6,287.4c0.2,0.7,0.2,1.2,0.2,1.9c0,1.2-0.3,2.6-1,4.1c0,0.2-0.7,1.4-1.9,4c-0.2,0.3-0.5,0.7-1,1.2
					c-1.4,0.5-3.6,1-6.5,1.7c-0.2,0.2-0.3,0-0.5-0.3c0-0.2,0.5-0.5,1.5-1.2c0.7-0.5,1.7-1,3.3-1.9c1.4-0.7,2.4-1.4,3.3-2.1
					c0.5-0.5,0.5-1.4,0.3-2.4c-0.3-1.4-1.4-2.4-3.1-3.3c-0.2-0.2-0.2-0.3,0-0.5c0.2-0.2,0.2-0.3,0.3-0.5c0.3-1.2,0.7-2.6,1.4-4.1
					c0.9,0,1.5,0.5,2.2,1.2C139.8,285.8,140.3,286.5,140.6,287.4z"/>
				<path class="st1" d="M153.7,292.2c-0.2,1.5-1,3.4-2.4,5.8c-0.3,0.7-1,1-1.9,1.4c-0.7,0.2-1.5,0.3-2.4,0.5
					c-0.5,0.2-1.4,0.5-2.6,0.9c-0.3,0-0.5-0.2-0.5-0.3s0.2-0.5,0.5-0.7c1.2-0.7,2.4-1.4,3.6-2.1c1.4-0.9,2.4-1.7,3.4-2.6
					c0.3-0.3,0.3-0.9,0.3-1.5c-0.2-0.5-0.3-0.7-0.7-0.9c-0.3,0-0.5,0.2-0.9,0.2c-1,0-1.9-0.3-2.4-1.2c-0.2-0.3-0.3-0.7-0.3-1.2
					s0.2-1,0.3-1.5c0.2-0.5,0.5-1,0.7-1.5c0.2-0.5,0.3-1,0.5-1.7c0.3-0.7,0.7-1,1.4-1.4c1-0.2,1.9,0.2,2.4,1.2c0.7,1.2,1,2.4,1,4
					C154,290.4,153.9,291.3,153.7,292.2z M155.2,276.2L155.2,276.2c-0.2,0.3-0.5,0.9-1.2,1.5c-0.3,0-0.5,0-0.7,0
					c-1.2,0-2.4,0.5-3.1,1.5c-0.7,1.2-1.2,2.1-1.5,2.2c-0.7,0.9-1.4,1.4-2.1,1.7c-0.5,0.2-0.9,0.2-1.2,0.2c-0.5,0-1-0.2-1.4-0.5
					l0.2-0.3c0.5-0.9,1.2-1.9,2.2-3.3c0.3,0.2,0.7,0.3,1,0.3c0.5,0,0.9-0.2,1.4-0.5c0.7-0.7,1.5-1.9,2.9-3.4
					c1.2-1.2,2.4-1.9,3.6-1.9c0.3,0,0.5,0.2,0.9,0.3v0.3C155.9,274.8,155.6,275.3,155.2,276.2z"/>
				<path class="st1" d="M162.6,276.7c-0.2,0.5-0.2,1.4-0.3,2.4c-0.2,1.4-0.2,3.3-0.2,5.7c0,2.8,0,4.6-0.2,5.8
					c-0.2,2.4-0.7,4.8-1.9,7.4c-0.2,0.5-0.3,0.7-0.5,0.7c-0.2,0-0.2,0-0.3-0.2c-0.2-0.2-0.3-0.3-0.2-0.9c0.2-0.9,0.3-2.9,0.5-6.2
					c-0.2-2.6-0.3-5.5-0.2-8.8c0.5-1.7,1.4-3.6,2.6-6C162.1,276.4,162.4,276.4,162.6,276.7z"/>
				<path class="st1" d="M174.8,287.4c0.2,0.7,0.2,1.2,0.2,1.9c0,1.2-0.3,2.6-1,4.1c0,0.2-0.7,1.4-1.9,4c-0.2,0.3-0.5,0.7-1,1.2
					c-1.4,0.5-3.6,1-6.5,1.7c-0.2,0.2-0.3,0-0.5-0.3c0-0.2,0.5-0.5,1.5-1.2c0.7-0.5,1.7-1,3.3-1.9c1.4-0.7,2.4-1.4,3.3-2.1
					c0.5-0.5,0.5-1.4,0.3-2.4c-0.3-1.4-1.4-2.4-3.1-3.3c-0.2-0.2-0.2-0.3,0-0.5c0.2-0.2,0.2-0.3,0.3-0.5c0.3-1.2,0.7-2.6,1.4-4.1
					c0.9,0,1.5,0.5,2.2,1.2C174,285.8,174.5,286.5,174.8,287.4z"/>
				<path class="st1" d="M180.3,300.6l-2.2,0.3c-0.2,0-0.2-0.2-0.3-0.3c0-0.2,0.2-0.5,0.3-0.5s0.5-0.3,0.7-0.3
					c0.7-0.5,1.9-1,3.4-1.7c1.5-0.7,2.8-1.4,3.6-1.9c0.7-0.7,1-1.2,1-1.7c0-0.2,0-0.3-0.2-0.5c-0.2-0.2-0.3-0.5-0.7-0.9
					c-1.2,0.2-2.1,0-2.8-0.5c-0.3-0.5-0.7-0.9-0.7-1.5c0-0.5,0.2-1,0.3-1.7c0.2-0.5,0.5-1,0.7-1.7c0.3-1.2,0.5-1.7,0.5-1.9
					c0.3-0.7,0.9-1,1.5-1.2c0.9-0.2,1.5,0.3,2.1,1.2c0.5,0.9,0.9,2.1,1,3.4h0.2c0.2-0.2,0.2-0.2,0.2-0.2c1.7-1,2.8-2.4,2.6-4.1
					c0-2.9,0-4.6,0-5.2c0.9-1.9,1.5-3.3,2.4-4l0.3,0.2c0,0.3-0.2,2.2-0.5,5.7c-0.2,2.4-0.7,4.1-1.4,5.5c-1.4,2.6-2.8,4.5-4.1,5.3
					c-0.3,2.1-1,4.3-2.2,6.4c-0.5,0.9-1.4,1.5-2.8,1.7C182.6,300.2,181.5,300.4,180.3,300.6z M188.1,302.1l2.4-2.9
					c0.2-0.2,0.2-0.2,0.3-0.2s0.3,0.2,0.7,0.3c0.3,0.3,0.5,0.3,0.7,0.3l2.2,1.5c0.2,0.3,0.2,0.5,0,0.5l-2.8,3.3h-0.2
					c-1.5-0.7-2.6-1.5-3.4-2.2C188.1,302.8,188.1,302.5,188.1,302.1z"/>
				<path class="st1" d="M202.8,276.7c-0.2,0.5-0.2,1.4-0.3,2.4c-0.2,1.4-0.2,3.3-0.2,5.7c0,2.8,0,4.6-0.2,5.8
					c-0.2,2.4-0.7,4.8-1.9,7.4c-0.2,0.5-0.3,0.7-0.5,0.7c-0.2,0-0.2,0-0.3-0.2c-0.2-0.2-0.3-0.3-0.2-0.9c0.2-0.9,0.3-2.9,0.5-6.2
					c-0.2-2.6-0.3-5.5-0.2-8.8c0.5-1.7,1.4-3.6,2.6-6C202.3,276.4,202.7,276.4,202.8,276.7z"/>
				<path class="st1" d="M207.7,269.5c-0.3-0.2-0.3-0.3-0.3-0.5c0-0.3,0.2-0.3,0.7-0.3c3.4,1.2,6.2,3.4,8.4,6.7
					c2.2,3.3,3.4,6.9,3.4,10.8c0,3.6-1,6.9-3.1,10c-2.1,3.1-4.8,5.3-8.1,6.5c-0.7,0.3-1.2,0.2-1.2-0.2c0-0.2,0.2-0.3,0.5-0.7
					c2.8-1.7,4.8-4.1,6.2-7.4c1.2-2.8,1.9-5.5,1.9-8.3C216.1,278.6,213.2,272.9,207.7,269.5z"/>
			</g>
		</g>
	</g>
</g>
<g>
	<g>
		<path class="st0" d="M296.2,380.9l0.3-0.8c4.3-7,9.2-10.8,14.8-10.5c0.8,0,1.9,0.5,3.5,1.3c1.6,0.8,2.7,1.1,3.8,1.1
			c0.5,0,0.8,0,1.3-0.3c1.3-0.3,3-1.1,4.9-2.7c1.9-2.2,3.5-3.2,4.3-3.8c0.5-0.3,1.3,0,2.4,0.5s1.6,0.8,2.2,0.8
			c0.5,0,1.1-0.3,1.6-0.8c0.5-0.8,1.6-1.9,3-3.5c0.3,0,0.5,0,0.8,0.3c-0.3,2.2-1.9,4.3-4.6,6.7c-1.3,1.1-2.7,1.3-4,1.1
			c-0.3,0-0.8-0.3-1.3-0.5c-0.5-0.3-1.1-0.5-1.6-0.5c-0.3,0.3-1.6,1.6-4.9,4.6c-1.9,1.9-3.8,3.2-5.4,3.8c-1.1,0.8-2.4,1.1-3.8,1.1
			c-2.2,0-4.3-0.5-6.2-1.9c-0.5-0.3-1.3-0.3-1.9-0.3c-2.4,0-5.1,1.6-8.1,4.9C296.5,381.2,296.2,380.9,296.2,380.9z M312.1,387.7
			l3-3.2l0.5,0.3c1.6,1.3,3.5,3,5.4,4.3v0.5c-0.8,1.3-2.4,3-4.6,5.1c-0.8,0.3-1.9-0.3-3.2-1.3c-0.8-0.5-1.6-1.3-3-2.7
			C310.3,389.8,310.8,389,312.1,387.7z M321.9,352.1l4.9-5.4h0.5c1.9,1.9,3.8,3.5,5.1,4.3c0,0.3,0,0.3,0.3,0.3
			c0.8-1.1,2.2-2.4,3.8-4.3h0.5c1.1,1.1,2.7,2.4,5.1,4.3c0.3,0.3,0.3,0.5,0,1.1l-4.3,4.6c-0.3,0.3-0.5,0.3-0.8,0.3
			c-0.3,0-0.5,0-1.1-0.3c-0.8-0.5-1.1-0.5-1.1-0.5c-1.9-1.3-3-2.4-3.5-3.5c-0.8,1.1-2.2,2.2-4,4c-0.8-0.3-1.9-0.5-2.7-1.3
			c-0.8-0.8-1.6-1.3-2.4-2.2C322.1,352.9,321.9,352.3,321.9,352.1z"/>
		<path class="st0" d="M381.2,347.5l0.8,0.3c1.3,0.5,2.7,1.3,4,1.9c1.6,0.8,2.4,2.2,2.4,3.5c0,1.3-0.5,3-1.9,4.3
			c-1.1,1.3-2.4,2.2-3.8,2.7c-3.2,0.5-4.9,0.5-5.1,0.5c-1.9,0.5-3.2,1.1-4.3,2.4c-2.4,2.2-4.9,5.1-7.3,9.4c-3.2,5.4-5.7,8.6-6.5,10
			c-3,3.8-7.6,7-13.5,9.7c-0.5,0.3-1.3,0.3-1.6,0.3c-0.3-0.3-0.3-0.3-0.3-0.5c1.3-0.8,3-2.2,5.4-3.8c6.2-4.6,10-8.9,11.9-12.9
			c2.2-5.1,3.8-8.4,4.9-10c2.2-3.5,4.6-6.5,7.6-8.4l3.5-2.2c0.5-1.1,1.3-2.4,1.9-3.8C379.6,349.4,380.4,348.3,381.2,347.5z"/>
		<path class="st0" d="M424.3,358.3c0.5-0.5,1.1-0.5,1.9,0c1.1,0.8,2.2,1.6,3.5,2.7c0.5,0.3,0.8,0.5,0.8,0.8c0,0.3-0.5,1.1-1.9,2.4
			l-2.2,2.4c-0.8,0-1.3,0-1.9-0.5c-0.5-0.3-1.3-1.1-2.4-2.4c-0.5-0.5-1.1-1.1-1.1-1.1c0-0.3,0.5-0.8,1.9-2.2
			C423.8,358.8,424.3,358.3,424.3,358.3z"/>
		<path class="st0" d="M442.9,379.3c0.5-0.5,0.8-0.8,0.8-0.8s0.5,0.3,1.1,0.8c1.9,1.9,3.5,3,4.9,3.8c0,0,0.3-0.3,0.8-0.8
			c1.9-2.2,3-3.2,3.2-3.5c0,0,0.3,0.3,0.8,0.5c1.6,1.3,3.2,2.7,4.6,3.8c0,0,0,0.3,0,0.5c0,0.3-0.5,0.8-1.3,1.9l-0.5,0.5
			c-1.6,1.9-2.4,3-2.7,3c0,0-0.3,0-0.5,0c-0.8,0-1.9-0.5-3.2-1.9c-1.1-0.8-1.6-1.6-1.9-2.2c-0.3-0.3-0.3-0.3-0.3-0.5
			c0,0-0.8,0.5-1.9,1.9c-1.1,1.3-1.9,1.9-1.9,2.2c-0.5,0-1.1,0-1.6-0.3c-1.1-0.5-2.2-1.3-3.2-2.4c-0.8-0.8-1.3-1.3-1.3-1.6
			C438.9,383.9,440.2,382.3,442.9,379.3z"/>
		<path class="st0" d="M454.5,319.2c1.1-1.6,2.7-3.5,4.6-5.4c0.3-0.3,0.8,0,1.1,0.5c1.9,1.6,3.5,3,4.9,4c0,0,0.3-0.3,0.8-0.5
			c1.3-1.6,2.7-3,3.5-3.5c0,0,0.3,0.3,0.5,0.5c1.3,1.1,2.7,2.2,4,3.5l0.8,0.5v0.3c0,0.3-0.8,1.3-2.2,3l-0.8,1.1
			c-0.8,1.1-1.3,1.6-1.6,1.6s-0.5,0-0.8,0c-1.9-0.8-3.5-2.2-4.9-4c0-0.3-0.3-0.3-0.3-0.3s-0.8,0.5-1.9,1.9c-1.1,1.3-1.6,1.9-1.9,1.9
			c-0.5,0.3-1.1,0.3-1.9-0.3c-0.8-0.3-1.6-1.1-2.4-1.9l-0.5-0.5C455.1,320,454.5,319.4,454.5,319.2z"/>
		<path class="st0" d="M442.1,344.5c0,0.8,0.5,1.1,1.6,1.1c2.4,0.3,4.6-0.3,6.2-1.9c0.8-0.5,1.3-1.3,1.9-2.4
			c0.3-0.8,0.5-1.9,0.8-3.5c0.3-1.9,0.8-3.8,1.3-5.7c0.3-1.1,0.5-1.6,0.8-1.9c0.3-0.3,0.5-0.3,0.8-0.3c0,0,0,0.5,0.3,1.6
			c0,3,0.8,4.9,2.4,5.9c2.2,1.3,4,1.3,5.1,0c0.5-0.8,1.3-1.6,2.2-1.9c0.3,0,0.5,0,0.5,0.3l-0.3,0.8c-1.1,4-3.5,7-6.7,9.4
			c-1.1,0.5-1.9,0.8-2.7,0.5c-1.1-0.3-2.2-1.1-3-1.9c-0.3-0.3-0.3-0.3-0.3-0.3c-0.5,1.3-1.6,2.4-2.4,3.5c-1.6,1.9-4,2.7-7,2.7v1.1
			c0,3-0.3,5.4-0.5,7.3c-1.6,10.2-5.9,18.3-12.7,24.3c-2.7,2.2-5.7,3.5-8.9,3.8c-1.3,0.3-3,0.3-4.3,0c-4-1.1-6.5-3.8-7.8-7.6
			c-1.1-4.6-1.1-9.2-0.3-14.3c0.8-4,1.9-7.3,3.2-10c0.3-0.5,0.5-0.8,0.8-0.8c0.3,0,0.5,0.3,0.5,0.8c0,0.3,0,0.8-0.3,1.9
			c-1.1,4-1.9,7-1.9,9.7c-0.3,2.7,0.3,4.9,0.8,6.7c0.8,2.2,2.4,3.5,4.9,4.3c4.3,0.8,8.4,0.5,12.1-1.3c4.6-2.4,7.8-6.2,10-11.1
			c1.6-3.8,2.2-8.1,1.6-12.9c-0.3-2.7-0.3-4.6,0-5.7c0.3-0.5,0.3-1.1,0.8-1.9c0.3-0.3,0.3-0.5,0.5-0.5
			C441.9,343.7,442.1,344,442.1,344.5z"/>
	</g>
</g>
</svg>
